<svg xmlns="http://www.w3.org/2000/svg" viewBox="0 0 24 24"><path d="M22.5 6.5v12a2.006 2.006 0 01-2 2h-7a2.006 2.006 0 01-2-2v-12M23.5 6a.5.5 0 01-.5.5H11a.5.5 0 01-.5-.5V5A1.5 1.5 0 0112 3.5h10A1.5 1.5 0 0123.5 5z" fill="none" stroke="currentColor" stroke-linecap="round" stroke-linejoin="round"/><path d="M22.5 16.5H16a.5.5 0 01-.5-.5v-6a.5.5 0 01.5-.5h6.5zM8.5 19A1.5 1.5 0 017 20.5H2a1.5 1.5 0 010-3h5A1.5 1.5 0 018.5 19zM4.5 17.5v3M9.1 10.44a1.5 1.5 0 010 2.121L5.56 16.1a1.5 1.5 0 01-2.121-2.121l3.536-3.539a1.5 1.5 0 012.125 0zM5.207 12.207l2.121 2.121" fill="none" stroke="currentColor" stroke-linecap="round" stroke-linejoin="round"/></svg>
