<svg width="25" height="22" xmlns="http://www.w3.org/2000/svg" xmlns:xlink="http://www.w3.org/1999/xlink"><use xlink:href="#prefix__path0_fill" transform="translate(21.49 1.468)" fill="#FFF"/><use xlink:href="#prefix__path1_fill" transform="translate(8.19 4.863)" fill="#FF9100"/><use xlink:href="#prefix__path2_fill" transform="translate(8.19 4.863)" fill="#FD0"/><use xlink:href="#prefix__path3_fill" transform="translate(6.75 3.413)" fill="#FFF"/><use xlink:href="#prefix__path4_stroke" transform="translate(6.75 3.413)"/><use xlink:href="#prefix__path5_fill" transform="translate(8.24 1.056)" fill="#FFF"/><use xlink:href="#prefix__path6_stroke" transform="translate(8.24 1.056)" fill="#050505"/><use xlink:href="#prefix__path7_stroke" transform="translate(7.29 4.863)"/><use xlink:href="#prefix__path8_fill" transform="translate(7.07 9.304)" fill="#FFF"/><g transform="translate(-5180 -696)"><use xlink:href="#prefix__path9_stroke" transform="translate(5187.07 705.304)"/></g><g opacity=".2" transform="translate(-5180 -696)"><mask id="prefix__a"><use xlink:href="#prefix__path10_fill" fill="#fff" transform="translate(5180.65 701.166)"/></mask><g mask="url(#prefix__a)"><use xlink:href="#prefix__path11_stroke_2x" transform="translate(5180.65 701.166)" fill="#FFF"/></g></g><g opacity=".2" transform="translate(-5180 -696)"><use xlink:href="#prefix__path12_fill" transform="translate(5200.84 707.692)" fill="#FFF"/></g><g transform="translate(-5180 -696)"><use xlink:href="#prefix__path12_fill" transform="translate(5184.56 712.696)" fill="#FFF"/></g><defs><path id="prefix__path0_fill" fill-rule="evenodd" d="M1.12.172A.558.558 0 00.962.56v.403H.56a.56.56 0 000 1.12h.403v.403a.56.56 0 101.12 0v-.403h.403a.56.56 0 000-1.12h-.403V.56a.56.56 0 00-.964-.388z"/><path id="prefix__path1_fill" fill-rule="evenodd" d="M5.03.03L0 0l2.47 15.726h6.018L10.958 0 5.03.03z"/><path id="prefix__path2_fill" fill-rule="evenodd" d="M5.03.03L0 0l2.47 15.726h4.761L9.7 0 5.03.03z"/><path id="prefix__path3_fill" fill-rule="evenodd" d="M0 1.45h12.979V0H0v1.45z"/><path id="prefix__path4_stroke" d="M0 1.45h-.44v.44H0v-.44zm12.979 0v.44h.44v-.44h-.44zm0-1.45h.44v-.44h-.44V0zM0 0v-.44h-.44V0H0zm0 1.89h12.979v-.88H0v.88zm13.419-.44V0h-.88v1.45h.88zm-.44-1.89H0v.88h12.979v-.88zM-.441 0v1.45H.44V0h-.88z"/><path id="prefix__path5_fill" fill-rule="evenodd" d="M8.982 0H.943L0 2.175h9.925L8.982 0z"/><path id="prefix__path6_stroke" d="M8.982 0l.404-.175L9.27-.44h-.29V0zM.943 0v-.44H.654L.54-.175.943 0zM0 2.175L-.404 2l-.267.616H0v-.44zm9.925 0v.44h.67L10.33 2l-.404.175zM8.982-.44H5.883v.88h3.099v-.88zm-3.099 0H4.042v.88h1.841v-.88zm-1.841 0H.943v.88h3.099v-.88zM.539-.175L-.404 2l.808.35.943-2.175-.808-.35zM0 2.615h4.042v-.88H0v.88zm4.042 0h1.841v-.88H4.042v.88zm1.841 0h4.042v-.88H5.883v.88zM10.329 2L9.386-.175l-.808.35.943 2.175.808-.35z"/><path id="prefix__path7_stroke" d="M5.928.03l-.002.44h.004L5.928.03zM0 0l.002-.44-.517-.003.08.511L0 0zm2.47 15.726l-.435.068.058.372h.377v-.44zm6.916 0v.44h.376l.059-.372-.435-.068zM11.856 0l.435.068.08-.51-.517.002.002.44zM5.93-.41L.002-.44l-.004.88 5.928.03.004-.88zM-.435.068l2.47 15.726.87-.137L.435-.068l-.87.136zM2.47 16.166h.539v-.88H2.47v.88zm.539 0h5.838v-.88H3.009v.88zm5.838 0h.539v-.88h-.539v.88zm.974-.372L12.29.068l-.87-.136-2.47 15.725.87.137zM11.854-.44l-5.928.03.004.88 5.928-.03-.004-.88z"/><path id="prefix__path8_fill" fill-rule="evenodd" d="M12.26 0H0l1.107 6.254L6.13 6.2l5.023.054L12.26 0z"/><path id="prefix__path9_stroke" d="M12.26 0l.434.077.091-.517h-.525V0zM0 0v-.44h-.525l.091.517L0 0zm1.107 6.254l-.434.077.065.367.374-.004-.005-.44zM6.13 6.2l.005-.44h-.01l.005.44zm5.023.054l-.005.44.374.004.065-.367-.434-.077zM12.26-.44H6.343v.88h5.917v-.88zm-5.917 0h-.426v.88h.426v-.88zm-.426 0H0v.88h5.917v-.88zm-6.35.517L.672 6.33l.867-.154L.434-.077l-.868.154zm1.545 6.617l5.023-.054-.01-.88-5.023.054.01.88zm5.013-.054l5.024.054.01-.88-5.024-.055-.01.88zm5.462-.31L12.694.078l-.867-.154-1.107 6.254.867.154z"/><path id="prefix__path10_fill" fill-rule="evenodd" d="M1.845 3.698A1.847 1.847 0 003.69 1.849 1.847 1.847 0 001.845 0 1.847 1.847 0 000 1.849C0 2.87.826 3.698 1.845 3.698z"/><path id="prefix__path11_stroke_2x" d="M1.845 5.117a3.266 3.266 0 003.264-3.268H2.27c0 .24-.193.43-.426.43v2.838zm3.264-3.268a3.266 3.266 0 00-3.264-3.268V1.42c.233 0 .426.19.426.43H5.11zM1.845-1.419A3.266 3.266 0 00-1.419 1.85H1.42c0-.24.193-.43.426-.43V-1.42zM-1.419 1.85a3.266 3.266 0 003.264 3.268V2.279a.428.428 0 01-.426-.43H-1.42z"/><path id="prefix__path12_fill" fill-rule="evenodd" d="M.868 1.74A.87.87 0 10.866.002.87.87 0 00.868 1.74z"/></defs></svg>
