<svg xmlns="http://www.w3.org/2000/svg" viewBox="0 0 24 24"><path d="M16.583 11.611L21.29 1.239a1.142 1.142 0 112.137.805l-2.646 9.237M4.5 12.5a2 2 0 014 0M13 14.25a1.5 1.5 0 013 0M10.5 10.5a1 1 0 012 0" fill="none" stroke="currentColor" stroke-linecap="round" stroke-linejoin="round"/><path d="M.5 11.5V14c0 5.247 4.5 9.5 11.5 9.5s11.5-4.253 11.5-9.5v-2.5" fill="none" stroke="currentColor" stroke-linecap="round" stroke-linejoin="round"/><path d="M16.5 6.9a24.859 24.859 0 00-4.5-.4C5.649 6.5.5 8.739.5 11.5s5.149 5 11.5 5 11.5-2.239 11.5-5a2.36 2.36 0 00-.261-1.059" fill="none" stroke="currentColor" stroke-linecap="round" stroke-linejoin="round"/></svg>
