<svg xmlns="http://www.w3.org/2000/svg" viewBox="0 0 24 24"><defs><style>.business-climb-top{fill:none;stroke:currentColor;stroke-linecap:round;stroke-linejoin:round;stroke-width:0.985px;}</style></defs><path class="business-climb-top" d="M4.25,23.5,12.75,10a1.259,1.259,0,0,1,2,0l8.5,13.5Z"/><path class="business-climb-top" d="M4.25,23.5H.75L4.25,18a1.341,1.341,0,0,1,1-.5,1.341,1.341,0,0,1,1,.5L6.9,19.3"/><path class="business-climb-top" d="M8.705,16.424l2.343,1.982a1,1,0,0,0,1.353-.057l.642-.642a1,1,0,0,1,1.414,0l.642.642a1,1,0,0,0,1.353.057l2.3-1.943"/><line class="business-climb-top" x1="13.75" y1="9.5" x2="13.75" y2="0.5"/><path class="business-climb-top" d="M13.75.5h6.96a.5.5,0,0,1,.39.812L20,2.688a.5.5,0,0,0,0,.624l1.1,1.376a.5.5,0,0,1-.39.812H13.75"/></svg>
