<svg class="can" width="13.19" height="24" xmlns="http://www.w3.org/2000/svg" xmlns:xlink="http://www.w3.org/1999/xlink" viewBox="0 0 55 100" version="1.1" x="0px" y="0px"><g stroke="none" stroke-width="1" fill="none" fill-rule="evenodd"><path fill="currentColor" d="M24.8687,15.6577 L20.7767,16.3797 C19.0897,16.6757 16.7457,15.8047 15.6647,14.4737 L14.9857,13.6367 C14.5917,13.1507 14.4347,12.6877 14.5547,12.3657 C14.6757,12.0437 15.0987,11.7957 15.7177,11.6867 L19.8107,10.9657 C20.0327,10.9267 20.2677,10.9067 20.5127,10.9067 C20.9597,10.9067 21.4387,10.9707 21.9227,11.0957 C21.9217,11.1087 21.9237,11.1207 21.9227,11.1337 C21.9227,11.1397 21.9237,11.1457 21.9227,11.1517 C21.9077,11.3347 21.9197,11.5217 21.9497,11.7107 C21.9577,11.7617 21.9697,11.8117 21.9807,11.8627 C22.0137,12.0117 22.0607,12.1617 22.1227,12.3117 C22.1437,12.3647 22.1617,12.4177 22.1867,12.4697 C22.2787,12.6627 22.3867,12.8557 22.5257,13.0427 L22.8757,13.5147 C23.0197,13.7087 23.1897,13.8867 23.3717,14.0577 C23.4187,14.1027 23.4687,14.1457 23.5187,14.1887 C23.6767,14.3257 23.8437,14.4537 24.0217,14.5727 C24.0627,14.6007 24.1007,14.6307 24.1427,14.6577 C24.3557,14.7917 24.5797,14.9117 24.8117,15.0177 C24.8837,15.0507 24.9567,15.0777 25.0297,15.1077 C25.2017,15.1787 25.3757,15.2407 25.5527,15.2947 C25.6077,15.3117 25.6597,15.3377 25.7147,15.3527 C25.4607,15.5247 25.1207,15.6137 24.8687,15.6577 L24.8687,15.6577 L24.8687,15.6577 Z M32.6027,9.5557 C32.6257,10.0887 32.8107,10.6387 33.1897,11.1497 L33.5387,11.6207 C33.7267,11.8737 33.9577,12.1047 34.2097,12.3187 L27.4497,13.5107 C27.3267,13.5327 27.1987,13.5427 27.0667,13.5427 C27.0647,13.5427 27.0637,13.5417 27.0627,13.5417 C26.8417,13.5417 26.6127,13.5067 26.3847,13.4547 C26.3547,13.4487 26.3247,13.4437 26.2957,13.4367 C26.0837,13.3827 25.8757,13.3057 25.6747,13.2157 C25.6327,13.1967 25.5907,13.1777 25.5497,13.1577 C25.3547,13.0607 25.1697,12.9517 25.0047,12.8277 C24.9757,12.8067 24.9507,12.7837 24.9237,12.7617 C24.7537,12.6257 24.5987,12.4807 24.4827,12.3237 L24.1317,11.8507 C24.0377,11.7247 23.9827,11.6117 23.9497,11.5137 C23.9437,11.4967 23.9417,11.4807 23.9377,11.4627 C23.9227,11.4037 23.9227,11.3577 23.9287,11.3187 C23.9347,11.2757 23.9407,11.2327 23.9717,11.2007 C24.0467,11.1227 24.2017,11.0367 24.4667,10.9907 L32.6027,9.5557 L32.6027,9.5557 Z M35.1327,9.1097 L37.5317,8.6867 C37.6527,8.6657 37.7797,8.6557 37.9107,8.6557 C38.8397,8.6557 39.9627,9.1637 40.4817,9.8647 L40.8297,10.3347 C41.0267,10.5977 41.0757,10.8137 41.0367,10.9097 C40.9987,11.0057 40.8167,11.1277 40.4937,11.1837 L38.0987,11.6067 C37.1187,11.7807 35.7397,11.2287 35.1457,10.4297 L34.7967,9.9587 L34.7967,9.9587 C34.6007,9.6947 34.5517,9.4797 34.5897,9.3837 C34.6277,9.2877 34.8117,9.1667 35.1327,9.1097 L35.1327,9.1097 L35.1327,9.1097 Z M42.1867,8.6677 C41.1457,7.2627 38.9867,6.3987 37.2657,6.7027 L37.1847,6.7167 C37.1837,6.7167 37.1817,6.7167 37.1807,6.7177 L34.7857,7.1397 C34.7857,7.1397 34.7857,7.1397 34.7847,7.1397 L24.1187,9.0207 C23.7407,9.0867 23.4137,9.2227 23.1167,9.3907 C21.8717,8.9567 20.5677,8.8007 19.4637,8.9957 L15.3707,9.7167 C14.0157,9.9557 13.0607,10.6487 12.6807,11.6667 C12.3067,12.6697 12.5807,13.8467 13.4327,14.8967 L14.1127,15.7337 C15.4307,17.3597 17.8937,18.4367 20.0837,18.4367 C20.4397,18.4367 20.7887,18.4077 21.1237,18.3487 L25.2167,17.6277 C26.6927,17.3677 27.6847,16.5507 27.9757,15.4487 L40.9447,13.1617 C41.9367,12.9877 42.6837,12.4387 42.9947,11.6567 C43.3087,10.8717 43.1417,9.9547 42.5367,9.1397 L42.1867,8.6677 L42.1867,8.6677 Z M52.4477,82.4067 C52.4827,82.6367 52.4997,82.8697 52.4997,83.1047 C52.4997,84.9557 51.4027,86.7177 49.4897,88.2717 C49.2517,88.4667 49.0007,88.6557 48.7397,88.8427 C48.5997,88.9427 48.4517,89.0407 48.3047,89.1387 C48.2107,89.2007 48.1157,89.2637 48.0187,89.3247 C46.2747,90.4337 44.0877,91.4027 41.5827,92.1797 C44.2887,88.2297 49.3907,78.7677 46.1957,67.0647 C45.1217,63.1347 43.7017,59.8447 42.4487,56.9427 C41.8347,55.5227 41.2557,54.1807 40.8087,52.9607 C38.6667,47.1247 37.8327,43.2917 37.8327,39.2897 C37.8327,33.4647 40.2177,30.9117 40.2597,30.8677 C40.3587,30.7677 40.4307,30.6497 40.4777,30.5257 C45.9097,29.1747 50.1617,27.0047 52.4997,24.3527 L52.4997,81.4577 C52.4997,81.6767 52.4827,81.8897 52.4497,82.0987 L52.4247,82.2527 L52.4477,82.4067 L52.4477,82.4067 Z M27.2497,97.9387 C17.6547,97.9387 9.2267,95.2297 6.3697,91.6097 C11.0277,94.2667 17.8807,95.9887 25.7137,96.1887 C25.7197,96.1897 25.7257,96.1897 25.7327,96.1897 C26.2347,96.2027 26.7397,96.2097 27.2497,96.2097 C27.7597,96.2097 28.2657,96.2027 28.7677,96.1897 C28.7737,96.1897 28.7807,96.1897 28.7867,96.1887 C28.8907,96.1867 28.9937,96.1817 29.0977,96.1777 C29.1747,96.1967 29.2537,96.2097 29.3337,96.2097 C29.4327,96.2097 29.5317,96.1897 29.6287,96.1597 C37.1097,95.8617 43.6407,94.1707 48.1317,91.6097 C45.2757,95.2287 36.8467,97.9387 27.2497,97.9387 L27.2497,97.9387 L27.2497,97.9387 Z M1.9997,83.1047 C1.9997,82.8697 2.0177,82.6367 2.0527,82.4067 L2.0747,82.2537 L2.0507,82.1017 C2.0167,81.8917 1.9997,81.6767 1.9997,81.4577 L1.9997,24.3527 C6.0157,28.9067 15.6817,32.0437 27.2497,32.0437 C29.1747,32.0437 31.0467,31.9567 32.8487,31.7907 C31.6167,33.8027 30.1797,37.8177 32.4317,44.0307 C33.0527,45.7427 33.7387,47.4697 34.4017,49.1387 C37.1627,56.0897 40.0187,63.2777 39.9997,73.3527 C39.9747,87.1257 30.8517,93.1587 29.1327,94.1737 C29.0147,94.1777 28.8977,94.1827 28.7797,94.1867 C28.2717,94.2007 27.7627,94.2097 27.2497,94.2097 C26.7377,94.2097 26.2277,94.2007 25.7207,94.1867 C25.5417,94.1817 25.3647,94.1747 25.1867,94.1677 C24.8697,94.1567 24.5547,94.1407 24.2407,94.1237 C24.0137,94.1117 23.7867,94.0997 23.5617,94.0847 C23.3587,94.0717 23.1577,94.0537 22.9567,94.0377 C16.2097,93.5047 10.2907,91.7477 6.4797,89.3247 C6.3847,89.2637 6.2917,89.2027 6.1987,89.1407 C6.0497,89.0417 5.9007,88.9427 5.7577,88.8417 C5.4997,88.6557 5.2497,88.4677 5.0137,88.2747 C3.0987,86.7207 1.9997,84.9567 1.9997,83.1047 L1.9997,83.1047 L1.9997,83.1047 Z M38.4887,93.0027 C36.7217,93.4007 34.8437,93.7097 32.8857,93.9147 C36.4977,90.8557 41.9797,84.3977 41.9997,73.3567 C42.0197,62.8957 39.0917,55.5277 36.2607,48.4007 C35.5727,46.6687 34.9217,45.0327 34.3127,43.3487 C31.4657,35.4977 35.2197,31.8977 35.3897,31.7407 C35.4767,31.6617 35.5367,31.5667 35.5897,31.4697 C36.2997,31.3687 36.9957,31.2537 37.6777,31.1287 C36.8307,32.6707 35.8327,35.3207 35.8327,39.2897 C35.8327,43.5477 36.7017,47.5737 38.9317,53.6507 C39.3977,54.9217 39.9887,56.2877 40.6127,57.7357 C41.8397,60.5767 43.2307,63.7977 44.2657,67.5917 C48.1247,81.7217 38.6767,92.7317 38.5807,92.8407 C38.5387,92.8897 38.5197,92.9487 38.4887,93.0027 L38.4887,93.0027 L38.4887,93.0027 Z M4.4147,14.5977 C7.4297,18.7567 15.5827,21.6697 25.4177,21.9657 C25.8937,21.9817 26.3727,21.9917 26.8567,21.9957 C26.9287,21.9957 26.9997,21.9997 27.0727,21.9997 C27.0937,21.9997 27.1147,21.9987 27.1357,21.9987 C27.1737,21.9987 27.2117,21.9997 27.2497,21.9997 C38.0057,21.9997 46.8857,18.8917 49.9837,14.4787 C51.6317,16.4207 52.4997,18.1707 52.4997,19.5887 C52.4997,25.2557 40.9367,30.0437 27.2497,30.0437 C13.5627,30.0437 1.9997,25.2557 1.9997,19.5887 C1.9997,18.1757 2.8177,16.4987 4.4147,14.5977 L4.4147,14.5977 L4.4147,14.5977 Z M47.6107,7.7887 C43.4467,4.5767 35.8397,2.4997 27.0727,2.4997 C19.4907,2.4997 12.7647,4.0487 8.3907,6.5447 C12.0377,3.9727 18.7237,1.9997 27.2497,1.9997 C37.1117,1.9997 44.5357,4.6337 47.6107,7.7887 L47.6107,7.7887 L47.6107,7.7887 Z M48.6617,12.4547 C46.4557,16.5617 37.3557,19.6347 27.2497,19.6347 C16.9657,19.6347 7.7057,16.4547 5.7107,12.2387 L5.5527,11.9037 C7.3397,8.1637 15.5157,4.4997 27.0727,4.4997 C38.9867,4.4997 47.3287,8.3927 48.7607,12.2497 C48.7357,12.3187 48.6917,12.3867 48.6617,12.4547 L48.6617,12.4547 L48.6617,12.4547 Z M54.4997,19.5887 C54.4997,17.4967 53.2917,15.1277 50.9377,12.5437 C51.0847,12.0397 51.1667,11.5257 51.1667,10.9997 C51.1667,4.8317 40.6607,-0.0003 27.2497,-0.0003 C13.8387,-0.0003 3.3337,4.8317 3.3337,10.9997 C3.3337,11.2947 3.3647,11.5847 3.4117,11.8727 C3.4017,11.9067 3.3817,11.9407 3.3717,11.9747 L3.2937,12.2497 L3.3717,12.5247 C3.3877,12.5787 3.4167,12.6297 3.4337,12.6837 C1.1347,15.2337 -0.0003,17.5007 -0.0003,19.5887 C-0.0003,19.7647 0.0077,19.9407 0.0227,20.1157 C0.0077,20.2897 -0.0003,20.4657 -0.0003,20.6427 L-0.0003,81.4577 C-0.0003,81.7277 0.0177,81.9967 0.0537,82.2627 C0.0177,82.5427 -0.0003,82.8257 -0.0003,83.1047 C-0.0003,85.4447 1.2187,87.6227 3.3677,89.5057 C3.9917,95.3937 14.2897,99.9387 27.2497,99.9387 C40.2107,99.9387 50.5077,95.3937 51.1327,89.5057 C53.2817,87.6227 54.4997,85.4447 54.4997,83.1047 C54.4997,82.8247 54.4827,82.5417 54.4467,82.2617 C54.4827,81.9967 54.4997,81.7277 54.4997,81.4577 L54.4997,20.6427 C54.4997,20.4657 54.4927,20.2887 54.4777,20.1157 C54.4927,19.9407 54.4997,19.7647 54.4997,19.5887 L54.4997,19.5887 L54.4997,19.5887 Z" fill="#000000"/></g></svg>
