<svg xmlns="http://www.w3.org/2000/svg" viewBox="0 0 24 24"><path fill="none" stroke="currentColor" stroke-linecap="round" stroke-linejoin="round" d="M5.822.5l14.85 14.849M23.5 12.521l-2.232-2.232c-2.078-2.078-5.051-2.506-6.607-.95h0c-1.555 1.555-1.128 4.529.95 6.607l2.232 2.232"/><path d="M22.086 13.935l-3.492-3.491c-1.385-1.386-3.155-1.883-3.933-1.105h0c-.778.778-.28 2.548 1.105 3.933l3.491 3.491M1 23.25A.25.25 0 11.75 23a.25.25 0 01.25.25M5 21.25a.25.25 0 11.25.25.25.25 0 01-.25-.25M9 22.25a.25.25 0 11.25.25.25.25 0 01-.25-.25M18 22.25a.25.25 0 11.25.25.25.25 0 01-.25-.25M12 17.75a.25.25 0 11.25.25.25.25 0 01-.25-.25M8 18.75a.25.25 0 11.25.25.25.25 0 01-.25-.25M13.5 21.25a.25.25 0 11.25.25.25.25 0 01-.25-.25M22 22.75a.25.25 0 11.25.25.25.25 0 01-.25-.25M21.5 18.75a.25.25 0 11.25.25.25.25 0 01-.25-.25M2.25 19a.25.25 0 11-.25.25.25.25 0 01.25-.25" fill="none" stroke="currentColor" stroke-linecap="round" stroke-linejoin="round"/></svg>
