<svg xmlns="http://www.w3.org/2000/svg" viewBox="0 0 24 24"><rect x=".5" y=".5" width="23" height="23" rx="1" ry="1" fill="none" stroke="currentColor" stroke-linecap="round" stroke-linejoin="round"/><circle cx="12" cy="14.5" r="6" fill="none" stroke="currentColor" stroke-linecap="round" stroke-linejoin="round"/><path d="M23.5 6.5h-4.884a.979.979 0 01-.541-.168 10.988 10.988 0 00-12.15 0 .979.979 0 01-.541.168H.5M20.75 2.75a.25.25 0 11-.25.25.25.25 0 01.25-.25M17.75 2.75a.25.25 0 11-.25.25.25.25 0 01.25-.25" fill="none" stroke="currentColor" stroke-linecap="round" stroke-linejoin="round"/><circle cx="12" cy="14.5" r="4" fill="none" stroke="currentColor" stroke-linecap="round" stroke-linejoin="round"/></svg>
