<svg xmlns="http://www.w3.org/2000/svg" viewBox="0 0 24 24"><path d="M14.5 19.806a5.017 5.017 0 002.339-3.052 1 1 0 00-.968-1.254H8.129a1 1 0 00-.968 1.254A5.017 5.017 0 009.5 19.806" fill="none" stroke="currentColor" stroke-linecap="round" stroke-linejoin="round"/><path d="M14.5 21a2.5 2.5 0 01-5 0v-2.5a1 1 0 011-1h3a1 1 0 011 1zM16.5 22.585a11.5 11.5 0 10-9 0M14.5 9.608a2.359 2.359 0 014 0" fill="none" stroke="currentColor" stroke-linecap="round" stroke-linejoin="round"/><circle cx="7" cy="9" r="2.5" fill="none" stroke="currentColor" stroke-linecap="round" stroke-linejoin="round"/><path d="M7 8.75a.25.25 0 10.25.25.25.25 0 00-.25-.25" fill="none" stroke="currentColor" stroke-linecap="round" stroke-linejoin="round"/></svg>
