<svg xmlns="http://www.w3.org/2000/svg" viewBox="0 0 30 30" width="30" height="30" fill="currentColor"><path d="M15 2a12.94 12.94 0 0 0-8.451 3.135l2.838 2.838A8.958 8.958 0 0 1 15 6c2.125 0 4.073.742 5.613 1.973l2.838-2.838A12.94 12.94 0 0 0 15 2zM5.135 6.549A12.94 12.94 0 0 0 2 15c0 7.18 5.82 13 13 13s13-5.82 13-13a12.94 12.94 0 0 0-3.135-8.451l-2.838 2.838a8.958 8.958 0 0 1 1.01 9.65l-5.031-5.031S15.977 11 16 11v6l4.84 4.84A8.956 8.956 0 0 1 15 24a8.956 8.956 0 0 1-5.84-2.16L14 17v-6c.023 0-2.006 3.006-2.006 3.006l-5.031 5.031a8.958 8.958 0 0 1 1.01-9.65L5.135 6.549z"/></svg>
