<svg xmlns="http://www.w3.org/2000/svg" width="30" height="30" viewBox="0 0 512 512"><path fill="currentColor" d="M0 256v256h512V0H0v256zm299.5-147.1c20.2 4.5 33.4 10.4 46.1 20.5 14.8 11.7 25.2 27.7 30.1 46.4 3.4 13.2 4.3 34.8 1.9 47.5-5.2 27.3-20.2 50-41.3 62.2l-8.2 4.7 9.7 18.7c5.3 10.2 18.7 36.1 29.8 57.6l20.2 39-42.6.3c-23.4.1-42.9-.1-43.3-.5-.4-.5-12.1-24.1-26-52.6L250.6 301H211v105h-75.8l-.6-2.3c-.8-2.9-.7-292.5 0-295.5l.7-2.3 77.1.4c75.6.3 77.3.4 87.1 2.6z"/><path fill="currentColor" d="M211 205.6v41.5l29.3-.3c26.9-.3 29.7-.5 34.9-2.5 11.5-4.3 19.4-11.9 23.4-22.7 2.9-7.7 2.6-25-.5-32.8-2.8-7.3-10.8-16.1-17.5-19.5-9.5-4.8-13.1-5.3-42.3-5.3H211v41.6z"/></svg>
