<svg xmlns="http://www.w3.org/2000/svg" viewBox="0 0 400 400"><path d="M199.01 37.34c16.77-.79 32.31 12.05 34.78 28.61 1.43 9.19-.64 17.79-5.68 25.54 10.67 1.78 21.1 4.64 31.39 7.92 31.79 11.3 60.11 31.68 80.7 58.42 29.25 37.14 42.31 86.7 35.38 133.42 5.04.08 10.13-.2 15.16.12 5.09.29 8.71 6.61 6.73 11.21-1.25 3.66-4.83 5.2-8.44 5.38-6.13.16-12.27-.07-18.4.1-4.61 12.25-9.31 24.47-13.95 36.71-1.15 3.01-2.45 5.86-4.46 8.41-4.77 6.08-12.5 9.59-20.19 9.57-87.69.02-175.38-.01-263.07.01-7.02.13-14.09-2.68-19.04-7.66-2.79-2.83-4.56-6.26-5.98-9.93-4.69-12.4-9.43-24.78-14.13-37.17-6.28-.06-12.56.1-18.84-.04-3.31-.16-6.81-1.53-8.2-4.77-2.45-4.73 1.11-11.46 6.49-11.82 5.09-.32 10.22-.03 15.32-.13-1.58-8.08-1.44-16-1.92-24.25-.11-14.93 2.07-30.02 5.61-44.51 6.7-26.7 19.8-51.57 37.93-72.29 21.85-25.42 51.13-44.12 83.28-53.56 7.4-2.17 14.8-4.15 22.48-5.01-4.61-7.13-6.97-15.09-5.99-23.63 1.32-16.69 16.32-30.51 33.04-30.65z"/><path d="M195.51 54.53c3.91-.99 8.21-.66 11.89 1.02 6.23 2.94 10.5 9.45 10.17 16.43.06 9.27-8.27 17.49-17.57 17.11-8.97.36-17.09-7.23-17.54-16.16-.87-8.29 5.01-16.43 13.05-18.4zM225.22 107.83c11.2 1.53 21.66 5.02 32.28 8.75 14.7 5.36 28.59 13.44 41.03 22.89 18.43 14.32 33.63 32.91 44.42 53.57 15.38 29.99 21.35 64.91 15.75 98.21-105.76-.01-211.52.01-317.27-.01-4.56-27.01-1.48-55.09 8.04-80.73 9.03-24.52 24.52-46.69 43.86-64.19 14.65-12.97 31.63-23.12 49.91-30.09 6.19-2.9 12.74-3.95 19.26-5.83 20.3-5.4 42.02-5.5 62.72-2.57z" fill="#fff"/><path d="M151.02 163.46c9.2.15 17.81 5 23.16 12.4 1.45 2.02 3.13 4.55 2.68 7.15-.31 4.99-5.51 8.93-10.39 7.38-4.51-1.18-5.86-6.51-10.01-8.77-4.1-2.09-9.5-2.05-13.45.39-3.52 2.18-5.02 6.79-8.81 8.16-4.94 2.07-10.71-1.85-10.98-7.11-.24-3.34 1.49-5.91 3.45-8.42 5.77-7.28 15.05-11.59 24.35-11.18zM274.08 174.95c2.11 2.71 4.37 6.35 2.94 9.87-1.37 4.28-6.15 7.08-10.49 5.47-3.91-1.41-5.06-5.18-8.12-7.71-3.83-3.01-9.67-3.19-13.98-1.15-3.07 1.5-4.37 4.08-6.55 6.51-1.9 2.16-4.89 3.35-7.73 2.58-4.81-1.04-8.14-6.69-5.95-11.32 2.98-6.21 8.94-11.13 15.27-13.7 11.98-4.89 26.77-.85 34.61 9.45zM149.06 216.03c3.87 1.6 5.19 5.38 7.17 8.75 8.94 15.53 26.17 24.78 43.92 25.11 18.69-.26 36.91-10.47 45.36-27.39 1.96-3.91 4.73-7.09 9.4-7.23 3.94.62 8.04 4.47 7.74 8.69-.01 1.99-1.12 3.92-1.99 5.66-8.3 16.32-23.4 28.92-40.93 34.19-9.39 2.8-19.07 3.08-28.76 2.15-22.7-2.85-43.42-18.51-52.55-39.46-2.77-5.93 4.79-13.54 10.64-10.47z"/><path d="M47.55 308.01c101.79-.02 203.58-.01 305.37-.01-4.2 10.81-8.29 21.68-12.47 32.48-1.68 4.01-4.03 5.55-8.4 5.51-85.68.03-171.37 0-257.05.02-3.21-.05-6.59.23-9.76-.36-2.78-.71-4.28-2.94-5.31-5.46-4.18-10.7-8.18-21.49-12.38-32.18z" fill="#fff"/></svg>
