<svg xmlns="http://www.w3.org/2000/svg" viewBox="0 0 512 512"><path fill="currentColor" d="M196.267 409.597h-153.6c-4.71 0-8.533 3.823-8.533 8.533s3.823 8.533 8.533 8.533h153.6c4.71 0 8.533-3.823 8.533-8.533s-3.823-8.533-8.533-8.533zM25.6 324.263h68.267c4.71 0 8.533-3.823 8.533-8.533s-3.823-8.533-8.533-8.533H25.6c-4.71 0-8.533 3.823-8.533 8.533s3.823 8.533 8.533 8.533zM153.6 366.93a8.536 8.536 0 00-8.533-8.533H8.533c-4.71 0-8.533 3.823-8.533 8.533s3.823 8.533 8.533 8.533h136.533c4.711 0 8.534-3.823 8.534-8.533zM435.2 375.463H384c-4.71 0-8.533 3.823-8.533 8.533s3.823 8.533 8.533 8.533h51.2c31.13 0 55.202 21.495 59.11 51.2H353.399L80.333 170.663l128.81-128.81c7.074 22.46 23.33 66.15 49.357 92.177 29.158 29.167 79.761 35.115 99.9 36.326v68.574h-20.147c-2.961-5.077-8.405-8.533-14.694-8.533-9.412 0-17.067 7.654-17.067 17.067 0 9.412 7.654 17.067 17.067 17.067 6.289 0 11.733-3.456 14.694-8.533H358.4v51.2h-20.147c-2.961-5.077-8.405-8.533-14.694-8.533-9.412 0-17.067 7.654-17.067 17.067s7.654 17.067 17.067 17.067c6.289 0 11.733-3.456 14.694-8.533H358.4v8.533c0 2.261.896 4.437 2.5 6.033l17.067 17.067a8.523 8.523 0 0012.066 0 8.523 8.523 0 000-12.066l-14.566-14.566V162.13a8.536 8.536 0 00-8.533-8.533c-.649 0-65.092-.358-96.367-31.633-32.034-32.034-48.794-97.783-48.956-98.441a8.548 8.548 0 00-5.999-6.153c-2.978-.802-6.144.026-8.311 2.193L62.242 164.622s-.009 0-.009.009c-.008 0-.008.009-.008.009l-11.657 11.665c-10.641 10.633-10.325 29.602.666 40.593l266.999 266.999c1.126 1.126 11.503 11.034 27.768 11.034H486.4c14.353 0 25.6-11.247 25.6-25.6v-17.067c0-43.068-33.732-76.801-76.8-76.801zm59.733 93.867c0 4.864-3.669 8.533-8.533 8.533H346.001c-9.31 0-15.693-6.033-15.701-6.033l-266.999-267c-4.403-4.403-4.727-12.407-.666-16.461l5.632-5.641 275.567 275.567a8.513 8.513 0 006.033 2.5h145.067v8.535z"/><path fill="currentColor" d="M273.067 230.397v102.4c0 4.71 3.823 8.533 8.533 8.533s8.533-3.823 8.533-8.533v-102.4c0-4.71-3.823-8.533-8.533-8.533s-8.533 3.822-8.533 8.533zM332.715 202.971c4.173 0 7.825-3.063 8.431-7.322.674-4.659-2.569-8.986-7.236-9.66-56.977-8.183-105.634-44.305-130.15-96.614-1.997-4.267-7.066-6.093-11.349-4.105a8.54 8.54 0 00-4.105 11.349c26.965 57.532 80.495 97.263 143.181 106.266.417.06.818.086 1.228.086z"/></svg>
