<svg xmlns="http://www.w3.org/2000/svg" width="50" height="62.5" viewBox="0 0 100 125" fill="currentColor"><path d="M30.597 38.527a1.5 1.5 0 0 1-1.5-1.5V8.465a1.5 1.5 0 1 1 3 0v28.563a1.5 1.5 0 0 1-1.5 1.499z"/><path d="M38.104 15.951c-.384 0-.768-.146-1.061-.439l-6.446-6.446-6.446 6.446a1.5 1.5 0 1 1-2.121-2.121l7.507-7.507a1.5 1.5 0 0 1 2.121 0l7.507 7.507a1.5 1.5 0 0 1-1.061 2.56zm34.068 78.605c-.187 0-.338-.01-.434-.019H53.031a3.318 3.318 0 0 1-.153.003c-1.822 0-3.116-.774-3.462-2.07-.121-.45-.058-6.303-.422-6.932-6.998-8.932-14.939-26.81-15.274-27.566-.021-.05-4.701-14.782-4.701-14.782-.434-1.397.951-1.954 1.43-1.954 7.481 0 11.809 3.473 13.216 10.613.856 1.057 1.782 2.17 2.605 3.132-.638-7.433-2.525-24.445-3.839-35.748-.193-2.132-.075-6.341 4.501-6.687 2.225-.169 4.001 1.838 4.614 4.917l5.088 24.793c.72-.425 1.346-.772 3.003-.895 1.722-.127 3.083.76 3.813 1.984.514-.227 1.167-.384 1.988-.384 2.584 0 4.646 1.705 5.016 4.147l.173 1.092a5.29 5.29 0 0 1 2.469-.645c2.594 0 4.551 1.887 4.868 4.694 1.036 9.155.242 21.499-2.071 32.214-.094.438-.229 6.457-.314 7.422-.146 1.622-1.482 2.671-3.407 2.671zm.48-3.019c.063 0 .16-7.023.308-7.706 2.215-10.261 3.009-22.524 2.022-31.243-.069-.611-.392-2.032-1.888-2.032-.813 0-1.9.666-1.9 1.348a1.5 1.5 0 0 1-2.982.234l-.725-4.571c-.15-.994-.711-1.722-2.051-1.605-1.003.087-1.128.803-1.104.998l.048.291a1.5 1.5 0 0 1-2.95.541 5.58 5.58 0 0 1-.078-.487l-.333-2.055c-.066-.298-.664-.852-1.805-.781-1.345.084-1.833.796-1.949 1.419a1.5 1.5 0 0 1-1.462 1.224c-.748-.021-1.338-.496-1.482-1.198l-5.716-27.855c-.305-1.529-.768-2.621-1.912-2.469-1.807.241-1.39 2.105-1.279 3.337 4.505 38.772 4.096 39.974 3.961 40.368a1.58 1.58 0 0 1-1.462 1.045c-.758 0-1.258 0-6.822-6.898a1.507 1.507 0 0 1-.309-.677c-.943-5.262-3.451-7.868-8.25-8.416l3.963 12.485c.568 1.272 8.313 18.501 14.88 26.885.925 1.179.374 7.823.604 7.823.249-.002 20.673-.005 20.673-.005z"/><path d="M56.139 49.304a1.5 1.5 0 0 1-1.474-1.229l-.394-2.146a1.5 1.5 0 0 1 2.951-.541l.394 2.146a1.5 1.5 0 0 1-1.477 1.77zm7.141 2.36a1.5 1.5 0 0 1-1.482-1.281l-.523-3.551a1.502 1.502 0 0 1 1.266-1.703 1.505 1.505 0 0 1 1.703 1.266l.523 3.551a1.502 1.502 0 0 1-1.487 1.718zm5.377 3.314l-.536-3.422a1.5 1.5 0 1 1 2.963-.465l.536 3.422c.129.818-.107 1.506-1.139 1.683-.954.165-1.709-.479-1.824-1.218z"/></svg>
