<?xml version="1.0" standalone="no"?>
<!DOCTYPE svg PUBLIC "-//W3C//DTD SVG 1.1//EN" "http://www.w3.org/Graphics/SVG/1.1/DTD/svg11.dtd" >
<svg xmlns="http://www.w3.org/2000/svg" xmlns:xlink="http://www.w3.org/1999/xlink" version="1.1">
<metadata>
Created by FontForge 20170731 at Wed Dec  4 23:36:18 2019
 By Aleksey,,,
Copyright (c) 2012 by Process Type Foundry, LLC. All rights reserved.
</metadata>
<defs>
<font id="." horiz-adv-x="580" >
  <font-face 
    font-family="."
    font-weight="700"
    font-stretch="normal"
    units-per-em="1000"
    panose-1="2 11 3 4 0 0 0 1 0 2"
    ascent="750"
    descent="-250"
    x-height="520"
    cap-height="700"
    bbox="-286 -250 1237 965"
    underline-thickness="72"
    underline-position="-136"
    unicode-range="U+0020-FB02"
  />
<missing-glyph horiz-adv-x="686" 
d="M90 700h506v-700h-506v700zM579 16v668h-472v-668h472zM213 264l87 86l-87 88l43 43l87 -87l89 87l43 -43l-88 -88l88 -86l-44 -44l-88 87l-86 -87z" />
    <glyph glyph-name="fi" unicode="fi" horiz-adv-x="639" 
d="M444.5 712.5q22.5 22.5 56.5 22.5t56.5 -22.5t22.5 -56.5t-22.5 -56.5t-56.5 -22.5t-56.5 22.5t-22.5 56.5t22.5 56.5zM97 410h-66v110h66v48q0 84 40 123t121 39h90v-108h-59q-30 0 -43 -11.5t-13 -41.5v-49h105v-110h-105v-410h-136v410zM433 520h136v-520h-136v520z
" />
    <glyph glyph-name="fl" unicode="fl" horiz-adv-x="639" 
d="M97 410h-66v110h66v48q0 84 40 123t121 39h90v-108h-59q-30 0 -43 -11.5t-13 -41.5v-49h105v-110h-105v-410h-136v410zM433 730h136v-730h-136v730z" />
    <glyph glyph-name=".notdef" horiz-adv-x="686" 
d="M90 700h506v-700h-506v700zM579 16v668h-472v-668h472zM213 264l87 86l-87 88l43 43l87 -87l89 87l43 -43l-88 -88l88 -86l-44 -44l-88 87l-86 -87z" />
    <glyph glyph-name=".null" horiz-adv-x="0" 
 />
    <glyph glyph-name="nonmarkingreturn" horiz-adv-x="333" 
 />
    <glyph glyph-name="space" unicode=" " horiz-adv-x="220" 
 />
    <glyph glyph-name="exclam" unicode="!" horiz-adv-x="296" 
d="M77 423v277h142v-277l-33 -221h-76zM91.5 126.5q21.5 21.5 56.5 21.5t56.5 -21.5t21.5 -56.5t-21.5 -56.5t-56.5 -21.5t-56.5 21.5t-21.5 56.5t21.5 56.5z" />
    <glyph glyph-name="quotedbl" unicode="&#x22;" horiz-adv-x="487" 
d="M72 700h118v-280h-118v280zM297 700h118v-280h-118v280z" />
    <glyph glyph-name="numbersign" unicode="#" horiz-adv-x="677" 
d="M406 192h-162l-21 -192h-104l21 192h-100v92h110l16 143h-105v92h115l20 181h104l-20 -181h162l20 181h104l-20 -181h96v-92h-106l-16 -143h101v-92h-111l-21 -192h-104zM254 284h162l16 143h-162z" />
    <glyph glyph-name="dollar" unicode="$" horiz-adv-x="590" 
d="M233 6q-85 15 -132.5 68t-47.5 134v16h130v-16q0 -50 30.5 -76t86.5 -26q51 0 81.5 24.5t30.5 67.5q0 31 -15.5 50t-49.5 31l-133 48q-80 28 -118 67t-38 112q0 77 46.5 125t124.5 63v116h134v-117q76 -16 120 -65t44 -124v-21h-129v18q0 43 -27 67t-78 24
q-47 0 -74.5 -20.5t-27.5 -58.5q0 -28 16.5 -44t48.5 -28l128 -46q78 -29 119.5 -71t41.5 -116q0 -77 -49 -131t-129 -71v-116h-134v116z" />
    <glyph glyph-name="percent" unicode="%" horiz-adv-x="884" 
d="M373 472q0 -71 -44 -114t-120 -43t-120 43t-44 114v81q0 71 44 114t120 43t120 -43t44 -114v-81zM574 700h101l-360 -700h-101zM277 561q0 31 -18 49.5t-50 18.5t-50 -18.5t-18 -49.5v-97q0 -31 18 -49.5t50 -18.5t50 18.5t18 49.5v97zM844 147q0 -71 -44 -114t-120 -43
t-120 43t-44 114v81q0 71 44 114t120 43t120 -43t44 -114v-81zM748 236q0 31 -18 49.5t-50 18.5t-50 -18.5t-18 -49.5v-97q0 -31 18 -49.5t50 -18.5t50 18.5t18 49.5v97z" />
    <glyph glyph-name="ampersand" unicode="&#x26;" horiz-adv-x="688" 
d="M593 -14l-70 69q-36 -33 -87 -51t-114 -18q-81 0 -142.5 27t-95.5 77.5t-34 118.5q0 73 33.5 119.5t90.5 76.5q-29 32 -45 63.5t-16 74.5q0 50 24.5 89t69.5 60.5t104 21.5q91 0 144 -47t53 -122v-41h-113v40q0 33 -21.5 55t-61.5 22q-38 0 -60.5 -20t-22.5 -55
q0 -22 12.5 -41t36.5 -42l221 -221q1 10 1 29v80h108v-85q0 -60 -20 -114l85 -84zM453 126l-211 211q-72 -50 -72 -127q0 -60 44.5 -94.5t113.5 -34.5q82 0 125 45z" />
    <glyph glyph-name="quotesingle" unicode="'" horiz-adv-x="262" 
d="M72 700h118v-280h-118v280z" />
    <glyph glyph-name="parenleft" unicode="(" horiz-adv-x="333" 
d="M318 782q-59 -137 -86.5 -244.5t-27.5 -213.5t27.5 -213.5t86.5 -244.5h-131q-61 115 -91.5 227t-30.5 231t30.5 231t91.5 227h131z" />
    <glyph glyph-name="parenright" unicode=")" horiz-adv-x="333" 
d="M146 782q61 -115 91.5 -227t30.5 -231t-30.5 -231t-91.5 -227h-131q59 137 86.5 244.5t27.5 213.5t-27.5 213.5t-86.5 244.5h131z" />
    <glyph glyph-name="asterisk" unicode="*" horiz-adv-x="442" 
d="M55 463l108 62l-108 63l29 50l109 -63v125h57v-125l108 63l29 -50l-108 -63l108 -62l-29 -50l-108 62v-124h-57v125l-109 -63z" />
    <glyph glyph-name="plus" unicode="+" horiz-adv-x="602" 
d="M238 303h-168v114h168v185h126v-185h168v-114h-168v-185h-126v185z" />
    <glyph glyph-name="comma" unicode="," horiz-adv-x="250" 
d="M65 136h145l-90 -265h-105z" />
    <glyph glyph-name="hyphen" unicode="-" horiz-adv-x="409" 
d="M55 381h299v-122h-299v122z" />
    <glyph glyph-name="period" unicode="." horiz-adv-x="256" 
d="M71.5 126.5q21.5 21.5 56.5 21.5t56.5 -21.5t21.5 -56.5t-21.5 -56.5t-56.5 -21.5t-56.5 21.5t-21.5 56.5t21.5 56.5z" />
    <glyph glyph-name="slash" unicode="/" horiz-adv-x="474" 
d="M312 750h132l-282 -855h-132z" />
    <glyph glyph-name="zero" unicode="0" horiz-adv-x="640" 
d="M181 17q-60 31 -92.5 86.5t-32.5 126.5v240q0 71 32.5 126.5t92.5 86.5t139 31t139 -31t92.5 -86.5t32.5 -126.5v-240q0 -71 -32.5 -126.5t-92.5 -86.5t-139 -31t-139 31zM446 472q0 63 -33.5 96t-92.5 33t-92.5 -33t-33.5 -96v-244q0 -63 33.5 -96t92.5 -33t92.5 33
t33.5 96v244z" />
    <glyph glyph-name="one" unicode="1" horiz-adv-x="394" 
d="M174 560l-149 -55v122l173 73h114v-700h-138v560z" />
    <glyph glyph-name="two" unicode="2" horiz-adv-x="602" 
d="M52 105l285 280q32 32 48.5 60t16.5 62q0 43 -28.5 68.5t-73.5 25.5q-50 0 -77 -28t-27 -79v-14h-131v20q0 103 62.5 158.5t171.5 55.5q71 0 125.5 -25.5t85 -72t30.5 -108.5q0 -48 -19 -87.5t-46.5 -70t-71.5 -70.5l-182 -167h315v-113h-484v105z" />
    <glyph glyph-name="three" unicode="3" horiz-adv-x="611" 
d="M88 700h440v-111l-179 -179q90 -4 148.5 -56.5t58.5 -146.5q0 -63 -35 -113.5t-94 -79t-130 -28.5q-69 0 -125.5 25t-91 74.5t-35.5 119.5h128q4 -50 37.5 -79t87.5 -29q55 0 88.5 31t33.5 76q0 47 -31.5 74t-89.5 27h-103v111l164 174h-272v110z" />
    <glyph glyph-name="four" unicode="4" horiz-adv-x="618" 
d="M365 150h-320v102l211 448h125l-202 -444h186v145h127v-145h89v-106h-89v-150h-127v150z" />
    <glyph glyph-name="five" unicode="5" horiz-adv-x="624" 
d="M139.5 38q-70.5 52 -83.5 148h131q9 -40 40.5 -64t79.5 -24q60 0 96 36.5t36 93.5q0 55 -35 91t-93 36q-40 0 -70 -16.5t-46 -44.5h-127l66 406h375v-110h-266l-29 -168q23 21 57 32.5t75 11.5q65 0 117 -29t81.5 -82t29.5 -123q0 -68 -34 -124.5t-95 -89t-138 -32.5
q-97 0 -167.5 52z" />
    <glyph glyph-name="six" unicode="6" horiz-adv-x="614" 
d="M445 700l-195 -268q33 32 103 32q60 0 110.5 -28.5t80 -82t29.5 -123.5q0 -67 -35 -123t-95 -88.5t-133 -32.5q-80 0 -139.5 31.5t-91 87t-31.5 126.5q0 64 19 113.5t55 101.5l176 254h147zM217.5 132q33.5 -37 93.5 -37q56 0 91.5 38.5t35.5 94.5q0 58 -33.5 94.5
t-92.5 36.5q-57 0 -92.5 -37t-35.5 -95t33.5 -95z" />
    <glyph glyph-name="seven" unicode="7" horiz-adv-x="548" 
d="M366 587h-316v113h458v-98l-290 -602h-141z" />
    <glyph glyph-name="eight" unicode="8" horiz-adv-x="634" 
d="M182.5 12.5q-58.5 26.5 -91.5 74t-33 109.5t31 104t85 65q-41 22 -64.5 61t-23.5 94q0 60 30 104t82.5 67t118.5 23t118.5 -23t82.5 -67t30 -104q0 -55 -23.5 -94t-64.5 -61q54 -23 85 -65t31 -104t-33 -109.5t-91.5 -74t-134.5 -26.5t-134.5 26.5zM244.5 438
q27.5 -28 72.5 -28t72.5 28t27.5 72q0 47 -26.5 73.5t-73.5 26.5t-73.5 -26.5t-26.5 -73.5q0 -44 27.5 -72zM408.5 118q33.5 27 33.5 78q0 52 -34 80t-91 28t-91 -28t-34 -80q0 -51 33.5 -78t91.5 -27t91.5 27z" />
    <glyph glyph-name="nine" unicode="9" horiz-adv-x="614" 
d="M172 0l181 264q-12 -12 -38.5 -20t-53.5 -8q-60 0 -110.5 29t-80 82t-29.5 123t33 125.5t92 87t136 31.5q78 0 138 -30.5t93 -85.5t33 -127q0 -55 -16 -105t-42 -89l-186 -277h-150zM396 568q-34 37 -93 37q-57 0 -92 -37t-35 -96t33.5 -95t92.5 -36q58 0 93 38t35 94
q0 58 -34 95z" />
    <glyph glyph-name="colon" unicode=":" horiz-adv-x="256" 
d="M71.5 438.5q21.5 21.5 56.5 21.5t56.5 -21.5t21.5 -56.5t-21.5 -56.5t-56.5 -21.5t-56.5 21.5t-21.5 56.5t21.5 56.5zM71.5 126.5q21.5 21.5 56.5 21.5t56.5 -21.5t21.5 -56.5t-21.5 -56.5t-56.5 -21.5t-56.5 21.5t-21.5 56.5t21.5 56.5z" />
    <glyph glyph-name="semicolon" unicode=";" horiz-adv-x="256" 
d="M66.5 438.5q21.5 21.5 56.5 21.5t56.5 -21.5t21.5 -56.5t-21.5 -56.5t-56.5 -21.5t-56.5 21.5t-21.5 56.5t21.5 56.5zM48 136h145l-90 -265h-105z" />
    <glyph glyph-name="less" unicode="&#x3c;" horiz-adv-x="577" 
d="M512 612v-124l-300 -128l300 -128v-124l-462 208v88z" />
    <glyph glyph-name="equal" unicode="=" horiz-adv-x="618" 
d="M80 539h458v-110h-458v110zM80 291h458v-110h-458v110z" />
    <glyph glyph-name="greater" unicode="&#x3e;" horiz-adv-x="577" 
d="M527 404v-88l-462 -208v124l300 128l-300 128v124z" />
    <glyph glyph-name="question" unicode="?" horiz-adv-x="504" 
d="M177 256q0 57 14.5 93.5t48.5 61.5l46 34q32 23 46 40.5t14 44.5q0 34 -26.5 54t-70.5 20q-48 0 -73.5 -22t-25.5 -65v-23h-125v25q0 97 61.5 146t165.5 49q67 0 119.5 -23t81.5 -64.5t29 -96.5q0 -49 -20 -84.5t-58 -63.5l-51 -37q-31 -23 -43 -43.5t-12 -62.5v-29h-121
v46zM183.5 126.5q21.5 21.5 56.5 21.5t56.5 -21.5t21.5 -56.5t-21.5 -56.5t-56.5 -21.5t-56.5 21.5t-21.5 56.5t21.5 56.5z" />
    <glyph glyph-name="at" unicode="@" horiz-adv-x="932" 
d="M666 494l-39 -222q-3 -15 -3 -28q0 -35 18 -54.5t49 -19.5q54 0 79.5 60t25.5 134q0 81 -36.5 143t-105.5 96.5t-163 34.5q-107 0 -186 -47.5t-121 -131.5t-42 -192q0 -90 37.5 -160t110 -109.5t173.5 -39.5q95 0 174 21l-10 -76q-36 -10 -84.5 -16.5t-90.5 -6.5
q-122 0 -213 51t-139 139t-48 197q0 125 52.5 226.5t153 161t238.5 59.5q118 0 206.5 -45t135.5 -124t47 -176q0 -73 -21.5 -134.5t-66 -99.5t-110.5 -38q-51 0 -89 22t-48 61q-13 -28 -49.5 -49t-82.5 -21q-68 0 -111.5 44.5t-43.5 114.5q0 19 3 38l6 33q14 75 58 116.5
t114 41.5q38 0 67.5 -15.5t45.5 -41.5l9 53h100zM368 300q-3 -21 -3 -27q0 -36 19 -58t53 -22t57 23.5t31 67.5l5 28q2 10 2 24q0 35 -19.5 57t-56.5 22q-34 0 -55 -23t-28 -63z" />
    <glyph glyph-name="A" unicode="A" horiz-adv-x="690" 
d="M667 0h-139l-47 147h-272l-47 -147h-139l251 700h142zM244 258h201l-100 316z" />
    <glyph glyph-name="B" unicode="B" horiz-adv-x="663" 
d="M77 700h314q91 0 145.5 -49t54.5 -128q0 -57 -24 -97.5t-64 -63.5q57 -12 93.5 -54.5t36.5 -110.5q0 -58 -30 -102.5t-84 -69.5t-123 -25h-319v700zM360 410q43 0 67 25.5t24 67.5q0 40 -24.5 63.5t-67.5 23.5h-146v-180h147zM389 110q50 0 77 25.5t27 70.5
q0 44 -28 69.5t-77 25.5h-175v-191h176z" />
    <glyph glyph-name="C" unicode="C" horiz-adv-x="706" 
d="M133 72.5q-77 86.5 -77 227.5v100q0 141 77 227.5t229 86.5q86 0 151 -35.5t101.5 -95.5t40.5 -132h-130q-7 64 -48 106t-115 42q-84 0 -125.5 -52t-41.5 -140v-114q0 -88 41.5 -140t125.5 -52q74 0 115 42t48 106h130q-4 -72 -40.5 -132t-101.5 -95.5t-151 -35.5
q-152 0 -229 86.5z" />
    <glyph glyph-name="D" unicode="D" horiz-adv-x="703" 
d="M361 700q92 0 156.5 -35t97.5 -97t33 -143v-150q0 -81 -33 -143t-97.5 -97t-156.5 -35h-284v700h284zM509 426q0 77 -44 118.5t-128 41.5h-121v-472h121q84 0 128 41.5t44 118.5v152z" />
    <glyph glyph-name="E" unicode="E" horiz-adv-x="618" 
d="M77 700h490v-116h-350v-171h320v-117h-320v-180h351v-116h-491v700z" />
    <glyph glyph-name="F" unicode="F" horiz-adv-x="591" 
d="M77 700h479v-116h-339v-185h309v-116h-309v-283h-140v700z" />
    <glyph glyph-name="G" unicode="G" horiz-adv-x="715" 
d="M519 462q-2 58 -43 97.5t-113 39.5q-83 0 -125.5 -51t-42.5 -141v-110q0 -93 41 -146t128 -53q74 0 116 40t42 100v10h-157v114h294v-91q0 -83 -37 -148t-104 -101t-156 -36q-101 0 -169.5 41.5t-102.5 112.5t-34 160v102q0 94 36 164.5t104.5 109t162.5 38.5
q88 0 154 -32.5t101.5 -89.5t37.5 -130h-133z" />
    <glyph glyph-name="H" unicode="H" horiz-adv-x="721" 
d="M77 700h140v-287h287v287h140v-700h-140v289h-287v-289h-140v700z" />
    <glyph glyph-name="I" unicode="I" horiz-adv-x="546" 
d="M57 0v110h146v480h-142v110h424v-110h-142v-480h146v-110h-432z" />
    <glyph glyph-name="J" unicode="J" horiz-adv-x="608" 
d="M102.5 45q-66.5 59 -66.5 160v10h133v-9q0 -48 30 -76t84 -28t82.5 28t28.5 76v494h140v-494q0 -64 -31.5 -114t-88.5 -78t-131 -28q-114 0 -180.5 59z" />
    <glyph glyph-name="K" unicode="K" horiz-adv-x="651" 
d="M77 700h140v-336l247 336h163l-263 -347l271 -353h-165l-253 343v-343h-140v700z" />
    <glyph glyph-name="L" unicode="L" 
d="M77 700h140v-584h322v-116h-462v700z" />
    <glyph glyph-name="M" unicode="M" horiz-adv-x="808" 
d="M731 0h-134v430l-131 -260h-124l-131 260v-430h-134v700h129l198 -400l198 400h129v-700z" />
    <glyph glyph-name="N" unicode="N" horiz-adv-x="729" 
d="M77 700h133l305 -466v466h137v-700h-133l-305 466v-466h-137v700z" />
    <glyph glyph-name="O" unicode="O" horiz-adv-x="736" 
d="M680 299q0 -90 -35.5 -161t-106 -111.5t-170.5 -40.5t-170 40.5t-106 111.5t-36 161v102q0 90 36 161t106 111.5t170 40.5t170.5 -40.5t106 -111.5t35.5 -161v-102zM496.5 153.5q43.5 51.5 43.5 138.5v116q0 87 -43.5 138.5t-128.5 51.5t-128.5 -51.5t-43.5 -138.5v-116
q0 -87 43.5 -138.5t128.5 -51.5t128.5 51.5z" />
    <glyph glyph-name="P" unicode="P" horiz-adv-x="652" 
d="M77 700h291q79 0 138 -29.5t90.5 -82.5t31.5 -123t-32.5 -124t-91.5 -84.5t-136 -30.5h-151v-226h-140v700zM359 341q64 0 96.5 34.5t32.5 89.5q0 54 -32.5 87t-96.5 33h-142v-244h142z" />
    <glyph glyph-name="Q" unicode="Q" horiz-adv-x="736" 
d="M680 299q0 -77 -25.5 -139.5t-74.5 -104.5l52 -78l-98 -64l-57 87q-51 -14 -109 -14q-100 0 -170 40.5t-106 111.5t-36 161v102q0 90 36 161t106 111.5t170 40.5t170.5 -40.5t106 -111.5t35.5 -161v-102zM408 105l-55 85l97 60l56 -84q34 47 34 126v116q0 87 -43.5 138.5
t-128.5 51.5t-128.5 -51.5t-43.5 -138.5v-116q0 -87 43.5 -138.5t128.5 -51.5q22 0 40 3z" />
    <glyph glyph-name="R" unicode="R" horiz-adv-x="698" 
d="M364 224h-147v-224h-140v700h316q80 0 137 -30.5t86.5 -84.5t29.5 -123q0 -74 -36.5 -131t-101.5 -85l146 -246h-162zM376 337q63 0 96.5 34.5t33.5 91.5t-33.5 90t-96.5 33h-159v-249h159z" />
    <glyph glyph-name="S" unicode="S" horiz-adv-x="654" 
d="M129.5 43.5q-74.5 57.5 -74.5 159.5v18h134v-15q0 -50 38 -81t107 -31q63 0 100 27t37 75q0 62 -66 79l-183 47q-81 21 -118.5 62.5t-37.5 118.5q0 98 69.5 154.5t187.5 56.5q76 0 133.5 -26.5t88.5 -74t31 -108.5v-17h-129v14q0 47 -31 75.5t-93 28.5q-57 0 -89.5 -23
t-32.5 -68q0 -59 60 -74l192 -51q153 -40 153 -183q0 -65 -36 -115.5t-99 -78t-142 -27.5q-125 0 -199.5 57.5z" />
    <glyph glyph-name="T" unicode="T" horiz-adv-x="588" 
d="M224 584h-198v116h536v-116h-198v-584h-140v584z" />
    <glyph glyph-name="U" unicode="U" horiz-adv-x="720" 
d="M206 19.5q-65 33.5 -99.5 93.5t-34.5 139v448h139v-454q0 -68 40.5 -106t108.5 -38t108 38t40 106v454h140v-448q0 -79 -34.5 -139t-99.5 -93.5t-154 -33.5t-154 33.5z" />
    <glyph glyph-name="V" unicode="V" horiz-adv-x="666" 
d="M412 0h-158l-232 700h143l168 -547l168 547h143z" />
    <glyph glyph-name="W" unicode="W" horiz-adv-x="966" 
d="M697 194l101 506h138l-165 -700h-135l-153 539l-153 -539h-135l-165 700h138l101 -506l146 506h136z" />
    <glyph glyph-name="X" unicode="X" horiz-adv-x="668" 
d="M638 0h-147l-157 245l-157 -245h-147l232 357l-222 343h144l150 -233l150 233h144l-222 -343z" />
    <glyph glyph-name="Y" unicode="Y" horiz-adv-x="636" 
d="M388 0h-140v252l-240 448h152l158 -312l158 312h152l-240 -448v-252z" />
    <glyph glyph-name="Z" unicode="Z" horiz-adv-x="624" 
d="M55 116l351 468h-336v116h493v-116l-351 -468h360v-116h-517v116z" />
    <glyph glyph-name="bracketleft" unicode="[" horiz-adv-x="382" 
d="M75 782h282v-112h-146v-692h146v-112h-282v916z" />
    <glyph glyph-name="backslash" unicode="\" horiz-adv-x="474" 
d="M444 -105h-132l-282 855h132z" />
    <glyph glyph-name="bracketright" unicode="]" horiz-adv-x="382" 
d="M307 -134h-282v112h146v692h-146v112h282v-916z" />
    <glyph glyph-name="asciicircum" unicode="^" horiz-adv-x="532" 
d="M492 414h-131l-95 175l-95 -175h-131l168 286h116z" />
    <glyph glyph-name="underscore" unicode="_" horiz-adv-x="518" 
d="M-1 -64h520v-72h-520v72z" />
    <glyph glyph-name="grave" unicode="`" horiz-adv-x="395" 
d="M77 733h168l73 -154h-137z" />
    <glyph glyph-name="a" unicode="a" horiz-adv-x="585" 
d="M99 31.5q-54 43.5 -54 118.5q0 82 56.5 123.5t153.5 41.5q42 0 76 -13t56 -31v71q0 37 -24.5 60.5t-65.5 23.5q-34 0 -56.5 -13.5t-33.5 -35.5h-126q22 75 80 115t143 40q65 0 114.5 -25t77 -70t27.5 -105v-332h-131v48q-18 -26 -61 -43t-89 -17q-89 0 -143 43.5z
M355 100q32 22 32 55q0 34 -29.5 53.5t-76.5 19.5q-49 0 -76.5 -19t-27.5 -55q0 -35 28 -55.5t72 -20.5q46 0 78 22z" />
    <glyph glyph-name="b" unicode="b" horiz-adv-x="614" 
d="M256.5 8.5q-40.5 20.5 -59.5 53.5v-62h-130v730h136v-268q22 31 61 50.5t88 19.5q68 0 117.5 -30.5t75 -83t25.5 -115.5v-86q0 -62 -26 -114.5t-75.5 -83.5t-117.5 -31q-54 0 -94.5 20.5zM404.5 133q29.5 35 29.5 90v74q0 56 -30.5 90.5t-86.5 34.5q-49 0 -81.5 -33
t-32.5 -90v-76q0 -55 32 -90t83 -35q57 0 86.5 35z" />
    <glyph glyph-name="c" unicode="c" horiz-adv-x="571" 
d="M157.5 18q-55.5 30 -84.5 83.5t-29 121.5v74q0 68 29 121.5t84.5 83.5t132.5 30q68 0 121.5 -26.5t83.5 -73.5t32 -106h-124q-5 42 -32 69t-78 27q-56 0 -84.5 -32.5t-28.5 -87.5v-84q0 -55 28.5 -87.5t84.5 -32.5q51 0 78 27t32 69h124q-2 -59 -32 -106t-83.5 -73.5
t-121.5 -26.5q-77 0 -132.5 30z" />
    <glyph glyph-name="d" unicode="d" horiz-adv-x="614" 
d="M145.5 19q-49.5 31 -75.5 83.5t-26 114.5v86q0 63 25.5 115.5t75 83t117.5 30.5q50 0 88 -18.5t61 -49.5v266h136v-730h-130v62q-21 -32 -61 -53t-93 -21q-68 0 -117.5 31zM379 133q32 35 32 90v76q0 57 -32.5 90t-81.5 33q-56 0 -86.5 -34.5t-30.5 -90.5v-74
q0 -55 29.5 -90t86.5 -35q51 0 83 35z" />
    <glyph glyph-name="e" unicode="e" horiz-adv-x="560" 
d="M109.5 49.5q-65.5 61.5 -65.5 170.5v71q0 109 63 175t177 66q74 0 126.5 -30.5t79 -82t26.5 -115.5v-91h-340v-13q0 -50 27 -82t83 -32q41 0 69 18.5t38 47.5h119q-9 -47 -41 -84.5t-80 -58.5t-105 -21q-111 0 -176.5 61.5zM176 309h215v13q0 51 -27 82.5t-80 31.5
q-56 0 -82 -33t-26 -89v-5z" />
    <glyph glyph-name="f" unicode="f" horiz-adv-x="363" 
d="M97 410h-66v110h66v48q0 84 40 123t121 39h90v-108h-59q-30 0 -43 -11.5t-13 -41.5v-49h105v-110h-105v-410h-136v410z" />
    <glyph glyph-name="g" unicode="g" horiz-adv-x="610" 
d="M132.5 -144.5q-67.5 41.5 -82.5 113.5h132q26 -52 112 -52q52 0 82.5 26t30.5 70v82q-18 -29 -59.5 -50t-89.5 -21q-67 0 -115.5 29.5t-73.5 79t-25 107.5v76q0 59 24.5 108.5t73.5 78.5t117 29q56 0 97.5 -23t56.5 -52v63h130v-509q0 -55 -32 -100t-89 -71t-128 -26
q-94 0 -161.5 41.5zM373.5 163.5q33.5 30.5 33.5 83.5v60q0 52 -32 84t-81 32q-56 0 -85.5 -31t-29.5 -85v-60q0 -51 28.5 -82.5t82.5 -31.5q50 0 83.5 30.5z" />
    <glyph glyph-name="h" unicode="h" horiz-adv-x="596" 
d="M67 730h136v-272q21 34 59.5 54t87.5 20q85 0 134.5 -53.5t49.5 -145.5v-333h-136v311q0 47 -23.5 75t-71.5 28q-47 0 -73.5 -27t-26.5 -79v-308h-136v730z" />
    <glyph glyph-name="i" unicode="i" horiz-adv-x="288" 
d="M87.5 712.5q22.5 22.5 56.5 22.5t56.5 -22.5t22.5 -56.5t-22.5 -56.5t-56.5 -22.5t-56.5 22.5t-22.5 56.5t22.5 56.5zM76 520h136v-520h-136v520z" />
    <glyph glyph-name="j" unicode="j" horiz-adv-x="276" 
d="M81.5 712.5q22.5 22.5 56.5 22.5t56.5 -22.5t22.5 -56.5t-22.5 -56.5t-56.5 -22.5t-56.5 22.5t-22.5 56.5t22.5 56.5zM-1 -69h31q21 0 30.5 7.5t9.5 26.5v555h136v-567q0 -62 -33.5 -94.5t-101.5 -32.5h-72v105z" />
    <glyph glyph-name="k" unicode="k" horiz-adv-x="544" 
d="M67 730h136v-452l165 242h155l-179 -254l185 -266h-155l-171 254v-254h-136v730z" />
    <glyph glyph-name="l" unicode="l" horiz-adv-x="276" 
d="M70 730h136v-730h-136v730z" />
    <glyph glyph-name="m" unicode="m" horiz-adv-x="917" 
d="M67 520h130v-62q40 74 150 74q50 0 88.5 -19t61.5 -55q57 74 172 74q83 0 134.5 -53.5t51.5 -145.5v-333h-136v311q0 48 -23 75.5t-70 27.5q-46 0 -71.5 -27t-25.5 -79v-308h-136v311q0 48 -23 75.5t-70 27.5q-46 0 -71.5 -27t-25.5 -79v-308h-136v520z" />
    <glyph glyph-name="n" unicode="n" horiz-adv-x="596" 
d="M67 520h130v-62q20 36 59 55t94 19q85 0 134.5 -53t49.5 -146v-333h-136v311q0 47 -23.5 75t-71.5 28q-47 0 -73.5 -27t-26.5 -79v-308h-136v520z" />
    <glyph glyph-name="o" unicode="o" horiz-adv-x="578" 
d="M157.5 18.5q-55.5 30.5 -84.5 84t-29 120.5v74q0 67 29 120.5t84.5 84t131.5 30.5t131.5 -30.5t84.5 -84t29 -120.5v-74q0 -67 -29 -120.5t-84.5 -84t-131.5 -30.5t-131.5 30.5zM402 306q0 53 -28.5 86t-84.5 33t-84.5 -33t-28.5 -86v-92q0 -53 28.5 -86t84.5 -33
t84.5 33t28.5 86v92z" />
    <glyph glyph-name="p" unicode="p" horiz-adv-x="614" 
d="M469.5 501q49.5 -31 75 -83t25.5 -115v-86q0 -63 -25.5 -115.5t-75 -83t-117.5 -30.5q-50 0 -89 18.5t-60 49.5v-230h-136v694h130v-62q21 32 61 53t93 21q69 0 118.5 -31zM235 387q-32 -35 -32 -90v-76q0 -57 32.5 -90t81.5 -33q56 0 86.5 34.5t30.5 90.5v74
q0 55 -29.5 90t-86.5 35q-51 0 -83 -35z" />
    <glyph glyph-name="q" unicode="q" horiz-adv-x="614" 
d="M357.5 511.5q40.5 -20.5 59.5 -53.5v62h130v-694h-136v229q-18 -28 -58.5 -47.5t-90.5 -19.5q-68 0 -117.5 30.5t-75 83t-25.5 115.5v86q0 63 26 115t75.5 83t117.5 31q54 0 94.5 -20.5zM209.5 387q-29.5 -35 -29.5 -90v-74q0 -56 30.5 -90.5t86.5 -34.5q49 0 81.5 33
t32.5 90v76q0 55 -32 90t-83 35q-57 0 -86.5 -35z" />
    <glyph glyph-name="r" unicode="r" horiz-adv-x="394" 
d="M67 520h129v-101q23 105 156 105h16v-135h-28q-68 0 -102.5 -36t-34.5 -113v-240h-136v520z" />
    <glyph glyph-name="s" unicode="s" horiz-adv-x="531" 
d="M106 30.5q-61 42.5 -61 123.5v9h120v-7q0 -34 28.5 -53t76.5 -19q44 0 71.5 17t27.5 46q0 19 -10.5 30.5t-32.5 16.5l-154 35q-60 14 -89.5 46.5t-29.5 90.5q0 79 57.5 122.5t152.5 43.5q94 0 150 -44.5t56 -121.5v-8h-119v9q0 32 -21 50t-64 18q-41 0 -63 -14.5
t-22 -42.5q0 -19 9.5 -29t30.5 -15l158 -39q59 -14 87.5 -46.5t28.5 -86.5q0 -50 -29.5 -89.5t-80.5 -62t-115 -22.5q-102 0 -163 42.5z" />
    <glyph glyph-name="t" unicode="t" horiz-adv-x="384" 
d="M138 38.5q-37 38.5 -37 109.5v262h-74v110h74v142h137v-142h111v-110h-111v-252q0 -26 11 -37t38 -11h55v-110h-94q-73 0 -110 38.5z" />
    <glyph glyph-name="u" unicode="u" horiz-adv-x="592" 
d="M525 0h-130v62q-18 -33 -59.5 -53.5t-91.5 -20.5q-86 0 -134 54.5t-48 144.5v333h136v-314q0 -50 23.5 -77t68.5 -27q47 0 73 28t26 77v313h136v-520z" />
    <glyph glyph-name="v" unicode="v" horiz-adv-x="518" 
d="M330 0h-142l-177 520h136l112 -381l112 381h136z" />
    <glyph glyph-name="w" unicode="w" horiz-adv-x="788" 
d="M635 0h-127l-114 358l-114 -358h-127l-135 520h132l76 -349l106 349h124l106 -349l76 349h132z" />
    <glyph glyph-name="x" unicode="x" horiz-adv-x="540" 
d="M521 0h-143l-108 162l-108 -162h-143l182 264l-175 256h141l103 -154l103 154h141l-175 -256z" />
    <glyph glyph-name="y" unicode="y" horiz-adv-x="511" 
d="M139 -174l52 176l-180 518h136l112 -373l106 373h135l-227 -694h-134z" />
    <glyph glyph-name="z" unicode="z" horiz-adv-x="505" 
d="M45 98l257 317h-245v105h402v-98l-257 -317h263v-105h-420v98z" />
    <glyph glyph-name="braceleft" unicode="{" horiz-adv-x="422" 
d="M56 379q83 0 83 81v142q0 90 45 134.5t142 44.5h76v-112h-49q-42 0 -60 -17.5t-18 -58.5v-145q0 -110 -102 -125q102 -15 102 -125v-145q0 -41 18 -58.5t60 -17.5h49v-112h-76q-97 0 -142 44.5t-45 134.5v142q0 81 -83 81h-31v112h31z" />
    <glyph glyph-name="bar" unicode="|" horiz-adv-x="330" 
d="M107 800h116v-950h-116v950z" />
    <glyph glyph-name="braceright" unicode="}" horiz-adv-x="422" 
d="M397 379v-112h-31q-83 0 -83 -81v-142q0 -90 -45 -134.5t-142 -44.5h-76v112h49q42 0 60 17.5t18 58.5v145q0 110 102 125q-102 15 -102 125v145q0 41 -18 58.5t-60 17.5h-49v112h76q97 0 142 -44.5t45 -134.5v-142q0 -81 83 -81h31z" />
    <glyph glyph-name="asciitilde" unicode="~" horiz-adv-x="642" 
d="M103 415.5q38 45.5 109 45.5q26 0 55.5 -10.5t75.5 -31.5q58 -29 79 -29q22 0 32 14t16.5 32.5t8.5 24.5l116 -40q-20 -74 -54 -118t-97 -44q-23 0 -51 10t-69 29q-34 16 -55 24t-37 8q-29 0 -41 -18.5t-22 -59.5l-119 28q15 90 53 135.5z" />
    <glyph glyph-name="uni00A0" unicode="&#xa0;" horiz-adv-x="220" 
 />
    <glyph glyph-name="exclamdown" unicode="&#xa1;" horiz-adv-x="296" 
d="M204.5 573.5q-21.5 -21.5 -56.5 -21.5t-56.5 21.5t-21.5 56.5t21.5 56.5t56.5 21.5t56.5 -21.5t21.5 -56.5t-21.5 -56.5zM219 277v-277h-142v277l33 221h76z" />
    <glyph glyph-name="cent" unicode="&#xa2;" 
d="M189 321q0 -53 27 -82.5t78 -29.5q45 0 71.5 23t30.5 58h126q-3 -66 -46.5 -116.5t-115.5 -67.5v-106h-136v106q-78 18 -122.5 75t-44.5 140v58q0 83 45 141t122 73v107h136v-107q71 -13 115 -64.5t47 -118.5h-126q-4 35 -30.5 58t-71.5 23q-51 0 -78 -29.5t-27 -82.5
v-58z" />
    <glyph glyph-name="sterling" unicode="&#xa3;" horiz-adv-x="672" 
d="M64 110h115v168h-101v110h101v118q0 101 61 154.5t163 53.5q104 0 163 -55t59 -147v-20h-126v21q0 40 -23 64.5t-68 24.5q-93 0 -93 -94v-120h188v-110h-188v-168h267v-110h-518v110z" />
    <glyph glyph-name="currency" unicode="&#xa4;" horiz-adv-x="622" 
d="M511 323q0 -60 -33 -106l84 -132h-136l-41 67q-36 -11 -74 -11q-39 0 -74 11l-41 -67h-136l84 132q-33 46 -33 106v49q0 59 33 106l-84 132h136l41 -67q35 11 74 11q38 0 74 -11l41 67h136l-84 -132q33 -47 33 -106v-49zM395 379q0 35 -22 57.5t-62 22.5t-62 -22.5
t-22 -57.5v-63q0 -35 22 -57.5t62 -22.5t62 22.5t22 57.5v63z" />
    <glyph glyph-name="yen" unicode="&#xa5;" horiz-adv-x="608" 
d="M70 428h90l-120 272h147l117 -309l117 309h147l-120 -272h90v-101h-135l-31 -71v-19h166v-101h-166v-136h-136v136h-166v101h166v19l-32 71h-134v101z" />
    <glyph glyph-name="brokenbar" unicode="&#xa6;" horiz-adv-x="330" 
d="M107 800h116v-388h-116v388zM107 238h116v-388h-116v388z" />
    <glyph glyph-name="section" unicode="&#xa7;" horiz-adv-x="618" 
d="M143 -88q-62 48 -62 132v14h119v-9q0 -39 27.5 -62.5t78.5 -23.5q44 0 71.5 18t27.5 51q0 25 -13.5 38.5t-42.5 23.5l-163 57q-61 21 -93.5 58t-32.5 96q0 41 19.5 76t49.5 61q-34 36 -34 97q0 82 59.5 128.5t158.5 46.5q106 0 164 -48t58 -133v-12h-117v13
q0 38 -25.5 59.5t-76.5 21.5q-46 0 -71.5 -17.5t-25.5 -50.5q0 -25 13 -38.5t43 -24.5l159 -58q66 -24 97.5 -59.5t31.5 -93.5q0 -39 -17.5 -75.5t-46.5 -65.5q30 -36 30 -93q0 -49 -28 -89t-78.5 -63t-116.5 -23q-101 0 -163 48zM409 188q30 35 30 72q0 45 -56 67l-165 61
q-34 -36 -34 -70q0 -25 12.5 -41t41.5 -27z" />
    <glyph glyph-name="dieresis" unicode="&#xa8;" horiz-adv-x="504" 
d="M95 707.5q21 20.5 52 20.5q32 0 52.5 -20.5t20.5 -52.5q0 -31 -20.5 -52t-52.5 -21q-31 0 -52 21t-21 52q0 32 21 52.5zM305 707.5q21 20.5 52 20.5q32 0 52.5 -20.5t20.5 -52.5q0 -31 -20.5 -52t-52.5 -21q-31 0 -52 21t-21 52q0 32 21 52.5z" />
    <glyph glyph-name="copyright" unicode="&#xa9;" horiz-adv-x="826" 
d="M224.5 36.5q-82.5 48.5 -128.5 131.5t-46 182t46 182t128.5 131.5t188.5 48.5t189 -48.5t128.5 -131.5t45.5 -182t-45.5 -182t-128.5 -131.5t-189 -48.5t-188.5 48.5zM582.5 69q73.5 45 113 119.5t39.5 161.5t-39.5 161.5t-113 119.5t-169.5 45t-169 -45t-113 -119.5
t-40 -161.5t40 -161.5t113 -119.5t169 -45t169.5 45zM300 213.5q-40 44.5 -40 110.5v52q0 66 40 110.5t115 44.5q63 0 104 -38t45 -94h-72q-11 67 -77 67q-40 0 -59.5 -25t-19.5 -65v-52q0 -40 19.5 -65t59.5 -25q66 0 77 67h72q-4 -56 -45 -94t-104 -38q-75 0 -115 44.5z
" />
    <glyph glyph-name="ordfeminine" unicode="&#xaa;" horiz-adv-x="428" 
d="M277 370v30q-12 -15 -40 -26.5t-62 -11.5q-50 0 -84 30.5t-34 76.5q0 49 34.5 77t89.5 28q30 0 54 -8.5t37 -21.5v41q0 21 -14 35t-38 14q-39 0 -54 -30h-88q13 52 51 79t95 27q62 0 101 -37.5t39 -95.5v-207h-87zM253.5 437.5q18.5 11.5 18.5 32.5t-17.5 32.5
t-43.5 11.5q-30 0 -47 -11.5t-17 -32.5t17 -32.5t44 -11.5t45.5 11.5zM56 309h316v-80h-316v80z" />
    <glyph glyph-name="guillemotleft" unicode="&#xab;" horiz-adv-x="635" 
d="M10 276l163 216h153l-162 -216l162 -216h-153zM289 276l163 216h153l-162 -216l162 -216h-153z" />
    <glyph glyph-name="logicalnot" unicode="&#xac;" horiz-adv-x="582" 
d="M385 303h-335v114h462v-299h-127v185z" />
    <glyph glyph-name="registered" unicode="&#xae;" horiz-adv-x="534" 
d="M149.5 310q-50.5 30 -77.5 79.5t-27 106.5q0 58 27 107.5t77.5 79t117.5 29.5t117.5 -29.5t77.5 -79t27 -107.5q0 -57 -27 -106.5t-77.5 -79.5t-117.5 -30t-117.5 30zM364.5 335q42.5 25 66 67.5t23.5 93.5q0 52 -23.5 94.5t-66 67t-97.5 24.5t-97.5 -24.5t-66 -67
t-23.5 -94.5q0 -51 23.5 -93.5t66 -67.5t97.5 -25t97.5 25zM274 467h-34v-60h-44v192h88q33 0 51 -18t18 -48q0 -20 -9.5 -35.5t-25.5 -23.5l38 -67h-51zM275 502q34 0 34 31q0 14 -8.5 22t-25.5 8h-35v-61h35z" />
    <glyph glyph-name="macron" unicode="&#xaf;" horiz-adv-x="494" 
d="M77 706h340v-107h-340v107z" />
    <glyph glyph-name="degree" unicode="&#xb0;" horiz-adv-x="404" 
d="M119 419q-36 21 -55 56.5t-19 78.5t19 78.5t55 56.5t83 21t83 -21t55 -56.5t19 -78.5t-19 -78.5t-55 -56.5t-83 -21t-83 21zM267 486.5q23 26.5 23 67.5t-23 67.5t-65 26.5t-65 -26.5t-23 -67.5t23 -67.5t65 -26.5t65 26.5z" />
    <glyph glyph-name="plusminus" unicode="&#xb1;" horiz-adv-x="612" 
d="M75 107h168v180h-168v114h168v185h126v-185h168v-114h-168v-180h168v-107h-462v107z" />
    <glyph glyph-name="uni00B2" unicode="&#xb2;" horiz-adv-x="403" 
d="M55 531l165 140q16 13 24 25t8 27q0 20 -14 31.5t-37 11.5q-53 0 -53 -48v-5h-88v8q0 59 38.5 92t103.5 33q64 0 105 -33.5t41 -87.5q0 -37 -19.5 -63.5t-56.5 -55.5l-88 -68h161v-78h-290v71z" />
    <glyph glyph-name="uni00B3" unicode="&#xb3;" horiz-adv-x="403" 
d="M78 837h250v-72l-89 -78q49 -2 79 -30.5t30 -76.5q0 -55 -44.5 -91t-108.5 -36q-62 0 -103 33t-42 91h84q2 -22 18.5 -37t43.5 -15q28 0 44.5 14t16.5 37q0 45 -61 45h-62v67l79 77h-135v72z" />
    <glyph glyph-name="acute" unicode="&#xb4;" horiz-adv-x="395" 
d="M150 733h168l-106 -154h-135z" />
    <glyph glyph-name="uni00B5" unicode="&#xb5;" horiz-adv-x="592" 
d="M525 0h-130v62q-22 -34 -61.5 -54t-88.5 -20q-30 0 -47 9v-171h-136v694h136v-314q0 -104 92 -104q47 0 73 28t26 77v313h136v-520z" />
    <glyph glyph-name="paragraph" unicode="&#xb6;" horiz-adv-x="613" 
d="M437 618h-105v-457q-83 0 -147 31.5t-100 91.5t-36 145q0 129 75.5 200t207.5 71h198v-874h-93v792z" />
    <glyph glyph-name="periodcentered" unicode="&#xb7;" horiz-adv-x="256" 
d="M71.5 342.5q21.5 21.5 56.5 21.5t56.5 -21.5t21.5 -56.5t-21.5 -56.5t-56.5 -21.5t-56.5 21.5t-21.5 56.5t21.5 56.5z" />
    <glyph glyph-name="cedilla" unicode="&#xb8;" horiz-adv-x="338" 
d="M77 -180v55q23 -5 47 -5q40 0 40 22q0 20 -37 23l-36 3l19 82h65l-7 -36l16 -2q77 -10 77 -69q0 -36 -30 -57.5t-83 -21.5q-44 0 -71 6z" />
    <glyph glyph-name="uni00B9" unicode="&#xb9;" horiz-adv-x="311" 
d="M130 742l-90 -25v83l106 37h80v-377h-96v282z" />
    <glyph glyph-name="ordmasculine" unicode="&#xba;" horiz-adv-x="432" 
d="M333.5 668q42.5 -42 42.5 -110v-44q0 -68 -42.5 -110t-117.5 -42t-117.5 42t-42.5 110v44q0 68 42.5 110t117.5 42t117.5 -42zM288 560q0 36 -17 56.5t-55 20.5t-55 -20.5t-17 -56.5v-48q0 -36 17 -56.5t55 -20.5t55 20.5t17 56.5v48zM67 309h300v-80h-300v80z" />
    <glyph glyph-name="guillemotright" unicode="&#xbb;" horiz-adv-x="635" 
d="M183 60h-153l162 216l-162 216h153l163 -216zM462 60h-153l162 216l-162 216h153l163 -216z" />
    <glyph glyph-name="onequarter" unicode="&#xbc;" horiz-adv-x="833" 
d="M145 605l-90 -25v83l106 37h80v-377h-96v282zM525 700h101l-360 -700h-101zM640 73h-189v69l120 235h90l-114 -231h93v73h89v-73h49v-73h-49v-73h-89v73z" />
    <glyph glyph-name="onehalf" unicode="&#xbd;" horiz-adv-x="844" 
d="M145 605l-90 -25v83l106 37h80v-377h-96v282zM525 700h101l-360 -700h-101zM496 71l165 140q16 13 24 25t8 27q0 20 -14 31.5t-37 11.5q-53 0 -53 -48v-5h-88v8q0 59 38.5 92t103.5 33q64 0 105 -33.5t41 -87.5q0 -37 -19.5 -63.5t-56.5 -55.5l-88 -68h161v-78h-290v71z
" />
    <glyph glyph-name="threequarters" unicode="&#xbe;" horiz-adv-x="880" 
d="M83 700h250v-72l-89 -78q49 -2 79 -30.5t30 -76.5q0 -55 -44.5 -91t-108.5 -36q-62 0 -103 33t-42 91h84q2 -22 18.5 -37t43.5 -15q28 0 44.5 14t16.5 37q0 45 -61 45h-62v67l79 77h-135v72zM572 700h101l-360 -700h-101zM687 73h-189v69l120 235h90l-114 -231h93v73h89
v-73h49v-73h-49v-73h-89v73z" />
    <glyph glyph-name="questiondown" unicode="&#xbf;" horiz-adv-x="504" 
d="M320.5 573.5q-21.5 -21.5 -56.5 -21.5t-56.5 21.5t-21.5 56.5t21.5 56.5t56.5 21.5t56.5 -21.5t21.5 -56.5t-21.5 -56.5zM327 444q0 -57 -14.5 -93.5t-48.5 -61.5l-46 -34q-32 -23 -46 -40.5t-14 -44.5q0 -34 26.5 -54t70.5 -20q48 0 73.5 22t25.5 65v23h125v-25
q0 -97 -61.5 -146t-165.5 -49q-67 0 -119.5 23t-81.5 64.5t-29 96.5q0 49 20 84.5t58 63.5l51 37q31 23 43 43.5t12 62.5v29h121v-46z" />
    <glyph glyph-name="Agrave" unicode="&#xc0;" horiz-adv-x="690" 
d="M667 0h-139l-47 147h-272l-47 -147h-139l251 700h142zM244 258h201l-100 316zM173 894h167l69 -141h-138z" />
    <glyph glyph-name="Aacute" unicode="&#xc1;" horiz-adv-x="690" 
d="M667 0h-139l-47 147h-272l-47 -147h-139l251 700h142zM244 258h201l-100 316zM355 894h167l-98 -141h-138z" />
    <glyph glyph-name="Acircumflex" unicode="&#xc2;" horiz-adv-x="690" 
d="M667 0h-139l-47 147h-272l-47 -147h-139l251 700h142zM244 258h201l-100 316zM530 753h-131l-54 67l-54 -67h-131l118 141h134z" />
    <glyph glyph-name="Atilde" unicode="&#xc3;" horiz-adv-x="690" 
d="M667 0h-139l-47 147h-272l-47 -147h-139l251 700h142zM244 258h201l-100 316zM133 769q13 68 38.5 99t81.5 31q25 0 53.5 -7t69.5 -20q4 -1 27 -8t34 -7q19 0 26.5 11t16.5 36l89 -25q-13 -46 -25.5 -71t-34.5 -39.5t-58 -14.5q-16 0 -42 6.5t-51 14.5q-67 21 -92 21
q-18 0 -27.5 -12t-15.5 -35z" />
    <glyph glyph-name="Adieresis" unicode="&#xc4;" horiz-adv-x="690" 
d="M667 0h-139l-47 147h-272l-47 -147h-139l251 700h142zM244 258h201l-100 316zM181 878.5q21 20.5 52 20.5q32 0 52.5 -20.5t20.5 -52.5q0 -31 -20.5 -52t-52.5 -21q-31 0 -52 21t-21 52q0 32 21 52.5zM405 878.5q21 20.5 52 20.5q32 0 52.5 -20.5t20.5 -52.5
q0 -31 -20.5 -52t-52.5 -21q-31 0 -52 21t-21 52q0 32 21 52.5z" />
    <glyph glyph-name="Aring" unicode="&#xc5;" horiz-adv-x="690" 
d="M23 0l243 678q-27 26 -27 65t29.5 65.5t76.5 26.5q48 0 77 -26.5t29 -65.5q0 -38 -27 -65l243 -678h-139l-47 147h-272l-47 -147h-139zM378.5 712q12.5 12 12.5 31t-12.5 30.5t-33.5 11.5t-33.5 -11.5t-12.5 -30.5t12.5 -31t33.5 -12t33.5 12zM244 258h201l-100 316z" />
    <glyph glyph-name="AE" unicode="&#xc6;" horiz-adv-x="1068" 
d="M527 148h-282l-95 -148h-150l469 700h548v-116h-350v-171h320v-117h-320v-180h351v-116h-491v148zM527 260v326l-210 -326h210z" />
    <glyph glyph-name="Ccedilla" unicode="&#xc7;" horiz-adv-x="706" 
d="M288 -180v55q23 -5 47 -5q40 0 40 22q0 20 -37 23l-36 3l16 70q-130 12 -196 97t-66 215v100q0 141 77 227.5t229 86.5q86 0 151 -35.5t101.5 -95.5t40.5 -132h-130q-7 64 -48 106t-115 42q-84 0 -125.5 -52t-41.5 -140v-114q0 -88 41.5 -140t125.5 -52q74 0 115 42
t48 106h130q-4 -69 -37.5 -127t-94 -94.5t-140.5 -40.5l-4 -23l16 -2q77 -10 77 -69q0 -36 -30 -57.5t-83 -21.5q-44 0 -71 6z" />
    <glyph glyph-name="Egrave" unicode="&#xc8;" horiz-adv-x="618" 
d="M77 700h490v-116h-350v-171h320v-117h-320v-180h351v-116h-491v700zM172 894h167l69 -141h-138z" />
    <glyph glyph-name="Eacute" unicode="&#xc9;" horiz-adv-x="618" 
d="M77 700h490v-116h-350v-171h320v-117h-320v-180h351v-116h-491v700zM316 894h167l-98 -141h-138z" />
    <glyph glyph-name="Ecircumflex" unicode="&#xca;" horiz-adv-x="618" 
d="M77 700h490v-116h-350v-171h320v-117h-320v-180h351v-116h-491v700zM512 753h-131l-54 67l-54 -67h-131l118 141h134z" />
    <glyph glyph-name="Edieresis" unicode="&#xcb;" horiz-adv-x="618" 
d="M77 700h490v-116h-350v-171h320v-117h-320v-180h351v-116h-491v700zM165 878.5q21 20.5 52 20.5q32 0 52.5 -20.5t20.5 -52.5q0 -31 -20.5 -52t-52.5 -21q-31 0 -52 21t-21 52q0 32 21 52.5zM389 878.5q21 20.5 52 20.5q32 0 52.5 -20.5t20.5 -52.5q0 -31 -20.5 -52
t-52.5 -21q-31 0 -52 21t-21 52q0 32 21 52.5z" />
    <glyph glyph-name="Igrave" unicode="&#xcc;" horiz-adv-x="546" 
d="M57 0v110h146v480h-142v110h424v-110h-142v-480h146v-110h-432zM107 894h167l69 -141h-138z" />
    <glyph glyph-name="Iacute" unicode="&#xcd;" horiz-adv-x="546" 
d="M57 0v110h146v480h-142v110h424v-110h-142v-480h146v-110h-432zM278 894h167l-98 -141h-138z" />
    <glyph glyph-name="Icircumflex" unicode="&#xce;" horiz-adv-x="546" 
d="M57 0v110h146v480h-142v110h424v-110h-142v-480h146v-110h-432zM458 753h-131l-54 67l-54 -67h-131l118 141h134z" />
    <glyph glyph-name="Idieresis" unicode="&#xcf;" horiz-adv-x="546" 
d="M57 0v110h146v480h-142v110h424v-110h-142v-480h146v-110h-432zM109 878.5q21 20.5 52 20.5q32 0 52.5 -20.5t20.5 -52.5q0 -31 -20.5 -52t-52.5 -21q-31 0 -52 21t-21 52q0 32 21 52.5zM333 878.5q21 20.5 52 20.5q32 0 52.5 -20.5t20.5 -52.5q0 -31 -20.5 -52
t-52.5 -21q-31 0 -52 21t-21 52q0 32 21 52.5z" />
    <glyph glyph-name="Eth" unicode="&#xd0;" horiz-adv-x="739" 
d="M33 408h75v292h284q92 0 156.5 -35t97.5 -97t33 -143v-150q0 -81 -33 -143t-97.5 -97t-156.5 -35h-284v292h-75v116zM540 426q0 77 -44 118.5t-128 41.5h-121v-178h152v-116h-152v-178h121q84 0 128 41.5t44 118.5v152z" />
    <glyph glyph-name="Ntilde" unicode="&#xd1;" horiz-adv-x="729" 
d="M77 700h133l305 -466v466h137v-700h-133l-305 466v-466h-137v700zM147 769q13 68 38.5 99t81.5 31q25 0 53.5 -7t69.5 -20q4 -1 27 -8t34 -7q19 0 26.5 11t16.5 36l89 -25q-13 -46 -25.5 -71t-34.5 -39.5t-58 -14.5q-16 0 -42 6.5t-51 14.5q-67 21 -92 21
q-18 0 -27.5 -12t-15.5 -35z" />
    <glyph glyph-name="Ograve" unicode="&#xd2;" horiz-adv-x="736" 
d="M680 299q0 -90 -35.5 -161t-106 -111.5t-170.5 -40.5t-170 40.5t-106 111.5t-36 161v102q0 90 36 161t106 111.5t170 40.5t170.5 -40.5t106 -111.5t35.5 -161v-102zM496.5 153.5q43.5 51.5 43.5 138.5v116q0 87 -43.5 138.5t-128.5 51.5t-128.5 -51.5t-43.5 -138.5v-116
q0 -87 43.5 -138.5t128.5 -51.5t128.5 51.5zM206 894h167l69 -141h-138z" />
    <glyph glyph-name="Oacute" unicode="&#xd3;" horiz-adv-x="736" 
d="M680 299q0 -90 -35.5 -161t-106 -111.5t-170.5 -40.5t-170 40.5t-106 111.5t-36 161v102q0 90 36 161t106 111.5t170 40.5t170.5 -40.5t106 -111.5t35.5 -161v-102zM496.5 153.5q43.5 51.5 43.5 138.5v116q0 87 -43.5 138.5t-128.5 51.5t-128.5 -51.5t-43.5 -138.5v-116
q0 -87 43.5 -138.5t128.5 -51.5t128.5 51.5zM372 894h167l-98 -141h-138z" />
    <glyph glyph-name="Ocircumflex" unicode="&#xd4;" horiz-adv-x="736" 
d="M680 299q0 -90 -35.5 -161t-106 -111.5t-170.5 -40.5t-170 40.5t-106 111.5t-36 161v102q0 90 36 161t106 111.5t170 40.5t170.5 -40.5t106 -111.5t35.5 -161v-102zM496.5 153.5q43.5 51.5 43.5 138.5v116q0 87 -43.5 138.5t-128.5 51.5t-128.5 -51.5t-43.5 -138.5v-116
q0 -87 43.5 -138.5t128.5 -51.5t128.5 51.5zM553 753h-131l-54 67l-54 -67h-131l118 141h134z" />
    <glyph glyph-name="Otilde" unicode="&#xd5;" horiz-adv-x="736" 
d="M680 299q0 -90 -35.5 -161t-106 -111.5t-170.5 -40.5t-170 40.5t-106 111.5t-36 161v102q0 90 36 161t106 111.5t170 40.5t170.5 -40.5t106 -111.5t35.5 -161v-102zM496.5 153.5q43.5 51.5 43.5 138.5v116q0 87 -43.5 138.5t-128.5 51.5t-128.5 -51.5t-43.5 -138.5v-116
q0 -87 43.5 -138.5t128.5 -51.5t128.5 51.5zM156 769q13 68 38.5 99t81.5 31q25 0 53.5 -7t69.5 -20q4 -1 27 -8t34 -7q19 0 26.5 11t16.5 36l89 -25q-13 -46 -25.5 -71t-34.5 -39.5t-58 -14.5q-16 0 -42 6.5t-51 14.5q-67 21 -92 21q-18 0 -27.5 -12t-15.5 -35z" />
    <glyph glyph-name="Odieresis" unicode="&#xd6;" horiz-adv-x="736" 
d="M680 299q0 -90 -35.5 -161t-106 -111.5t-170.5 -40.5t-170 40.5t-106 111.5t-36 161v102q0 90 36 161t106 111.5t170 40.5t170.5 -40.5t106 -111.5t35.5 -161v-102zM496.5 153.5q43.5 51.5 43.5 138.5v116q0 87 -43.5 138.5t-128.5 51.5t-128.5 -51.5t-43.5 -138.5v-116
q0 -87 43.5 -138.5t128.5 -51.5t128.5 51.5zM204 878.5q21 20.5 52 20.5q32 0 52.5 -20.5t20.5 -52.5q0 -31 -20.5 -52t-52.5 -21q-31 0 -52 21t-21 52q0 32 21 52.5zM428 878.5q21 20.5 52 20.5q32 0 52.5 -20.5t20.5 -52.5q0 -31 -20.5 -52t-52.5 -21q-31 0 -52 21t-21 52
q0 32 21 52.5z" />
    <glyph glyph-name="multiply" unicode="&#xd7;" horiz-adv-x="598" 
d="M148 589l151 -151l151 151l78 -78l-151 -151l151 -151l-78 -78l-151 151l-151 -151l-78 78l151 151l-151 151z" />
    <glyph glyph-name="Oslash" unicode="&#xd8;" horiz-adv-x="736" 
d="M680 299q0 -90 -35.5 -161t-106 -111.5t-170.5 -40.5q-96 0 -168 39l-49 -75h-95l81 123q-40 42 -60.5 99.5t-20.5 126.5v102q0 90 36 161t106 111.5t170 40.5q97 0 167 -39l50 75h95l-81 -123q40 -41 60.5 -99.5t20.5 -126.5v-102zM215 191l252 381q-42 26 -99 26
q-85 0 -128.5 -51.5t-43.5 -138.5v-116q0 -59 19 -101zM496.5 153.5q43.5 51.5 43.5 138.5v116q0 29 -5 55.5t-15 44.5l-251 -380q35 -26 99 -26q85 0 128.5 51.5z" />
    <glyph glyph-name="Ugrave" unicode="&#xd9;" horiz-adv-x="720" 
d="M206 19.5q-65 33.5 -99.5 93.5t-34.5 139v448h139v-454q0 -68 40.5 -106t108.5 -38t108 38t40 106v454h140v-448q0 -79 -34.5 -139t-99.5 -93.5t-154 -33.5t-154 33.5zM208 894h167l69 -141h-138z" />
    <glyph glyph-name="Uacute" unicode="&#xda;" horiz-adv-x="720" 
d="M206 19.5q-65 33.5 -99.5 93.5t-34.5 139v448h139v-454q0 -68 40.5 -106t108.5 -38t108 38t40 106v454h140v-448q0 -79 -34.5 -139t-99.5 -93.5t-154 -33.5t-154 33.5zM352 894h167l-98 -141h-138z" />
    <glyph glyph-name="Ucircumflex" unicode="&#xdb;" horiz-adv-x="720" 
d="M206 19.5q-65 33.5 -99.5 93.5t-34.5 139v448h139v-454q0 -68 40.5 -106t108.5 -38t108 38t40 106v454h140v-448q0 -79 -34.5 -139t-99.5 -93.5t-154 -33.5t-154 33.5zM545 753h-131l-54 67l-54 -67h-131l118 141h134z" />
    <glyph glyph-name="Udieresis" unicode="&#xdc;" horiz-adv-x="720" 
d="M206 19.5q-65 33.5 -99.5 93.5t-34.5 139v448h139v-454q0 -68 40.5 -106t108.5 -38t108 38t40 106v454h140v-448q0 -79 -34.5 -139t-99.5 -93.5t-154 -33.5t-154 33.5zM196 878.5q21 20.5 52 20.5q32 0 52.5 -20.5t20.5 -52.5q0 -31 -20.5 -52t-52.5 -21q-31 0 -52 21
t-21 52q0 32 21 52.5zM420 878.5q21 20.5 52 20.5q32 0 52.5 -20.5t20.5 -52.5q0 -31 -20.5 -52t-52.5 -21q-31 0 -52 21t-21 52q0 32 21 52.5z" />
    <glyph glyph-name="Yacute" unicode="&#xdd;" horiz-adv-x="636" 
d="M388 0h-140v252l-240 448h152l158 -312l158 312h152l-240 -448v-252zM320 894h167l-98 -141h-138z" />
    <glyph glyph-name="Thorn" unicode="&#xde;" horiz-adv-x="652" 
d="M77 700h140v-105h151q79 0 138 -29.5t90.5 -82.5t31.5 -123t-32.5 -124t-91.5 -84.5t-136 -30.5h-151v-121h-140v700zM359 236q64 0 96.5 34.5t32.5 89.5q0 54 -32.5 87t-96.5 33h-142v-244h142z" />
    <glyph glyph-name="germandbls" unicode="&#xdf;" horiz-adv-x="616" 
d="M67 518q0 106 64.5 161t171.5 55q70 0 125 -25t85.5 -69.5t30.5 -102.5q0 -56 -24.5 -99.5t-69.5 -66.5q65 -19 99.5 -59.5t34.5 -110.5q0 -95 -66.5 -148t-177.5 -53h-34v108h28q53 0 83.5 26.5t30.5 75.5q0 45 -30.5 70.5t-84.5 25.5h-28v106q47 3 75 34t28 76
q0 47 -27 75t-77 28q-47 0 -74 -25t-27 -76v-524h-136v518z" />
    <glyph glyph-name="agrave" unicode="&#xe0;" horiz-adv-x="585" 
d="M99 31.5q-54 43.5 -54 118.5q0 82 56.5 123.5t153.5 41.5q42 0 76 -13t56 -31v71q0 37 -24.5 60.5t-65.5 23.5q-34 0 -56.5 -13.5t-33.5 -35.5h-126q22 75 80 115t143 40q65 0 114.5 -25t77 -70t27.5 -105v-332h-131v48q-18 -26 -61 -43t-89 -17q-89 0 -143 43.5z
M355 100q32 22 32 55q0 34 -29.5 53.5t-76.5 19.5q-49 0 -76.5 -19t-27.5 -55q0 -35 28 -55.5t72 -20.5q46 0 78 22zM139 733h168l73 -154h-137z" />
    <glyph glyph-name="aacute" unicode="&#xe1;" horiz-adv-x="585" 
d="M99 31.5q-54 43.5 -54 118.5q0 82 56.5 123.5t153.5 41.5q42 0 76 -13t56 -31v71q0 37 -24.5 60.5t-65.5 23.5q-34 0 -56.5 -13.5t-33.5 -35.5h-126q22 75 80 115t143 40q65 0 114.5 -25t77 -70t27.5 -105v-332h-131v48q-18 -26 -61 -43t-89 -17q-89 0 -143 43.5z
M355 100q32 22 32 55q0 34 -29.5 53.5t-76.5 19.5q-49 0 -76.5 -19t-27.5 -55q0 -35 28 -55.5t72 -20.5q46 0 78 22zM312 733h168l-106 -154h-135z" />
    <glyph glyph-name="acircumflex" unicode="&#xe2;" horiz-adv-x="585" 
d="M99 31.5q-54 43.5 -54 118.5q0 82 56.5 123.5t153.5 41.5q42 0 76 -13t56 -31v71q0 37 -24.5 60.5t-65.5 23.5q-34 0 -56.5 -13.5t-33.5 -35.5h-126q22 75 80 115t143 40q65 0 114.5 -25t77 -70t27.5 -105v-332h-131v48q-18 -26 -61 -43t-89 -17q-89 0 -143 43.5z
M355 100q32 22 32 55q0 34 -29.5 53.5t-76.5 19.5q-49 0 -76.5 -19t-27.5 -55q0 -35 28 -55.5t72 -20.5q46 0 78 22zM493 579h-124l-54 77l-54 -77h-124l112 154h132z" />
    <glyph glyph-name="atilde" unicode="&#xe3;" horiz-adv-x="585" 
d="M99 31.5q-54 43.5 -54 118.5q0 82 56.5 123.5t153.5 41.5q42 0 76 -13t56 -31v71q0 37 -24.5 60.5t-65.5 23.5q-34 0 -56.5 -13.5t-33.5 -35.5h-126q22 75 80 115t143 40q65 0 114.5 -25t77 -70t27.5 -105v-332h-131v48q-18 -26 -61 -43t-89 -17q-89 0 -143 43.5z
M355 100q32 22 32 55q0 34 -29.5 53.5t-76.5 19.5q-49 0 -76.5 -19t-27.5 -55q0 -35 28 -55.5t72 -20.5q46 0 78 22zM109 598q9 62 34.5 95.5t79.5 33.5q19 0 41 -6.5t58 -19.5q45 -17 60 -17q18 0 25.5 11t16.5 36l84 -26q-12 -41 -23.5 -66t-33 -41t-55.5 -16
q-16 0 -35 5.5t-49 16.5q-53 21 -77 21q-18 0 -25.5 -11t-15.5 -37z" />
    <glyph glyph-name="adieresis" unicode="&#xe4;" horiz-adv-x="585" 
d="M99 31.5q-54 43.5 -54 118.5q0 82 56.5 123.5t153.5 41.5q42 0 76 -13t56 -31v71q0 37 -24.5 60.5t-65.5 23.5q-34 0 -56.5 -13.5t-33.5 -35.5h-126q22 75 80 115t143 40q65 0 114.5 -25t77 -70t27.5 -105v-332h-131v48q-18 -26 -61 -43t-89 -17q-89 0 -143 43.5z
M355 100q32 22 32 55q0 34 -29.5 53.5t-76.5 19.5q-49 0 -76.5 -19t-27.5 -55q0 -35 28 -55.5t72 -20.5q46 0 78 22zM160 707.5q21 20.5 52 20.5q32 0 52.5 -20.5t20.5 -52.5q0 -31 -20.5 -52t-52.5 -21q-31 0 -52 21t-21 52q0 32 21 52.5zM370 707.5q21 20.5 52 20.5
q32 0 52.5 -20.5t20.5 -52.5q0 -31 -20.5 -52t-52.5 -21q-31 0 -52 21t-21 52q0 32 21 52.5z" />
    <glyph glyph-name="aring" unicode="&#xe5;" horiz-adv-x="585" 
d="M99 31.5q-54 43.5 -54 118.5q0 82 56.5 123.5t153.5 41.5q42 0 76 -13t56 -31v71q0 37 -24.5 60.5t-65.5 23.5q-34 0 -56.5 -13.5t-33.5 -35.5h-126q22 75 80 115t143 40q65 0 114.5 -25t77 -70t27.5 -105v-332h-131v48q-18 -26 -61 -43t-89 -17q-89 0 -143 43.5z
M355 100q32 22 32 55q0 34 -29.5 53.5t-76.5 19.5q-49 0 -76.5 -19t-27.5 -55q0 -35 28 -55.5t72 -20.5q46 0 78 22zM233.5 606q-28.5 27 -28.5 66t29.5 65.5t76.5 26.5q48 0 77 -26.5t29 -65.5t-28.5 -66t-77.5 -27t-77.5 27zM344.5 641q12.5 12 12.5 31t-12.5 30.5
t-33.5 11.5t-33.5 -11.5t-12.5 -30.5t12.5 -31t33.5 -12t33.5 12z" />
    <glyph glyph-name="ae" unicode="&#xe6;" horiz-adv-x="915" 
d="M524.5 8q-47.5 20 -77.5 57q-30 -33 -79.5 -55t-113.5 -22q-62 0 -109.5 21t-73.5 59.5t-26 88.5q0 79 58 119.5t152 40.5q43 0 77.5 -12.5t54.5 -32.5v63q0 39 -23.5 64.5t-65.5 25.5q-35 0 -56.5 -12t-34.5 -36h-126q18 76 75.5 115.5t142.5 39.5q104 0 160 -64
q27 30 72 47t100 17q74 0 126.5 -30.5t79 -82t26.5 -115.5v-91h-340v-13q0 -50 27 -82t83 -32q41 0 69 18.5t38 47.5h119q-9 -47 -41 -84.5t-80 -58.5t-105 -21q-61 0 -108.5 20zM738 309v13q0 51 -27 82.5t-80 31.5q-54 0 -81 -30.5t-27 -81.5v-15h215zM355 100.5
q32 21.5 32 54.5q0 34 -30 54.5t-76 20.5q-49 0 -76.5 -19t-27.5 -55q0 -35 28 -56t72 -21q46 0 78 21.5z" />
    <glyph glyph-name="ccedilla" unicode="&#xe7;" horiz-adv-x="571" 
d="M226 -180v55q23 -5 47 -5q40 0 40 22q0 20 -37 23l-36 3l16 72q-100 9 -156 72.5t-56 160.5v74q0 68 29 121.5t84.5 83.5t132.5 30q68 0 121.5 -26.5t83.5 -73.5t32 -106h-124q-5 42 -32 69t-78 27q-56 0 -84.5 -32.5t-28.5 -87.5v-84q0 -55 28.5 -87.5t84.5 -32.5
q51 0 78 27t32 69h124q-3 -83 -59 -139t-146 -65l-5 -26l16 -2q77 -10 77 -69q0 -36 -30 -57.5t-83 -21.5q-44 0 -71 6z" />
    <glyph glyph-name="egrave" unicode="&#xe8;" horiz-adv-x="560" 
d="M109.5 49.5q-65.5 61.5 -65.5 170.5v71q0 109 63 175t177 66q74 0 126.5 -30.5t79 -82t26.5 -115.5v-91h-340v-13q0 -50 27 -82t83 -32q41 0 69 18.5t38 47.5h119q-9 -47 -41 -84.5t-80 -58.5t-105 -21q-111 0 -176.5 61.5zM176 309h215v13q0 51 -27 82.5t-80 31.5
q-56 0 -82 -33t-26 -89v-5zM115 733h168l73 -154h-137z" />
    <glyph glyph-name="eacute" unicode="&#xe9;" horiz-adv-x="560" 
d="M109.5 49.5q-65.5 61.5 -65.5 170.5v71q0 109 63 175t177 66q74 0 126.5 -30.5t79 -82t26.5 -115.5v-91h-340v-13q0 -50 27 -82t83 -32q41 0 69 18.5t38 47.5h119q-9 -47 -41 -84.5t-80 -58.5t-105 -21q-111 0 -176.5 61.5zM176 309h215v13q0 51 -27 82.5t-80 31.5
q-56 0 -82 -33t-26 -89v-5zM289 733h168l-106 -154h-135z" />
    <glyph glyph-name="ecircumflex" unicode="&#xea;" horiz-adv-x="560" 
d="M109.5 49.5q-65.5 61.5 -65.5 170.5v71q0 109 63 175t177 66q74 0 126.5 -30.5t79 -82t26.5 -115.5v-91h-340v-13q0 -50 27 -82t83 -32q41 0 69 18.5t38 47.5h119q-9 -47 -41 -84.5t-80 -58.5t-105 -21q-111 0 -176.5 61.5zM176 309h215v13q0 51 -27 82.5t-80 31.5
q-56 0 -82 -33t-26 -89v-5zM464 579h-124l-54 77l-54 -77h-124l112 154h132z" />
    <glyph glyph-name="edieresis" unicode="&#xeb;" horiz-adv-x="560" 
d="M109.5 49.5q-65.5 61.5 -65.5 170.5v71q0 109 63 175t177 66q74 0 126.5 -30.5t79 -82t26.5 -115.5v-91h-340v-13q0 -50 27 -82t83 -32q41 0 69 18.5t38 47.5h119q-9 -47 -41 -84.5t-80 -58.5t-105 -21q-111 0 -176.5 61.5zM176 309h215v13q0 51 -27 82.5t-80 31.5
q-56 0 -82 -33t-26 -89v-5zM126 707.5q21 20.5 52 20.5q32 0 52.5 -20.5t20.5 -52.5q0 -31 -20.5 -52t-52.5 -21q-31 0 -52 21t-21 52q0 32 21 52.5zM336 707.5q21 20.5 52 20.5q32 0 52.5 -20.5t20.5 -52.5q0 -31 -20.5 -52t-52.5 -21q-31 0 -52 21t-21 52q0 32 21 52.5z
" />
    <glyph glyph-name="igrave" unicode="&#xec;" horiz-adv-x="276" 
d="M70 520h136v-520h-136v520zM-36 733h168l73 -154h-137z" />
    <glyph glyph-name="iacute" unicode="&#xed;" horiz-adv-x="276" 
d="M70 520h136v-520h-136v520zM149 733h168l-106 -154h-135z" />
    <glyph glyph-name="icircumflex" unicode="&#xee;" horiz-adv-x="276" 
d="M70 520h136v-520h-136v520zM316 579h-124l-54 77l-54 -77h-124l112 154h132z" />
    <glyph glyph-name="idieresis" unicode="&#xef;" horiz-adv-x="276" 
d="M70 520h136v-520h-136v520zM-19 707.5q21 20.5 52 20.5q32 0 52.5 -20.5t20.5 -52.5q0 -31 -20.5 -52t-52.5 -21q-31 0 -52 21t-21 52q0 32 21 52.5zM191 707.5q21 20.5 52 20.5q32 0 52.5 -20.5t20.5 -52.5q0 -31 -20.5 -52t-52.5 -21q-31 0 -52 21t-21 52q0 32 21 52.5
z" />
    <glyph glyph-name="eth" unicode="&#xf0;" horiz-adv-x="579" 
d="M126 613l93 33q-44 33 -128 84h162q38 -21 72 -46l113 41l29 -78l-70 -26q64 -66 101 -147.5t37 -172.5v-78q0 -68 -30.5 -122t-87.5 -84.5t-132 -30.5q-71 0 -125.5 30t-85 82t-30.5 118v63q0 66 25.5 118t73 81.5t112.5 29.5q78 0 123 -43q-38 70 -86 118l-136 -49z
M372 123.5q30 31.5 30 83.5v75q0 57 -30 90.5t-82 33.5q-55 0 -84 -33t-29 -93v-76q0 -50 30 -81t81 -31q54 0 84 31.5z" />
    <glyph glyph-name="ntilde" unicode="&#xf1;" horiz-adv-x="596" 
d="M67 520h130v-62q20 36 59 55t94 19q85 0 134.5 -53t49.5 -146v-333h-136v311q0 47 -23.5 75t-71.5 28q-47 0 -73.5 -27t-26.5 -79v-308h-136v520zM105 598q9 62 34.5 95.5t79.5 33.5q19 0 41 -6.5t58 -19.5q45 -17 60 -17q18 0 25.5 11t16.5 36l84 -26q-12 -41 -23.5 -66
t-33 -41t-55.5 -16q-16 0 -35 5.5t-49 16.5q-53 21 -77 21q-18 0 -25.5 -11t-15.5 -37z" />
    <glyph glyph-name="ograve" unicode="&#xf2;" horiz-adv-x="578" 
d="M157.5 18.5q-55.5 30.5 -84.5 84t-29 120.5v74q0 67 29 120.5t84.5 84t131.5 30.5t131.5 -30.5t84.5 -84t29 -120.5v-74q0 -67 -29 -120.5t-84.5 -84t-131.5 -30.5t-131.5 30.5zM402 306q0 53 -28.5 86t-84.5 33t-84.5 -33t-28.5 -86v-92q0 -53 28.5 -86t84.5 -33
t84.5 33t28.5 86v92zM115 733h168l73 -154h-137z" />
    <glyph glyph-name="oacute" unicode="&#xf3;" horiz-adv-x="578" 
d="M157.5 18.5q-55.5 30.5 -84.5 84t-29 120.5v74q0 67 29 120.5t84.5 84t131.5 30.5t131.5 -30.5t84.5 -84t29 -120.5v-74q0 -67 -29 -120.5t-84.5 -84t-131.5 -30.5t-131.5 30.5zM402 306q0 53 -28.5 86t-84.5 33t-84.5 -33t-28.5 -86v-92q0 -53 28.5 -86t84.5 -33
t84.5 33t28.5 86v92zM295 733h168l-106 -154h-135z" />
    <glyph glyph-name="ocircumflex" unicode="&#xf4;" horiz-adv-x="578" 
d="M157.5 18.5q-55.5 30.5 -84.5 84t-29 120.5v74q0 67 29 120.5t84.5 84t131.5 30.5t131.5 -30.5t84.5 -84t29 -120.5v-74q0 -67 -29 -120.5t-84.5 -84t-131.5 -30.5t-131.5 30.5zM402 306q0 53 -28.5 86t-84.5 33t-84.5 -33t-28.5 -86v-92q0 -53 28.5 -86t84.5 -33
t84.5 33t28.5 86v92zM467 579h-124l-54 77l-54 -77h-124l112 154h132z" />
    <glyph glyph-name="otilde" unicode="&#xf5;" horiz-adv-x="578" 
d="M157.5 18.5q-55.5 30.5 -84.5 84t-29 120.5v74q0 67 29 120.5t84.5 84t131.5 30.5t131.5 -30.5t84.5 -84t29 -120.5v-74q0 -67 -29 -120.5t-84.5 -84t-131.5 -30.5t-131.5 30.5zM402 306q0 53 -28.5 86t-84.5 33t-84.5 -33t-28.5 -86v-92q0 -53 28.5 -86t84.5 -33
t84.5 33t28.5 86v92zM95 598q9 62 34.5 95.5t79.5 33.5q19 0 41 -6.5t58 -19.5q45 -17 60 -17q18 0 25.5 11t16.5 36l84 -26q-12 -41 -23.5 -66t-33 -41t-55.5 -16q-16 0 -35 5.5t-49 16.5q-53 21 -77 21q-18 0 -25.5 -11t-15.5 -37z" />
    <glyph glyph-name="odieresis" unicode="&#xf6;" horiz-adv-x="578" 
d="M157.5 18.5q-55.5 30.5 -84.5 84t-29 120.5v74q0 67 29 120.5t84.5 84t131.5 30.5t131.5 -30.5t84.5 -84t29 -120.5v-74q0 -67 -29 -120.5t-84.5 -84t-131.5 -30.5t-131.5 30.5zM402 306q0 53 -28.5 86t-84.5 33t-84.5 -33t-28.5 -86v-92q0 -53 28.5 -86t84.5 -33
t84.5 33t28.5 86v92zM132 707.5q21 20.5 52 20.5q32 0 52.5 -20.5t20.5 -52.5q0 -31 -20.5 -52t-52.5 -21q-31 0 -52 21t-21 52q0 32 21 52.5zM342 707.5q21 20.5 52 20.5q32 0 52.5 -20.5t20.5 -52.5q0 -31 -20.5 -52t-52.5 -21q-31 0 -52 21t-21 52q0 32 21 52.5z" />
    <glyph glyph-name="divide" unicode="&#xf7;" horiz-adv-x="598" 
d="M244 615q21 21 55 21t55 -21t21 -55t-21 -55t-55 -21t-55 21t-21 55t21 55zM70 418h458v-116h-458v116zM244 215q21 21 55 21t55 -21t21 -55t-21 -55t-55 -21t-55 21t-21 55t21 55z" />
    <glyph glyph-name="oslash" unicode="&#xf8;" horiz-adv-x="578" 
d="M162 16l-44 -66h-74l68 101q-34 32 -51 76t-17 96v74q0 67 29 120.5t84.5 84t131.5 30.5q72 0 126 -28l45 66h74l-68 -102q33 -31 50.5 -75.5t17.5 -95.5v-74q0 -67 -29 -120.5t-84.5 -84t-131.5 -30.5q-73 0 -127 28zM185 160l167 249q-27 16 -63 16q-56 0 -84.5 -33
t-28.5 -86v-92q0 -30 9 -54zM402 306q0 29 -9 53l-167 -249q24 -15 63 -15q56 0 84.5 33t28.5 86v92z" />
    <glyph glyph-name="ugrave" unicode="&#xf9;" horiz-adv-x="592" 
d="M525 0h-130v62q-18 -33 -59.5 -53.5t-91.5 -20.5q-86 0 -134 54.5t-48 144.5v333h136v-314q0 -50 23.5 -77t68.5 -27q47 0 73 28t26 77v313h136v-520zM140 733h168l73 -154h-137z" />
    <glyph glyph-name="uacute" unicode="&#xfa;" horiz-adv-x="592" 
d="M525 0h-130v62q-18 -33 -59.5 -53.5t-91.5 -20.5q-86 0 -134 54.5t-48 144.5v333h136v-314q0 -50 23.5 -77t68.5 -27q47 0 73 28t26 77v313h136v-520zM290 733h168l-106 -154h-135z" />
    <glyph glyph-name="ucircumflex" unicode="&#xfb;" horiz-adv-x="592" 
d="M525 0h-130v62q-18 -33 -59.5 -53.5t-91.5 -20.5q-86 0 -134 54.5t-48 144.5v333h136v-314q0 -50 23.5 -77t68.5 -27q47 0 73 28t26 77v313h136v-520zM480 579h-124l-54 77l-54 -77h-124l112 154h132z" />
    <glyph glyph-name="udieresis" unicode="&#xfc;" horiz-adv-x="592" 
d="M525 0h-130v62q-18 -33 -59.5 -53.5t-91.5 -20.5q-86 0 -134 54.5t-48 144.5v333h136v-314q0 -50 23.5 -77t68.5 -27q47 0 73 28t26 77v313h136v-520zM147 707.5q21 20.5 52 20.5q32 0 52.5 -20.5t20.5 -52.5q0 -31 -20.5 -52t-52.5 -21q-31 0 -52 21t-21 52
q0 32 21 52.5zM357 707.5q21 20.5 52 20.5q32 0 52.5 -20.5t20.5 -52.5q0 -31 -20.5 -52t-52.5 -21q-31 0 -52 21t-21 52q0 32 21 52.5z" />
    <glyph glyph-name="yacute" unicode="&#xfd;" horiz-adv-x="511" 
d="M139 -174l52 176l-180 518h136l112 -373l106 373h135l-227 -694h-134zM264 733h168l-106 -154h-135z" />
    <glyph glyph-name="thorn" unicode="&#xfe;" horiz-adv-x="614" 
d="M469.5 501q49.5 -31 75 -83t25.5 -115v-86q0 -63 -25.5 -115.5t-75 -83t-117.5 -30.5q-50 0 -89 18.5t-60 49.5v-230h-136v904h136v-264q22 29 60 47.5t88 18.5q69 0 118.5 -31zM235 387q-32 -35 -32 -90v-76q0 -57 32.5 -90t81.5 -33q56 0 86.5 34.5t30.5 90.5v74
q0 55 -29.5 90t-86.5 35q-51 0 -83 -35z" />
    <glyph glyph-name="ydieresis" unicode="&#xff;" horiz-adv-x="511" 
d="M139 -174l52 176l-180 518h136l112 -373l106 373h135l-227 -694h-134zM107 707.5q21 20.5 52 20.5q32 0 52.5 -20.5t20.5 -52.5q0 -31 -20.5 -52t-52.5 -21q-31 0 -52 21t-21 52q0 32 21 52.5zM317 707.5q21 20.5 52 20.5q32 0 52.5 -20.5t20.5 -52.5q0 -31 -20.5 -52
t-52.5 -21q-31 0 -52 21t-21 52q0 32 21 52.5z" />
    <glyph glyph-name="Amacron" unicode="&#x100;" horiz-adv-x="690" 
d="M667 0h-139l-47 147h-272l-47 -147h-139l251 700h142zM244 258h201l-100 316zM157 881h376v-109h-376v109z" />
    <glyph glyph-name="amacron" unicode="&#x101;" horiz-adv-x="585" 
d="M99 31.5q-54 43.5 -54 118.5q0 82 56.5 123.5t153.5 41.5q42 0 76 -13t56 -31v71q0 37 -24.5 60.5t-65.5 23.5q-34 0 -56.5 -13.5t-33.5 -35.5h-126q22 75 80 115t143 40q65 0 114.5 -25t77 -70t27.5 -105v-332h-131v48q-18 -26 -61 -43t-89 -17q-89 0 -143 43.5z
M355 100q32 22 32 55q0 34 -29.5 53.5t-76.5 19.5q-49 0 -76.5 -19t-27.5 -55q0 -35 28 -55.5t72 -20.5q46 0 78 22zM137 706h340v-107h-340v107z" />
    <glyph glyph-name="Abreve" unicode="&#x102;" horiz-adv-x="690" 
d="M667 0h-139l-47 147h-272l-47 -147h-139l251 700h142zM244 258h201l-100 316zM216 790.5q-51 37.5 -51 103.5h106q0 -27 20 -44t54 -17t54 17t20 44h106q0 -66 -51 -103.5t-129 -37.5t-129 37.5z" />
    <glyph glyph-name="abreve" unicode="&#x103;" horiz-adv-x="585" 
d="M99 31.5q-54 43.5 -54 118.5q0 82 56.5 123.5t153.5 41.5q42 0 76 -13t56 -31v71q0 37 -24.5 60.5t-65.5 23.5q-34 0 -56.5 -13.5t-33.5 -35.5h-126q22 75 80 115t143 40q65 0 114.5 -25t77 -70t27.5 -105v-332h-131v48q-18 -26 -61 -43t-89 -17q-89 0 -143 43.5z
M355 100q32 22 32 55q0 34 -29.5 53.5t-76.5 19.5q-49 0 -76.5 -19t-27.5 -55q0 -35 28 -55.5t72 -20.5q46 0 78 22zM187.5 620q-48.5 41 -48.5 113h100q0 -33 20.5 -53t56.5 -20t56.5 20t20.5 53h100q0 -72 -48.5 -113t-128.5 -41t-128.5 41z" />
    <glyph glyph-name="Aogonek" unicode="&#x104;" horiz-adv-x="692" 
d="M509 -161.5q-28 24.5 -28 67.5q0 53 47 94l-47 147h-272l-47 -147h-139l251 700h142l251 -700q-30 -19 -47 -37t-17 -42q0 -28 34 -28q14 0 25 3v-72q-38 -10 -78 -10q-47 0 -75 24.5zM244 258h201l-100 316z" />
    <glyph glyph-name="aogonek" unicode="&#x105;" horiz-adv-x="585" 
d="M99 31.5q-54 43.5 -54 118.5q0 82 56.5 123.5t153.5 41.5q42 0 76 -13t56 -31v71q0 37 -24.5 60.5t-65.5 23.5q-34 0 -56.5 -13.5t-33.5 -35.5h-126q22 75 80 115t143 40q65 0 114.5 -25t77 -70t27.5 -105v-332q-28 -20 -44.5 -38.5t-16.5 -40.5q0 -28 34 -28q15 0 25 3
v-72q-38 -10 -78 -10q-48 0 -75.5 23.5t-27.5 66.5q0 30 15 53t37 43v48q-18 -26 -61 -43t-89 -17q-89 0 -143 43.5zM355 100q32 22 32 55q0 34 -29.5 53.5t-76.5 19.5q-49 0 -76.5 -19t-27.5 -55q0 -35 28 -55.5t72 -20.5q46 0 78 22z" />
    <glyph glyph-name="Cacute" unicode="&#x106;" horiz-adv-x="706" 
d="M133 72.5q-77 86.5 -77 227.5v100q0 141 77 227.5t229 86.5q86 0 151 -35.5t101.5 -95.5t40.5 -132h-130q-7 64 -48 106t-115 42q-84 0 -125.5 -52t-41.5 -140v-114q0 -88 41.5 -140t125.5 -52q74 0 115 42t48 106h130q-4 -72 -40.5 -132t-101.5 -95.5t-151 -35.5
q-152 0 -229 86.5zM354 894h167l-98 -141h-138z" />
    <glyph glyph-name="cacute" unicode="&#x107;" horiz-adv-x="571" 
d="M157.5 18q-55.5 30 -84.5 83.5t-29 121.5v74q0 68 29 121.5t84.5 83.5t132.5 30q68 0 121.5 -26.5t83.5 -73.5t32 -106h-124q-5 42 -32 69t-78 27q-56 0 -84.5 -32.5t-28.5 -87.5v-84q0 -55 28.5 -87.5t84.5 -32.5q51 0 78 27t32 69h124q-2 -59 -32 -106t-83.5 -73.5
t-121.5 -26.5q-77 0 -132.5 30zM297 733h168l-106 -154h-135z" />
    <glyph glyph-name="Ccircumflex" unicode="&#x108;" horiz-adv-x="706" 
d="M133 72.5q-77 86.5 -77 227.5v100q0 141 77 227.5t229 86.5q86 0 151 -35.5t101.5 -95.5t40.5 -132h-130q-7 64 -48 106t-115 42q-84 0 -125.5 -52t-41.5 -140v-114q0 -88 41.5 -140t125.5 -52q74 0 115 42t48 106h130q-4 -72 -40.5 -132t-101.5 -95.5t-151 -35.5
q-152 0 -229 86.5zM553 753h-131l-54 67l-54 -67h-131l118 141h134z" />
    <glyph glyph-name="ccircumflex" unicode="&#x109;" horiz-adv-x="571" 
d="M157.5 18q-55.5 30 -84.5 83.5t-29 121.5v74q0 68 29 121.5t84.5 83.5t132.5 30q68 0 121.5 -26.5t83.5 -73.5t32 -106h-124q-5 42 -32 69t-78 27q-56 0 -84.5 -32.5t-28.5 -87.5v-84q0 -55 28.5 -87.5t84.5 -32.5q51 0 78 27t32 69h124q-2 -59 -32 -106t-83.5 -73.5
t-121.5 -26.5q-77 0 -132.5 30zM469 579h-124l-54 77l-54 -77h-124l112 154h132z" />
    <glyph glyph-name="Cdotaccent" unicode="&#x10a;" horiz-adv-x="706" 
d="M133 72.5q-77 86.5 -77 227.5v100q0 141 77 227.5t229 86.5q86 0 151 -35.5t101.5 -95.5t40.5 -132h-130q-7 64 -48 106t-115 42q-84 0 -125.5 -52t-41.5 -140v-114q0 -88 41.5 -140t125.5 -52q74 0 115 42t48 106h130q-4 -72 -40.5 -132t-101.5 -95.5t-151 -35.5
q-152 0 -229 86.5zM306.5 888.5q22.5 22.5 56.5 22.5t56.5 -22.5t22.5 -56.5t-22.5 -56.5t-56.5 -22.5t-56.5 22.5t-22.5 56.5t22.5 56.5z" />
    <glyph glyph-name="cdotaccent" unicode="&#x10b;" horiz-adv-x="571" 
d="M157.5 18q-55.5 30 -84.5 83.5t-29 121.5v74q0 68 29 121.5t84.5 83.5t132.5 30q68 0 121.5 -26.5t83.5 -73.5t32 -106h-124q-5 42 -32 69t-78 27q-56 0 -84.5 -32.5t-28.5 -87.5v-84q0 -55 28.5 -87.5t84.5 -32.5q51 0 78 27t32 69h124q-2 -59 -32 -106t-83.5 -73.5
t-121.5 -26.5q-77 0 -132.5 30zM234.5 714.5q22.5 22.5 56.5 22.5t56.5 -22.5t22.5 -56.5t-22.5 -56.5t-56.5 -22.5t-56.5 22.5t-22.5 56.5t22.5 56.5z" />
    <glyph glyph-name="Ccaron" unicode="&#x10c;" horiz-adv-x="706" 
d="M133 72.5q-77 86.5 -77 227.5v100q0 141 77 227.5t229 86.5q86 0 151 -35.5t101.5 -95.5t40.5 -132h-130q-7 64 -48 106t-115 42q-84 0 -125.5 -52t-41.5 -140v-114q0 -88 41.5 -140t125.5 -52q74 0 115 42t48 106h130q-4 -72 -40.5 -132t-101.5 -95.5t-151 -35.5
q-152 0 -229 86.5zM434 753h-134l-118 141h131l54 -67l54 67h131z" />
    <glyph glyph-name="ccaron" unicode="&#x10d;" horiz-adv-x="571" 
d="M157.5 18q-55.5 30 -84.5 83.5t-29 121.5v74q0 68 29 121.5t84.5 83.5t132.5 30q68 0 121.5 -26.5t83.5 -73.5t32 -106h-124q-5 42 -32 69t-78 27q-56 0 -84.5 -32.5t-28.5 -87.5v-84q0 -55 28.5 -87.5t84.5 -32.5q51 0 78 27t32 69h124q-2 -59 -32 -106t-83.5 -73.5
t-121.5 -26.5q-77 0 -132.5 30zM363 579h-132l-112 154h124l54 -77l54 77h124z" />
    <glyph glyph-name="Dcaron" unicode="&#x10e;" horiz-adv-x="703" 
d="M361 700q92 0 156.5 -35t97.5 -97t33 -143v-150q0 -81 -33 -143t-97.5 -97t-156.5 -35h-284v700h284zM509 426q0 77 -44 118.5t-128 41.5h-121v-472h121q84 0 128 41.5t44 118.5v152zM415 753h-134l-118 141h131l54 -67l54 67h131z" />
    <glyph glyph-name="dcaron" unicode="&#x10f;" horiz-adv-x="794" 
d="M661 730h148l-78 -223h-110zM145.5 19q-49.5 31 -75.5 83.5t-26 114.5v86q0 63 25.5 115.5t75 83t117.5 30.5q50 0 88 -18.5t61 -49.5v266h136v-730h-130v62q-21 -32 -61 -53t-93 -21q-68 0 -117.5 31zM379 133q32 35 32 90v76q0 57 -32.5 90t-81.5 33q-56 0 -86.5 -34.5
t-30.5 -90.5v-74q0 -55 29.5 -90t86.5 -35q51 0 83 35z" />
    <glyph glyph-name="Dcroat" unicode="&#x110;" horiz-adv-x="739" 
d="M33 408h75v292h284q92 0 156.5 -35t97.5 -97t33 -143v-150q0 -81 -33 -143t-97.5 -97t-156.5 -35h-284v292h-75v116zM540 426q0 77 -44 118.5t-128 41.5h-121v-178h152v-116h-152v-178h121q84 0 128 41.5t44 118.5v152z" />
    <glyph glyph-name="dcroat" unicode="&#x111;" horiz-adv-x="621" 
d="M145.5 19q-49.5 31 -75.5 83.5t-26 114.5v86q0 63 25.5 115.5t75 83t117.5 30.5q50 0 88 -18.5t61 -49.5v102h-100v93h100v71h136v-71h59v-93h-59v-566h-130v62q-21 -32 -61 -53t-93 -21q-68 0 -117.5 31zM379 133q32 35 32 90v76q0 57 -32.5 90t-81.5 33
q-56 0 -86.5 -34.5t-30.5 -90.5v-74q0 -55 29.5 -90t86.5 -35q51 0 83 35z" />
    <glyph glyph-name="Emacron" unicode="&#x112;" horiz-adv-x="618" 
d="M77 700h490v-116h-350v-171h320v-117h-320v-180h351v-116h-491v700zM136 881h376v-109h-376v109z" />
    <glyph glyph-name="emacron" unicode="&#x113;" horiz-adv-x="560" 
d="M109.5 49.5q-65.5 61.5 -65.5 170.5v71q0 109 63 175t177 66q74 0 126.5 -30.5t79 -82t26.5 -115.5v-91h-340v-13q0 -50 27 -82t83 -32q41 0 69 18.5t38 47.5h119q-9 -47 -41 -84.5t-80 -58.5t-105 -21q-111 0 -176.5 61.5zM176 309h215v13q0 51 -27 82.5t-80 31.5
q-56 0 -82 -33t-26 -89v-5zM116 706h340v-107h-340v107z" />
    <glyph glyph-name="Ebreve" unicode="&#x114;" horiz-adv-x="618" 
d="M77 700h490v-116h-350v-171h320v-117h-320v-180h351v-116h-491v700zM207 790.5q-51 37.5 -51 103.5h106q0 -27 20 -44t54 -17t54 17t20 44h106q0 -66 -51 -103.5t-129 -37.5t-129 37.5z" />
    <glyph glyph-name="ebreve" unicode="&#x115;" horiz-adv-x="560" 
d="M109.5 49.5q-65.5 61.5 -65.5 170.5v71q0 109 63 175t177 66q74 0 126.5 -30.5t79 -82t26.5 -115.5v-91h-340v-13q0 -50 27 -82t83 -32q41 0 69 18.5t38 47.5h119q-9 -47 -41 -84.5t-80 -58.5t-105 -21q-111 0 -176.5 61.5zM176 309h215v13q0 51 -27 82.5t-80 31.5
q-56 0 -82 -33t-26 -89v-5zM163.5 620q-48.5 41 -48.5 113h100q0 -33 20.5 -53t56.5 -20t56.5 20t20.5 53h100q0 -72 -48.5 -113t-128.5 -41t-128.5 41z" />
    <glyph glyph-name="Edotaccent" unicode="&#x116;" horiz-adv-x="618" 
d="M77 700h490v-116h-350v-171h320v-117h-320v-180h351v-116h-491v700zM272.5 888.5q22.5 22.5 56.5 22.5t56.5 -22.5t22.5 -56.5t-22.5 -56.5t-56.5 -22.5t-56.5 22.5t-22.5 56.5t22.5 56.5z" />
    <glyph glyph-name="edotaccent" unicode="&#x117;" horiz-adv-x="560" 
d="M109.5 49.5q-65.5 61.5 -65.5 170.5v71q0 109 63 175t177 66q74 0 126.5 -30.5t79 -82t26.5 -115.5v-91h-340v-13q0 -50 27 -82t83 -32q41 0 69 18.5t38 47.5h119q-9 -47 -41 -84.5t-80 -58.5t-105 -21q-111 0 -176.5 61.5zM176 309h215v13q0 51 -27 82.5t-80 31.5
q-56 0 -82 -33t-26 -89v-5zM224.5 714.5q22.5 22.5 56.5 22.5t56.5 -22.5t22.5 -56.5t-22.5 -56.5t-56.5 -22.5t-56.5 22.5t-22.5 56.5t22.5 56.5z" />
    <glyph glyph-name="Eogonek" unicode="&#x118;" horiz-adv-x="618" 
d="M77 700h490v-116h-350v-171h320v-117h-320v-180h351v-116q-23 -14 -42 -34.5t-19 -44.5q0 -28 34 -28q14 0 25 3v-72q-38 -10 -78 -10q-49 0 -76 23.5t-27 64.5q0 60 52 98h-360v700z" />
    <glyph glyph-name="eogonek" unicode="&#x119;" horiz-adv-x="560" 
d="M109.5 49.5q-65.5 61.5 -65.5 170.5v71q0 109 63 175t177 66q74 0 126.5 -30.5t79 -82t26.5 -115.5v-91h-340v-13q0 -50 27 -82t83 -32q41 0 69 18.5t38 47.5h119q-6 -29 -21.5 -54t-39.5 -51q-43 -45 -61 -73.5t-18 -52.5q0 -28 34 -28q15 0 25 3v-72q-38 -10 -78 -10
q-49 0 -76 22t-27 63q0 27 17.5 50.5t41.5 39.5q-6 -1 -23 -1q-111 0 -176.5 61.5zM176 309h215v13q0 51 -27 82.5t-80 31.5q-56 0 -82 -33t-26 -89v-5z" />
    <glyph glyph-name="Ecaron" unicode="&#x11a;" horiz-adv-x="618" 
d="M77 700h490v-116h-350v-171h320v-117h-320v-180h351v-116h-491v700zM404 753h-134l-118 141h131l54 -67l54 67h131z" />
    <glyph glyph-name="ecaron" unicode="&#x11b;" horiz-adv-x="560" 
d="M109.5 49.5q-65.5 61.5 -65.5 170.5v71q0 109 63 175t177 66q74 0 126.5 -30.5t79 -82t26.5 -115.5v-91h-340v-13q0 -50 27 -82t83 -32q41 0 69 18.5t38 47.5h119q-9 -47 -41 -84.5t-80 -58.5t-105 -21q-111 0 -176.5 61.5zM176 309h215v13q0 51 -27 82.5t-80 31.5
q-56 0 -82 -33t-26 -89v-5zM355 579h-132l-112 154h124l54 -77l54 77h124z" />
    <glyph glyph-name="Gcircumflex" unicode="&#x11c;" horiz-adv-x="715" 
d="M519 462q-2 58 -43 97.5t-113 39.5q-83 0 -125.5 -51t-42.5 -141v-110q0 -93 41 -146t128 -53q74 0 116 40t42 100v10h-157v114h294v-91q0 -83 -37 -148t-104 -101t-156 -36q-101 0 -169.5 41.5t-102.5 112.5t-34 160v102q0 94 36 164.5t104.5 109t162.5 38.5
q88 0 154 -32.5t101.5 -89.5t37.5 -130h-133zM549 753h-131l-54 67l-54 -67h-131l118 141h134z" />
    <glyph glyph-name="gcircumflex" unicode="&#x11d;" horiz-adv-x="610" 
d="M132.5 -144.5q-67.5 41.5 -82.5 113.5h132q26 -52 112 -52q52 0 82.5 26t30.5 70v82q-18 -29 -59.5 -50t-89.5 -21q-67 0 -115.5 29.5t-73.5 79t-25 107.5v76q0 59 24.5 108.5t73.5 78.5t117 29q56 0 97.5 -23t56.5 -52v63h130v-509q0 -55 -32 -100t-89 -71t-128 -26
q-94 0 -161.5 41.5zM373.5 163.5q33.5 30.5 33.5 83.5v60q0 52 -32 84t-81 32q-56 0 -85.5 -31t-29.5 -85v-60q0 -51 28.5 -82.5t82.5 -31.5q50 0 83.5 30.5zM492 579h-124l-54 77l-54 -77h-124l112 154h132z" />
    <glyph glyph-name="Gbreve" unicode="&#x11e;" horiz-adv-x="715" 
d="M519 462q-2 58 -43 97.5t-113 39.5q-83 0 -125.5 -51t-42.5 -141v-110q0 -93 41 -146t128 -53q74 0 116 40t42 100v10h-157v114h294v-91q0 -83 -37 -148t-104 -101t-156 -36q-101 0 -169.5 41.5t-102.5 112.5t-34 160v102q0 94 36 164.5t104.5 109t162.5 38.5
q88 0 154 -32.5t101.5 -89.5t37.5 -130h-133zM236 790.5q-51 37.5 -51 103.5h106q0 -27 20 -44t54 -17t54 17t20 44h106q0 -66 -51 -103.5t-129 -37.5t-129 37.5z" />
    <glyph glyph-name="gbreve" unicode="&#x11f;" horiz-adv-x="610" 
d="M132.5 -144.5q-67.5 41.5 -82.5 113.5h132q26 -52 112 -52q52 0 82.5 26t30.5 70v82q-18 -29 -59.5 -50t-89.5 -21q-67 0 -115.5 29.5t-73.5 79t-25 107.5v76q0 59 24.5 108.5t73.5 78.5t117 29q56 0 97.5 -23t56.5 -52v63h130v-509q0 -55 -32 -100t-89 -71t-128 -26
q-94 0 -161.5 41.5zM373.5 163.5q33.5 30.5 33.5 83.5v60q0 52 -32 84t-81 32q-56 0 -85.5 -31t-29.5 -85v-60q0 -51 28.5 -82.5t82.5 -31.5q50 0 83.5 30.5zM175.5 620q-48.5 41 -48.5 113h100q0 -33 20.5 -53t56.5 -20t56.5 20t20.5 53h100q0 -72 -48.5 -113t-128.5 -41
t-128.5 41z" />
    <glyph glyph-name="Gdotaccent" unicode="&#x120;" horiz-adv-x="715" 
d="M519 462q-2 58 -43 97.5t-113 39.5q-83 0 -125.5 -51t-42.5 -141v-110q0 -93 41 -146t128 -53q74 0 116 40t42 100v10h-157v114h294v-91q0 -83 -37 -148t-104 -101t-156 -36q-101 0 -169.5 41.5t-102.5 112.5t-34 160v102q0 94 36 164.5t104.5 109t162.5 38.5
q88 0 154 -32.5t101.5 -89.5t37.5 -130h-133zM302.5 888.5q22.5 22.5 56.5 22.5t56.5 -22.5t22.5 -56.5t-22.5 -56.5t-56.5 -22.5t-56.5 22.5t-22.5 56.5t22.5 56.5z" />
    <glyph glyph-name="gdotaccent" unicode="&#x121;" horiz-adv-x="610" 
d="M132.5 -144.5q-67.5 41.5 -82.5 113.5h132q26 -52 112 -52q52 0 82.5 26t30.5 70v82q-18 -29 -59.5 -50t-89.5 -21q-67 0 -115.5 29.5t-73.5 79t-25 107.5v76q0 59 24.5 108.5t73.5 78.5t117 29q56 0 97.5 -23t56.5 -52v63h130v-509q0 -55 -32 -100t-89 -71t-128 -26
q-94 0 -161.5 41.5zM373.5 163.5q33.5 30.5 33.5 83.5v60q0 52 -32 84t-81 32q-56 0 -85.5 -31t-29.5 -85v-60q0 -51 28.5 -82.5t82.5 -31.5q50 0 83.5 30.5zM244.5 714.5q22.5 22.5 56.5 22.5t56.5 -22.5t22.5 -56.5t-22.5 -56.5t-56.5 -22.5t-56.5 22.5t-22.5 56.5
t22.5 56.5z" />
    <glyph glyph-name="uni0122" unicode="&#x122;" horiz-adv-x="715" 
d="M519 462q-2 58 -43 97.5t-113 39.5q-83 0 -125.5 -51t-42.5 -141v-110q0 -93 41 -146t128 -53q74 0 116 40t42 100v10h-157v114h294v-91q0 -83 -37 -148t-104 -101t-156 -36q-101 0 -169.5 41.5t-102.5 112.5t-34 160v102q0 94 36 164.5t104.5 109t162.5 38.5
q88 0 154 -32.5t101.5 -89.5t37.5 -130h-133zM290 -73h154l-70 -177h-115z" />
    <glyph glyph-name="uni0123" unicode="&#x123;" horiz-adv-x="610" 
d="M132.5 -144.5q-67.5 41.5 -82.5 113.5h132q26 -52 112 -52q52 0 82.5 26t30.5 70v82q-18 -29 -59.5 -50t-89.5 -21q-67 0 -115.5 29.5t-73.5 79t-25 107.5v76q0 59 24.5 108.5t73.5 78.5t117 29q56 0 97.5 -23t56.5 -52v63h130v-509q0 -55 -32 -100t-89 -71t-128 -26
q-94 0 -161.5 41.5zM373.5 163.5q33.5 30.5 33.5 83.5v60q0 52 -32 84t-81 32q-56 0 -85.5 -31t-29.5 -85v-60q0 -51 28.5 -82.5t82.5 -31.5q50 0 83.5 30.5zM298 733h134l-40 -154h-168z" />
    <glyph glyph-name="Hcircumflex" unicode="&#x124;" horiz-adv-x="721" 
d="M77 700h140v-287h287v287h140v-700h-140v289h-287v-289h-140v700zM545 753h-131l-54 67l-54 -67h-131l118 141h134z" />
    <glyph glyph-name="hcircumflex" unicode="&#x125;" horiz-adv-x="596" 
d="M67 730h136v-272q21 34 59.5 54t87.5 20q85 0 134.5 -53.5t49.5 -145.5v-333h-136v311q0 47 -23.5 75t-71.5 28q-47 0 -73.5 -27t-26.5 -79v-308h-136v730zM323 783h-131l-54 67l-54 -67h-131l118 141h134z" />
    <glyph glyph-name="Hbar" unicode="&#x126;" horiz-adv-x="787" 
d="M34 591h76v109h140v-109h287v109h140v-109h76v-85h-76v-506h-140v289h-287v-289h-140v506h-76v85zM537 413v93h-287v-93h287z" />
    <glyph glyph-name="hbar" unicode="&#x127;" horiz-adv-x="603" 
d="M15 659h59v71h136v-71h100v-93h-100v-108q21 34 59.5 54t87.5 20q85 0 134.5 -53.5t49.5 -145.5v-333h-136v311q0 47 -23.5 75t-71.5 28q-47 0 -73.5 -27t-26.5 -79v-308h-136v566h-59v93z" />
    <glyph glyph-name="Itilde" unicode="&#x128;" horiz-adv-x="546" 
d="M57 0v110h146v480h-142v110h424v-110h-142v-480h146v-110h-432zM59 769q13 68 38.5 99t81.5 31q25 0 53.5 -7t69.5 -20q4 -1 27 -8t34 -7q19 0 26.5 11t16.5 36l89 -25q-13 -46 -25.5 -71t-34.5 -39.5t-58 -14.5q-16 0 -42 6.5t-51 14.5q-67 21 -92 21q-18 0 -27.5 -12
t-15.5 -35z" />
    <glyph glyph-name="itilde" unicode="&#x129;" horiz-adv-x="276" 
d="M70 520h136v-520h-136v520zM-62 598q9 62 34.5 95.5t79.5 33.5q19 0 41 -6.5t58 -19.5q45 -17 60 -17q18 0 25.5 11t16.5 36l84 -26q-12 -41 -23.5 -66t-33 -41t-55.5 -16q-16 0 -35 5.5t-49 16.5q-53 21 -77 21q-18 0 -25.5 -11t-15.5 -37z" />
    <glyph glyph-name="Imacron" unicode="&#x12a;" horiz-adv-x="546" 
d="M57 0v110h146v480h-142v110h424v-110h-142v-480h146v-110h-432zM85 881h376v-109h-376v109z" />
    <glyph glyph-name="imacron" unicode="&#x12b;" horiz-adv-x="276" 
d="M70 520h136v-520h-136v520zM-32 706h340v-107h-340v107z" />
    <glyph glyph-name="Ibreve" unicode="&#x12c;" horiz-adv-x="546" 
d="M57 0v110h146v480h-142v110h424v-110h-142v-480h146v-110h-432zM144 790.5q-51 37.5 -51 103.5h106q0 -27 20 -44t54 -17t54 17t20 44h106q0 -66 -51 -103.5t-129 -37.5t-129 37.5z" />
    <glyph glyph-name="ibreve" unicode="&#x12d;" horiz-adv-x="276" 
d="M70 520h136v-520h-136v520zM9.5 620q-48.5 41 -48.5 113h100q0 -33 20.5 -53t56.5 -20t56.5 20t20.5 53h100q0 -72 -48.5 -113t-128.5 -41t-128.5 41z" />
    <glyph glyph-name="Iogonek" unicode="&#x12e;" horiz-adv-x="546" 
d="M57 0v110h146v480h-142v110h424v-110h-142v-480h146v-110q-23 -14 -42 -34.5t-19 -44.5q0 -28 34 -28q15 0 25 3v-72q-38 -10 -78 -10q-49 0 -76 23.5t-27 64.5q0 35 19.5 59.5t47.5 38.5h-316z" />
    <glyph glyph-name="iogonek" unicode="&#x12f;" horiz-adv-x="276" 
d="M81.5 712.5q22.5 22.5 56.5 22.5t56.5 -22.5t22.5 -56.5t-22.5 -56.5t-56.5 -22.5t-56.5 22.5t-22.5 56.5t22.5 56.5zM63 -161.5q-29 24.5 -29 67.5q0 30 9.5 52t26.5 42v520h136v-520q-23 -21 -36.5 -38t-13.5 -39q0 -15 8 -22.5t23 -7.5q7 0 17 2v-74q-30 -7 -62 -7
q-50 0 -79 24.5z" />
    <glyph glyph-name="Idotaccent" unicode="&#x130;" horiz-adv-x="546" 
d="M57 0v110h146v480h-142v110h424v-110h-142v-480h146v-110h-432zM216.5 888.5q22.5 22.5 56.5 22.5t56.5 -22.5t22.5 -56.5t-22.5 -56.5t-56.5 -22.5t-56.5 22.5t-22.5 56.5t22.5 56.5z" />
    <glyph glyph-name="dotlessi" unicode="&#x131;" horiz-adv-x="276" 
d="M70 520h136v-520h-136v520z" />
    <glyph glyph-name="IJ" unicode="&#x132;" horiz-adv-x="1154" 
d="M57 0v110h146v480h-142v110h424v-110h-142v-480h146v-110h-432zM648.5 45q-66.5 59 -66.5 160v10h133v-9q0 -48 30 -76t84 -28t82.5 28t28.5 76v494h140v-494q0 -64 -31.5 -114t-88.5 -78t-131 -28q-114 0 -180.5 59z" />
    <glyph glyph-name="ij" unicode="&#x133;" horiz-adv-x="552" 
d="M87.5 712.5q22.5 22.5 56.5 22.5t56.5 -22.5t22.5 -56.5t-22.5 -56.5t-56.5 -22.5t-56.5 22.5t-22.5 56.5t22.5 56.5zM76 520h136v-520h-136v520zM357.5 712.5q22.5 22.5 56.5 22.5t56.5 -22.5t22.5 -56.5t-22.5 -56.5t-56.5 -22.5t-56.5 22.5t-22.5 56.5t22.5 56.5z
M275 -69h31q21 0 30.5 7.5t9.5 26.5v555h136v-567q0 -62 -33.5 -94.5t-101.5 -32.5h-72v105z" />
    <glyph glyph-name="Jcircumflex" unicode="&#x134;" horiz-adv-x="608" 
d="M102.5 45q-66.5 59 -66.5 160v10h133v-9q0 -48 30 -76t84 -28t82.5 28t28.5 76v494h140v-494q0 -64 -31.5 -114t-88.5 -78t-131 -28q-114 0 -180.5 59zM647 753h-131l-54 67l-54 -67h-131l118 141h134z" />
    <glyph glyph-name="jcircumflex" unicode="&#x135;" horiz-adv-x="276" 
d="M316 579h-124l-54 77l-54 -77h-124l112 154h132zM-1 -69h31q21 0 30.5 7.5t9.5 26.5v555h136v-567q0 -62 -33.5 -94.5t-101.5 -32.5h-72v105z" />
    <glyph glyph-name="uni0136" unicode="&#x136;" horiz-adv-x="651" 
d="M77 700h140v-336l247 336h163l-263 -347l271 -353h-165l-253 343v-343h-140v700zM262 -73h154l-70 -177h-115z" />
    <glyph glyph-name="uni0137" unicode="&#x137;" horiz-adv-x="544" 
d="M67 730h136v-452l165 242h155l-179 -254l185 -266h-155l-171 254v-254h-136v730zM213 -73h154l-70 -177h-115z" />
    <glyph glyph-name="kgreenlandic" unicode="&#x138;" horiz-adv-x="544" 
d="M67 520h136v-242l165 242h155l-179 -254l185 -266h-155l-171 254v-254h-136v520z" />
    <glyph glyph-name="Lacute" unicode="&#x139;" 
d="M77 700h140v-584h322v-116h-462v700zM154 894h167l-98 -141h-138z" />
    <glyph glyph-name="lacute" unicode="&#x13a;" horiz-adv-x="276" 
d="M70 730h136v-730h-136v730zM143 924h167l-98 -141h-138z" />
    <glyph glyph-name="uni013B" unicode="&#x13b;" 
d="M77 700h140v-584h322v-116h-462v700zM238 -73h154l-70 -177h-115z" />
    <glyph glyph-name="uni013C" unicode="&#x13c;" horiz-adv-x="276" 
d="M70 730h136v-730h-136v730zM58 -73h154l-70 -177h-115z" />
    <glyph glyph-name="Lcaron" unicode="&#x13d;" 
d="M366 700h148l-78 -223h-110zM77 700h140v-584h322v-116h-462v700z" />
    <glyph glyph-name="lcaron" unicode="&#x13e;" horiz-adv-x="455" 
d="M322 730h148l-78 -223h-110zM72 730h136v-730h-136v730z" />
    <glyph glyph-name="Ldot" unicode="&#x13f;" 
d="M77 700h140v-584h322v-116h-462v700zM328.5 402.5q21.5 21.5 56.5 21.5t56.5 -21.5t21.5 -56.5t-21.5 -56.5t-56.5 -21.5t-56.5 21.5t-21.5 56.5t21.5 56.5z" />
    <glyph glyph-name="ldot" unicode="&#x140;" horiz-adv-x="454" 
d="M72 730h136v-730h-136v730zM294.5 349.5q21.5 21.5 56.5 21.5t56.5 -21.5t21.5 -56.5t-21.5 -56.5t-56.5 -21.5t-56.5 21.5t-21.5 56.5t21.5 56.5z" />
    <glyph glyph-name="Lslash" unicode="&#x141;" horiz-adv-x="594" 
d="M20 322l71 42v336h140v-251l135 81v-124l-135 -81v-209h322v-116h-462v240l-71 -42v124z" />
    <glyph glyph-name="lslash" unicode="&#x142;" horiz-adv-x="293" 
d="M24 330l49 40v360h136v-249l60 49v-133l-60 -49v-348h-136v237l-49 -40v133z" />
    <glyph glyph-name="Nacute" unicode="&#x143;" horiz-adv-x="729" 
d="M77 700h133l305 -466v466h137v-700h-133l-305 466v-466h-137v700zM356 894h167l-98 -141h-138z" />
    <glyph glyph-name="nacute" unicode="&#x144;" horiz-adv-x="596" 
d="M67 520h130v-62q20 36 59 55t94 19q85 0 134.5 -53t49.5 -146v-333h-136v311q0 47 -23.5 75t-71.5 28q-47 0 -73.5 -27t-26.5 -79v-308h-136v520zM306 733h168l-106 -154h-135z" />
    <glyph glyph-name="uni0145" unicode="&#x145;" horiz-adv-x="729" 
d="M77 700h133l305 -466v466h137v-700h-133l-305 466v-466h-137v700zM295 -73h154l-70 -177h-115z" />
    <glyph glyph-name="uni0146" unicode="&#x146;" horiz-adv-x="596" 
d="M67 520h130v-62q20 36 59 55t94 19q85 0 134.5 -53t49.5 -146v-333h-136v311q0 47 -23.5 75t-71.5 28q-47 0 -73.5 -27t-26.5 -79v-308h-136v520zM229 -73h154l-70 -177h-115z" />
    <glyph glyph-name="Ncaron" unicode="&#x147;" horiz-adv-x="729" 
d="M77 700h133l305 -466v466h137v-700h-133l-305 466v-466h-137v700zM432 753h-134l-118 141h131l54 -67l54 67h131z" />
    <glyph glyph-name="ncaron" unicode="&#x148;" horiz-adv-x="596" 
d="M67 520h130v-62q20 36 59 55t94 19q85 0 134.5 -53t49.5 -146v-333h-136v311q0 47 -23.5 75t-71.5 28q-47 0 -73.5 -27t-26.5 -79v-308h-136v520zM366 579h-132l-112 154h124l54 -77l54 77h124z" />
    <glyph glyph-name="napostrophe" unicode="&#x149;" horiz-adv-x="732" 
d="M40 730h148l-78 -223h-110zM203 520h130v-62q20 36 59 55t94 19q85 0 134.5 -53t49.5 -146v-333h-136v311q0 47 -23.5 75t-71.5 28q-47 0 -73.5 -27t-26.5 -79v-308h-136v520z" />
    <glyph glyph-name="Eng" unicode="&#x14a;" horiz-adv-x="729" 
d="M77 700h133l305 -466v466h137v-703q0 -87 -43.5 -129t-145.5 -42h-57v108h42q36 0 51.5 14t15.5 46v12l-301 460v-466h-137v700z" />
    <glyph glyph-name="eng" unicode="&#x14b;" horiz-adv-x="596" 
d="M67 520h130v-62q20 36 59 55t94 19q85 0 134.5 -53t49.5 -146v-345q0 -81 -43.5 -121.5t-141.5 -40.5h-52v105h37q31 0 47.5 16t16.5 46v318q0 47 -23.5 75t-71.5 28q-47 0 -73.5 -27t-26.5 -79v-308h-136v520z" />
    <glyph glyph-name="Omacron" unicode="&#x14c;" horiz-adv-x="736" 
d="M680 299q0 -90 -35.5 -161t-106 -111.5t-170.5 -40.5t-170 40.5t-106 111.5t-36 161v102q0 90 36 161t106 111.5t170 40.5t170.5 -40.5t106 -111.5t35.5 -161v-102zM496.5 153.5q43.5 51.5 43.5 138.5v116q0 87 -43.5 138.5t-128.5 51.5t-128.5 -51.5t-43.5 -138.5v-116
q0 -87 43.5 -138.5t128.5 -51.5t128.5 51.5zM180 881h376v-109h-376v109z" />
    <glyph glyph-name="omacron" unicode="&#x14d;" horiz-adv-x="578" 
d="M119 706h340v-107h-340v107zM157.5 18.5q-55.5 30.5 -84.5 84t-29 120.5v74q0 67 29 120.5t84.5 84t131.5 30.5t131.5 -30.5t84.5 -84t29 -120.5v-74q0 -67 -29 -120.5t-84.5 -84t-131.5 -30.5t-131.5 30.5zM402 306q0 53 -28.5 86t-84.5 33t-84.5 -33t-28.5 -86v-92
q0 -53 28.5 -86t84.5 -33t84.5 33t28.5 86v92z" />
    <glyph glyph-name="Obreve" unicode="&#x14e;" horiz-adv-x="736" 
d="M680 299q0 -90 -35.5 -161t-106 -111.5t-170.5 -40.5t-170 40.5t-106 111.5t-36 161v102q0 90 36 161t106 111.5t170 40.5t170.5 -40.5t106 -111.5t35.5 -161v-102zM496.5 153.5q43.5 51.5 43.5 138.5v116q0 87 -43.5 138.5t-128.5 51.5t-128.5 -51.5t-43.5 -138.5v-116
q0 -87 43.5 -138.5t128.5 -51.5t128.5 51.5zM240 790.5q-51 37.5 -51 103.5h106q0 -27 20 -44t54 -17t54 17t20 44h106q0 -66 -51 -103.5t-129 -37.5t-129 37.5z" />
    <glyph glyph-name="obreve" unicode="&#x14f;" horiz-adv-x="578" 
d="M157.5 18.5q-55.5 30.5 -84.5 84t-29 120.5v74q0 67 29 120.5t84.5 84t131.5 30.5t131.5 -30.5t84.5 -84t29 -120.5v-74q0 -67 -29 -120.5t-84.5 -84t-131.5 -30.5t-131.5 30.5zM402 306q0 53 -28.5 86t-84.5 33t-84.5 -33t-28.5 -86v-92q0 -53 28.5 -86t84.5 -33
t84.5 33t28.5 86v92zM160.5 620q-48.5 41 -48.5 113h100q0 -33 20.5 -53t56.5 -20t56.5 20t20.5 53h100q0 -72 -48.5 -113t-128.5 -41t-128.5 41z" />
    <glyph glyph-name="Ohungarumlaut" unicode="&#x150;" horiz-adv-x="736" 
d="M259 894h144l-64 -141h-123zM468 894h144l-64 -141h-123zM680 299q0 -90 -35.5 -161t-106 -111.5t-170.5 -40.5t-170 40.5t-106 111.5t-36 161v102q0 90 36 161t106 111.5t170 40.5t170.5 -40.5t106 -111.5t35.5 -161v-102zM496.5 153.5q43.5 51.5 43.5 138.5v116
q0 87 -43.5 138.5t-128.5 51.5t-128.5 -51.5t-43.5 -138.5v-116q0 -87 43.5 -138.5t128.5 -51.5t128.5 51.5z" />
    <glyph glyph-name="ohungarumlaut" unicode="&#x151;" horiz-adv-x="578" 
d="M186 733h147l-73 -154h-124zM387 733h147l-73 -154h-124zM157.5 18.5q-55.5 30.5 -84.5 84t-29 120.5v74q0 67 29 120.5t84.5 84t131.5 30.5t131.5 -30.5t84.5 -84t29 -120.5v-74q0 -67 -29 -120.5t-84.5 -84t-131.5 -30.5t-131.5 30.5zM402 306q0 53 -28.5 86t-84.5 33
t-84.5 -33t-28.5 -86v-92q0 -53 28.5 -86t84.5 -33t84.5 33t28.5 86v92z" />
    <glyph glyph-name="OE" unicode="&#x152;" horiz-adv-x="1064" 
d="M139.5 85q-83.5 85 -83.5 232v66q0 147 83.5 232t241.5 85h632v-116h-350v-171h320v-117h-320v-180h351v-116h-633q-158 0 -241.5 85zM241.5 168q46.5 -52 140.5 -52h141v468h-141q-94 0 -140.5 -52t-46.5 -143v-78q0 -91 46.5 -143z" />
    <glyph glyph-name="oe" unicode="&#x153;" horiz-adv-x="926" 
d="M156.5 18.5q-55.5 30.5 -84 84t-28.5 120.5v74q0 67 29 120.5t84.5 84t131.5 30.5q55 0 97.5 -17t79.5 -51q63 68 176 68q74 0 126.5 -30.5t79 -82t26.5 -115.5v-91h-340v-13q0 -50 27 -82t83 -32q41 0 69 18.5t38 47.5h119q-9 -47 -41 -84.5t-80 -58.5t-105 -21
q-56 0 -103.5 18t-75.5 49q-26 -28 -74 -47.5t-102 -19.5q-77 0 -132.5 30.5zM534 309h215v13q0 51 -27 82.5t-80 31.5q-56 0 -82 -33t-26 -89v-5zM402 306q0 53 -28.5 86t-84.5 33t-84.5 -33t-28.5 -86v-92q0 -53 28.5 -86t84.5 -33t84.5 33t28.5 86v92z" />
    <glyph glyph-name="Racute" unicode="&#x154;" horiz-adv-x="698" 
d="M364 224h-147v-224h-140v700h316q80 0 137 -30.5t86.5 -84.5t29.5 -123q0 -74 -36.5 -131t-101.5 -85l146 -246h-162zM376 337q63 0 96.5 34.5t33.5 91.5t-33.5 90t-96.5 33h-159v-249h159zM318 894h167l-98 -141h-138z" />
    <glyph glyph-name="racute" unicode="&#x155;" horiz-adv-x="394" 
d="M67 520h129v-101q23 105 156 105h16v-135h-28q-68 0 -102.5 -36t-34.5 -113v-240h-136v520zM214 733h168l-106 -154h-135z" />
    <glyph glyph-name="uni0156" unicode="&#x156;" horiz-adv-x="698" 
d="M364 224h-147v-224h-140v700h316q80 0 137 -30.5t86.5 -84.5t29.5 -123q0 -74 -36.5 -131t-101.5 -85l146 -246h-162zM376 337q63 0 96.5 34.5t33.5 91.5t-33.5 90t-96.5 33h-159v-249h159zM275 -73h154l-70 -177h-115z" />
    <glyph glyph-name="uni0157" unicode="&#x157;" horiz-adv-x="394" 
d="M67 520h129v-101q23 105 156 105h16v-135h-28q-68 0 -102.5 -36t-34.5 -113v-240h-136v520zM54 -73h154l-70 -177h-115z" />
    <glyph glyph-name="Rcaron" unicode="&#x158;" horiz-adv-x="698" 
d="M364 224h-147v-224h-140v700h316q80 0 137 -30.5t86.5 -84.5t29.5 -123q0 -74 -36.5 -131t-101.5 -85l146 -246h-162zM376 337q63 0 96.5 34.5t33.5 91.5t-33.5 90t-96.5 33h-159v-249h159zM401 753h-134l-118 141h131l54 -67l54 67h131z" />
    <glyph glyph-name="rcaron" unicode="&#x159;" horiz-adv-x="394" 
d="M67 520h129v-101q23 105 156 105h16v-135h-28q-68 0 -102.5 -36t-34.5 -113v-240h-136v520zM295 579h-132l-112 154h124l54 -77l54 77h124z" />
    <glyph glyph-name="Sacute" unicode="&#x15a;" horiz-adv-x="654" 
d="M129.5 43.5q-74.5 57.5 -74.5 159.5v18h134v-15q0 -50 38 -81t107 -31q63 0 100 27t37 75q0 62 -66 79l-183 47q-81 21 -118.5 62.5t-37.5 118.5q0 98 69.5 154.5t187.5 56.5q76 0 133.5 -26.5t88.5 -74t31 -108.5v-17h-129v14q0 47 -31 75.5t-93 28.5q-57 0 -89.5 -23
t-32.5 -68q0 -59 60 -74l192 -51q153 -40 153 -183q0 -65 -36 -115.5t-99 -78t-142 -27.5q-125 0 -199.5 57.5zM321 894h167l-98 -141h-138z" />
    <glyph glyph-name="sacute" unicode="&#x15b;" horiz-adv-x="531" 
d="M106 30.5q-61 42.5 -61 123.5v9h120v-7q0 -34 28.5 -53t76.5 -19q44 0 71.5 17t27.5 46q0 19 -10.5 30.5t-32.5 16.5l-154 35q-60 14 -89.5 46.5t-29.5 90.5q0 79 57.5 122.5t152.5 43.5q94 0 150 -44.5t56 -121.5v-8h-119v9q0 32 -21 50t-64 18q-41 0 -63 -14.5
t-22 -42.5q0 -19 9.5 -29t30.5 -15l158 -39q59 -14 87.5 -46.5t28.5 -86.5q0 -50 -29.5 -89.5t-80.5 -62t-115 -22.5q-102 0 -163 42.5zM269 733h168l-106 -154h-135z" />
    <glyph glyph-name="Scircumflex" unicode="&#x15c;" horiz-adv-x="654" 
d="M129.5 43.5q-74.5 57.5 -74.5 159.5v18h134v-15q0 -50 38 -81t107 -31q63 0 100 27t37 75q0 62 -66 79l-183 47q-81 21 -118.5 62.5t-37.5 118.5q0 98 69.5 154.5t187.5 56.5q76 0 133.5 -26.5t88.5 -74t31 -108.5v-17h-129v14q0 47 -31 75.5t-93 28.5q-57 0 -89.5 -23
t-32.5 -68q0 -59 60 -74l192 -51q153 -40 153 -183q0 -65 -36 -115.5t-99 -78t-142 -27.5q-125 0 -199.5 57.5zM518 753h-131l-54 67l-54 -67h-131l118 141h134z" />
    <glyph glyph-name="scircumflex" unicode="&#x15d;" horiz-adv-x="531" 
d="M106 30.5q-61 42.5 -61 123.5v9h120v-7q0 -34 28.5 -53t76.5 -19q44 0 71.5 17t27.5 46q0 19 -10.5 30.5t-32.5 16.5l-154 35q-60 14 -89.5 46.5t-29.5 90.5q0 79 57.5 122.5t152.5 43.5q94 0 150 -44.5t56 -121.5v-8h-119v9q0 32 -21 50t-64 18q-41 0 -63 -14.5
t-22 -42.5q0 -19 9.5 -29t30.5 -15l158 -39q59 -14 87.5 -46.5t28.5 -86.5q0 -50 -29.5 -89.5t-80.5 -62t-115 -22.5q-102 0 -163 42.5zM450 579h-124l-54 77l-54 -77h-124l112 154h132z" />
    <glyph glyph-name="Scedilla" unicode="&#x15e;" horiz-adv-x="654" 
d="M261 -180v55q23 -5 47 -5q40 0 40 22q0 20 -37 23l-36 3l16 70q-109 8 -172.5 65t-63.5 150v18h134v-15q0 -50 38 -81t107 -31q63 0 100 27t37 75q0 62 -66 79l-183 47q-81 21 -118.5 62.5t-37.5 118.5q0 98 69.5 154.5t187.5 56.5q76 0 133.5 -26.5t88.5 -74t31 -108.5
v-17h-129v14q0 47 -31 75.5t-93 28.5q-57 0 -89.5 -23t-32.5 -68q0 -59 60 -74l192 -51q153 -40 153 -183q0 -61 -32 -109.5t-89 -77t-129 -33.5l-4 -23l16 -2q77 -10 77 -69q0 -36 -30 -57.5t-83 -21.5q-44 0 -71 6z" />
    <glyph glyph-name="Scedilla" unicode="&#xf6c1;" horiz-adv-x="654" 
d="M261 -180v55q23 -5 47 -5q40 0 40 22q0 20 -37 23l-36 3l16 70q-109 8 -172.5 65t-63.5 150v18h134v-15q0 -50 38 -81t107 -31q63 0 100 27t37 75q0 62 -66 79l-183 47q-81 21 -118.5 62.5t-37.5 118.5q0 98 69.5 154.5t187.5 56.5q76 0 133.5 -26.5t88.5 -74t31 -108.5
v-17h-129v14q0 47 -31 75.5t-93 28.5q-57 0 -89.5 -23t-32.5 -68q0 -59 60 -74l192 -51q153 -40 153 -183q0 -61 -32 -109.5t-89 -77t-129 -33.5l-4 -23l16 -2q77 -10 77 -69q0 -36 -30 -57.5t-83 -21.5q-44 0 -71 6z" />
    <glyph glyph-name="scedilla" unicode="&#x15f;" horiz-adv-x="531" 
d="M203 -180v55q23 -5 47 -5q40 0 40 22q0 20 -37 23l-36 3l16 72q-87 7 -137.5 48.5t-50.5 115.5v9h120v-7q0 -34 28.5 -53t76.5 -19q44 0 71.5 17t27.5 46q0 19 -10.5 30.5t-32.5 16.5l-154 35q-60 14 -89.5 46.5t-29.5 90.5q0 79 57.5 122.5t152.5 43.5q94 0 150 -44.5
t56 -121.5v-8h-119v9q0 32 -21 50t-64 18q-41 0 -63 -14.5t-22 -42.5q0 -19 9.5 -29t30.5 -15l158 -39q59 -14 87.5 -46.5t28.5 -86.5q0 -69 -54.5 -117t-140.5 -56l-5 -25l16 -2q77 -10 77 -69q0 -36 -30 -57.5t-83 -21.5q-44 0 -71 6z" />
    <glyph glyph-name="scedilla" unicode="&#xf6c2;" horiz-adv-x="531" 
d="M203 -180v55q23 -5 47 -5q40 0 40 22q0 20 -37 23l-36 3l16 72q-87 7 -137.5 48.5t-50.5 115.5v9h120v-7q0 -34 28.5 -53t76.5 -19q44 0 71.5 17t27.5 46q0 19 -10.5 30.5t-32.5 16.5l-154 35q-60 14 -89.5 46.5t-29.5 90.5q0 79 57.5 122.5t152.5 43.5q94 0 150 -44.5
t56 -121.5v-8h-119v9q0 32 -21 50t-64 18q-41 0 -63 -14.5t-22 -42.5q0 -19 9.5 -29t30.5 -15l158 -39q59 -14 87.5 -46.5t28.5 -86.5q0 -69 -54.5 -117t-140.5 -56l-5 -25l16 -2q77 -10 77 -69q0 -36 -30 -57.5t-83 -21.5q-44 0 -71 6z" />
    <glyph glyph-name="Scaron" unicode="&#x160;" horiz-adv-x="654" 
d="M129.5 43.5q-74.5 57.5 -74.5 159.5v18h134v-15q0 -50 38 -81t107 -31q63 0 100 27t37 75q0 62 -66 79l-183 47q-81 21 -118.5 62.5t-37.5 118.5q0 98 69.5 154.5t187.5 56.5q76 0 133.5 -26.5t88.5 -74t31 -108.5v-17h-129v14q0 47 -31 75.5t-93 28.5q-57 0 -89.5 -23
t-32.5 -68q0 -59 60 -74l192 -51q153 -40 153 -183q0 -65 -36 -115.5t-99 -78t-142 -27.5q-125 0 -199.5 57.5zM397 753h-134l-118 141h131l54 -67l54 67h131z" />
    <glyph glyph-name="scaron" unicode="&#x161;" horiz-adv-x="531" 
d="M106 30.5q-61 42.5 -61 123.5v9h120v-7q0 -34 28.5 -53t76.5 -19q44 0 71.5 17t27.5 46q0 19 -10.5 30.5t-32.5 16.5l-154 35q-60 14 -89.5 46.5t-29.5 90.5q0 79 57.5 122.5t152.5 43.5q94 0 150 -44.5t56 -121.5v-8h-119v9q0 32 -21 50t-64 18q-41 0 -63 -14.5
t-22 -42.5q0 -19 9.5 -29t30.5 -15l158 -39q59 -14 87.5 -46.5t28.5 -86.5q0 -50 -29.5 -89.5t-80.5 -62t-115 -22.5q-102 0 -163 42.5zM331 579h-132l-112 154h124l54 -77l54 77h124z" />
    <glyph glyph-name="uni0162" unicode="&#x162;" horiz-adv-x="588" 
d="M224 584h-198v116h536v-116h-198v-584h-140v584zM215 -73h154l-70 -177h-115z" />
    <glyph glyph-name="uni0162" unicode="&#x21a;" horiz-adv-x="588" 
d="M224 584h-198v116h536v-116h-198v-584h-140v584zM215 -73h154l-70 -177h-115z" />
    <glyph glyph-name="uni0163" unicode="&#x163;" horiz-adv-x="384" 
d="M138 38.5q-37 38.5 -37 109.5v262h-74v110h74v142h137v-142h111v-110h-111v-252q0 -26 11 -37t38 -11h55v-110h-94q-73 0 -110 38.5zM153 -73h154l-70 -177h-115z" />
    <glyph glyph-name="uni0163" unicode="&#x21b;" horiz-adv-x="384" 
d="M138 38.5q-37 38.5 -37 109.5v262h-74v110h74v142h137v-142h111v-110h-111v-252q0 -26 11 -37t38 -11h55v-110h-94q-73 0 -110 38.5zM153 -73h154l-70 -177h-115z" />
    <glyph glyph-name="Tcaron" unicode="&#x164;" horiz-adv-x="588" 
d="M224 584h-198v116h536v-116h-198v-584h-140v584zM361 753h-134l-118 141h131l54 -67l54 67h131z" />
    <glyph glyph-name="tcaron" unicode="&#x165;" horiz-adv-x="434" 
d="M304 730h145l-56 -153h-107zM138 38.5q-37 38.5 -37 109.5v262h-74v110h74v142h137v-142h111v-110h-111v-252q0 -26 11 -37t38 -11h55v-110h-94q-73 0 -110 38.5z" />
    <glyph glyph-name="Tbar" unicode="&#x166;" horiz-adv-x="588" 
d="M96 383h128v201h-198v116h536v-116h-198v-201h128v-112h-128v-271h-140v271h-128v112z" />
    <glyph glyph-name="tbar" unicode="&#x167;" horiz-adv-x="384" 
d="M28 317h73v93h-74v110h74v142h137v-142h111v-110h-111v-93h95v-103h-95v-56q0 -26 11 -37t38 -11h55v-110h-94q-73 0 -110 38.5t-37 109.5v66h-73v103z" />
    <glyph glyph-name="Utilde" unicode="&#x168;" horiz-adv-x="720" 
d="M206 19.5q-65 33.5 -99.5 93.5t-34.5 139v448h139v-454q0 -68 40.5 -106t108.5 -38t108 38t40 106v454h140v-448q0 -79 -34.5 -139t-99.5 -93.5t-154 -33.5t-154 33.5zM145 769q13 68 38.5 99t81.5 31q25 0 53.5 -7t69.5 -20q4 -1 27 -8t34 -7q19 0 26.5 11t16.5 36
l89 -25q-13 -46 -25.5 -71t-34.5 -39.5t-58 -14.5q-16 0 -42 6.5t-51 14.5q-67 21 -92 21q-18 0 -27.5 -12t-15.5 -35z" />
    <glyph glyph-name="utilde" unicode="&#x169;" horiz-adv-x="592" 
d="M525 0h-130v62q-18 -33 -59.5 -53.5t-91.5 -20.5q-86 0 -134 54.5t-48 144.5v333h136v-314q0 -50 23.5 -77t68.5 -27q47 0 73 28t26 77v313h136v-520zM106 598q9 62 34.5 95.5t79.5 33.5q19 0 41 -6.5t58 -19.5q45 -17 60 -17q18 0 25.5 11t16.5 36l84 -26
q-12 -41 -23.5 -66t-33 -41t-55.5 -16q-16 0 -35 5.5t-49 16.5q-53 21 -77 21q-18 0 -25.5 -11t-15.5 -37z" />
    <glyph glyph-name="Umacron" unicode="&#x16a;" horiz-adv-x="720" 
d="M206 19.5q-65 33.5 -99.5 93.5t-34.5 139v448h139v-454q0 -68 40.5 -106t108.5 -38t108 38t40 106v454h140v-448q0 -79 -34.5 -139t-99.5 -93.5t-154 -33.5t-154 33.5zM172 881h376v-109h-376v109z" />
    <glyph glyph-name="umacron" unicode="&#x16b;" horiz-adv-x="592" 
d="M525 0h-130v62q-18 -33 -59.5 -53.5t-91.5 -20.5q-86 0 -134 54.5t-48 144.5v333h136v-314q0 -50 23.5 -77t68.5 -27q47 0 73 28t26 77v313h136v-520zM134 706h340v-107h-340v107z" />
    <glyph glyph-name="Ubreve" unicode="&#x16c;" horiz-adv-x="720" 
d="M206 19.5q-65 33.5 -99.5 93.5t-34.5 139v448h139v-454q0 -68 40.5 -106t108.5 -38t108 38t40 106v454h140v-448q0 -79 -34.5 -139t-99.5 -93.5t-154 -33.5t-154 33.5zM231 790.5q-51 37.5 -51 103.5h106q0 -27 20 -44t54 -17t54 17t20 44h106q0 -66 -51 -103.5
t-129 -37.5t-129 37.5z" />
    <glyph glyph-name="ubreve" unicode="&#x16d;" horiz-adv-x="592" 
d="M525 0h-130v62q-18 -33 -59.5 -53.5t-91.5 -20.5q-86 0 -134 54.5t-48 144.5v333h136v-314q0 -50 23.5 -77t68.5 -27q47 0 73 28t26 77v313h136v-520zM183.5 620q-48.5 41 -48.5 113h100q0 -33 20.5 -53t56.5 -20t56.5 20t20.5 53h100q0 -72 -48.5 -113t-128.5 -41
t-128.5 41z" />
    <glyph glyph-name="Uring" unicode="&#x16e;" horiz-adv-x="720" 
d="M206 19.5q-65 33.5 -99.5 93.5t-34.5 139v448h139v-454q0 -68 40.5 -106t108.5 -38t108 38t40 106v454h140v-448q0 -79 -34.5 -139t-99.5 -93.5t-154 -33.5t-154 33.5zM282.5 780q-28.5 27 -28.5 66t29.5 65.5t76.5 26.5q48 0 77 -26.5t29 -65.5t-28.5 -66t-77.5 -27
t-77.5 27zM393.5 815q12.5 12 12.5 31t-12.5 30.5t-33.5 11.5t-33.5 -11.5t-12.5 -30.5t12.5 -31t33.5 -12t33.5 12z" />
    <glyph glyph-name="uring" unicode="&#x16f;" horiz-adv-x="592" 
d="M525 0h-130v62q-18 -33 -59.5 -53.5t-91.5 -20.5q-86 0 -134 54.5t-48 144.5v333h136v-314q0 -50 23.5 -77t68.5 -27q47 0 73 28t26 77v313h136v-520zM222.5 606q-28.5 27 -28.5 66t29.5 65.5t76.5 26.5q48 0 77 -26.5t29 -65.5t-28.5 -66t-77.5 -27t-77.5 27zM333.5 641
q12.5 12 12.5 31t-12.5 30.5t-33.5 11.5t-33.5 -11.5t-12.5 -30.5t12.5 -31t33.5 -12t33.5 12z" />
    <glyph glyph-name="Uhungarumlaut" unicode="&#x170;" horiz-adv-x="720" 
d="M206 19.5q-65 33.5 -99.5 93.5t-34.5 139v448h139v-454q0 -68 40.5 -106t108.5 -38t108 38t40 106v454h140v-448q0 -79 -34.5 -139t-99.5 -93.5t-154 -33.5t-154 33.5zM240 894h144l-64 -141h-123zM449 894h144l-64 -141h-123z" />
    <glyph glyph-name="uhungarumlaut" unicode="&#x171;" horiz-adv-x="592" 
d="M525 0h-130v62q-18 -33 -59.5 -53.5t-91.5 -20.5q-86 0 -134 54.5t-48 144.5v333h136v-314q0 -50 23.5 -77t68.5 -27q47 0 73 28t26 77v313h136v-520zM186 733h147l-73 -154h-124zM387 733h147l-73 -154h-124z" />
    <glyph glyph-name="Uogonek" unicode="&#x172;" horiz-adv-x="720" 
d="M328 -162.5q-27 23.5 -27 64.5q0 51 52 84q-87 1 -150.5 35t-97 93.5t-33.5 137.5v448h139v-454q0 -68 40.5 -106t108.5 -38t108 38t40 106v454h140v-448q0 -154 -133 -233q-42 -25 -67 -48.5t-25 -49.5q0 -28 34 -28q14 0 25 3v-72q-38 -10 -78 -10q-49 0 -76 23.5z" />
    <glyph glyph-name="uogonek" unicode="&#x173;" horiz-adv-x="592" 
d="M525 0q-26 -18 -43.5 -37.5t-17.5 -41.5q0 -28 34 -28q15 0 25 3v-72q-38 -10 -78 -10q-46 0 -74.5 24t-28.5 67q0 33 14.5 54.5t38.5 40.5v62q-18 -33 -59.5 -53.5t-91.5 -20.5q-86 0 -134 54.5t-48 144.5v333h136v-314q0 -50 23.5 -77t68.5 -27q47 0 73 28t26 77v313
h136v-520z" />
    <glyph glyph-name="Wcircumflex" unicode="&#x174;" horiz-adv-x="966" 
d="M697 194l101 506h138l-165 -700h-135l-153 539l-153 -539h-135l-165 700h138l101 -506l146 506h136zM668 753h-131l-54 67l-54 -67h-131l118 141h134z" />
    <glyph glyph-name="wcircumflex" unicode="&#x175;" horiz-adv-x="788" 
d="M635 0h-127l-114 358l-114 -358h-127l-135 520h132l76 -349l106 349h124l106 -349l76 349h132zM572 579h-124l-54 77l-54 -77h-124l112 154h132z" />
    <glyph glyph-name="Ycircumflex" unicode="&#x176;" horiz-adv-x="636" 
d="M388 0h-140v252l-240 448h152l158 -312l158 312h152l-240 -448v-252zM503 753h-131l-54 67l-54 -67h-131l118 141h134z" />
    <glyph glyph-name="ycircumflex" unicode="&#x177;" horiz-adv-x="511" 
d="M139 -174l52 176l-180 518h136l112 -373l106 373h135l-227 -694h-134zM443 579h-124l-54 77l-54 -77h-124l112 154h132z" />
    <glyph glyph-name="Ydieresis" unicode="&#x178;" horiz-adv-x="636" 
d="M388 0h-140v252l-240 448h152l158 -312l158 312h152l-240 -448v-252zM154 878.5q21 20.5 52 20.5q32 0 52.5 -20.5t20.5 -52.5q0 -31 -20.5 -52t-52.5 -21q-31 0 -52 21t-21 52q0 32 21 52.5zM378 878.5q21 20.5 52 20.5q32 0 52.5 -20.5t20.5 -52.5q0 -31 -20.5 -52
t-52.5 -21q-31 0 -52 21t-21 52q0 32 21 52.5z" />
    <glyph glyph-name="Zacute" unicode="&#x179;" horiz-adv-x="624" 
d="M55 116l351 468h-336v116h493v-116l-351 -468h360v-116h-517v116zM312 894h167l-98 -141h-138z" />
    <glyph glyph-name="zacute" unicode="&#x17a;" horiz-adv-x="505" 
d="M45 98l257 317h-245v105h402v-98l-257 -317h263v-105h-420v98zM258 733h168l-106 -154h-135z" />
    <glyph glyph-name="Zdotaccent" unicode="&#x17b;" horiz-adv-x="624" 
d="M55 116l351 468h-336v116h493v-116l-351 -468h360v-116h-517v116zM265.5 888.5q22.5 22.5 56.5 22.5t56.5 -22.5t22.5 -56.5t-22.5 -56.5t-56.5 -22.5t-56.5 22.5t-22.5 56.5t22.5 56.5z" />
    <glyph glyph-name="zdotaccent" unicode="&#x17c;" horiz-adv-x="505" 
d="M45 98l257 317h-245v105h402v-98l-257 -317h263v-105h-420v98zM207.5 714.5q22.5 22.5 56.5 22.5t56.5 -22.5t22.5 -56.5t-22.5 -56.5t-56.5 -22.5t-56.5 22.5t-22.5 56.5t22.5 56.5z" />
    <glyph glyph-name="Zcaron" unicode="&#x17d;" horiz-adv-x="624" 
d="M55 116l351 468h-336v116h493v-116l-351 -468h360v-116h-517v116zM399 753h-134l-118 141h131l54 -67l54 67h131z" />
    <glyph glyph-name="zcaron" unicode="&#x17e;" horiz-adv-x="505" 
d="M45 98l257 317h-245v105h402v-98l-257 -317h263v-105h-420v98zM336 579h-132l-112 154h124l54 -77l54 77h124z" />
    <glyph glyph-name="florin" unicode="&#x192;" horiz-adv-x="464" 
d="M25 -63h50q27 0 39.5 11.5t14.5 37.5l29 340h-75v111h85l10 113q7 76 44 113t107 37h100v-111h-64q-26 0 -37.5 -12t-13.5 -39l-9 -101h93v-111h-103l-31 -355q-7 -77 -44.5 -111t-112.5 -34h-82v111z" />
    <glyph glyph-name="Aringacute" unicode="&#x1fa;" horiz-adv-x="690" 
d="M335 965h166l-75 -110h-138zM423 680l244 -680h-139l-47 147h-272l-47 -147h-139l243 679q-26 24 -26 61q0 39 28 64t77 25t77 -25t28 -64q0 -35 -27 -60zM379 711q13 11 13 29q0 19 -12.5 30t-34.5 11t-34.5 -11t-12.5 -30q0 -18 12.5 -29t34.5 -11q21 0 34 11zM244 258
h201l-100 316z" />
    <glyph glyph-name="aringacute" unicode="&#x1fb;" horiz-adv-x="585" 
d="M309 887h166l-75 -110h-138zM240.5 593.5q-27.5 24.5 -27.5 63.5t28 64t77 25t77 -25t28 -64t-27.5 -63.5t-77.5 -24.5t-77.5 24.5zM354 627q13 12 13 30q0 19 -13 31t-36 12t-36 -12t-13 -31q0 -18 13 -30t36 -12t36 12zM99 31.5q-54 43.5 -54 118.5q0 82 56.5 123.5
t153.5 41.5q42 0 76 -13t56 -31v71q0 37 -24.5 60.5t-65.5 23.5q-34 0 -56.5 -13.5t-33.5 -35.5h-126q22 75 80 115t143 40q65 0 114.5 -25t77 -70t27.5 -105v-332h-131v48q-18 -26 -61 -43t-89 -17q-89 0 -143 43.5zM355 100q32 22 32 55q0 34 -29.5 53.5t-76.5 19.5
q-49 0 -76.5 -19t-27.5 -55q0 -35 28 -55.5t72 -20.5q46 0 78 22z" />
    <glyph glyph-name="AEacute" unicode="&#x1fc;" horiz-adv-x="1068" 
d="M582 894h167l-98 -141h-138zM527 148h-282l-95 -148h-150l469 700h548v-116h-350v-171h320v-117h-320v-180h351v-116h-491v148zM527 260v326l-210 -326h210z" />
    <glyph glyph-name="aeacute" unicode="&#x1fd;" horiz-adv-x="915" 
d="M469 733h168l-106 -154h-135zM524.5 8q-47.5 20 -77.5 57q-30 -33 -79.5 -55t-113.5 -22q-62 0 -109.5 21t-73.5 59.5t-26 88.5q0 79 58 119.5t152 40.5q43 0 77.5 -12.5t54.5 -32.5v63q0 39 -23.5 64.5t-65.5 25.5q-35 0 -56.5 -12t-34.5 -36h-126q18 76 75.5 115.5
t142.5 39.5q104 0 160 -64q27 30 72 47t100 17q74 0 126.5 -30.5t79 -82t26.5 -115.5v-91h-340v-13q0 -50 27 -82t83 -32q41 0 69 18.5t38 47.5h119q-9 -47 -41 -84.5t-80 -58.5t-105 -21q-61 0 -108.5 20zM738 309v13q0 51 -27 82.5t-80 31.5q-54 0 -81 -30.5t-27 -81.5
v-15h215zM355 100.5q32 21.5 32 54.5q0 34 -30 54.5t-76 20.5q-49 0 -76.5 -19t-27.5 -55q0 -35 28 -56t72 -21q46 0 78 21.5z" />
    <glyph glyph-name="Oslashacute" unicode="&#x1fe;" horiz-adv-x="736" 
d="M368 894h167l-98 -141h-138zM680 299q0 -90 -35.5 -161t-106 -111.5t-170.5 -40.5q-96 0 -168 39l-49 -75h-95l81 123q-40 42 -60.5 99.5t-20.5 126.5v102q0 90 36 161t106 111.5t170 40.5q97 0 167 -39l50 75h95l-81 -123q40 -41 60.5 -99.5t20.5 -126.5v-102zM215 191
l252 381q-42 26 -99 26q-85 0 -128.5 -51.5t-43.5 -138.5v-116q0 -59 19 -101zM496.5 153.5q43.5 51.5 43.5 138.5v116q0 29 -5 55.5t-15 44.5l-251 -380q35 -26 99 -26q85 0 128.5 51.5z" />
    <glyph glyph-name="oslashacute" unicode="&#x1ff;" horiz-adv-x="578" 
d="M289 733h168l-106 -154h-135zM162 16l-44 -66h-74l68 101q-34 32 -51 76t-17 96v74q0 67 29 120.5t84.5 84t131.5 30.5q72 0 126 -28l45 66h74l-68 -102q33 -31 50.5 -75.5t17.5 -95.5v-74q0 -67 -29 -120.5t-84.5 -84t-131.5 -30.5q-73 0 -127 28zM185 160l167 249
q-27 16 -63 16q-56 0 -84.5 -33t-28.5 -86v-92q0 -30 9 -54zM402 306q0 29 -9 53l-167 -249q24 -15 63 -15q56 0 84.5 33t28.5 86v92z" />
    <glyph glyph-name="uni0218" unicode="&#x218;" horiz-adv-x="654" 
d="M129.5 43.5q-74.5 57.5 -74.5 159.5v18h134v-15q0 -50 38 -81t107 -31q63 0 100 27t37 75q0 62 -66 79l-183 47q-81 21 -118.5 62.5t-37.5 118.5q0 98 69.5 154.5t187.5 56.5q76 0 133.5 -26.5t88.5 -74t31 -108.5v-17h-129v14q0 47 -31 75.5t-93 28.5q-57 0 -89.5 -23
t-32.5 -68q0 -59 60 -74l192 -51q153 -40 153 -183q0 -65 -36 -115.5t-99 -78t-142 -27.5q-125 0 -199.5 57.5zM256 -73h154l-70 -177h-115z" />
    <glyph glyph-name="uni0219" unicode="&#x219;" horiz-adv-x="531" 
d="M106 30.5q-61 42.5 -61 123.5v9h120v-7q0 -34 28.5 -53t76.5 -19q44 0 71.5 17t27.5 46q0 19 -10.5 30.5t-32.5 16.5l-154 35q-60 14 -89.5 46.5t-29.5 90.5q0 79 57.5 122.5t152.5 43.5q94 0 150 -44.5t56 -121.5v-8h-119v9q0 32 -21 50t-64 18q-41 0 -63 -14.5
t-22 -42.5q0 -19 9.5 -29t30.5 -15l158 -39q59 -14 87.5 -46.5t28.5 -86.5q0 -50 -29.5 -89.5t-80.5 -62t-115 -22.5q-102 0 -163 42.5zM198 -73h154l-70 -177h-115z" />
    <glyph glyph-name="circumflex" unicode="&#x2c6;" horiz-adv-x="510" 
d="M433 579h-124l-54 77l-54 -77h-124l112 154h132z" />
    <glyph glyph-name="caron" unicode="&#x2c7;" horiz-adv-x="510" 
d="M321 579h-132l-112 154h124l54 -77l54 77h124z" />
    <glyph glyph-name="breve" unicode="&#x2d8;" horiz-adv-x="508" 
d="M125.5 620q-48.5 41 -48.5 113h100q0 -33 20.5 -53t56.5 -20t56.5 20t20.5 53h100q0 -72 -48.5 -113t-128.5 -41t-128.5 41z" />
    <glyph glyph-name="dotaccent" unicode="&#x2d9;" horiz-adv-x="312" 
d="M99.5 714.5q22.5 22.5 56.5 22.5t56.5 -22.5t22.5 -56.5t-22.5 -56.5t-56.5 -22.5t-56.5 22.5t-22.5 56.5t22.5 56.5z" />
    <glyph glyph-name="ring" unicode="&#x2da;" horiz-adv-x="366" 
d="M105.5 606q-28.5 27 -28.5 66t29.5 65.5t76.5 26.5q48 0 77 -26.5t29 -65.5t-28.5 -66t-77.5 -27t-77.5 27zM216.5 641q12.5 12 12.5 31t-12.5 30.5t-33.5 11.5t-33.5 -11.5t-12.5 -30.5t12.5 -31t33.5 -12t33.5 12z" />
    <glyph glyph-name="ogonek" unicode="&#x2db;" horiz-adv-x="337" 
d="M104 -162.5q-27 23.5 -27 64.5q0 60 52 98h131q-23 -14 -42 -34.5t-19 -44.5q0 -28 34 -28q15 0 25 3v-72q-38 -10 -78 -10q-49 0 -76 23.5z" />
    <glyph glyph-name="tilde" unicode="&#x2dc;" horiz-adv-x="553" 
d="M77 598q9 62 34.5 95.5t79.5 33.5q19 0 41 -6.5t58 -19.5q45 -17 60 -17q18 0 25.5 11t16.5 36l84 -26q-12 -41 -23.5 -66t-33 -41t-55.5 -16q-16 0 -35 5.5t-49 16.5q-53 21 -77 21q-18 0 -25.5 -11t-15.5 -37z" />
    <glyph glyph-name="hungarumlaut" unicode="&#x2dd;" horiz-adv-x="552" 
d="M127 733h147l-73 -154h-124zM328 733h147l-73 -154h-124z" />
    <glyph glyph-name="uni0312" unicode="&#x312;" horiz-adv-x="0" 
d="M-212 733h134l-40 -154h-168z" />
    <glyph glyph-name="uni0315" unicode="&#x315;" horiz-adv-x="0" 
d="M-225 730h148l-78 -223h-110z" />
    <glyph glyph-name="uni0326" unicode="&#x326;" horiz-adv-x="0" 
d="M-232 -73h154l-70 -177h-115z" />
    <glyph glyph-name="uni03A9" unicode="&#x3a9;" horiz-adv-x="742" 
d="M677 0h-228v111q41 45 68 110.5t27 133.5v35q0 98 -42.5 153t-130.5 55t-130.5 -55t-42.5 -153v-35q0 -68 27 -133.5t68 -110.5v-111h-228v111h88q-44 53 -68.5 116.5t-24.5 132.5v38q0 92 35.5 163.5t105.5 112t170 40.5t170 -40.5t105.5 -112t35.5 -163.5v-38
q0 -69 -24.5 -132.5t-68.5 -116.5h88v-111z" />
    <glyph glyph-name="pi" unicode="&#x3c0;" horiz-adv-x="728" 
d="M142 412h-100v108h644v-108h-120v-247q0 -28 13 -41t43 -13h58v-111h-94q-78 0 -117 40.5t-39 114.5v257h-152v-412h-136v412z" />
    <glyph glyph-name="Wgrave" unicode="&#x1e80;" horiz-adv-x="966" 
d="M697 194l101 506h138l-165 -700h-135l-153 539l-153 -539h-135l-165 700h138l101 -506l146 506h136zM312 894h167l69 -141h-138z" />
    <glyph glyph-name="wgrave" unicode="&#x1e81;" horiz-adv-x="788" 
d="M635 0h-127l-114 358l-114 -358h-127l-135 520h132l76 -349l106 349h124l106 -349l76 349h132zM215 733h168l73 -154h-137z" />
    <glyph glyph-name="Wacute" unicode="&#x1e82;" horiz-adv-x="966" 
d="M697 194l101 506h138l-165 -700h-135l-153 539l-153 -539h-135l-165 700h138l101 -506l146 506h136zM491 894h167l-98 -141h-138z" />
    <glyph glyph-name="wacute" unicode="&#x1e83;" horiz-adv-x="788" 
d="M635 0h-127l-114 358l-114 -358h-127l-135 520h132l76 -349l106 349h124l106 -349l76 349h132zM410 733h168l-106 -154h-135z" />
    <glyph glyph-name="Wdieresis" unicode="&#x1e84;" horiz-adv-x="966" 
d="M697 194l101 506h138l-165 -700h-135l-153 539l-153 -539h-135l-165 700h138l101 -506l146 506h136zM319 878.5q21 20.5 52 20.5q32 0 52.5 -20.5t20.5 -52.5q0 -31 -20.5 -52t-52.5 -21q-31 0 -52 21t-21 52q0 32 21 52.5zM543 878.5q21 20.5 52 20.5q32 0 52.5 -20.5
t20.5 -52.5q0 -31 -20.5 -52t-52.5 -21q-31 0 -52 21t-21 52q0 32 21 52.5z" />
    <glyph glyph-name="wdieresis" unicode="&#x1e85;" horiz-adv-x="788" 
d="M635 0h-127l-114 358l-114 -358h-127l-135 520h132l76 -349l106 349h124l106 -349l76 349h132zM237 707.5q21 20.5 52 20.5q32 0 52.5 -20.5t20.5 -52.5q0 -31 -20.5 -52t-52.5 -21q-31 0 -52 21t-21 52q0 32 21 52.5zM447 707.5q21 20.5 52 20.5q32 0 52.5 -20.5
t20.5 -52.5q0 -31 -20.5 -52t-52.5 -21q-31 0 -52 21t-21 52q0 32 21 52.5z" />
    <glyph glyph-name="Ygrave" unicode="&#x1ef2;" horiz-adv-x="636" 
d="M388 0h-140v252l-240 448h152l158 -312l158 312h152l-240 -448v-252zM154 894h167l69 -141h-138z" />
    <glyph glyph-name="ygrave" unicode="&#x1ef3;" horiz-adv-x="511" 
d="M139 -174l52 176l-180 518h136l112 -373l106 373h135l-227 -694h-134zM91 733h168l73 -154h-137z" />
    <glyph glyph-name="endash" unicode="&#x2013;" horiz-adv-x="614" 
d="M55 381h504v-122h-504v122z" />
    <glyph glyph-name="emdash" unicode="&#x2014;" horiz-adv-x="913" 
d="M55 381h803v-122h-803v122z" />
    <glyph glyph-name="quoteleft" unicode="&#x2018;" horiz-adv-x="237" 
d="M160 435h-150l90 265h111z" />
    <glyph glyph-name="quoteright" unicode="&#x2019;" horiz-adv-x="237" 
d="M77 700h150l-90 -265h-111z" />
    <glyph glyph-name="quotesinglbase" unicode="&#x201a;" horiz-adv-x="256" 
d="M66 136h150l-90 -265h-111z" />
    <glyph glyph-name="quotedblleft" unicode="&#x201c;" horiz-adv-x="467" 
d="M160 435h-150l90 265h111zM390 435h-150l90 265h111z" />
    <glyph glyph-name="quotedblright" unicode="&#x201d;" horiz-adv-x="467" 
d="M77 700h150l-90 -265h-111zM307 700h150l-90 -265h-111z" />
    <glyph glyph-name="quotedblbase" unicode="&#x201e;" horiz-adv-x="486" 
d="M66 136h150l-90 -265h-111zM296 136h150l-90 -265h-111z" />
    <glyph glyph-name="dagger" unicode="&#x2020;" horiz-adv-x="484" 
d="M187 440h-131v93h131v167h110v-167h131v-93h-131v-540h-110v540z" />
    <glyph glyph-name="daggerdbl" unicode="&#x2021;" horiz-adv-x="494" 
d="M192 440h-131v93h131v167h110v-167h131v-93h-131v-280h131v-93h-131v-167h-110v167h-131v93h131v280z" />
    <glyph glyph-name="bullet" unicode="&#x2022;" horiz-adv-x="414" 
d="M107.5 260q-37.5 38 -37.5 96t37.5 96t99.5 38t99.5 -38t37.5 -96t-37.5 -96t-99.5 -38t-99.5 38z" />
    <glyph glyph-name="ellipsis" unicode="&#x2026;" horiz-adv-x="768" 
d="M71.5 126.5q21.5 21.5 56.5 21.5t56.5 -21.5t21.5 -56.5t-21.5 -56.5t-56.5 -21.5t-56.5 21.5t-21.5 56.5t21.5 56.5zM327.5 126.5q21.5 21.5 56.5 21.5t56.5 -21.5t21.5 -56.5t-21.5 -56.5t-56.5 -21.5t-56.5 21.5t-21.5 56.5t21.5 56.5zM583.5 126.5
q21.5 21.5 56.5 21.5t56.5 -21.5t21.5 -56.5t-21.5 -56.5t-56.5 -21.5t-56.5 21.5t-21.5 56.5t21.5 56.5z" />
    <glyph glyph-name="perthousand" unicode="&#x2030;" horiz-adv-x="1277" 
d="M373 472q0 -71 -44 -114t-120 -43t-120 43t-44 114v81q0 71 44 114t120 43t120 -43t44 -114v-81zM574 700h101l-360 -700h-101zM277 561q0 31 -18 49.5t-50 18.5t-50 -18.5t-18 -49.5v-97q0 -31 18 -49.5t50 -18.5t50 18.5t18 49.5v97zM844 147q0 -71 -44 -114t-120 -43
t-120 43t-44 114v81q0 71 44 114t120 43t120 -43t44 -114v-81zM1237 147q0 -71 -44 -114t-120 -43t-120 43t-44 114v81q0 71 44 114t120 43t120 -43t44 -114v-81zM748 236q0 31 -18 49.5t-50 18.5t-50 -18.5t-18 -49.5v-97q0 -31 18 -49.5t50 -18.5t50 18.5t18 49.5v97z
M1141 236q0 31 -18 49.5t-50 18.5t-50 -18.5t-18 -49.5v-97q0 -31 18 -49.5t50 -18.5t50 18.5t18 49.5v97z" />
    <glyph glyph-name="guilsinglleft" unicode="&#x2039;" horiz-adv-x="356" 
d="M10 276l163 216h153l-162 -216l162 -216h-153z" />
    <glyph glyph-name="guilsinglright" unicode="&#x203a;" horiz-adv-x="356" 
d="M183 60h-153l162 216l-162 216h153l163 -216z" />
    <glyph glyph-name="fraction" unicode="&#x2044;" horiz-adv-x="401" 
d="M330 700h101l-360 -700h-101z" />
    <glyph glyph-name="Euro" unicode="&#x20ac;" horiz-adv-x="671" 
d="M45 481h73q2 66 32 118.5t87 83.5t136 31q73 0 128.5 -30.5t86.5 -82t33 -114.5h-123q-2 53 -34.5 85.5t-88.5 32.5q-60 0 -91 -33t-31 -88v-3h150v-93h-150v-76h150v-93h-150v-3q0 -55 31 -88t91 -33q56 0 88.5 32.5t34.5 85.5h123q-2 -63 -33 -114.5t-86.5 -82
t-128.5 -30.5q-79 0 -136 31t-87 83.5t-32 118.5h-73v93h73v76h-73v93z" />
    <glyph glyph-name="uni2117" unicode="&#x2117;" horiz-adv-x="826" 
d="M224.5 36.5q-82.5 48.5 -128.5 131.5t-46 182t46 182t128.5 131.5t188.5 48.5t189 -48.5t128.5 -131.5t45.5 -182t-45.5 -182t-128.5 -131.5t-189 -48.5t-188.5 48.5zM582.5 69q73.5 45 113 119.5t39.5 161.5t-39.5 161.5t-113 119.5t-169.5 45t-169 -45t-113 -119.5
t-40 -161.5t40 -161.5t113 -119.5t169 -45t169.5 45zM295 526h150q60 0 96 -33.5t36 -87.5q0 -55 -36.5 -89.5t-95.5 -34.5h-74v-109h-76v354zM436 345q31 0 48 17t17 43t-17 41.5t-48 15.5h-65v-117h65z" />
    <glyph glyph-name="trademark" unicode="&#x2122;" horiz-adv-x="654" 
d="M118 646h-88v54h238v-54h-88v-242h-62v242zM602 404h-60v174l-52 -106h-60l-52 106v-174h-60v296h57l85 -174l85 174h57v-296z" />
    <glyph glyph-name="partialdiff" unicode="&#x2202;" horiz-adv-x="596" 
d="M161 16q-56 30 -86 82.5t-30 117.5v32q0 67 27 117.5t75.5 78t112.5 27.5q48 0 87.5 -16t60.5 -42q-24 85 -93.5 129.5t-184.5 44.5h-20v113h27q200 0 304.5 -109.5t104.5 -306.5v-44q0 -72 -32 -130t-89.5 -91t-132.5 -33t-131 30zM379.5 127.5q32.5 32.5 32.5 83.5v40
q0 54 -32.5 85t-83.5 31q-56 0 -86.5 -32t-30.5 -85v-38q0 -53 31 -85t84 -32t85.5 32.5z" />
    <glyph glyph-name="uni2206" unicode="&#x2206;" horiz-adv-x="688" 
d="M50 108l232 592h124l232 -592v-108h-588v108zM498 116l-154 439l-155 -439h309z" />
    <glyph glyph-name="product" unicode="&#x220f;" horiz-adv-x="827" 
d="M172 589h-130v111h743v-111h-130v-763h-134v763h-215v-763h-134v763z" />
    <glyph glyph-name="summation" unicode="&#x2211;" horiz-adv-x="605" 
d="M62 -63l212 326l-212 326v111h491v-111h-340l207 -326l-207 -326h340v-111h-491v111z" />
    <glyph glyph-name="minus" unicode="&#x2212;" horiz-adv-x="589" 
d="M65 417h459v-114h-459v114z" />
    <glyph glyph-name="radical" unicode="&#x221a;" horiz-adv-x="737" 
d="M183 238h-128v117h213l112 -327l174 722h128l-220 -850h-156z" />
    <glyph glyph-name="infinity" unicode="&#x221e;" horiz-adv-x="910" 
d="M539 194.5q-55 29.5 -84 72.5q-29 -43 -84 -72.5t-122 -29.5q-87 0 -140.5 52.5t-53.5 142.5t53.5 142.5t140.5 52.5q67 0 122 -29.5t84 -72.5q29 43 84 72.5t122 29.5q87 0 140.5 -52.5t53.5 -142.5t-53.5 -142.5t-140.5 -52.5q-67 0 -122 29.5zM200.5 425
q-25.5 -24 -25.5 -65t25.5 -65t67.5 -24q46 0 77 25t53 64q-22 39 -53 64t-77 25q-42 0 -67.5 -24zM565 424q-31 -25 -53 -64q22 -39 53 -64t77 -25q42 0 67.5 24t25.5 65t-25.5 65t-67.5 24q-46 0 -77 -25z" />
    <glyph glyph-name="integral" unicode="&#x222b;" horiz-adv-x="435" 
d="M42 -62h42q32 0 45.5 12.5t13.5 43.5v544q0 83 41 122.5t122 39.5h77v-112h-46q-32 0 -45.5 -13t-13.5 -43v-544q0 -162 -162 -162h-74v112z" />
    <glyph glyph-name="approxequal" unicode="&#x2248;" horiz-adv-x="642" 
d="M384.5 390.5q-24.5 8.5 -67.5 27.5l-22 10q-25 12 -40.5 17.5t-31.5 5.5q-26 0 -45 -13.5t-44 -40.5l-74 67q32 47 70 70.5t97 23.5q31 0 55.5 -8.5t66.5 -29.5q7 -3 26 -13t33.5 -14t29.5 -4q26 0 45 10t38 30l66 -73q-61 -74 -147 -74q-31 0 -55.5 8.5zM384.5 172.5
q-24.5 8.5 -67.5 27.5l-22 10q-25 12 -40.5 17.5t-31.5 5.5q-26 0 -45 -13.5t-44 -40.5l-74 67q32 47 70 70.5t97 23.5q31 0 55.5 -8.5t66.5 -29.5q7 -3 26 -13t33.5 -14t29.5 -4q26 0 45 10t38 30l66 -73q-61 -74 -147 -74q-31 0 -55.5 8.5z" />
    <glyph glyph-name="notequal" unicode="&#x2260;" horiz-adv-x="628" 
d="M85 539h254l50 106h120l-50 -106h84v-110h-136l-65 -138h201v-110h-253l-50 -106h-120l50 106h-85v110h137l65 138h-202v110z" />
    <glyph glyph-name="lessequal" unicode="&#x2264;" horiz-adv-x="597" 
d="M522 602v-120l-295 -96l295 -96v-120l-462 161v110zM60 115h462v-115h-462v115z" />
    <glyph glyph-name="greaterequal" unicode="&#x2265;" horiz-adv-x="597" 
d="M537 441v-110l-462 -161v120l295 96l-295 96v120zM537 0h-462v115h462v-115z" />
    <glyph glyph-name="lozenge" unicode="&#x25ca;" horiz-adv-x="642" 
d="M383 0h-124l-224 350l224 350h124l224 -350zM462 350l-141 232l-141 -232l141 -232z" />
    <glyph glyph-name="uniF8FF" unicode="&#xf8ff;" horiz-adv-x="820" 
d="M176 11q-40 23 -63 63t-23 89v362q0 49 23 89t63 63t89 23h350q49 0 89 -23t63 -62.5t23 -88.5t-23 -88.5t-63 -62.5t-89 -23h-175v-189q0 -49 -23 -89t-63 -63t-89 -23t-89 23z" />
    <glyph glyph-name="IJ.salt" horiz-adv-x="1158" 
d="M57 0v110h146v480h-142v110h424v-110h-142v-480h146v-110h-432zM652.5 45q-66.5 59 -66.5 160v10h133v-9q0 -48 30 -76t84 -28t82.5 28t28.5 76v378h-297v116h437v-494q0 -64 -31.5 -114t-88.5 -78t-131 -28q-114 0 -180.5 59z" />
    <glyph glyph-name="J.salt" horiz-adv-x="612" 
d="M106.5 45q-66.5 59 -66.5 160v10h133v-9q0 -48 30 -76t84 -28t82.5 28t28.5 76v378h-297v116h437v-494q0 -64 -31.5 -114t-88.5 -78t-131 -28q-114 0 -180.5 59z" />
    <glyph glyph-name="Jcircumflex.salt" horiz-adv-x="612" 
d="M520 753h-131l-54 67l-54 -67h-131l118 141h134zM106.5 45q-66.5 59 -66.5 160v10h133v-9q0 -48 30 -76t84 -28t82.5 28t28.5 76v378h-297v116h437v-494q0 -64 -31.5 -114t-88.5 -78t-131 -28q-114 0 -180.5 59z" />
    <glyph glyph-name="zero.tnum" 
d="M110 52.5q-63 66.5 -63 177.5v240q0 111 63 177.5t180 66.5t180 -66.5t63 -177.5v-240q0 -111 -63 -177.5t-180 -66.5t-180 66.5zM367.5 132q27.5 33 27.5 96v244q0 63 -27.5 96t-77.5 33t-77.5 -33t-27.5 -96v-244q0 -63 27.5 -96t77.5 -33t77.5 33z" />
    <glyph glyph-name="one.tnum" 
d="M542 113v-113h-461v113h163v446l-152 -65v125l176 81h114v-587h160z" />
    <glyph glyph-name="two.tnum" 
d="M51 105l270 280q31 32 48 62t17 63q0 41 -25 65.5t-71 24.5t-71 -31t-25 -84v-20h-138v24q0 69 29 119.5t81 78t120 27.5q114 0 176 -55.5t62 -148.5q0 -64 -35.5 -118.5t-95.5 -113.5l-169 -165h299v-113h-472v105z" />
    <glyph glyph-name="three.tnum" 
d="M174 12q-55 26 -87 76t-33 120h128q4 -50 35 -80t82 -30q50 0 76.5 29.5t26.5 76.5t-32 74t-87 27h-138v105l182 178h-258v112h439v-109l-194 -181h15q61 0 108.5 -24.5t74 -70t26.5 -108.5q0 -64 -29 -114t-83.5 -78.5t-127.5 -28.5q-69 0 -124 26z" />
    <glyph glyph-name="four.tnum" 
d="M333 145h-287v109l173 446h125l-164 -442h153v161h128v-161h81v-113h-81v-145h-128v145z" />
    <glyph glyph-name="five.tnum" 
d="M175 9q-52 23 -86.5 69t-43.5 110h135q8 -40 37 -64.5t72 -24.5q55 0 86 36t31 93q0 52 -31.5 88.5t-84.5 36.5q-69 0 -104 -59h-131l71 406h373v-113h-264l-29 -165q41 44 120 44q60 0 109 -29t77.5 -82.5t28.5 -122.5q0 -71 -31.5 -127t-89 -87.5t-133.5 -31.5
q-60 0 -112 23z" />
    <glyph glyph-name="six.tnum" 
d="M157.5 17.5q-55.5 31.5 -84 87t-28.5 126.5q0 63 18.5 110t54.5 105l160 254h148l-177 -265v-1q14 17 34 23.5t49 6.5q57 0 104 -28.5t74.5 -81.5t27.5 -124q0 -70 -31.5 -125.5t-88 -87t-127.5 -31.5q-78 0 -133.5 31.5zM372.5 134.5q30.5 36.5 30.5 93.5q0 60 -28.5 94
t-82.5 34q-51 0 -81 -35t-30 -94q0 -61 28.5 -95t82.5 -34q50 0 80.5 36.5z" />
    <glyph glyph-name="seven.tnum" 
d="M378 587h-307v113h448v-98l-274 -602h-140z" />
    <glyph glyph-name="eight.tnum" 
d="M73.5 301.5q26.5 42.5 75.5 63.5q-37 21 -58 60t-21 94q0 91 61 143t159 52t159 -52t61 -143q0 -55 -21 -94t-58 -60q49 -21 75.5 -63.5t26.5 -106.5q0 -63 -30 -110t-85.5 -73t-127.5 -26t-127.5 26t-85.5 73t-30 110q0 64 26.5 106.5zM225 439q24 -27 65 -27t65 27
t24 71t-24 69t-65 25t-65 -25t-24 -69t24 -71zM210.5 123.5q29.5 -27.5 79.5 -27.5t79.5 27.5t29.5 75.5q0 47 -29.5 75t-79.5 28t-79.5 -28t-29.5 -75q0 -48 29.5 -75.5z" />
    <glyph glyph-name="nine.tnum" 
d="M422.5 682.5q55.5 -31.5 84 -87t28.5 -126.5q0 -63 -18.5 -110t-54.5 -105l-160 -254h-148l177 265v1q-14 -17 -34 -23.5t-49 -6.5q-57 0 -104 28.5t-74.5 81.5t-27.5 124q0 70 31.5 125.5t88 87t127.5 31.5q78 0 133.5 -31.5zM207.5 565.5q-30.5 -36.5 -30.5 -93.5
q0 -60 28.5 -94t82.5 -34q51 0 81 35t30 94q0 61 -28.5 95t-82.5 34q-50 0 -80.5 -36.5z" />
    <glyph glyph-name="acute.case" horiz-adv-x="390" 
d="M146 894h167l-98 -141h-138z" />
    <glyph glyph-name="breve.case" horiz-adv-x="514" 
d="M128 790.5q-51 37.5 -51 103.5h106q0 -27 20 -44t54 -17t54 17t20 44h106q0 -66 -51 -103.5t-129 -37.5t-129 37.5z" />
    <glyph glyph-name="caron.case" horiz-adv-x="524" 
d="M329 753h-134l-118 141h131l54 -67l54 67h131z" />
    <glyph glyph-name="circumflex.case" horiz-adv-x="524" 
d="M447 753h-131l-54 67l-54 -67h-131l118 141h134z" />
    <glyph glyph-name="dieresis.case" horiz-adv-x="524" 
d="M98 878.5q21 20.5 52 20.5q32 0 52.5 -20.5t20.5 -52.5q0 -31 -20.5 -52t-52.5 -21q-31 0 -52 21t-21 52q0 32 21 52.5zM322 878.5q21 20.5 52 20.5q32 0 52.5 -20.5t20.5 -52.5q0 -31 -20.5 -52t-52.5 -21q-31 0 -52 21t-21 52q0 32 21 52.5z" />
    <glyph glyph-name="dotaccent.case" horiz-adv-x="312" 
d="M99.5 888.5q22.5 22.5 56.5 22.5t56.5 -22.5t22.5 -56.5t-22.5 -56.5t-56.5 -22.5t-56.5 22.5t-22.5 56.5t22.5 56.5z" />
    <glyph glyph-name="grave.case" horiz-adv-x="390" 
d="M77 894h167l69 -141h-138z" />
    <glyph glyph-name="hungarumlaut.case" horiz-adv-x="558" 
d="M124 894h144l-64 -141h-123zM333 894h144l-64 -141h-123z" />
    <glyph glyph-name="macron.case" horiz-adv-x="530" 
d="M77 881h376v-109h-376v109z" />
    <glyph glyph-name="ring.case" horiz-adv-x="366" 
d="M105.5 780q-28.5 27 -28.5 66t29.5 65.5t76.5 26.5q48 0 77 -26.5t29 -65.5t-28.5 -66t-77.5 -27t-77.5 27zM216.5 815q12.5 12 12.5 31t-12.5 30.5t-33.5 11.5t-33.5 -11.5t-12.5 -30.5t12.5 -31t33.5 -12t33.5 12z" />
    <glyph glyph-name="tilde.case" horiz-adv-x="590" 
d="M77 769q13 68 38.5 99t81.5 31q25 0 53.5 -7t69.5 -20q4 -1 27 -8t34 -7q19 0 26.5 11t16.5 36l89 -25q-13 -46 -25.5 -71t-34.5 -39.5t-58 -14.5q-16 0 -42 6.5t-51 14.5q-67 21 -92 21q-18 0 -27.5 -12t-15.5 -35z" />
    <glyph glyph-name="ornm11.ornm" horiz-adv-x="820" 
d="M595 409h-399l116 111h401v-393l-118 -116v398zM77 -30l326 326l81 -80l-326 -326z" />
    <glyph glyph-name="ornm04.ornm" horiz-adv-x="887" 
d="M117 205v495h503l116 -116h-495v-495zM345 392l88 89l367 -368l-88 -88z" />
    <glyph glyph-name="ornm02.ornm" horiz-adv-x="1074" 
d="M57 350l350 350h164l-350 -350l350 -350h-164zM427 407h560v-114h-560v114z" />
    <glyph glyph-name="ornm07.ornm" horiz-adv-x="875" 
d="M87 364l350 350l350 -350v-164l-350 350l-350 -350v164zM374 341h126v-504h-126v504z" />
    <glyph glyph-name="ornm08.ornm" horiz-adv-x="875" 
d="M374 700h126v-502h-126v502zM87 175v164l350 -350l350 350v-164l-350 -350z" />
    <glyph glyph-name="ornm05.ornm" horiz-adv-x="887" 
d="M87 587l88 88l367 -367l-88 -89zM151 116h495v495l124 -116v-495h-503z" />
    <glyph glyph-name="ornm06.ornm" horiz-adv-x="887" 
d="M345 308l367 367l88 -88l-367 -368zM117 495l124 116v-495h495l-116 -116h-503v495z" />
    <glyph glyph-name="ornm14.ornm" horiz-adv-x="820" 
d="M337 304l326 326l80 -80l-326 -326zM107 393l119 116v-399h398l-116 -110h-401v393z" />
    <glyph glyph-name="ornm13.ornm" horiz-adv-x="820" 
d="M77 550l81 80l326 -326l-81 -80zM196 110h399v399l118 -116v-393h-401z" />
    <glyph glyph-name="ornm12.ornm" horiz-adv-x="820" 
d="M107 127v393h401l116 -111h-398v-398zM337 216l80 80l326 -326l-80 -80z" />
    <glyph glyph-name="ornm01.ornm" horiz-adv-x="1074" 
d="M853 350l-350 350h164l350 -350l-350 -350h-164zM87 407h560v-114h-560v114z" />
    <glyph glyph-name="ornm03.ornm" horiz-adv-x="887" 
d="M646 584h-495l116 116h503v-495l-124 -116v495zM87 113l367 368l88 -89l-367 -367z" />
    <glyph glyph-name="ornm10.ornm" horiz-adv-x="964" 
d="M47 298l282 282h164l-282 -282l282 -282h-164zM425 355h461v-114h-461v114z" />
    <glyph glyph-name="ornm09.ornm" horiz-adv-x="964" 
d="M753 298l-282 282h164l281 -282l-281 -282h-164zM77 355h462v-114h-462v114z" />
    <glyph glyph-name="ornm18.ornm" horiz-adv-x="895" 
d="M117.5 2q-4.5 4 -9.5 10q-1 2 -1 16q0 26 1 35q0 7 1 14.5t1 18.5q0 22 2 38q-28 -20 -58 -23h-1q-6 0 -7.5 5t3.5 8q41 12 66 34l16 15q17 24 28 52q3 11 7 20q6 15 9 30l-2 58q-3 36 -3 41q0 40 19.5 66t41 38.5t50.5 23.5q69 23 138 23q23 0 69 -4q32 -4 60 -4
q10 0 21 2q14 3 23.5 23t14.5 34.5t6 17.5q9 32 41 68q1 2 2.5 18t4.5 20h7q17 0 21 -2q3 0 28 -5q12 0 14 -3q3 -2 5 -5t5 -6q7 -1 12 -6q1 -3 13 -15q2 -3 5 -8t3 -8q0 -5 25 -21q8 -6 18.5 -12t17.5 -11q17 -8 14 -18q-3 -7 -20 -12.5t-27 -5.5l-24 3q-18 4 -36 4
q-14 0 -19 -3q-3 -1 -8 -12t-7 -18q-3 -31 -7 -50q-6 -24 -16 -57q-2 -8 -5 -16t-4 -15q-1 -8 -3.5 -26t-7.5 -32q-4 -7 -11 -18t-8 -16q-5 -7 -13 -55t-10 -73q-5 -46 -3 -109q0 -8 9.5 -20t17.5 -11q11 0 16 -6q1 -1 1 -7q0 -8 -3 -10l-4 -2l-20 1q9 -6 6 -10l-4 -4h-42
q-5 2 -12 15q-2 8 -4.5 20.5t-4.5 19.5q-2 4 -6 7t-4 5q0 4 1.5 13.5t1.5 23.5q0 2 -3 5t-5 7q-1 4 -1 45q0 45 -1 56l-2 25q-1 6 -2 14t-1 16q-1 3 -1 7q0 5 2 9.5t2 7.5q-1 5 -10 5l-20 -1q-17 0 -44.5 8.5t-50.5 25.5q-15 11 -32 32q-15 16 -24 23t-18 7q-11 0 -22.5 -5
t-18.5 -12q-8 -8 -11.5 -20.5t-4.5 -14.5q-1 -4 -1 -21q-2 -17 -5.5 -31.5t-4.5 -16.5q-3 -12 -14 -43q-5 -12 -25 -38q-6 -8 -15 -17.5t-10 -12.5q-7 -9 -10 -29q-1 -54 0 -62q0 -6 1.5 -10t1.5 -6q4 -2 7 -4.5t7 -5.5q1 0 6.5 -1t6.5 -5v-4q0 -9 -4 -10h-26q-7 2 -14 7
l-10 9l-5 43l-2 22q0 1 -1 11t-1 24q0 13 1 18q0 9 -3 9q-2 0 -5 -5q-5 -7 -9.5 -12.5t-7.5 -9.5q-4 -11 -12.5 -38.5t-9.5 -35.5q-1 -7 0 -41l8 -8q8 -3 8 -10t-7 -12h-19q-5 0 -9.5 4z" />
    <glyph glyph-name="ornm16.ornm" horiz-adv-x="737" 
d="M308 596h121v-387h-121v387zM87 113v164l282 -281l281 281v-164l-281 -281z" />
    <glyph glyph-name="ornm15.ornm" horiz-adv-x="737" 
d="M87 324l282 282l281 -282v-164l-281 282l-282 -282v164zM308 228h121v-386h-121v386z" />
    <glyph glyph-name="ornm17.ornm" horiz-adv-x="746" 
d="M121 233q-27 15 -35 41q3 4 9.5 8t11 8.5t5.5 11.5q2 6 2 17q0 16 -9 39q-1 5 -4.5 15.5t-4.5 19.5q-1 7 -1 23q0 19 1 29l1 32q0 20 -3 39q-1 16 -13 42q-2 5 -5.5 15.5t-4.5 17.5q-1 14 3 42q2 20 2 30q0 22 -11 37q30 1 88 -1q40 -2 57 -2q20 0 30 1q3 4 3 16l-1 28
h21q9 -8 13 -22.5t7 -35.5l3 -20q11 -5 35 -11q18 -4 28.5 -7.5t17.5 -10.5q17 14 43 14t48 -10q-4 -8 -4 -9q0 -2 4 -2.5t10 -0.5q0 -13 6 -23q3 1 6 6.5t6 8t11 -0.5q7 -6 23 -16q4 -3 12.5 -9t13.5 -12q14 0 23.5 6t11.5 7q12 10 21 12q3 -9 10 -12t18 -3l24 1
q20 0 29 -11q5 0 11.5 1t15.5 1q8 0 11 -2q-11 -12 -23.5 -18.5t-32.5 -13.5q-28 -11 -39 -18q-21 -12 -42 -43q-14 -18 -22 -27q-10 -9 -30 -25q-17 -12 -27 -21.5t-17 -21.5q0 -14 3 -29q0 -4 1.5 -15.5t0.5 -22.5q-12 -10 -19 -14q-15 -10 -22.5 -18.5t-8.5 -23.5
q3 -4 10.5 -11t9.5 -15q-10 -13 -10 -38l1 -23q0 -12 -3 -24l28 -20q27 -17 44.5 -31.5t28.5 -32.5q5 8 15 8t19 -8.5t12 -16.5q-3 -16 -3 -33t1 -25h-481q0 159 6 233z" />
    </font>
</defs>
</svg>
