<?xml version="1.0" standalone="no"?>
<!DOCTYPE svg PUBLIC "-//W3C//DTD SVG 1.1//EN" "http://www.w3.org/Graphics/SVG/1.1/DTD/svg11.dtd" >
<svg xmlns="http://www.w3.org/2000/svg">
<metadata></metadata>
<defs>
<font id="kievitbook_italic" horiz-adv-x="2205" >
<font-face units-per-em="2048" ascent="1638" descent="-410" />
<missing-glyph horiz-adv-x="450" />
<glyph unicode="&#xfb01;" horiz-adv-x="1132" d="M-264 -434l55 139q27 -10 58.5 -19.5t72.5 -9.5q45 0 78 19.5t55.5 53.5t35.5 76t22 89l174 938h-191l23 133h192l27 148q35 193 144.5 279.5t287.5 86.5q117 0 185.5 -26.5t105.5 -51.5l-76 -137q-29 16 -82 40t-141 24q-117 0 -176.5 -52.5t-81.5 -179.5l-25 -131h563 l-178 -985h-170l154 852h-393l-170 -938q-18 -96 -46 -168t-72 -120t-106.5 -72.5t-148.5 -24.5q-59 0 -100 11t-76 26z" />
<glyph unicode="&#xfb02;" horiz-adv-x="1130" d="M-264 -434l55 139q27 -10 58.5 -19.5t72.5 -9.5q45 0 78 19.5t55.5 53.5t35.5 76t22 89l172 938h-189l23 133h190l29 154q35 190 143.5 275t290.5 85q135 0 219 -19.5t137 -41.5l-258 -1438h-172l240 1325q-35 10 -78 16.5t-102 6.5q-117 0 -173.5 -52.5t-78.5 -175.5 l-25 -135h232l-23 -133h-233l-172 -938q-18 -96 -46 -168t-72 -120t-106.5 -72.5t-148.5 -24.5q-59 0 -100 11t-76 26z" />
<glyph horiz-adv-x="0" />
<glyph unicode="&#xd;" horiz-adv-x="450" />
<glyph unicode=" "  horiz-adv-x="450" />
<glyph unicode="&#x09;" horiz-adv-x="450" />
<glyph unicode="&#xa0;" horiz-adv-x="450" />
<glyph unicode="!" horiz-adv-x="522" d="M72 111q0 49 37.5 85.5t93.5 36.5q53 0 90 -36.5t37 -85.5q0 -53 -37 -91t-90 -38q-55 0 -93 37.5t-38 91.5zM172 418l131 946h205l-203 -946h-133z" />
<glyph unicode="&#x22;" horiz-adv-x="749" d="M248 901l26 463h195l-92 -463h-129zM528 901l54 463h196l-121 -463h-129z" />
<glyph unicode="#" horiz-adv-x="1052" d="M88 498l39 135h180l68 217h-193l37 135h199l84 264h131l-84 -264h199l81 264h132l-82 -264h176l-37 -135h-182l-68 -217h195l-39 -135h-199l-90 -289h-131l90 289h-197l-90 -289h-133l90 289h-176zM436 631h199l70 219h-199z" />
<glyph unicode="$" horiz-adv-x="894" d="M18 86l93 131q10 -10 31.5 -26.5t54 -33t75.5 -28.5t95 -12q102 0 164.5 35.5t62.5 107.5q0 31 -15.5 54.5t-44 45t-68.5 43t-89 48.5q-53 29 -95 57.5t-71 61t-44 72.5t-15 93q0 55 23.5 101.5t64.5 81t97 57t122 31.5l39 211h159l-39 -213q92 -10 145.5 -36t72.5 -38 l-84 -129q-29 16 -87.5 40.5t-154.5 24.5q-86 0 -139.5 -31.5t-53.5 -91.5q0 -57 52.5 -95t132.5 -77q55 -29 104 -56.5t86 -62t58.5 -78.5t21.5 -102q0 -63 -25.5 -113t-69.5 -88t-105.5 -61.5t-133.5 -32.5l-41 -229h-159l41 232q-92 12 -158 43.5t-103 62.5z" />
<glyph unicode="%" horiz-adv-x="1507" d="M90 676q0 63 23.5 123.5t66.5 107.5t103.5 75t134.5 28q129 0 191.5 -69t62.5 -177q0 -68 -24.5 -128.5t-68.5 -107.5t-104.5 -74.5t-132.5 -27.5q-59 0 -106.5 20.5t-80 54.5t-49 80t-16.5 95zM236 686q-1 -149 118 -149q78 0 125 62.5t47 158.5q0 66 -29.5 103.5 t-88.5 37.5q-78 0 -125 -59.5t-47 -153.5zM305 0l758 987h143l-757 -987h-144zM834 225q0 63 24.5 124t67.5 108t103.5 74.5t131.5 27.5q129 0 191.5 -68.5t62.5 -177.5q0 -68 -24.5 -128t-67.5 -107t-103.5 -75t-134.5 -28q-59 0 -106 20.5t-80 54.5t-49 80t-16 95z M979 238q0 -152 119 -152q78 0 125 62.5t47 158.5q0 66 -30 104t-89 38q-78 0 -125 -59.5t-47 -151.5z" />
<glyph unicode="&#x26;" horiz-adv-x="1519" d="M96 330q0 139 46 263t122 217t174.5 147.5t202.5 54.5q109 0 175.5 -54.5t66.5 -158.5q0 -59 -26 -107.5t-66.5 -86.5t-90 -65.5t-96.5 -45.5l217 -261q47 29 89 65t81 77q59 59 106.5 127.5t81 140.5t51 143.5t17.5 137.5q0 172 -101.5 266t-324.5 129l31 145 q281 -37 422 -172t141 -358q0 -78 -23.5 -165t-67.5 -173t-105.5 -170t-135.5 -156q-86 -80 -174 -141q45 -53 80 -88t63.5 -56.5t56.5 -29.5t60 -8q47 0 82 15t52 26l51 -119q-25 -16 -75 -34.5t-118 -18.5q-55 0 -102 15t-91 46t-88 76t-96 104q-80 -39 -161.5 -60.5 t-167.5 -21.5q-88 0 -156 28t-113 76t-67.5 112.5t-22.5 138.5zM266 348q0 -117 56.5 -171t160.5 -54q109 0 215 47l-260 303l29 90q117 27 185.5 88.5t68.5 128.5q0 88 -113 88q-68 0 -130 -44t-109 -116.5t-75 -167t-28 -192.5z" />
<glyph unicode="'" horiz-adv-x="442" d="M229 901l41 463h205l-119 -463h-127z" />
<glyph unicode="(" horiz-adv-x="620" d="M80 346q0 221 59.5 404.5t143.5 325t176 241.5t157 158h168q-68 -63 -158.5 -167t-171.5 -245t-137.5 -320.5t-56.5 -394.5q0 -129 18.5 -234.5t48 -191.5t66.5 -154.5t74 -125.5h-156q-31 39 -70.5 102t-75.5 150.5t-60.5 200t-24.5 251.5z" />
<glyph unicode=")" horiz-adv-x="628" d="M-150 -358q86 82 181.5 196.5t175.5 260t132 319.5t52 375q0 127 -21.5 234.5t-53 193.5t-68.5 149.5t-68 104.5h160q31 -37 71 -99.5t75.5 -148.5t60 -194.5t24.5 -237.5q0 -152 -29.5 -286t-77.5 -250t-107.5 -213t-121 -175t-117 -135.5t-93.5 -93.5h-175z" />
<glyph unicode="*" horiz-adv-x="940" d="M135 1047l60 129l254 -97l38 285h154l-61 -287l274 97l31 -134l-293 -71l147 -246l-125 -66l-125 250l-206 -250l-107 82l219 234z" />
<glyph unicode="+" horiz-adv-x="1146" d="M147 471l25 141h363l63 373h156l-64 -373h365l-27 -141h-364l-68 -391h-156l68 391h-361z" />
<glyph unicode="," horiz-adv-x="462" d="M-8 -240q41 41 76.5 86t35.5 101q0 27 -9 46t-21.5 37.5t-21.5 40t-9 52.5q0 53 36 89t89 36q55 0 96 -39t41 -109q0 -63 -23.5 -123.5t-59.5 -113.5t-79 -96t-80 -72z" />
<glyph unicode="-" horiz-adv-x="630" d="M106 512l27 147h422l-27 -147h-422z" />
<glyph unicode="." horiz-adv-x="462" d="M39 115q0 53 40 91t95 38q53 0 93 -38t40 -91q0 -55 -40 -94t-93 -39q-55 0 -95 38.5t-40 94.5z" />
<glyph unicode="/" horiz-adv-x="841" d="M-121 -330l948 1805h162l-946 -1805h-164z" />
<glyph unicode="0" horiz-adv-x="1095" d="M90 406q0 119 41 229t113.5 193t173 133.5t217.5 50.5q104 0 178 -37t120 -97.5t67.5 -136t21.5 -153.5q0 -123 -40 -233.5t-111.5 -195.5t-172 -134.5t-221.5 -49.5q-98 0 -172 38t-121 99.5t-70.5 138.5t-23.5 155zM264 414q0 -141 58.5 -219t171.5 -78q80 0 145.5 38 t111.5 102.5t71.5 149.5t25.5 177q0 55 -11.5 107t-38 92t-70.5 64.5t-110 24.5q-76 0 -140 -37.5t-112.5 -100t-75 -145.5t-26.5 -175z" />
<glyph unicode="1" horiz-adv-x="673" d="M100 893l346 92h134l-179 -985h-174l152 823l-244 -71z" />
<glyph unicode="2" horiz-adv-x="937" d="M-12 0l10 80q147 98 268 184t206 165t132 152.5t47 151.5q0 61 -43 95t-121 34q-82 0 -146.5 -30.5t-109.5 -65.5l-79 113q31 25 68.5 48t82.5 41.5t96.5 31t108.5 12.5q150 0 236.5 -69t86.5 -191q0 -98 -56 -189.5t-137 -170.5t-174 -143.5t-167 -111.5q25 2 47 4 q20 2 45 3t47 1h371l-25 -145h-794z" />
<glyph unicode="3" horiz-adv-x="903" d="M-37 -360l41 137q16 -4 56 -11.5t102 -7.5q82 0 154.5 20.5t125 60.5t83 98.5t30.5 134.5q0 66 -27.5 110.5t-73.5 71.5t-107.5 38t-131.5 11l21 129q68 0 138 19.5t127.5 56.5t93.5 90t36 121q0 61 -43 102t-129 41q-82 0 -135.5 -26.5t-104.5 -59.5l-80 113 q61 47 145.5 85t204.5 38q80 0 141.5 -22.5t102.5 -59.5t61.5 -86t20.5 -103q0 -72 -30.5 -131t-80 -105t-109.5 -79t-118 -49v-2q51 -10 99.5 -34t85 -61.5t59 -88t22.5 -109.5q0 -109 -48 -195t-129 -146t-187 -93t-225 -33q-78 0 -123 9t-68 16z" />
<glyph unicode="4" horiz-adv-x="1087" d="M-29 0l17 111l782 874h168l-156 -844h213l-22 -141h-217l-66 -362h-174l68 362h-613zM193 141h417l115 602h-4z" />
<glyph unicode="5" horiz-adv-x="864" d="M-41 -360l41 137q16 -4 55 -11.5t105 -7.5q86 0 157.5 22.5t124 64.5t81 103.5t28.5 139.5q0 86 -31 141.5t-90 89.5q-57 33 -130 45.5t-165 8.5l119 612h604l-22 -137h-439l-69 -346q88 -8 163.5 -39t130 -82t85 -119.5t30.5 -155.5q0 -117 -45 -208t-124 -154t-186 -96 t-232 -33q-78 0 -123 9t-68 16z" />
<glyph unicode="6" horiz-adv-x="1073" d="M113 471q0 168 62.5 333t183 295t299 210t409.5 80l16 -144q-141 0 -263 -34.5t-218 -100.5q-106 -72 -179 -174.5t-108 -237.5q63 53 139 83t169 30q166 0 265 -91t99 -249q0 -104 -36 -195.5t-100.5 -158t-152.5 -104.5t-190 -38q-92 0 -166 35t-125 99.5t-77.5 155.5 t-26.5 206zM287 461q0 -162 58 -253t175 -91q68 0 123 27.5t93 74.5t58.5 109.5t20.5 132.5q0 98 -56.5 154.5t-170.5 56.5q-92 0 -163 -29t-134 -86q-2 -25 -3 -49.5t-1 -46.5z" />
<glyph unicode="7" horiz-adv-x="927" d="M-16 -330l727 1168h-615l27 147h809l-19 -115l-792 -1278z" />
<glyph unicode="8" horiz-adv-x="1009" d="M57 293q0 74 27 135t74 112.5t110.5 93.5t139.5 77q-94 70 -144.5 148.5t-50.5 160.5t34 150.5t91 116.5t133 75t158 27q88 0 155.5 -25t111.5 -64.5t66.5 -93t22.5 -108.5q0 -123 -81 -212t-234 -165q96 -66 161.5 -146.5t65.5 -189.5q0 -90 -39 -166t-103.5 -130 t-149.5 -84t-175 -30q-96 0 -165.5 27t-116 72t-69 102t-22.5 117zM233 309q0 -86 55.5 -135t151.5 -49q55 0 104.5 18.5t88.5 51t61.5 78.5t22.5 102q0 74 -49.5 134t-151.5 130q-123 -61 -203 -139t-80 -191zM389 1034q0 -74 48 -131t126 -110q102 53 173 123.5t71 160.5 q0 66 -46 117t-145 51q-45 0 -86 -14t-72.5 -41t-50 -67t-18.5 -89z" />
<glyph unicode="9" horiz-adv-x="1046" d="M-14 -240q174 0 321.5 56.5t251.5 160.5q59 59 104 132t72 161q-49 -35 -120.5 -64.5t-153.5 -29.5q-88 0 -154.5 26.5t-113 74t-70 112t-23.5 139.5q0 104 39 193.5t104.5 154t151.5 100.5t180 36q100 0 172 -34t118 -92.5t68.5 -138t22.5 -172.5q0 -215 -68.5 -391 t-194.5 -301t-301 -193.5t-388 -68.5zM276 541q0 -100 52.5 -166t163.5 -66q82 0 150.5 29t125.5 72q8 39 11 79.5t3 83.5q0 137 -52 218t-167 81q-57 0 -108.5 -23.5t-91 -66.5t-63.5 -104.5t-24 -136.5z" />
<glyph unicode=":" horiz-adv-x="462" d="M39 115q0 53 40 91t95 38q53 0 93 -38t40 -91q0 -55 -40 -94t-93 -39q-55 0 -95 38.5t-40 94.5zM166 866q0 53 40 91t95 38q53 0 93 -37.5t40 -91.5q0 -55 -40 -94t-93 -39q-55 0 -95 39t-40 94z" />
<glyph unicode=";" horiz-adv-x="462" d="M-8 -240q41 41 76.5 86t35.5 101q0 27 -9 46t-21.5 37.5t-21.5 40t-9 52.5q0 53 36 89t89 36q55 0 96 -39t41 -109q0 -63 -23.5 -123.5t-59.5 -113.5t-79 -96t-80 -72zM168 866q0 53 39 91t96 38q53 0 93 -37.5t40 -91.5q0 -55 -40 -94t-93 -39q-57 0 -96 39t-39 94z" />
<glyph unicode="&#x3c;" horiz-adv-x="872" d="M131 506l574 450l86 -110l-453 -352l328 -347l-103 -96z" />
<glyph unicode="=" horiz-adv-x="1077" d="M102 299l27 145h799l-25 -145h-801zM164 643l26 145h799l-24 -145h-801z" />
<glyph unicode="&#x3e;" horiz-adv-x="872" d="M80 162l452 352l-325 346l100 96l432 -454l-571 -451z" />
<glyph unicode="?" horiz-adv-x="831" d="M109 111q0 49 37.5 85.5t93.5 36.5q53 0 91 -36.5t38 -85.5q0 -53 -38 -91t-91 -38q-55 0 -93 37.5t-38 91.5zM209 408l20 124q8 49 20.5 86t34 66t54.5 54.5t82 54.5q51 29 93 55t72.5 58t47 71t16.5 92q0 78 -50 124t-153 46q-57 0 -102 -15.5t-70 -25.5l-51 135 q41 20 105.5 38t148.5 18q88 0 154.5 -25t111.5 -66t68 -95t23 -113q0 -82 -29 -142.5t-74 -107.5t-101.5 -83t-111.5 -67q-59 -35 -90 -72.5t-41 -103.5l-20 -106h-158z" />
<glyph unicode="@" horiz-adv-x="1576" d="M82 492q0 152 56.5 293t155.5 249.5t236.5 174t300.5 65.5q166 0 292 -57.5t211 -147.5t129 -199.5t44 -216.5q0 -98 -26.5 -187t-75.5 -154.5t-116.5 -104.5t-147.5 -39q-104 0 -159.5 61.5t-57.5 157.5h-4q-14 -33 -38 -70.5t-60 -70.5t-81 -54.5t-102 -21.5 q-47 0 -84 20.5t-61.5 53t-38 75.5t-13.5 89q0 100 28 198.5t82 175t135 123.5t190 47q70 0 137 -16t114 -29l-53 -297q-6 -41 -15 -89t-9 -93q0 -55 27.5 -94t72.5 -39q49 0 91 26.5t71.5 73.5t47 109.5t17.5 134.5q0 113 -42 207t-115.5 161.5t-174 104.5t-217.5 37 t-224 -51t-191 -139.5t-134.5 -207t-50.5 -253.5q0 -123 37 -225.5t108.5 -177.5t175 -116.5t236.5 -41.5q88 0 171 18t133 41l49 -115q-57 -23 -157.5 -46t-217.5 -23q-160 0 -287 53t-214 145t-134 216t-47 266zM606 432q0 -43 18.5 -84t59.5 -41q57 0 103.5 46t82 116 t59 150.5t38.5 152.5l8 45q-16 6 -51 12.5t-58 6.5q-59 0 -107 -34t-82 -90.5t-52.5 -129t-18.5 -150.5z" />
<glyph unicode="A" horiz-adv-x="1263" d="M-47 0l764 1364h176l242 -1364h-189l-51 322h-580l-176 -322h-186zM399 475h471l-69 432q-8 47 -14.5 92t-10.5 80q-6 41 -10 80h-4q-18 -39 -39 -80q-16 -35 -40 -80t-48 -92z" />
<glyph unicode="B" horiz-adv-x="1159" d="M96 0l244 1364h360q176 0 285 -75t109 -224q0 -145 -79 -233.5t-216 -122.5v-4q104 -20 173.5 -89t69.5 -182q0 -111 -42 -192.5t-116.5 -136t-180 -80t-230.5 -25.5h-377zM303 150h184q199 0 284 70.5t85 207.5q0 96 -65.5 153.5t-206.5 57.5h-195zM414 780h188 q156 0 230.5 70t74.5 186q0 90 -55 134t-182 44h-178z" />
<glyph unicode="C" horiz-adv-x="1245" d="M115 549q0 172 59 324.5t164.5 267t250 181.5t312.5 67q76 0 133.5 -7.5t103.5 -20.5t80.5 -30.5t63.5 -38.5l-102 -137q-51 37 -120 58.5t-171 21.5q-127 0 -234.5 -53.5t-184.5 -145.5t-120 -216t-43 -263q0 -90 21.5 -168t68.5 -135t119 -90t174 -33q111 0 191 35 t147 88l78 -131q-31 -29 -78 -55.5t-103.5 -47t-119.5 -33t-129 -12.5q-143 0 -248.5 45.5t-175.5 123t-103.5 182t-33.5 223.5z" />
<glyph unicode="D" horiz-adv-x="1363" d="M96 0l244 1364h319q168 0 292 -38t205 -107.5t120 -168t39 -216.5q0 -162 -52.5 -312.5t-157 -266.5t-263 -185.5t-371.5 -69.5h-375zM307 152h195q152 0 267.5 52t194 142t118.5 213t40 264q0 203 -115.5 296t-365.5 93h-147z" />
<glyph unicode="E" horiz-adv-x="1021" d="M96 0l244 1364h702l-28 -156h-520l-76 -411h461l-29 -154h-457l-88 -487h537l-29 -156h-717z" />
<glyph unicode="F" horiz-adv-x="999" d="M96 0l244 1364h715l-29 -156h-532l-76 -417h467l-29 -152h-463l-114 -639h-183z" />
<glyph unicode="G" horiz-adv-x="1417" d="M117 551q0 170 60.5 322.5t168 267t253.5 181.5t319 67q166 0 267 -37t154 -76l-106 -139q-51 41 -135 69.5t-197 28.5q-133 0 -242.5 -53.5t-187.5 -145.5t-120 -216t-42 -263q0 -94 24.5 -173t75 -136.5t127 -89t181.5 -31.5q72 0 127 10t94 23.5t62.5 27t31.5 17.5 l64 364h-289l29 152h467l-111 -610q-12 -8 -49 -31t-98.5 -45.5t-146.5 -41t-191 -18.5q-145 0 -256 45.5t-184.5 123t-111.5 182t-38 225.5z" />
<glyph unicode="H" horiz-adv-x="1462" d="M96 0l242 1364h182l-100 -569h725l102 569h183l-244 -1364h-182l114 639h-725l-114 -639h-183z" />
<glyph unicode="I" horiz-adv-x="577" d="M109 0l243 1364h183l-244 -1364h-182z" />
<glyph unicode="J" horiz-adv-x="571" d="M-227 -371l61 156q10 -4 28.5 -10t49.5 -6q82 0 130 56t69 179l243 1360h181l-248 -1389q-31 -182 -125 -276t-254 -94q-49 0 -85 9t-50 15z" />
<glyph unicode="K" horiz-adv-x="1161" d="M96 0l244 1364h178l-242 -1364h-180zM408 713l636 651h211l-645 -653l453 -711h-205z" />
<glyph unicode="L" horiz-adv-x="952" d="M96 0l244 1364h180l-213 -1210h518l-26 -154h-703z" />
<glyph unicode="M" horiz-adv-x="1724" d="M35 0l424 1364h168l149 -965q10 -61 14.5 -108t10.5 -96h4q25 53 47 101t51 103l502 965h170l-68 -1364h-176l47 860q4 72 9.5 119t9.5 80h-4q-16 -33 -36 -75t-52 -105l-457 -879h-170l-135 868q-10 66 -16.5 113t-10.5 78h-4q-6 -33 -18.5 -80t-34.5 -119l-256 -860 h-168z" />
<glyph unicode="N" horiz-adv-x="1421" d="M90 0l244 1364h178l440 -907q29 -59 51.5 -114.5t32.5 -90.5h4q4 35 12.5 94.5t18.5 122.5l158 895h166l-242 -1364h-166l-457 936q-27 53 -43 98l-32 90h-4q-4 -35 -11.5 -84t-17.5 -114l-166 -926h-166z" />
<glyph unicode="O" horiz-adv-x="1509" d="M119 565q0 154 54 301.5t152.5 263t237.5 187.5t311 72q147 0 256 -48.5t180.5 -130.5t106.5 -189.5t35 -225.5q0 -152 -52 -299.5t-149.5 -263t-238 -186.5t-314.5 -71q-139 0 -246.5 48.5t-181 130.5t-112.5 188.5t-39 222.5zM309 567q0 -90 26.5 -170t78 -139 t126.5 -94t169 -35q131 0 233 57.5t173 150.5t109 213t38 247q0 88 -25 167.5t-75 139t-124.5 95.5t-175.5 36q-131 0 -233.5 -56.5t-173 -149.5t-108.5 -214t-38 -248z" />
<glyph unicode="P" horiz-adv-x="1097" d="M96 0l244 1364h342q193 0 310.5 -88t117.5 -256q0 -117 -43 -206t-119 -150.5t-182.5 -93t-230.5 -31.5h-160l-96 -539h-183zM401 690h152q186 0 276.5 84t90.5 223q0 98 -60.5 156.5t-208.5 58.5h-157z" />
<glyph unicode="Q" horiz-adv-x="1511" d="M119 565q0 154 54 301.5t152.5 263t237.5 187.5t311 72q147 0 256 -48.5t180.5 -130.5t106.5 -189.5t35 -225.5q0 -147 -49 -291t-141.5 -257.5t-224.5 -187.5t-298 -82q59 -88 130 -127.5t171 -39.5q82 0 145.5 26.5t88.5 42.5l59 -133q-41 -27 -118.5 -55.5 t-192.5 -28.5q-158 0 -286 80t-238 264q-92 31 -163 86t-119 129t-72.5 162t-24.5 182zM309 567q0 -90 26.5 -171t78 -140t126.5 -94t169 -35q131 0 233 57.5t173 151.5t109 214t38 247q0 88 -25 167.5t-75 139t-124.5 95.5t-175.5 36q-131 0 -233.5 -56.5t-173 -149.5 t-108.5 -214t-38 -248z" />
<glyph unicode="R" horiz-adv-x="1183" d="M96 0l244 1364h373q186 0 289.5 -84t103.5 -233q0 -184 -117 -289t-315 -121v-4q25 -16 55.5 -55t75.5 -123l246 -455h-201l-209 393q-37 70 -63.5 114t-51 68.5t-51 32.5t-65.5 8h-21l-110 -616h-183zM412 762h198q162 0 236 75.5t74 196.5q0 178 -240 178h-184z" />
<glyph unicode="S" horiz-adv-x="942" d="M-16 135l110 125q20 -18 48 -40.5t66 -43t87 -34t115 -13.5q127 0 182 64.5t55 152.5q0 47 -14.5 84t-42 71t-66.5 69.5t-90 78.5q-49 43 -94 86t-80 90t-56.5 101.5t-21.5 120.5q0 84 31 148.5t85 107.5t127 64.5t159 21.5q68 0 121 -11.5t94 -28t70.5 -36t50.5 -33.5 l-93 -135q-39 31 -96 61.5t-158 30.5q-109 0 -160 -50t-51 -138q0 -80 54.5 -139.5t148.5 -139.5q51 -43 99.5 -87t85 -93t58 -106.5t21.5 -131.5q0 -70 -24.5 -137.5t-76.5 -120.5t-134 -86t-195 -33q-88 0 -155.5 17.5t-118.5 42t-86 52.5t-55 48z" />
<glyph unicode="T" horiz-adv-x="1013" d="M164 1208l26 156h936l-24 -156h-373l-215 -1208h-184l217 1208h-383z" />
<glyph unicode="U" horiz-adv-x="1392" d="M173 296q-7 43 -7 90q0 61 12 130l150 848h180l-146 -829q-14 -76 -14 -137q0 -108 44 -170q69 -96 255 -95q180 0 274.5 96.5t129.5 294.5l149 840h170l-153 -864q-23 -123 -66 -220.5t-113.5 -165t-171 -103.5t-235.5 -36q-137 0 -232.5 40t-152 111t-73.5 170z" />
<glyph unicode="V" horiz-adv-x="1230" d="M178 1364h184l175 -915q14 -70 24 -138.5t14 -103.5h5q16 37 45.5 105.5t64.5 136.5l467 915h186l-716 -1364h-172z" />
<glyph unicode="W" horiz-adv-x="1769" d="M193 1364h182l69 -817q6 -84 11.5 -159t7.5 -126h4q16 49 48 123t69 160l358 819h182l93 -848q10 -86 14 -144.5t8 -109.5h4q18 53 42 110.5t61 145.5l348 846h188l-598 -1364h-170l-92 842q-10 90 -15.5 162.5t-11.5 140.5h-4q-25 -68 -56.5 -140.5t-72.5 -162.5 l-377 -842h-163z" />
<glyph unicode="X" horiz-adv-x="1155" d="M-37 0l551 711l-285 653h191l217 -524l381 524h199l-508 -662l307 -702h-191l-239 573l-422 -573h-201z" />
<glyph unicode="Y" horiz-adv-x="1134" d="M184 1364h189l235 -678h2l447 678h190l-575 -852l-92 -512h-185l94 514z" />
<glyph unicode="Z" horiz-adv-x="1067" d="M-31 0l25 127l885 1085h-660l29 152h889l-23 -121l-895 -1091h725l-26 -152h-949z" />
<glyph unicode="[" horiz-adv-x="630" d="M12 -330l314 1805h424l-25 -132h-258l-268 -1542h260l-25 -131h-422z" />
<glyph unicode="\" horiz-adv-x="782" d="M160 1475h153l332 -1805h-151z" />
<glyph unicode="]" horiz-adv-x="628" d="M-94 -330l24 131h256l269 1542h-258l22 132h424l-313 -1805h-424z" />
<glyph unicode="^" horiz-adv-x="1230" d="M152 590l548 774h119l271 -774h-152l-203 604l-424 -604h-159z" />
<glyph unicode="_" horiz-adv-x="806" d="M-152 -336l27 141h815l-26 -141h-816z" />
<glyph unicode="`" horiz-adv-x="1024" d="M334 1368h227l139 -262h-145z" />
<glyph unicode="a" horiz-adv-x="1001" d="M59 283q0 141 40 272t116 232.5t185.5 163t250.5 61.5q111 0 185.5 -16.5t105.5 -26.5l-94 -525q-37 -207 -49.5 -320.5t-12.5 -123.5h-168q10 78 21.5 146.5t30.5 144.5h-4q-31 -61 -66 -117.5t-78 -100.5t-96 -71t-121 -27q-123 0 -184.5 85t-61.5 223zM233 309 q0 -96 30 -139t89 -43q61 0 123 56.5t114 146.5t91 203.5t55 228.5l15 88q-16 6 -52 12t-77 6q-90 0 -162 -46t-122 -123.5t-77 -179t-27 -210.5z" />
<glyph unicode="b" horiz-adv-x="1040" d="M53 16l264 1459h170l-90 -492q-12 -68 -27.5 -135.5t-37.5 -147.5h4q33 59 69.5 115.5t83 99.5t100.5 70t122 27q63 0 108 -24.5t75 -69t44 -102.5t14 -126q0 -141 -41 -270t-116.5 -228.5t-184 -158t-243.5 -58.5q-57 0 -108.5 5.5t-93.5 12.5t-70.5 13t-41.5 10z M248 133q12 -4 43 -10t92 -6q92 0 165 45t124 120.5t77.5 177t26.5 212.5q0 82 -26.5 134t-85.5 52q-70 0 -133.5 -58.5t-116 -150.5t-91 -204.5t-59.5 -223.5z" />
<glyph unicode="c" horiz-adv-x="819" d="M53 360q0 141 46 261t123 206t175.5 135.5t204.5 49.5q98 0 152.5 -22.5t87.5 -45.5l-82 -133q-23 16 -63 32.5t-111 16.5q-66 0 -130.5 -33.5t-115.5 -96t-83 -152t-32 -199.5q0 -133 49.5 -194.5t135.5 -61.5q43 0 79.5 11t65.5 28.5t51.5 36t36.5 32.5l90 -112 q-20 -20 -53 -45t-76 -46.5t-97.5 -37t-115.5 -15.5q-158 0 -248 101.5t-90 283.5z" />
<glyph unicode="d" horiz-adv-x="1007" d="M61 295q0 147 42 277t119 227.5t185.5 155t241.5 57.5q59 0 91 -6.5t53 -10.5l88 480h170l-187 -1031q-37 -207 -50 -320.5t-13 -123.5h-166q10 78 21.5 147.5t29.5 145.5h-4q-33 -59 -71 -116.5t-84 -101.5t-100 -72t-120 -28t-111.5 26t-75.5 69t-44.5 101t-14.5 124z M236 322q0 -86 25.5 -140.5t84.5 -54.5q68 0 132.5 55.5t118.5 145.5t94 203.5t61 230.5l14 90q-16 6 -56 13t-87 7q-90 0 -161 -45t-122 -121.5t-77.5 -176t-26.5 -207.5z" />
<glyph unicode="e" horiz-adv-x="878" d="M53 338q0 139 43 262t116 214t171 144.5t209 53.5q117 0 192.5 -57.5t75.5 -174.5q0 -92 -53 -158.5t-140 -112.5t-202 -74t-238 -44v-35q0 -115 46 -174t139 -59q82 0 148.5 38t107.5 79l90 -115q-25 -23 -59.5 -48.5t-81 -48t-102.5 -38t-126 -15.5q-86 0 -149.5 29 t-104.5 79t-61.5 115.5t-20.5 139.5zM244 514q94 12 175 33.5t140 52.5t93 71t34 93q0 100 -123 100q-51 0 -101 -24.5t-93 -69.5t-76 -110.5t-49 -145.5z" />
<glyph unicode="f" horiz-adv-x="675" d="M-264 -434l55 139q27 -10 58.5 -19.5t72.5 -9.5q45 0 78 19.5t55.5 53.5t35.5 76t22 89l172 938h-189l23 133h190l29 154q33 174 125 267t260 93q88 0 150.5 -22.5t91.5 -40.5l-74 -140q-23 16 -70 34t-106 18q-104 0 -148.5 -63.5t-60.5 -160.5l-12 -69 q-4 -14 -6.5 -25.5t-4.5 -21.5t-4 -23h240l-23 -133h-239l-172 -938q-18 -96 -46 -168t-72 -120t-106.5 -72.5t-148.5 -24.5q-59 0 -100 11t-76 26z" />
<glyph unicode="g" horiz-adv-x="997" d="M-23 -367l89 134q39 -29 94 -57.5t141 -28.5q143 0 215 84.5t100 236.5l15 80q10 57 23.5 109.5t25.5 95.5h-4q-31 -59 -68 -114.5t-82 -98.5t-99 -70t-120 -27t-111.5 26t-75.5 69t-44.5 100t-14.5 123q0 147 41 277t118 227.5t186.5 155t244.5 57.5q104 0 190.5 -14.5 t119.5 -24.5l-179 -971q-23 -125 -62.5 -214t-100 -146.5t-142.5 -84t-188 -26.5q-55 0 -102.5 10t-87.5 25.5t-70.5 34t-51.5 32.5zM236 322q0 -86 25.5 -140.5t84.5 -54.5q70 0 134.5 55.5t117.5 145.5t93 203.5t61 230.5l14 90q-16 6 -55 13t-88 7q-90 0 -161 -45 t-122 -121.5t-77.5 -176t-26.5 -207.5z" />
<glyph unicode="h" horiz-adv-x="1054" d="M59 0l271 1475h170l-92 -488q-10 -55 -17.5 -95t-14.5 -72t-13.5 -60.5t-12.5 -59.5h4q23 43 57.5 96.5t83 101.5t111 81t142.5 33q127 0 177 -94q32 -59 32 -144q0 -50 -11 -108l-121 -666h-170l115 653q9 47 9 84q0 121 -95 121q-55 0 -117.5 -43t-121 -134 t-109.5 -233.5t-88 -341.5l-19 -106h-170z" />
<glyph unicode="i" horiz-adv-x="526" d="M88 0l178 985h170l-178 -985h-170zM281 1282q0 49 34.5 84t83.5 35t83 -35t34 -84q0 -47 -34 -82t-83 -35t-83.5 35t-34.5 82z" />
<glyph unicode="j" horiz-adv-x="485" d="M-307 -442l59 141q10 -6 37 -13.5t64 -7.5q96 0 140 68t66 188l189 1051h172l-191 -1067q-14 -82 -39.5 -153.5t-69.5 -124t-111 -82t-165 -29.5q-59 0 -95 10t-56 19zM262 1282q0 49 35 84t84 35t84 -35t35 -84q0 -47 -35 -82t-84 -35t-84 35t-35 82z" />
<glyph unicode="k" horiz-adv-x="919" d="M49 0l256 1475h172l-256 -1475h-172zM324 549l442 436h207l-465 -442l303 -543h-182z" />
<glyph unicode="l" horiz-adv-x="512" d="M78 0l266 1475h172l-266 -1475h-172z" />
<glyph unicode="m" horiz-adv-x="1622" d="M59 0l179 985h163q-4 -25 -10 -60.5t-14 -77.5t-17.5 -83t-17.5 -74h4q25 49 59.5 105.5t83 104.5t108.5 80t136 32q70 0 113 -29t64.5 -73t23.5 -99q0 -11 1 -22q0 -44 -7 -87h4q31 55 68.5 110.5t85 99.5t105.5 72t132 28q127 0 173 -98q29 -62 30 -148q0 -48 -10 -104 l-121 -662h-168l112 629q7 43 11 84q1 12 2 23q0 28 -6 50q-8 32 -28 52t-58 20q-61 0 -123 -46t-118 -139t-104.5 -234.5t-83.5 -332.5l-18 -106h-170l113 629q6 37 9 77q1 11 1 21q0 28 -6 52q-8 34 -28.5 56.5t-61.5 22.5q-57 0 -117.5 -45t-116 -137t-104.5 -234.5 t-84 -335.5l-19 -106h-170z" />
<glyph unicode="n" horiz-adv-x="1054" d="M59 0l179 985h163q-4 -25 -10 -61.5t-14 -77.5t-18.5 -84t-18.5 -78h4q25 47 61.5 104.5t86 106.5t113 83t143.5 34q127 0 177 -94q32 -59 32 -144q0 -50 -11 -108l-121 -666h-170l115 653q9 47 9 84q0 121 -95 121q-55 0 -117.5 -43t-121 -134t-109.5 -233.5t-88 -341.5 l-19 -106h-170z" />
<glyph unicode="o" horiz-adv-x="991" d="M57 385q0 117 39 229.5t107.5 200.5t164 142.5t205.5 54.5q92 0 160 -33t112 -89t66.5 -130t22.5 -154q0 -125 -39 -239.5t-108.5 -201.5t-164.5 -138.5t-206 -51.5q-96 0 -164 36t-111 94.5t-63.5 132t-20.5 147.5zM227 389q0 -125 50.5 -199.5t150.5 -74.5 q76 0 137.5 44t104.5 111.5t66.5 151.5t23.5 164q0 139 -49 212.5t-150 73.5q-76 0 -137.5 -44t-105.5 -114.5t-67.5 -156.5t-23.5 -168z" />
<glyph unicode="p" horiz-adv-x="1007" d="M-31 -446l262 1431h164q-8 -43 -15 -79t-14.5 -69.5t-15.5 -66.5t-18 -70h4q33 59 69.5 115.5t81.5 99.5t100.5 70t123.5 27q61 0 107 -24.5t76 -69t44 -102.5t14 -126q0 -141 -41 -270t-115.5 -228.5t-182 -158t-242.5 -58.5q-59 0 -98.5 6.5t-53.5 10.5l-80 -438h-170z M248 129q12 -4 42 -10t91 -6q92 0 166 46t124 122.5t77.5 178t27.5 212.5q0 82 -26.5 134t-85.5 52q-70 0 -133.5 -58.5t-116 -149.5t-91 -203.5t-59.5 -223.5z" />
<glyph unicode="q" horiz-adv-x="997" d="M61 295q0 147 41 278.5t118 228.5t186.5 153.5t244.5 56.5q104 0 190.5 -14.5t119.5 -24.5l-263 -1419h-168l86 450q12 66 30 144.5t34 138.5h-4q-31 -59 -69 -115.5t-82 -99.5t-98 -70t-120 -27t-111.5 26t-75.5 69t-44.5 101t-14.5 124zM236 322q0 -86 25.5 -140.5 t84.5 -54.5q68 0 132.5 56.5t118.5 146.5t94 203.5t61 228.5l14 90q-16 6 -56 13t-89 7q-90 0 -161 -45t-121 -121.5t-76.5 -176t-26.5 -207.5z" />
<glyph unicode="r" horiz-adv-x="739" d="M59 0l179 985h163q-10 -78 -29.5 -165t-33.5 -144h4q27 57 63.5 116.5t81.5 108.5t97.5 80t107.5 31q37 0 59.5 -5.5t43.5 -15.5l-66 -164q-14 4 -28.5 7.5t-34.5 3.5q-125 0 -239 -182.5t-179 -549.5l-19 -106h-170z" />
<glyph unicode="s" horiz-adv-x="735" d="M-20 78l86 121q39 -29 91 -56.5t132 -27.5q76 0 116.5 35.5t40.5 93.5q0 29 -11 54.5t-31.5 52t-49 57t-65.5 67.5q-70 72 -111 132.5t-41 144.5q0 121 86 190.5t234 69.5q86 0 144 -21.5t99 -52.5l-84 -123q-23 16 -64.5 35.5t-109.5 19.5q-66 0 -102.5 -28.5 t-36.5 -81.5q0 -49 33 -90t98 -111q43 -45 76 -82t56.5 -71.5t35.5 -73.5t12 -88q0 -113 -84.5 -191t-250.5 -78q-115 0 -190 36t-109 67z" />
<glyph unicode="t" horiz-adv-x="696" d="M80 852l24 133h170l52 272l180 46l-60 -318h246l-24 -133h-246l-103 -559q-8 -39 -12 -71t0 -53.5t16.5 -33.5t38.5 -12q53 0 98.5 31.5t80.5 58.5l77 -117q-53 -47 -122.5 -84t-167.5 -37q-129 0 -172 73q-26 44 -26 113q0 45 11 101l109 590h-170z" />
<glyph unicode="u" horiz-adv-x="1054" d="M106 319l121 666h170l-114 -651q-9 -48 -9 -85q0 -122 95 -122q53 0 114.5 41t120 128t108.5 222t85 322l26 145h170l-98 -541q-37 -207 -49 -320.5t-12 -123.5h-168q10 76 23 161t30 154h-4q-29 -51 -66 -110.5t-87 -110.5t-113.5 -85t-143.5 -34q-127 1 -177 93 q-32 59 -32 145q0 49 10 106z" />
<glyph unicode="v" horiz-adv-x="878" d="M96 985h174l72 -590q4 -45 8 -92t6 -84h4l414 766h180l-567 -985h-154z" />
<glyph unicode="w" horiz-adv-x="1411" d="M106 985h175l49 -551q4 -55 6 -113.5t4 -93.5h4l373 758h160l36 -541q4 -59 7.5 -115.5t3.5 -86.5h4l377 743h178l-527 -985h-149l-53 764h-4l-388 -764h-147z" />
<glyph unicode="x" horiz-adv-x="894" d="M-76 0l426 510l-231 475h186l156 -344l270 344h189l-394 -475l242 -510h-188l-168 377l-301 -377h-187z" />
<glyph unicode="y" horiz-adv-x="921" d="M-190 -418l67 139q14 -8 43 -15t76 -7q41 0 77 12.5t72.5 43t74.5 82.5t85 132l-199 1016h179l121 -690q6 -39 11 -75t9 -64h4q10 29 22.5 65.5t28.5 73.5l316 690h180l-387 -790q-82 -170 -149.5 -292t-136 -201t-145.5 -117t-177 -38q-80 0 -119 13.5t-53 21.5z" />
<glyph unicode="z" horiz-adv-x="858" d="M-18 0l18 104l610 744h-460l22 137h680l-18 -111l-613 -737h506l-22 -137h-723z" />
<glyph unicode="{" horiz-adv-x="733" d="M57 520l23 133q225 0 262 217l66 379q20 123 92.5 174.5t171.5 51.5h180l-23 -134h-131q-68 0 -96.5 -40.5t-42.5 -116.5l-59 -346q-23 -123 -85.5 -180.5t-154.5 -77.5v-5q86 -25 127 -83t23 -168l-64 -369q-14 -80 1 -116t83 -36h133l-22 -133h-172q-45 0 -85 16.5 t-68 48.5t-40 77t-2 104l70 381q18 104 -27 161.5t-160 61.5z" />
<glyph unicode="|" horiz-adv-x="575" d="M219 -512v2048h139v-2048h-139z" />
<glyph unicode="}" horiz-adv-x="733" d="M-92 -330l22 133h133q70 0 97.5 43t40.5 115l61 365q18 113 81 172t161 88v4q-82 23 -125 83t-25 171l60 346q14 80 -1.5 115.5t-82.5 35.5h-133l22 134h182q43 0 81 -15.5t64.5 -45.5t38 -76t1.5 -107l-64 -361q-16 -100 32 -158.5t153 -62.5l-23 -133q-104 -2 -173 -55 t-87 -164l-70 -401q-23 -123 -95.5 -174.5t-164.5 -51.5h-186z" />
<glyph unicode="~" horiz-adv-x="1202" d="M106 522q23 20 52.5 43t65.5 41.5t77 29.5t84 11q70 0 120 -21.5t97 -47t98.5 -47t122.5 -21.5q53 0 102.5 24.5t90.5 59.5l80 -105q-53 -53 -128 -92t-157 -39t-139.5 21.5t-104.5 48.5t-92 48.5t-102 21.5q-63 0 -106.5 -27t-76.5 -55z" />
<glyph unicode="&#xa1;" horiz-adv-x="522" d="M10 -373l205 946h131l-129 -946h-207zM188 883q0 53 38 90t91 37q55 0 93.5 -37t38.5 -90q0 -51 -38.5 -88t-93.5 -37q-53 0 -91 36.5t-38 88.5z" />
<glyph unicode="&#xa2;" horiz-adv-x="819" d="M53 360q0 123 35 228.5t94.5 188.5t138 140.5t168.5 79.5l39 220h162l-37 -207q72 -6 116 -25.5t73 -40.5l-82 -133q-23 16 -63 32.5t-111 16.5q-66 0 -130.5 -33.5t-115.5 -96t-83 -152t-32 -199.5q0 -133 49.5 -194.5t135.5 -61.5q43 0 79.5 11t65.5 28.5t51.5 36 t36.5 32.5l90 -112q-16 -16 -41.5 -37t-59.5 -40t-74 -35.5t-87 -24.5l-39 -234h-162l41 236q-123 25 -190.5 122t-67.5 254z" />
<glyph unicode="&#xa3;" horiz-adv-x="995" d="M14 0l21 115q61 33 109.5 79t83 99t56 108.5t29.5 104.5q4 23 6.5 46t4.5 46h-195l23 135h178q2 66 5 135.5t15 141.5q31 182 132.5 280.5t283.5 98.5q106 0 160.5 -24t89.5 -48l-82 -135q-29 18 -70 38.5t-114 20.5q-92 0 -145.5 -58.5t-78.5 -187.5q-12 -66 -15 -130 t-7 -132h297l-23 -135h-284q-2 -45 -13 -94q-12 -72 -35.5 -129.5t-53.5 -102.5t-61.5 -75.5t-60.5 -51.5h512l-24 -145h-744z" />
<glyph unicode="&#xa4;" horiz-adv-x="1126" d="M41 457l22 131h136q2 41 7 80t13 77h-127l23 134h139q37 113 99.5 207t144.5 161.5t182 104.5t217 37q68 0 117 -7.5t86 -18.5t63.5 -26.5t48.5 -31.5l-94 -138q-35 23 -88 45.5t-151 22.5q-158 0 -267.5 -98.5t-169.5 -257.5h361l-23 -134h-374q-8 -39 -12.5 -77.5 t-8.5 -79.5h367l-25 -131h-342q12 -145 85 -235.5t224 -90.5q88 0 156 28.5t108 55.5l62 -141q-51 -33 -133 -66t-213 -33q-117 0 -202 38t-143.5 104.5t-90 153.5t-39.5 186h-158z" />
<glyph unicode="&#xa5;" horiz-adv-x="1130" d="M102 193l25 133h332l3 14t7 35.5t8 46t8 45.5h-335l24 133h289l-275 764h181l235 -694h2l453 694h186l-518 -764h289l-27 -133h-330q-4 -20 -8 -45t-8 -46.5t-7 -35.5l-3 -14h334l-25 -133h-332l-35 -193h-174l35 193h-334z" />
<glyph unicode="&#xa6;" d="M143 -442v1917h1917v-1917h-1917zM297 -289h1610v1610h-1610v-1610zM776 0v1047h146v-496l411 496h166l-414 -492l441 -555h-180q-119 150 -213 268q-41 51 -79 98.5t-67 86.5q-35 43 -65 84v-537h-146z" />
<glyph unicode="&#xa7;" horiz-adv-x="866" d="M-2 -238l86 125q23 -18 59.5 -34.5t100.5 -16.5q96 0 143 54.5t47 134.5q0 72 -50 147.5t-110.5 158.5t-110.5 176t-50 198q0 98 52 165.5t140 118.5q-39 78 -39 160q0 88 33 154.5t85 109.5t116.5 64.5t130.5 21.5q102 0 155.5 -19.5t90.5 -43.5l-86 -131 q-23 16 -60 33.5t-108 17.5q-92 0 -138.5 -56.5t-46.5 -142.5q0 -72 50.5 -145.5t110.5 -153.5t110.5 -170t50.5 -190q0 -106 -53.5 -176t-137.5 -125q16 -37 26.5 -74t10.5 -78q0 -92 -29.5 -158.5t-80 -110.5t-117 -65.5t-139.5 -21.5q-94 0 -153.5 25.5t-88.5 47.5z M283 717q0 -55 28.5 -114.5t87.5 -143.5q29 -41 54.5 -77t50.5 -73q47 37 68.5 78t21.5 92q0 59 -46 139t-120 181q-16 20 -30.5 40.5t-30.5 43.5q-41 -29 -62.5 -68t-21.5 -98z" />
<glyph unicode="&#xa8;" horiz-adv-x="1024" d="M334 1221q0 47 31.5 78.5t78.5 31.5q51 0 82 -31.5t31 -78.5t-32 -79t-81 -32q-47 0 -78.5 32t-31.5 79zM719 1221q0 47 31.5 78.5t78.5 31.5q51 0 82 -31.5t31 -78.5t-32 -79t-81 -32q-47 0 -78.5 32t-31.5 79z" />
<glyph unicode="&#xa9;" horiz-adv-x="1738" d="M150 735q0 158 59 297t162.5 242.5t242 164t295.5 60.5q158 0 296 -60.5t241.5 -164t164 -242.5t60.5 -297t-60.5 -297t-164 -242.5t-241.5 -164t-296 -60.5t-296 60.5t-241.5 164t-162.5 243t-59 296.5zM272 735q0 -141 48.5 -260t133.5 -205t201.5 -134t253.5 -48 t254 48t202 134t133 205t48 260t-48 260t-133 205t-201.5 134t-254.5 48q-137 0 -253.5 -48t-201.5 -134t-133.5 -204.5t-48.5 -260.5zM461 735q0 100 35.5 186.5t98 150t147.5 99t184 35.5q109 0 175 -31.5t116 -70.5l-84 -111q-31 27 -79 52.5t-128 25.5 q-76 0 -133.5 -29.5t-95.5 -76.5t-56 -106.5t-18 -119.5q0 -72 23.5 -134t65.5 -108t99 -73t123 -27q90 0 144.5 31t86.5 59l72 -112q-49 -41 -122.5 -76t-188.5 -35q-102 0 -187.5 37t-147 101.5t-96 150.5t-34.5 182z" />
<glyph unicode="&#xaa;" horiz-adv-x="727" d="M127 854q0 100 31.5 196.5t89 172t139.5 121t182 45.5q82 0 138.5 -13.5t78.5 -21.5l-67 -377q-12 -61 -19.5 -117.5t-12.5 -98.5t-7 -68.5t-2 -30.5h-135q8 57 14 106t21 104h-3q-47 -96 -113.5 -162.5t-152.5 -66.5t-134 59.5t-48 151.5zM272 872q0 -41 17.5 -71.5 t60.5 -30.5t86 38t80 99.5t65.5 140t43.5 162.5l8 47q-12 4 -36 8.5t-48 4.5q-61 0 -112.5 -32t-87.5 -86t-56.5 -126t-20.5 -154z" />
<glyph unicode="&#xab;" horiz-adv-x="952" d="M59 502l336 391h189l-344 -404l190 -376h-172zM440 502l336 391h189l-344 -404l190 -376h-172z" />
<glyph unicode="&#xac;" horiz-adv-x="989" d="M59 0l267 1475h170l-74 -422q-12 -59 -30.5 -137t-33.5 -132h7q29 43 63.5 84t75.5 73t90 51.5t108 19.5q109 0 171.5 -65.5t62.5 -162.5q0 -86 -32 -149.5t-84 -107.5t-116.5 -73.5t-128.5 -50.5l289 -403h-190l-328 461q78 8 153.5 30.5t135 57.5t96.5 86t37 119 q0 53 -28.5 83.5t-90.5 30.5q-53 0 -107.5 -36.5t-102.5 -99t-85 -147.5t-53 -182l-70 -403h-172z" />
<glyph unicode="&#xad;" horiz-adv-x="630" d="M106 512l27 147h422l-27 -147h-422z" />
<glyph unicode="&#xae;" horiz-adv-x="1738" d="M150 735q0 158 59 297t162.5 242.5t242 164t295.5 60.5q158 0 296 -60.5t241.5 -164t164 -242.5t60.5 -297t-60.5 -297t-164 -242.5t-241.5 -164t-296 -60.5t-296 60.5t-241.5 164t-162.5 243t-59 296.5zM272 735q0 -141 48.5 -260t133.5 -205t201.5 -134t253.5 -48 t254 48t202 134t133 205t48 260t-48 260t-133 205t-201.5 134t-254.5 48q-137 0 -253.5 -48t-201.5 -134t-133.5 -204.5t-48.5 -260.5zM631 287v911h299q72 0 126 -20.5t90 -56.5t54.5 -83t18.5 -98q0 -102 -62.5 -161.5t-173.5 -76.5q29 -23 53.5 -51t53.5 -69l202 -295 h-170l-211 315q-35 49 -61.5 68.5t-75.5 19.5v-403h-143zM774 799h90q37 0 74 4t65.5 18.5t46 42t17.5 74.5q0 63 -37 101t-129 38h-127v-278z" />
<glyph unicode="&#xaf;" horiz-adv-x="1024" d="M350 1171l25 138h559l-27 -138h-557z" />
<glyph unicode="&#xb0;" horiz-adv-x="694" d="M170 1118q0 55 21.5 104.5t57.5 86.5t85 58.5t104 21.5t104.5 -21.5t85.5 -58.5t57.5 -86t21.5 -105q0 -55 -20.5 -104t-57.5 -86t-86.5 -58.5t-104.5 -21.5t-104 21.5t-85 58.5t-57.5 86t-21.5 104zM293 1118q0 -66 39.5 -111.5t105.5 -45.5t107 46t41 111q0 66 -41 112 t-107 46t-105.5 -46t-39.5 -112z" />
<glyph unicode="&#xb1;" horiz-adv-x="1722" d="M-262 -440l53 139q29 -12 60.5 -20.5t72.5 -8.5q45 0 78 19.5t54.5 53.5t35.5 76t23 89l172 944h-191l23 133h192l21 109q39 203 140 296t286 93q111 0 179.5 -29t111.5 -61q57 55 136 80.5t179 25.5q135 0 219 -19.5t137 -41.5l-260 -1438h-170l238 1325 q-35 10 -78 16.5t-102 6.5q-115 0 -172.5 -52.5t-79.5 -175.5l-25 -135h234l-25 -133h-233l-170 -938q-16 -92 -44 -161.5t-71 -117t-103.5 -72t-146.5 -24.5q-57 0 -98 10.5t-74 26.5l55 137q27 -10 56.5 -19t70.5 -9q43 0 74 19.5t52.5 51t34.5 73.5t22 85l172 938h-418 l-172 -944q-18 -96 -46 -168t-72 -120t-106.5 -72.5t-148.5 -24.5q-59 0 -100 11t-76 26zM481 985h420l29 154q6 35 15 65.5t20 59.5q-33 27 -83.5 47t-131.5 20q-115 0 -170.5 -57t-79.5 -195z" />
<glyph unicode="&#xb2;" d="M143 -442v1917h1917v-1917h-1917zM297 -289h1610v1610h-1610v-1610zM776 0v1047h146v-496l411 496h166l-414 -492l441 -555h-180q-119 150 -213 268q-41 51 -79 98.5t-67 86.5q-35 43 -65 84v-537h-146z" />
<glyph unicode="&#xb3;" d="M143 -442v1917h1917v-1917h-1917zM297 -289h1610v1610h-1610v-1610zM776 0v1047h146v-496l411 496h166l-414 -492l441 -555h-180q-119 150 -213 268q-41 51 -79 98.5t-67 86.5q-35 43 -65 84v-537h-146z" />
<glyph unicode="&#xb4;" horiz-adv-x="1024" d="M311 1106l224 262h251l-315 -262h-160z" />
<glyph unicode="&#xb6;" horiz-adv-x="1255" d="M176 901q0 102 37 187.5t100.5 146.5t149.5 95t186 34h668l-27 -145h-157l-277 -1581h-156l279 1581h-199l-278 -1581h-156l160 915q-72 0 -131.5 25.5t-104.5 71.5t-69.5 109.5t-24.5 141.5z" />
<glyph unicode="&#xb7;" horiz-adv-x="497" d="M123 596q0 53 38 90t91 37t91 -37t38 -90t-38 -90t-91 -37t-91 37t-38 90z" />
<glyph unicode="&#xb8;" horiz-adv-x="1024" d="M201 -428l35 90q10 -4 35.5 -11t64.5 -7q47 0 74.5 19.5t27.5 57.5q0 55 -46 70.5t-99 11.5l74 199h114l-51 -133q63 -10 104 -49t41 -103q0 -80 -66.5 -125t-164.5 -45q-57 0 -91 8.5t-52 16.5z" />
<glyph unicode="&#xb9;" d="M143 -442v1917h1917v-1917h-1917zM297 -289h1610v1610h-1610v-1610zM776 0v1047h146v-496l411 496h166l-414 -492l441 -555h-180q-119 150 -213 268q-41 51 -79 98.5t-67 86.5q-35 43 -65 84v-537h-146z" />
<glyph unicode="&#xba;" horiz-adv-x="743" d="M137 942q0 84 29 165t80 143.5t121.5 100.5t154.5 38q135 0 202 -84t67 -209q0 -96 -29 -179t-80 -143.5t-122 -94.5t-157 -34q-66 0 -114.5 22.5t-82.5 62.5t-51.5 94.5t-17.5 117.5zM281 944q0 -90 33.5 -137t105.5 -47q53 0 95 27.5t70.5 71.5t44 102.5t15.5 119.5 q0 92 -30.5 142.5t-106.5 50.5q-53 0 -95 -28.5t-72 -76t-45 -106.5t-15 -119z" />
<glyph unicode="&#xbb;" horiz-adv-x="952" d="M-6 113l338 401l-191 379h170l199 -391l-328 -389h-188zM375 113l338 401l-191 379h170l199 -391l-328 -389h-188z" />
<glyph unicode="&#xbc;" d="M143 -442v1917h1917v-1917h-1917zM297 -289h1610v1610h-1610v-1610zM776 0v1047h146v-496l411 496h166l-414 -492l441 -555h-180q-119 150 -213 268q-41 51 -79 98.5t-67 86.5q-35 43 -65 84v-537h-146z" />
<glyph unicode="&#xbd;" d="M143 -442v1917h1917v-1917h-1917zM297 -289h1610v1610h-1610v-1610zM776 0v1047h146v-496l411 496h166l-414 -492l441 -555h-180q-119 150 -213 268q-41 51 -79 98.5t-67 86.5q-35 43 -65 84v-537h-146z" />
<glyph unicode="&#xbe;" d="M143 -442v1917h1917v-1917h-1917zM297 -289h1610v1610h-1610v-1610zM776 0v1047h146v-496l411 496h166l-414 -492l441 -555h-180q-119 150 -213 268q-41 51 -79 98.5t-67 86.5q-35 43 -65 84v-537h-146z" />
<glyph unicode="&#xbf;" horiz-adv-x="894" d="M25 -98q0 82 28.5 142t73.5 107.5t102.5 84t112.5 67.5q59 33 89 71t42 103l21 107h157l-20 -125q-8 -49 -20.5 -86t-34 -65.5t-54.5 -54.5t-82 -54q-51 -29 -93 -55.5t-72.5 -58.5t-47 -71t-16.5 -92q0 -78 50 -124t153 -46q57 0 102 15.5t70 25.5l51 -133 q-41 -23 -105.5 -40t-148.5 -17q-88 0 -155.5 24.5t-112.5 66.5t-67.5 95t-22.5 113zM492 883q0 53 36.5 90t89.5 37q57 0 94.5 -37t37.5 -90q0 -51 -37.5 -88t-94.5 -37q-53 0 -89.5 36.5t-36.5 88.5z" />
<glyph unicode="&#xc0;" horiz-adv-x="1263" d="M-47 0l764 1364h176l242 -1364h-189l-51 322h-580l-176 -322h-186zM399 475h471l-69 432q-8 47 -14.5 92t-10.5 80q-6 41 -10 80h-4q-18 -39 -39 -80q-16 -35 -40 -80t-48 -92zM508 1737h227l139 -262h-145z" />
<glyph unicode="&#xc1;" horiz-adv-x="1263" d="M-47 0l764 1364h176l242 -1364h-189l-51 322h-580l-176 -322h-186zM399 475h471l-69 432q-8 47 -14.5 92t-10.5 80q-6 41 -10 80h-4q-18 -39 -39 -80q-16 -35 -40 -80t-48 -92zM745 1475l224 262h251l-315 -262h-160z" />
<glyph unicode="&#xc2;" horiz-adv-x="1263" d="M-47 0l764 1364h176l242 -1364h-189l-51 322h-580l-176 -322h-186zM399 475h471l-69 432q-8 47 -14.5 92t-10.5 80q-6 41 -10 80h-4q-18 -39 -39 -80q-16 -35 -40 -80t-48 -92zM469 1477l303 315h123l189 -315h-142l-129 174l-184 -174h-160z" />
<glyph unicode="&#xc3;" horiz-adv-x="1263" d="M-47 0l764 1364h176l242 -1364h-189l-51 322h-580l-176 -322h-186zM399 475h471l-69 432q-8 47 -14.5 92t-10.5 80q-6 41 -10 80h-4q-18 -39 -39 -80q-16 -35 -40 -80t-48 -92zM494 1579q33 45 83 85t120 40q37 0 64.5 -12t50 -26.5t45 -27t51.5 -12.5q41 0 69.5 20.5 t44.5 39.5l72 -76q-37 -45 -88 -86t-123 -41q-37 0 -63.5 12.5t-50 26.5t-46 26.5t-51.5 12.5q-35 0 -63.5 -21.5t-46.5 -37.5z" />
<glyph unicode="&#xc4;" horiz-adv-x="1263" d="M-47 0l764 1364h176l242 -1364h-189l-51 322h-580l-176 -322h-186zM399 475h471l-69 432q-8 47 -14.5 92t-10.5 80q-6 41 -10 80h-4q-18 -39 -39 -80q-16 -35 -40 -80t-48 -92zM518 1590q0 47 31.5 78.5t78.5 31.5q51 0 82 -31.5t31 -78.5t-32 -79t-81 -32 q-47 0 -78.5 32t-31.5 79zM903 1590q0 47 31.5 78.5t78.5 31.5q51 0 82 -31.5t31 -78.5t-32 -79t-81 -32q-47 0 -78.5 32t-31.5 79z" />
<glyph unicode="&#xc5;" horiz-adv-x="1263" d="M-47 0l764 1364h176l242 -1364h-189l-51 322h-580l-176 -322h-186zM399 475h471l-69 432q-8 47 -14.5 92t-10.5 80q-6 41 -10 80h-4q-18 -39 -39 -80q-16 -35 -40 -80t-48 -92zM616 1679q0 43 16.5 80t43 63.5t62.5 42t77 15.5q39 0 75 -14.5t62.5 -41t43 -63.5t16.5 -80 t-16.5 -79.5t-43 -63.5t-62.5 -41t-75 -14q-80 0 -139.5 54t-59.5 142zM715 1681q0 -45 25.5 -77.5t74.5 -32.5q47 0 72.5 32.5t25.5 77.5q0 47 -25.5 79t-72.5 32q-49 0 -74.5 -31.5t-25.5 -79.5z" />
<glyph unicode="&#xc6;" horiz-adv-x="1652" d="M-188 0l1030 1364h792l-28 -156h-521l-75 -411h460l-26 -154h-459l-88 -487h537l-29 -156h-717l57 326h-493l-244 -326h-196zM367 479h405l129 717z" />
<glyph unicode="&#xc7;" horiz-adv-x="1245" d="M115 549q0 172 59 324.5t164.5 267t250 181.5t312.5 67q76 0 133.5 -7.5t103.5 -20.5t80.5 -30.5t63.5 -38.5l-102 -137q-51 37 -120 58.5t-171 21.5q-127 0 -234.5 -53.5t-184.5 -145.5t-120 -216t-43 -263q0 -90 21.5 -168t68.5 -135t119 -90t174 -33q111 0 191 35 t147 88l78 -131q-63 -57 -178 -101.5t-246 -46.5l-41 -106q63 -10 104 -49t41 -103q0 -80 -66.5 -125t-164.5 -45q-57 0 -91 8.5t-52 16.5l34 90q10 -4 36 -11t65 -7q47 0 74.5 19.5t27.5 57.5q0 55 -46 70.5t-99 11.5l65 179q-115 16 -200.5 66t-142 126t-84 171t-27.5 204 z" />
<glyph unicode="&#xc8;" horiz-adv-x="1021" d="M96 0l244 1364h702l-28 -156h-520l-76 -411h461l-29 -154h-457l-88 -487h537l-29 -156h-717zM424 1737h227l139 -262h-145z" />
<glyph unicode="&#xc9;" horiz-adv-x="1021" d="M96 0l244 1364h702l-28 -156h-520l-76 -411h461l-29 -154h-457l-88 -487h537l-29 -156h-717zM624 1475l224 262h251l-315 -262h-160z" />
<glyph unicode="&#xca;" horiz-adv-x="1021" d="M96 0l244 1364h702l-28 -156h-520l-76 -411h461l-29 -154h-457l-88 -487h537l-29 -156h-717zM393 1477l303 315h123l189 -315h-142l-129 174l-184 -174h-160z" />
<glyph unicode="&#xcb;" horiz-adv-x="1021" d="M96 0l244 1364h702l-28 -156h-520l-76 -411h461l-29 -154h-457l-88 -487h537l-29 -156h-717zM414 1590q0 47 31.5 78.5t78.5 31.5q51 0 82 -31.5t31 -78.5t-32 -79t-81 -32q-47 0 -78.5 32t-31.5 79zM799 1590q0 47 31.5 78.5t78.5 31.5q51 0 82 -31.5t31 -78.5t-32 -79 t-81 -32q-47 0 -78.5 32t-31.5 79z" />
<glyph unicode="&#xcc;" horiz-adv-x="577" d="M109 0l243 1364h183l-244 -1364h-182zM150 1737h227l139 -262h-145z" />
<glyph unicode="&#xcd;" horiz-adv-x="577" d="M109 0l243 1364h183l-244 -1364h-182zM383 1475l224 262h251l-315 -262h-160z" />
<glyph unicode="&#xce;" horiz-adv-x="577" d="M109 0l243 1364h183l-244 -1364h-182zM129 1477l303 315h123l189 -315h-142l-129 174l-184 -174h-160z" />
<glyph unicode="&#xcf;" horiz-adv-x="577" d="M109 0l243 1364h183l-244 -1364h-182zM156 1590q0 47 31.5 78.5t78.5 31.5q51 0 82 -31.5t31 -78.5t-32 -79t-81 -32q-47 0 -78.5 32t-31.5 79zM541 1590q0 47 31.5 78.5t78.5 31.5q51 0 82 -31.5t31 -78.5t-32 -79t-81 -32q-47 0 -78.5 32t-31.5 79z" />
<glyph unicode="&#xd0;" horiz-adv-x="1380" d="M84 633l27 135h139l106 596h320q170 0 294 -38t203.5 -107.5t118.5 -168t39 -216.5q0 -162 -52 -312.5t-156.5 -266.5t-262.5 -185.5t-371 -69.5h-376l112 633h-141zM324 152h194q152 0 267.5 52t194.5 142t119 213t40 264q0 203 -115 296t-365 93h-149l-78 -444h227 l-26 -135h-225z" />
<glyph unicode="&#xd1;" horiz-adv-x="1421" d="M90 0l244 1364h178l440 -907q29 -59 51.5 -114.5t32.5 -90.5h4q4 35 12.5 94.5t18.5 122.5l158 895h166l-242 -1364h-166l-457 936q-27 53 -43 98l-32 90h-4q-4 -35 -11.5 -84t-17.5 -114l-166 -926h-166zM588 1579q33 45 83 85t120 40q37 0 64.5 -12t50 -26.5t45 -27 t51.5 -12.5q41 0 69.5 20.5t44.5 39.5l72 -76q-37 -45 -88 -86t-123 -41q-37 0 -63.5 12.5t-50 26.5t-46 26.5t-51.5 12.5q-35 0 -63.5 -21.5t-46.5 -37.5z" />
<glyph unicode="&#xd2;" horiz-adv-x="1509" d="M119 565q0 154 54 301.5t152.5 263t237.5 187.5t311 72q147 0 256 -48.5t180.5 -130.5t106.5 -189.5t35 -225.5q0 -152 -52 -299.5t-149.5 -263t-238 -186.5t-314.5 -71q-139 0 -246.5 48.5t-181 130.5t-112.5 188.5t-39 222.5zM309 567q0 -90 26.5 -170t78 -139 t126.5 -94t169 -35q131 0 233 57.5t173 150.5t109 213t38 247q0 88 -25 167.5t-75 139t-124.5 95.5t-175.5 36q-131 0 -233.5 -56.5t-173 -149.5t-108.5 -214t-38 -248zM592 1737h227l139 -262h-145z" />
<glyph unicode="&#xd3;" horiz-adv-x="1509" d="M119 565q0 154 54 301.5t152.5 263t237.5 187.5t311 72q147 0 256 -48.5t180.5 -130.5t106.5 -189.5t35 -225.5q0 -152 -52 -299.5t-149.5 -263t-238 -186.5t-314.5 -71q-139 0 -246.5 48.5t-181 130.5t-112.5 188.5t-39 222.5zM309 567q0 -90 26.5 -170t78 -139 t126.5 -94t169 -35q131 0 233 57.5t173 150.5t109 213t38 247q0 88 -25 167.5t-75 139t-124.5 95.5t-175.5 36q-131 0 -233.5 -56.5t-173 -149.5t-108.5 -214t-38 -248zM815 1475l224 262h251l-315 -262h-160z" />
<glyph unicode="&#xd4;" horiz-adv-x="1509" d="M119 565q0 154 54 301.5t152.5 263t237.5 187.5t311 72q147 0 256 -48.5t180.5 -130.5t106.5 -189.5t35 -225.5q0 -152 -52 -299.5t-149.5 -263t-238 -186.5t-314.5 -71q-139 0 -246.5 48.5t-181 130.5t-112.5 188.5t-39 222.5zM309 567q0 -90 26.5 -170t78 -139 t126.5 -94t169 -35q131 0 233 57.5t173 150.5t109 213t38 247q0 88 -25 167.5t-75 139t-124.5 95.5t-175.5 36q-131 0 -233.5 -56.5t-173 -149.5t-108.5 -214t-38 -248zM565 1477l303 315h123l189 -315h-142l-129 174l-184 -174h-160z" />
<glyph unicode="&#xd5;" horiz-adv-x="1509" d="M119 565q0 154 54 301.5t152.5 263t237.5 187.5t311 72q147 0 256 -48.5t180.5 -130.5t106.5 -189.5t35 -225.5q0 -152 -52 -299.5t-149.5 -263t-238 -186.5t-314.5 -71q-139 0 -246.5 48.5t-181 130.5t-112.5 188.5t-39 222.5zM309 567q0 -90 26.5 -170t78 -139 t126.5 -94t169 -35q131 0 233 57.5t173 150.5t109 213t38 247q0 88 -25 167.5t-75 139t-124.5 95.5t-175.5 36q-131 0 -233.5 -56.5t-173 -149.5t-108.5 -214t-38 -248zM625 1579q33 45 83 85t120 40q37 0 64.5 -12t50 -26.5t45 -27t51.5 -12.5q41 0 69.5 20.5t44.5 39.5 l72 -76q-37 -45 -88 -86t-123 -41q-37 0 -63.5 12.5t-50 26.5t-46 26.5t-51.5 12.5q-35 0 -63.5 -21.5t-46.5 -37.5z" />
<glyph unicode="&#xd6;" horiz-adv-x="1509" d="M119 565q0 154 54 301.5t152.5 263t237.5 187.5t311 72q147 0 256 -48.5t180.5 -130.5t106.5 -189.5t35 -225.5q0 -152 -52 -299.5t-149.5 -263t-238 -186.5t-314.5 -71q-139 0 -246.5 48.5t-181 130.5t-112.5 188.5t-39 222.5zM309 567q0 -90 26.5 -170t78 -139 t126.5 -94t169 -35q131 0 233 57.5t173 150.5t109 213t38 247q0 88 -25 167.5t-75 139t-124.5 95.5t-175.5 36q-131 0 -233.5 -56.5t-173 -149.5t-108.5 -214t-38 -248zM617 1590q0 47 31.5 78.5t78.5 31.5q51 0 82 -31.5t31 -78.5t-32 -79t-81 -32q-47 0 -78.5 32t-31.5 79 zM1002 1590q0 47 31.5 78.5t78.5 31.5q51 0 82 -31.5t31 -78.5t-32 -79t-81 -32q-47 0 -78.5 32t-31.5 79z" />
<glyph unicode="&#xd7;" d="M143 -442v1917h1917v-1917h-1917zM297 -289h1610v1610h-1610v-1610zM776 0v1047h146v-496l411 496h166l-414 -492l441 -555h-180q-119 150 -213 268q-41 51 -79 98.5t-67 86.5q-35 43 -65 84v-537h-146z" />
<glyph unicode="&#xd8;" horiz-adv-x="1509" d="M66 -61l194 227q-70 82 -104.5 184.5t-34.5 214.5q0 154 54 301.5t152.5 263t238 187.5t308.5 72q109 0 196 -27t155 -74l168 197l96 -82q-49 -57 -86 -100q-16 -20 -31.5 -38t-28.5 -32q-14 -17 -26 -31q70 -82 103.5 -186.5t33.5 -220.5q0 -152 -52 -299.5t-150.5 -263 t-238 -186.5t-313.5 -71q-106 0 -193 28t-155 77q-14 -16 -30 -35q-14 -16 -32 -35.5t-34 -40.5q-41 -49 -94 -112zM311 567q0 -153 72 -266l365 426q68 80 133 157t118 136q61 70 115 133q-96 84 -252 84q-131 0 -233.5 -56.5t-173 -150.5t-107.5 -214t-37 -249zM461 211 q47 -39 110.5 -61.5t139.5 -22.5q131 0 233.5 57.5t173 151.5t108.5 214t38 247q0 74 -17.5 142.5t-52.5 125.5q-207 -240 -367 -428q-70 -80 -134 -157t-118 -136q-61 -70 -114 -133z" />
<glyph unicode="&#xd9;" horiz-adv-x="1392" d="M173 296q-17 99 5 220l150 848h180l-146 -829q-39 -211 30 -306.5t255 -95.5q180 0 274.5 96.5t129.5 294.5l149 840h170l-153 -864q-23 -123 -66 -220.5t-113.5 -165t-171 -103.5t-235.5 -36q-137 0 -232.5 40t-152 111t-73.5 170zM565 1737h227l139 -262h-145z" />
<glyph unicode="&#xda;" horiz-adv-x="1392" d="M173 296q-17 99 5 220l150 848h180l-146 -829q-39 -211 30 -306.5t255 -95.5q180 0 274.5 96.5t129.5 294.5l149 840h170l-153 -864q-23 -123 -66 -220.5t-113.5 -165t-171 -103.5t-235.5 -36q-137 0 -232.5 40t-152 111t-73.5 170zM745 1475l224 262h251l-315 -262h-160 z" />
<glyph unicode="&#xdb;" horiz-adv-x="1392" d="M173 296q-17 99 5 220l150 848h180l-146 -829q-39 -211 30 -306.5t255 -95.5q180 0 274.5 96.5t129.5 294.5l149 840h170l-153 -864q-23 -123 -66 -220.5t-113.5 -165t-171 -103.5t-235.5 -36q-137 0 -232.5 40t-152 111t-73.5 170zM547 1477l303 315h123l189 -315h-142 l-129 174l-184 -174h-160z" />
<glyph unicode="&#xdc;" horiz-adv-x="1392" d="M173 296q-17 99 5 220l150 848h180l-146 -829q-39 -211 30 -306.5t255 -95.5q180 0 274.5 96.5t129.5 294.5l149 840h170l-153 -864q-23 -123 -66 -220.5t-113.5 -165t-171 -103.5t-235.5 -36q-137 0 -232.5 40t-152 111t-73.5 170zM553 1590q0 47 31.5 78.5t78.5 31.5 q51 0 82 -31.5t31 -78.5t-32 -79t-81 -32q-47 0 -78.5 32t-31.5 79zM938 1590q0 47 31.5 78.5t78.5 31.5q51 0 82 -31.5t31 -78.5t-32 -79t-81 -32q-47 0 -78.5 32t-31.5 79z" />
<glyph unicode="&#xdd;" horiz-adv-x="1134" d="M184 1364h189l235 -678h2l447 678h190l-575 -852l-92 -512h-185l94 514zM624 1475l224 262h251l-315 -262h-160z" />
<glyph unicode="&#xde;" horiz-adv-x="1103" d="M96 0l244 1364h180l-41 -234h170q193 0 310.5 -88t117.5 -256q0 -117 -43 -205.5t-118.5 -150t-182 -93.5t-231.5 -32h-168l-55 -305h-183zM360 457h160q186 0 276.5 84t90.5 225q0 98 -60.5 155.5t-208.5 57.5h-163z" />
<glyph unicode="&#xdf;" horiz-adv-x="1044" d="M-352 -434l53 139q27 -10 58.5 -19.5t72.5 -9.5q45 0 78 19.5t55.5 52.5t36.5 76t23 90l211 1149q20 119 65 203t109.5 135t145.5 74.5t173 23.5q76 0 135.5 -22.5t99.5 -60.5t60 -90t20 -112q0 -84 -28.5 -144t-72.5 -106t-95 -80t-95 -65t-73 -62.5t-29 -72.5t48.5 -76 t106.5 -79t106.5 -102t48.5 -144q0 -135 -90.5 -221.5t-270.5 -86.5q-94 0 -157.5 22.5t-98.5 45.5l72 127q27 -18 75 -37.5t113 -19.5q92 0 142.5 44t50.5 122q0 55 -48.5 97t-106.5 83t-106.5 90t-48.5 121q0 57 29 101t72 81t93 71.5t93 72.5t71.5 85t28.5 109 q0 78 -40.5 124t-126.5 46q-115 0 -194 -68.5t-107 -228.5l-211 -1149q-18 -94 -46 -166t-71 -121t-105.5 -73.5t-150.5 -24.5q-57 0 -98 11t-76 26z" />
<glyph unicode="&#xe0;" horiz-adv-x="1001" d="M59 283q0 141 40 272t116 232.5t185.5 163t250.5 61.5q111 0 185.5 -16.5t105.5 -26.5l-94 -525q-37 -207 -49.5 -320.5t-12.5 -123.5h-168q10 78 21.5 146.5t30.5 144.5h-4q-31 -61 -66 -117.5t-78 -100.5t-96 -71t-121 -27q-123 0 -184.5 85t-61.5 223zM233 309 q0 -96 30 -139t89 -43q61 0 123 56.5t114 146.5t91 203.5t55 228.5l15 88q-16 6 -52 12t-77 6q-90 0 -162 -46t-122 -123.5t-77 -179t-27 -210.5zM365 1368h227l139 -262h-145z" />
<glyph unicode="&#xe1;" horiz-adv-x="1001" d="M59 283q0 141 40 272t116 232.5t185.5 163t250.5 61.5q111 0 185.5 -16.5t105.5 -26.5l-94 -525q-37 -207 -49.5 -320.5t-12.5 -123.5h-168q10 78 21.5 146.5t30.5 144.5h-4q-31 -61 -66 -117.5t-78 -100.5t-96 -71t-121 -27q-123 0 -184.5 85t-61.5 223zM233 309 q0 -96 30 -139t89 -43q61 0 123 56.5t114 146.5t91 203.5t55 228.5l15 88q-16 6 -52 12t-77 6q-90 0 -162 -46t-122 -123.5t-77 -179t-27 -210.5zM602 1106l224 262h251l-315 -262h-160z" />
<glyph unicode="&#xe2;" horiz-adv-x="1001" d="M59 283q0 141 40 272t116 232.5t185.5 163t250.5 61.5q111 0 185.5 -16.5t105.5 -26.5l-94 -525q-37 -207 -49.5 -320.5t-12.5 -123.5h-168q10 78 21.5 146.5t30.5 144.5h-4q-31 -61 -66 -117.5t-78 -100.5t-96 -71t-121 -27q-123 0 -184.5 85t-61.5 223zM233 309 q0 -96 30 -139t89 -43q61 0 123 56.5t114 146.5t91 203.5t55 228.5l15 88q-16 6 -52 12t-77 6q-90 0 -162 -46t-122 -123.5t-77 -179t-27 -210.5zM352 1108l303 315h123l189 -315h-142l-129 174l-184 -174h-160z" />
<glyph unicode="&#xe3;" horiz-adv-x="1001" d="M59 283q0 141 40 272t116 232.5t185.5 163t250.5 61.5q111 0 185.5 -16.5t105.5 -26.5l-94 -525q-37 -207 -49.5 -320.5t-12.5 -123.5h-168q10 78 21.5 146.5t30.5 144.5h-4q-31 -61 -66 -117.5t-78 -100.5t-96 -71t-121 -27q-123 0 -184.5 85t-61.5 223zM233 309 q0 -96 30 -139t89 -43q61 0 123 56.5t114 146.5t91 203.5t55 228.5l15 88q-16 6 -52 12t-77 6q-90 0 -162 -46t-122 -123.5t-77 -179t-27 -210.5zM371 1210q33 45 83 85t120 40q37 0 64.5 -12t50 -26.5t45 -27t51.5 -12.5q41 0 69.5 20.5t44.5 39.5l72 -76q-37 -45 -88 -86 t-123 -41q-37 0 -63.5 12.5t-50 26.5t-46 26.5t-51.5 12.5q-35 0 -63.5 -21.5t-46.5 -37.5z" />
<glyph unicode="&#xe4;" horiz-adv-x="1001" d="M59 283q0 141 40 272t116 232.5t185.5 163t250.5 61.5q111 0 185.5 -16.5t105.5 -26.5l-94 -525q-37 -207 -49.5 -320.5t-12.5 -123.5h-168q10 78 21.5 146.5t30.5 144.5h-4q-31 -61 -66 -117.5t-78 -100.5t-96 -71t-121 -27q-123 0 -184.5 85t-61.5 223zM233 309 q0 -96 30 -139t89 -43q61 0 123 56.5t114 146.5t91 203.5t55 228.5l15 88q-16 6 -52 12t-77 6q-90 0 -162 -46t-122 -123.5t-77 -179t-27 -210.5zM363 1221q0 47 31.5 78.5t78.5 31.5q51 0 82 -31.5t31 -78.5t-32 -79t-81 -32q-47 0 -78.5 32t-31.5 79zM748 1221 q0 47 31.5 78.5t78.5 31.5q51 0 82 -31.5t31 -78.5t-32 -79t-81 -32q-47 0 -78.5 32t-31.5 79z" />
<glyph unicode="&#xe5;" horiz-adv-x="1001" d="M59 283q0 141 40 272t116 232.5t185.5 163t250.5 61.5q111 0 185.5 -16.5t105.5 -26.5l-94 -525q-37 -207 -49.5 -320.5t-12.5 -123.5h-168q10 78 21.5 146.5t30.5 144.5h-4q-31 -61 -66 -117.5t-78 -100.5t-96 -71t-121 -27q-123 0 -184.5 85t-61.5 223zM233 309 q0 -96 30 -139t89 -43q61 0 123 56.5t114 146.5t91 203.5t55 228.5l15 88q-16 6 -52 12t-77 6q-90 0 -162 -46t-122 -123.5t-77 -179t-27 -210.5zM455 1297q0 43 16 79.5t43 63.5t62.5 42t76.5 15q39 0 75 -14t62.5 -40.5t43 -63.5t16.5 -80t-16.5 -80t-43 -63.5t-62.5 -41 t-75 -14.5q-80 0 -139 54.5t-59 142.5zM553 1299q0 -45 25.5 -78t74.5 -33q47 0 73 33t26 78q0 47 -26 78.5t-73 31.5q-49 0 -74.5 -31.5t-25.5 -78.5z" />
<glyph unicode="&#xe6;" horiz-adv-x="1437" d="M14 221q0 59 19.5 107.5t52.5 85.5t77 61.5t91 40.5q78 25 166 35t176 10h35q16 45 26.5 85t10.5 93q0 55 -34 89t-124 34q-51 0 -94 -11t-78 -27.5t-61.5 -34t-40.5 -29.5l-80 117q25 18 58.5 41.5t80.5 44t105.5 35t131.5 14.5q207 0 275 -146q72 68 153.5 107 t176.5 39q117 0 192.5 -57.5t75.5 -174.5q0 -92 -49 -156.5t-134 -106.5t-200 -62.5t-244 -22.5q-6 -41 -6 -84q2 -111 48 -168t138 -57q80 0 148 38t108 79l89 -115q-25 -23 -60 -48.5t-80 -48t-102 -38t-127 -15.5q-109 0 -181.5 45.5t-109.5 120.5q-68 -74 -152.5 -120 t-199.5 -46q-63 0 -114.5 18.5t-87.5 52.5t-55.5 78t-19.5 97zM197 233q0 -59 35 -86.5t92 -27.5q94 0 164.5 40t117.5 99q-6 33 -6 74q0 53 6 106h-24q-78 0 -144.5 -7t-120.5 -30q-57 -23 -88.5 -64.5t-31.5 -103.5zM799 555q98 0 178 13.5t136 40t88 65.5t32 90 q0 100 -123 100q-47 0 -94 -21.5t-88 -61.5t-75 -97t-54 -129z" />
<glyph unicode="&#xe7;" horiz-adv-x="819" d="M53 360q0 141 46 261t123 206t175.5 135.5t204.5 49.5q98 0 152.5 -22.5t87.5 -45.5l-82 -133q-23 16 -63 32.5t-111 16.5q-66 0 -130.5 -33.5t-115.5 -96t-83 -152t-32 -199.5q0 -133 49.5 -194.5t135.5 -61.5q43 0 79.5 11t65.5 28.5t51.5 36t36.5 32.5l90 -112 q-18 -18 -48 -41t-68.5 -44.5t-87 -36.5t-103.5 -20l-41 -108q63 -10 104 -49t41 -103q0 -80 -66.5 -125t-164.5 -45q-57 0 -91 8.5t-52 16.5l34 90q10 -4 36 -11t65 -7q47 0 74.5 19.5t27.5 57.5q0 55 -46 70.5t-99 11.5l65 179q-123 25 -191.5 122t-68.5 256z" />
<glyph unicode="&#xe8;" horiz-adv-x="878" d="M53 338q0 139 43 262t116 214t171 144.5t209 53.5q117 0 192.5 -57.5t75.5 -174.5q0 -92 -53 -158.5t-140 -112.5t-202 -74t-238 -44v-35q0 -115 46 -174t139 -59q82 0 148.5 38t107.5 79l90 -115q-25 -23 -59.5 -48.5t-81 -48t-102.5 -38t-126 -15.5q-86 0 -149.5 29 t-104.5 79t-61.5 115.5t-20.5 139.5zM244 514q94 12 175 33.5t140 52.5t93 71t34 93q0 100 -123 100q-51 0 -101 -24.5t-93 -69.5t-76 -110.5t-49 -145.5zM305 1368h227l139 -262h-145z" />
<glyph unicode="&#xe9;" horiz-adv-x="878" d="M53 338q0 139 43 262t116 214t171 144.5t209 53.5q117 0 192.5 -57.5t75.5 -174.5q0 -92 -53 -158.5t-140 -112.5t-202 -74t-238 -44v-35q0 -115 46 -174t139 -59q82 0 148.5 38t107.5 79l90 -115q-25 -23 -59.5 -48.5t-81 -48t-102.5 -38t-126 -15.5q-86 0 -149.5 29 t-104.5 79t-61.5 115.5t-20.5 139.5zM244 514q94 12 175 33.5t140 52.5t93 71t34 93q0 100 -123 100q-51 0 -101 -24.5t-93 -69.5t-76 -110.5t-49 -145.5zM520 1106l224 262h251l-315 -262h-160z" />
<glyph unicode="&#xea;" horiz-adv-x="878" d="M53 338q0 139 43 262t116 214t171 144.5t209 53.5q117 0 192.5 -57.5t75.5 -174.5q0 -92 -53 -158.5t-140 -112.5t-202 -74t-238 -44v-35q0 -115 46 -174t139 -59q82 0 148.5 38t107.5 79l90 -115q-25 -23 -59.5 -48.5t-81 -48t-102.5 -38t-126 -15.5q-86 0 -149.5 29 t-104.5 79t-61.5 115.5t-20.5 139.5zM244 514q94 12 175 33.5t140 52.5t93 71t34 93q0 100 -123 100q-51 0 -101 -24.5t-93 -69.5t-76 -110.5t-49 -145.5zM270 1108l303 315h123l189 -315h-142l-129 174l-184 -174h-160z" />
<glyph unicode="&#xeb;" horiz-adv-x="878" d="M53 338q0 139 43 262t116 214t171 144.5t209 53.5q117 0 192.5 -57.5t75.5 -174.5q0 -92 -53 -158.5t-140 -112.5t-202 -74t-238 -44v-35q0 -115 46 -174t139 -59q82 0 148.5 38t107.5 79l90 -115q-25 -23 -59.5 -48.5t-81 -48t-102.5 -38t-126 -15.5q-86 0 -149.5 29 t-104.5 79t-61.5 115.5t-20.5 139.5zM244 514q94 12 175 33.5t140 52.5t93 71t34 93q0 100 -123 100q-51 0 -101 -24.5t-93 -69.5t-76 -110.5t-49 -145.5zM299 1221q0 47 31.5 78.5t78.5 31.5q51 0 82 -31.5t31 -78.5t-32 -79t-81 -32q-47 0 -78.5 32t-31.5 79zM684 1221 q0 47 31.5 78.5t78.5 31.5q51 0 82 -31.5t31 -78.5t-32 -79t-81 -32q-47 0 -78.5 32t-31.5 79z" />
<glyph unicode="&#xec;" horiz-adv-x="526" d="M64 1368h227l139 -262h-145zM88 0l178 985h170l-178 -985h-170z" />
<glyph unicode="&#xed;" horiz-adv-x="526" d="M88 0l178 985h170l-178 -985h-170zM297 1106l224 262h251l-315 -262h-160z" />
<glyph unicode="&#xee;" horiz-adv-x="526" d="M41 1108l303 315h123l189 -315h-142l-129 174l-184 -174h-160zM88 0l178 985h170l-178 -985h-170z" />
<glyph unicode="&#xef;" horiz-adv-x="526" d="M74 1221q0 47 31.5 78.5t78.5 31.5q51 0 82 -31.5t31 -78.5t-32 -79t-81 -32q-47 0 -78.5 32t-31.5 79zM88 0l178 985h170l-178 -985h-170zM459 1221q0 47 31.5 78.5t78.5 31.5q51 0 82 -31.5t31 -78.5t-32 -79t-81 -32q-47 0 -78.5 32t-31.5 79z" />
<glyph unicode="&#xf0;" horiz-adv-x="976" d="M57 379q0 137 42 249.5t113 194.5t161 127t188 45q78 0 125 -23.5t76 -49.5q-25 201 -129 305l-164 -129l-74 90l140 110q-117 59 -297 60l53 141q223 0 375 -96l174 139l73 -90l-155 -125q90 -92 137 -228t47 -317q0 -145 -29.5 -289.5t-93 -259t-163 -186.5t-236.5 -72 q-78 0 -143.5 28t-114.5 80t-77 127t-28 169zM229 385q0 -129 47.5 -199.5t159.5 -70.5q82 0 143.5 55t102.5 145.5t63.5 207t24.5 237.5q-29 39 -78 68.5t-135 29.5q-66 0 -125 -33.5t-104 -95t-72 -148.5t-27 -196z" />
<glyph unicode="&#xf1;" horiz-adv-x="1054" d="M59 0l179 985h163q-4 -25 -10 -61.5t-14 -77.5t-18.5 -84t-18.5 -78h4q25 47 61.5 104.5t86 106.5t113 83t143.5 34q127 0 177 -93.5t21 -252.5l-121 -666h-170l115 653q37 205 -86 205q-55 0 -117.5 -43t-121 -134t-109.5 -233.5t-88 -341.5l-19 -106h-170zM350 1210 q33 45 83 85t120 40q37 0 64.5 -12t50 -26.5t45 -27t51.5 -12.5q41 0 69.5 20.5t44.5 39.5l72 -76q-37 -45 -88 -86t-123 -41q-37 0 -63.5 12.5t-50 26.5t-46 26.5t-51.5 12.5q-35 0 -63.5 -21.5t-46.5 -37.5z" />
<glyph unicode="&#xf2;" horiz-adv-x="991" d="M57 385q0 117 39 229.5t107.5 200.5t164 142.5t205.5 54.5q92 0 160 -33t112 -89t66.5 -130t22.5 -154q0 -125 -39 -239.5t-108.5 -201.5t-164.5 -138.5t-206 -51.5q-96 0 -164 36t-111 94.5t-63.5 132t-20.5 147.5zM227 389q0 -125 50.5 -199.5t150.5 -74.5 q76 0 137.5 44t104.5 111.5t66.5 151.5t23.5 164q0 139 -49 212.5t-150 73.5q-76 0 -137.5 -44t-105.5 -114.5t-67.5 -156.5t-23.5 -168zM281 1368h227l139 -262h-145z" />
<glyph unicode="&#xf3;" horiz-adv-x="991" d="M57 385q0 117 39 229.5t107.5 200.5t164 142.5t205.5 54.5q92 0 160 -33t112 -89t66.5 -130t22.5 -154q0 -125 -39 -239.5t-108.5 -201.5t-164.5 -138.5t-206 -51.5q-96 0 -164 36t-111 94.5t-63.5 132t-20.5 147.5zM227 389q0 -125 50.5 -199.5t150.5 -74.5 q76 0 137.5 44t104.5 111.5t66.5 151.5t23.5 164q0 139 -49 212.5t-150 73.5q-76 0 -137.5 -44t-105.5 -114.5t-67.5 -156.5t-23.5 -168zM532 1106l224 262h251l-315 -262h-160z" />
<glyph unicode="&#xf4;" horiz-adv-x="991" d="M57 385q0 117 39 229.5t107.5 200.5t164 142.5t205.5 54.5q92 0 160 -33t112 -89t66.5 -130t22.5 -154q0 -125 -39 -239.5t-108.5 -201.5t-164.5 -138.5t-206 -51.5q-96 0 -164 36t-111 94.5t-63.5 132t-20.5 147.5zM227 389q0 -125 50.5 -199.5t150.5 -74.5 q76 0 137.5 44t104.5 111.5t66.5 151.5t23.5 164q0 139 -49 212.5t-150 73.5q-76 0 -137.5 -44t-105.5 -114.5t-67.5 -156.5t-23.5 -168zM272 1108l303 315h123l189 -315h-142l-129 174l-184 -174h-160z" />
<glyph unicode="&#xf5;" horiz-adv-x="991" d="M57 385q0 117 39 229.5t107.5 200.5t164 142.5t205.5 54.5q92 0 160 -33t112 -89t66.5 -130t22.5 -154q0 -125 -39 -239.5t-108.5 -201.5t-164.5 -138.5t-206 -51.5q-96 0 -164 36t-111 94.5t-63.5 132t-20.5 147.5zM227 389q0 -125 50.5 -199.5t150.5 -74.5 q76 0 137.5 44t104.5 111.5t66.5 151.5t23.5 164q0 139 -49 212.5t-150 73.5q-76 0 -137.5 -44t-105.5 -114.5t-67.5 -156.5t-23.5 -168zM305 1210q33 45 83 85t120 40q37 0 64.5 -12t50 -26.5t45 -27t51.5 -12.5q41 0 69.5 20.5t44.5 39.5l72 -76q-37 -45 -88 -86t-123 -41 q-37 0 -63.5 12.5t-50 26.5t-46 26.5t-51.5 12.5q-35 0 -63.5 -21.5t-46.5 -37.5z" />
<glyph unicode="&#xf6;" horiz-adv-x="991" d="M57 385q0 117 39 229.5t107.5 200.5t164 142.5t205.5 54.5q92 0 160 -33t112 -89t66.5 -130t22.5 -154q0 -125 -39 -239.5t-108.5 -201.5t-164.5 -138.5t-206 -51.5q-96 0 -164 36t-111 94.5t-63.5 132t-20.5 147.5zM227 389q0 -125 50.5 -199.5t150.5 -74.5 q76 0 137.5 44t104.5 111.5t66.5 151.5t23.5 164q0 139 -49 212.5t-150 73.5q-76 0 -137.5 -44t-105.5 -114.5t-67.5 -156.5t-23.5 -168zM305 1221q0 47 31.5 78.5t78.5 31.5q51 0 82 -31.5t31 -78.5t-32 -79t-81 -32q-47 0 -78.5 32t-31.5 79zM690 1221q0 47 31.5 78.5 t78.5 31.5q51 0 82 -31.5t31 -78.5t-32 -79t-81 -32q-47 0 -78.5 32t-31.5 79z" />
<glyph unicode="&#xf7;" d="M143 -442v1917h1917v-1917h-1917zM297 -289h1610v1610h-1610v-1610zM776 0v1047h146v-496l411 496h166l-414 -492l441 -555h-180q-119 150 -213 268q-41 51 -79 98.5t-67 86.5q-35 43 -65 84v-537h-146z" />
<glyph unicode="&#xf8;" horiz-adv-x="991" d="M-33 -51l156 184q-35 55 -50.5 120.5t-15.5 131.5q0 117 39 229.5t107.5 200.5t164 142.5t205.5 54.5q72 0 128.5 -20.5t99.5 -57.5l172 203l88 -74l-187 -217q31 -51 45.5 -112.5t14.5 -127.5q0 -125 -39 -239.5t-108.5 -201.5t-165 -138.5t-205.5 -51.5 q-68 0 -121 18.5t-94 51.5l-146 -170zM225 389q0 -72 15 -121l462 543q-49 61 -141 61q-76 0 -137.5 -44t-105.5 -114.5t-68.5 -156.5t-24.5 -168zM295 166q53 -53 133 -53q76 0 137.5 44t105.5 112.5t67.5 152.5t23.5 164q0 59 -10 116z" />
<glyph unicode="&#xf9;" horiz-adv-x="1054" d="M106 319l121 666h170l-114 -651q-37 -207 86 -207q53 0 114.5 41t120 128t108.5 222t85 322l26 145h170l-98 -541q-37 -207 -49 -320.5t-12 -123.5h-168q10 76 23 161t30 154h-4q-29 -51 -66 -110.5t-87 -110.5t-113.5 -85t-143.5 -34q-127 0 -177 92.5t-22 251.5z M340 1368h227l139 -262h-145z" />
<glyph unicode="&#xfa;" horiz-adv-x="1054" d="M106 319l121 666h170l-114 -651q-37 -207 86 -207q53 0 114.5 41t120 128t108.5 222t85 322l26 145h170l-98 -541q-37 -207 -49 -320.5t-12 -123.5h-168q10 76 23 161t30 154h-4q-29 -51 -66 -110.5t-87 -110.5t-113.5 -85t-143.5 -34q-127 0 -177 92.5t-22 251.5z M536 1106l224 262h251l-315 -262h-160z" />
<glyph unicode="&#xfb;" horiz-adv-x="1054" d="M106 319l121 666h170l-114 -651q-37 -207 86 -207q53 0 114.5 41t120 128t108.5 222t85 322l26 145h170l-98 -541q-37 -207 -49 -320.5t-12 -123.5h-168q10 76 23 161t30 154h-4q-29 -51 -66 -110.5t-87 -110.5t-113.5 -85t-143.5 -34q-127 0 -177 92.5t-22 251.5z M311 1108l303 315h123l189 -315h-142l-129 174l-184 -174h-160z" />
<glyph unicode="&#xfc;" horiz-adv-x="1054" d="M106 319l121 666h170l-114 -651q-37 -207 86 -207q53 0 114.5 41t120 128t108.5 222t85 322l26 145h170l-98 -541q-37 -207 -49 -320.5t-12 -123.5h-168q10 76 23 161t30 154h-4q-29 -51 -66 -110.5t-87 -110.5t-113.5 -85t-143.5 -34q-127 0 -177 92.5t-22 251.5z M334 1221q0 47 31.5 78.5t78.5 31.5q51 0 82 -31.5t31 -78.5t-32 -79t-81 -32q-47 0 -78.5 32t-31.5 79zM719 1221q0 47 31.5 78.5t78.5 31.5q51 0 82 -31.5t31 -78.5t-32 -79t-81 -32q-47 0 -78.5 32t-31.5 79z" />
<glyph unicode="&#xfd;" horiz-adv-x="921" d="M-190 -418l67 139q14 -8 43 -15t76 -7q41 0 77 12.5t72.5 43t74.5 82.5t85 132l-199 1016h179l121 -690q6 -39 11 -75t9 -64h4q10 29 22.5 65.5t28.5 73.5l316 690h180l-387 -790q-82 -170 -149.5 -292t-136 -201t-145.5 -117t-177 -38q-80 0 -119 13.5t-53 21.5z M465 1106l224 262h251l-315 -262h-160z" />
<glyph unicode="&#xfe;" horiz-adv-x="1007" d="M-31 -446l348 1921h170l-90 -492q-6 -35 -15 -77t-18.5 -82t-18.5 -73.5t-13 -50.5h4q33 59 69.5 115.5t81.5 99.5t100.5 70t123.5 27q61 0 107 -24.5t76 -69t44 -102.5t14 -126q0 -141 -41 -270t-115.5 -228.5t-182 -158t-242.5 -58.5q-59 0 -98.5 6.5t-53.5 10.5 l-80 -438h-170zM248 129q12 -4 42 -10t91 -6q92 0 166 46t124 122.5t77.5 178t27.5 212.5q0 82 -26.5 134t-85.5 52q-70 0 -133.5 -58.5t-116 -149.5t-91 -203.5t-59.5 -223.5z" />
<glyph unicode="&#xff;" horiz-adv-x="921" d="M-190 -418l67 139q14 -8 43 -15t76 -7q41 0 77 12.5t72.5 43t74.5 82.5t85 132l-199 1016h179l121 -690q6 -39 11 -75t9 -64h4q10 29 22.5 65.5t28.5 73.5l316 690h180l-387 -790q-82 -170 -149.5 -292t-136 -201t-145.5 -117t-177 -38q-80 0 -119 13.5t-53 21.5z M242 1221q0 47 31.5 78.5t78.5 31.5q51 0 82 -31.5t31 -78.5t-32 -79t-81 -32q-47 0 -78.5 32t-31.5 79zM627 1221q0 47 31.5 78.5t78.5 31.5q51 0 82 -31.5t31 -78.5t-32 -79t-81 -32q-47 0 -78.5 32t-31.5 79z" />
<glyph unicode="&#x152;" horiz-adv-x="1789" d="M121 565q0 154 54 301.5t152.5 263t239 187.5t312.5 72q66 0 123 -5.5t108 -19.5h698l-28 -156h-520l-76 -411h461l-27 -154h-459l-88 -487h537l-29 -156h-694q-90 -25 -189 -25q-139 0 -246.5 47.5t-180 128t-110.5 188t-38 226.5zM311 567q0 -92 25.5 -172t75 -139 t123 -93t172.5 -34q53 0 98 9t88 26l182 1036q-82 35 -207 35q-133 0 -236.5 -56.5t-175 -149.5t-108.5 -214t-37 -248z" />
<glyph unicode="&#x153;" horiz-adv-x="1552" d="M57 385q0 117 39 229.5t107.5 200.5t164 142.5t205.5 54.5q119 0 196 -55.5t118 -147.5q78 98 173 150.5t206 52.5q117 0 192.5 -57.5t75.5 -174.5q0 -92 -52 -158.5t-140.5 -112.5t-203 -74.5t-237.5 -43.5v-35q0 -115 46 -174t138 -59q82 0 148.5 38t107.5 79l91 -115 q-25 -23 -60 -48.5t-80 -48t-102 -38t-127 -15.5q-111 0 -182.5 50.5t-110.5 130.5q-68 -84 -157 -132.5t-197 -48.5q-96 0 -164 36t-111 94.5t-63.5 132t-20.5 147.5zM227 389q0 -125 50.5 -199.5t150.5 -74.5q76 0 137.5 44t104.5 111.5t66.5 151.5t23.5 164 q0 139 -49 212.5t-150 73.5q-76 0 -137.5 -44t-105.5 -114.5t-67.5 -156.5t-23.5 -168zM918 514q94 12 175 33.5t140 52.5t93 71t34 93q0 100 -121 100q-51 0 -101.5 -24.5t-93.5 -69.5t-76.5 -110.5t-49.5 -145.5z" />
<glyph unicode="&#x178;" horiz-adv-x="1134" d="M184 1364h189l235 -678h2l447 678h190l-575 -852l-92 -512h-185l94 514zM422 1590q0 47 31.5 78.5t78.5 31.5q51 0 82 -31.5t31 -78.5t-32 -79t-81 -32q-47 0 -78.5 32t-31.5 79zM807 1590q0 47 31.5 78.5t78.5 31.5q51 0 82 -31.5t31 -78.5t-32 -79t-81 -32 q-47 0 -78.5 32t-31.5 79z" />
<glyph unicode="&#x2c6;" horiz-adv-x="1024" d="M309 1108l303 315h123l189 -315h-142l-129 174l-184 -174h-160z" />
<glyph unicode="&#x2dc;" horiz-adv-x="1024" d="M340 1210q33 45 83 85t120 40q37 0 64.5 -12t50 -26.5t45 -27t51.5 -12.5q41 0 69.5 20.5t44.5 39.5l72 -76q-37 -45 -88 -86t-123 -41q-37 0 -63.5 12.5t-50 26.5t-46 26.5t-51.5 12.5q-35 0 -63.5 -21.5t-46.5 -37.5z" />
<glyph unicode="&#x2000;" horiz-adv-x="940" />
<glyph unicode="&#x2001;" horiz-adv-x="1880" />
<glyph unicode="&#x2002;" horiz-adv-x="940" />
<glyph unicode="&#x2003;" horiz-adv-x="1880" />
<glyph unicode="&#x2004;" horiz-adv-x="626" />
<glyph unicode="&#x2005;" horiz-adv-x="470" />
<glyph unicode="&#x2006;" horiz-adv-x="313" />
<glyph unicode="&#x2007;" horiz-adv-x="313" />
<glyph unicode="&#x2008;" horiz-adv-x="235" />
<glyph unicode="&#x2009;" horiz-adv-x="376" />
<glyph unicode="&#x200a;" horiz-adv-x="104" />
<glyph unicode="&#x2010;" horiz-adv-x="630" d="M106 512l27 147h422l-27 -147h-422z" />
<glyph unicode="&#x2011;" horiz-adv-x="630" d="M106 512l27 147h422l-27 -147h-422z" />
<glyph unicode="&#x2012;" horiz-adv-x="630" d="M106 512l27 147h422l-27 -147h-422z" />
<glyph unicode="&#x2013;" horiz-adv-x="1148" d="M102 489l25 142h940l-25 -142h-940z" />
<glyph unicode="&#x2014;" horiz-adv-x="1781" d="M102 489l25 142h1573l-25 -142h-1573z" />
<glyph unicode="&#x2018;" horiz-adv-x="407" d="M176 1016q0 57 23.5 114.5t60.5 108.5t79 94t79 72l65 -59q-39 -39 -75.5 -88.5t-36.5 -102.5q0 -27 9 -44t20.5 -34.5t20.5 -37t9 -50.5q0 -53 -35 -86t-86 -33q-53 0 -93 38t-40 108z" />
<glyph unicode="&#x2019;" horiz-adv-x="407" d="M168 913q41 39 77 88.5t36 102.5q0 27 -9.5 44t-19.5 34.5t-19.5 37t-9.5 50.5q0 53 35 86t84 33q53 0 93 -38t40 -108q0 -59 -23.5 -115.5t-59.5 -107.5t-78 -94t-78 -72z" />
<glyph unicode="&#x201a;" horiz-adv-x="407" d="M-29 -236q41 39 77 88.5t36 102.5q0 27 -9 44t-19.5 34.5t-19.5 38t-9 51.5q0 51 34.5 84t83.5 33q53 0 93.5 -37t40.5 -109q0 -59 -24 -115.5t-59.5 -107.5t-77.5 -94t-79 -72z" />
<glyph unicode="&#x201c;" horiz-adv-x="768" d="M176 1016q0 57 23.5 114.5t60.5 108.5t79 94t79 72l65 -59q-39 -39 -75.5 -88.5t-36.5 -102.5q0 -27 9 -44t20.5 -34.5t20.5 -37t9 -50.5q0 -53 -35 -86t-86 -33q-53 0 -93 38t-40 108zM539 1016q0 57 23.5 114.5t59 108.5t77.5 94t79 72l68 -59q-41 -39 -77 -88.5 t-36 -102.5q0 -27 9.5 -44t19.5 -34.5t19.5 -37t9.5 -50.5q0 -53 -35 -86t-84 -33q-53 0 -93 38t-40 108z" />
<glyph unicode="&#x201d;" horiz-adv-x="768" d="M168 913q41 39 77 88.5t36 102.5q0 27 -9.5 44t-19.5 34.5t-19.5 37t-9.5 50.5q0 53 35 86t84 33q53 0 93 -38t40 -108q0 -59 -23.5 -115.5t-59.5 -107.5t-78 -94t-78 -72zM530 913q39 39 76 88.5t37 102.5q0 27 -9 44t-20.5 34.5t-20.5 37t-9 50.5q0 53 34.5 86t86.5 33 q53 0 93 -38t40 -108q0 -59 -23.5 -115.5t-60.5 -107.5t-79 -94t-79 -72z" />
<glyph unicode="&#x201e;" horiz-adv-x="768" d="M-29 -236q41 39 77 88.5t36 102.5q0 27 -9 44t-19.5 34.5t-19.5 38t-9 51.5q0 51 34.5 84t83.5 33q53 0 93.5 -37t40.5 -109q0 -59 -24 -115.5t-59.5 -107.5t-77.5 -94t-79 -72zM334 -236q39 39 75.5 88.5t36.5 102.5q0 27 -9 44t-20 34.5t-20.5 38t-9.5 51.5q0 51 35 84 t86 33q53 0 93 -37t40 -109q0 -59 -23.5 -115.5t-60.5 -107.5t-79 -94t-79 -72z" />
<glyph unicode="&#x2022;" horiz-adv-x="757" d="M106 586q0 57 22 107t58.5 88t86 59.5t104.5 21.5q57 0 107.5 -21.5t87 -59.5t57 -88t20.5 -107t-20.5 -107.5t-57 -87.5t-87 -58.5t-107.5 -21.5q-55 0 -104.5 21.5t-86 58.5t-58.5 87t-22 108z" />
<glyph unicode="&#x2026;" horiz-adv-x="1310" d="M39 113q0 53 38 91t95 38q53 0 92 -38t39 -91t-39 -92t-92 -39q-57 0 -95 38.5t-38 92.5zM465 113q0 53 38 91t93 38t93 -38t38 -91t-38 -92t-93 -39t-93 38.5t-38 92.5zM891 113q0 53 38 91t93 38q53 0 92 -38t39 -91t-39 -92t-92 -39q-55 0 -93 38.5t-38 92.5z" />
<glyph unicode="&#x202f;" horiz-adv-x="376" />
<glyph unicode="&#x2039;" horiz-adv-x="569" d="M59 502l336 391h187l-344 -404l190 -376h-170z" />
<glyph unicode="&#x203a;" horiz-adv-x="569" d="M-6 113l338 401l-191 379h170l199 -391l-328 -389h-188z" />
<glyph unicode="&#x205f;" horiz-adv-x="470" />
<glyph unicode="&#x2122;" horiz-adv-x="1363" d="M170 1262l16 102h459l-18 -102h-166l-86 -496h-119l86 496h-172zM606 766l172 598h123l68 -340q4 -23 7 -45.5t5 -40.5q2 -23 4 -43h4q8 18 19 41q16 39 45 90l184 338h139l-39 -598h-118l26 324q4 45 10 86q4 23 7 43h-5q-8 -23 -18 -45q-10 -20 -21.5 -46t-27.5 -53 l-176 -309h-101l-57 295q-6 27 -9 55.5t-7 50.5q-4 27 -6 52h-5q-2 -16 -6 -39q-4 -18 -9 -42t-13 -53l-86 -319h-109z" />
<glyph unicode="&#x25fc;" horiz-adv-x="983" d="M0 0v983h983v-983h-983z" />
</font>
</defs>
</svg>
