<?xml version="1.0" standalone="no"?>
<!DOCTYPE svg PUBLIC "-//W3C//DTD SVG 1.1//EN" "http://www.w3.org/Graphics/SVG/1.1/DTD/svg11.dtd" >
<svg xmlns="http://www.w3.org/2000/svg">
<metadata></metadata>
<defs>
<font id="charterbold" horiz-adv-x="1189" >
<font-face units-per-em="2048" ascent="1561" descent="-487" />
<missing-glyph horiz-adv-x="595" />
<glyph horiz-adv-x="0" />
<glyph horiz-adv-x="682" />
<glyph unicode=" "  horiz-adv-x="595" />
<glyph unicode="&#x09;" horiz-adv-x="595" />
<glyph unicode="&#xa0;" horiz-adv-x="595" />
<glyph unicode="!" horiz-adv-x="696" d="M193 1239q0 78 41.5 120t113.5 42t114 -43t42 -125q0 -16 -2 -40t-6 -56l-93 -731h-108l-92 727q-4 37 -7 63.5t-3 42.5zM195 139q0 66 45 112t108 46t108.5 -46t45.5 -112t-45 -109.5t-109 -43.5q-61 0 -107 44t-46 109z" />
<glyph unicode="&#x22;" horiz-adv-x="694" d="M84 1334v20q0 109 94 108q96 0 96 -108v-19.5t-2 -19.5l-73 -459h-39l-74 459q-2 10 -2 19zM420 1334v20q0 53 25.5 80.5t70.5 27.5t70.5 -27.5t25.5 -78.5q0 -10 -1 -20.5t-3 -20.5l-73 -459h-39l-74 459q-2 10 -2 19z" />
<glyph unicode="#" horiz-adv-x="1507" d="M115 453v122h319l90 277h-309v127h350l160 475l129 -37l-152 -438h273l155 473l130 -37l-152 -436h274v-127h-315l-90 -277h321v-122h-364l-160 -500l-131 33l154 467h-267l-163 -502l-129 37l157 465h-280zM571 575h265l94 277h-268z" />
<glyph unicode="$" d="M125 63v355h137l41 -242q53 -29 113.5 -41t128.5 -14v467q-205 53 -303.5 147t-98.5 248t106.5 256t305.5 129v152h109v-150q86 -2 175 -16.5t185 -40.5v-338h-133l-37 229q-61 37 -190 47v-438q219 -57 323.5 -151.5t104.5 -247.5q0 -78 -30 -146.5t-85 -123t-136 -91.5 t-184 -51v-211h-112v211q-248 8 -420 61zM383 1044q0 -152 172 -202v401q-84 -16 -128 -68.5t-44 -130.5zM659 129q90 14 140.5 73.5t50.5 145.5q0 160 -191 211v-430z" />
<glyph unicode="%" horiz-adv-x="1818" d="M76 971q0 205 92 316.5t248 111.5t249 -112.5t93 -315.5q0 -205 -92.5 -318.5t-249.5 -113.5q-158 0 -249 113.5t-91 318.5zM270 971q0 -338 140 -338q143 0 143 338q0 336 -143 336q-139 0 -140 -336zM416 0l856 1374h143l-856 -1374h-143zM1083 406q0 205 93 316.5 t249 111.5t249 -114t93 -314q0 -205 -92 -318t-250 -113t-250 113t-92 318zM1280 406q0 -338 141 -338t142 338q-1 337 -142 337q-68 0 -104.5 -85t-36.5 -252z" />
<glyph unicode="&#x26;" horiz-adv-x="1517" d="M109 379q0 260 284 352q-186 150 -186 324q0 74 30.5 137t87 109.5t136.5 73t176 26.5q92 0 164.5 -23.5t124 -66.5t79 -100.5t27.5 -125.5q0 -127 -74.5 -210.5t-230.5 -135.5l322 -338q84 109 112 232l-24 35l-109 18v94h428v-94l-143 -27q-68 -201 -187 -342l187 -204 l170 -15v-98h-430v49l-86 98q-197 -172 -428 -172q-96 0 -175 31t-135.5 85t-88 128t-31.5 160zM367 461q0 -72 21.5 -130.5t61 -100.5t95 -65.5t123.5 -23.5q119 0 219 88l-410 435q-111 -86 -110 -203zM457 1112q0 -74 50 -144.5t142 -156.5q76 57 111 116.5t35 139.5 q0 102 -47.5 159.5t-124.5 57.5q-72 0 -119 -48t-47 -124z" />
<glyph unicode="'" horiz-adv-x="358" d="M84 1334v20q0 109 94 108q96 0 96 -108v-19.5t-2 -19.5l-73 -459h-39l-74 459q-2 10 -2 19z" />
<glyph unicode="(" horiz-adv-x="876" d="M186 584q0 422 159 648t446 238v-104q-193 -27 -278 -219.5t-85 -564.5q0 -367 88 -556.5t275 -211.5v-105q-141 6 -253 65.5t-190 171t-120 271.5t-42 367z" />
<glyph unicode=")" horiz-adv-x="876" d="M76 -186q193 25 277.5 216t84.5 562q0 369 -86 560t-276 214v104q281 -14 439.5 -239t158.5 -641q0 -207 -41 -369t-119 -273.5t-188.5 -172t-249.5 -66.5v105z" />
<glyph unicode="*" horiz-adv-x="1024" d="M109 1169l147 54l219 -156l-10 -29l-268 2zM262 850l215 160l25 -21l-84 -254l-152 -43zM414 1346l98 124l96 -124l-80 -256h-34zM518 991l27 17l215 -158l-6 -158l-152 43zM549 1069l217 156l147 -56l-88 -131l-266 -2z" />
<glyph unicode="+" horiz-adv-x="1705" d="M254 528v166h514v527h170v-527h514v-166h-514v-528h-170v528h-514z" />
<glyph unicode="," horiz-adv-x="591" d="M63 -264q111 20 169.5 85.5t58.5 172.5v20h-127q-43 45 -43 111q0 63 39 101t102 38q86 0 137.5 -57t51.5 -160q0 -78 -28 -147.5t-78 -122.5t-121.5 -89t-160.5 -46v94z" />
<glyph unicode="-" horiz-adv-x="667" d="M74 393v201h520v-201h-520z" />
<glyph unicode="." horiz-adv-x="591" d="M135 145q0 70 47 117t113 47q68 0 116 -48t48 -116t-48.5 -114.5t-115.5 -46.5q-66 0 -113 47t-47 114z" />
<glyph unicode="/" horiz-adv-x="1005" d="M-55 -190l866 1564h154l-867 -1564h-153z" />
<glyph unicode="0" d="M82 686q0 170 37 302t104.5 223.5t162.5 139.5t214 48t215 -48t165 -139.5t105.5 -224.5t36.5 -301q0 -170 -36.5 -302t-105.5 -222t-165 -138.5t-215 -48.5t-214 47.5t-162.5 138.5t-104.5 223t-37 302zM360 694q0 -602 242 -602t242 596t-242 596t-242 -590z" />
<glyph unicode="1" d="M223 1141v104l443 150h133v-1252l22 -32l193 -9v-102h-711v102l205 13l24 37v1007l-18 25z" />
<glyph unicode="2" d="M98 0v162q162 125 286 233.5t209 206.5t128 190.5t43 188.5q0 137 -67.5 212t-184.5 75q-57 0 -119 -25v-264q-68 -37 -129 -37q-68 0 -107.5 39t-39.5 104q0 63 33.5 121t96 101t151.5 67.5t200 24.5q102 0 185 -29t141.5 -82t90.5 -127t32 -162q0 -98 -44.5 -190 t-131.5 -187.5t-217 -195.5t-300 -217h574l37 180h125v-389h-992z" />
<glyph unicode="3" d="M86 233q0 59 40 96.5t105 37.5q18 0 38 -4.5t42 -12.5l66 -221q80 -31 141 -31q57 0 107.5 21.5t87.5 60.5t58.5 91.5t21.5 111.5q0 113 -76 182.5t-207 69.5q-23 0 -54.5 -2t-72.5 -8v147q16 -2 30.5 -2h28.5q145 0 223 66.5t78 185.5q0 109 -70.5 176.5t-183.5 67.5 q-53 0 -114 -25v-240q-45 -29 -109 -28q-66 0 -106.5 40t-40.5 101q0 55 31.5 106.5t92 90.5t144.5 62.5t188 23.5q102 0 184.5 -27t140.5 -73t89 -109.5t31 -136.5q0 -123 -85 -206t-251 -122q188 -14 287.5 -100t99.5 -228q0 -86 -40 -162.5t-113.5 -133t-180 -89.5 t-237.5 -33q-94 0 -171 20.5t-130.5 56.5t-83 82t-29.5 97z" />
<glyph unicode="4" d="M51 371v166l676 849h201v-854h231v-161h-231v-434h-240v434h-637zM238 532h450v572z" />
<glyph unicode="5" d="M113 227q0 53 42 91t111 38q16 0 34.5 -4t41.5 -10l70 -231q25 -6 48 -8.5t48 -2.5q61 0 115.5 22.5t94.5 62.5t62.5 94.5t22.5 117.5q0 137 -94.5 217t-264.5 80q-123 0 -247 -28v708h804v-213h-639v-346q133 45 248 45q106 0 192.5 -28.5t147 -82t93 -127t32.5 -163.5 q0 -102 -42 -190.5t-117.5 -152t-183 -99t-238.5 -35.5q-88 0 -159 19t-120 53t-75.5 78t-26.5 95z" />
<glyph unicode="6" d="M96 592q0 197 60.5 356.5t173 273t272.5 177t359 63.5v-151l-87 8q-205 -16 -328.5 -142t-162.5 -356q158 104 326 105q90 0 167.5 -34t134 -93.5t89.5 -141.5t33 -180q0 -111 -39 -204t-109 -159.5t-166 -103.5t-211 -37q-117 0 -212 42t-161.5 122t-102.5 194.5 t-36 260.5zM367 588q0 -244 70.5 -366t195.5 -122q100 0 164.5 89.5t64.5 248.5q0 152 -73.5 238t-198.5 86q-119 0 -219 -51q-2 -47 -3 -78t-1 -45z" />
<glyph unicode="7" d="M156 956v418h981v-133l-664 -1253v-58h-219l659 1217h-591l-31 -191h-135z" />
<glyph unicode="8" d="M86 367q0 121 70.5 202.5t205.5 122.5q-217 98 -217 320q0 88 34 159.5t95.5 123t149.5 80t197 28.5q98 0 178 -27.5t135 -75t85 -113t30 -140.5q0 -104 -60.5 -184.5t-181.5 -133.5q152 -53 224.5 -140t72.5 -216q0 -88 -35 -162t-102.5 -128t-164.5 -84t-220 -30 q-115 0 -206 31t-155.5 84t-99.5 126t-35 157zM328 389q0 -66 20.5 -119t57 -93t86 -61.5t108.5 -21.5q111 0 177.5 60.5t66.5 156.5q0 57 -23.5 101.5t-73 83.5t-122 73.5t-170.5 73.5q-66 -59 -96.5 -118.5t-30.5 -135.5zM403 1073q0 -98 76 -167t232 -130 q106 100 106 252q0 113 -59.5 182.5t-157.5 69.5q-86 0 -141.5 -58.5t-55.5 -148.5z" />
<glyph unicode="9" d="M86 899q0 111 38 203t108.5 158.5t169 102.5t221.5 36q113 0 205 -38t156.5 -108.5t99 -170t34.5 -224.5q0 -158 -56 -304t-165 -272t-268.5 -225.5t-364.5 -165.5l-55 136l92 16q197 90 319.5 211t180.5 283q-74 -39 -147.5 -59.5t-149.5 -20.5q-90 0 -167 31.5t-132 90 t-87 140.5t-32 180zM358 942q0 -160 77 -245t216 -85q86 0 178 45q10 47 15.5 97.5t5.5 103.5q0 205 -69.5 312.5t-186.5 107.5q-100 0 -168 -89t-68 -247z" />
<glyph unicode=":" horiz-adv-x="696" d="M195 145q0 70 46.5 117t112.5 47t113 -47t47 -117q0 -68 -47 -114.5t-113 -46.5t-112.5 47t-46.5 114zM195 838q0 68 46.5 114.5t112.5 46.5t113 -47t47 -114q0 -68 -47 -115t-113 -47t-112.5 47t-46.5 115z" />
<glyph unicode=";" horiz-adv-x="696" d="M139 -264q111 20 166 86.5t55 175.5v16h-122q-43 45 -43 111q0 63 37.5 101t101.5 38q86 0 136 -57t50 -160q0 -78 -26.5 -147.5t-76.5 -122.5t-121 -89t-157 -46v94zM195 838q0 68 46.5 114.5t112.5 46.5t113 -47t47 -114q0 -68 -47 -115t-113 -47t-112.5 47t-46.5 115z " />
<glyph unicode="&#x3c;" horiz-adv-x="1705" d="M264 530v160l1178 486v-185l-934 -381l934 -381v-182z" />
<glyph unicode="=" horiz-adv-x="1705" d="M254 322v165h1198v-165h-1198zM254 733v168h1198v-168h-1198z" />
<glyph unicode="&#x3e;" horiz-adv-x="1705" d="M264 47v182l934 381l-934 381v185l1178 -486v-160z" />
<glyph unicode="?" horiz-adv-x="997" d="M72 1174q0 45 25.5 85.5t72.5 71.5t113.5 49.5t150.5 18.5q104 0 190.5 -28t145.5 -77t92 -118.5t33 -153.5q0 -301 -430 -440v-187h-133v277q297 102 297 350q0 121 -70 189.5t-197 68.5h-6l-92 -231q-10 -2 -20.5 -2h-20.5q-72 0 -111.5 33.5t-39.5 93.5zM250 143 q0 63 44 108.5t107 45.5q66 0 111 -45t45 -115q0 -61 -46 -106t-112 -45q-59 0 -104 44t-45 113z" />
<glyph unicode="@" horiz-adv-x="1878" d="M154 502q0 414 290 682q123 113 283 173t344 60q154 0 278 -47t213 -133t137 -207t48 -266q0 -231 -111 -404q-37 -59 -84 -105t-98 -79t-104.5 -49t-102.5 -16q-162 -1 -162 163q-154 -158 -286 -157q-111 0 -182.5 87t-71.5 240q0 201 112 351q74 102 177.5 156.5 t209.5 54.5q94 0 197 -54l35 47h139q-20 -53 -31.5 -106t-23.5 -107l-74 -348q-8 -37 -12 -67.5t-4 -59.5t19.5 -49t49.5 -20q41 0 85 25.5t85 78.5q63 80 98 187.5t35 222.5q0 125 -39.5 228t-114.5 177t-180.5 115t-236.5 41q-154 0 -284 -51.5t-234 -149.5 q-244 -231 -244 -586q0 -166 51.5 -301t143.5 -230t221 -147.5t287 -52.5q264 0 520 150l37 -82q-160 -92 -314.5 -136t-296.5 -44q-168 0 -315 58t-264 173q-225 219 -225 584zM758 477q0 -217 147 -217q92 0 187 129l73 408l-73 108q-10 2 -19.5 3t-19.5 1 q-61 0 -114.5 -31.5t-93.5 -89t-63.5 -137.5t-23.5 -174z" />
<glyph unicode="A" horiz-adv-x="1333" d="M-23 0v100l123 19l463 1270h215l471 -1268l121 -21v-100h-553v100l129 13l15 26l-123 348h-447l-123 -346l21 -26l129 -15v-100h-441zM430 602h361l-183 506z" />
<glyph unicode="B" horiz-adv-x="1286" d="M59 0v100l121 11l33 32v1092l-33 29l-121 10v100h615q454 0 454 -320q0 -245 -292 -323q180 -4 276 -91t96 -239q0 -195 -131 -298t-385 -103h-633zM479 117q27 -2 51.5 -3t47.5 -1q180 0 262 64.5t82 211.5q0 260 -308 260h-58.5t-76.5 -4v-528zM479 764q14 -2 27.5 -2 h28.5q160 0 235.5 63.5t75.5 202.5q0 236 -285 236q-20 0 -39.5 -1t-42.5 -3v-496z" />
<glyph unicode="C" horiz-adv-x="1306" d="M84 686q0 158 54.5 291t158.5 233q195 188 516 189q207 0 418 -76v-342h-152l-39 219l-28 35q-84 31 -162 31q-104 0 -190.5 -39t-147.5 -114t-94 -182.5t-33 -242.5q0 -137 34 -245.5t97.5 -183.5t154.5 -115t206 -40q51 0 124 19l31 31l51 247h148v-352 q-207 -74 -430 -74q-111 0 -206 24t-171 69q-160 96 -250 257.5t-90 360.5z" />
<glyph unicode="D" horiz-adv-x="1466" d="M59 0v100l125 11l33 32v1088l-33 33l-125 10v100h598q178 0 315.5 -47t231.5 -136t142.5 -216t48.5 -289q0 -365 -252 -557q-96 -74 -214 -101.5t-272 -27.5h-598zM487 115h119q483 0 484 573q0 291 -119 431.5t-365 140.5h-119v-1145z" />
<glyph unicode="E" horiz-adv-x="1220" d="M59 0v100l125 11l33 32v1092l-33 29l-125 10v100h1033v-321h-144l-30 180l-27 27h-408v-488h267l28 29l21 147h121v-475h-121l-21 148l-28 28h-267v-532h475l27 33l35 217h139v-367h-1100z" />
<glyph unicode="F" horiz-adv-x="1130" d="M53 1274v100h1028v-344h-141l-31 199l-26 26h-396v-510h275l29 27l20 150h121v-478h-121l-20 150l-29 27h-275v-478l35 -32l144 -11v-100h-605v100l123 11l33 32v1092l-33 29z" />
<glyph unicode="G" horiz-adv-x="1454" d="M82 696q0 158 53 287t150.5 221t235.5 142.5t308 50.5q205 0 433 -68v-348h-150l-39 217l-31 37q-80 33 -170 33q-115 0 -206 -39t-155.5 -113t-98 -179.5t-33.5 -240.5q0 -279 135 -431t373 -152q33 0 112 6v418l-32 28l-152 10v101h598v-101l-119 -10l-32 -28v-478 q-240 -84 -459 -84q-162 0 -294 52.5t-227.5 147.5t-147.5 228.5t-52 292.5z" />
<glyph unicode="H" horiz-adv-x="1556" d="M61 0v100l119 11l33 32v1088l-33 33l-119 10v100h580v-100l-123 -10l-33 -33v-449h592v449l-30 33l-123 10v100h577v-100l-119 -10l-32 -33v-1088l32 -32l119 -11v-100h-577v100l123 11l30 32v516h-592v-516l33 -32l123 -11v-100h-580z" />
<glyph unicode="I" horiz-adv-x="724" d="M61 0v100l136 11l32 32v1092l-32 29l-136 10v100h613v-100l-137 -10l-33 -29v-1092l33 -32l137 -11v-100h-613z" />
<glyph unicode="J" horiz-adv-x="952" d="M25 25v368h149l47 -270l29 -27q8 0 16 -1t17 -1q139 0 190 107.5t51 333.5v700l-32 29l-144 10v100h602v-100l-125 -10l-32 -29v-698q0 -289 -112 -425.5t-364 -136.5q-143 0 -292 50z" />
<glyph unicode="K" horiz-adv-x="1331" d="M61 0v100l125 11l31 32v1092l-31 29l-125 10v100h582v-100l-121 -10l-33 -29v-537h58l444 539l-12 27l-115 10v100h461v-100l-143 -14l-389 -465l436 -682l147 -13v-100h-424v72l-344 530h-119v-459l33 -32l121 -11v-100h-582z" />
<glyph unicode="L" horiz-adv-x="1112" d="M55 0v100l125 11l35 32v1092l-29 29l-131 10v100h590v-100l-125 -10l-33 -29v-1116h394l26 33l31 249h152v-401h-1035z" />
<glyph unicode="M" horiz-adv-x="1808" d="M51 0v100l131 15l29 37v1085l-25 27l-135 12v98h537v-57l319 -940l318 938v59h542v-98l-139 -12l-22 -29v-1092l22 -32l139 -11v-100h-567v100l127 11l21 32v1100l-426 -1243h-148l-416 1233v-1081l31 -37l127 -15v-100h-465z" />
<glyph unicode="N" horiz-adv-x="1488" d="M51 1274v100h471v-55l627 -973v877l-37 39l-125 16v96h467v-96l-121 -16l-35 -39v-1223h-229l-709 1100v-948l33 -37l127 -17v-98h-467v98l121 17l37 37v1083l-29 29z" />
<glyph unicode="O" horiz-adv-x="1540" d="M84 694q0 338 211 533q193 178 479 178q262 0 451 -160q119 -102 181 -245.5t62 -317.5q0 -164 -55 -299t-164 -236q-94 -88 -212.5 -134t-248.5 -46q-160 0 -289.5 52.5t-222 147.5t-142.5 229t-50 298zM389 690q0 -141 30 -252.5t81 -188.5t121.5 -117t152.5 -40 q84 0 155.5 40t123 116t80 184.5t28.5 243.5q0 141 -28.5 252.5t-78.5 188.5t-121 117t-155 40q-86 0 -156.5 -40t-123 -115t-81 -183.5t-28.5 -245.5z" />
<glyph unicode="P" horiz-adv-x="1202" d="M51 1274v100h553q285 0 422 -96t137 -317q0 -213 -138 -334t-398 -121q-47 0 -140 6v-369l31 -32l146 -11v-100h-605v100l121 11l37 32v1092l-31 29zM487 629q20 -2 39 -3t35 -1q319 0 320 327q0 147 -73 225t-214 78h-107v-626z" />
<glyph unicode="Q" horiz-adv-x="1540" d="M80 688q0 236 119 424q88 135 237.5 215t329.5 80q276 0 459 -158q121 -104 185.5 -248.5t64.5 -320.5q0 -133 -39 -249t-110 -205t-172 -149.5t-224 -80.5q4 -123 71.5 -180.5t204.5 -57.5q86 0 189 25v-105q-197 -43 -338 -43q-213 0 -314.5 83t-101.5 264v6 q-129 20 -232.5 79.5t-176 150.5t-112.5 210t-40 260zM389 694q0 -139 30 -248.5t83 -186.5t125.5 -117t156.5 -40q82 0 152 40t120 115t78.5 183.5t28.5 245.5t-29.5 246.5t-82 185.5t-124 116t-157.5 40q-84 0 -153.5 -39t-120 -113.5t-79 -182.5t-28.5 -245z" />
<glyph unicode="R" horiz-adv-x="1374" d="M63 0v100l121 11l33 32v1092l-33 29l-121 10v100h623q240 0 360.5 -89t120.5 -261q0 -285 -352 -350q74 -16 127 -47t88 -80q47 -68 68.5 -146.5t50.5 -156.5q33 -84 86 -114t156 -30h26v-98q-53 -8 -105 -12t-100 -4q-66 0 -121 17t-92 46q-41 31 -65.5 63.5t-40.5 66.5 t-27.5 70t-23.5 73q-25 74 -49.5 127t-59.5 87.5t-86 51t-129 16.5h-35v-461l33 -32l125 -11v-100h-578zM483 723q20 -2 39 -2h35q166 0 245 66.5t79 207.5q0 127 -77 194.5t-226 67.5h-95v-534z" />
<glyph unicode="S" horiz-adv-x="1163" d="M121 45v371h155l33 -246l27 -31q87 -28 174 -28h6q125 0 194.5 54t69.5 140q0 84 -54 143.5t-165 114.5q-61 31 -131 62.5t-137 89.5q-72 59 -107.5 132t-35.5 148q0 86 34.5 160t97 128t151.5 85t200 31q186 0 385 -70v-332h-148l-34 213l-29 29q-29 14 -64.5 21.5 t-85.5 7.5q-113 0 -177 -54.5t-64 -140.5q0 -72 42 -122t124 -99q47 -29 123.5 -58.5t168.5 -88.5q90 -57 137.5 -136.5t47.5 -171.5t-38 -168.5t-107.5 -132t-171 -87.5t-226.5 -32q-98 0 -198.5 16.5t-196.5 51.5z" />
<glyph unicode="T" horiz-adv-x="1234" d="M33 1012v362h1181v-362h-141l-35 219l-30 26h-246v-1114l35 -32l133 -11v-100h-613v100l134 11l34 32v1114h-245l-33 -26l-33 -219h-141z" />
<glyph unicode="U" horiz-adv-x="1443" d="M41 1274v100h588v-100l-127 -10l-29 -29v-717q0 -199 75 -290t259 -91q170 0 240.5 97.5t70.5 302.5v690l-31 35l-131 12v100h465v-100l-125 -12l-28 -35v-711q0 -281 -126 -411t-415 -130q-154 0 -264.5 44t-173.5 124q-59 78 -74.5 171.5t-15.5 211.5v709l-29 29z" />
<glyph unicode="V" horiz-adv-x="1300" d="M-43 1274v100h563v-100l-119 -10l-22 -31l340 -934l330 934l-23 31l-123 10v100h449v-100l-133 -27l-455 -1251h-207l-465 1253z" />
<glyph unicode="W" horiz-adv-x="1937" d="M4 1274v100h537v-98l-127 -14l-17 -29l230 -850l295 991h206l304 -1014l215 861l-25 28l-135 25v100h446v-100l-129 -29l-313 -1245h-199l-317 1049l-311 -1049h-199l-332 1245z" />
<glyph unicode="X" horiz-adv-x="1304" d="M0 0v98l131 21l399 547l-372 589l-129 21v98h579v-98l-123 -10l-16 -27l233 -381l267 375l-19 29l-112 14v98h458v-98l-127 -16l-381 -517l394 -618l137 -27v-98h-594v98l129 17l14 26l-250 410l-290 -406l12 -34l133 -13v-98h-473z" />
<glyph unicode="Y" horiz-adv-x="1249" d="M-23 1274v100h560v-100l-115 -10l-19 -25l281 -520l293 502l-16 32l-123 23v98h446v-100l-121 -23l-389 -661v-449l33 -28l139 -11v-102h-614v102l137 11l33 28v400l-393 712z" />
<glyph unicode="Z" horiz-adv-x="1212" d="M90 0v113l717 1142h-463l-39 -24l-33 -219h-145v362h987v-112l-717 -1141h525l20 29l37 247h147v-397h-1036z" />
<glyph unicode="[" horiz-adv-x="907" d="M279 -270v1720h550v-115h-315v-1493h315v-112h-550z" />
<glyph unicode="\" horiz-adv-x="1005" d="M-14 1374h153l856 -1564h-153z" />
<glyph unicode="]" horiz-adv-x="907" d="M86 -158h315v1495h-315v113h553v-1720h-553v112z" />
<glyph unicode="^" horiz-adv-x="2048" d="M412 897l503 565h215l502 -565h-104l-506 397l-506 -397h-104z" />
<glyph unicode="_" horiz-adv-x="1024" d="M0 -311h1024v-172h-1024v172z" />
<glyph unicode="`" horiz-adv-x="1024" d="M176 1520h254l199 -390h-140z" />
<glyph unicode="a" horiz-adv-x="1114" d="M82 248q0 88 37 146.5t113.5 101.5t194.5 74.5t278 68.5v61q0 111 -46.5 162t-148.5 51q-43 0 -98 -12v-192h-189q-47 0 -70.5 17t-23.5 58q0 43 32 86t90 77t140 54.5t184 20.5q106 0 180 -19.5t119.5 -63.5t64.5 -112.5t19 -167.5v-530l27 -29l109 -10v-90h-365 l-27 117q-98 -66 -183 -100.5t-169 -34.5q-59 0 -108 19t-85 55t-55.5 84t-19.5 108zM352 293q0 -72 40 -113t112 -41q78 0 198 62v334q-90 -20 -156.5 -42t-109.5 -49.5t-63.5 -63.5t-20.5 -87z" />
<glyph unicode="b" horiz-adv-x="1181" d="M18 1337v80l304 96h98v-585q166 92 297 92q88 0 161.5 -34t127 -95.5t84 -146.5t30.5 -189q0 -180 -82 -308t-241 -200q-115 -49 -348 -49h-56l-227 4v1335h-148zM420 111q16 -2 32.5 -2h32.5q186 0 273.5 95t87.5 298q0 176 -78 267t-219 91q-51 0 -129 -16v-733z" />
<glyph unicode="c" horiz-adv-x="974" d="M72 487q0 117 39 214.5t109.5 168t167.5 109.5t212 39q160 0 249 -64.5t89 -158.5q0 -59 -41 -99.5t-106 -40.5q-68 0 -121 39v217q-31 6 -52 7q-53 0 -102 -27t-86 -76t-58.5 -119.5t-21.5 -158.5q0 -186 86 -289t230 -103q133 0 284 93v-146q-98 -53 -193 -80.5 t-194 -27.5q-111 0 -202 36.5t-155.5 103t-99 160t-34.5 203.5z" />
<glyph unicode="d" horiz-adv-x="1220" d="M76 475q0 123 39 224.5t108.5 174t166.5 111.5t214 39q41 0 89 -5t104 -15v331h-150v82l305 96h95v-1382l28 -33l105 -8v-90h-383v115q-88 -66 -167 -99.5t-157 -33.5q-86 0 -158.5 35.5t-126 100t-83 156t-29.5 201.5zM350 518q0 -174 73 -268t202 -94q37 0 80 10t92 29 v684q-87 30 -148 30h-4q-131 0 -213 -103.5t-82 -287.5z" />
<glyph unicode="e" horiz-adv-x="1073" d="M76 496q0 117 38 214t104.5 166.5t159.5 108.5t204 39q203 0 314.5 -120t111.5 -343v-39h-670v-6q0 -178 88 -276.5t242 -98.5q162 0 338 113v-152q-205 -120 -420 -120h-4q-115 0 -208 36.5t-160 104t-102.5 162t-35.5 211.5zM348 631h391v22q0 129 -46 193.5t-132 64.5 q-92 0 -150.5 -72.5t-62.5 -207.5z" />
<glyph unicode="f" horiz-adv-x="698" d="M61 848v78l134 61q0 295 208 449q57 43 121 64.5t127 21.5q90 0 141.5 -42t51.5 -108q0 -86 -119 -127l-199 176q-80 -84 -80 -311v-16v-123h275v-123h-275v-713l33 -31l137 -10v-94h-553v94l103 10l29 33v711h-134z" />
<glyph unicode="g" horiz-adv-x="1128" d="M70 -164q0 96 56 155.5t155 69.5q-27 55 -27 103q0 51 27.5 97t85.5 97q-125 35 -189.5 116t-64.5 192q0 78 29.5 143t87 111.5t138.5 72t183 25.5q137 0 283 -60h303v-116h-222q45 -78 46 -158q0 -74 -30 -136.5t-86.5 -107.5t-137 -70.5t-181.5 -25.5h-28.5t-30.5 2 q-16 -43 -16 -76q0 -25 6 -55l139 -18q111 -16 194.5 -37t140 -53.5t85 -77.5t28.5 -111q0 -72 -39.5 -137.5t-111.5 -115.5t-174.5 -79.5t-224.5 -29.5q-205 0 -314.5 76.5t-109.5 203.5zM319 -131q0 -84 67 -144.5t171 -60.5q55 0 100 15.5t77 42t49.5 61.5t17.5 74 q0 76 -55.5 105.5t-165.5 47.5l-174 29q-86 -72 -87 -170zM375 684q0 -117 47 -182.5t121 -65.5q72 0 119 66.5t47 183.5q0 111 -47 173.5t-115 62.5q-78 0 -125 -62.5t-47 -175.5z" />
<glyph unicode="h" horiz-adv-x="1222" d="M33 1337v80l303 96h98v-618q111 59 196 92t154 33q281 0 281 -340v-549l27 -31l108 -8v-92h-502v92l88 8l29 31v490q0 115 -44 168t-140 53q-76 0 -197 -35v-676l31 -31l90 -8v-92h-506v92l105 8l28 31v1206h-149z" />
<glyph unicode="i" horiz-adv-x="624" d="M61 0v92l111 8l29 31v707h-135v82l288 96h99v-885l30 -31l115 -8v-92h-537zM184 1329q0 66 42.5 110t105.5 44q70 0 111.5 -43t41.5 -107q0 -70 -43 -112.5t-108 -42.5q-61 0 -105.5 42t-44.5 109z" />
<glyph unicode="j" horiz-adv-x="608" d="M-164 -295q0 49 32 87t87 48l201 -186q39 53 53 153.5t14 251.5v779h-145v80l309 98h86v-815q0 -154 -20.5 -269.5t-90.5 -205.5q-59 -78 -150 -121t-189 -43q-86 0 -136.5 41t-50.5 102zM193 1329q0 68 41.5 111t111.5 43q63 0 106.5 -44t43.5 -112q0 -63 -45 -106 t-109 -43q-61 0 -105 41.5t-44 109.5z" />
<glyph unicode="k" horiz-adv-x="1132" d="M37 1337v80l315 96h86v-983h45l293 342l-14 23l-90 10v90h418v-90l-134 -16l-233 -260l326 -529l120 -10v-90h-393v80l-237 383h-101v-336l27 -29l102 -8v-90h-516v90l107 10l28 31v1206h-149z" />
<glyph unicode="l" horiz-adv-x="622" d="M47 0v90l119 12l29 29v1204h-148v80l309 98h90v-1378l31 -33l119 -12v-90h-549z" />
<glyph unicode="m" horiz-adv-x="1826" d="M63 0v92l105 8l29 31v707h-134v82l289 96h99v-121q104 61 186 95t149 34q156 0 240 -143q123 72 214 105.5t149 33.5q285 0 284 -340v-549l27 -31l108 -8v-92h-503v92l88 8l28 31v490q0 117 -43 169t-145 52q-39 0 -82 -10.5t-94 -28.5v-672l28 -31l93 -10v-90h-484v92 l84 8l29 35v498q0 109 -43 160t-141 51q-74 0 -172 -37v-676l28 -31l86 -8v-92h-502z" />
<glyph unicode="n" horiz-adv-x="1239" d="M57 838v82l295 96h99v-121q111 59 196.5 92t153.5 33q279 0 278 -340v-549l27 -31l108 -8v-92h-501v92l88 8l28 31v490q0 115 -43 168t-141 53q-74 0 -194 -35v-676l28 -31l90 -8v-92h-506v92l105 8l29 31v707h-140z" />
<glyph unicode="o" horiz-adv-x="1181" d="M76 498q0 119 38 215t106.5 164.5t166.5 106.5t219 38q117 0 212 -37t163 -105.5t103.5 -166t35.5 -219.5q0 -115 -38 -208t-106.5 -161t-166.5 -104.5t-219 -36.5q-115 0 -210 36.5t-162.5 104.5t-104.5 162t-37 211zM360 506q0 -203 63.5 -308.5t172.5 -105.5 q115 0 178.5 103.5t63.5 304.5q0 203 -64.5 308t-175.5 105t-174.5 -104t-63.5 -303z" />
<glyph unicode="p" horiz-adv-x="1210" d="M45 838v82l299 96h92v-123q92 63 170 96t154 33q82 0 152.5 -35t122.5 -99.5t82 -153.5t30 -195q0 -123 -38 -223.5t-108.5 -171t-171 -108.5t-225.5 -38q-68 0 -168 12v-327l31 -29l129 -8l-2 -95h-547v95l111 10l28 31v1151h-141zM436 123q66 -14 131 -14 q135 0 218 105t83 290q0 166 -72.5 254t-197.5 88q-66 0 -162 -39v-684z" />
<glyph unicode="q" horiz-adv-x="1177" d="M76 469q0 262 167 407.5t480 145.5q70 0 148.5 -7.5t170.5 -19.5q-6 -104 -6 -118v-1194l31 -29l102 -8v-92h-546v94l131 8l30 29v403q-174 -96 -305 -96q-86 0 -160.5 34.5t-128 97t-84 150.5t-30.5 195zM352 512q0 -174 77 -266t212 -92q29 0 65.5 3t77.5 11v731 q-29 4 -53 7t-49 3q-160 0 -245 -102t-85 -295z" />
<glyph unicode="r" horiz-adv-x="862" d="M49 838v82l301 96h99l-9 -209q55 59 115.5 111.5t124.5 97.5q10 2 22.5 3t22.5 1q66 0 135 -35l-26 -283h-107q-45 74 -133 74q-51 0 -145 -57v-588l30 -31l146 -8v-92h-566v92l109 8l29 31v707h-148z" />
<glyph unicode="s" horiz-adv-x="915" d="M84 29v303h125l22 -176l21 -23q80 -43 172 -43q84 0 129 40t45 108q0 41 -19.5 68.5t-55.5 49t-86 42t-109 51.5q-115 57 -172.5 117.5t-57.5 152.5q0 133 105.5 219t296.5 86q156 0 309 -51v-273h-123l-20 154l-25 23q-68 32 -131 32h-4q-76 0 -116 -32.5t-40 -90.5 q0 -33 12.5 -56t37 -43.5t60.5 -39t81 -41.5q68 -33 123 -61.5t94 -61t60.5 -72.5t21.5 -96q0 -156 -109.5 -247t-308.5 -91q-152 0 -338 52z" />
<glyph unicode="t" horiz-adv-x="733" d="M39 848v78l151 86l107 213h129v-254h303v-123h-303v-510q0 -55 7 -93t26.5 -61.5t52.5 -34t84 -10.5q76 0 133 15v-99q-92 -35 -171 -50t-142 -15q-51 0 -93 10t-77 35q-53 35 -63.5 87t-10.5 130v596h-133z" />
<glyph unicode="u" horiz-adv-x="1228" d="M47 844v80l289 98h98v-635q0 -121 44 -175t151 -54q39 0 82 8t94 24v654h-133v80l291 98h94v-891l28 -31l107 -8v-92h-387v113q-98 -63 -180 -97t-164 -34q-281 0 -281 350v512h-133z" />
<glyph unicode="v" horiz-adv-x="1050" d="M-12 903v94h520v-94l-107 -10l-22 -27l213 -598l233 596l-16 29l-104 10v94h389v-94l-119 -14l-352 -889h-185l-327 891z" />
<glyph unicode="w" horiz-adv-x="1636" d="M-2 903v94h508v-94l-100 -14l-23 -29l166 -590l239 727h205l224 -727l180 592l-15 29l-108 12v94h387v-94l-115 -14l-278 -889h-207l-227 735l-244 -735h-205l-264 891z" />
<glyph unicode="x" horiz-adv-x="1087" d="M23 0v90l120 23l287 366l-285 408l-116 16v94h493v-86l-78 -12l-10 -22l164 -244l178 256l-104 18v90h377v-94l-113 -14l-262 -340l305 -440l108 -19v-90h-479v80l72 18l8 21l-180 274l-193 -282l105 -21v-90h-397z" />
<glyph unicode="y" horiz-adv-x="1054" d="M-8 907v88h520v-88l-104 -12l-21 -29l221 -579l223 577l-18 31l-108 12v88h393v-88l-111 -18l-395 -961q-76 -182 -177.5 -279.5t-203.5 -97.5q-76 0 -126 46.5t-50 105.5q0 45 27.5 82t78.5 63l178 -122q84 68 160 249l-364 914z" />
<glyph unicode="z" horiz-adv-x="1013" d="M94 0v127l529 758h-332l-27 -29l-20 -170h-133v309h811v-106l-543 -774h379l30 32l25 189h139v-336h-858z" />
<glyph unicode="{" horiz-adv-x="1009" d="M94 539v116h41q70 0 116 14.5t73.5 45t39 81t11.5 122.5v172q0 98 24.5 165.5t78.5 109.5t138 60.5t203 18.5h43v-105q-76 -2 -125 -16t-76.5 -45t-39 -78t-11.5 -117v-129q0 -162 -69.5 -246.5t-227.5 -111.5q154 -25 226.5 -110t72.5 -242v-150q0 -74 10.5 -123 t38 -79.5t75.5 -44t126 -13.5v-108q-16 0 -30.5 -1t-30.5 -1q-117 0 -199 19t-132 64.5t-72.5 118t-22.5 178.5v166q0 74 -12.5 125t-40 83t-73.5 46.5t-114 14.5h-41z" />
<glyph unicode="|" horiz-adv-x="1024" d="M424 -483v2048h178v-2048h-178z" />
<glyph unicode="}" horiz-adv-x="1009" d="M127 -166q78 0 127 14.5t76.5 45t38 80t10.5 120.5v150q0 158 71.5 242.5t225.5 109.5q-158 27 -226.5 112t-68.5 246v129q0 70 -11.5 118t-40 78t-77.5 44t-125 16v105h43q121 0 206 -18.5t138 -59.5t77.5 -109.5t24.5 -166.5v-172q0 -143 50.5 -204t183.5 -61 q10 0 21.5 1t23.5 1v-116h-41q-68 0 -114 -14.5t-73.5 -46.5t-40 -83t-12.5 -125v-166q0 -106 -22.5 -178.5t-72.5 -118t-132 -64.5t-199 -19q-16 0 -30.5 1t-30.5 1v108z" />
<glyph unicode="~" horiz-adv-x="1705" d="M178 434v187q211 143 387 143q88 0 159 -18.5t134 -40.5q76 -27 146.5 -50.5t146.5 -23.5q90 0 182 39t197 114v-184q-100 -70 -194.5 -105.5t-186.5 -35.5q-90 0 -191 35q-106 35 -201 67.5t-194 32.5q-90 0 -182 -41t-203 -119z" />
<glyph unicode="&#xa1;" horiz-adv-x="696" d="M193 154q0 16 1 39.5t5 56.5l94 731h106l95 -727q4 -35 7 -62.5t3 -50.5q0 -72 -43 -114.5t-115 -42.5t-112.5 45t-40.5 125zM195 1247q0 66 45 110t108 44q61 0 107.5 -44t46.5 -110t-45.5 -111.5t-108.5 -45.5t-108 46t-45 111z" />
<glyph unicode="&#xa2;" d="M121 518q0 109 34.5 201t99 160.5t159 110.5t211.5 54v209h112v-204q74 -2 146.5 -16.5t146.5 -43.5v-295h-121l-30 201q-35 20 -71 28.5t-71 8.5v-815q74 0 142 30l30 213h123v-309q-61 -23 -135 -34t-160 -15v-211h-112v213q-115 8 -208 50t-158.5 109.5t-101.5 158 t-36 196.5zM381 516q0 -154 66.5 -259t177.5 -136v807q-115 -33 -179.5 -139.5t-64.5 -272.5z" />
<glyph unicode="&#xa3;" d="M88 0v147q121 31 167 123t46 269q0 18 -1 36.5t-1 36.5h-143v123h141q-6 61 -6 119q0 262 123 399.5t340 137.5q78 0 142.5 -19.5t110.5 -51.5t70.5 -75t24.5 -90q0 -59 -43 -99t-115 -40q-27 0 -82 16v238q-20 6 -38.5 8t-37.5 2q-133 0 -187 -103.5t-54 -320.5 q0 -29 1 -58.5t3 -62.5h371v-123h-369q0 -147 -50 -246.5t-157 -158.5l4 -17q51 8 87 11.5t59 3.5h612v-205h-1018z" />
<glyph unicode="&#xa4;" horiz-adv-x="1241" d="M76 432l203 205q-80 106 -80 248q0 139 80 248l-203 204l92 93l203 -203q109 82 250 82q143 0 251 -82l203 203l94 -93l-204 -204q80 -109 79 -248q0 -141 -79 -248l204 -205l-94 -92l-203 205q-113 -82 -249 -82q-143 0 -252 82l-203 -205zM332 885q0 -59 22.5 -112.5 t62.5 -92.5t92 -61.5t114 -22.5q61 0 113 22.5t92 61.5t62.5 92.5t22.5 112.5t-22.5 111.5t-62.5 92t-93 63.5t-112 24t-112.5 -24t-93.5 -63.5t-62.5 -92t-22.5 -111.5z" />
<glyph unicode="&#xa5;" horiz-adv-x="1218" d="M-14 1274v100h538v-100l-110 -10l-19 -25l269 -520l276 502l-16 32l-115 23v98h426v-100l-115 -23l-207 -370h271v-103h-332l-109 -196h441v-101h-436v-340l32 -28l144 -11v-102h-613v102l140 11l34 28v340h-440v101h420l-100 196h-320v103h258l-192 372z" />
<glyph unicode="&#xa6;" horiz-adv-x="1024" d="M424 -350v758h178v-758h-178zM424 674v758h178v-758h-178z" />
<glyph unicode="&#xa7;" horiz-adv-x="1024" d="M94 586q0 217 242 321q-104 53 -152.5 116.5t-48.5 152.5q0 135 108.5 216t311.5 81q147 0 311 -50v-278h-108l-21 168q-102 55 -186 55q-88 0 -142.5 -46t-54.5 -116q0 -43 20.5 -72.5t58.5 -54t92.5 -49t119.5 -57.5q145 -72 215 -154t70 -192q0 -104 -64.5 -195.5 t-183.5 -138.5q106 -55 156.5 -118.5t50.5 -151.5q0 -137 -108.5 -225.5t-307.5 -88.5q-160 0 -328 66l-2 280h119l27 -186q96 -51 188 -51t145.5 47t53.5 115q0 49 -23.5 82.5t-68.5 62.5t-107.5 58.5t-138.5 66.5q-244 117 -244 336zM270 643q0 -92 78 -156.5t234 -136.5 q84 49 125 101.5t41 115.5q0 84 -76 150.5t-230 132.5q-86 -33 -129 -86t-43 -121z" />
<glyph unicode="&#xa8;" horiz-adv-x="1024" d="M170 1319q0 57 39 96t92 39t91 -39t38 -96q0 -55 -38 -94t-91 -39t-92 39t-39 94zM594 1319q0 57 38 96t91 39t91 -39t38 -96q0 -55 -38 -94t-91 -39q-55 0 -92 39t-37 94z" />
<glyph unicode="&#xa9;" horiz-adv-x="1794" d="M127 694q0 160 58.5 303.5t168.5 259.5q111 115 254 175.5t301 60.5q154 0 299.5 -61.5t255.5 -176.5q106 -111 165 -258t59 -309q0 -154 -61.5 -300t-178.5 -263q-111 -111 -250 -169t-301 -58q-147 0 -287.5 60t-253.5 175t-171 257t-58 304zM225 696q0 -145 51.5 -271 t149.5 -226q203 -207 481 -207q137 0 259 52t220 155q98 104 150.5 231t52.5 266q0 141 -52 271.5t-148 228.5q-98 98 -223.5 151.5t-256.5 53.5q-137 0 -262 -54.5t-223 -154.5q-98 -102 -148.5 -228t-50.5 -268zM434 692q0 104 36 193.5t102.5 153t159.5 99.5t208 36 q154 0 289 -52v-248h-109l-30 164q-59 37 -125 37q-68 0 -124.5 -27.5t-97.5 -77.5t-63.5 -120t-22.5 -156q0 -88 22.5 -158.5t63.5 -120.5t96.5 -77t121.5 -27q63 0 131 31l30 176h107v-256q-135 -51 -303 -51q-109 0 -199 36t-155.5 99.5t-101.5 151.5t-36 194z" />
<glyph unicode="&#xaa;" horiz-adv-x="835" d="M61 850q0 61 28 102t85 70t145.5 52.5t208.5 47.5v43q0 78 -34.5 114t-110.5 36q-39 0 -74 -8v-136h-141q-72 0 -72 54q0 31 23.5 60.5t67.5 53t106.5 38t138.5 14.5q80 0 135.5 -13.5t89 -44t48 -79t14.5 -117.5v-371l20 -21l82 -6v-63h-274l-21 82q-74 -47 -137 -70.5 t-127 -23.5q-88 0 -144.5 51t-56.5 135zM264 881q0 -49 31 -78t84 -29q57 0 147 43v234q-135 -29 -198.5 -64t-63.5 -106z" />
<glyph unicode="&#xab;" horiz-adv-x="919" d="M72 406v172l354 294v-172l-221 -208l221 -209v-172zM473 406v172l354 294v-172l-221 -208l221 -209v-172z" />
<glyph unicode="&#xac;" horiz-adv-x="1705" d="M254 696v166h1198v-502h-166v336h-1032z" />
<glyph unicode="&#xad;" horiz-adv-x="667" d="M74 393v201h520v-201h-520z" />
<glyph unicode="&#xae;" horiz-adv-x="1794" d="M127 694q0 160 58.5 303.5t168.5 259.5q111 115 254 175.5t301 60.5q154 0 299.5 -61.5t255.5 -176.5q106 -111 165 -258t59 -309q0 -154 -61.5 -300t-178.5 -263q-111 -111 -250 -169t-301 -58q-147 0 -287.5 60t-253.5 175t-171 257t-58 304zM225 694q0 -141 49.5 -266 t145.5 -223q207 -213 487 -213q137 0 259 52t220 155q98 102 150.5 229t52.5 268t-51 269.5t-143 224.5q-98 102 -224.5 156.5t-261.5 54.5t-261 -53.5t-224 -155.5t-148.5 -228t-50.5 -270zM500 1073v72h450q317 0 318 -221q0 -184 -244 -232q57 -12 93 -35.5t59.5 -55.5 t38 -70.5t30.5 -81.5q25 -68 58.5 -95.5t109.5 -27.5h10v-76q-86 -12 -125 -12q-98 0 -159 41q-31 20 -49.5 44.5t-29.5 52t-19.5 58.5t-20.5 62q-29 78 -72 111.5t-125 33.5h-22v-295l117 -22v-76h-412v74l102 22v705zM801 727q10 -2 20 -2h21q109 0 162 44t53 126 q0 80 -54.5 124t-160.5 44h-20.5t-20.5 -2v-334z" />
<glyph unicode="&#xaf;" horiz-adv-x="1024" d="M176 1237v145h678v-145h-678z" />
<glyph unicode="&#xb0;" horiz-adv-x="673" d="M43 1163q0 61 22.5 115.5t62.5 94.5t94.5 63.5t115.5 23.5t114.5 -23.5t93.5 -63.5t63.5 -94t23.5 -116q0 -59 -23.5 -113.5t-63.5 -94.5t-94.5 -63.5t-115.5 -23.5t-114.5 22.5t-93.5 62.5t-62.5 94.5t-22.5 115.5zM152 1165q0 -78 54 -132t132 -54q39 0 72.5 15.5 t58.5 41t39 59t14 70.5q0 78 -53 131.5t-131 53.5t-132 -53.5t-54 -131.5z" />
<glyph unicode="&#xb1;" horiz-adv-x="1705" d="M254 14v168h1198v-168h-1198zM254 707v165h514v334h170v-334h514v-165h-514v-334h-170v334h-514z" />
<glyph unicode="&#xb2;" horiz-adv-x="784" d="M66 549v96q213 152 325.5 264.5t112.5 227.5q0 84 -44 128t-122 44q-41 0 -78 -15v-157q-49 -23 -86 -23q-45 0 -70.5 23.5t-25.5 62.5q0 78 85 133.5t232 55.5q135 0 215 -67t80 -173q0 -59 -28.5 -114.5t-86 -113t-143.5 -118t-199 -129.5h379l25 108h82v-233h-653z " />
<glyph unicode="&#xb3;" horiz-adv-x="784" d="M57 688q0 37 26 58.5t71 21.5q25 0 51 -8l43 -133q55 -18 94 -19q78 0 129 49.5t51 120.5q0 68 -50 110t-136 42q-29 0 -84 -6v88h41q96 0 147.5 39t51.5 110q0 66 -47.5 107t-120.5 41q-16 0 -36 -4.5t-40 -10.5v-145q-31 -16 -72 -16q-45 0 -71.5 23.5t-26.5 60.5 q0 68 82 118.5t219 50.5q135 0 215 -58t80 -148q0 -150 -223 -197q125 -10 190.5 -61.5t65.5 -135.5q0 -53 -26 -98t-75 -80t-118.5 -54t-157.5 -19q-61 0 -112.5 12t-86.5 33.5t-54.5 49t-19.5 58.5z" />
<glyph unicode="&#xb4;" horiz-adv-x="1024" d="M422 1130l199 390h253l-315 -390h-137z" />
<glyph unicode="&#xb5;" horiz-adv-x="1183" d="M-109 -319q0 39 16.5 101t42 148t57.5 196t61 247l108 512h207l-100 -467q-20 -94 -21 -139q0 -66 37 -102t102 -36q88 0 139.5 53.5t75.5 167.5l111 523h209l-113 -533q-6 -29 -12 -59.5t-6 -65.5q0 -43 22.5 -66.5t63.5 -23.5q78 0 129 90q12 20 19.5 40t15.5 35 t16 24.5t23 9.5q23 0 22 -31q0 -23 -14.5 -79t-42.5 -107q-82 -143 -219 -144q-84 0 -129 53.5t-47 157.5q-86 -211 -267 -211q-98 0 -156.5 57.5t-68.5 168.5q-29 -158 -42 -274.5t-27.5 -193.5t-38 -115t-74.5 -38q-47 0 -73 26.5t-26 74.5z" />
<glyph unicode="&#xb6;" horiz-adv-x="1005" d="M39 950q0 225 120 324.5t376 99.5h401v-88l-125 -20v-1428h-117v1438h-143v-739h-35q-477 0 -477 413z" />
<glyph unicode="&#xb7;" horiz-adv-x="591" d="M135 686q0 68 47 116t113 48q68 0 116 -48t48 -116q0 -66 -48.5 -114t-115.5 -48q-66 0 -113 47t-47 115z" />
<glyph unicode="&#xb8;" horiz-adv-x="1024" d="M352 -352q41 -8 72 -12.5t53 -4.5q127 0 127 76q0 31 -23.5 49.5t-68.5 18.5q-10 0 -21.5 -1t-23.5 -3v229h98v-117q8 2 16.5 2h16.5q80 0 123 -42t43 -113q0 -90 -65.5 -145.5t-180.5 -55.5q-41 0 -82 6t-84 16v97z" />
<glyph unicode="&#xb9;" horiz-adv-x="784" d="M147 1233v63l293 90h88v-751l15 -21l127 -4v-61h-469v61l135 8l16 21v606l-12 15z" />
<glyph unicode="&#xba;" horiz-adv-x="886" d="M57 1024q0 82 28 150.5t80 115.5t126 74t164 27q178 0 281.5 -98.5t103.5 -270.5q0 -80 -28 -145.5t-80 -113.5t-124.5 -73.5t-165.5 -25.5q-86 0 -156.5 25.5t-121.5 72.5t-79 113.5t-28 148.5zM270 1030q0 -141 48.5 -216t127.5 -75q86 0 134.5 73t48.5 214t-49 215 t-131 74t-130.5 -73t-48.5 -212z" />
<glyph unicode="&#xbb;" horiz-adv-x="919" d="M88 111v172l221 209l-221 208v172l352 -294v-172zM489 111v172l222 209l-222 208v172l355 -294v-172z" />
<glyph unicode="&#xbc;" horiz-adv-x="1841" d="M141 1243v57l279 84h84v-700l14 -18l121 -4v-58h-449v58l129 6l17 20v565l-12 15zM410 0l876 1374h144l-875 -1374h-145zM1124 207v94l426 475h125v-477h148v-92h-148v-242h-149v242h-402zM1241 299h285v319z" />
<glyph unicode="&#xbd;" horiz-adv-x="1841" d="M141 1243v57l279 84h84v-700l14 -18l121 -4v-58h-449v58l129 6l17 20v565l-12 15zM410 0l876 1374h144l-875 -1374h-145zM1153 0v90q102 70 180 130.5t131.5 115.5t81 107.5t27.5 105.5q0 78 -43 120t-117 42q-16 0 -34.5 -4.5t-39.5 -10.5v-147q-41 -20 -82 -21 q-41 0 -66.5 21.5t-25.5 58.5q0 72 81 123t222 51q129 0 206 -61.5t77 -161.5q0 -109 -110.5 -210t-325.5 -232h360l25 100h78v-217h-625z" />
<glyph unicode="&#xbe;" horiz-adv-x="1841" d="M53 735q0 35 25.5 54.5t66.5 19.5q25 0 52 -8l41 -125q53 -16 88 -17q74 0 124 46.5t50 113.5q0 63 -48.5 102.5t-129.5 39.5q-29 0 -80 -7v82h37q92 0 141 37t49 103q0 61 -44 99t-116 38q-37 0 -73 -15v-133q-27 -16 -68 -16t-66.5 22.5t-25.5 57.5q0 61 76.5 109 t209.5 48q129 0 205 -54t76 -140q0 -139 -213 -182q119 -8 181.5 -57.5t62.5 -127.5q0 -49 -24.5 -91t-72 -73.5t-114 -50t-148.5 -18.5q-121 0 -191.5 43t-70.5 100zM410 0l876 1374h144l-875 -1374h-145zM1124 207v94l426 475h125v-477h148v-92h-148v-242h-149v242h-402z M1241 299h285v319z" />
<glyph unicode="&#xbf;" horiz-adv-x="997" d="M78 362q0 301 428 441v186h133v-276q-295 -102 -295 -351q0 -123 68.5 -190.5t195.5 -67.5h6l93 232q10 2 20 2h21q72 0 111.5 -34t39.5 -93q0 -47 -24.5 -88t-71.5 -72t-114.5 -49t-151.5 -18q-104 0 -189.5 27.5t-146 78.5t-92 120t-31.5 152zM416 1245q0 66 43.5 110 t109.5 44q63 0 108.5 -44t45.5 -110t-45 -112t-109 -46q-66 0 -109.5 46.5t-43.5 111.5z" />
<glyph unicode="&#xc0;" horiz-adv-x="1333" d="M-23 0v100l123 19l463 1270h215l471 -1268l121 -21v-100h-553v100l129 13l15 26l-123 348h-447l-123 -346l21 -26l129 -15v-100h-441zM332 1903h254l199 -390h-140zM430 602h361l-183 506z" />
<glyph unicode="&#xc1;" horiz-adv-x="1333" d="M-23 0v100l123 19l463 1270h215l471 -1268l121 -21v-100h-553v100l129 13l15 26l-123 348h-447l-123 -346l21 -26l129 -15v-100h-441zM430 602h361l-183 506zM578 1513l199 390h253l-315 -390h-137z" />
<glyph unicode="&#xc2;" horiz-adv-x="1333" d="M-23 0v100l123 19l463 1270h215l471 -1268l121 -21v-100h-553v100l129 13l15 26l-123 348h-447l-123 -346l21 -26l129 -15v-100h-441zM353 1513l225 390h180l225 -390h-157l-158 256l-156 -256h-159zM430 602h361l-183 506z" />
<glyph unicode="&#xc3;" horiz-adv-x="1333" d="M-23 0v100l123 19l463 1270h215l471 -1268l121 -21v-100h-553v100l129 13l15 26l-123 348h-447l-123 -346l21 -26l129 -15v-100h-441zM334 1550v35q0 119 46 181.5t132 62.5q45 0 87 -15.5t79 -33t70 -32.5t59 -15q80 0 80 112v17h111v-33q0 -119 -48.5 -181.5 t-129.5 -62.5q-49 0 -93.5 14.5t-82 33t-68.5 32.5t-53 14q-76 0 -76 -108v-21h-113zM430 602h361l-183 506z" />
<glyph unicode="&#xc4;" horiz-adv-x="1333" d="M-23 0v100l123 19l463 1270h215l471 -1268l121 -21v-100h-553v100l129 13l15 26l-123 348h-447l-123 -346l21 -26l129 -15v-100h-441zM326 1702q0 57 39 96t92 39t91 -39t38 -96q0 -55 -38 -94t-91 -39t-92 39t-39 94zM430 602h361l-183 506zM750 1702q0 57 38 96t91 39 t91 -39t38 -96q0 -55 -38 -94t-91 -39q-55 0 -92 39t-37 94z" />
<glyph unicode="&#xc5;" horiz-adv-x="1333" d="M-23 0v100l123 19l463 1270h215l471 -1268l121 -21v-100h-553v100l129 13l15 26l-123 348h-447l-123 -346l21 -26l129 -15v-100h-441zM410 1729q0 51 18 95t50 76.5t76 52t93 19.5t93 -19.5t77 -52t51.5 -76.5t18.5 -95t-18.5 -95.5t-51.5 -77t-77 -51t-93 -18.5 t-93 18.5t-76 51t-50 76.5t-18 96zM430 602h361l-183 506zM516 1729q0 -57 39 -96.5t92 -39.5q55 0 94 39t39 97q0 57 -39 97t-94 40q-53 0 -92 -39t-39 -98z" />
<glyph unicode="&#xc6;" horiz-adv-x="1822" d="M-119 0v100l123 15l672 1118l-23 31l-116 10v100h1163v-321h-144l-30 180l-27 27h-385v-488h244l28 29l21 147h119v-475h-119l-21 148l-28 28h-244v-532h451l28 33l35 217h139v-367h-1071v100l125 11l33 32v359h-457l-215 -361l15 -26l122 -15v-100h-438zM469 623h385 v639z" />
<glyph unicode="&#xc7;" horiz-adv-x="1306" d="M84 686q0 158 54.5 291t158.5 233q195 188 516 189q207 0 418 -76v-342h-152l-39 219l-28 35q-84 31 -162 31q-104 0 -190.5 -39t-147.5 -114t-94 -182.5t-33 -242.5q0 -137 34 -245.5t97.5 -183.5t154.5 -115t206 -40q51 0 124 19l31 31l51 247h148v-352 q-207 -74 -430 -74q-111 0 -206 24t-171 69q-160 96 -250 257.5t-90 360.5zM628 -352q41 -8 72 -12.5t53 -4.5q127 0 127 76q0 31 -23.5 49.5t-68.5 18.5q-10 0 -21.5 -1t-23.5 -3v229h98v-117q8 2 16.5 2h16.5q80 0 123 -42t43 -113q0 -90 -65.5 -145.5t-180.5 -55.5 q-41 0 -82 6t-84 16v97z" />
<glyph unicode="&#xc8;" horiz-adv-x="1220" d="M59 0v100l125 11l33 32v1092l-33 29l-125 10v100h1033v-321h-144l-30 180l-27 27h-408v-488h267l28 29l21 147h121v-475h-121l-21 148l-28 28h-267v-532h475l27 33l35 217h139v-367h-1100zM274 1903h254l199 -390h-140z" />
<glyph unicode="&#xc9;" horiz-adv-x="1220" d="M59 0v100l125 11l33 32v1092l-33 29l-125 10v100h1033v-321h-144l-30 180l-27 27h-408v-488h267l28 29l21 147h121v-475h-121l-21 148l-28 28h-267v-532h475l27 33l35 217h139v-367h-1100zM520 1513l199 390h253l-315 -390h-137z" />
<glyph unicode="&#xca;" horiz-adv-x="1220" d="M59 0v100l125 11l33 32v1092l-33 29l-125 10v100h1033v-321h-144l-30 180l-27 27h-408v-488h267l28 29l21 147h121v-475h-121l-21 148l-28 28h-267v-532h475l27 33l35 217h139v-367h-1100zM295 1513l225 390h180l225 -390h-157l-158 256l-156 -256h-159z" />
<glyph unicode="&#xcb;" horiz-adv-x="1220" d="M59 0v100l125 11l33 32v1092l-33 29l-125 10v100h1033v-321h-144l-30 180l-27 27h-408v-488h267l28 29l21 147h121v-475h-121l-21 148l-28 28h-267v-532h475l27 33l35 217h139v-367h-1100zM268 1702q0 57 39 96t92 39t91 -39t38 -96q0 -55 -38 -94t-91 -39t-92 39t-39 94 zM692 1702q0 57 38 96t91 39t91 -39t38 -96q0 -55 -38 -94t-91 -39q-55 0 -92 39t-37 94z" />
<glyph unicode="&#xcc;" horiz-adv-x="724" d="M29 1903h254l199 -390h-140zM61 0v100l136 11l32 32v1092l-32 29l-136 10v100h613v-100l-137 -10l-33 -29v-1092l33 -32l137 -11v-100h-613z" />
<glyph unicode="&#xcd;" horiz-adv-x="724" d="M61 0v100l136 11l32 32v1092l-32 29l-136 10v100h613v-100l-137 -10l-33 -29v-1092l33 -32l137 -11v-100h-613zM275 1513l199 390h253l-315 -390h-137z" />
<glyph unicode="&#xce;" horiz-adv-x="724" d="M50 1513l225 390h180l225 -390h-157l-158 256l-156 -256h-159zM61 0v100l136 11l32 32v1092l-32 29l-136 10v100h613v-100l-137 -10l-33 -29v-1092l33 -32l137 -11v-100h-613z" />
<glyph unicode="&#xcf;" horiz-adv-x="724" d="M23 1702q0 57 39 96t92 39t91 -39t38 -96q0 -55 -38 -94t-91 -39t-92 39t-39 94zM61 0v100l136 11l32 32v1092l-32 29l-136 10v100h613v-100l-137 -10l-33 -29v-1092l33 -32l137 -11v-100h-613zM447 1702q0 57 38 96t91 39t91 -39t38 -96q0 -55 -38 -94t-91 -39 q-55 0 -92 39t-37 94z" />
<glyph unicode="&#xd0;" horiz-adv-x="1466" d="M31 657v125h184v449l-33 33l-123 10v100h596q178 0 316.5 -47t231.5 -136t142.5 -216t49.5 -289q0 -330 -188.5 -508t-551.5 -178h-596v100l123 11l33 32v514h-184zM487 115h119q483 0 484 573q0 291 -119 431.5t-365 140.5h-119v-478h289v-125h-289v-542z" />
<glyph unicode="&#xd1;" horiz-adv-x="1488" d="M51 1274v100h471v-55l627 -973v877l-37 39l-125 16v96h467v-96l-121 -16l-35 -39v-1223h-229l-709 1100v-948l33 -37l127 -17v-98h-467v98l121 17l37 37v1083l-29 29zM411 1550v35q0 119 46 181.5t132 62.5q45 0 87 -15.5t79 -33t70 -32.5t59 -15q80 0 80 112v17h111v-33 q0 -119 -48.5 -181.5t-129.5 -62.5q-49 0 -93.5 14.5t-82 33t-68.5 32.5t-53 14q-76 0 -76 -108v-21h-113z" />
<glyph unicode="&#xd2;" horiz-adv-x="1540" d="M84 694q0 338 211 533q193 178 479 178q262 0 451 -160q119 -102 181 -245.5t62 -317.5q0 -164 -55 -299t-164 -236q-94 -88 -212.5 -134t-248.5 -46q-160 0 -289.5 52.5t-222 147.5t-142.5 229t-50 298zM389 690q0 -141 30 -252.5t81 -188.5t121.5 -117t152.5 -40 q84 0 155.5 40t123 116t80 184.5t28.5 243.5q0 141 -28.5 252.5t-78.5 188.5t-121 117t-155 40q-86 0 -156.5 -40t-123 -115t-81 -183.5t-28.5 -245.5zM434 1903h254l199 -390h-140z" />
<glyph unicode="&#xd3;" horiz-adv-x="1540" d="M84 694q0 338 211 533q193 178 479 178q262 0 451 -160q119 -102 181 -245.5t62 -317.5q0 -164 -55 -299t-164 -236q-94 -88 -212.5 -134t-248.5 -46q-160 0 -289.5 52.5t-222 147.5t-142.5 229t-50 298zM389 690q0 -141 30 -252.5t81 -188.5t121.5 -117t152.5 -40 q84 0 155.5 40t123 116t80 184.5t28.5 243.5q0 141 -28.5 252.5t-78.5 188.5t-121 117t-155 40q-86 0 -156.5 -40t-123 -115t-81 -183.5t-28.5 -245.5zM680 1513l199 390h253l-315 -390h-137z" />
<glyph unicode="&#xd4;" horiz-adv-x="1540" d="M84 694q0 338 211 533q193 178 479 178q262 0 451 -160q119 -102 181 -245.5t62 -317.5q0 -164 -55 -299t-164 -236q-94 -88 -212.5 -134t-248.5 -46q-160 0 -289.5 52.5t-222 147.5t-142.5 229t-50 298zM389 690q0 -141 30 -252.5t81 -188.5t121.5 -117t152.5 -40 q84 0 155.5 40t123 116t80 184.5t28.5 243.5q0 141 -28.5 252.5t-78.5 188.5t-121 117t-155 40q-86 0 -156.5 -40t-123 -115t-81 -183.5t-28.5 -245.5zM455 1513l225 390h180l225 -390h-157l-158 256l-156 -256h-159z" />
<glyph unicode="&#xd5;" horiz-adv-x="1540" d="M84 694q0 338 211 533q193 178 479 178q262 0 451 -160q119 -102 181 -245.5t62 -317.5q0 -164 -55 -299t-164 -236q-94 -88 -212.5 -134t-248.5 -46q-160 0 -289.5 52.5t-222 147.5t-142.5 229t-50 298zM389 690q0 -141 30 -252.5t81 -188.5t121.5 -117t152.5 -40 q84 0 155.5 40t123 116t80 184.5t28.5 243.5q0 141 -28.5 252.5t-78.5 188.5t-121 117t-155 40q-86 0 -156.5 -40t-123 -115t-81 -183.5t-28.5 -245.5zM436 1550v35q0 119 46 181.5t132 62.5q45 0 87 -15.5t79 -33t70 -32.5t59 -15q80 0 80 112v17h111v-33 q0 -119 -48.5 -181.5t-129.5 -62.5q-49 0 -93.5 14.5t-82 33t-68.5 32.5t-53 14q-76 0 -76 -108v-21h-113z" />
<glyph unicode="&#xd6;" horiz-adv-x="1540" d="M84 694q0 338 211 533q193 178 479 178q262 0 451 -160q119 -102 181 -245.5t62 -317.5q0 -164 -55 -299t-164 -236q-94 -88 -212.5 -134t-248.5 -46q-160 0 -289.5 52.5t-222 147.5t-142.5 229t-50 298zM389 690q0 -141 30 -252.5t81 -188.5t121.5 -117t152.5 -40 q84 0 155.5 40t123 116t80 184.5t28.5 243.5q0 141 -28.5 252.5t-78.5 188.5t-121 117t-155 40q-86 0 -156.5 -40t-123 -115t-81 -183.5t-28.5 -245.5zM428 1702q0 57 39 96t92 39t91 -39t38 -96q0 -55 -38 -94t-91 -39t-92 39t-39 94zM852 1702q0 57 38 96t91 39t91 -39 t38 -96q0 -55 -38 -94t-91 -39q-55 0 -92 39t-37 94z" />
<glyph unicode="&#xd7;" horiz-adv-x="1705" d="M287 152l458 458l-458 461l116 117l459 -459l461 459l117 -117l-459 -461l459 -458l-117 -119l-461 461l-459 -461z" />
<glyph unicode="&#xd8;" horiz-adv-x="1540" d="M84 684q0 164 50 297t141.5 227.5t219.5 145.5t285 51q152 0 297 -62l117 199l100 -57l-116 -201q143 -115 217.5 -258t74.5 -342q0 -164 -57 -302t-166 -239q-94 -88 -216 -132t-267 -44q-168 0 -311 72l-121 -209l-94 68l116 200q-133 104 -201.5 253t-68.5 333z M377 705q0 -233 90 -414l526 905q-92 78 -215 78q-86 0 -159.5 -40t-128 -113.5t-84 -179t-29.5 -236.5zM541 188q102 -94 237 -94q86 0 158 40t125 115t83 181.5t30 239.5q0 129 -23 234.5t-78 197.5z" />
<glyph unicode="&#xd9;" horiz-adv-x="1443" d="M41 1274v100h588v-100l-127 -10l-29 -29v-717q0 -199 75 -290t259 -91q170 0 240.5 97.5t70.5 302.5v690l-31 35l-131 12v100h465v-100l-125 -12l-28 -35v-711q0 -281 -126 -411t-415 -130q-154 0 -264.5 44t-173.5 124q-59 78 -74.5 171.5t-15.5 211.5v709l-29 29z M387 1903h254l199 -390h-140z" />
<glyph unicode="&#xda;" horiz-adv-x="1443" d="M41 1274v100h588v-100l-127 -10l-29 -29v-717q0 -199 75 -290t259 -91q170 0 240.5 97.5t70.5 302.5v690l-31 35l-131 12v100h465v-100l-125 -12l-28 -35v-711q0 -281 -126 -411t-415 -130q-154 0 -264.5 44t-173.5 124q-59 78 -74.5 171.5t-15.5 211.5v709l-29 29z M633 1513l199 390h253l-315 -390h-137z" />
<glyph unicode="&#xdb;" horiz-adv-x="1443" d="M41 1274v100h588v-100l-127 -10l-29 -29v-717q0 -199 75 -290t259 -91q170 0 240.5 97.5t70.5 302.5v690l-31 35l-131 12v100h465v-100l-125 -12l-28 -35v-711q0 -281 -126 -411t-415 -130q-154 0 -264.5 44t-173.5 124q-59 78 -74.5 171.5t-15.5 211.5v709l-29 29z M408 1513l225 390h180l225 -390h-157l-158 256l-156 -256h-159z" />
<glyph unicode="&#xdc;" horiz-adv-x="1443" d="M41 1274v100h588v-100l-127 -10l-29 -29v-717q0 -199 75 -290t259 -91q170 0 240.5 97.5t70.5 302.5v690l-31 35l-131 12v100h465v-100l-125 -12l-28 -35v-711q0 -281 -126 -411t-415 -130q-154 0 -264.5 44t-173.5 124q-59 78 -74.5 171.5t-15.5 211.5v709l-29 29z M381 1702q0 57 39 96t92 39t91 -39t38 -96q0 -55 -38 -94t-91 -39t-92 39t-39 94zM805 1702q0 57 38 96t91 39t91 -39t38 -96q0 -55 -38 -94t-91 -39q-55 0 -92 39t-37 94z" />
<glyph unicode="&#xdd;" horiz-adv-x="1249" d="M-23 1274v100h560v-100l-115 -10l-19 -25l281 -520l293 502l-16 32l-123 23v98h446v-100l-121 -23l-389 -661v-449l33 -28l139 -11v-102h-614v102l137 11l33 28v400l-393 712zM535 1513l199 390h253l-315 -390h-137z" />
<glyph unicode="&#xde;" horiz-adv-x="1202" d="M66 0v100l122 11l35 32v1092l-28 29l-129 10v100h596v-100l-136 -10l-32 -33v-109h116q287 0 424 -96t137 -315q0 -211 -139 -330t-399 -119q-41 0 -139 6v-125l32 -32l136 -11v-100h-596zM494 385q18 -2 36.5 -3t34.5 -1q324 0 324 324q0 303 -320 303q-18 0 -36.5 -1 t-38.5 -3v-619z" />
<glyph unicode="&#xdf;" horiz-adv-x="1314" d="M37 0v94l115 8l20 29v766q0 147 40 263t113.5 196t176 122t225.5 42q186 0 291.5 -99.5t105.5 -267.5q0 -47 -6 -94t-16 -94q-14 2 -27.5 3t-27.5 1q-90 0 -139.5 -41t-49.5 -109t45 -103.5t117 -78.5q61 -37 108.5 -69.5t79 -69.5t49 -81t17.5 -102q0 -70 -28.5 -130 t-80 -105t-124 -70.5t-160.5 -25.5q-55 0 -122 9t-145 32v292h127l17 -190q49 -31 110 -31q78 0 124 43t46 111q0 45 -20.5 78.5t-57 62.5t-89 56.5t-115.5 64.5q-68 39 -106 99.5t-38 131.5q0 96 61.5 169t172.5 100q10 49 15 88t5 67q0 109 -51 171.5t-135 62.5 q-252 0 -252 -490v-780l8 -31l66 -10v-90h-465z" />
<glyph unicode="&#xe0;" horiz-adv-x="1114" d="M82 248q0 88 37 146.5t113.5 101.5t194.5 74.5t278 68.5v61q0 111 -46.5 162t-148.5 51q-43 0 -98 -12v-192h-189q-47 0 -70.5 17t-23.5 58q0 43 32 86t90 77t140 54.5t184 20.5q106 0 180 -19.5t119.5 -63.5t64.5 -112.5t19 -167.5v-530l27 -29l109 -10v-90h-365 l-27 117q-98 -66 -183 -100.5t-169 -34.5q-59 0 -108 19t-85 55t-55.5 84t-19.5 108zM221 1520h254l199 -390h-140zM352 293q0 -72 40 -113t112 -41q78 0 198 62v334q-90 -20 -156.5 -42t-109.5 -49.5t-63.5 -63.5t-20.5 -87z" />
<glyph unicode="&#xe1;" horiz-adv-x="1114" d="M82 248q0 88 37 146.5t113.5 101.5t194.5 74.5t278 68.5v61q0 111 -46.5 162t-148.5 51q-43 0 -98 -12v-192h-189q-47 0 -70.5 17t-23.5 58q0 43 32 86t90 77t140 54.5t184 20.5q106 0 180 -19.5t119.5 -63.5t64.5 -112.5t19 -167.5v-530l27 -29l109 -10v-90h-365 l-27 117q-98 -66 -183 -100.5t-169 -34.5q-59 0 -108 19t-85 55t-55.5 84t-19.5 108zM352 293q0 -72 40 -113t112 -41q78 0 198 62v334q-90 -20 -156.5 -42t-109.5 -49.5t-63.5 -63.5t-20.5 -87zM467 1130l199 390h253l-315 -390h-137z" />
<glyph unicode="&#xe2;" horiz-adv-x="1114" d="M82 248q0 88 37 146.5t113.5 101.5t194.5 74.5t278 68.5v61q0 111 -46.5 162t-148.5 51q-43 0 -98 -12v-192h-189q-47 0 -70.5 17t-23.5 58q0 43 32 86t90 77t140 54.5t184 20.5q106 0 180 -19.5t119.5 -63.5t64.5 -112.5t19 -167.5v-530l27 -29l109 -10v-90h-365 l-27 117q-98 -66 -183 -100.5t-169 -34.5q-59 0 -108 19t-85 55t-55.5 84t-19.5 108zM242 1130l225 390h180l225 -390h-157l-158 256l-156 -256h-159zM352 293q0 -72 40 -113t112 -41q78 0 198 62v334q-90 -20 -156.5 -42t-109.5 -49.5t-63.5 -63.5t-20.5 -87z" />
<glyph unicode="&#xe3;" horiz-adv-x="1114" d="M82 248q0 88 37 146.5t113.5 101.5t194.5 74.5t278 68.5v61q0 111 -46.5 162t-148.5 51q-43 0 -98 -12v-192h-189q-47 0 -70.5 17t-23.5 58q0 43 32 86t90 77t140 54.5t184 20.5q106 0 180 -19.5t119.5 -63.5t64.5 -112.5t19 -167.5v-530l27 -29l109 -10v-90h-365 l-27 117q-98 -66 -183 -100.5t-169 -34.5q-59 0 -108 19t-85 55t-55.5 84t-19.5 108zM223 1167v35q0 119 46 181.5t132 62.5q45 0 87 -15.5t79 -33t70 -32.5t59 -15q80 0 80 112v17h111v-33q0 -119 -48.5 -181.5t-129.5 -62.5q-49 0 -93.5 14.5t-82 33t-68.5 32.5t-53 14 q-76 0 -76 -108v-21h-113zM352 293q0 -72 40 -113t112 -41q78 0 198 62v334q-90 -20 -156.5 -42t-109.5 -49.5t-63.5 -63.5t-20.5 -87z" />
<glyph unicode="&#xe4;" horiz-adv-x="1114" d="M82 248q0 88 37 146.5t113.5 101.5t194.5 74.5t278 68.5v61q0 111 -46.5 162t-148.5 51q-43 0 -98 -12v-192h-189q-47 0 -70.5 17t-23.5 58q0 43 32 86t90 77t140 54.5t184 20.5q106 0 180 -19.5t119.5 -63.5t64.5 -112.5t19 -167.5v-530l27 -29l109 -10v-90h-365 l-27 117q-98 -66 -183 -100.5t-169 -34.5q-59 0 -108 19t-85 55t-55.5 84t-19.5 108zM215 1319q0 57 39 96t92 39t91 -39t38 -96q0 -55 -38 -94t-91 -39t-92 39t-39 94zM352 293q0 -72 40 -113t112 -41q78 0 198 62v334q-90 -20 -156.5 -42t-109.5 -49.5t-63.5 -63.5 t-20.5 -87zM639 1319q0 57 38 96t91 39t91 -39t38 -96q0 -55 -38 -94t-91 -39q-55 0 -92 39t-37 94z" />
<glyph unicode="&#xe5;" horiz-adv-x="1114" d="M82 248q0 88 37 146.5t113.5 101.5t194.5 74.5t278 68.5v61q0 111 -46.5 162t-148.5 51q-43 0 -98 -12v-192h-189q-47 0 -70.5 17t-23.5 58q0 43 32 86t90 77t140 54.5t184 20.5q106 0 180 -19.5t119.5 -63.5t64.5 -112.5t19 -167.5v-530l27 -29l109 -10v-90h-365 l-27 117q-98 -66 -183 -100.5t-169 -34.5q-59 0 -108 19t-85 55t-55.5 84t-19.5 108zM326 1362q0 49 19.5 93t51 77t75.5 52.5t93 19.5t93 -18.5t77 -51.5t51.5 -77t18.5 -95t-18.5 -95t-51.5 -77t-77 -52.5t-93 -19.5t-93 18.5t-77 51.5t-51 78t-18 96zM352 293 q0 -72 40 -113t112 -41q78 0 198 62v334q-90 -20 -156.5 -42t-109.5 -49.5t-63.5 -63.5t-20.5 -87zM434 1362q0 -57 39 -97t92 -40t93 40t40 97t-39 96t-94 39q-53 0 -92 -38t-39 -97z" />
<glyph unicode="&#xe6;" horiz-adv-x="1572" d="M84 254q0 84 35 141.5t106.5 99.5t183 74.5t263.5 69.5v61q0 113 -45 163t-148 50q-33 0 -82 -12v-192h-182q-45 0 -65.5 17t-20.5 58q0 45 30.5 87t86 76t134.5 54.5t175 20.5q98 0 170 -26.5t125 -86.5q117 111 283 111q174 0 273 -118t99 -337q0 -12 -1 -24.5 t-1 -24.5h-590v-248q135 -123 304 -123q78 0 146.5 28t139.5 81v-152q-180 -121 -373 -120q-229 0 -397 149q-207 -152 -383 -151q-123 0 -194.5 73.5t-71.5 200.5zM346 293q0 -72 38 -113t103 -41q70 0 185 62v334q-86 -23 -147.5 -44.5t-101.5 -49t-58.5 -62.5t-18.5 -86z M909 623h334v28q0 256 -158 256q-172 0 -176 -284z" />
<glyph unicode="&#xe7;" horiz-adv-x="974" d="M72 487q0 117 39 214.5t109.5 168t167.5 109.5t212 39q160 0 249 -64.5t89 -158.5q0 -59 -41 -99.5t-106 -40.5q-68 0 -121 39v217q-31 6 -52 7q-53 0 -102 -27t-86 -76t-58.5 -119.5t-21.5 -158.5q0 -186 86 -289t230 -103q133 0 284 93v-146q-98 -53 -193 -80.5 t-194 -27.5q-111 0 -202 36.5t-155.5 103t-99 160t-34.5 203.5zM381 -352q41 -8 72 -12.5t53 -4.5q127 0 127 76q0 31 -23.5 49.5t-68.5 18.5q-10 0 -21.5 -1t-23.5 -3v229h98v-117q8 2 16.5 2h16.5q80 0 123 -42t43 -113q0 -90 -65.5 -145.5t-180.5 -55.5q-41 0 -82 6 t-84 16v97z" />
<glyph unicode="&#xe8;" horiz-adv-x="1073" d="M76 496q0 117 38 214t104.5 166.5t159.5 108.5t204 39q203 0 314.5 -120t111.5 -343v-39h-670v-6q0 -178 88 -276.5t242 -98.5q162 0 338 113v-152q-207 -121 -424 -120q-115 0 -208 36.5t-160 104t-102.5 162t-35.5 211.5zM201 1520h254l199 -390h-140zM348 631h391v22 q0 129 -46 193.5t-132 64.5q-92 0 -150.5 -72.5t-62.5 -207.5z" />
<glyph unicode="&#xe9;" horiz-adv-x="1073" d="M76 496q0 117 38 214t104.5 166.5t159.5 108.5t204 39q203 0 314.5 -120t111.5 -343v-39h-670v-6q0 -178 88 -276.5t242 -98.5q162 0 338 113v-152q-207 -121 -424 -120q-115 0 -208 36.5t-160 104t-102.5 162t-35.5 211.5zM348 631h391v22q0 129 -46 193.5t-132 64.5 q-92 0 -150.5 -72.5t-62.5 -207.5zM447 1130l199 390h253l-315 -390h-137z" />
<glyph unicode="&#xea;" horiz-adv-x="1073" d="M76 496q0 117 38 214t104.5 166.5t159.5 108.5t204 39q203 0 314.5 -120t111.5 -343v-39h-670v-6q0 -178 88 -276.5t242 -98.5q162 0 338 113v-152q-207 -121 -424 -120q-115 0 -208 36.5t-160 104t-102.5 162t-35.5 211.5zM222 1130l225 390h180l225 -390h-157l-158 256 l-156 -256h-159zM348 631h391v22q0 129 -46 193.5t-132 64.5q-92 0 -150.5 -72.5t-62.5 -207.5z" />
<glyph unicode="&#xeb;" horiz-adv-x="1073" d="M76 496q0 117 38 214t104.5 166.5t159.5 108.5t204 39q203 0 314.5 -120t111.5 -343v-39h-670v-6q0 -178 88 -276.5t242 -98.5q162 0 338 113v-152q-207 -121 -424 -120q-115 0 -208 36.5t-160 104t-102.5 162t-35.5 211.5zM195 1319q0 57 39 96t92 39t91 -39t38 -96 q0 -55 -38 -94t-91 -39t-92 39t-39 94zM348 631h391v22q0 129 -46 193.5t-132 64.5q-92 0 -150.5 -72.5t-62.5 -207.5zM619 1319q0 57 38 96t91 39t91 -39t38 -96q0 -55 -38 -94t-91 -39q-55 0 -92 39t-37 94z" />
<glyph unicode="&#xec;" horiz-adv-x="624" d="M-21 1520h254l199 -390h-140zM61 0v92l111 8l29 31v707h-135v82l288 96h99v-885l30 -31l115 -8v-92h-537z" />
<glyph unicode="&#xed;" horiz-adv-x="624" d="M61 0v92l111 8l29 31v707h-135v82l288 96h99v-885l30 -31l115 -8v-92h-537zM225 1130l199 390h253l-315 -390h-137z" />
<glyph unicode="&#xee;" horiz-adv-x="624" d="M0 1130l225 390h180l225 -390h-157l-158 256l-156 -256h-159zM61 0v92l111 8l29 31v707h-135v82l288 96h99v-885l30 -31l115 -8v-92h-537z" />
<glyph unicode="&#xef;" horiz-adv-x="624" d="M-27 1319q0 57 39 96t92 39t91 -39t38 -96q0 -55 -38 -94t-91 -39t-92 39t-39 94zM61 0v92l111 8l29 31v707h-135v82l288 96h99v-885l30 -31l115 -8v-92h-537zM397 1319q0 57 38 96t91 39t91 -39t38 -96q0 -55 -38 -94t-91 -39q-55 0 -92 39t-37 94z" />
<glyph unicode="&#xf0;" horiz-adv-x="1165" d="M72 498q0 111 36.5 202t101 157.5t155 102t198.5 35.5q37 0 73 -2t73 -8q-35 55 -70 103.5t-74 95.5l-246 -146l-49 90l224 132l-66 73l-166 8l-6 72l297 111l154 -154l219 127l51 -88l-205 -121q166 -195 249 -378t83 -367q0 -129 -37 -233.5t-103.5 -177.5 t-158.5 -111.5t-205 -38.5q-121 0 -219 36.5t-167 104t-105.5 163t-36.5 212.5zM352 496q0 -199 63.5 -302.5t180.5 -103.5q115 0 177.5 109.5t62.5 326.5q0 205 -72 342q-78 25 -133 25q-131 0 -205 -101.5t-74 -295.5z" />
<glyph unicode="&#xf1;" horiz-adv-x="1239" d="M57 838v82l295 96h99v-121q111 59 196.5 92t153.5 33q279 0 278 -340v-549l27 -31l108 -8v-92h-501v92l88 8l28 31v490q0 115 -43 168t-141 53q-74 0 -194 -35v-676l28 -31l90 -8v-92h-506v92l105 8l29 31v707h-140zM287 1167v35q0 119 46 181.5t132 62.5q45 0 87 -15.5 t79 -33t70 -32.5t59 -15q80 0 80 112v17h111v-33q0 -119 -48.5 -181.5t-129.5 -62.5q-49 0 -93.5 14.5t-82 33t-68.5 32.5t-53 14q-76 0 -76 -108v-21h-113z" />
<glyph unicode="&#xf2;" horiz-adv-x="1181" d="M76 498q0 119 38 215t106.5 164.5t166.5 106.5t219 38q117 0 212 -37t163 -105.5t103.5 -166t35.5 -219.5q0 -115 -38 -208t-106.5 -161t-166.5 -104.5t-219 -36.5q-115 0 -210 36.5t-162.5 104.5t-104.5 162t-37 211zM256 1520h254l199 -390h-140zM360 506 q0 -203 63.5 -308.5t172.5 -105.5q115 0 178.5 103.5t63.5 304.5q0 203 -64.5 308t-175.5 105t-174.5 -104t-63.5 -303z" />
<glyph unicode="&#xf3;" horiz-adv-x="1181" d="M76 498q0 119 38 215t106.5 164.5t166.5 106.5t219 38q117 0 212 -37t163 -105.5t103.5 -166t35.5 -219.5q0 -115 -38 -208t-106.5 -161t-166.5 -104.5t-219 -36.5q-115 0 -210 36.5t-162.5 104.5t-104.5 162t-37 211zM360 506q0 -203 63.5 -308.5t172.5 -105.5 q115 0 178.5 103.5t63.5 304.5q0 203 -64.5 308t-175.5 105t-174.5 -104t-63.5 -303zM502 1130l199 390h253l-315 -390h-137z" />
<glyph unicode="&#xf4;" horiz-adv-x="1181" d="M76 498q0 119 38 215t106.5 164.5t166.5 106.5t219 38q117 0 212 -37t163 -105.5t103.5 -166t35.5 -219.5q0 -115 -38 -208t-106.5 -161t-166.5 -104.5t-219 -36.5q-115 0 -210 36.5t-162.5 104.5t-104.5 162t-37 211zM277 1130l225 390h180l225 -390h-157l-158 256 l-156 -256h-159zM360 506q0 -203 63.5 -308.5t172.5 -105.5q115 0 178.5 103.5t63.5 304.5q0 203 -64.5 308t-175.5 105t-174.5 -104t-63.5 -303z" />
<glyph unicode="&#xf5;" horiz-adv-x="1181" d="M76 498q0 119 38 215t106.5 164.5t166.5 106.5t219 38q117 0 212 -37t163 -105.5t103.5 -166t35.5 -219.5q0 -115 -38 -208t-106.5 -161t-166.5 -104.5t-219 -36.5q-115 0 -210 36.5t-162.5 104.5t-104.5 162t-37 211zM258 1167v35q0 119 46 181.5t132 62.5 q45 0 87 -15.5t79 -33t70 -32.5t59 -15q80 0 80 112v17h111v-33q0 -119 -48.5 -181.5t-129.5 -62.5q-49 0 -93.5 14.5t-82 33t-68.5 32.5t-53 14q-76 0 -76 -108v-21h-113zM360 506q0 -203 63.5 -308.5t172.5 -105.5q115 0 178.5 103.5t63.5 304.5q0 203 -64.5 308 t-175.5 105t-174.5 -104t-63.5 -303z" />
<glyph unicode="&#xf6;" horiz-adv-x="1181" d="M76 498q0 119 38 215t106.5 164.5t166.5 106.5t219 38q117 0 212 -37t163 -105.5t103.5 -166t35.5 -219.5q0 -115 -38 -208t-106.5 -161t-166.5 -104.5t-219 -36.5q-115 0 -210 36.5t-162.5 104.5t-104.5 162t-37 211zM250 1319q0 57 39 96t92 39t91 -39t38 -96 q0 -55 -38 -94t-91 -39t-92 39t-39 94zM360 506q0 -203 63.5 -308.5t172.5 -105.5q115 0 178.5 103.5t63.5 304.5q0 203 -64.5 308t-175.5 105t-174.5 -104t-63.5 -303zM674 1319q0 57 38 96t91 39t91 -39t38 -96q0 -55 -38 -94t-91 -39q-55 0 -92 39t-37 94z" />
<glyph unicode="&#xf7;" horiz-adv-x="1705" d="M254 528v166h1198v-166h-1198zM717 229q0 57 41 97.5t96 40.5q57 0 97 -40t40 -98q0 -55 -39 -95t-98 -40t-98 39t-39 96zM717 989q0 57 41 98t96 41q57 0 97 -40.5t40 -98.5q0 -55 -39 -95t-98 -40t-98 39t-39 96z" />
<glyph unicode="&#xf8;" horiz-adv-x="1181" d="M76 500q0 119 37 215t105.5 163.5t165.5 104.5t220 37q96 0 193 -31l100 180l86 -49l-96 -172q233 -143 233 -442q0 -119 -36.5 -215t-103.5 -165t-160 -105.5t-206 -36.5q-68 0 -128 9t-117 32l-111 -195l-84 55l107 187q-205 150 -205 428zM348 514q0 -133 37 -252 l342 606q-59 45 -133 45q-111 0 -178.5 -103t-67.5 -296zM444 160q55 -68 150 -68q119 0 185.5 100.5t66.5 292.5q0 88 -12.5 161t-42.5 134z" />
<glyph unicode="&#xf9;" horiz-adv-x="1228" d="M47 844v80l289 98h98v-635q0 -121 44 -175t151 -54q39 0 82 8t94 24v654h-133v80l291 98h94v-891l28 -31l107 -8v-92h-387v113q-98 -63 -180 -97t-164 -34q-281 0 -281 350v512h-133zM278 1520h254l199 -390h-140z" />
<glyph unicode="&#xfa;" horiz-adv-x="1228" d="M47 844v80l289 98h98v-635q0 -121 44 -175t151 -54q39 0 82 8t94 24v654h-133v80l291 98h94v-891l28 -31l107 -8v-92h-387v113q-98 -63 -180 -97t-164 -34q-281 0 -281 350v512h-133zM524 1130l199 390h253l-315 -390h-137z" />
<glyph unicode="&#xfb;" horiz-adv-x="1228" d="M47 844v80l289 98h98v-635q0 -121 44 -175t151 -54q39 0 82 8t94 24v654h-133v80l291 98h94v-891l28 -31l107 -8v-92h-387v113q-98 -63 -180 -97t-164 -34q-281 0 -281 350v512h-133zM299 1130l225 390h180l225 -390h-157l-158 256l-156 -256h-159z" />
<glyph unicode="&#xfc;" horiz-adv-x="1228" d="M47 844v80l289 98h98v-635q0 -121 44 -175t151 -54q39 0 82 8t94 24v654h-133v80l291 98h94v-891l28 -31l107 -8v-92h-387v113q-98 -63 -180 -97t-164 -34q-281 0 -281 350v512h-133zM272 1319q0 57 39 96t92 39t91 -39t38 -96q0 -55 -38 -94t-91 -39t-92 39t-39 94z M696 1319q0 57 38 96t91 39t91 -39t38 -96q0 -55 -38 -94t-91 -39q-55 0 -92 39t-37 94z" />
<glyph unicode="&#xfd;" horiz-adv-x="1054" d="M-8 907v88h520v-88l-104 -12l-21 -29l221 -579l223 577l-18 31l-108 12v88h393v-88l-111 -18l-395 -961q-76 -182 -177.5 -279.5t-203.5 -97.5q-76 0 -126 46.5t-50 105.5q0 45 27.5 82t78.5 63l178 -122q84 68 160 249l-364 914zM438 1130l199 390h253l-315 -390h-137z " />
<glyph unicode="&#xfe;" horiz-adv-x="1210" d="M41 1335v80l309 98h90v-620q92 63 170 96t154 33q82 0 152.5 -35t123 -99.5t82 -153.5t29.5 -195q0 -123 -38 -223.5t-108.5 -171t-171 -108.5t-225.5 -38q-68 0 -168 12v-327l31 -29l131 -8l-2 -95h-549v95l113 10l26 31v1648h-149zM440 123q66 -14 131 -14 q135 0 219 105t84 290q0 166 -73.5 254t-198.5 88q-37 0 -77 -10.5t-85 -28.5v-684z" />
<glyph unicode="&#xff;" horiz-adv-x="1054" d="M-8 907v88h520v-88l-104 -12l-21 -29l221 -579l223 577l-18 31l-108 12v88h393v-88l-111 -18l-395 -961q-76 -182 -177.5 -279.5t-203.5 -97.5q-76 0 -126 46.5t-50 105.5q0 45 27.5 82t78.5 63l178 -122q84 68 160 249l-364 914zM186 1319q0 57 39 96t92 39t91 -39 t38 -96q0 -55 -38 -94t-91 -39t-92 39t-39 94zM610 1319q0 57 38 96t91 39t91 -39t38 -96q0 -55 -38 -94t-91 -39q-55 0 -92 39t-37 94z" />
<glyph unicode="&#x152;" horiz-adv-x="2068" d="M82 688q0 160 46 290t128 223t196.5 143.5t254.5 50.5q135 0 237.5 -53.5t161.5 -157.5v190h833v-321h-141l-26 168l-35 39h-381v-488h243l29 29l17 147h120v-475h-120l-17 145l-31 35h-241v-536h448l29 33l35 217h139v-367h-901v201q-164 -223 -420 -224q-170 0 -305 89 q-141 92 -220 251.5t-79 370.5zM383 692q0 -137 27.5 -244.5t77 -182.5t115 -113.5t142.5 -38.5q80 0 146.5 38.5t115 111.5t76 178.5t27.5 238.5q0 137 -26.5 245.5t-74.5 183.5t-114.5 114t-146.5 39t-146.5 -39t-115 -113t-76 -179.5t-27.5 -238.5z" />
<glyph unicode="&#x153;" horiz-adv-x="1763" d="M76 500q0 119 35.5 215t101.5 163.5t158 104.5t202 37q236 0 375 -162q141 164 348 164q186 0 292 -119t106 -340v-41h-633q2 -180 87 -277.5t232 -97.5q86 0 159 27t151 80v-152q-182 -119 -387 -118q-221 0 -365 161q-80 -84 -170 -122.5t-201 -38.5t-201 36.5 t-154.5 104.5t-100 163t-35.5 212zM352 506q0 -205 61.5 -309.5t166.5 -104.5q104 0 163.5 103.5t59.5 304.5q0 203 -60.5 308t-164.5 105t-165 -104t-61 -303zM1069 631h356v24q0 127 -43 191.5t-120 64.5q-82 0 -134.5 -71.5t-58.5 -208.5z" />
<glyph unicode="&#x178;" horiz-adv-x="1249" d="M-23 1274v100h560v-100l-115 -10l-19 -25l281 -520l293 502l-16 32l-123 23v98h446v-100l-121 -23l-389 -661v-449l33 -28l139 -11v-102h-614v102l137 11l33 28v400l-393 712zM283 1702q0 57 39 96t92 39t91 -39t38 -96q0 -55 -38 -94t-91 -39t-92 39t-39 94zM707 1702 q0 57 38 96t91 39t91 -39t38 -96q0 -55 -38 -94t-91 -39q-55 0 -92 39t-37 94z" />
<glyph unicode="&#x2c6;" horiz-adv-x="1024" d="M197 1130l225 390h180l225 -390h-157l-158 256l-156 -256h-159z" />
<glyph unicode="&#x2dc;" horiz-adv-x="1024" d="M178 1167v35q0 119 46 181.5t132 62.5q45 0 87 -15.5t79 -33t70 -32.5t59 -15q80 0 80 112v17h111v-33q0 -119 -48.5 -181.5t-129.5 -62.5q-49 0 -93.5 14.5t-82 33t-68.5 32.5t-53 14q-76 0 -76 -108v-21h-113z" />
<glyph unicode="&#x2000;" horiz-adv-x="986" />
<glyph unicode="&#x2001;" horiz-adv-x="1972" />
<glyph unicode="&#x2002;" horiz-adv-x="986" />
<glyph unicode="&#x2003;" horiz-adv-x="1972" />
<glyph unicode="&#x2004;" horiz-adv-x="657" />
<glyph unicode="&#x2005;" horiz-adv-x="493" />
<glyph unicode="&#x2006;" horiz-adv-x="328" />
<glyph unicode="&#x2007;" horiz-adv-x="328" />
<glyph unicode="&#x2008;" horiz-adv-x="246" />
<glyph unicode="&#x2009;" horiz-adv-x="394" />
<glyph unicode="&#x200a;" horiz-adv-x="109" />
<glyph unicode="&#x2010;" horiz-adv-x="667" d="M74 393v201h520v-201h-520z" />
<glyph unicode="&#x2011;" horiz-adv-x="667" d="M74 393v201h520v-201h-520z" />
<glyph unicode="&#x2012;" horiz-adv-x="667" d="M74 393v201h520v-201h-520z" />
<glyph unicode="&#x2013;" horiz-adv-x="1024" d="M0 399v187h1024v-187h-1024z" />
<glyph unicode="&#x2014;" horiz-adv-x="2048" d="M0 401v185h2048v-185h-2048z" />
<glyph unicode="&#x2018;" horiz-adv-x="522" d="M102 1020q0 129 78 235.5t230 174.5l43 -62q-190 -117 -191 -278v-17.5t2 -17.5h123q39 -49 39 -103q0 -63 -40 -103t-103 -40q-80 0 -130.5 56.5t-50.5 154.5z" />
<glyph unicode="&#x2019;" horiz-adv-x="522" d="M98 870q190 113 191 281v15.5t-2 17.5h-123q-39 49 -39 104q0 63 38 102.5t103 39.5q82 0 132.5 -57.5t50.5 -155.5q0 -127 -78 -235t-230 -173z" />
<glyph unicode="&#x201a;" horiz-adv-x="522" d="M68 -295q190 117 190 281v17t-2 17h-123q-37 45 -37 103q0 63 37 102t103 39q82 0 132 -56t50 -155q0 -129 -77 -235.5t-228 -173.5z" />
<glyph unicode="&#x201c;" horiz-adv-x="972" d="M102 1020q0 129 77 235.5t231 174.5l45 -62q-193 -117 -193 -281v-16t2 -16h125q37 -43 37 -105q0 -63 -38 -102t-103 -39q-80 0 -131.5 56.5t-51.5 154.5zM555 1022q0 129 78 234.5t229 173.5l45 -62q-193 -117 -192 -281v-15t2 -17h123q39 -49 39 -103q0 -63 -39 -103 t-105 -40q-80 0 -130 57.5t-50 155.5z" />
<glyph unicode="&#x201d;" horiz-adv-x="972" d="M98 870q193 117 193 281v16.5t-2 16.5h-125q-39 41 -39 104t39 102.5t104 39.5q82 0 132.5 -57.5t50.5 -153.5q0 -129 -79 -237t-231 -173zM551 870q190 117 190 279v17.5t-2 17.5h-123q-39 41 -38 102q0 66 37.5 105t103.5 39q82 0 132 -57.5t50 -153.5q0 -129 -78 -237 t-229 -173z" />
<glyph unicode="&#x201e;" horiz-adv-x="972" d="M74 -295q190 117 190 281v17t-2 17h-123q-39 41 -39 103q0 66 39 103.5t105 37.5q82 0 132 -56t50 -153q0 -129 -79 -237.5t-230 -173.5zM526 -295q190 119 191 281v17t-2 17h-123q-39 41 -39 103q0 63 38 102t103 39q82 0 132.5 -56t50.5 -155q0 -129 -78 -235.5 t-230 -173.5z" />
<glyph unicode="&#x2022;" horiz-adv-x="1208" d="M307 762q0 61 23.5 114.5t63.5 93.5t94.5 63.5t115.5 23.5t114.5 -23.5t93.5 -63.5t63.5 -93.5t23.5 -114.5t-23.5 -114.5t-63.5 -94.5t-94 -64.5t-116 -23.5q-61 0 -115.5 23.5t-94.5 63.5t-62.5 94.5t-22.5 115.5z" />
<glyph unicode="&#x2026;" horiz-adv-x="2048" d="M180 145q0 70 47 117t113 47q68 0 116 -48t48 -116t-48 -114.5t-116 -46.5q-66 0 -113 47t-47 114zM862 145q0 70 47 117t113 47q68 0 116 -48t48 -116t-48 -114.5t-116 -46.5q-66 0 -113 47t-47 114zM1546 145q0 70 47 117t113 47q68 0 116 -48t48 -116t-48 -114.5 t-116 -46.5q-66 0 -113 47t-47 114z" />
<glyph unicode="&#x202f;" horiz-adv-x="394" />
<glyph unicode="&#x2039;" horiz-adv-x="522" d="M72 406v172l352 294v-172l-221 -208l221 -209v-172z" />
<glyph unicode="&#x203a;" horiz-adv-x="522" d="M78 111v172l221 209l-221 208v172l352 -294v-172z" />
<glyph unicode="&#x205f;" horiz-adv-x="493" />
<glyph unicode="&#x2122;" horiz-adv-x="1638" d="M227 1204v152h473v-152h-61l-14 90l-15 11h-86v-426l70 -13v-51h-260v51l72 13v426h-87l-14 -11l-14 -90h-64zM752 815v51l63 13v413l-63 11v53h231v-27l119 -346l121 344v29h229v-53l-66 -13v-411l66 -13v-51h-235v49l57 15v407l-168 -471h-64l-161 471v-407l61 -13v-51 h-190z" />
<glyph unicode="&#x25fc;" horiz-adv-x="993" d="M0 0v993h993v-993h-993z" />
<glyph unicode="&#xfb01;" horiz-adv-x="1273" d="M63 0v92l103 8l31 31v717h-134v78l134 61v8q0 279 198 435q59 47 126 71.5t126 24.5q78 0 122 -36t44 -95q0 -84 -94 -142l-199 166q-41 -49 -57.5 -129t-16.5 -196v-123h449l113 55h92v-895l28 -31l109 -8v-92h-522v92l104 8l31 31v717h-404v-717l33 -31l107 -8v-92 h-523zM856 1329q0 63 39 102t102 39q57 0 96.5 -40.5t39.5 -100.5q0 -61 -41 -102t-99 -41q-57 0 -97 40t-40 103z" />
<glyph unicode="&#xfb02;" horiz-adv-x="1284" d="M63 0v92l103 8l31 31v717h-134v78l134 61v8q0 272 188 428q59 51 129 77t137 26q135 0 174 -101l209 99h76v-1389l31 -33l119 -12v-90h-543v90l110 12l33 29v1200h-74l-63 -76l-195 168q-82 -88 -82 -329v-123h277v-123h-277v-717l33 -31l107 -8v-92h-523z" />
</font>
</defs>
</svg>
