<?xml version="1.0" standalone="no"?>
<!DOCTYPE svg PUBLIC "-//W3C//DTD SVG 1.1//EN" "http://www.w3.org/Graphics/SVG/1.1/DTD/svg11.dtd" >
<svg xmlns="http://www.w3.org/2000/svg">
<metadata></metadata>
<defs>
<font id="charterbold_italic" horiz-adv-x="1200" >
<font-face units-per-em="2048" ascent="1561" descent="-487" />
<missing-glyph horiz-adv-x="600" />
<glyph horiz-adv-x="0" />
<glyph horiz-adv-x="682" />
<glyph unicode=" "  horiz-adv-x="600" />
<glyph unicode="&#x09;" horiz-adv-x="600" />
<glyph unicode="&#xa0;" horiz-adv-x="600" />
<glyph unicode="!" horiz-adv-x="696" d="M88 123q0 35 14.5 66.5t38 55t54 38t65.5 14.5q59 0 98 -39t39 -98q0 -35 -14 -67t-37.5 -55.5t-55.5 -37.5t-67 -14q-55 0 -95 38.5t-40 98.5zM233 406l43 727q8 135 51.5 201.5t145.5 66.5q61 0 95 -32t34 -89q0 -27 -8 -61.5t-23 -81.5l-231 -731h-107z" />
<glyph unicode="&#x22;" horiz-adv-x="694" d="M84 1334v20q0 109 94 108q96 0 96 -108v-19.5t-2 -19.5l-73 -459h-39l-74 459q-2 10 -2 19zM420 1334v20q0 53 25.5 80.5t70.5 27.5t70.5 -27.5t25.5 -78.5q0 -10 -1 -20.5t-3 -20.5l-73 -459h-39l-74 459q-2 10 -2 19z" />
<glyph unicode="#" horiz-adv-x="1538" d="M117 453v125h327l91 276h-316v125h359l163 475l129 -37l-155 -438h282l158 473l131 -35l-156 -438h281v-125h-321l-95 -276h330v-125h-373l-166 -500l-129 33l156 467h-274l-168 -500l-129 33l161 467h-286zM582 578h272l96 276h-276z" />
<glyph unicode="$" d="M51 82l68 340h139l-8 -244l24 -18q88 -37 168 -43l90 477q-319 119 -319 348q0 86 34 161t96.5 132t150.5 94t196 43l31 152h106l-28 -150q156 -8 313 -63l-68 -330h-131l9 231l-25 21q-29 10 -60.5 16t-62.5 11l-86 -457q342 -115 342 -346q0 -92 -34.5 -171 t-100.5 -138.5t-159 -97.5t-212 -48l-39 -215h-108l41 215q-207 12 -367 80zM446 1026q0 -129 142 -186l82 420q-104 -12 -164 -77t-60 -157zM551 117q113 14 177.5 81.5t64.5 159.5q0 68 -40 120t-116 81z" />
<glyph unicode="%" horiz-adv-x="1839" d="M113 825q0 129 32.5 234.5t91 181.5t136.5 117t170 41q129 0 202.5 -80t73.5 -221q0 -123 -32.5 -225.5t-91 -177t-137.5 -115.5t-169 -41q-129 0 -202.5 78.5t-73.5 207.5zM291 0l1104 1374h153l-1102 -1374h-155zM303 801q0 -170 100 -170q39 0 78 37t70 104.5 t50.5 160.5t19.5 206q-1 168 -99 168q-90 0 -147 -142q-35 -82 -53.5 -175t-18.5 -189zM1024 264q0 129 33 234.5t91 179.5t137 115t171 41q129 0 203 -79t74 -220q0 -123 -34 -225.5t-92.5 -177.5t-137 -116t-169.5 -41q-129 0 -202.5 79t-73.5 210zM1217 233 q0 -166 96 -165q88 0 149 141q33 78 52.5 173t19.5 191q0 170 -100 170q-88 0 -146 -141q-35 -80 -53 -175t-18 -194z" />
<glyph unicode="&#x26;" horiz-adv-x="1495" d="M39 324q0 135 88 239.5t262 169.5q-129 141 -129 281q0 80 35 149.5t97.5 122.5t147.5 84t185 31q168 0 262 -81t94 -210q0 -125 -99 -224.5t-290 -144.5l273 -354q37 35 77.5 91.5t81.5 137.5l-18 35l-96 15v98h417v-100l-143 -19q-106 -186 -252 -342 q72 -104 144.5 -153.5t171.5 -49.5q8 0 15 1t15 1v-98l-121 -12l-50 -4t-52 -2q-96 0 -168 40t-133 126q-219 -178 -444 -179q-82 0 -149.5 27t-117 75t-77 111.5t-27.5 137.5zM299 399q0 -55 19.5 -103t53.5 -82t81 -53.5t102 -19.5q125 0 238 88l-338 430 q-156 -100 -156 -260zM500 1065q0 -104 125 -258q223 109 223 303q0 84 -41 131t-111 47q-84 0 -140 -60.5t-56 -162.5z" />
<glyph unicode="'" horiz-adv-x="358" d="M84 1334v20q0 109 94 108q96 0 96 -108v-19.5t-2 -19.5l-73 -459h-39l-74 459q-2 10 -2 19z" />
<glyph unicode="(" horiz-adv-x="860" d="M135 301q0 129 26.5 276.5t84.5 309.5q82 238 260 403q184 174 432 180l-18 -104q-78 -8 -151 -50t-128 -114q-115 -150 -172 -354q-55 -197 -78.5 -351.5t-23.5 -265.5q0 -197 67.5 -302t192.5 -115l-21 -105q-223 4 -347 157.5t-124 434.5z" />
<glyph unicode=")" horiz-adv-x="860" d="M-125 -291l19 105q162 12 278 163q121 156 178 373q53 197 74.5 348.5t21.5 255.5q0 193 -68.5 297.5t-191.5 114.5l21 104q221 -4 346 -156.5t125 -426.5q0 -125 -25.5 -269.5t-79.5 -304.5q-84 -254 -266 -424q-186 -174 -432 -180z" />
<glyph unicode="*" horiz-adv-x="1024" d="M199 1169l157 56l189 -156l-17 -31l-266 2zM268 692l25 158l244 160l22 -19l-131 -256zM537 1346l118 124l76 -124l-129 -256h-33zM573 991l31 19l187 -160l-35 -158l-144 45zM621 1069l245 156l138 -54l-113 -131l-268 -4z" />
<glyph unicode="+" horiz-adv-x="1705" d="M254 528v166h514v527h170v-527h514v-166h-514v-528h-170v528h-514z" />
<glyph unicode="," horiz-adv-x="598" d="M-117 -358l17 94q238 43 272 278h-125q-23 31 -22 76q0 78 48 126t120 48t111.5 -42t39.5 -116q0 -80 -34 -158.5t-94 -142t-145 -107.5t-188 -56z" />
<glyph unicode="-" horiz-adv-x="655" d="M20 393l37 201h518l-34 -201h-521z" />
<glyph unicode="." horiz-adv-x="602" d="M45 145q0 66 45 113t111 47t110.5 -46t44.5 -114t-45 -112.5t-110 -44.5q-63 0 -109.5 46t-46.5 111z" />
<glyph unicode="/" horiz-adv-x="985" d="M-244 -190l1151 1564h168l-1149 -1564h-170z" />
<glyph unicode="0" d="M59 440q0 193 47.5 363t133.5 305q90 141 216 216t265 75q197 0 306.5 -129t109.5 -361q0 -182 -45 -346t-127 -295q-184 -293 -498 -293q-90 0 -165 34t-129 95.5t-84 146.5t-30 189zM322 362q0 -133 46 -199.5t132 -66.5q152 0 252 248q57 141 91 317.5t34 358.5 q0 260 -168 260q-84 0 -145.5 -62.5t-114.5 -191.5q-29 -72 -52.5 -151.5t-40 -165.5t-25.5 -173t-9 -174z" />
<glyph unicode="1" d="M162 0v106l217 13l33 35l192 1022l-22 10l-291 -37v100l481 146h123l-236 -1248l21 -32l190 -13v-102h-708z" />
<glyph unicode="2" d="M-6 0l12 154q199 137 351.5 253.5t255 224t155.5 209t53 210.5q0 100 -57 157.5t-158 57.5q-55 0 -119 -19l-51 -278q-59 -31 -119 -31q-59 0 -91.5 34t-32.5 91q0 88 83 172q76 76 182.5 119t227.5 43q92 0 166 -25.5t126 -71t80.5 -110t28.5 -139.5q0 -201 -204.5 -405 t-612.5 -439h572l67 184h135l-71 -391h-979z" />
<glyph unicode="3" d="M25 221q0 66 42 109t103 43q37 0 94 -23l25 -221q72 -33 117 -33q76 0 139 24.5t109 68.5t71 104.5t25 134.5q0 102 -61.5 157.5t-178.5 55.5q-55 0 -129 -12l25 149q14 -2 27 -2h26q172 0 268 83t96 214q0 90 -59 145.5t-158 55.5q-53 0 -119 -27l-41 -241 q-35 -14 -61.5 -22.5t-48.5 -8.5q-55 0 -90 34.5t-35 88.5q0 55 36 108.5t102.5 96.5t158.5 69.5t205 26.5q92 0 164.5 -23.5t123 -63.5t77 -94.5t26.5 -117.5q0 -127 -105.5 -227.5t-304.5 -141.5q340 -20 340 -291q0 -86 -47 -171t-139 -154q-86 -66 -198.5 -102 t-235.5 -36q-90 0 -162 20.5t-123 54.5t-77.5 78t-26.5 91z" />
<glyph unicode="4" d="M-4 369l33 161l831 854h201l-162 -854h227l-28 -161h-228l-84 -435h-233l80 435h-637zM219 530h447l114 582z" />
<glyph unicode="5" d="M41 213q0 59 41 100t106 41q41 0 82 -18l31 -221q43 -18 100 -19q82 0 148.5 28t114 75t74 111.5t26.5 135.5q0 119 -83 187.5t-237 68.5q-55 0 -114.5 -5t-124.5 -13l135 690h788l-38 -207h-631l-72 -348q78 23 139.5 32t108.5 9q186 0 291.5 -92t105.5 -244 q0 -113 -48 -212t-132 -172.5t-200.5 -116.5t-254.5 -43q-82 0 -148.5 18t-112.5 51t-70.5 75t-24.5 89z" />
<glyph unicode="6" d="M63 463q0 223 99.5 426t281.5 350q240 195 596 234l17 -130q-246 -23 -419 -157.5t-241 -356.5q162 104 326 105q166 0 265 -103.5t99 -281.5q0 -115 -45 -219.5t-123.5 -183t-186 -125t-230.5 -46.5q-201 0 -320 127t-119 361zM330 436q0 -162 58 -247t157 -85 q55 0 105 29t88 80t61.5 120.5t23.5 153.5q0 285 -250 285q-102 0 -204 -57q-18 -63 -28.5 -134t-10.5 -145z" />
<glyph unicode="7" d="M152 -70l837 1223h-586l-69 -203h-135l80 424h974l-20 -125l-854 -1263l-4 -56h-223z" />
<glyph unicode="8" d="M49 317q0 121 86 220.5t252 154.5q-178 96 -178 281q0 88 39 167t107.5 138t163.5 93t208 34q190 0 293.5 -85t103.5 -222q0 -123 -76.5 -215.5t-230.5 -149.5q131 -66 194.5 -137.5t63.5 -173.5q0 -94 -41 -178t-116.5 -146.5t-180 -98.5t-231.5 -36q-221 0 -339 97.5 t-118 256.5zM295 340q0 -117 68.5 -184.5t183.5 -67.5q57 0 106 19.5t85 53.5t55.5 81t19.5 104q0 49 -21.5 87t-64.5 71t-106.5 65.5t-149.5 71.5q-176 -119 -176 -301zM463 1044q0 -86 64.5 -145.5t197.5 -122.5q82 53 125 132t43 169q0 96 -52.5 152.5t-138.5 56.5 q-104 0 -171.5 -67.5t-67.5 -174.5z" />
<glyph unicode="9" d="M98 834q0 129 64.5 249.5t181.5 204.5q160 113 348 113q217 0 333 -118t116 -333q0 -172 -65.5 -334.5t-192.5 -303t-312.5 -252t-423.5 -179.5l-32 115q475 143 678 557q-199 -96 -316 -96q-86 0 -155.5 27.5t-118.5 76.5t-77 119t-28 154zM369 889q0 -131 64.5 -204 t176.5 -73q111 0 226 70q23 86 30.5 153.5t7.5 120.5q0 158 -60 240t-157 82q-53 0 -105 -29.5t-93 -82t-65.5 -123t-24.5 -154.5z" />
<glyph unicode=":" horiz-adv-x="708" d="M102 145q0 66 44 113t110 47t112 -46t46 -114q0 -66 -46 -111.5t-112 -45.5q-63 0 -108.5 46t-45.5 111zM225 838q0 66 45.5 111.5t108.5 45.5q66 0 112 -46t46 -111q0 -66 -45.5 -112t-110.5 -46q-63 0 -109.5 46t-46.5 112z" />
<glyph unicode=";" horiz-adv-x="708" d="M-49 -358l16 94q240 43 271 278h-123q-25 33 -25 78q0 76 48 124t120 48t113 -43t41 -115q0 -80 -34 -157.5t-94.5 -142t-145.5 -108.5t-187 -56zM225 838q0 66 45.5 111.5t108.5 45.5q66 0 112 -46t46 -111q0 -66 -45.5 -112t-110.5 -46q-63 0 -109.5 46t-46.5 112z" />
<glyph unicode="&#x3c;" horiz-adv-x="1705" d="M264 530v160l1178 486v-185l-934 -381l934 -381v-182z" />
<glyph unicode="=" horiz-adv-x="1705" d="M254 322v165h1198v-165h-1198zM254 733v168h1198v-168h-1198z" />
<glyph unicode="&#x3e;" horiz-adv-x="1705" d="M264 47v182l934 381l-934 381v185l1178 -486v-160z" />
<glyph unicode="?" horiz-adv-x="1007" d="M152 121q0 35 14 66.5t37.5 56t54.5 39t66 14.5q59 0 97 -39t38 -98q0 -35 -14.5 -67t-38 -55.5t-55.5 -37.5t-68 -14q-53 0 -92 38.5t-39 96.5zM162 1147q0 49 28.5 94t82 80t129 56.5t169.5 21.5q186 0 289 -84t103 -232q0 -166 -129 -295t-388 -206l-34 -187h-133 l51 277q180 59 274 167.5t94 243.5q0 94 -56 145.5t-167 51.5h-6l-135 -231q-10 -2 -20.5 -2h-20.5q-131 0 -131 100z" />
<glyph unicode="@" horiz-adv-x="1916" d="M156 504q0 408 297 680q123 113 287.5 174t353.5 61q156 0 282.5 -48t218 -134t140.5 -207t49 -266q0 -227 -115 -404q-78 -119 -185.5 -184t-209.5 -65q-164 -1 -164 165q-160 -160 -297 -159q-113 0 -184.5 87t-71.5 240q0 197 113 351q76 102 181 157.5t216 55.5 q96 0 201 -56l37 47h139q-18 -47 -29.5 -100t-25.5 -113l-76 -348q-8 -37 -13.5 -68.5t-5.5 -58.5q0 -29 21.5 -49t52.5 -20q41 0 87 25.5t87 78.5q66 82 101.5 190.5t35.5 231.5q0 119 -42 220.5t-118.5 174t-184 113.5t-240.5 41q-317 0 -533 -199q-250 -231 -250 -588 q0 -166 52.5 -300t146.5 -230t227 -148.5t295 -52.5q274 0 533 148l34 -80q-164 -92 -320.5 -136t-301.5 -44q-174 0 -323.5 58t-268.5 173q-229 219 -229 586zM770 477q0 -217 152 -217q98 0 194 129l76 408l-76 108q-10 2 -20.5 3t-20.5 1q-63 0 -118.5 -31.5t-97.5 -89 t-65.5 -137.5t-23.5 -174z" />
<glyph unicode="A" horiz-adv-x="1298" d="M-139 0v98l114 17l719 1271h211l209 -1245l21 -26l118 -15v-100h-538v100l125 13l22 30l-57 340h-457l-188 -344l20 -30l121 -9v-100h-440zM410 596h374l-84 532z" />
<glyph unicode="B" horiz-adv-x="1286" d="M-47 0v100l131 11l31 30l207 1098l-23 29l-131 10v96h614q403 0 404 -260q0 -137 -89 -235.5t-266 -145.5q317 -16 318 -282q0 -213 -148.5 -332t-437.5 -119h-610zM369 115q57 -6 112 -6q385 0 385 335q0 213 -286 213q-51 0 -109 -6zM489 768q20 -2 39 -3t35 -1 q166 0 255 84t89 233q0 188 -248 189q-18 0 -36.5 -1t-40.5 -3z" />
<glyph unicode="C" horiz-adv-x="1280" d="M76 557q0 299 192 543q111 141 279 221t354 80q100 0 198.5 -17.5t203.5 -52.5l-64 -346h-135l-2 223l-21 37q-80 29 -135 29q-225 0 -371 -150q-100 -102 -157.5 -252.5t-57.5 -332.5q0 -211 105.5 -327t292.5 -116q57 0 116 15l39 36l95 254h137l-66 -354 q-219 -74 -420 -74q-133 0 -240.5 42t-183 118t-117.5 183.5t-42 240.5z" />
<glyph unicode="D" horiz-adv-x="1437" d="M-51 0v100l135 11l29 30l206 1094l-20 31l-131 10v98h553q313 0 472 -133t159 -389q0 -180 -65.5 -344t-188.5 -287q-117 -117 -272.5 -169t-366.5 -52h-510zM371 117h84q154 0 262 48t184 152q74 102 118 245t44 294q0 195 -96.5 299.5t-272.5 104.5h-110z" />
<glyph unicode="E" horiz-adv-x="1189" d="M-45 0v98l133 13l29 30l207 1090l-19 33l-131 10v100h1014l-62 -319h-131l-2 174l-22 31h-385l-92 -492h249l31 29l51 151h117l-90 -477h-111l4 154l-26 28h-248l-102 -534h462l29 28l78 220h135l-67 -367h-1051z" />
<glyph unicode="F" horiz-adv-x="1103" d="M-47 0v98l135 15l27 28l209 1098l-21 27l-133 10v98h995l-67 -344h-129l-4 201l-21 26h-360l-99 -512h244l37 25l53 154h117l-92 -482h-113l4 160l-28 25h-242l-92 -484l24 -30l138 -11l-9 -102h-573z" />
<glyph unicode="G" horiz-adv-x="1419" d="M78 553q0 209 88 386t248 294q117 84 250 127t282 43q217 0 400 -68l-64 -350h-147l4 227l-25 39q-78 25 -139 25q-113 0 -207 -36t-168 -101q-113 -102 -175.5 -255t-62.5 -337q0 -205 109 -324t299 -119q37 0 109 7l77 424l-22 28l-139 12v101h579v-98l-129 -13 l-31 -28l-92 -476q-246 -86 -454 -86q-135 0 -245 41t-186.5 117t-117.5 182.5t-41 237.5z" />
<glyph unicode="H" horiz-adv-x="1529" d="M-51 0v100l131 11l33 32l206 1092l-20 31l-127 8v100h565v-98l-133 -10l-26 -27l-86 -459h573l86 455l-27 31l-123 12v96h570v-98l-135 -10l-27 -27l-207 -1096l19 -30l131 -15v-98h-568v100l129 13l33 30l94 514h-573l-96 -514l22 -34l131 -9v-100h-575z" />
<glyph unicode="I" horiz-adv-x="722" d="M-41 0v100l135 11l31 30l207 1098l-21 29l-133 8v98h578v-98l-135 -8l-33 -29l-207 -1102l25 -28l133 -9v-100h-580z" />
<glyph unicode="J" horiz-adv-x="970" d="M-92 29l69 364h146l2 -278l27 -25h4q82 0 134 28.5t86 86t55.5 144.5t41.5 204l123 684l-21 31l-137 8v98h578v-98l-137 -12l-29 -33l-117 -682q-49 -293 -174 -434.5t-350 -141.5q-172 0 -301 56z" />
<glyph unicode="K" horiz-adv-x="1337" d="M-53 0v100l131 11l31 30l206 1098l-20 29l-129 10v96h571v-96l-135 -10l-27 -29l-102 -537h62l514 529l-13 33l-127 10v100h512v-100l-164 -17l-479 -485l262 -524q20 -41 40 -69.5t44.5 -47t57 -27t80.5 -8.5q10 0 21 1t22 1v-96q-88 -6 -148.5 -11t-95.5 -5 q-63 0 -106.5 13t-75 41t-57 70t-54.5 101l-186 389h-129l-84 -459l22 -32l127 -9v-100h-571z" />
<glyph unicode="L" horiz-adv-x="1083" d="M-51 0v98l127 13l33 26l206 1102l-20 29l-129 10v96h571v-98l-129 -10l-35 -27l-208 -1120h370l37 28l80 256h147l-77 -403h-973z" />
<glyph unicode="M" horiz-adv-x="1830" d="M-49 0v100l131 15l31 30l215 1088l-19 33l-135 10v98h528v-61l152 -948l500 954v55h514v-100l-131 -10l-31 -29l-197 -1094l21 -30l127 -13v-98h-553v102l135 11l29 28l196 1102l-649 -1243h-147l-195 1233l-213 -1094l25 -28l123 -11v-100h-457z" />
<glyph unicode="N" horiz-adv-x="1458" d="M-53 0v102l133 11l29 30l208 1096l-22 29l-131 10v96h452v-49l420 -993l174 907l-24 27l-133 14v94h469v-96l-131 -10l-33 -27l-232 -1241h-211l-471 1110l-184 -963l19 -34l135 -13v-100h-467z" />
<glyph unicode="O" horiz-adv-x="1492" d="M78 543q0 160 48 303t140 266q104 137 256 213t322 76q129 0 233.5 -41t179 -115t115.5 -178t41 -231q0 -160 -48 -305.5t-140 -264.5q-111 -141 -260.5 -217t-323.5 -76q-127 0 -230.5 41t-177 116t-114.5 179.5t-41 233.5zM360 524q0 -201 85 -313.5t219 -112.5 q92 0 176 57.5t153 174.5q59 100 95 236t36 286q0 205 -80.5 315.5t-218.5 110.5q-188 0 -325 -229q-66 -106 -103 -243.5t-37 -281.5z" />
<glyph unicode="P" horiz-adv-x="1189" d="M-49 0v100l131 11l31 28l206 1094l-20 35l-127 10v96h528q84 0 159 -6t147 -37q86 -37 137 -115.5t51 -183.5q0 -115 -43 -210t-123 -165.5t-194.5 -109.5t-260.5 -39h-59.5t-73.5 4l-69 -369l18 -34l135 -9v-100h-573zM461 627q16 -2 31.5 -2h31.5q186 0 287.5 103 t101.5 290q0 244 -280 244h-24.5t-26.5 -2z" />
<glyph unicode="Q" horiz-adv-x="1492" d="M74 545q0 162 57 316.5t162 279.5q104 125 248.5 192.5t306.5 67.5q125 0 229.5 -41t178 -116t114.5 -178t41 -228q0 -256 -114.5 -459t-329.5 -320q31 -63 59.5 -109t60 -77t68.5 -45t84 -14q33 0 84 10t119 33v-95q-111 -47 -199 -72.5t-160 -25.5q-127 0 -217 77 t-164 239q-18 -2 -36.5 -2.5t-34.5 -0.5q-94 0 -172 20.5t-142 68.5q-117 86 -180 208.5t-63 270.5zM365 555q0 -211 89 -326.5t228 -115.5q137 0 258 143q78 92 128 241.5t50 325.5q0 209 -85 325t-220 116q-139 0 -262 -146q-41 -47 -77 -118.5t-64 -165.5 q-45 -154 -45 -279z" />
<glyph unicode="R" horiz-adv-x="1320" d="M-45 0v98l129 13l31 26l209 1098l-23 31l-133 10v98h594q223 0 330.5 -70.5t107.5 -224.5q0 -160 -111.5 -269.5t-320.5 -141.5q68 -14 112 -44t73.5 -76t50 -106.5t40.5 -134.5q16 -59 32 -99t39.5 -64.5t59 -36t93.5 -11.5h26v-94q-55 -8 -102 -11t-86 -3 q-72 0 -125 16t-91 51t-65.5 91.5t-48.5 134.5q-10 41 -17 78.5t-17.5 72.5t-26 64.5t-41.5 52.5q-68 55 -185 55h-26l-88 -465l18 -28l137 -11v-100h-575zM485 721q16 -2 29.5 -2h30.5q180 0 276.5 89t96.5 239q0 113 -69 164t-216 51q-10 0 -21.5 -1t-23.5 -1z" />
<glyph unicode="S" horiz-adv-x="1132" d="M47 92l55 332h136l-2 -244l14 -20q94 -41 186 -41q66 0 119 18.5t91 52t58.5 77.5t20.5 98q0 61 -55 129q-29 35 -95.5 70.5t-160.5 90.5q-59 35 -102.5 69t-72 70.5t-43 80t-14.5 98.5q0 92 38 170t106.5 135t166 89t218.5 32q154 0 331 -56l-55 -346h-123l4 226l-16 20 q-63 35 -143 35q-61 0 -113.5 -18.5t-90.5 -49t-58.5 -71.5t-20.5 -88q0 -43 17.5 -76t51 -61.5t81 -56.5t108.5 -62q70 -41 125 -76t94 -75t58.5 -88t19.5 -116q0 -94 -40 -177t-112.5 -144.5t-173 -97t-221.5 -35.5q-207 0 -387 106z" />
<glyph unicode="T" horiz-adv-x="1196" d="M76 1014l69 360h1139l-67 -360h-138l4 221l-28 27h-232l-211 -1121l23 -28l139 -13v-100h-590v102l142 9l28 32l207 1119h-231l-37 -27l-74 -221h-143z" />
<glyph unicode="U" horiz-adv-x="1435" d="M147 336q0 39 5.5 84t15.5 100l137 719l-24 27l-125 10v98h567v-96l-129 -10l-29 -25l-135 -715q-8 -43 -13 -79.5t-5 -69.5q0 -117 69.5 -180.5t198.5 -63.5q172 0 256 92t121 283l141 719l-20 35l-136 14v96h463v-96l-131 -14l-31 -29l-139 -721q-10 -57 -22.5 -109.5 t-30.5 -99.5t-46 -92t-69 -86q-74 -74 -188.5 -114t-261.5 -40q-213 0 -326 93.5t-113 269.5z" />
<glyph unicode="V" horiz-adv-x="1263" d="M55 1276v98h529v-98l-125 -8l-19 -33l152 -954l495 960l-14 27l-119 8v98h432v-94l-118 -18l-678 -1268h-199l-203 1241l-18 27z" />
<glyph unicode="W" horiz-adv-x="1886" d="M88 1276v98h524v-96l-125 -12l-22 -35l65 -854l459 997h197l104 -1016l383 879l-16 29l-119 10v98h434v-94l-129 -20l-559 -1260h-184l-109 1055l-487 -1055h-187l-96 1237l-20 25z" />
<glyph unicode="X" horiz-adv-x="1245" d="M-133 0v98l119 13l26 18l492 551l-252 567l-16 19l-130 8v100h562v-96l-125 -12l-23 -31l162 -375l332 379l-13 29l-114 10v96h461v-96l-134 -12l-471 -529l271 -612l18 -19l125 -10v-96h-567v98l131 11l24 30l-176 408l-362 -410l20 -28l129 -11v-98h-489z" />
<glyph unicode="Y" d="M53 1276v98h559v-98l-127 -12l-24 -29l174 -533l379 527l-19 33l-131 12v100h479v-96l-133 -18l-20 -19l-500 -676l-80 -426l23 -26l139 -13v-100h-582v100l138 13l32 32l74 392l-233 710l-19 17z" />
<glyph unicode="Z" horiz-adv-x="1171" d="M-35 0l6 102l891 1151h-436l-37 -20l-70 -223h-147l70 364h946l-6 -100l-893 -1153h493l33 29l78 251h145l-75 -401h-998z" />
<glyph unicode="[" horiz-adv-x="919" d="M104 -270l312 1720h551l-21 -115h-315l-271 -1493h316l-19 -112h-553z" />
<glyph unicode="\" horiz-adv-x="985" d="M43 1374h166l823 -1564h-162z" />
<glyph unicode="]" horiz-adv-x="919" d="M-86 -270l20 112h316l268 1495h-315l20 113h551l-309 -1720h-551z" />
<glyph unicode="^" horiz-adv-x="2048" d="M412 897l503 565h215l502 -565h-104l-506 397l-506 -397h-104z" />
<glyph unicode="_" horiz-adv-x="1024" d="M0 -311h1024v-172h-1024v172z" />
<glyph unicode="`" horiz-adv-x="1024" d="M336 1520h254l123 -390h-138z" />
<glyph unicode="a" horiz-adv-x="1171" d="M37 356q0 219 123 408q78 117 197.5 182.5t256.5 65.5q57 0 115.5 -13.5t122.5 -37.5l76 49h121q-10 -29 -29 -106t-41 -206l-61 -331q-18 -102 -19 -144q0 -53 25.5 -81.5t60.5 -28.5q57 0 135 22v-76q-194 -71 -306 -71h-3q-154 0 -154 149v10q-173 -163 -323 -163h-2 q-139 0 -217 97t-78 275zM299 385q0 -235 155 -235h1q47 0 97 24.5t110 71.5l96 542l-82 123q-6 0 -12.5 1t-14.5 1q-72 0 -135 -38.5t-111.5 -108.5t-76 -167t-27.5 -214z" />
<glyph unicode="b" horiz-adv-x="1138" d="M55 72l221 1259l-167 27v72l350 77h90q-8 -41 -17.5 -102.5t-25.5 -144.5l-72 -392q186 143 330 144q59 0 109.5 -25.5t87 -73t58 -115t21.5 -151.5q0 -141 -54 -273t-152 -231q-161 -161 -425 -161h-3q-193 0 -351 90zM309 137q68 -57 148 -57q59 0 117.5 41 t104.5 112.5t74.5 169t28.5 211.5q0 238 -172 238q-70 0 -188 -72z" />
<glyph unicode="c" horiz-adv-x="894" d="M33 373q0 223 135 407q39 51 90 94.5t109.5 73t121 46t123.5 16.5q111 0 168.5 -45t57.5 -121q0 -61 -46.5 -103.5t-123.5 -46.5l-131 209q-51 -14 -96.5 -56t-79 -104.5t-53 -145.5t-19.5 -177q0 -135 53 -206t150 -71q66 0 146.5 37t168.5 115v-121 q-111 -98 -221.5 -146t-206.5 -48q-78 0 -141.5 27.5t-109.5 78.5t-70.5 124t-24.5 163z" />
<glyph unicode="d" horiz-adv-x="1185" d="M43 362q0 215 113 392q82 127 205.5 194.5t271.5 67.5q76 0 168 -35l57 350l-172 27v69l356 80h86l-190 -1140q-18 -115 -18 -150q0 -47 25.5 -75.5t60.5 -28.5q59 0 137 22v-76q-194 -71 -309 -71h-3q-86 0 -125.5 39t-39.5 125v6q-174 -174 -332 -174q-127 0 -209 100 t-82 278zM301 387q0 -117 42 -178.5t114 -61.5q98 0 223 115l88 535l-86 123q-10 2 -20.5 3t-20.5 1q-61 0 -121.5 -41t-110 -113t-79 -170t-29.5 -213z" />
<glyph unicode="e" horiz-adv-x="950" d="M39 371q0 145 58.5 272t172.5 225q78 66 172.5 102t186.5 36q121 0 187.5 -60.5t66.5 -163.5q0 -147 -136.5 -233t-394.5 -86q-16 0 -31.5 1t-31.5 1q-2 -16 -3 -31.5t-1 -30.5q0 -131 57 -199.5t162 -68.5q66 0 147.5 36t173.5 108l-4 -125q-113 -88 -220 -130t-200 -42 q-172 0 -267 102t-95 287zM305 551q86 4 154.5 26.5t117 56.5t74 77t25.5 88q0 47 -26.5 75.5t-74.5 28.5q-80 0 -153.5 -89t-116.5 -263z" />
<glyph unicode="f" horiz-adv-x="665" d="M-315 -311q0 94 82 129l219 -117q47 63 75.5 189t57.5 319l88 627l-137 -17l2 90l159 70q20 121 69.5 218t115 165t143.5 103.5t158 35.5q90 0 144 -42t54 -99q0 -47 -34.5 -84t-96.5 -51l-172 180q-90 -109 -151 -449h278v-120h-297l-75 -535q-20 -137 -54 -249.5 t-94 -205.5q-88 -139 -192.5 -211.5t-200.5 -72.5q-61 0 -101 36.5t-40 90.5z" />
<glyph unicode="g" horiz-adv-x="1058" d="M-61 -174q0 98 73.5 170t225.5 131v8q0 55 21.5 105.5t64.5 103.5q-115 31 -174.5 100.5t-59.5 163.5q0 86 34 159t94.5 126t143 84t183.5 31q125 0 254 -60h280v-106h-209q10 -33 15.5 -61.5t5.5 -55.5q0 -84 -33 -155.5t-94.5 -125t-146.5 -84t-189 -30.5 q-25 -41 -25 -78v-8l310 -148q94 -45 140 -95t46 -126q0 -61 -40 -119.5t-112.5 -102.5t-174 -71.5t-226.5 -27.5q-190 0 -298.5 75.5t-108.5 196.5zM158 -121q0 -94 71.5 -158.5t192.5 -64.5q104 0 167.5 47t63.5 113q0 76 -118 131l-246 112q-131 -70 -131 -180zM336 580 q0 -156 113 -156q37 0 73.5 25.5t65 70.5t47 106.5t18.5 133.5q0 158 -112 158q-37 0 -74 -27t-65.5 -73t-47 -107.5t-18.5 -130.5z" />
<glyph unicode="h" horiz-adv-x="1218" d="M41 0l268 1341l-178 21l-2 65l365 80h92q-20 -84 -39 -171t-37 -181l-70 -346q246 203 396 203q90 0 143 -52.5t53 -144.5q0 -57 -22 -166l-62 -282q-10 -51 -16 -88t-6 -62q0 -47 25.5 -75.5t60.5 -28.5q57 0 135 22v-76q-194 -71 -306 -71h-3q-166 0 -166 145 q0 39 16 109l74 340q18 88 18 137q0 57 -25.5 87t-72.5 30q-45 0 -110.5 -33t-149.5 -103l-127 -700h-254z" />
<glyph unicode="i" horiz-adv-x="651" d="M59 860v74l351 76h90l-131 -693q-10 -57 -11 -84q0 -112 99 -112h2q45 0 141 29v-84q-98 -39 -183 -59.5t-167 -20.5q-152 0 -152 159q0 27 5.5 62t13.5 76l110 551zM293 1329q0 68 45 112t113 44q66 0 101.5 -36t35.5 -95q0 -66 -45 -110t-111 -44q-63 0 -101 36t-38 93 z" />
<glyph unicode="j" horiz-adv-x="608" d="M-299 -313q0 88 70 123l239 -97q49 61 77 179t54 292l97 650l-185 26v74l367 76h90l-111 -693q-12 -78 -25.5 -150.5t-36 -139t-56 -129t-84.5 -119.5q-100 -111 -191.5 -164t-165.5 -53q-63 0 -101 33.5t-38 91.5zM287 1327q0 66 44.5 110t112.5 44q66 0 102 -36t36 -95 q0 -66 -45 -110t-111 -44q-63 0 -101 37t-38 94z" />
<glyph unicode="k" horiz-adv-x="1144" d="M47 0l258 1343l-182 17v67l369 80h88l-199 -979l266 281q92 98 162 150.5t135 52.5q53 0 89 -39t36 -99q0 -61 -41 -107t-125 -71l-74 119q-72 -55 -118.5 -95t-69.5 -63q59 -139 103 -241.5t85 -171t83 -102t96 -33.5q33 0 104 16v-80q-203 -59 -291 -59q-47 0 -81.5 14 t-60.5 42t-48.5 69t-44.5 96l-129 299l-95 -103l-71 -403h-244z" />
<glyph unicode="l" horiz-adv-x="628" d="M70 133q0 20 4 47t10 62l203 1089l-168 27v72l350 77h90l-213 -1140q-10 -45 -16 -82t-6 -68q0 -47 24.5 -75.5t59.5 -28.5q70 0 165 30v-80q-111 -41 -190.5 -61t-130.5 -20q-88 0 -135 38.5t-47 112.5z" />
<glyph unicode="m" horiz-adv-x="1808" d="M66 854v72l348 84h80l-39 -201q117 104 217 152.5t178 48.5q88 0 138 -49.5t54 -145.5q115 100 212.5 147.5t168.5 47.5q94 0 148.5 -54.5t54.5 -148.5q0 -29 -4 -61.5t-12 -71.5l-66 -307q-22 -98 -22 -146q0 -51 24.5 -79.5t59.5 -28.5q59 0 137 22v-76 q-194 -71 -306 -71h-3q-166 0 -166 145q0 23 4 48.5t12 60.5l78 362q16 72 16 119q0 113 -102 113q-47 0 -110.5 -31t-131.5 -96l-121 -709h-251l118 616q6 33 10.5 57.5t4.5 45.5q0 119 -103 119q-41 0 -105.5 -31t-142.5 -96l-125 -711h-249l159 829z" />
<glyph unicode="n" horiz-adv-x="1228" d="M53 854v68l361 88h80l-41 -203q123 100 222 151.5t187 51.5q80 0 133.5 -54.5t53.5 -146.5q0 -55 -23 -162l-61 -280q-10 -53 -16.5 -90t-6.5 -62q0 -47 25.5 -74.5t60.5 -27.5q57 0 135 22v-78q-185 -69 -306 -69h-3q-166 0 -166 145q0 23 5 49.5t12 59.5l73 340 q18 88 19 135q0 57 -27 88t-74 31q-45 0 -109.5 -33t-146.5 -103l-121 -700h-260l164 831z" />
<glyph unicode="o" horiz-adv-x="1126" d="M39 403q0 121 46 237t132 204q78 80 179 123t214 43q96 0 173 -30t131.5 -85t83 -133t28.5 -174q0 -125 -46 -241t-132 -206q-78 -80 -178.5 -122t-214.5 -42q-96 0 -173 30t-131.5 85t-83 134t-28.5 177zM303 371q0 -287 174 -287q57 0 108.5 38t90.5 107.5t62.5 167 t23.5 213.5q0 293 -178 293q-55 0 -106.5 -38t-89.5 -107.5t-61.5 -167.5t-23.5 -219z" />
<glyph unicode="p" horiz-adv-x="1157" d="M-129 -365l125 33l18 27l201 1147l-160 20v72l342 76h90l-28 -140q172 141 329 142q123 0 199 -95.5t76 -263.5q0 -147 -45 -265t-141 -218q-78 -84 -184.5 -130t-219.5 -46q-41 0 -80 8t-80 25l-61 -357l190 -37v-79h-571v81zM332 143q70 -34 137 -34h4q68 0 128.5 37.5 t106.5 107.5t72.5 164t26.5 209q0 113 -44 172t-118 59q-82 0 -201 -88z" />
<glyph unicode="q" horiz-adv-x="1150" d="M49 362q0 133 40 247t118 206q82 98 188.5 149.5t225.5 51.5q102 0 233 -47l92 47h109q-12 -66 -29.5 -163t-40.5 -226l-164 -961l185 -35v-77h-576v81l127 25l23 29l79 446q-178 -147 -317 -147q-135 0 -214 97t-79 277zM301 391q0 -119 46 -180t130 -61q47 0 96.5 22.5 t106.5 67.5l92 551l-88 127q-10 2 -19.5 2h-19.5q-125 0 -217 -123q-27 -35 -49.5 -81t-39.5 -99.5t-27.5 -110.5t-10.5 -115z" />
<glyph unicode="r" horiz-adv-x="919" d="M53 856v70l353 84h71l-57 -275q98 137 188 205t162 68q66 0 109 -41t43 -109q0 -74 -53.5 -124t-145.5 -50h-4l-55 156q-125 -53 -187.5 -140.5t-85.5 -224.5l-80 -475h-252l164 831z" />
<glyph unicode="s" horiz-adv-x="825" d="M-25 195q0 57 35 92t88 35q63 0 115 -48l-37 -149q70 -49 137 -49q68 0 111 42t43 105q0 39 -13.5 67.5t-36 51.5t-53 44.5t-67.5 45.5q-96 66 -146.5 120t-50.5 130q0 68 31 128t85 104t128 70t162 26q113 0 174 -42t61 -110q0 -53 -38.5 -88t-106.5 -39l-96 184 q-10 2 -20.5 3.5t-20.5 1.5q-66 0 -108 -35t-42 -82t43 -88t121 -97q49 -37 90 -68.5t68.5 -65t43 -73.5t15.5 -92q0 -70 -30.5 -131t-84 -107t-127 -72.5t-161.5 -26.5q-72 0 -129.5 16t-97.5 45t-62.5 68t-22.5 84z" />
<glyph unicode="t" horiz-adv-x="749" d="M80 844v74l176 88l135 225h133l-47 -262h281v-119h-303l-93 -502q-12 -61 -12 -102q0 -129 121 -129q68 0 178 37v-82q-123 -43 -211 -65.5t-143 -22.5q-197 0 -197 194q0 61 15 131l102 541z" />
<glyph unicode="u" horiz-adv-x="1226" d="M57 858v64l355 75h77l-118 -612q-16 -88 -17 -121q0 -110 107 -110h2q45 0 106.5 23.5t139.5 74.5l139 721l244 28l-121 -634q-10 -45 -16.5 -82t-6.5 -68q0 -47 25.5 -75.5t60.5 -28.5q59 0 137 22v-76q-109 -37 -188.5 -57t-132.5 -20q-154 0 -154 157v19 q-121 -92 -216 -135t-161 -43q-100 0 -155 55t-55 155q0 45 12 111l100 533z" />
<glyph unicode="v" horiz-adv-x="1007" d="M-16 868v66l323 76q63 -18 79.5 -67.5t25.5 -139.5l51 -582q186 229 287 436l-48 304q63 51 127 51q63 0 100.5 -38t37.5 -104q0 -111 -138.5 -333t-431.5 -539h-176q10 35 16.5 65.5t6.5 59.5q0 6 -1 13t-1 14l-43 425q-10 104 -21.5 171t-27.5 98z" />
<glyph unicode="w" horiz-adv-x="1572" d="M-4 866v68l293 78h94l41 -748q98 180 187 353.5t167 347.5l193 16q6 -141 17 -335.5t28 -450.5q217 289 289 454l-50 307q51 53 127 54q59 0 96.5 -39t37.5 -105q0 -127 -137.5 -335.5t-393.5 -530.5h-176l-41 707q-94 -182 -189.5 -357.5t-193.5 -349.5h-192l18 63 l-45 779z" />
<glyph unicode="x" horiz-adv-x="1044" d="M-78 131q0 49 35 89t96 56l88 -108q63 43 125 118.5t115 184.5q-45 141 -80 233.5t-63 133.5l-187 14v70l281 90h14q43 0 73 -22.5t53.5 -67.5t44 -114t44.5 -163q94 176 181 264t176 88q57 0 93 -36.5t36 -94.5q0 -53 -34 -95t-98 -60l-79 108q-121 -53 -228 -276 q33 -111 56.5 -193t50 -135t60.5 -78.5t85 -25.5q55 0 113 14v-80q-90 -29 -156.5 -43t-114.5 -14q-59 0 -101 21.5t-73.5 67.5t-56.5 117.5t-45 170.5q-100 -184 -185 -275.5t-173 -91.5q-59 0 -102.5 40t-43.5 93z" />
<glyph unicode="y" horiz-adv-x="1011" d="M-160 -285q0 53 32 90t87 48l137 -129q139 12 305 329h-77l-123 649q-8 43 -21.5 82t-29.5 72l-179 16v68l316 72q66 -12 99.5 -90t55.5 -226l70 -446q63 160 140 348t173 412h64l162 -54v-55l-121 -67q-59 -80 -107.5 -174.5t-93.5 -196t-92 -207.5t-107 -213 q-270 -485 -518 -485q-74 0 -123 48t-49 109z" />
<glyph unicode="z" horiz-adv-x="952" d="M-41 55l670 721l-178 -37q-109 76 -183 76q-63 0 -106 -45l119 -137q-47 -86 -123 -86q-47 0 -75 35.5t-28 95.5q0 72 54 162q51 86 119.5 130t142.5 44t130 -30t105 -50q57 -25 109 -25q20 0 30 2l48 117l151 -94l-678 -713l178 49q117 -86 197 -86q66 0 121 52 l-131 147q43 90 119 90q49 0 83.5 -39t34.5 -102q0 -53 -23.5 -112.5t-70.5 -113.5q-49 -57 -105.5 -83.5t-127.5 -26.5q-47 0 -92.5 13.5t-88.5 28.5t-83.5 28.5t-77.5 13.5q-23 0 -47 -6l-50 -103z" />
<glyph unicode="{" horiz-adv-x="997" d="M96 539v116h41q70 0 118 14.5t75.5 45t40 81t12.5 122.5v172q0 98 24.5 166.5t79 109.5t140.5 59.5t207 18.5h45v-105q-78 -2 -128.5 -16t-79 -44t-39.5 -78t-11 -118v-127q0 -162 -71 -246.5t-231 -111.5q158 -25 231 -111t73 -243v-150q0 -74 10 -123t37.5 -79.5 t78 -44t130.5 -13.5v-108q-16 0 -32 -1t-32 -1q-119 0 -202 19t-134 64.5t-73.5 118t-22.5 178.5v166q0 74 -12.5 125t-41 83t-75.5 46.5t-117 14.5h-41z" />
<glyph unicode="|" horiz-adv-x="1024" d="M424 -483v2048h178v-2048h-178z" />
<glyph unicode="}" horiz-adv-x="997" d="M121 -166q80 0 130 13.5t77.5 44t38 79.5t10.5 123v150q0 158 73.5 243.5t229.5 110.5q-160 27 -231.5 111t-71.5 247v127q0 70 -11.5 118t-40 78t-78.5 44t-126 16v105h45q121 0 207 -18.5t140 -59.5t78.5 -109.5t24.5 -166.5v-172q0 -143 51.5 -204t188.5 -61 q10 0 22.5 1t24.5 1v-116h-41q-70 0 -117 -14.5t-75.5 -46.5t-41 -83t-12.5 -125v-166q0 -106 -22.5 -178.5t-73.5 -118t-134 -64.5t-202 -19q-16 0 -31.5 1t-31.5 1v108z" />
<glyph unicode="~" horiz-adv-x="1705" d="M178 434v187q211 143 387 143q88 0 159 -18.5t134 -40.5q76 -27 146.5 -50.5t146.5 -23.5q90 0 182 39t197 114v-184q-100 -70 -194.5 -105.5t-186.5 -35.5q-90 0 -191 35q-106 35 -201 67.5t-194 32.5q-90 0 -182 -41t-203 -119z" />
<glyph unicode="&#xa1;" horiz-adv-x="696" d="M88 106q0 29 8 64t23 80l231 733h107l-43 -727q-8 -135 -51.5 -202.5t-145.5 -67.5q-61 0 -95 31.5t-34 88.5zM293 1227q0 35 14.5 66.5t38 55t55 38t66.5 14.5q55 0 95 -39t40 -98q0 -35 -14.5 -67t-38 -55.5t-55 -36.5t-64.5 -13q-59 0 -98 37.5t-39 97.5z" />
<glyph unicode="&#xa2;" d="M94 428q0 121 43 227.5t122 188.5t190.5 134t248.5 64l39 205h111l-39 -203q98 -8 170 -22t117 -37l-54 -266h-124l4 182q-61 33 -134 37l-155 -827q37 2 74.5 10t78.5 24l60 185h131l-55 -279q-147 -47 -310 -51l-41 -211h-110l39 215q-193 25 -299.5 138.5 t-106.5 285.5zM342 412q0 -125 47 -200t137 -97l154 817q-74 -14 -136.5 -59.5t-106.5 -114t-69.5 -156.5t-25.5 -190z" />
<glyph unicode="&#xa3;" d="M-23 0l19 154q72 12 122 45.5t82.5 89t51 135.5t31.5 188h-142l15 123h139q23 317 168 483t383 166q70 0 126 -17t96 -46t61.5 -66.5t21.5 -78.5q0 -59 -45 -97.5t-123 -38.5h-19.5t-19.5 2l-80 238h-14q-135 0 -207 -134t-96 -411h368l-16 -123h-371 q-18 -141 -86.5 -241.5t-191.5 -165.5l6 -12q66 8 117 10t88 2h543l-25 -205h-1002z" />
<glyph unicode="&#xa4;" horiz-adv-x="1241" d="M76 432l203 205q-80 106 -80 248q0 139 80 248l-203 204l92 93l203 -203q109 82 250 82q143 0 251 -82l203 203l94 -93l-204 -204q80 -109 79 -248q0 -141 -79 -248l204 -205l-94 -92l-203 205q-113 -82 -249 -82q-143 0 -252 82l-203 -205zM332 885q0 -59 22.5 -112.5 t62.5 -92.5t92 -61.5t114 -22.5q61 0 113 22.5t92 61.5t62.5 92.5t22.5 112.5t-22.5 111.5t-62.5 92t-93 63.5t-112 24t-112.5 -24t-93.5 -63.5t-62.5 -92t-22.5 -111.5z" />
<glyph unicode="&#xa5;" horiz-adv-x="1230" d="M20 479v101h429l-66 194h-307v103h264l-125 370l-115 21v100h539v-100l-125 -13l-22 -22l174 -518l362 499l-8 33l-100 23v98h413v-100l-123 -23l-272 -368h260v-103h-344l-143 -194h428v-101h-441l-59 -338l29 -30l135 -11v-100h-600v100l145 11l43 30l60 338h-431z" />
<glyph unicode="&#xa6;" horiz-adv-x="1024" d="M424 -350v758h178v-758h-178zM424 674v758h178v-758h-178z" />
<glyph unicode="&#xa7;" horiz-adv-x="1024" d="M-20 -223l49 280h116l-6 -188q88 -51 176 -51q51 0 94.5 15t74 42t48 59.5t17.5 69.5q0 43 -20.5 75t-59.5 57.5t-92 52t-117 61.5q-98 53 -144 120.5t-46 161.5q0 119 77.5 217.5t229.5 157.5q-80 47 -118 98.5t-38 122.5q0 74 33 137.5t95.5 109.5t151.5 73t199 27 q74 0 149 -13.5t152 -38.5l-49 -278h-110l10 168q-92 57 -174 57q-49 0 -91 -15.5t-73 -41t-48 -59t-17 -68.5q0 -39 17 -65.5t50 -49t80 -46.5t104 -54q115 -63 169.5 -131t54.5 -164q0 -111 -82 -216.5t-232 -164.5q84 -49 123 -101.5t39 -119.5q0 -74 -33.5 -139.5 t-95 -115.5t-149.5 -79t-199 -29q-160 0 -315 66zM260 614q0 -84 64.5 -140t195.5 -122q104 53 156.5 116.5t52.5 129.5q0 74 -63.5 134.5t-192.5 119.5q-104 -39 -158.5 -101.5t-54.5 -136.5z" />
<glyph unicode="&#xa8;" horiz-adv-x="1024" d="M283 1319q0 57 38 96t91 39t92 -40t39 -95q0 -53 -39 -93t-92 -40t-91 39t-38 94zM705 1319q0 57 39 96t92 39t92 -39t39 -96q0 -55 -39 -94t-92 -39t-92 39t-39 94z" />
<glyph unicode="&#xa9;" horiz-adv-x="1830" d="M129 696q0 160 58.5 302.5t172.5 258.5q113 115 260.5 175.5t307.5 60.5q158 0 306 -61.5t261 -176.5q109 -111 168 -258t59 -309q0 -154 -62.5 -300t-180.5 -263q-113 -111 -255.5 -169t-308.5 -58q-152 0 -295 60t-258 175q-117 115 -175 258.5t-58 304.5zM227 696 q0 -293 205 -497q104 -102 228 -154.5t266 -52.5q141 0 267 52t224 155q100 104 153.5 231t53.5 266q0 141 -53 271.5t-152 228.5q-98 98 -227 152.5t-264 54.5q-141 0 -269.5 -54.5t-226.5 -154.5q-100 -104 -152.5 -230t-52.5 -268zM442 694q0 104 37 193.5t105.5 153 t164 99.5t212.5 36q63 0 134.5 -11.5t157.5 -40.5v-247h-108l-31 161q-61 37 -129 37q-70 0 -128 -27.5t-100 -77.5t-65.5 -122t-23.5 -158t23.5 -155.5t65.5 -119.5t99 -77t125 -27q35 0 67.5 8.5t67.5 24.5l31 174h106v-256q-74 -27 -147.5 -39t-144.5 -12 q-119 0 -214.5 36t-163 99.5t-104.5 152.5t-37 195z" />
<glyph unicode="&#xaa;" horiz-adv-x="878" d="M29 915q0 152 92 285q57 82 146 128t194 46q43 0 87 -10t91 -27l57 35h90q-6 -20 -20 -73.5t-31 -143.5l-47 -233q-6 -35 -10 -60.5t-4 -40.5q0 -37 19.5 -57.5t45.5 -20.5q41 0 101 17v-53q-145 -49 -232 -50q-115 0 -114 105v6q-131 -115 -244 -115q-104 0 -162.5 69 t-58.5 193zM225 936q0 -166 117 -166q68 0 154 68l73 379l-61 86q-4 0 -9 1t-12 1q-53 0 -101 -27t-84 -76t-56.5 -116.5t-20.5 -149.5z" />
<glyph unicode="&#xab;" horiz-adv-x="921" d="M20 406l33 172l412 292l-31 -170l-264 -208l186 -209l-30 -170zM432 406l33 172l412 292l-31 -170l-264 -208l186 -209l-31 -170z" />
<glyph unicode="&#xac;" horiz-adv-x="1705" d="M254 696v166h1198v-502h-166v336h-1032z" />
<glyph unicode="&#xad;" horiz-adv-x="655" d="M20 393l37 201h518l-34 -201h-521z" />
<glyph unicode="&#xae;" horiz-adv-x="1830" d="M129 696q0 160 58.5 302.5t172.5 258.5q113 115 260.5 175.5t307.5 60.5q158 0 306 -61.5t261 -176.5q109 -111 168 -258t59 -309q0 -154 -62.5 -300t-180.5 -263q-113 -111 -255.5 -169t-308.5 -58q-152 0 -295 60t-258 175q-117 115 -175 258.5t-58 304.5zM227 705 q0 -299 199 -500q209 -213 500 -213q141 0 266 52t225 155q100 102 153.5 229t53.5 268q0 139 -52 267.5t-147 226.5q-98 102 -228 157.5t-269 55.5t-267.5 -53.5t-228.5 -155.5q-100 -100 -152.5 -227t-52.5 -262zM510 1073v72h459q324 0 323 -221q0 -92 -62.5 -150.5 t-185.5 -81.5q59 -12 96.5 -34.5t60 -54.5t37.5 -70.5t32 -83.5q27 -68 60.5 -95.5t111.5 -27.5h10v-76q-86 -12 -125 -12q-100 0 -164 41q-31 20 -49 44.5t-30.5 52t-20.5 58.5t-21 62q-29 78 -73.5 111.5t-128.5 33.5h-25v-295l119 -22v-76h-418v74l107 24v703zM815 727 q10 -2 21.5 -2h21.5q111 0 167 44t56 124q0 82 -57 127t-174 45q-8 0 -16.5 -1t-18.5 -1v-336z" />
<glyph unicode="&#xaf;" horiz-adv-x="1024" d="M283 1243l24 139h678l-24 -139h-678z" />
<glyph unicode="&#xb0;" horiz-adv-x="673" d="M43 1163q0 61 22.5 115.5t62.5 94.5t94.5 63.5t115.5 23.5t114.5 -23.5t93.5 -63.5t63.5 -94t23.5 -116q0 -59 -23.5 -113.5t-63.5 -94.5t-94.5 -63.5t-115.5 -23.5t-114.5 22.5t-93.5 62.5t-62.5 94.5t-22.5 115.5zM152 1165q0 -78 54 -132t132 -54q39 0 72.5 15.5 t58.5 41t39 59t14 70.5q0 78 -53 131.5t-131 53.5t-132 -53.5t-54 -131.5z" />
<glyph unicode="&#xb1;" horiz-adv-x="1705" d="M254 14v168h1198v-168h-1198zM254 707v165h514v334h170v-334h514v-165h-514v-334h-170v334h-514z" />
<glyph unicode="&#xb2;" horiz-adv-x="792" d="M-4 549l8 92q131 82 231.5 152.5t169 135t103.5 125t35 126.5q0 59 -39 94t-105 35q-35 0 -77 -13l-33 -166q-41 -18 -80 -18t-60.5 19.5t-21.5 54.5q0 55 55 104q49 45 121 70.5t150 25.5q123 0 193.5 -57t70.5 -149q0 -123 -134 -244t-405 -262h377l45 110h90l-47 -235 h-647z" />
<glyph unicode="&#xb3;" horiz-adv-x="792" d="M16 682q0 39 28 64.5t69 25.5q25 0 61 -12l16 -133q23 -10 42.5 -15.5t35.5 -5.5q102 0 165 55.5t63 143.5q0 61 -41 95t-119 34q-18 0 -39 -2t-45 -6l16 90q10 -2 18.5 -2h16.5q113 0 176.5 50t63.5 128q0 53 -39 87t-105 34q-35 0 -77 -17l-27 -143q-47 -18 -74 -18 q-37 0 -59.5 20.5t-22.5 52.5q0 33 23.5 65t67.5 57.5t105.5 42t135.5 16.5q123 0 190.5 -52.5t67.5 -128.5t-69.5 -136t-200.5 -85q223 -12 223 -174q0 -51 -32 -102.5t-91 -92.5q-57 -41 -131 -62t-156 -21q-119 0 -187.5 45t-68.5 102z" />
<glyph unicode="&#xb4;" horiz-adv-x="1024" d="M508 1130l274 390h252l-389 -390h-137z" />
<glyph unicode="&#xb5;" horiz-adv-x="1183" d="M-109 -319q0 39 16.5 101t42 148t57.5 196t61 247l108 512h207l-100 -467q-20 -94 -21 -139q0 -66 37 -102t102 -36q88 0 139.5 53.5t75.5 167.5l111 523h209l-113 -533q-6 -29 -12 -59.5t-6 -65.5q0 -43 22.5 -66.5t63.5 -23.5q78 0 129 90q12 20 19.5 40t15.5 35 t16 24.5t23 9.5q23 0 22 -31q0 -23 -14.5 -79t-42.5 -107q-82 -143 -219 -144q-84 0 -129 53.5t-47 157.5q-86 -211 -267 -211q-98 0 -156.5 57.5t-68.5 168.5q-29 -158 -42 -274.5t-27.5 -193.5t-38 -115t-74.5 -38q-47 0 -73 26.5t-26 74.5z" />
<glyph unicode="&#xb6;" horiz-adv-x="1007" d="M39 950q0 225 124 324.5t384 99.5h407v-88l-127 -20v-1428h-116v1438h-150v-739h-31q-250 0 -370.5 101t-120.5 312z" />
<glyph unicode="&#xb7;" horiz-adv-x="598" d="M145 686q0 66 45.5 113t108.5 47q66 0 112 -46t46 -114q0 -66 -46 -111t-112 -45q-63 0 -108.5 45.5t-45.5 110.5z" />
<glyph unicode="&#xb8;" horiz-adv-x="1024" d="M119 -449l18 97q78 -16 123 -17q70 0 105.5 25t35.5 65q0 53 -82 54q-10 0 -20 -1t-23 -3l43 229h101l-23 -117q10 2 17.5 2h15.5q139 0 139 -121q0 -47 -20.5 -90t-59 -75.5t-92 -51t-116.5 -18.5q-76 0 -162 22z" />
<glyph unicode="&#xb9;" horiz-adv-x="792" d="M106 549v63l144 9l20 20l129 612l-16 7l-190 -21v59l317 88h80l-156 -749l15 -19l124 -8v-61h-467z" />
<glyph unicode="&#xba;" horiz-adv-x="845" d="M29 948q0 84 34.5 165t100.5 142q57 57 133 87t162 30q143 0 227 -80t84 -215q0 -88 -34 -169t-99 -144q-59 -55 -134 -85t-161 -30q-145 0 -229 81t-84 218zM227 926q0 -201 131 -201q43 0 81 26.5t68 74.5t47 116t17 152q0 204 -133 204q-41 0 -80 -26.5t-67.5 -75.5 t-46 -117.5t-17.5 -152.5z" />
<glyph unicode="&#xbb;" horiz-adv-x="921" d="M-27 113l31 170l264 209l-186 208l31 170l305 -292l-33 -172zM385 113l31 170l264 209l-186 208l30 170l305 -292l-30 -172z" />
<glyph unicode="&#xbc;" horiz-adv-x="1853" d="M102 604v60l136 6l22 20l121 572l-14 6l-185 -21v58l303 79h78l-147 -698l12 -18l121 -6v-58h-447zM367 0l968 1374h144l-969 -1374h-143zM1096 207l20 90l524 479h125l-100 -479h141l-16 -90h-143l-54 -244h-147l51 244h-401zM1235 297h283l71 326z" />
<glyph unicode="&#xbd;" horiz-adv-x="1853" d="M102 604v60l136 6l22 20l121 572l-14 6l-185 -21v58l303 79h78l-147 -698l12 -18l121 -6v-58h-447zM367 0l968 1374h144l-969 -1374h-143zM1094 0l8 86q125 76 221 141.5t160.5 126t98.5 117.5t34 117q0 57 -37 89t-100 32q-29 0 -74 -11l-33 -155q-37 -18 -74 -19 q-39 0 -59 19.5t-20 52.5q0 49 53 96q47 41 114.5 65.5t143.5 24.5q117 0 185.5 -54t68.5 -140q0 -113 -129 -226.5t-387 -244.5h360l43 102h84l-45 -219h-616z" />
<glyph unicode="&#xbe;" horiz-adv-x="1853" d="M16 727q0 37 26 61.5t64 24.5q25 0 60 -12l16 -125q23 -8 40.5 -13.5t33.5 -5.5q98 0 157.5 52.5t59.5 134.5q0 119 -151 119q-37 0 -82 -7l16 84q8 -2 16.5 -2h16.5q109 0 169 47.5t60 118.5q0 51 -37 82t-100 31q-37 0 -74 -14l-26 -136q-23 -8 -38.5 -12t-31.5 -4 q-35 0 -56.5 19.5t-21.5 48.5q0 31 22.5 60.5t64.5 54t99.5 38.5t129.5 14q117 0 182 -47t65 -118q0 -72 -66.5 -128t-191.5 -79q213 -12 213 -164q0 -47 -29.5 -94t-86.5 -88q-53 -35 -125 -55.5t-150 -20.5q-113 0 -178.5 41t-65.5 94zM367 0l968 1374h144l-969 -1374 h-143zM1096 207l20 90l524 479h125l-100 -479h141l-16 -90h-143l-54 -244h-147l51 244h-401zM1235 297h283l71 326z" />
<glyph unicode="&#xbf;" horiz-adv-x="1007" d="M12 301q0 164 130 294t388 208l35 186h133l-53 -276q-180 -59 -273 -167t-93 -245q0 -94 56 -145.5t165 -51.5h6l133 232q12 2 24.5 3t22.5 1q127 0 127 -104q0 -47 -28.5 -92.5t-82 -80t-128 -56t-168.5 -21.5q-186 0 -290 85t-104 230zM512 1245q0 66 45.5 110 t108.5 44q31 0 58.5 -12.5t49 -33t33.5 -48t12 -60.5q0 -66 -45 -112t-108 -46q-66 0 -110 46.5t-44 111.5z" />
<glyph unicode="&#xc0;" horiz-adv-x="1298" d="M-139 0v98l114 17l719 1271h211l209 -1245l21 -26l118 -15v-100h-538v100l125 13l22 30l-57 340h-457l-188 -344l20 -30l121 -9v-100h-440zM410 596h374l-84 532zM504 1901h254l123 -390h-138z" />
<glyph unicode="&#xc1;" horiz-adv-x="1298" d="M-139 0v98l114 17l719 1271h211l209 -1245l21 -26l118 -15v-100h-538v100l125 13l22 30l-57 340h-457l-188 -344l20 -30l121 -9v-100h-440zM410 596h374l-84 532zM676 1511l274 390h252l-389 -390h-137z" />
<glyph unicode="&#xc2;" horiz-adv-x="1298" d="M-139 0v98l114 17l719 1271h211l209 -1245l21 -26l118 -15v-100h-538v100l125 13l22 30l-57 340h-457l-188 -344l20 -30l121 -9v-100h-440zM410 596h374l-84 532zM451 1511l301 390h178l151 -390h-157l-109 256l-205 -256h-159z" />
<glyph unicode="&#xc3;" horiz-adv-x="1298" d="M-139 0v98l114 17l719 1271h211l209 -1245l21 -26l118 -15v-100h-538v100l125 13l22 30l-57 340h-457l-188 -344l20 -30l121 -9v-100h-440zM410 596h374l-84 532zM438 1548q18 135 80 207t152 72q45 0 84 -15.5t73.5 -33t64.5 -32.5t56 -15q86 0 105 129h108 q-20 -135 -80.5 -206t-148.5 -71q-47 0 -88 14.5t-77 33t-64.5 32.5t-51.5 14q-84 0 -100 -129h-113z" />
<glyph unicode="&#xc4;" horiz-adv-x="1298" d="M-139 0v98l114 17l719 1271h211l209 -1245l21 -26l118 -15v-100h-538v100l125 13l22 30l-57 340h-457l-188 -344l20 -30l121 -9v-100h-440zM410 596h374l-84 532zM451 1700q0 57 38 96t91 39t92 -40t39 -95q0 -53 -39 -93t-92 -40t-91 39t-38 94zM873 1700q0 57 39 96 t92 39t92 -39t39 -96q0 -55 -39 -94t-92 -39t-92 39t-39 94z" />
<glyph unicode="&#xc5;" horiz-adv-x="1298" d="M-139 0v98l114 17l719 1271h211l211 -1249l27 -24l110 -13v-100h-538v100l125 13l22 30l-57 340h-457l-186 -344l18 -30l121 -9v-100h-440zM412 596h372l-84 532zM584 1745q0 51 19.5 96t52 78t76.5 51.5t93 18.5q51 0 94.5 -18.5t76 -51.5t51 -78t18.5 -96 q0 -53 -18.5 -97t-51 -78t-75.5 -52.5t-95 -18.5q-49 0 -93 19.5t-76.5 52.5t-52 78t-19.5 96zM692 1745q0 -57 39 -98t92 -41q55 0 95 41t40 98q0 59 -39 98t-94 39t-94 -39t-39 -98z" />
<glyph unicode="&#xc6;" horiz-adv-x="1830" d="M-209 0v98l135 27l858 1108l-16 29l-125 14v98h1190l-66 -321h-129l-4 174l-22 30h-377l-94 -489h243l33 31l47 147h117l-90 -473h-109v150l-22 28h-240l-100 -532h450l33 28l74 220h137l-74 -367h-1026v96l127 15l33 32l72 373h-447l-282 -371l8 -30l127 -17v-98h-461z M487 633h383l121 659z" />
<glyph unicode="&#xc7;" horiz-adv-x="1280" d="M76 557q0 299 192 543q111 141 279 221t354 80q100 0 198.5 -17.5t203.5 -52.5l-64 -346h-135l-2 223l-21 37q-80 29 -135 29q-225 0 -371 -150q-100 -102 -157.5 -252.5t-57.5 -332.5q0 -211 105.5 -327t292.5 -116q57 0 116 15l39 36l95 254h137l-66 -354 q-219 -74 -420 -74q-133 0 -240.5 42t-183 118t-117.5 183.5t-42 240.5zM369 -449l18 97q78 -16 123 -17q70 0 105.5 25t35.5 65q0 53 -82 54q-10 0 -20 -1t-23 -3l43 229h101l-23 -117q10 2 17.5 2h15.5q139 0 139 -121q0 -47 -20.5 -90t-59 -75.5t-92 -51t-116.5 -18.5 q-76 0 -162 22z" />
<glyph unicode="&#xc8;" horiz-adv-x="1189" d="M-45 0v98l133 13l29 30l207 1090l-19 33l-131 10v100h1014l-62 -319h-131l-2 174l-22 31h-385l-92 -492h249l31 29l51 151h117l-90 -477h-111l4 154l-26 28h-248l-102 -534h462l29 28l78 220h135l-67 -367h-1051zM451 1901h254l123 -390h-138z" />
<glyph unicode="&#xc9;" horiz-adv-x="1189" d="M-45 0v98l133 13l29 30l207 1090l-19 33l-131 10v100h1014l-62 -319h-131l-2 174l-22 31h-385l-92 -492h249l31 29l51 151h117l-90 -477h-111l4 154l-26 28h-248l-102 -534h462l29 28l78 220h135l-67 -367h-1051zM623 1511l274 390h252l-389 -390h-137z" />
<glyph unicode="&#xca;" horiz-adv-x="1189" d="M-45 0v98l133 13l29 30l207 1090l-19 33l-131 10v100h1014l-62 -319h-131l-2 174l-22 31h-385l-92 -492h249l31 29l51 151h117l-90 -477h-111l4 154l-26 28h-248l-102 -534h462l29 28l78 220h135l-67 -367h-1051zM398 1511l301 390h178l151 -390h-157l-109 256l-205 -256 h-159z" />
<glyph unicode="&#xcb;" horiz-adv-x="1189" d="M-45 0v98l133 13l29 30l207 1090l-19 33l-131 10v100h1014l-62 -319h-131l-2 174l-22 31h-385l-92 -492h249l31 29l51 151h117l-90 -477h-111l4 154l-26 28h-248l-102 -534h462l29 28l78 220h135l-67 -367h-1051zM398 1700q0 57 38 96t91 39t92 -40t39 -95q0 -53 -39 -93 t-92 -40t-91 39t-38 94zM820 1700q0 57 39 96t92 39t92 -39t39 -96q0 -55 -39 -94t-92 -39t-92 39t-39 94z" />
<glyph unicode="&#xcc;" horiz-adv-x="722" d="M-41 0v100l135 11l31 30l207 1098l-21 29l-133 8v98h578v-98l-135 -8l-33 -29l-207 -1102l25 -28l133 -9v-100h-580zM219 1901h254l123 -390h-138z" />
<glyph unicode="&#xcd;" horiz-adv-x="722" d="M-41 0v100l135 11l31 30l207 1098l-21 29l-133 8v98h578v-98l-135 -8l-33 -29l-207 -1102l25 -28l133 -9v-100h-580zM391 1511l274 390h252l-389 -390h-137z" />
<glyph unicode="&#xce;" horiz-adv-x="722" d="M-41 0v100l135 11l31 30l207 1098l-21 29l-133 8v98h578v-98l-135 -8l-33 -29l-207 -1102l25 -28l133 -9v-100h-580zM166 1511l301 390h178l151 -390h-157l-109 256l-205 -256h-159z" />
<glyph unicode="&#xcf;" horiz-adv-x="722" d="M-41 0v100l135 11l31 30l207 1098l-21 29l-133 8v98h578v-98l-135 -8l-33 -29l-207 -1102l25 -28l133 -9v-100h-580zM166 1700q0 57 38 96t91 39t92 -40t39 -95q0 -53 -39 -93t-92 -40t-91 39t-38 94zM588 1700q0 57 39 96t92 39t92 -39t39 -96q0 -55 -39 -94t-92 -39 t-92 39t-39 94z" />
<glyph unicode="&#xd0;" horiz-adv-x="1437" d="M-51 0v100l135 11l29 30l98 523h-166l23 122h168l83 449l-20 31l-131 10v98h553q313 0 472 -133t159 -389q0 -180 -65.5 -344t-188.5 -287q-117 -117 -271.5 -169t-365.5 -52h-512zM371 117h84q154 0 262 48t184 152q74 102 119 246t45 295q0 193 -97.5 297.5 t-273.5 104.5h-110l-88 -474h264l-25 -122h-264z" />
<glyph unicode="&#xd1;" horiz-adv-x="1458" d="M-53 0v102l133 11l29 30l208 1096l-22 29l-131 10v96h452v-49l420 -993l174 907l-24 27l-133 14v94h469v-96l-131 -10l-33 -27l-232 -1241h-211l-471 1110l-184 -963l19 -34l135 -13v-100h-467zM518 1548q18 135 80 207t152 72q45 0 84 -15.5t73.5 -33t64.5 -32.5t56 -15 q86 0 105 129h108q-20 -135 -80.5 -206t-148.5 -71q-47 0 -88 14.5t-77 33t-64.5 32.5t-51.5 14q-84 0 -100 -129h-113z" />
<glyph unicode="&#xd2;" horiz-adv-x="1492" d="M78 543q0 160 48 303t140 266q104 137 256 213t322 76q129 0 233.5 -41t179 -115t115.5 -178t41 -231q0 -160 -48 -305.5t-140 -264.5q-111 -141 -260.5 -217t-323.5 -76q-127 0 -230.5 41t-177 116t-114.5 179.5t-41 233.5zM360 524q0 -201 85 -313.5t219 -112.5 q92 0 176 57.5t153 174.5q59 100 95 236t36 286q0 205 -80.5 315.5t-218.5 110.5q-188 0 -325 -229q-66 -106 -103 -243.5t-37 -281.5zM602 1901h254l123 -390h-138z" />
<glyph unicode="&#xd3;" horiz-adv-x="1492" d="M78 543q0 160 48 303t140 266q104 137 256 213t322 76q129 0 233.5 -41t179 -115t115.5 -178t41 -231q0 -160 -48 -305.5t-140 -264.5q-111 -141 -260.5 -217t-323.5 -76q-127 0 -230.5 41t-177 116t-114.5 179.5t-41 233.5zM360 524q0 -201 85 -313.5t219 -112.5 q92 0 176 57.5t153 174.5q59 100 95 236t36 286q0 205 -80.5 315.5t-218.5 110.5q-188 0 -325 -229q-66 -106 -103 -243.5t-37 -281.5zM774 1511l274 390h252l-389 -390h-137z" />
<glyph unicode="&#xd4;" horiz-adv-x="1492" d="M78 543q0 160 48 303t140 266q104 137 256 213t322 76q129 0 233.5 -41t179 -115t115.5 -178t41 -231q0 -160 -48 -305.5t-140 -264.5q-111 -141 -260.5 -217t-323.5 -76q-127 0 -230.5 41t-177 116t-114.5 179.5t-41 233.5zM360 524q0 -201 85 -313.5t219 -112.5 q92 0 176 57.5t153 174.5q59 100 95 236t36 286q0 205 -80.5 315.5t-218.5 110.5q-188 0 -325 -229q-66 -106 -103 -243.5t-37 -281.5zM549 1511l301 390h178l151 -390h-157l-109 256l-205 -256h-159z" />
<glyph unicode="&#xd5;" horiz-adv-x="1492" d="M78 543q0 160 48 303t140 266q104 137 256 213t322 76q129 0 233.5 -41t179 -115t115.5 -178t41 -231q0 -160 -48 -305.5t-140 -264.5q-111 -141 -260.5 -217t-323.5 -76q-127 0 -230.5 41t-177 116t-114.5 179.5t-41 233.5zM360 524q0 -201 85 -313.5t219 -112.5 q92 0 176 57.5t153 174.5q59 100 95 236t36 286q0 205 -80.5 315.5t-218.5 110.5q-188 0 -325 -229q-66 -106 -103 -243.5t-37 -281.5zM536 1548q18 135 80 207t152 72q45 0 84 -15.5t73.5 -33t64.5 -32.5t56 -15q86 0 105 129h108q-20 -135 -80.5 -206t-148.5 -71 q-47 0 -88 14.5t-77 33t-64.5 32.5t-51.5 14q-84 0 -100 -129h-113z" />
<glyph unicode="&#xd6;" horiz-adv-x="1492" d="M78 543q0 160 48 303t140 266q104 137 256 213t322 76q129 0 233.5 -41t179 -115t115.5 -178t41 -231q0 -160 -48 -305.5t-140 -264.5q-111 -141 -260.5 -217t-323.5 -76q-127 0 -230.5 41t-177 116t-114.5 179.5t-41 233.5zM360 524q0 -201 85 -313.5t219 -112.5 q92 0 176 57.5t153 174.5q59 100 95 236t36 286q0 205 -80.5 315.5t-218.5 110.5q-188 0 -325 -229q-66 -106 -103 -243.5t-37 -281.5zM549 1700q0 57 38 96t91 39t92 -40t39 -95q0 -53 -39 -93t-92 -40t-91 39t-38 94zM971 1700q0 57 39 96t92 39t92 -39t39 -96 q0 -55 -39 -94t-92 -39t-92 39t-39 94z" />
<glyph unicode="&#xd7;" horiz-adv-x="1705" d="M287 152l458 458l-458 461l116 117l459 -459l461 459l117 -117l-459 -461l459 -458l-117 -119l-461 461l-459 -461z" />
<glyph unicode="&#xd8;" horiz-adv-x="1492" d="M76 524q0 356 211 611q104 127 251.5 195.5t315.5 68.5q147 0 252 -51l125 188l86 -57l-121 -183q109 -82 163 -197.5t54 -260.5q0 -166 -52 -317.5t-153 -274.5q-111 -135 -256 -204t-315 -69q-164 0 -287 68l-139 -207l-76 64l131 198q-94 86 -142 195.5t-48 232.5z M348 539q0 -137 45 -258l623 933q-78 68 -187 68q-100 0 -180 -51t-149 -158q-70 -104 -111 -245.5t-41 -288.5zM453 186q86 -94 211 -94q190 0 327 207q66 100 107 242.5t41 304.5q0 86 -14.5 155.5t-47.5 124.5z" />
<glyph unicode="&#xd9;" horiz-adv-x="1435" d="M147 336q0 39 5.5 84t15.5 100l137 719l-24 27l-125 10v98h567v-96l-129 -10l-29 -25l-135 -715q-8 -43 -13 -79.5t-5 -69.5q0 -117 69.5 -180.5t198.5 -63.5q172 0 256 92t121 283l141 719l-20 35l-136 14v96h463v-96l-131 -14l-31 -29l-139 -721q-10 -57 -22.5 -109.5 t-30.5 -99.5t-46 -92t-69 -86q-74 -74 -188.5 -114t-261.5 -40q-213 0 -326 93.5t-113 269.5zM574 1901h254l123 -390h-138z" />
<glyph unicode="&#xda;" horiz-adv-x="1435" d="M147 336q0 39 5.5 84t15.5 100l137 719l-24 27l-125 10v98h567v-96l-129 -10l-29 -25l-135 -715q-8 -43 -13 -79.5t-5 -69.5q0 -117 69.5 -180.5t198.5 -63.5q172 0 256 92t121 283l141 719l-20 35l-136 14v96h463v-96l-131 -14l-31 -29l-139 -721q-10 -57 -22.5 -109.5 t-30.5 -99.5t-46 -92t-69 -86q-74 -74 -188.5 -114t-261.5 -40q-213 0 -326 93.5t-113 269.5zM746 1511l274 390h252l-389 -390h-137z" />
<glyph unicode="&#xdb;" horiz-adv-x="1435" d="M147 336q0 39 5.5 84t15.5 100l137 719l-24 27l-125 10v98h567v-96l-129 -10l-29 -25l-135 -715q-8 -43 -13 -79.5t-5 -69.5q0 -117 69.5 -180.5t198.5 -63.5q172 0 256 92t121 283l141 719l-20 35l-136 14v96h463v-96l-131 -14l-31 -29l-139 -721q-10 -57 -22.5 -109.5 t-30.5 -99.5t-46 -92t-69 -86q-74 -74 -188.5 -114t-261.5 -40q-213 0 -326 93.5t-113 269.5zM521 1511l301 390h178l151 -390h-157l-109 256l-205 -256h-159z" />
<glyph unicode="&#xdc;" horiz-adv-x="1435" d="M147 336q0 39 5.5 84t15.5 100l137 719l-24 27l-125 10v98h567v-96l-129 -10l-29 -25l-135 -715q-8 -43 -13 -79.5t-5 -69.5q0 -117 69.5 -180.5t198.5 -63.5q172 0 256 92t121 283l141 719l-20 35l-136 14v96h463v-96l-131 -14l-31 -29l-139 -721q-10 -57 -22.5 -109.5 t-30.5 -99.5t-46 -92t-69 -86q-74 -74 -188.5 -114t-261.5 -40q-213 0 -326 93.5t-113 269.5zM521 1700q0 57 38 96t91 39t92 -40t39 -95q0 -53 -39 -93t-92 -40t-91 39t-38 94zM943 1700q0 57 39 96t92 39t92 -39t39 -96q0 -55 -39 -94t-92 -39t-92 39t-39 94z" />
<glyph unicode="&#xdd;" d="M53 1276v98h559v-98l-127 -12l-24 -29l174 -533l379 527l-19 33l-131 12v100h479v-96l-133 -18l-20 -19l-500 -676l-80 -426l23 -26l139 -13v-100h-582v100l138 13l32 32l74 392l-233 710l-19 17zM627 1511l274 390h252l-389 -390h-137z" />
<glyph unicode="&#xde;" horiz-adv-x="1179" d="M-53 0v100l129 11l30 26l205 1086l-20 34l-127 11v94h565v-94l-133 -13l-27 -26l-22 -117h96q248 0 367.5 -82t119.5 -262q0 -111 -41.5 -205t-121.5 -163.5t-195 -108.5t-258 -39h-58.5t-72.5 4l-21 -115l19 -32l133 -11v-98h-567zM406 371q16 -2 30.5 -2h28.5 q186 0 286.5 103t100.5 292q0 233 -279 233h-23t-26 -2z" />
<glyph unicode="&#xdf;" horiz-adv-x="1273" d="M-330 -303q0 88 82 125l219 -115q55 76 86 212t60 335l82 580q96 676 620 675q160 0 249 -81.5t89 -223.5q0 -53 -13 -120.5t-40 -153.5q-16 2 -30.5 2h-29.5q-221 0 -221 -148q0 -47 33 -81.5t92 -79.5q47 -37 88 -69t71 -65.5t47 -73.5t17 -93q0 -72 -29.5 -134.5 t-82.5 -108.5t-126 -72.5t-159 -26.5q-72 0 -129 17t-99 47t-64.5 66.5t-22.5 75.5q0 63 35.5 100.5t95.5 37.5q55 0 106 -52l-34 -137q55 -49 124 -49q78 0 121 40t43 103q0 33 -11 57.5t-31.5 47t-49.5 44t-65 46.5q-98 70 -153.5 127t-55.5 137q0 117 79.5 199t223.5 104 q25 76 36 136.5t11 107.5q0 78 -37 119t-106 41q-143 0 -225.5 -133.5t-123.5 -403.5l-77 -532q-20 -141 -51 -255t-91 -210q-88 -141 -199.5 -219t-205.5 -78q-61 0 -104.5 38t-43.5 95z" />
<glyph unicode="&#xe0;" horiz-adv-x="1171" d="M37 356q0 219 123 408q78 117 197.5 182.5t256.5 65.5q57 0 115.5 -13.5t122.5 -37.5l76 49h121q-10 -29 -29 -106t-41 -206l-61 -331q-18 -102 -19 -144q0 -53 25.5 -81.5t60.5 -28.5q57 0 135 22v-76q-197 -72 -309 -71q-154 0 -154 149v10q-174 -164 -325 -163 q-139 0 -217 97t-78 275zM299 385q0 -236 156 -235q47 0 97 24.5t110 71.5l96 542l-82 123q-6 0 -12.5 1t-14.5 1q-72 0 -135 -38.5t-111.5 -108.5t-76 -167t-27.5 -214zM410 1520h254l123 -390h-138z" />
<glyph unicode="&#xe1;" horiz-adv-x="1171" d="M37 356q0 219 123 408q78 117 197.5 182.5t256.5 65.5q57 0 115.5 -13.5t122.5 -37.5l76 49h121q-10 -29 -29 -106t-41 -206l-61 -331q-18 -102 -19 -144q0 -53 25.5 -81.5t60.5 -28.5q57 0 135 22v-76q-197 -72 -309 -71q-154 0 -154 149v10q-174 -164 -325 -163 q-139 0 -217 97t-78 275zM299 385q0 -236 156 -235q47 0 97 24.5t110 71.5l96 542l-82 123q-6 0 -12.5 1t-14.5 1q-72 0 -135 -38.5t-111.5 -108.5t-76 -167t-27.5 -214zM582 1130l274 390h252l-389 -390h-137z" />
<glyph unicode="&#xe2;" horiz-adv-x="1171" d="M37 356q0 219 123 408q78 117 197.5 182.5t256.5 65.5q57 0 115.5 -13.5t122.5 -37.5l76 49h121q-10 -29 -29 -106t-41 -206l-61 -331q-18 -102 -19 -144q0 -53 25.5 -81.5t60.5 -28.5q57 0 135 22v-76q-197 -72 -309 -71q-154 0 -154 149v10q-174 -164 -325 -163 q-139 0 -217 97t-78 275zM299 385q0 -236 156 -235q47 0 97 24.5t110 71.5l96 542l-82 123q-6 0 -12.5 1t-14.5 1q-72 0 -135 -38.5t-111.5 -108.5t-76 -167t-27.5 -214zM357 1130l301 390h178l151 -390h-157l-109 256l-205 -256h-159z" />
<glyph unicode="&#xe3;" horiz-adv-x="1171" d="M37 356q0 219 123 408q78 117 197.5 182.5t256.5 65.5q57 0 115.5 -13.5t122.5 -37.5l76 49h121q-10 -29 -29 -106t-41 -206l-61 -331q-18 -102 -19 -144q0 -53 25.5 -81.5t60.5 -28.5q57 0 135 22v-76q-197 -72 -309 -71q-154 0 -154 149v10q-174 -164 -325 -163 q-139 0 -217 97t-78 275zM299 385q0 -236 156 -235q47 0 97 24.5t110 71.5l96 542l-82 123q-6 0 -12.5 1t-14.5 1q-72 0 -135 -38.5t-111.5 -108.5t-76 -167t-27.5 -214zM344 1167q18 135 80 207t152 72q45 0 84 -15.5t73.5 -33t64.5 -32.5t56 -15q86 0 105 129h108 q-20 -135 -80.5 -206t-148.5 -71q-47 0 -88 14.5t-77 33t-64.5 32.5t-51.5 14q-84 0 -100 -129h-113z" />
<glyph unicode="&#xe4;" horiz-adv-x="1171" d="M37 356q0 219 123 408q78 117 197.5 182.5t256.5 65.5q57 0 115.5 -13.5t122.5 -37.5l76 49h121q-10 -29 -29 -106t-41 -206l-61 -331q-18 -102 -19 -144q0 -53 25.5 -81.5t60.5 -28.5q57 0 135 22v-76q-197 -72 -309 -71q-154 0 -154 149v10q-174 -164 -325 -163 q-139 0 -217 97t-78 275zM299 385q0 -236 156 -235q47 0 97 24.5t110 71.5l96 542l-82 123q-6 0 -12.5 1t-14.5 1q-72 0 -135 -38.5t-111.5 -108.5t-76 -167t-27.5 -214zM357 1319q0 57 38 96t91 39t92 -40t39 -95q0 -53 -39 -93t-92 -40t-91 39t-38 94zM779 1319 q0 57 39 96t92 39t92 -39t39 -96q0 -55 -39 -94t-92 -39t-92 39t-39 94z" />
<glyph unicode="&#xe5;" horiz-adv-x="1171" d="M37 356q0 219 123 408q78 117 197.5 182.5t256.5 65.5q57 0 115.5 -13.5t122.5 -37.5l76 49h121q-10 -29 -29 -106t-41 -206l-61 -331q-18 -102 -19 -144q0 -53 25.5 -81.5t60.5 -28.5q57 0 135 22v-76q-197 -72 -309 -71q-154 0 -154 149v10q-174 -164 -325 -163 q-139 0 -217 97t-78 275zM299 385q0 -236 156 -235q47 0 97 24.5t110 71.5l96 542l-82 123q-6 0 -12.5 1t-14.5 1q-72 0 -135 -38.5t-111.5 -108.5t-76 -167t-27.5 -214zM440 1356q0 45 18.5 87t49.5 72.5t73 49t89 18.5q49 0 91 -18.5t72.5 -49t48 -73.5t17.5 -92 t-17.5 -91t-48 -74t-72.5 -49.5t-91 -17.5q-98 0 -164 66.5t-66 171.5zM545 1350q0 -53 36.5 -91t88.5 -38q53 0 90 37.5t37 91.5q0 53 -37 92t-90 39q-51 0 -88 -38t-37 -93z" />
<glyph unicode="&#xe6;" horiz-adv-x="1472" d="M10 205q0 164 149.5 254t456.5 127l21 106q6 31 6 72q0 66 -38 101.5t-107 35.5q-37 0 -88 -12l-39 -199h-197q-55 0 -55 37q0 53 32.5 104.5t91 91.5t137.5 63.5t173 23.5q96 0 160.5 -24.5t111.5 -96.5q92 59 170 91t160 32q117 0 181.5 -60.5t64.5 -163.5 q0 -150 -144.5 -239.5t-420.5 -89.5h-17q-2 -14 -2 -26.5v-24.5q0 -133 56.5 -201t160.5 -68q135 0 316 146v-127q-111 -88 -218.5 -132t-209.5 -44q-199 -1 -291 157q-104 -78 -198.5 -116.5t-194.5 -38.5q-104 0 -166 61t-62 160zM264 264q0 -59 34 -91t95 -32 q86 0 207 76q-18 76 -18 150q0 59 12 120q-166 -23 -248 -76t-82 -147zM827 547q174 16 266.5 92t92.5 168q0 47 -26.5 73.5t-69.5 26.5q-76 0 -150 -91t-113 -269z" />
<glyph unicode="&#xe7;" horiz-adv-x="894" d="M33 373q0 223 135 407q39 51 90 94.5t109.5 73t121 46t123.5 16.5q111 0 168.5 -45t57.5 -121q0 -61 -46.5 -103.5t-123.5 -46.5l-131 209q-51 -14 -96.5 -56t-79 -104.5t-53 -145.5t-19.5 -177q0 -135 53 -206t150 -71q66 0 146.5 37t168.5 115v-121 q-111 -98 -221.5 -146t-206.5 -48q-78 0 -141.5 27.5t-109.5 78.5t-70.5 124t-24.5 163zM58 -449l18 97q78 -16 123 -17q70 0 105.5 25t35.5 65q0 53 -82 54q-10 0 -20 -1t-23 -3l43 229h101l-23 -117q10 2 17.5 2h15.5q139 0 139 -121q0 -47 -20.5 -90t-59 -75.5t-92 -51 t-116.5 -18.5q-76 0 -162 22z" />
<glyph unicode="&#xe8;" horiz-adv-x="950" d="M39 371q0 145 58.5 272t172.5 225q78 66 172.5 102t186.5 36q121 0 187.5 -60.5t66.5 -163.5q0 -147 -136.5 -233t-394.5 -86q-16 0 -31.5 1t-31.5 1q-2 -16 -3 -31.5t-1 -30.5q0 -131 57 -199.5t162 -68.5q66 0 147.5 36t173.5 108l-4 -125q-113 -88 -220 -130t-200 -42 q-172 0 -267 102t-95 287zM301 1520h254l123 -390h-138zM305 551q86 4 154.5 26.5t117 56.5t74 77t25.5 88q0 47 -26.5 75.5t-74.5 28.5q-80 0 -153.5 -89t-116.5 -263z" />
<glyph unicode="&#xe9;" horiz-adv-x="950" d="M39 371q0 145 58.5 272t172.5 225q78 66 172.5 102t186.5 36q121 0 187.5 -60.5t66.5 -163.5q0 -147 -136.5 -233t-394.5 -86q-16 0 -31.5 1t-31.5 1q-2 -16 -3 -31.5t-1 -30.5q0 -131 57 -199.5t162 -68.5q66 0 147.5 36t173.5 108l-4 -125q-113 -88 -220 -130t-200 -42 q-172 0 -267 102t-95 287zM305 551q86 4 154.5 26.5t117 56.5t74 77t25.5 88q0 47 -26.5 75.5t-74.5 28.5q-80 0 -153.5 -89t-116.5 -263zM473 1130l274 390h252l-389 -390h-137z" />
<glyph unicode="&#xea;" horiz-adv-x="950" d="M39 371q0 145 58.5 272t172.5 225q78 66 172.5 102t186.5 36q121 0 187.5 -60.5t66.5 -163.5q0 -147 -136.5 -233t-394.5 -86q-16 0 -31.5 1t-31.5 1q-2 -16 -3 -31.5t-1 -30.5q0 -131 57 -199.5t162 -68.5q66 0 147.5 36t173.5 108l-4 -125q-113 -88 -220 -130t-200 -42 q-172 0 -267 102t-95 287zM248 1130l301 390h178l151 -390h-157l-109 256l-205 -256h-159zM305 551q86 4 154.5 26.5t117 56.5t74 77t25.5 88q0 47 -26.5 75.5t-74.5 28.5q-80 0 -153.5 -89t-116.5 -263z" />
<glyph unicode="&#xeb;" horiz-adv-x="950" d="M39 371q0 145 58.5 272t172.5 225q78 66 172.5 102t186.5 36q121 0 187.5 -60.5t66.5 -163.5q0 -147 -136.5 -233t-394.5 -86q-16 0 -31.5 1t-31.5 1q-2 -16 -3 -31.5t-1 -30.5q0 -131 57 -199.5t162 -68.5q66 0 147.5 36t173.5 108l-4 -125q-113 -88 -220 -130t-200 -42 q-172 0 -267 102t-95 287zM248 1319q0 57 38 96t91 39t92 -40t39 -95q0 -53 -39 -93t-92 -40t-91 39t-38 94zM305 551q86 4 154.5 26.5t117 56.5t74 77t25.5 88q0 47 -26.5 75.5t-74.5 28.5q-80 0 -153.5 -89t-116.5 -263zM670 1319q0 57 39 96t92 39t92 -39t39 -96 q0 -55 -39 -94t-92 -39t-92 39t-39 94z" />
<glyph unicode="&#xec;" horiz-adv-x="651" d="M59 860v74l351 76h90l-131 -693q-10 -57 -11 -84q0 -113 101 -112q45 0 141 29v-84q-98 -39 -183 -59.5t-167 -20.5q-152 0 -152 159q0 27 5.5 62t13.5 76l110 551zM115 1520h254l123 -390h-138z" />
<glyph unicode="&#xed;" horiz-adv-x="651" d="M59 860v74l351 76h90l-131 -693q-10 -57 -11 -84q0 -113 101 -112q45 0 141 29v-84q-98 -39 -183 -59.5t-167 -20.5q-152 0 -152 159q0 27 5.5 62t13.5 76l110 551zM287 1130l274 390h252l-389 -390h-137z" />
<glyph unicode="&#xee;" horiz-adv-x="651" d="M59 860v74l351 76h90l-131 -693q-10 -57 -11 -84q0 -113 101 -112q45 0 141 29v-84q-98 -39 -183 -59.5t-167 -20.5q-152 0 -152 159q0 27 5.5 62t13.5 76l110 551zM62 1130l301 390h178l151 -390h-157l-109 256l-205 -256h-159z" />
<glyph unicode="&#xef;" horiz-adv-x="651" d="M59 860v74l351 76h90l-131 -693q-10 -57 -11 -84q0 -113 101 -112q45 0 141 29v-84q-98 -39 -183 -59.5t-167 -20.5q-152 0 -152 159q0 27 5.5 62t13.5 76l110 551zM62 1319q0 57 38 96t91 39t92 -40t39 -95q0 -53 -39 -93t-92 -40t-91 39t-38 94zM484 1319q0 57 39 96 t92 39t92 -39t39 -96q0 -55 -39 -94t-92 -39t-92 39t-39 94z" />
<glyph unicode="&#xf0;" horiz-adv-x="1148" d="M53 397q0 125 47 239t138 202q154 150 380 149q20 0 47 -2t62 -6q-20 51 -41.5 100t-46.5 97l-270 -105l-33 86l252 96l-62 97l-166 32l7 70l321 64l111 -177l239 93l33 -86l-221 -89q92 -164 139 -314t47 -300q0 -152 -44 -273.5t-121.5 -209.5t-186.5 -135.5 t-238 -47.5q-88 0 -159.5 30t-123.5 85t-81 133t-29 172zM317 367q0 -281 177 -281q129 0 208.5 141.5t79.5 415.5q0 55 -8 115t-24 119q-55 14 -97 14q-78 0 -139 -37t-105 -104.5t-68 -165t-24 -217.5z" />
<glyph unicode="&#xf1;" horiz-adv-x="1228" d="M53 854v68l361 88h80l-41 -203q123 100 222 151.5t187 51.5q80 0 133.5 -54.5t53.5 -146.5q0 -55 -23 -162l-61 -280q-10 -53 -16.5 -90t-6.5 -62q0 -47 25.5 -74.5t60.5 -27.5q57 0 135 22v-78q-188 -70 -309 -69q-166 0 -166 145q0 23 5 49.5t12 59.5l73 340 q18 88 19 135q0 57 -27 88t-74 31q-45 0 -109.5 -33t-146.5 -103l-121 -700h-260l164 831zM372 1167q18 135 80 207t152 72q45 0 84 -15.5t73.5 -33t64.5 -32.5t56 -15q86 0 105 129h108q-20 -135 -80.5 -206t-148.5 -71q-47 0 -88 14.5t-77 33t-64.5 32.5t-51.5 14 q-84 0 -100 -129h-113z" />
<glyph unicode="&#xf2;" horiz-adv-x="1126" d="M39 403q0 121 46 237t132 204q78 80 179 123t214 43q96 0 173 -30t131.5 -85t83 -133t28.5 -174q0 -125 -46 -241t-132 -206q-78 -80 -178.5 -122t-214.5 -42q-96 0 -173 30t-131.5 85t-83 134t-28.5 177zM303 371q0 -287 174 -287q57 0 108.5 38t90.5 107.5t62.5 167 t23.5 213.5q0 293 -178 293q-55 0 -106.5 -38t-89.5 -107.5t-61.5 -167.5t-23.5 -219zM387 1520h254l123 -390h-138z" />
<glyph unicode="&#xf3;" horiz-adv-x="1126" d="M39 403q0 121 46 237t132 204q78 80 179 123t214 43q96 0 173 -30t131.5 -85t83 -133t28.5 -174q0 -125 -46 -241t-132 -206q-78 -80 -178.5 -122t-214.5 -42q-96 0 -173 30t-131.5 85t-83 134t-28.5 177zM303 371q0 -287 174 -287q57 0 108.5 38t90.5 107.5t62.5 167 t23.5 213.5q0 293 -178 293q-55 0 -106.5 -38t-89.5 -107.5t-61.5 -167.5t-23.5 -219zM559 1130l274 390h252l-389 -390h-137z" />
<glyph unicode="&#xf4;" horiz-adv-x="1126" d="M39 403q0 121 46 237t132 204q78 80 179 123t214 43q96 0 173 -30t131.5 -85t83 -133t28.5 -174q0 -125 -46 -241t-132 -206q-78 -80 -178.5 -122t-214.5 -42q-96 0 -173 30t-131.5 85t-83 134t-28.5 177zM303 371q0 -287 174 -287q57 0 108.5 38t90.5 107.5t62.5 167 t23.5 213.5q0 293 -178 293q-55 0 -106.5 -38t-89.5 -107.5t-61.5 -167.5t-23.5 -219zM334 1130l301 390h178l151 -390h-157l-109 256l-205 -256h-159z" />
<glyph unicode="&#xf5;" horiz-adv-x="1126" d="M39 403q0 121 46 237t132 204q78 80 179 123t214 43q96 0 173 -30t131.5 -85t83 -133t28.5 -174q0 -125 -46 -241t-132 -206q-78 -80 -178.5 -122t-214.5 -42q-96 0 -173 30t-131.5 85t-83 134t-28.5 177zM303 371q0 -287 174 -287q57 0 108.5 38t90.5 107.5t62.5 167 t23.5 213.5q0 293 -178 293q-55 0 -106.5 -38t-89.5 -107.5t-61.5 -167.5t-23.5 -219zM321 1167q18 135 80 207t152 72q45 0 84 -15.5t73.5 -33t64.5 -32.5t56 -15q86 0 105 129h108q-20 -135 -80.5 -206t-148.5 -71q-47 0 -88 14.5t-77 33t-64.5 32.5t-51.5 14 q-84 0 -100 -129h-113z" />
<glyph unicode="&#xf6;" horiz-adv-x="1126" d="M39 403q0 121 46 237t132 204q78 80 179 123t214 43q96 0 173 -30t131.5 -85t83 -133t28.5 -174q0 -125 -46 -241t-132 -206q-78 -80 -178.5 -122t-214.5 -42q-96 0 -173 30t-131.5 85t-83 134t-28.5 177zM303 371q0 -287 174 -287q57 0 108.5 38t90.5 107.5t62.5 167 t23.5 213.5q0 293 -178 293q-55 0 -106.5 -38t-89.5 -107.5t-61.5 -167.5t-23.5 -219zM334 1319q0 57 38 96t91 39t92 -40t39 -95q0 -53 -39 -93t-92 -40t-91 39t-38 94zM756 1319q0 57 39 96t92 39t92 -39t39 -96q0 -55 -39 -94t-92 -39t-92 39t-39 94z" />
<glyph unicode="&#xf7;" horiz-adv-x="1705" d="M254 528v166h1198v-166h-1198zM717 229q0 57 41 97.5t96 40.5q57 0 97 -40t40 -98q0 -55 -39 -95t-98 -40t-98 39t-39 96zM717 989q0 57 41 98t96 41q57 0 97 -40.5t40 -98.5q0 -55 -39 -95t-98 -40t-98 39t-39 96z" />
<glyph unicode="&#xf8;" horiz-adv-x="1126" d="M39 401q0 125 47 241t135 206q158 162 400 162q94 0 159 -29l111 180l76 -51l-105 -170q164 -111 164 -352q0 -129 -47 -244t-135 -205q-78 -78 -177.5 -120t-209.5 -42q-94 0 -166 27l-113 -180l-74 49l103 170q-168 125 -168 358zM289 395q0 -104 24 -184l398 645 q-49 51 -121 51q-61 0 -115.5 -38t-96.5 -105.5t-65.5 -161.5t-23.5 -207zM360 129q39 -49 119 -49q61 0 115.5 37t94.5 105.5t63.5 164.5t23.5 215q0 106 -22 164z" />
<glyph unicode="&#xf9;" horiz-adv-x="1226" d="M57 858v64l355 75h77l-118 -612q-16 -88 -17 -121q0 -111 109 -110q45 0 106.5 23.5t139.5 74.5l139 721l244 28l-121 -634q-10 -45 -16.5 -82t-6.5 -68q0 -47 25.5 -75.5t60.5 -28.5q59 0 137 22v-76q-109 -37 -188.5 -57t-132.5 -20q-154 0 -154 157v19 q-121 -92 -216 -135t-161 -43q-100 0 -155 55t-55 155q0 45 12 111l100 533zM438 1520h254l123 -390h-138z" />
<glyph unicode="&#xfa;" horiz-adv-x="1226" d="M57 858v64l355 75h77l-118 -612q-16 -88 -17 -121q0 -111 109 -110q45 0 106.5 23.5t139.5 74.5l139 721l244 28l-121 -634q-10 -45 -16.5 -82t-6.5 -68q0 -47 25.5 -75.5t60.5 -28.5q59 0 137 22v-76q-109 -37 -188.5 -57t-132.5 -20q-154 0 -154 157v19 q-121 -92 -216 -135t-161 -43q-100 0 -155 55t-55 155q0 45 12 111l100 533zM610 1130l274 390h252l-389 -390h-137z" />
<glyph unicode="&#xfb;" horiz-adv-x="1226" d="M57 858v64l355 75h77l-118 -612q-16 -88 -17 -121q0 -111 109 -110q45 0 106.5 23.5t139.5 74.5l139 721l244 28l-121 -634q-10 -45 -16.5 -82t-6.5 -68q0 -47 25.5 -75.5t60.5 -28.5q59 0 137 22v-76q-109 -37 -188.5 -57t-132.5 -20q-154 0 -154 157v19 q-121 -92 -216 -135t-161 -43q-100 0 -155 55t-55 155q0 45 12 111l100 533zM385 1130l301 390h178l151 -390h-157l-109 256l-205 -256h-159z" />
<glyph unicode="&#xfc;" horiz-adv-x="1226" d="M57 858v64l355 75h77l-118 -612q-16 -88 -17 -121q0 -111 109 -110q45 0 106.5 23.5t139.5 74.5l139 721l244 28l-121 -634q-10 -45 -16.5 -82t-6.5 -68q0 -47 25.5 -75.5t60.5 -28.5q59 0 137 22v-76q-109 -37 -188.5 -57t-132.5 -20q-154 0 -154 157v19 q-121 -92 -216 -135t-161 -43q-100 0 -155 55t-55 155q0 45 12 111l100 533zM385 1319q0 57 38 96t91 39t92 -40t39 -95q0 -53 -39 -93t-92 -40t-91 39t-38 94zM807 1319q0 57 39 96t92 39t92 -39t39 -96q0 -55 -39 -94t-92 -39t-92 39t-39 94z" />
<glyph unicode="&#xfd;" horiz-adv-x="1011" d="M-160 -285q0 53 32 90t87 48l137 -129q139 12 305 329h-77l-123 649q-8 43 -21.5 82t-29.5 72l-179 16v68l316 72q66 -12 99.5 -90t55.5 -226l70 -446q63 160 140 348t173 412h64l162 -54v-55l-121 -67q-59 -80 -107.5 -174.5t-93.5 -196t-92 -207.5t-107 -213 q-270 -485 -518 -485q-74 0 -123 48t-49 109zM504 1130l274 390h252l-389 -390h-137z" />
<glyph unicode="&#xfe;" horiz-adv-x="1157" d="M-129 -365l125 33l18 27l289 1642l-178 23v67l360 80h88q-12 -68 -22 -124t-19 -101l-73 -412q172 141 329 142q123 0 199 -95.5t76 -263.5q0 -147 -45 -265t-141 -218q-78 -84 -184.5 -130t-219.5 -46q-41 0 -80 8t-80 25l-61 -357l190 -37v-79h-571v81zM332 143 q72 -35 141 -34q68 0 128.5 37.5t106.5 107.5t72.5 164t26.5 209q0 113 -44 172t-118 59q-82 0 -201 -88z" />
<glyph unicode="&#xff;" horiz-adv-x="1011" d="M-160 -285q0 53 32 90t87 48l137 -129q139 12 305 329h-77l-123 649q-8 43 -21.5 82t-29.5 72l-179 16v68l316 72q66 -12 99.5 -90t55.5 -226l70 -446q63 160 140 348t173 412h64l162 -54v-55l-121 -67q-59 -80 -107.5 -174.5t-93.5 -196t-92 -207.5t-107 -213 q-270 -485 -518 -485q-74 0 -123 48t-49 109zM279 1319q0 57 38 96t91 39t92 -40t39 -95q0 -53 -39 -93t-92 -40t-91 39t-38 94zM701 1319q0 57 39 96t92 39t92 -39t39 -96q0 -55 -39 -94t-92 -39t-92 39t-39 94z" />
<glyph unicode="&#x152;" horiz-adv-x="2054" d="M78 514q0 221 75.5 404.5t217.5 310.5q92 84 202.5 127t227.5 43q260 0 381 -219l35 194h827l-64 -319h-131l-2 174l-24 26h-375l-92 -487h237l37 29l47 149h117l-90 -473h-111l2 152l-26 26h-236l-100 -532h450l29 28l80 222h135l-72 -369h-892l26 150 q-96 -88 -194.5 -131.5t-208.5 -43.5q-115 0 -208 39t-159.5 111t-103.5 170t-37 219zM362 522q0 -199 81 -306t214 -107q90 0 172 55t148 166q61 102 99 240.5t38 285.5q0 199 -80 305.5t-213 106.5q-90 0 -171 -56.5t-148 -169.5q-66 -106 -103 -242t-37 -278z" />
<glyph unicode="&#x153;" horiz-adv-x="1628" d="M41 393q0 131 46 248t128 203q78 80 178.5 124t204.5 44q223 0 332 -168q174 166 385 166q111 0 175 -61.5t64 -160.5q0 -147 -140 -236t-402 -89h-39q-2 -14 -2 -27.5v-25.5q0 -129 57 -201t158 -72q139 0 319 150v-127q-223 -180 -424 -180q-98 0 -170.5 39.5 t-109.5 111.5q-80 -78 -173 -114.5t-206 -36.5q-84 0 -154.5 29.5t-121 83.5t-78 131t-27.5 169zM305 371q0 -139 46 -211t124 -72q53 0 103.5 39t88.5 109.5t60.5 168t22.5 216.5q0 139 -44 211.5t-118 72.5q-57 0 -108.5 -39t-90.5 -108.5t-61.5 -169t-22.5 -217.5z M981 549q84 6 150.5 29.5t112.5 59.5t70.5 79t24.5 90t-25.5 72.5t-68.5 25.5q-78 0 -151.5 -90t-112.5 -266z" />
<glyph unicode="&#x178;" d="M53 1276v98h559v-98l-127 -12l-24 -29l174 -533l379 527l-19 33l-131 12v100h479v-96l-133 -18l-20 -19l-500 -676l-80 -426l23 -26l139 -13v-100h-582v100l138 13l32 32l74 392l-233 710l-19 17zM402 1700q0 57 38 96t91 39t92 -40t39 -95q0 -53 -39 -93t-92 -40t-91 39 t-38 94zM824 1700q0 57 39 96t92 39t92 -39t39 -96q0 -55 -39 -94t-92 -39t-92 39t-39 94z" />
<glyph unicode="&#x2c6;" horiz-adv-x="1024" d="M283 1130l301 390h178l151 -390h-157l-109 256l-205 -256h-159z" />
<glyph unicode="&#x2dc;" horiz-adv-x="1024" d="M270 1167q18 135 80 207t152 72q45 0 84 -15.5t73.5 -33t64.5 -32.5t56 -15q86 0 105 129h108q-20 -135 -80.5 -206t-148.5 -71q-47 0 -88 14.5t-77 33t-64.5 32.5t-51.5 14q-84 0 -100 -129h-113z" />
<glyph unicode="&#x2000;" horiz-adv-x="994" />
<glyph unicode="&#x2001;" horiz-adv-x="1989" />
<glyph unicode="&#x2002;" horiz-adv-x="994" />
<glyph unicode="&#x2003;" horiz-adv-x="1989" />
<glyph unicode="&#x2004;" horiz-adv-x="663" />
<glyph unicode="&#x2005;" horiz-adv-x="497" />
<glyph unicode="&#x2006;" horiz-adv-x="331" />
<glyph unicode="&#x2007;" horiz-adv-x="331" />
<glyph unicode="&#x2008;" horiz-adv-x="248" />
<glyph unicode="&#x2009;" horiz-adv-x="397" />
<glyph unicode="&#x200a;" horiz-adv-x="110" />
<glyph unicode="&#x2010;" horiz-adv-x="655" d="M20 393l37 201h518l-34 -201h-521z" />
<glyph unicode="&#x2011;" horiz-adv-x="655" d="M20 393l37 201h518l-34 -201h-521z" />
<glyph unicode="&#x2012;" horiz-adv-x="655" d="M20 393l37 201h518l-34 -201h-521z" />
<glyph unicode="&#x2013;" horiz-adv-x="1024" d="M-51 401l33 185h1038l-35 -185h-1036z" />
<glyph unicode="&#x2014;" horiz-adv-x="2048" d="M-45 401l35 185h2058l-29 -185h-2064z" />
<glyph unicode="&#x2018;" horiz-adv-x="534" d="M156 971q0 63 25.5 128.5t74.5 126t121 114t166 90.5l32 -60q-233 -129 -245 -315h123q23 -35 22 -76q0 -72 -48 -121t-120 -49q-70 0 -110.5 43t-40.5 119z" />
<glyph unicode="&#x2019;" horiz-adv-x="534" d="M131 870q236 131 246 314h-123q-23 35 -23 73q0 72 48.5 122.5t119.5 50.5q70 0 110 -43.5t40 -118.5q0 -63 -24.5 -129t-74 -126.5t-121 -113.5t-165.5 -90z" />
<glyph unicode="&#x201a;" horiz-adv-x="534" d="M-111 -295q233 129 246 315h-123q-23 35 -22 74q0 72 48 121t120 49q70 0 110.5 -43t40.5 -117q0 -63 -24.5 -128.5t-73.5 -127t-121 -114.5t-166 -90z" />
<glyph unicode="&#x201c;" horiz-adv-x="985" d="M160 973q0 61 25.5 126.5t74.5 126t121 114t166 90.5l31 -62q-238 -129 -246 -313h125q23 -35 22 -74q0 -72 -49 -122t-121 -50t-110.5 44t-38.5 120zM610 971q0 63 26 128.5t75 126t120.5 114t165.5 90.5l33 -62q-127 -72 -184.5 -149.5t-61.5 -163.5h125q23 -39 23 -74 t-13.5 -65.5t-36 -54t-53 -38t-67.5 -14.5q-70 0 -111 44t-41 118z" />
<glyph unicode="&#x201d;" horiz-adv-x="985" d="M131 870q236 129 246 314h-123q-23 39 -23 76q0 70 48.5 120t119.5 50q70 0 111 -44.5t41 -117.5q0 -63 -25.5 -129t-75 -126.5t-121 -113.5t-165.5 -90zM584 870q236 129 245 314h-124q-20 33 -21 76q0 72 48 121t120 49q70 0 111 -43.5t41 -118.5q0 -63 -26 -129 t-75 -126.5t-120.5 -113.5t-166.5 -90z" />
<glyph unicode="&#x201e;" horiz-adv-x="985" d="M-104 -295q233 129 245 315h-123q-23 35 -22 74q0 72 48 121t120 49t111.5 -43t39.5 -117q0 -63 -25.5 -128.5t-74.5 -127t-120.5 -114.5t-166.5 -90zM348 -295q238 133 246 315h-123q-23 29 -22 72q0 72 48 122t119 50q72 0 112 -43t40 -117q0 -61 -25.5 -127.5 t-75 -128t-121 -114.5t-165.5 -90z" />
<glyph unicode="&#x2022;" horiz-adv-x="1208" d="M307 762q0 61 23.5 114.5t63.5 93.5t94.5 63.5t115.5 23.5t114.5 -23.5t93.5 -63.5t63.5 -93.5t23.5 -114.5t-23.5 -114.5t-63.5 -94.5t-94 -64.5t-116 -23.5q-61 0 -115.5 23.5t-94.5 63.5t-62.5 94.5t-22.5 115.5z" />
<glyph unicode="&#x2026;" horiz-adv-x="2048" d="M86 145q0 66 45 113t111 47t110.5 -46t44.5 -114t-45 -112.5t-110 -44.5q-63 0 -109.5 46t-46.5 111zM768 145q0 66 45 113t111 47t110.5 -46t44.5 -114t-45 -112.5t-110 -44.5q-63 0 -109.5 46t-46.5 111zM1452 145q0 66 45 113t111 47t110.5 -46t44.5 -114t-45 -112.5 t-110 -44.5q-63 0 -109.5 46t-46.5 111z" />
<glyph unicode="&#x202f;" horiz-adv-x="397" />
<glyph unicode="&#x2039;" horiz-adv-x="544" d="M20 406l33 172l412 292l-31 -170l-264 -208l186 -209l-30 -170z" />
<glyph unicode="&#x203a;" horiz-adv-x="544" d="M-27 113l31 170l264 209l-186 208l31 170l305 -292l-33 -172z" />
<glyph unicode="&#x205f;" horiz-adv-x="497" />
<glyph unicode="&#x2122;" horiz-adv-x="1673" d="M233 1204v152h480v-152h-60l-16 90l-14 11h-93v-424l74 -15v-49h-264v49l74 13v426h-90l-17 -11l-12 -90h-62zM768 817v49l66 13v413l-66 13v51h233v-27l125 -350l125 350v27h232v-51l-68 -13v-413l68 -13v-49h-240v49l60 13v415l-175 -477h-61l-170 477v-415l64 -13v-49 h-193z" />
<glyph unicode="&#x25fc;" horiz-adv-x="1013" d="M0 0v1014h1014v-1014h-1014z" />
<glyph unicode="&#xfb01;" horiz-adv-x="1271" d="M-315 -311q0 90 84 129l219 -117q51 72 78.5 198t54.5 310l88 627l-135 -17v90l159 70q20 123 69.5 220t115 165t144.5 103.5t159 35.5q86 0 135 -39t49 -94q0 -41 -27.5 -78t-80.5 -59l-183 172q-92 -111 -153 -449h381l194 54h90l-131 -693q-10 -51 -10 -84 q0 -113 100 -112q45 0 142 29v-84q-98 -39 -183.5 -59.5t-166.5 -20.5q-152 0 -152 159q0 29 5 63t13 75l111 555l-410 2l-75 -539q-20 -137 -54 -249.5t-94 -205.5q-88 -139 -193.5 -211.5t-199.5 -72.5q-61 0 -102 36.5t-41 90.5zM940 1327q0 63 43 106.5t104 43.5 q59 0 94.5 -36t35.5 -93q0 -61 -42 -103.5t-104 -42.5q-57 0 -94 35t-37 90z" />
<glyph unicode="&#xfb02;" horiz-adv-x="1288" d="M-315 -311q0 43 20.5 76.5t61.5 52.5l219 -117q51 72 78.5 198t54.5 310l90 627l-135 -17v90l159 70q20 123 68.5 219t115 164t144.5 103.5t162 35.5q111 0 164 -61l246 67h88q-10 -53 -15.5 -82.5t-7.5 -38.5l-190 -1003q-10 -59 -16.5 -100t-6.5 -68q0 -104 100 -104 q43 0 148 32v-80q-113 -45 -192.5 -63t-120.5 -18q-184 0 -185 184q0 37 8.5 86t20.5 115l186 964l-78 6l-92 -98l-166 166q-45 -53 -85 -166t-70 -283h262v-118h-277l-75 -537q-20 -139 -54 -250.5t-94 -204.5q-88 -139 -194.5 -211.5t-200.5 -72.5q-61 0 -101 36.5 t-40 90.5z" />
</font>
</defs>
</svg>
