<?xml version="1.0" standalone="no"?>
<!DOCTYPE svg PUBLIC "-//W3C//DTD SVG 1.1//EN" "http://www.w3.org/Graphics/SVG/1.1/DTD/svg11.dtd" >
<svg xmlns="http://www.w3.org/2000/svg">
<metadata></metadata>
<defs>
<font id="charterregular" horiz-adv-x="1138" >
<font-face units-per-em="2048" ascent="1561" descent="-487" />
<missing-glyph horiz-adv-x="569" />
<glyph horiz-adv-x="0" />
<glyph horiz-adv-x="682" />
<glyph unicode=" "  horiz-adv-x="569" />
<glyph unicode="&#x09;" horiz-adv-x="569" />
<glyph unicode="&#xa0;" horiz-adv-x="569" />
<glyph unicode="!" horiz-adv-x="692" d="M229 98q0 49 35 83t82 34q49 0 83 -34t34 -83q0 -47 -34 -81.5t-83 -34.5q-47 0 -82 33.5t-35 82.5zM233 1251q0 147 113 148q113 0 113 -148q0 -33 -6 -118l-58 -783h-98l-57 783q-6 68 -7 118z" />
<glyph unicode="&#x22;" horiz-adv-x="677" d="M90 1362q0 100 84 100q41 0 63.5 -25.5t22.5 -74.5q0 -8 -1 -18.5t-3 -22.5l-66 -457h-32l-64 457q-2 10 -3 20.5t-1 20.5zM418 1360q0 51 22.5 76.5t63.5 25.5q84 0 84 -100v-18.5t-2 -22.5l-68 -457h-31l-65 457q-2 10 -3 19.5t-1 19.5z" />
<glyph unicode="#" horiz-adv-x="1525" d="M131 471v96h326l98 299h-324v97h357l170 491l96 -37l-162 -454h316l163 489l97 -35l-160 -454h285v-97h-318l-100 -299h334v-96h-367l-172 -518l-96 33l164 485h-314l-170 -518l-96 33l168 485h-295zM561 567h305l105 299h-309z" />
<glyph unicode="$" d="M119 51v344h94l37 -223l18 -27q104 -51 262 -51v535q-375 86 -374 372q0 141 96 239.5t278 129.5v152h86v-146h17q72 0 153.5 -11t176.5 -34v-319h-93l-30 190l-31 43q-94 35 -193 35v-502q209 -57 306.5 -144t97.5 -241q0 -147 -105.5 -252.5t-298.5 -140.5v-209h-86 v209q-131 4 -233 17.5t-178 33.5zM330 1038q0 -172 200 -235v471q-98 -23 -149 -84.5t-51 -151.5zM621 102q109 16 169 86t60 168q0 178 -229 246v-500z" />
<glyph unicode="%" horiz-adv-x="1744" d="M63 971q0 205 84.5 316.5t223.5 111.5t223 -111.5t84 -316.5t-83 -317.5t-224 -112.5t-224.5 111.5t-83.5 318.5zM207 971q0 -356 160 -357q164 0 163 357q0 178 -42.5 266t-120.5 88t-119 -89t-41 -265zM371 0l874 1374h125l-876 -1374h-123zM1067 406q0 205 84 316.5 t223 111.5t223 -112t84 -316q0 -205 -82.5 -318t-224.5 -113q-141 0 -224 112t-83 319zM1210 406q0 -356 160 -357q164 0 164 357q0 178 -43 267t-121 89t-119 -90t-41 -266z" />
<glyph unicode="&#x26;" horiz-adv-x="1441" d="M109 379q0 244 270 366q-84 82 -126 156t-42 158q0 70 27.5 132t78 108.5t119 73t148.5 26.5q82 0 146.5 -24.5t110.5 -65.5t70.5 -97.5t24.5 -119.5q0 -123 -71.5 -206t-227.5 -155l352 -381q47 66 76 125.5t39 116.5l-37 39l-113 16v82h416v-82l-147 -20 q-29 -96 -70 -183.5t-100 -164.5l159 -185l187 -10v-84h-361v49l-92 103q-102 -88 -200.5 -132.5t-200.5 -44.5q-96 0 -176 31t-138.5 85t-90 128t-31.5 160zM297 422q0 -70 22.5 -129.5t62.5 -102.5t95 -67.5t121 -24.5q156 0 285 123l-426 465q-82 -55 -121 -117.5 t-39 -146.5zM375 1104q0 -80 48 -150.5t142 -154.5q104 47 152.5 114.5t48.5 167.5q0 102 -54.5 163t-146.5 61q-82 0 -136 -56.5t-54 -144.5z" />
<glyph unicode="'" horiz-adv-x="348" d="M90 1340.5v19.5q0 102 84 102q41 0 63.5 -25.5t22.5 -74.5q0 -8 -1 -18.5t-3 -22.5l-66 -457h-32l-66 457q-2 10 -2 19.5z" />
<glyph unicode="(" horiz-adv-x="854" d="M217 584q0 401 149.5 626.5t424.5 259.5v-86q-211 -37 -305.5 -234.5t-94.5 -567.5q0 -362 96.5 -557t303.5 -230v-86q-268 31 -421 255t-153 620z" />
<glyph unicode=")" horiz-adv-x="854" d="M63 -205q207 35 303.5 229.5t96.5 557.5q0 371 -94.5 568.5t-305.5 233.5v86q274 -35 424 -260t150 -626q0 -395 -152.5 -619.5t-421.5 -255.5v86z" />
<glyph unicode="*" horiz-adv-x="1024" d="M111 1169l141 37l223 -143l-8 -25l-264 17zM266 692l8 148l205 166l21 -15l-97 -248zM432 1346l80 124l80 -124l-66 -256h-28zM522 991l23 15l203 -166l8 -148l-138 53zM551 1065l221 141l143 -37l-94 -114l-262 -17z" />
<glyph unicode="+" horiz-adv-x="1705" d="M254 553v117h541v551h118v-551h539v-117h-539v-553h-118v553h-541z" />
<glyph unicode="," horiz-adv-x="569" d="M80 -279q225 43 225 271v22h-131q-33 35 -33 90q0 51 34 82t87 31q78 0 121 -53t43 -152q0 -66 -24.5 -127t-70.5 -109t-109.5 -81t-141.5 -41v67z" />
<glyph unicode="-" horiz-adv-x="653" d="M96 424v137h461v-137h-461z" />
<glyph unicode="." horiz-adv-x="569" d="M154 111q0 55 39 93t92 38t91 -38t38 -93q0 -53 -38 -91t-91 -38t-92 36.5t-39 92.5z" />
<glyph unicode="/" horiz-adv-x="985" d="M-57 -190l874 1564h125l-876 -1564h-123z" />
<glyph unicode="0" d="M84 688q0 170 35 302t98.5 223.5t152 138.5t199.5 47t200 -47t152.5 -138.5t98.5 -223.5t35 -302t-35 -302t-98.5 -223t-152.5 -139.5t-200 -48.5t-199.5 48.5t-152 139.5t-98.5 223t-35 302zM276 686q0 -305 76 -458.5t217 -153.5t216 154.5t75 459.5t-75 460t-216 155 t-217 -155t-76 -462z" />
<glyph unicode="1" d="M193 1180v86l444 133h57v-1272l25 -31l221 -10v-86h-686v88l235 12l25 35v1102z" />
<glyph unicode="2" d="M86 0v129q168 137 299 250t221 214t137.5 196.5t47.5 195.5q0 147 -72 228t-201 81q-47 0 -91 -11t-91 -38v-219q-43 -31 -92 -31q-53 0 -84 31t-31 84t32 105.5t90 93.5t137 65.5t175 24.5q98 0 177 -28t134.5 -79t85 -122.5t29.5 -157.5q0 -96 -46 -190.5t-135 -196 t-219 -215t-300 -248.5h616l37 174h92v-336h-948z" />
<glyph unicode="3" d="M84 203q0 45 33 74.5t82 29.5q33 0 61 -10l64 -174q82 -49 174 -49q70 0 129 24.5t102 68.5t66.5 103.5t23.5 126.5q0 123 -77.5 189.5t-225.5 66.5q-25 0 -52.5 -2t-55.5 -6v121q10 0 21 -1t22 -1q156 0 236.5 69.5t80.5 194.5q0 123 -70.5 194.5t-189.5 71.5 q-109 0 -195 -59v-193q-35 -27 -84 -26q-49 0 -79.5 30.5t-30.5 79.5q0 51 31.5 99.5t88 87.5t136.5 62.5t176 23.5q92 0 167 -24.5t127 -69.5t80.5 -108.5t28.5 -141.5q0 -119 -76.5 -204t-228.5 -128q172 -12 265.5 -100t93.5 -230q0 -86 -37 -161.5t-104.5 -132 t-163 -89.5t-214.5 -33q-92 0 -166.5 20.5t-128 53.5t-82 73t-28.5 79z" />
<glyph unicode="4" d="M55 397v133l699 856h118v-856h232v-133h-232v-473h-157v473h-660zM209 530h506v633z" />
<glyph unicode="5" d="M102 174q0 47 33 78t86 31q18 0 49 -7l82 -176q68 -25 137 -24q72 0 131.5 24.5t102.5 67.5t66.5 103.5t23.5 131.5q0 160 -105.5 234t-320.5 74q-113 0 -180 -13v676h733v-160h-606v-409q117 33 219 33t185 -29t141.5 -81t90 -124t31.5 -160q0 -98 -37.5 -183 t-109.5 -147.5t-173 -97t-226 -34.5q-80 0 -144.5 16t-110.5 43t-72 61.5t-26 71.5z" />
<glyph unicode="6" d="M102 567q0 197 55.5 356.5t159 275.5t253 183.5t337.5 79.5v-119h-6q-248 0 -400.5 -141t-199.5 -416q162 125 348 125q92 0 170 -32.5t134.5 -92t89 -141.5t32.5 -180q0 -104 -38 -193.5t-104.5 -155t-157.5 -103.5t-195 -38t-191.5 41t-151 117t-99.5 185.5t-36 248.5z M293 571q0 -246 79 -371.5t224 -125.5q63 0 117.5 27.5t93.5 76.5t60.5 118t21.5 150q0 160 -82 251t-213 91q-172 0 -297 -92q-4 -33 -4 -64.5v-60.5z" />
<glyph unicode="7" d="M145 1032v342h942v-82l-679 -1323v-45h-170l667 1295h-631l-32 -187h-97z" />
<glyph unicode="8" d="M90 362q0 246 281 355q-215 90 -215 315q0 82 30.5 149.5t86 117t133 77t174.5 27.5q92 0 165.5 -25.5t126 -71.5t80 -109.5t27.5 -137.5q0 -102 -60.5 -191.5t-175.5 -148.5q145 -51 219 -141.5t74 -210.5q0 -82 -33.5 -155t-96 -127t-149.5 -86t-194 -32 q-111 0 -199 30t-148 82t-93 124.5t-33 158.5zM248 375q0 -135 87 -218t234 -83q133 0 212 74.5t79 197.5q0 61 -25.5 105.5t-76.5 81t-129 69.5t-180 72q-104 -55 -152.5 -125t-48.5 -174zM326 1063q0 -102 81.5 -175t249.5 -132q80 53 122 126.5t42 155.5q0 123 -67.5 195 t-180.5 72q-53 0 -98 -18.5t-79 -51.5t-52 -77t-18 -95z" />
<glyph unicode="9" d="M88 911q0 106 37 194.5t102.5 153t157.5 100.5t203 36q217 0 339 -138.5t122 -386.5q0 -152 -52.5 -296t-154 -271t-247.5 -232.5t-337 -176.5l-47 94q238 111 387.5 248t216.5 315q-172 -80 -307 -80q-92 0 -170 32t-133 89t-86 138t-31 181zM281 934q0 -172 77.5 -262 t225.5 -90q119 -1 258 71q25 106 24 207q0 217 -77.5 327.5t-219.5 110.5q-127 0 -207.5 -97t-80.5 -267z" />
<glyph unicode=":" horiz-adv-x="653" d="M197 111q0 55 38 93t91 38t92 -38t39 -93q0 -53 -39 -91t-92 -38t-91 36.5t-38 92.5zM197 856q0 55 38 92t91 37t92 -37t39 -92q0 -53 -39 -92t-92 -39t-91 39t-38 92z" />
<glyph unicode=";" horiz-adv-x="653" d="M133 -279q225 43 225 271v22h-133q-33 35 -32 90q0 51 33.5 82t86.5 31q78 0 121 -53t43 -152q0 -66 -24.5 -127t-69.5 -109t-108.5 -81t-141.5 -41v67zM197 856q0 55 38 92t91 37t92 -37t39 -92q0 -53 -39 -92t-92 -39t-91 39t-38 92z" />
<glyph unicode="&#x3c;" horiz-adv-x="1705" d="M264 559v103l1178 483v-127l-1000 -408l1000 -405v-129z" />
<glyph unicode="=" horiz-adv-x="1705" d="M254 360v117h1198v-117h-1198zM254 743v117h1198v-117h-1198z" />
<glyph unicode="&#x3e;" horiz-adv-x="1705" d="M264 76v129l1000 405l-1000 408v127l1178 -483v-103z" />
<glyph unicode="?" horiz-adv-x="995" d="M113 1208q0 78 81.5 134.5t219.5 56.5q98 0 177 -26.5t134 -76t85 -118t30 -150.5q0 -145 -92.5 -250.5t-282.5 -187.5v-240h-109v299q297 111 297 367q0 137 -74.5 213t-211.5 76h-13l-82 -203q-10 -2 -18 -2h-18q-59 0 -91 28.5t-32 79.5zM295 98q0 49 34 83t81 34 q49 0 83.5 -34t34.5 -83q0 -47 -34.5 -81.5t-83.5 -34.5q-47 0 -81 33.5t-34 82.5z" />
<glyph unicode="@" horiz-adv-x="1929" d="M156 504q0 408 297 680q123 111 286.5 172t341.5 61q162 0 293 -47t221.5 -133t139.5 -206t49 -267q0 -227 -115 -404q-78 -119 -184.5 -183t-204.5 -64q-152 0 -152 157v19q-84 -86 -156.5 -129t-144.5 -43q-111 0 -182.5 88t-71.5 239q0 98 30 186.5t85 164.5 q76 102 180.5 157.5t214.5 55.5q96 0 201 -56l37 47h111q-20 -51 -31.5 -105t-24.5 -114l-80 -352q-10 -41 -13 -68.5t-3 -44.5q0 -41 23.5 -64.5t62.5 -23.5q41 0 88 27t92 80q68 80 106 194.5t38 243.5q0 119 -42 221.5t-118 177t-183.5 116.5t-236.5 42q-334 0 -555 -205 q-254 -236 -254 -596q0 -168 52.5 -305t148.5 -233t231 -149.5t299 -53.5q137 0 273.5 37t265.5 113l28 -70q-164 -92 -320.5 -136t-301.5 -44q-174 0 -323.5 58t-268.5 173q-229 219 -229 586zM748 469q0 -113 44 -170t126 -57q106 0 215 135l84 430l-84 115q-10 2 -22.5 3 t-23.5 1q-72 0 -133 -34t-107 -94.5t-72.5 -144.5t-26.5 -184z" />
<glyph unicode="A" horiz-adv-x="1308" d="M-16 0v84l118 25l480 1282h135l491 -1282l123 -25v-84h-465v84l127 10l15 29l-148 391h-483l-146 -391l21 -29l133 -10v-84h-401zM412 608h413l-211 568z" />
<glyph unicode="B" horiz-adv-x="1236" d="M68 0v84l116 10l35 29v1128l-35 29l-116 12v82h522q236 0 352.5 -81t116.5 -251q0 -233 -297 -313q184 -2 282.5 -89t98.5 -239q0 -195 -136.5 -298t-398.5 -103h-540zM403 102q74 -6 138 -6q207 0 304 67.5t97 223.5q0 274 -338 275q-82 0 -201 -13v-547zM403 752 q20 -2 40 -2h38q193 0 284 67.5t91 216.5q0 250 -336 250q-20 0 -49 -2t-68 -4v-526z" />
<glyph unicode="C" horiz-adv-x="1294" d="M88 688q0 160 51 291t144.5 224t224.5 144.5t291 51.5q184 0 405 -70v-315h-114l-31 186l-27 37q-57 27 -113.5 40t-115.5 13q-115 0 -208 -40t-158.5 -115.5t-101.5 -185t-36 -247.5q0 -145 37 -259.5t105.5 -194.5t168 -122t224.5 -42q90 0 178 27l32 32l46 228h114 v-324q-205 -72 -413 -72q-203 0 -349 82q-166 94 -260 261t-94 370z" />
<glyph unicode="D" horiz-adv-x="1419" d="M68 0v84l116 10l35 29v1128l-35 29l-116 12v82h505q182 0 322.5 -47t237 -135t146.5 -215t50 -289q0 -367 -256 -561q-104 -78 -225 -102.5t-275 -24.5h-505zM403 94h162q557 0 557 594q0 301 -137 446.5t-420 145.5h-162v-1186z" />
<glyph unicode="E" horiz-adv-x="1179" d="M68 0v84l116 10l35 29v1128l-35 29l-116 12v82h981v-299h-115l-29 174l-28 31h-474v-518h336l29 29l20 149h97v-451h-97l-20 148l-29 31h-336v-574h549l29 33l35 207h106v-334h-1054z" />
<glyph unicode="F" horiz-adv-x="1099" d="M51 1292v82h983v-319h-112l-31 194l-27 31h-461v-539h336l29 29l20 150h97v-453h-97l-20 149l-29 31h-336v-524l35 -29l146 -10v-84h-516v84l116 10l35 29v1128l-35 29z" />
<glyph unicode="G" horiz-adv-x="1421" d="M88 688q0 162 51 293t146.5 224t231.5 143.5t306 50.5q186 0 394 -60v-325h-115l-31 186l-29 37q-57 27 -114.5 40t-118.5 13q-117 0 -212 -40t-160.5 -115.5t-101.5 -185t-36 -247.5q0 -145 37 -259.5t105.5 -194.5t166 -122t217.5 -42q94 0 209 27v426l-35 28l-145 10 v84h512v-84l-113 -10l-34 -28v-490q-246 -72 -424 -72q-207 0 -353 82q-84 47 -149.5 114t-110.5 147.5t-69.5 175t-24.5 194.5z" />
<glyph unicode="H" horiz-adv-x="1511" d="M68 0v84l116 10l35 29v1128l-35 29l-116 12v82h497v-82l-127 -12l-35 -29v-483h705v483l-35 29l-127 12v82h498v-82l-117 -12l-35 -29v-1128l35 -29l117 -10v-84h-498v84l127 10l35 29v551h-705v-551l35 -29l127 -10v-84h-497z" />
<glyph unicode="I" horiz-adv-x="663" d="M72 0v84l131 10l35 29v1128l-35 29l-131 12v82h518v-82l-131 -12l-35 -29v-1128l35 -29l131 -10v-84h-518z" />
<glyph unicode="J" horiz-adv-x="909" d="M25 25v342h114l49 -258l29 -27q20 -4 37.5 -6t34.5 -2q147 0 206.5 109.5t59.5 332.5v735l-35 29l-137 12v82h518v-82l-127 -12l-35 -29v-727q0 -281 -105.5 -415t-340.5 -134q-127 0 -268 50z" />
<glyph unicode="K" horiz-adv-x="1251" d="M68 0v84l116 10l35 29v1128l-35 29l-116 12v82h497v-82l-127 -12l-35 -29v-555h78l455 555l-12 29l-115 12v82h426v-82l-135 -18l-430 -512l465 -668l149 -10v-84h-338v61l-391 551h-152v-489l35 -29l127 -10v-84h-497z" />
<glyph unicode="L" horiz-adv-x="1064" d="M55 0v84l129 10l35 29v1128l-35 29l-129 12v82h500v-82l-117 -12l-35 -29v-1157h463l29 33l35 246h106v-373h-981z" />
<glyph unicode="M" horiz-adv-x="1773" d="M61 1292v82h435v-55l385 -1028l389 1020v63h438v-82l-129 -12l-25 -29v-1128l25 -29l129 -10v-84h-489v84l135 10l20 29v1155l-485 -1278h-88l-467 1257v-1118l37 -39l125 -16v-84h-433v84l123 16l37 39v1112l-26 29z" />
<glyph unicode="N" horiz-adv-x="1460" d="M53 1292v82h385v-51l699 -1049v963l-37 37l-123 18v82h430v-82l-123 -18l-37 -37v-1237h-135l-780 1163v-1024l37 -39l123 -16v-84h-433v84l125 16l37 39v1112l-37 29z" />
<glyph unicode="O" horiz-adv-x="1497" d="M88 688q0 338 209 541q187 180 453 180q264 0 450 -180q104 -100 157.5 -236.5t53.5 -304.5q0 -227 -104 -405q-86 -147 -231.5 -231.5t-325.5 -84.5q-131 0 -246 45t-205 131q-211 205 -211 545zM301 688q0 -143 33 -257t92 -192.5t141 -120.5t183 -42q98 0 181 42 t141 120.5t91 192.5t33 257t-33 256t-91 191.5t-141 120.5t-181 42q-100 0 -182.5 -40.5t-141.5 -119.5t-92 -193t-33 -257z" />
<glyph unicode="P" horiz-adv-x="1142" d="M51 1292v82h467q147 0 255 -21.5t177.5 -70.5t103 -129t33.5 -197q0 -98 -36.5 -179t-105 -139t-167 -90t-221.5 -32q-29 0 -67.5 3t-86.5 7v-403l35 -29l146 -10v-84h-516v84l116 10l35 29v1128l-35 29zM403 625q45 -4 79 -7.5t57 -3.5q176 0 267 88.5t91 258.5 q0 166 -94 242.5t-293 76.5h-51.5t-55.5 -4v-651z" />
<glyph unicode="Q" horiz-adv-x="1497" d="M80 690q0 340 215 543q188 178 455 178q268 0 456 -178q213 -203 213 -543q0 -143 -40 -265t-113.5 -214t-180 -153t-237.5 -81q10 -243 289 -243h2q41 0 89 5t103 17v-84q-153 -32 -281 -32h-8q-197 0 -293 81.5t-96 255.5q-133 20 -238.5 80t-180 152t-114.5 214 t-40 267zM297 690q0 -141 32.5 -254.5t93 -192.5t144 -121t183.5 -42t184 42t143.5 121t92 192.5t32.5 254.5q0 143 -32.5 256t-92 192t-143.5 120.5t-184 41.5q-102 0 -185.5 -40.5t-143 -119.5t-92 -192.5t-32.5 -257.5z" />
<glyph unicode="R" horiz-adv-x="1323" d="M68 0v84l116 10l35 29v1128l-35 29l-116 12v82h522q250 0 371.5 -89t121.5 -279q0 -266 -331 -340q152 -41 211 -138q20 -35 33.5 -73.5t22.5 -77.5t17 -77t23 -75q16 -45 38.5 -73.5t53.5 -44t73 -21.5t101 -6h18v-78q-92 -18 -159 -18q-139 0 -207 59q-37 33 -58.5 73 t-37 85t-26.5 94t-28 98q-20 63 -46.5 105.5t-64.5 68t-89.5 36.5t-120.5 11q-23 0 -48.5 -1t-54.5 -3v-487l35 -29l117 -10v-84h-487zM403 709q47 -2 75 -2h38q186 0 274.5 64.5t88.5 217.5q0 160 -92.5 225.5t-284.5 65.5h-99v-571z" />
<glyph unicode="S" d="M123 41v360h121l24 -235l27 -35q90 -47 229 -47q150 0 230 68.5t80 177.5q0 63 -23 105t-66 74t-106.5 59.5t-146.5 64.5q-86 37 -151 71.5t-108 76.5t-65.5 96.5t-22.5 128.5q0 86 33 158.5t94.5 124.5t149.5 81t196 29q170 0 349 -58v-317h-107l-31 195l-30 34 q-78 43 -185 43q-131 0 -204.5 -67.5t-73.5 -179.5q0 -51 18.5 -88t54 -68t89 -56.5t125.5 -56.5q78 -33 157.5 -65.5t151.5 -102.5q90 -90 90 -225q0 -90 -37 -166t-105.5 -130t-167 -85t-220.5 -31q-111 0 -204 17.5t-165 48.5z" />
<glyph unicode="T" horiz-adv-x="1222" d="M33 1059v315h1157v-315h-113l-28 190l-29 31h-315v-1157l36 -29l138 -10v-84h-535v84l137 10l37 29v1157h-315l-29 -31l-29 -190h-112z" />
<glyph unicode="U" horiz-adv-x="1421" d="M51 1292v82h502v-82l-127 -12l-37 -29v-741q0 -209 85 -308.5t282 -99.5q195 0 279.5 98.5t84.5 309.5v727l-39 37l-123 18v82h433v-82l-123 -18l-37 -37v-745q0 -113 -15.5 -201t-74.5 -160t-168 -114t-256 -42t-256 42t-168 114t-74.5 159t-15.5 202v759l-35 29z" />
<glyph unicode="V" horiz-adv-x="1265" d="M-47 1292v82h477v-82l-119 -12l-22 -29l385 -1032l370 1032l-20 29l-127 12v82h408v-82l-127 -24l-471 -1278h-142l-481 1278z" />
<glyph unicode="W" horiz-adv-x="1900" d="M0 1292v82h459v-82l-129 -16l-17 -29l265 -946l329 1073h144l335 -1095l248 960l-22 29l-137 24v82h423v-82l-137 -28l-325 -1264h-140l-346 1120l-340 -1120h-137l-344 1264z" />
<glyph unicode="X" horiz-adv-x="1228" d="M-18 0v84l135 27l411 575l-370 580l-135 26v82h493v-82l-123 -12l-16 -25l268 -421l291 413l-18 27l-119 18v82h418v-82l-132 -20l-374 -535l397 -628l139 -25v-84h-518v84l137 14l15 29l-289 465l-324 -459l13 -37l137 -12v-84h-436z" />
<glyph unicode="Y" horiz-adv-x="1200" d="M-27 1292v82h476v-82l-117 -12l-21 -23l314 -563l344 547l-19 29l-125 22v82h418v-82l-125 -26l-426 -682v-461l33 -29l139 -10v-84h-530v84l139 10l33 29v434l-408 715z" />
<glyph unicode="Z" horiz-adv-x="1200" d="M92 0v84l776 1192h-546l-39 -27l-33 -192h-113v317h957v-86l-779 -1188h619l22 27l37 244h111v-371h-1012z" />
<glyph unicode="[" horiz-adv-x="862" d="M285 -270v1720h485v-88h-324v-1546h324v-86h-485z" />
<glyph unicode="\" horiz-adv-x="985" d="M27 1374h125l876 -1564h-125z" />
<glyph unicode="]" horiz-adv-x="862" d="M94 -184h324v1546h-324v88h484v-1722h-484v88z" />
<glyph unicode="^" horiz-adv-x="2048" d="M412 897l522 565h178l520 -565h-92l-518 436l-520 -436h-90z" />
<glyph unicode="_" horiz-adv-x="1024" d="M0 -365h1024v-118h-1024v118z" />
<glyph unicode="`" horiz-adv-x="1024" d="M213 1507h203l198 -389h-102z" />
<glyph unicode="a" horiz-adv-x="1038" d="M86 248q0 80 36 134t109.5 95t186 74t266.5 70v65q0 123 -39 176t-149 53q-76 0 -156 -32v-172h-141q-35 0 -49.5 13t-14.5 50q0 47 29 89t82 74t130 50.5t173 18.5q162 0 233.5 -70t71.5 -225v-594l37 -33l108 -10v-74h-288l-27 119q-98 -66 -180 -99.5t-156 -33.5 q-123 0 -192.5 72.5t-69.5 189.5zM266 264q0 -76 43 -122t121 -46q51 0 113.5 23.5t140.5 68.5v361q-109 -31 -187.5 -57.5t-130 -58.5t-76 -73t-24.5 -96z" />
<glyph unicode="b" horiz-adv-x="1103" d="M16 1370v64l252 73h78v-573q150 72 281 72q90 0 164.5 -34t128 -95.5t83 -147.5t29.5 -190q0 -266 -149.5 -402.5t-444.5 -136.5h-262v1370h-160zM346 94q47 -2 76 -2h37q201 0 295 97.5t94 310.5q0 193 -84 295t-238 102q-39 0 -84 -8t-96 -25v-770z" />
<glyph unicode="c" horiz-adv-x="913" d="M76 494q0 115 35.5 209t99 161.5t153 104.5t197.5 37q147 0 227 -55.5t80 -145.5q0 -49 -30.5 -79t-83.5 -30q-47 0 -92 31v168q-47 29 -99 29q-133 0 -217 -111t-84 -305q0 -190 94.5 -296t253.5 -106q131 0 260 87v-107q-172 -100 -333 -100q-104 0 -189.5 36.5 t-146 103.5t-93 160t-32.5 208z" />
<glyph unicode="d" horiz-adv-x="1157" d="M74 461q0 123 39 223t108.5 173t166.5 112t214 39q82 0 182 -23v385h-157v64l250 73h77v-1390l35 -33l98 -10v-74h-303v106q-78 -63 -153.5 -93.5t-161.5 -30.5q-84 0 -155.5 34.5t-125 97t-84 150.5t-30.5 197zM254 496q0 -180 84 -282.5t223 -102.5q109 0 223 71v703 q-53 16 -98 24.5t-82 8.5q-78 0 -142.5 -30t-110.5 -85t-71.5 -133t-25.5 -174z" />
<glyph unicode="e" horiz-adv-x="1005" d="M76 485q0 117 34.5 212.5t98 164t150.5 106.5t190 38q168 0 268.5 -106.5t100.5 -297.5v-31.5t-3 -31.5h-663v-23q0 -199 94 -308.5t250 -109.5q78 0 155.5 30t166.5 89v-113q-92 -61 -189.5 -91.5t-196.5 -30.5q-102 0 -186 36.5t-143.5 102t-93 159t-33.5 205.5z M262 625h473v32q0 125 -54 190.5t-159 65.5q-49 0 -94 -20.5t-81 -58t-58.5 -91t-26.5 -118.5z" />
<glyph unicode="f" horiz-adv-x="657" d="M59 0v74l109 10l37 33v745h-131v66l131 30v23q0 127 30.5 228.5t86 171t132 106.5t167.5 37q72 0 115.5 -34t43.5 -83q0 -37 -21.5 -64.5t-62.5 -37.5l-186 122q-133 -61 -133 -319v-150h285v-96h-287v-745l35 -33l127 -10v-74h-478z" />
<glyph unicode="g" horiz-adv-x="1071" d="M82 -182q0 98 58.5 166.5t162.5 87.5q-20 47 -20 92q0 78 98 194q-119 27 -186.5 110t-67.5 200q0 74 27.5 136t80 107t126 70t163.5 25q117 0 232 -58h293v-96h-226q57 -88 58 -190q0 -68 -28 -126.5t-79 -101.5t-123.5 -67.5t-161.5 -24.5h-34q-23 -45 -23 -92 q0 -8 1 -20.5t3 -28.5l197 -31q90 -14 155.5 -33.5t108.5 -49.5t63.5 -71t20.5 -98t-31.5 -118.5t-91.5 -110.5q-82 -66 -185.5 -100.5t-219.5 -34.5q-178 0 -274.5 70.5t-96.5 193.5zM246 -139q0 -90 75.5 -151.5t202.5 -61.5q68 0 124.5 17.5t96 48t62 69.5t22.5 82 q0 41 -12 67.5t-37.5 44t-65.5 27.5t-93 21l-199 36q-86 -27 -131 -80t-45 -120zM303 674q0 -117 55.5 -184.5t145.5 -67.5t145.5 67.5t55.5 184.5t-55.5 184.5t-145.5 67.5t-145.5 -66.5t-55.5 -185.5z" />
<glyph unicode="h" horiz-adv-x="1155" d="M39 1370v64l250 73h78v-624q104 57 185 90t146 33q135 0 205 -79t70 -233v-577l37 -33l108 -10v-74h-446v74l96 10l35 33v542q0 113 -46 162t-161 49q-98 0 -229 -67v-686l36 -33l97 -10v-74h-449v74l111 10l35 33v1253h-158z" />
<glyph unicode="i" horiz-adv-x="573" d="M72 0v74l108 10l35 33v741h-143v64l235 73h78v-878l37 -33l110 -10v-74h-460zM197 1331q0 51 34.5 85t83.5 34t84 -35t35 -84t-34.5 -83t-84.5 -34q-49 0 -83.5 34t-34.5 83z" />
<glyph unicode="j" horiz-adv-x="544" d="M-160 -336q0 35 18.5 62.5t57.5 44.5l199 -121q108 35 108 312v5v891h-145v64l237 73h78v-823q0 -80 -2 -147.5t-13 -128t-35 -112.5t-67 -97q-59 -66 -134.5 -99.5t-159.5 -33.5q-68 0 -105 30.5t-37 79.5zM180 1331q0 51 35 85t84 34t84 -35t35 -84t-35 -83t-84 -34 t-84 34t-35 83z" />
<glyph unicode="k" horiz-adv-x="1058" d="M39 1370v64l250 73h78v-985h39l313 350l-14 29l-93 8v76h389v-76l-131 -16l-280 -297l360 -508l131 -10v-78h-319v68l-277 397h-118v-348l36 -33l97 -10v-74h-449v74l111 10l35 33v1253h-158z" />
<glyph unicode="l" horiz-adv-x="577" d="M55 1370v64l250 73h78v-1390l37 -33l117 -10v-74h-480v74l121 10l35 33v1253h-158z" />
<glyph unicode="m" horiz-adv-x="1726" d="M61 0v74l111 10l35 33v741h-146v64l238 73h78v-112q102 59 182 91t146 32q153 -1 225 -138q233 137 352 138q123 0 193.5 -79t70.5 -233v-577l35 -33l109 -10v-74h-447v74l96 10l37 33v542q0 109 -44 160t-140 51q-49 0 -107.5 -17t-123.5 -50v-686l36 -33l97 -10v-74 h-437v74l99 10l35 33v542q0 211 -181 211q-98 0 -233 -67v-686l35 -33l98 -10v-74h-449z" />
<glyph unicode="n" horiz-adv-x="1163" d="M61 0v74l111 10l35 33v741h-146v64l238 73h78v-112q104 57 184 90t146 33q135 0 205.5 -79t70.5 -233v-577l35 -33l110 -10v-74h-448v74l98 10l35 33v542q0 113 -46 162t-161 49q-98 0 -229 -67v-686l35 -33l98 -10v-74h-449z" />
<glyph unicode="o" horiz-adv-x="1103" d="M76 494q0 115 35.5 209t98 161.5t150 104.5t191.5 37t191 -38t150.5 -105.5t99.5 -162t36 -206.5q0 -115 -36 -209.5t-99.5 -162t-151.5 -104t-190 -36.5t-189.5 36.5t-151 104t-99 162t-35.5 209.5zM268 494q0 -98 21.5 -177t58.5 -134.5t89 -84t114 -28.5 q125 0 205 111.5t80 312.5q0 199 -80 311.5t-205 112.5t-204 -112t-79 -312z" />
<glyph unicode="p" horiz-adv-x="1128" d="M47 -373l111 11l35 32v1188h-146v64l238 73h77v-112q162 123 302 123q84 0 156.5 -35t124.5 -97.5t82 -151.5t30 -196q0 -121 -36 -219t-102.5 -167.5t-159.5 -107.5t-206 -38q-78 0 -191 18v-342l35 -32l131 -11v-73h-481v73zM362 119q98 -33 175 -33q76 0 138 29.5 t107 83t70 130.5t25 171q0 178 -82 277.5t-217 99.5q-53 0 -104.5 -17.5t-111.5 -52.5v-688z" />
<glyph unicode="q" horiz-adv-x="1087" d="M76 471q0 123 40 222.5t113.5 169t179 107.5t238.5 38q125 0 293 -35q-4 -59 -6 -96t-2 -54v-1153l37 -35l108 -8v-73h-479v73l129 8l35 35v398q-158 -74 -283 -74q-90 0 -163.5 33.5t-127 96t-83 150.5t-29.5 197zM260 498q0 -193 83 -294.5t228 -101.5q68 0 191 31v764 q-96 23 -156 23q-160 0 -253 -111t-93 -311z" />
<glyph unicode="r" horiz-adv-x="782" d="M61 0v74l109 10l37 33v741h-146v64l238 73h78v-192q53 55 108.5 104t110.5 94q12 4 25.5 4.5t25.5 0.5q61 0 123 -27v-176h-65q-41 49 -105 49q-96 0 -223 -150v-585l35 -33l143 -10v-74h-494z" />
<glyph unicode="s" horiz-adv-x="819" d="M86 25v266h98l25 -174q86 -49 174 -49q90 0 141 47t51 118q0 39 -13 68t-39.5 51.5t-65.5 43t-90 42.5q-131 57 -198 117.5t-67 163.5q0 135 93.5 211t269.5 76q137 0 240 -45v-232h-101l-16 145q-80 43 -152 44q-82 0 -126 -39t-44 -109q0 -66 44 -105.5t130 -80.5 q53 -27 109.5 -52.5t107.5 -66.5q78 -61 78 -176q0 -143 -100 -225t-283 -82q-78 0 -145.5 11t-120.5 32z" />
<glyph unicode="t" horiz-adv-x="684" d="M51 862v64l135 59l88 191h76v-218h312v-96h-312v-540q0 -59 6 -101.5t24.5 -69t52.5 -40t87 -13.5q66 0 142 17v-76q-72 -23 -140.5 -34t-128.5 -11q-127 0 -170 49t-43 158v661h-129z" />
<glyph unicode="u" horiz-adv-x="1165" d="M53 866v64l238 76h78v-678q0 -111 47 -164t151 -53q111 0 238 61v694h-146v64l238 76h78v-889l37 -33l96 -10v-74h-303v115q-92 -66 -174 -100.5t-158 -34.5q-133 0 -203.5 79.5t-70.5 233.5v573h-146z" />
<glyph unicode="v" horiz-adv-x="1011" d="M-10 909v76h444v-76l-108 -8l-25 -33l240 -669l262 669l-17 33l-110 8v76h362v-76l-120 -16l-359 -893h-115l-329 897z" />
<glyph unicode="w" horiz-adv-x="1579" d="M-4 909v76h444v-76l-108 -8l-25 -33l187 -665l274 782h125l242 -782l208 665l-16 33l-110 8v76h362v-76l-115 -16l-293 -893h-127l-247 776l-277 -776h-127l-272 897z" />
<glyph unicode="x" horiz-adv-x="1030" d="M25 0v76l116 16l295 395l-274 400l-125 22v76h440v-76l-94 -12l-10 -20l172 -269l186 262l-16 27l-99 12v76h369v-76l-115 -20l-270 -359l301 -438l123 -16v-76h-436v76l86 14l10 16l-190 306l-209 -297l10 -25l117 -14v-76h-387z" />
<glyph unicode="y" horiz-adv-x="1013" d="M-2 909v76h444v-76l-108 -8l-25 -33l246 -637l256 637l-16 33l-111 8v76h365v-76l-119 -16l-410 -995q-72 -174 -149.5 -259t-177.5 -85q-66 0 -104 31.5t-38 82.5q0 61 53 111l197 -78q41 45 84 121t82 186l-344 889z" />
<glyph unicode="z" horiz-adv-x="958" d="M92 0v102l547 789h-379l-29 -33l-22 -158h-96v285h739v-78l-567 -813h440l31 33l22 174h105v-301h-791z" />
<glyph unicode="{" horiz-adv-x="995" d="M133 549v90q14 -2 27.5 -2h25.5q137 0 191.5 60.5t54.5 203.5v209q0 176 93 253t304 77h27v-76q-78 -2 -128 -15.5t-78.5 -42t-41 -74.5t-12.5 -114v-166q0 -80 -13.5 -140t-44 -103t-83 -71t-127.5 -44q145 -33 206.5 -113t61.5 -233v-170q0 -78 8 -129t35 -83t79 -45.5 t138 -15.5v-79h-51q-109 0 -180.5 18t-114.5 62t-60.5 116t-17.5 178v174q0 152 -55 214.5t-197 62.5q-10 0 -22.5 -1t-24.5 -1z" />
<glyph unicode="|" horiz-adv-x="1024" d="M449 -483v2048h126v-2048h-126z" />
<glyph unicode="}" horiz-adv-x="995" d="M131 -195q86 2 138.5 15.5t79 45.5t34.5 83t8 129v170q0 154 61.5 233.5t206.5 112.5q-78 16 -129 44t-81.5 71t-44 103t-13.5 140v166q0 68 -12 114t-41 74.5t-80 42t-127 15.5v76h27q211 0 304 -77t93 -253v-209q0 -72 12.5 -122t41 -81.5t75.5 -46t117 -14.5h25.5 t27.5 2v-90q-12 0 -24.5 1t-22.5 1q-141 0 -196.5 -62.5t-55.5 -214.5v-174q0 -106 -17.5 -178t-60.5 -116t-114.5 -62t-182.5 -18h-49v79z" />
<glyph unicode="~" horiz-adv-x="1705" d="M178 461v133q211 145 387 145q80 0 150.5 -20.5t140.5 -44.5q74 -27 142.5 -49.5t146.5 -22.5q92 0 184 40t201 116v-131q-201 -143 -387 -144q-86 0 -191 35q-106 35 -199.5 69t-189.5 34q-92 0 -183 -41t-202 -119z" />
<glyph unicode="&#xa1;" horiz-adv-x="692" d="M229 1282q0 47 34 82t83 35q47 0 82 -34t35 -83t-35 -83t-82 -34q-49 0 -83 34t-34 83zM233 129q0 51 7 119l57 782h98l58 -782q6 -86 6 -119q0 -147 -113 -147t-113 147z" />
<glyph unicode="&#xa2;" d="M131 504q0 211 113.5 349t314.5 171v207h94v-201h29q127 0 268 -47v-301h-92l-33 213q-68 41 -157 41h-15v-842q96 0 172 39l33 223h92v-311q-59 -23 -126.5 -33t-145.5 -10h-25v-203h-94v207q-98 12 -178 54t-135.5 106.5t-85 150.5t-29.5 187zM307 506 q0 -160 67.5 -267.5t184.5 -140.5v832q-121 -35 -186.5 -142.5t-65.5 -281.5z" />
<glyph unicode="&#xa3;" d="M76 0v117q72 20 116 54t68.5 86t33.5 125t9 171v72h-147v96h145q-2 33 -3 64.5t-1 60.5q0 121 17.5 212t62.5 159q53 82 145 132t197 50q147 0 234 -61.5t87 -147.5q0 -47 -33.5 -79t-86.5 -32q-31 0 -66 8v193q-55 18 -106 18q-78 0 -131.5 -27.5t-86 -86t-46 -147.5 t-13.5 -212v-50t2 -54h385v-96h-385v-27q0 -319 -205 -446l4 -7q59 6 93 8.5t47 2.5h624v-156h-960z" />
<glyph unicode="&#xa4;" horiz-adv-x="1241" d="M86 424l207 205q-88 117 -88 256t88 256l-207 205l72 73l207 -207q59 45 121.5 68t134.5 23q141 0 260 -91l204 207l72 -73l-205 -205q86 -115 86 -256q0 -143 -86 -256l205 -205l-72 -74l-204 207q-113 -88 -260 -88q-143 0 -256 88l-207 -207zM309 887q0 -66 24.5 -123 t66.5 -100t99.5 -68t123.5 -25t123 25t99 68t66.5 100t24.5 123q0 63 -24.5 120.5t-66.5 100.5t-99 67.5t-123 24.5t-123.5 -24.5t-99.5 -67.5t-66.5 -100.5t-24.5 -120.5z" />
<glyph unicode="&#xa5;" d="M-12 1292v82h434v-82l-107 -12l-18 -23l287 -561l313 545l-18 29l-113 22v82h379v-82l-113 -26l-225 -394h295v-86h-350l-121 -213h471v-86h-463v-364l35 -29l147 -10v-84h-528v84l141 10l39 29v364h-444v86h442l-109 213h-333v86h278l-203 400z" />
<glyph unicode="&#xa6;" horiz-adv-x="1024" d="M449 -350v758h126v-758h-126zM449 674v758h126v-758h-126z" />
<glyph unicode="&#xa7;" horiz-adv-x="1024" d="M129 588q0 111 59.5 188.5t182.5 130.5q-106 53 -156.5 115.5t-50.5 153.5q0 141 100.5 217.5t292.5 76.5q133 0 274 -47v-264h-92l-20 164q-111 61 -197 61q-92 0 -149.5 -50t-57.5 -124q0 -45 21.5 -75.5t60.5 -57t94.5 -52.5t124.5 -58q141 -70 210 -151t69 -189 q0 -104 -65.5 -194.5t-184.5 -137.5q213 -96 213 -272q0 -66 -26.5 -123.5t-75.5 -98.5t-118 -64.5t-155 -23.5q-143 0 -301 64l-4 264h101l26 -184q98 -53 197 -54q96 0 153.5 49.5t57.5 120.5q0 51 -24.5 87t-70 67t-110 61.5t-143.5 67.5q-117 55 -176.5 141t-59.5 191z M279 633q0 -102 71.5 -169t220.5 -132q172 113 172 250q1 180 -286 286q-178 -80 -178 -235z" />
<glyph unicode="&#xa8;" horiz-adv-x="1024" d="M217 1311q0 45 31 74.5t74 29.5t72.5 -29.5t29.5 -74.5q0 -43 -29.5 -73t-72.5 -30t-74 30t-31 73zM598 1311q0 45 30.5 74.5t73.5 29.5t73 -29.5t30 -74.5q0 -43 -30 -73t-73 -30t-73.5 30t-30.5 73z" />
<glyph unicode="&#xa9;" horiz-adv-x="1843" d="M137 696q0 158 58.5 299.5t171.5 255.5q111 113 256 174.5t305 61.5q156 0 303 -62.5t258 -175.5q109 -111 167 -256t58 -305q0 -154 -62.5 -298t-178.5 -261q-111 -111 -252.5 -167t-305.5 -56q-152 0 -293 59.5t-253 171.5q-115 115 -173.5 257.5t-58.5 301.5zM225 696 q0 -291 207 -497q104 -102 228 -154.5t266 -52.5q141 0 267 52t224 155q100 104 154.5 231t54.5 266q0 141 -54 271.5t-153 228.5q-98 98 -227 151.5t-264 53.5q-141 0 -269.5 -53.5t-226.5 -153.5q-100 -104 -153.5 -230t-53.5 -268zM453 692q0 106 35.5 195.5t102 154 t160 99.5t207.5 35q66 0 138.5 -11.5t150.5 -36.5v-245h-88l-31 153q-76 45 -159 45q-74 0 -135.5 -28.5t-106.5 -79.5t-70.5 -123t-25.5 -156t25.5 -155.5t69.5 -124t103.5 -82t128.5 -29.5q37 0 80 11.5t95 29.5l26 172h88v-256q-72 -25 -147.5 -38t-153.5 -13 q-109 0 -200 36t-156.5 99.5t-101 152.5t-35.5 195z" />
<glyph unicode="&#xaa;" horiz-adv-x="778" d="M66 858q0 55 26.5 93t81.5 67t140 51.5t200 48.5v45q0 86 -28.5 124t-112.5 38q-53 0 -117 -22v-121h-106q-27 0 -37.5 9t-10.5 36q0 66 82 114t228 48q123 0 176 -48.5t53 -158.5v-416l27 -23l82 -8v-51h-218l-18 84q-145 -94 -252 -94q-92 0 -144 51t-52 133zM201 868 q0 -53 31.5 -84.5t91.5 -31.5q70 0 190 63v254q-82 -23 -141.5 -41t-97 -40.5t-56 -51.5t-18.5 -68z" />
<glyph unicode="&#xab;" horiz-adv-x="905" d="M80 410v163l336 273v-135l-240 -219l240 -222v-133zM485 410v163l334 273v-135l-239 -219l239 -222v-133z" />
<glyph unicode="&#xac;" horiz-adv-x="1705" d="M254 741v117h1198v-502h-115v385h-1083z" />
<glyph unicode="&#xad;" horiz-adv-x="653" d="M96 424v137h461v-137h-461z" />
<glyph unicode="&#xae;" horiz-adv-x="1843" d="M137 696q0 158 58.5 299.5t171.5 255.5q111 113 256 174.5t305 61.5q156 0 303 -62.5t258 -175.5q109 -111 167 -256t58 -305q0 -154 -62.5 -298t-178.5 -261q-111 -111 -252.5 -167t-305.5 -56q-152 0 -293 59.5t-253 171.5q-115 115 -173.5 257.5t-58.5 301.5zM227 696 q0 -293 205 -497q104 -102 228 -154.5t266 -52.5q141 0 267 52t224 155q100 104 153.5 231t53.5 266q0 141 -53 271.5t-152 228.5q-98 98 -227 152.5t-264 54.5q-141 0 -269.5 -54.5t-226.5 -154.5q-100 -104 -152.5 -230t-52.5 -268zM520 1077v70h432q166 0 249 -53.5 t83 -169.5q0 -86 -62.5 -145.5t-185.5 -86.5q94 -14 148 -80q35 -43 46 -89t27 -83q12 -33 29 -54t39.5 -34.5t54 -18.5t76.5 -5v-74q-41 -8 -72.5 -12t-54.5 -4q-94 0 -162 59q-25 20 -40 48t-26 58.5t-21.5 63.5t-24.5 63q-31 70 -75 93.5t-128 23.5h-28.5t-30.5 -2v-307 l129 -14v-76h-392v74l109 14v721zM793 727q14 -2 26 -2h25q262 0 262 170q0 86 -65.5 131t-194.5 45h-25.5t-27.5 -2v-342z" />
<glyph unicode="&#xaf;" horiz-adv-x="1024" d="M209 1245v123h616v-123h-616z" />
<glyph unicode="&#xb0;" horiz-adv-x="673" d="M55 1171q0 59 22.5 111.5t60.5 90.5t89.5 59.5t110.5 21.5q57 0 109.5 -22.5t90 -60.5t60.5 -90t23 -110q0 -57 -23 -108t-60.5 -90t-90 -61.5t-111.5 -22.5t-110.5 21.5t-89.5 60.5t-59.5 90t-21.5 110zM135 1171q0 -43 16.5 -79.5t44 -64.5t64.5 -43t78 -15q43 0 80 16 t63.5 44t42 64.5t15.5 77.5q0 84 -57.5 142.5t-143.5 58.5q-84 0 -143.5 -57.5t-59.5 -143.5z" />
<glyph unicode="&#xb1;" horiz-adv-x="1705" d="M254 41v117h1198v-117h-1198zM254 719v117h541v344h118v-344h539v-117h-539v-344h-118v344h-541z" />
<glyph unicode="&#xb2;" horiz-adv-x="751" d="M57 549v78q111 82 197 149.5t146.5 129t91 117.5t30.5 118q0 88 -47 136t-133 48q-63 0 -121 -29v-131q-29 -18 -59 -18q-37 0 -56.5 18.5t-19.5 48.5q0 33 21.5 64t59.5 55.5t90 40t116 15.5q131 0 205.5 -64.5t74.5 -169.5q0 -115 -119.5 -231.5t-343.5 -278.5h408 l25 105h59v-201h-625z" />
<glyph unicode="&#xb3;" horiz-adv-x="751" d="M55 670q0 29 21.5 46t54.5 17q18 0 41 -6l41 -104q51 -29 115 -29q92 0 152.5 55.5t60.5 136.5q0 74 -51.5 114t-149.5 40h-33.5t-38.5 -4v72h29q104 0 157.5 42t53.5 115q0 74 -47 117t-125 43q-74 0 -129 -35v-116q-23 -14 -55 -15q-33 0 -53.5 18.5t-20.5 47.5 q0 31 20.5 60.5t58.5 52t91 37t117 14.5q123 0 194.5 -56.5t71.5 -150.5q0 -146 -203 -199q113 -8 175.5 -60.5t62.5 -138.5q0 -51 -25 -97t-69 -80t-107.5 -53t-140.5 -19q-61 0 -110.5 12t-84.5 31.5t-54.5 44t-19.5 47.5z" />
<glyph unicode="&#xb4;" horiz-adv-x="1024" d="M434 1118l199 389h203l-299 -389h-103z" />
<glyph unicode="&#xb5;" horiz-adv-x="1120" d="M-80 -330q0 31 15.5 90.5t39 146.5t54 202.5t61.5 261.5l109 514h147l-104 -492q-12 -61 -13 -112q0 -84 42 -129.5t118 -45.5q199 0 258 269l111 510h149l-114 -531q-10 -45 -15.5 -77.5t-5.5 -59.5q0 -49 25.5 -78.5t66.5 -29.5q72 0 117 69q18 27 27.5 54.5t16.5 49 t15.5 36t20.5 14.5q27 0 26 -37q0 -18 -9 -58t-31 -92q-74 -164 -230 -163q-66 0 -107.5 49t-41.5 141v23q-92 -217 -281 -218q-194 1 -223 216q-31 -154 -43 -267.5t-24.5 -190.5t-33 -115t-63.5 -38q-37 0 -58.5 23.5t-21.5 64.5z" />
<glyph unicode="&#xb6;" horiz-adv-x="991" d="M53 971q0 215 118 309t366 94h401v-74l-127 -20v-1442h-100v1452h-156v-715h-37q-465 0 -465 396z" />
<glyph unicode="&#xb7;" horiz-adv-x="569" d="M154 686q0 55 39 93t92 38t91 -38t38 -93q0 -53 -38 -91t-91 -38t-92 38t-39 91z" />
<glyph unicode="&#xb8;" horiz-adv-x="1024" d="M369 -362q61 -16 120 -17q66 0 102 23.5t36 64.5q0 76 -103 76q-10 0 -21 -1t-22 -3v219h76v-125q14 2 24.5 2h16.5q72 0 113 -39t41 -108q0 -86 -63.5 -136.5t-178.5 -50.5q-66 0 -141 21v74z" />
<glyph unicode="&#xb9;" horiz-adv-x="751" d="M129 1257v52l293 80h37v-764l16 -19l146 -6v-51h-453v53l156 6l16 23v659z" />
<glyph unicode="&#xba;" horiz-adv-x="827" d="M57 1030q0 80 27 145.5t74 113.5t112.5 74t143.5 26t143.5 -27t113.5 -74t74.5 -112.5t26.5 -145.5t-27.5 -145.5t-74.5 -113.5t-114 -73.5t-142 -25.5q-78 0 -143.5 25.5t-112.5 73.5t-74 113.5t-27 145.5zM201 1030q0 -141 60.5 -219t152.5 -78q94 0 153.5 78t59.5 219 q0 139 -59.5 218t-153.5 79t-153.5 -78t-59.5 -219z" />
<glyph unicode="&#xbb;" horiz-adv-x="905" d="M94 137v133l240 222l-240 219v135l334 -273v-163zM498 137v133l239 222l-239 219v135l336 -273v-163z" />
<glyph unicode="&#xbc;" horiz-adv-x="1775" d="M121 1266v47l278 73h37v-710l17 -19l139 -4v-49h-432v49l147 6l17 21v616zM387 0l875 1374h124l-874 -1374h-125zM1094 223v74l440 479h74v-479h147v-74h-147v-266h-99v266h-415zM1190 297h319v354z" />
<glyph unicode="&#xbd;" horiz-adv-x="1775" d="M121 1266v47l278 73h37v-710l17 -19l139 -4v-49h-432v49l147 6l17 21v616zM387 0l875 1374h124l-874 -1374h-125zM1112 0v72q106 76 188 139t139.5 120.5t87 111t29.5 108.5q0 84 -45 129t-127 45q-59 0 -114 -29v-121q-29 -18 -58 -18q-72 0 -71 66q0 31 20.5 59.5 t56 51t86 35.5t109.5 13q127 0 197.5 -58t70.5 -157q0 -109 -113.5 -217t-326.5 -260h387l25 98h57v-188h-598z" />
<glyph unicode="&#xbe;" horiz-adv-x="1777" d="M53 717q0 27 20.5 43t51.5 16q16 0 39 -6l41 -96q53 -29 108 -29q88 0 145.5 52.5t57.5 129.5q0 68 -49 106t-141 38q-33 0 -70 -6v67h29q98 0 148 39t50 109q0 68 -44 108.5t-120 40.5q-66 0 -122 -33v-108q-20 -14 -52 -14q-33 0 -51 16t-18 45t19.5 55.5t55 48 t86 34.5t109.5 13q117 0 186.5 -52t69.5 -140q1 -137 -192 -184q109 -8 167 -57.5t58 -127.5q0 -49 -22.5 -91t-65.5 -73.5t-103.5 -50t-134.5 -18.5q-57 0 -104 11t-81 29.5t-52.5 40t-18.5 44.5zM387 0l875 1374h124l-874 -1374h-125zM1094 223v74l440 479h74v-479h147 v-74h-147v-266h-99v266h-415zM1190 297h319v354z" />
<glyph unicode="&#xbf;" horiz-adv-x="995" d="M123 352q0 145 92 251t283 188v239h106v-299q-295 -111 -295 -366q0 -137 74 -213t211 -76h14l80 203q10 2 18.5 2h18.5q59 0 92 -29t33 -80q0 -78 -82 -134t-219 -56q-98 0 -177 26.5t-134.5 75.5t-85 116.5t-29.5 151.5zM434 1282q0 47 34 82t83 35q47 0 82 -34t35 -83 t-35 -83t-82 -34q-49 0 -83 34t-34 83z" />
<glyph unicode="&#xc0;" horiz-adv-x="1308" d="M-16 0v84l118 25l480 1282h135l491 -1282l123 -25v-84h-465v84l127 10l15 29l-148 391h-483l-146 -391l21 -29l133 -10v-84h-401zM356 1910h203l198 -389h-102zM412 608h413l-211 568z" />
<glyph unicode="&#xc1;" horiz-adv-x="1308" d="M-16 0v84l118 25l480 1282h135l491 -1282l123 -25v-84h-465v84l127 10l15 29l-148 391h-483l-146 -391l21 -29l133 -10v-84h-401zM412 608h413l-211 568zM577 1521l199 389h203l-299 -389h-103z" />
<glyph unicode="&#xc2;" horiz-adv-x="1308" d="M-16 0v84l118 25l480 1282h135l491 -1282l123 -25v-84h-465v84l127 10l15 29l-148 391h-483l-146 -391l21 -29l133 -10v-84h-401zM364 1521l225 389h132l225 -389h-111l-180 289l-178 -289h-113zM412 608h413l-211 568z" />
<glyph unicode="&#xc3;" horiz-adv-x="1308" d="M-16 0v84l118 25l480 1282h135l491 -1282l123 -25v-84h-465v84l127 10l15 29l-148 391h-483l-146 -391l21 -29l133 -10v-84h-401zM342 1577v20q0 113 45 169t129 56q43 0 83 -16.5t75.5 -36.5t67.5 -36.5t56 -16.5q84 0 84 127v10h84q0 -8 1 -15.5t1 -15.5 q0 -100 -50 -158.5t-122 -58.5q-47 0 -90 16.5t-81 37t-69.5 37t-54.5 16.5q-33 0 -53 -29t-20 -82q0 -6 1 -12t1 -12h-88zM412 608h413l-211 568z" />
<glyph unicode="&#xc4;" horiz-adv-x="1308" d="M-16 0v84l118 25l480 1282h135l491 -1282l123 -25v-84h-465v84l127 10l15 29l-148 391h-483l-146 -391l21 -29l133 -10v-84h-401zM360 1714q0 45 31 74.5t74 29.5t72.5 -29.5t29.5 -74.5q0 -43 -29.5 -73t-72.5 -30t-74 30t-31 73zM412 608h413l-211 568zM741 1714 q0 45 30.5 74.5t73.5 29.5t73 -29.5t30 -74.5q0 -43 -30 -73t-73 -30t-73.5 30t-30.5 73z" />
<glyph unicode="&#xc5;" horiz-adv-x="1308" d="M-16 0v84l118 25l480 1282h135l491 -1282l123 -25v-84h-465v84l127 10l15 29l-148 391h-483l-146 -391l21 -29l133 -10v-84h-401zM387 1733q0 51 18.5 94t50 75.5t76 51t95.5 18.5t95 -18.5t76.5 -51t51 -75.5t18.5 -94t-18.5 -95.5t-51 -77t-76.5 -51t-95 -18.5 t-95.5 18.5t-76 51t-50 76.5t-18.5 96zM412 608h413l-211 568zM479 1731q0 -61 44 -104.5t106 -43.5q63 0 105 43t42 105q0 63 -42 106t-105 43q-61 0 -105.5 -43t-44.5 -106z" />
<glyph unicode="&#xc6;" horiz-adv-x="1773" d="M-115 0v84l117 18l715 1149l-19 29l-118 12v82h1060v-299h-112l-29 174l-29 31h-421v-518h282l31 29l20 149h95v-451h-95l-20 148l-31 31h-282v-574h495l31 33l33 207h106v-334h-993v84l117 10l34 29v391h-477l-245 -391l10 -29l131 -10v-84h-406zM449 610h423v674z" />
<glyph unicode="&#xc7;" horiz-adv-x="1294" d="M88 688q0 160 51 291t144.5 224t224.5 144.5t291 51.5q184 0 405 -70v-315h-114l-31 186l-27 37q-57 27 -113.5 40t-115.5 13q-115 0 -208 -40t-158.5 -115.5t-101.5 -185t-36 -247.5q0 -145 37 -259.5t105.5 -194.5t168 -122t224.5 -42q90 0 178 27l32 32l46 228h114 v-324q-205 -72 -413 -72q-203 0 -349 82q-166 94 -260 261t-94 370zM613 -362q61 -16 120 -17q66 0 102 23.5t36 64.5q0 76 -103 76q-10 0 -21 -1t-22 -3v219h76v-125q14 2 24.5 2h16.5q72 0 113 -39t41 -108q0 -86 -63.5 -136.5t-178.5 -50.5q-66 0 -141 21v74z" />
<glyph unicode="&#xc8;" horiz-adv-x="1179" d="M68 0v84l116 10l35 29v1128l-35 29l-116 12v82h981v-299h-115l-29 174l-28 31h-474v-518h336l29 29l20 149h97v-451h-97l-20 148l-29 31h-336v-574h549l29 33l35 207h106v-334h-1054zM291 1910h203l198 -389h-102z" />
<glyph unicode="&#xc9;" horiz-adv-x="1179" d="M68 0v84l116 10l35 29v1128l-35 29l-116 12v82h981v-299h-115l-29 174l-28 31h-474v-518h336l29 29l20 149h97v-451h-97l-20 148l-29 31h-336v-574h549l29 33l35 207h106v-334h-1054zM512 1521l199 389h203l-299 -389h-103z" />
<glyph unicode="&#xca;" horiz-adv-x="1179" d="M68 0v84l116 10l35 29v1128l-35 29l-116 12v82h981v-299h-115l-29 174l-28 31h-474v-518h336l29 29l20 149h97v-451h-97l-20 148l-29 31h-336v-574h549l29 33l35 207h106v-334h-1054zM299 1521l225 389h132l225 -389h-111l-180 289l-178 -289h-113z" />
<glyph unicode="&#xcb;" horiz-adv-x="1179" d="M68 0v84l116 10l35 29v1128l-35 29l-116 12v82h981v-299h-115l-29 174l-28 31h-474v-518h336l29 29l20 149h97v-451h-97l-20 148l-29 31h-336v-574h549l29 33l35 207h106v-334h-1054zM295 1714q0 45 31 74.5t74 29.5t72.5 -29.5t29.5 -74.5q0 -43 -29.5 -73t-72.5 -30 t-74 30t-31 73zM676 1714q0 45 30.5 74.5t73.5 29.5t73 -29.5t30 -74.5q0 -43 -30 -73t-73 -30t-73.5 30t-30.5 73z" />
<glyph unicode="&#xcc;" horiz-adv-x="663" d="M35 1910h203l198 -389h-102zM72 0v84l131 10l35 29v1128l-35 29l-131 12v82h518v-82l-131 -12l-35 -29v-1128l35 -29l131 -10v-84h-518z" />
<glyph unicode="&#xcd;" horiz-adv-x="663" d="M72 0v84l131 10l35 29v1128l-35 29l-131 12v82h518v-82l-131 -12l-35 -29v-1128l35 -29l131 -10v-84h-518zM256 1521l199 389h203l-299 -389h-103z" />
<glyph unicode="&#xce;" horiz-adv-x="663" d="M43 1521l225 389h132l225 -389h-111l-180 289l-178 -289h-113zM72 0v84l131 10l35 29v1128l-35 29l-131 12v82h518v-82l-131 -12l-35 -29v-1128l35 -29l131 -10v-84h-518z" />
<glyph unicode="&#xcf;" horiz-adv-x="663" d="M39 1714q0 45 31 74.5t74 29.5t72.5 -29.5t29.5 -74.5q0 -43 -29.5 -73t-72.5 -30t-74 30t-31 73zM72 0v84l131 10l35 29v1128l-35 29l-131 12v82h518v-82l-131 -12l-35 -29v-1128l35 -29l131 -10v-84h-518zM420 1714q0 45 30.5 74.5t73.5 29.5t73 -29.5t30 -74.5 q0 -43 -30 -73t-73 -30t-73.5 30t-30.5 73z" />
<glyph unicode="&#xd0;" horiz-adv-x="1419" d="M31 670v98h188v483l-35 29l-116 12v82h505q182 0 322.5 -47t237 -135t146.5 -215t50 -289q0 -367 -256 -561q-104 -78 -225 -102.5t-275 -24.5h-505v84l116 10l35 29v547h-188zM403 94h162q557 0 557 594q0 301 -137 446.5t-420 145.5h-162v-512h340v-98h-340v-576z" />
<glyph unicode="&#xd1;" horiz-adv-x="1460" d="M53 1292v82h385v-51l699 -1049v963l-37 37l-123 18v82h430v-82l-123 -18l-37 -37v-1237h-135l-780 1163v-1024l37 -39l123 -16v-84h-433v84l125 16l37 39v1112l-37 29zM418 1577v20q0 113 45 169t129 56q43 0 83 -16.5t75.5 -36.5t67.5 -36.5t56 -16.5q84 0 84 127v10h84 q0 -8 1 -15.5t1 -15.5q0 -100 -50 -158.5t-122 -58.5q-47 0 -90 16.5t-81 37t-69.5 37t-54.5 16.5q-33 0 -53 -29t-20 -82q0 -6 1 -12t1 -12h-88z" />
<glyph unicode="&#xd2;" horiz-adv-x="1497" d="M88 688q0 338 209 541q187 180 453 180q264 0 450 -180q104 -100 157.5 -236.5t53.5 -304.5q0 -227 -104 -405q-86 -147 -231.5 -231.5t-325.5 -84.5q-131 0 -246 45t-205 131q-211 205 -211 545zM301 688q0 -143 33 -257t92 -192.5t141 -120.5t183 -42q98 0 181 42 t141 120.5t91 192.5t33 257t-33 256t-91 191.5t-141 120.5t-181 42q-100 0 -182.5 -40.5t-141.5 -119.5t-92 -193t-33 -257zM451 1910h203l198 -389h-102z" />
<glyph unicode="&#xd3;" horiz-adv-x="1497" d="M88 688q0 338 209 541q187 180 453 180q264 0 450 -180q104 -100 157.5 -236.5t53.5 -304.5q0 -227 -104 -405q-86 -147 -231.5 -231.5t-325.5 -84.5q-131 0 -246 45t-205 131q-211 205 -211 545zM301 688q0 -143 33 -257t92 -192.5t141 -120.5t183 -42q98 0 181 42 t141 120.5t91 192.5t33 257t-33 256t-91 191.5t-141 120.5t-181 42q-100 0 -182.5 -40.5t-141.5 -119.5t-92 -193t-33 -257zM672 1521l199 389h203l-299 -389h-103z" />
<glyph unicode="&#xd4;" horiz-adv-x="1497" d="M88 688q0 338 209 541q187 180 453 180q264 0 450 -180q104 -100 157.5 -236.5t53.5 -304.5q0 -227 -104 -405q-86 -147 -231.5 -231.5t-325.5 -84.5q-131 0 -246 45t-205 131q-211 205 -211 545zM301 688q0 -143 33 -257t92 -192.5t141 -120.5t183 -42q98 0 181 42 t141 120.5t91 192.5t33 257t-33 256t-91 191.5t-141 120.5t-181 42q-100 0 -182.5 -40.5t-141.5 -119.5t-92 -193t-33 -257zM459 1521l225 389h132l225 -389h-111l-180 289l-178 -289h-113z" />
<glyph unicode="&#xd5;" horiz-adv-x="1497" d="M88 688q0 338 209 541q187 180 453 180q264 0 450 -180q104 -100 157.5 -236.5t53.5 -304.5q0 -227 -104 -405q-86 -147 -231.5 -231.5t-325.5 -84.5q-131 0 -246 45t-205 131q-211 205 -211 545zM301 688q0 -143 33 -257t92 -192.5t141 -120.5t183 -42q98 0 181 42 t141 120.5t91 192.5t33 257t-33 256t-91 191.5t-141 120.5t-181 42q-100 0 -182.5 -40.5t-141.5 -119.5t-92 -193t-33 -257zM437 1577v20q0 113 45 169t129 56q43 0 83 -16.5t75.5 -36.5t67.5 -36.5t56 -16.5q84 0 84 127v10h84q0 -8 1 -15.5t1 -15.5q0 -100 -50 -158.5 t-122 -58.5q-47 0 -90 16.5t-81 37t-69.5 37t-54.5 16.5q-33 0 -53 -29t-20 -82q0 -6 1 -12t1 -12h-88z" />
<glyph unicode="&#xd6;" horiz-adv-x="1497" d="M88 688q0 338 209 541q187 180 453 180q264 0 450 -180q104 -100 157.5 -236.5t53.5 -304.5q0 -227 -104 -405q-86 -147 -231.5 -231.5t-325.5 -84.5q-131 0 -246 45t-205 131q-211 205 -211 545zM301 688q0 -143 33 -257t92 -192.5t141 -120.5t183 -42q98 0 181 42 t141 120.5t91 192.5t33 257t-33 256t-91 191.5t-141 120.5t-181 42q-100 0 -182.5 -40.5t-141.5 -119.5t-92 -193t-33 -257zM455 1714q0 45 31 74.5t74 29.5t72.5 -29.5t29.5 -74.5q0 -43 -29.5 -73t-72.5 -30t-74 30t-31 73zM836 1714q0 45 30.5 74.5t73.5 29.5t73 -29.5 t30 -74.5q0 -43 -30 -73t-73 -30t-73.5 30t-30.5 73z" />
<glyph unicode="&#xd7;" horiz-adv-x="1705" d="M301 135l475 475l-475 477l80 82l477 -477l475 477l82 -82l-475 -477l475 -475l-82 -82l-475 475l-477 -475z" />
<glyph unicode="&#xd8;" horiz-adv-x="1497" d="M88 688q0 168 53.5 305t157.5 238q90 88 204.5 133t246.5 45q156 0 315 -74l119 197l84 -49l-125 -205q131 -104 199.5 -248.5t68.5 -341.5q0 -168 -54 -306t-159 -239q-90 -86 -203.5 -131t-244.5 -45q-176 0 -340 90l-127 -215l-80 56l129 217q-244 209 -244 573z M293 688q0 -133 28.5 -240.5t90.5 -197.5l583 969q-106 80 -245 79q-102 0 -186.5 -42t-144 -119.5t-93 -191.5t-33.5 -257zM481 172q119 -94 269 -94q102 0 186 42t144.5 120.5t93 191.5t32.5 256q0 139 -32.5 253t-104.5 210z" />
<glyph unicode="&#xd9;" horiz-adv-x="1421" d="M51 1292v82h502v-82l-127 -12l-37 -29v-741q0 -209 85 -308.5t282 -99.5q195 0 279.5 98.5t84.5 309.5v727l-39 37l-123 18v82h433v-82l-123 -18l-37 -37v-745q0 -113 -15.5 -201t-74.5 -160t-168 -114t-256 -42t-256 42t-168 114t-74.5 159t-15.5 202v759l-35 29z M412 1910h203l198 -389h-102z" />
<glyph unicode="&#xda;" horiz-adv-x="1421" d="M51 1292v82h502v-82l-127 -12l-37 -29v-741q0 -209 85 -308.5t282 -99.5q195 0 279.5 98.5t84.5 309.5v727l-39 37l-123 18v82h433v-82l-123 -18l-37 -37v-745q0 -113 -15.5 -201t-74.5 -160t-168 -114t-256 -42t-256 42t-168 114t-74.5 159t-15.5 202v759l-35 29z M633 1521l199 389h203l-299 -389h-103z" />
<glyph unicode="&#xdb;" horiz-adv-x="1421" d="M51 1292v82h502v-82l-127 -12l-37 -29v-741q0 -209 85 -308.5t282 -99.5q195 0 279.5 98.5t84.5 309.5v727l-39 37l-123 18v82h433v-82l-123 -18l-37 -37v-745q0 -113 -15.5 -201t-74.5 -160t-168 -114t-256 -42t-256 42t-168 114t-74.5 159t-15.5 202v759l-35 29z M420 1521l225 389h132l225 -389h-111l-180 289l-178 -289h-113z" />
<glyph unicode="&#xdc;" horiz-adv-x="1421" d="M51 1292v82h502v-82l-127 -12l-37 -29v-741q0 -209 85 -308.5t282 -99.5q195 0 279.5 98.5t84.5 309.5v727l-39 37l-123 18v82h433v-82l-123 -18l-37 -37v-745q0 -113 -15.5 -201t-74.5 -160t-168 -114t-256 -42t-256 42t-168 114t-74.5 159t-15.5 202v759l-35 29z M416 1714q0 45 31 74.5t74 29.5t72.5 -29.5t29.5 -74.5q0 -43 -29.5 -73t-72.5 -30t-74 30t-31 73zM797 1714q0 45 30.5 74.5t73.5 29.5t73 -29.5t30 -74.5q0 -43 -30 -73t-73 -30t-73.5 30t-30.5 73z" />
<glyph unicode="&#xdd;" horiz-adv-x="1200" d="M-27 1292v82h476v-82l-117 -12l-21 -23l314 -563l344 547l-19 29l-125 22v82h418v-82l-125 -26l-426 -682v-461l33 -29l139 -10v-84h-530v84l139 10l33 29v434l-408 715zM522 1521l199 389h203l-299 -389h-103z" />
<glyph unicode="&#xde;" horiz-adv-x="1142" d="M72 0v84l118 10l33 29v1128l-33 29l-118 12v82h497v-82l-127 -12l-32 -29v-135h112q147 0 255 -21.5t177.5 -69.5t103.5 -126t34 -192q0 -96 -36 -176t-104.5 -136.5t-167 -88.5t-223.5 -32q-29 0 -66.5 3.5t-84.5 7.5v-162l32 -29l127 -10v-84h-497zM410 381 q47 -4 79.5 -6t55.5 -2q176 0 267 86t91 252q0 162 -94 237.5t-291 75.5h-53.5t-54.5 -4v-639z" />
<glyph unicode="&#xdf;" horiz-adv-x="1247" d="M39 0v72l119 14l22 31v803q0 137 37 247.5t103.5 188.5t158.5 120t203 42q166 0 255 -88.5t89 -249.5q0 -107 -37 -226q-14 2 -26.5 3t-22.5 1q-88 0 -136 -44t-48 -115q0 -43 16 -72t47 -52.5t75 -46t99 -53.5q100 -55 148.5 -121.5t48.5 -152.5q0 -66 -24.5 -123 t-69.5 -100t-108.5 -67.5t-139.5 -24.5t-236 41v270h103l20 -178q55 -43 125 -43q82 0 129 50t47 122q0 43 -12 72.5t-36.5 53t-60.5 45t-81 46.5q-59 33 -106.5 61.5t-79 60t-49 70.5t-17.5 93q0 96 66.5 172.5t183.5 103.5q10 41 15 77t5 66q0 115 -59.5 184.5 t-153.5 69.5q-156 0 -243 -166q-35 -66 -43.5 -157.5t-8.5 -216.5v-764l17 -37l135 -10v-72h-469z" />
<glyph unicode="&#xe0;" horiz-adv-x="1038" d="M86 248q0 80 36 134t109.5 95t186 74t266.5 70v65q0 123 -39 176t-149 53q-76 0 -156 -32v-172h-141q-35 0 -49.5 13t-14.5 50q0 47 29 89t82 74t130 50.5t173 18.5q162 0 233.5 -70t71.5 -225v-594l37 -33l108 -10v-74h-288l-27 119q-98 -66 -180 -99.5t-156 -33.5 q-123 0 -192.5 72.5t-69.5 189.5zM221 1507h203l198 -389h-102zM266 264q0 -76 43 -122t121 -46q51 0 113.5 23.5t140.5 68.5v361q-109 -31 -187.5 -57.5t-130 -58.5t-76 -73t-24.5 -96z" />
<glyph unicode="&#xe1;" horiz-adv-x="1038" d="M86 248q0 80 36 134t109.5 95t186 74t266.5 70v65q0 123 -39 176t-149 53q-76 0 -156 -32v-172h-141q-35 0 -49.5 13t-14.5 50q0 47 29 89t82 74t130 50.5t173 18.5q162 0 233.5 -70t71.5 -225v-594l37 -33l108 -10v-74h-288l-27 119q-98 -66 -180 -99.5t-156 -33.5 q-123 0 -192.5 72.5t-69.5 189.5zM266 264q0 -76 43 -122t121 -46q51 0 113.5 23.5t140.5 68.5v361q-109 -31 -187.5 -57.5t-130 -58.5t-76 -73t-24.5 -96zM442 1118l199 389h203l-299 -389h-103z" />
<glyph unicode="&#xe2;" horiz-adv-x="1038" d="M86 248q0 80 36 134t109.5 95t186 74t266.5 70v65q0 123 -39 176t-149 53q-76 0 -156 -32v-172h-141q-35 0 -49.5 13t-14.5 50q0 47 29 89t82 74t130 50.5t173 18.5q162 0 233.5 -70t71.5 -225v-594l37 -33l108 -10v-74h-288l-27 119q-98 -66 -180 -99.5t-156 -33.5 q-123 0 -192.5 72.5t-69.5 189.5zM229 1118l225 389h132l225 -389h-111l-180 289l-178 -289h-113zM266 264q0 -76 43 -122t121 -46q51 0 113.5 23.5t140.5 68.5v361q-109 -31 -187.5 -57.5t-130 -58.5t-76 -73t-24.5 -96z" />
<glyph unicode="&#xe3;" horiz-adv-x="1038" d="M86 248q0 80 36 134t109.5 95t186 74t266.5 70v65q0 123 -39 176t-149 53q-76 0 -156 -32v-172h-141q-35 0 -49.5 13t-14.5 50q0 47 29 89t82 74t130 50.5t173 18.5q162 0 233.5 -70t71.5 -225v-594l37 -33l108 -10v-74h-288l-27 119q-98 -66 -180 -99.5t-156 -33.5 q-123 0 -192.5 72.5t-69.5 189.5zM207 1174v20q0 113 45 169t129 56q43 0 83 -16.5t75.5 -36.5t67.5 -36.5t56 -16.5q84 0 84 127v10h84q0 -8 1 -15.5t1 -15.5q0 -100 -50 -158.5t-122 -58.5q-47 0 -90 16.5t-81 37t-69.5 37t-54.5 16.5q-33 0 -53 -29t-20 -82q0 -6 1 -12 t1 -12h-88zM266 264q0 -76 43 -122t121 -46q51 0 113.5 23.5t140.5 68.5v361q-109 -31 -187.5 -57.5t-130 -58.5t-76 -73t-24.5 -96z" />
<glyph unicode="&#xe4;" horiz-adv-x="1038" d="M86 248q0 80 36 134t109.5 95t186 74t266.5 70v65q0 123 -39 176t-149 53q-76 0 -156 -32v-172h-141q-35 0 -49.5 13t-14.5 50q0 47 29 89t82 74t130 50.5t173 18.5q162 0 233.5 -70t71.5 -225v-594l37 -33l108 -10v-74h-288l-27 119q-98 -66 -180 -99.5t-156 -33.5 q-123 0 -192.5 72.5t-69.5 189.5zM225 1311q0 45 31 74.5t74 29.5t72.5 -29.5t29.5 -74.5q0 -43 -29.5 -73t-72.5 -30t-74 30t-31 73zM266 264q0 -76 43 -122t121 -46q51 0 113.5 23.5t140.5 68.5v361q-109 -31 -187.5 -57.5t-130 -58.5t-76 -73t-24.5 -96zM606 1311 q0 45 30.5 74.5t73.5 29.5t73 -29.5t30 -74.5q0 -43 -30 -73t-73 -30t-73.5 30t-30.5 73z" />
<glyph unicode="&#xe5;" horiz-adv-x="1038" d="M86 248q0 80 36 134t109.5 95t186 74t266.5 70v65q0 123 -39 176t-149 53q-76 0 -156 -32v-172h-141q-35 0 -49.5 13t-14.5 50q0 47 29 89t82 74t130 50.5t173 18.5q162 0 234.5 -70t72.5 -225v-594l35 -33l108 -10v-74h-288l-27 119q-98 -66 -180 -99.5t-156 -33.5 q-123 0 -192.5 72.5t-69.5 189.5zM266 264q0 -76 43 -122t121 -46q51 0 113.5 23.5t140.5 68.5v361q-109 -31 -187.5 -57.5t-130 -58.5t-76 -73t-24.5 -96zM272 1360q0 51 18.5 94t50.5 76t76 51t95 18t95 -18t77 -51t51.5 -76t18.5 -94t-18.5 -95t-51.5 -77t-77 -51.5 t-95 -18.5t-95 18.5t-76 51.5t-50.5 77t-18.5 95zM365 1358q0 -61 43 -104.5t104 -43.5q63 0 107.5 43t44.5 105q0 63 -44.5 106t-107.5 43q-61 0 -104 -43t-43 -106z" />
<glyph unicode="&#xe6;" horiz-adv-x="1484" d="M88 240q0 84 34 139t104.5 97t179 75t258.5 70v65q0 123 -38 176t-145 53q-74 0 -141 -32v-172h-143q-35 0 -48.5 13t-13.5 50q0 47 27.5 89t79 74t125 50.5t165.5 18.5q98 0 161 -29t98 -94q111 123 270 123q160 0 248 -104.5t88 -301.5v-34.5t-2 -37.5h-572v-284 q131 -133 307 -133q78 0 139.5 24.5t127.5 81.5v-113q-158 -123 -332 -122q-102 0 -195.5 37.5t-167.5 111.5q-98 -72 -185 -108.5t-177 -36.5q-117 0 -184.5 70.5t-67.5 183.5zM260 264q0 -76 43 -122t117 -46q49 0 109.5 23.5t134.5 68.5v361q-104 -31 -180 -57.5 t-126.5 -58.5t-74 -73t-23.5 -96zM823 608h389q0 12 1 24.5t1 22.5q0 260 -184 260q-98 0 -150.5 -77.5t-56.5 -229.5z" />
<glyph unicode="&#xe7;" horiz-adv-x="913" d="M76 494q0 115 35.5 209t99 161.5t153 104.5t197.5 37q147 0 227 -55.5t80 -145.5q0 -49 -30.5 -79t-83.5 -30q-47 0 -92 31v168q-47 29 -99 29q-133 0 -217 -111t-84 -305q0 -190 94.5 -296t253.5 -106q131 0 260 87v-107q-172 -100 -333 -100q-104 0 -189.5 36.5 t-146 103.5t-93 160t-32.5 208zM361 -362q61 -16 120 -17q66 0 102 23.5t36 64.5q0 76 -103 76q-10 0 -21 -1t-22 -3v219h76v-125q14 2 24.5 2h16.5q72 0 113 -39t41 -108q0 -86 -63.5 -136.5t-178.5 -50.5q-66 0 -141 21v74z" />
<glyph unicode="&#xe8;" horiz-adv-x="1005" d="M76 485q0 117 34.5 212.5t98 164t150.5 106.5t190 38q168 0 268.5 -106.5t100.5 -297.5v-31.5t-3 -31.5h-663v-23q0 -199 94 -308.5t250 -109.5q78 0 155.5 30t166.5 89v-113q-92 -61 -189.5 -91.5t-196.5 -30.5q-102 0 -186 36.5t-143.5 102t-93 159t-33.5 205.5z M227 1507h203l198 -389h-102zM262 625h473v32q0 125 -54 190.5t-159 65.5q-49 0 -94 -20.5t-81 -58t-58.5 -91t-26.5 -118.5z" />
<glyph unicode="&#xe9;" horiz-adv-x="1005" d="M76 485q0 117 34.5 212.5t98 164t150.5 106.5t190 38q168 0 268.5 -106.5t100.5 -297.5v-31.5t-3 -31.5h-663v-23q0 -199 94 -308.5t250 -109.5q78 0 155.5 30t166.5 89v-113q-92 -61 -189.5 -91.5t-196.5 -30.5q-102 0 -186 36.5t-143.5 102t-93 159t-33.5 205.5z M262 625h473v32q0 125 -54 190.5t-159 65.5q-49 0 -94 -20.5t-81 -58t-58.5 -91t-26.5 -118.5zM448 1118l199 389h203l-299 -389h-103z" />
<glyph unicode="&#xea;" horiz-adv-x="1005" d="M76 485q0 117 34.5 212.5t98 164t150.5 106.5t190 38q168 0 268.5 -106.5t100.5 -297.5v-31.5t-3 -31.5h-663v-23q0 -199 94 -308.5t250 -109.5q78 0 155.5 30t166.5 89v-113q-92 -61 -189.5 -91.5t-196.5 -30.5q-102 0 -186 36.5t-143.5 102t-93 159t-33.5 205.5z M235 1118l225 389h132l225 -389h-111l-180 289l-178 -289h-113zM262 625h473v32q0 125 -54 190.5t-159 65.5q-49 0 -94 -20.5t-81 -58t-58.5 -91t-26.5 -118.5z" />
<glyph unicode="&#xeb;" horiz-adv-x="1005" d="M76 485q0 117 34.5 212.5t98 164t150.5 106.5t190 38q168 0 268.5 -106.5t100.5 -297.5v-31.5t-3 -31.5h-663v-23q0 -199 94 -308.5t250 -109.5q78 0 155.5 30t166.5 89v-113q-92 -61 -189.5 -91.5t-196.5 -30.5q-102 0 -186 36.5t-143.5 102t-93 159t-33.5 205.5z M231 1311q0 45 31 74.5t74 29.5t72.5 -29.5t29.5 -74.5q0 -43 -29.5 -73t-72.5 -30t-74 30t-31 73zM262 625h473v32q0 125 -54 190.5t-159 65.5q-49 0 -94 -20.5t-81 -58t-58.5 -91t-26.5 -118.5zM612 1311q0 45 30.5 74.5t73.5 29.5t73 -29.5t30 -74.5q0 -43 -30 -73 t-73 -30t-73.5 30t-30.5 73z" />
<glyph unicode="&#xec;" horiz-adv-x="573" d="M-10 1507h203l198 -389h-102zM72 0v74l108 10l35 33v741h-143v64l235 73h80v-878l35 -33l110 -10v-74h-460z" />
<glyph unicode="&#xed;" horiz-adv-x="573" d="M72 0v74l108 10l35 33v741h-143v64l235 73h80v-878l35 -33l110 -10v-74h-460zM211 1118l199 389h203l-299 -389h-103z" />
<glyph unicode="&#xee;" horiz-adv-x="573" d="M-2 1118l225 389h132l225 -389h-111l-180 289l-178 -289h-113zM72 0v74l108 10l35 33v741h-143v64l235 73h80v-878l35 -33l110 -10v-74h-460z" />
<glyph unicode="&#xef;" horiz-adv-x="573" d="M-6 1311q0 45 31 74.5t74 29.5t72.5 -29.5t29.5 -74.5q0 -43 -29.5 -73t-72.5 -30t-74 30t-31 73zM72 0v74l108 10l35 33v741h-143v64l235 73h80v-878l35 -33l110 -10v-74h-460zM375 1311q0 45 30.5 74.5t73.5 29.5t73 -29.5t30 -74.5q0 -43 -30 -73t-73 -30t-73.5 30 t-30.5 73z" />
<glyph unicode="&#xf0;" horiz-adv-x="1081" d="M68 500q0 111 36.5 202t103 156.5t160 101t203.5 35.5q31 0 62.5 -4t66.5 -10q-39 61 -79.5 117.5t-83.5 109.5l-263 -157l-45 77l240 146l-74 84l-166 14v60l232 69l145 -149l225 135l46 -80l-211 -127q172 -199 258 -376t86 -357q0 -129 -37 -233.5t-100.5 -178.5 t-149.5 -114.5t-186 -40.5q-104 0 -190.5 38.5t-148 107.5t-96 164t-34.5 210zM258 496q0 -102 22.5 -182.5t60.5 -135.5t91 -83.5t115 -28.5q127 0 208 115.5t81 332.5q0 115 -19.5 206t-64.5 163q-47 12 -87 19t-75 7q-154 0 -243 -106.5t-89 -306.5z" />
<glyph unicode="&#xf1;" horiz-adv-x="1163" d="M61 0v74l111 10l35 33v741h-146v64l238 73h78v-112q104 57 184 90t146 33q135 0 205.5 -79t70.5 -233v-577l35 -33l110 -10v-74h-448v74l98 10l35 33v542q0 113 -46 162t-161 49q-98 0 -229 -67v-686l35 -33l98 -10v-74h-449zM246 1174v20q0 113 45 169t129 56 q43 0 83 -16.5t75.5 -36.5t67.5 -36.5t56 -16.5q84 0 84 127v10h84q0 -8 1 -15.5t1 -15.5q0 -100 -50 -158.5t-122 -58.5q-47 0 -90 16.5t-81 37t-69.5 37t-54.5 16.5q-33 0 -53 -29t-20 -82q0 -6 1 -12t1 -12h-88z" />
<glyph unicode="&#xf2;" horiz-adv-x="1103" d="M76 494q0 115 35.5 209t98 161.5t150 104.5t191.5 37t191 -38t150.5 -105.5t99.5 -162t36 -206.5q0 -115 -36 -209.5t-99.5 -162t-151.5 -104t-190 -36.5t-189.5 36.5t-151 104t-99 162t-35.5 209.5zM254 1507h203l198 -389h-102zM268 494q0 -98 21.5 -177t58.5 -134.5 t89 -84t114 -28.5q125 0 205 111.5t80 312.5q0 199 -80 311.5t-205 112.5t-204 -112t-79 -312z" />
<glyph unicode="&#xf3;" horiz-adv-x="1103" d="M76 494q0 115 35.5 209t98 161.5t150 104.5t191.5 37t191 -38t150.5 -105.5t99.5 -162t36 -206.5q0 -115 -36 -209.5t-99.5 -162t-151.5 -104t-190 -36.5t-189.5 36.5t-151 104t-99 162t-35.5 209.5zM268 494q0 -98 21.5 -177t58.5 -134.5t89 -84t114 -28.5 q125 0 205 111.5t80 312.5q0 199 -80 311.5t-205 112.5t-204 -112t-79 -312zM475 1118l199 389h203l-299 -389h-103z" />
<glyph unicode="&#xf4;" horiz-adv-x="1103" d="M76 494q0 115 35.5 209t98 161.5t150 104.5t191.5 37t191 -38t150.5 -105.5t99.5 -162t36 -206.5q0 -115 -36 -209.5t-99.5 -162t-151.5 -104t-190 -36.5t-189.5 36.5t-151 104t-99 162t-35.5 209.5zM262 1118l225 389h132l225 -389h-111l-180 289l-178 -289h-113z M268 494q0 -98 21.5 -177t58.5 -134.5t89 -84t114 -28.5q125 0 205 111.5t80 312.5q0 199 -80 311.5t-205 112.5t-204 -112t-79 -312z" />
<glyph unicode="&#xf5;" horiz-adv-x="1103" d="M76 494q0 115 35.5 209t98 161.5t150 104.5t191.5 37t191 -38t150.5 -105.5t99.5 -162t36 -206.5q0 -115 -36 -209.5t-99.5 -162t-151.5 -104t-190 -36.5t-189.5 36.5t-151 104t-99 162t-35.5 209.5zM240 1174v20q0 113 45 169t129 56q43 0 83 -16.5t75.5 -36.5 t67.5 -36.5t56 -16.5q84 0 84 127v10h84q0 -8 1 -15.5t1 -15.5q0 -100 -50 -158.5t-122 -58.5q-47 0 -90 16.5t-81 37t-69.5 37t-54.5 16.5q-33 0 -53 -29t-20 -82q0 -6 1 -12t1 -12h-88zM268 494q0 -98 21.5 -177t58.5 -134.5t89 -84t114 -28.5q125 0 205 111.5t80 312.5 q0 199 -80 311.5t-205 112.5t-204 -112t-79 -312z" />
<glyph unicode="&#xf6;" horiz-adv-x="1103" d="M76 494q0 115 35.5 209t98 161.5t150 104.5t191.5 37t191 -38t150.5 -105.5t99.5 -162t36 -206.5q0 -115 -36 -209.5t-99.5 -162t-151.5 -104t-190 -36.5t-189.5 36.5t-151 104t-99 162t-35.5 209.5zM258 1311q0 45 31 74.5t74 29.5t72.5 -29.5t29.5 -74.5 q0 -43 -29.5 -73t-72.5 -30t-74 30t-31 73zM268 494q0 -98 21.5 -177t58.5 -134.5t89 -84t114 -28.5q125 0 205 111.5t80 312.5q0 199 -80 311.5t-205 112.5t-204 -112t-79 -312zM639 1311q0 45 30.5 74.5t73.5 29.5t73 -29.5t30 -74.5q0 -43 -30 -73t-73 -30t-73.5 30 t-30.5 73z" />
<glyph unicode="&#xf7;" horiz-adv-x="1705" d="M254 553v117h1198v-117h-1198zM739 250q0 49 34 82t81 33t81 -34t34 -81t-33 -81t-82 -34q-47 0 -81 34t-34 81zM739 971q0 47 34 80.5t81 33.5t81 -33.5t34 -80.5t-33 -81t-82 -34t-82 34t-33 81z" />
<glyph unicode="&#xf8;" horiz-adv-x="1103" d="M76 494q0 115 35.5 209t99 161.5t151 104.5t189.5 37q117 0 209 -45l106 186l70 -39l-107 -190q98 -74 148.5 -176.5t50.5 -247.5q0 -115 -36 -209.5t-99.5 -162t-151.5 -104t-190 -36.5q-125 0 -232 57l-118 -203l-66 41l119 209q-178 147 -178 408zM264 494 q0 -156 62 -281l379 651q-66 51 -154 51q-127 0 -207 -110.5t-80 -310.5zM381 141q70 -72 170 -71q129 0 210 111.5t81 312.5q0 182 -82 309z" />
<glyph unicode="&#xf9;" horiz-adv-x="1165" d="M53 866v64l238 76h78v-678q0 -111 47 -164t151 -53q111 0 238 61v694h-146v64l238 76h78v-889l37 -33l96 -10v-74h-303v115q-92 -66 -174 -100.5t-158 -34.5q-133 0 -203.5 79.5t-70.5 233.5v573h-146zM285 1507h203l198 -389h-102z" />
<glyph unicode="&#xfa;" horiz-adv-x="1165" d="M53 866v64l238 76h78v-678q0 -111 47 -164t151 -53q111 0 238 61v694h-146v64l238 76h78v-889l37 -33l96 -10v-74h-303v115q-92 -66 -174 -100.5t-158 -34.5q-133 0 -203.5 79.5t-70.5 233.5v573h-146zM506 1118l199 389h203l-299 -389h-103z" />
<glyph unicode="&#xfb;" horiz-adv-x="1165" d="M53 866v64l238 76h78v-678q0 -111 47 -164t151 -53q111 0 238 61v694h-146v64l238 76h78v-889l37 -33l96 -10v-74h-303v115q-92 -66 -174 -100.5t-158 -34.5q-133 0 -203.5 79.5t-70.5 233.5v573h-146zM293 1118l225 389h132l225 -389h-111l-180 289l-178 -289h-113z" />
<glyph unicode="&#xfc;" horiz-adv-x="1165" d="M53 866v64l238 76h78v-678q0 -111 47 -164t151 -53q111 0 238 61v694h-146v64l238 76h78v-889l37 -33l96 -10v-74h-303v115q-92 -66 -174 -100.5t-158 -34.5q-133 0 -203.5 79.5t-70.5 233.5v573h-146zM289 1311q0 45 31 74.5t74 29.5t72.5 -29.5t29.5 -74.5 q0 -43 -29.5 -73t-72.5 -30t-74 30t-31 73zM670 1311q0 45 30.5 74.5t73.5 29.5t73 -29.5t30 -74.5q0 -43 -30 -73t-73 -30t-73.5 30t-30.5 73z" />
<glyph unicode="&#xfd;" horiz-adv-x="1013" d="M-2 909v76h444v-76l-108 -8l-25 -33l246 -637l256 637l-16 33l-111 8v76h365v-76l-119 -16l-410 -995q-72 -174 -149.5 -259t-177.5 -85q-66 0 -104 31.5t-38 82.5q0 61 53 111l197 -78q41 45 84 121t82 186l-344 889zM432 1118l199 389h203l-299 -389h-103z" />
<glyph unicode="&#xfe;" horiz-adv-x="1128" d="M41 1370v64l252 73h78v-624q162 123 301 123q84 0 156.5 -35t126 -97.5t83 -151.5t29.5 -196q0 -121 -36 -219t-102.5 -167.5t-159.5 -107.5t-206 -38q-80 0 -192 18v-342l37 -32l129 -11v-73h-480v73l109 11l35 32v1700h-160zM371 119q98 -33 176 -33q76 0 138.5 29.5 t107.5 83t69.5 130.5t24.5 171q0 178 -82 277.5t-217 99.5q-53 0 -105.5 -17.5t-111.5 -52.5v-688z" />
<glyph unicode="&#xff;" horiz-adv-x="1013" d="M-2 909v76h444v-76l-108 -8l-25 -33l246 -637l256 637l-16 33l-111 8v76h365v-76l-119 -16l-410 -995q-72 -174 -149.5 -259t-177.5 -85q-66 0 -104 31.5t-38 82.5q0 61 53 111l197 -78q41 45 84 121t82 186l-344 889zM215 1311q0 45 31 74.5t74 29.5t72.5 -29.5 t29.5 -74.5q0 -43 -29.5 -73t-72.5 -30t-74 30t-31 73zM596 1311q0 45 30.5 74.5t73.5 29.5t73 -29.5t30 -74.5q0 -43 -30 -73t-73 -30t-73.5 30t-30.5 73z" />
<glyph unicode="&#x152;" horiz-adv-x="2033" d="M88 688q0 328 197 531q80 84 186.5 128t224.5 44q160 0 266.5 -64.5t170.5 -202.5v250h770v-299h-115l-29 174l-28 31h-426v-518h286l31 29l20 149h97v-451h-97l-20 148l-31 31h-286v-574h499l31 33l33 207h108v-334h-843v252q-147 -268 -437 -268q-121 0 -225 43 t-188 129q-195 199 -195 532zM301 692q0 -141 30.5 -253.5t85 -189.5t131.5 -118t169 -41t169 41t132 118t86 187.5t31 249.5t-31 251t-86 188.5t-132 117.5t-169 41t-169 -40t-131.5 -115.5t-85 -186.5t-30.5 -250z" />
<glyph unicode="&#x153;" horiz-adv-x="1673" d="M76 494q0 115 34.5 209t95 161.5t144.5 104.5t182 37q119 0 213.5 -51.5t155.5 -149.5q57 98 143 149.5t189 51.5q168 0 262 -104.5t94 -301.5v-29.5t-2 -31.5h-610v-7q0 -205 91 -314t247 -109q74 0 137.5 27.5t134.5 80.5v-113q-172 -125 -336 -124q-225 0 -362 204 q-152 -205 -357 -204q-98 0 -182 37.5t-144.5 105t-95 162t-34.5 209.5zM268 494q0 -201 75 -312.5t192 -111.5t191.5 111.5t74.5 312.5t-74.5 311t-191.5 110t-192 -109.5t-75 -311.5zM987 625h418v28q0 127 -48 193.5t-138 66.5q-86 0 -150.5 -73.5t-81.5 -214.5z" />
<glyph unicode="&#x178;" horiz-adv-x="1200" d="M-27 1292v82h476v-82l-117 -12l-21 -23l314 -563l344 547l-19 29l-125 22v82h418v-82l-125 -26l-426 -682v-461l33 -29l139 -10v-84h-530v84l139 10l33 29v434l-408 715zM305 1714q0 45 31 74.5t74 29.5t72.5 -29.5t29.5 -74.5q0 -43 -29.5 -73t-72.5 -30t-74 30t-31 73z M686 1714q0 45 30.5 74.5t73.5 29.5t73 -29.5t30 -74.5q0 -43 -30 -73t-73 -30t-73.5 30t-30.5 73z" />
<glyph unicode="&#x2c6;" horiz-adv-x="1024" d="M221 1118l225 389h132l225 -389h-111l-180 289l-178 -289h-113z" />
<glyph unicode="&#x2dc;" horiz-adv-x="1024" d="M199 1174v20q0 113 45 169t129 56q43 0 83 -16.5t75.5 -36.5t67.5 -36.5t56 -16.5q84 0 84 127v10h84q0 -8 1 -15.5t1 -15.5q0 -100 -50 -158.5t-122 -58.5q-47 0 -90 16.5t-81 37t-69.5 37t-54.5 16.5q-33 0 -53 -29t-20 -82q0 -6 1 -12t1 -12h-88z" />
<glyph unicode="&#x2000;" horiz-adv-x="986" />
<glyph unicode="&#x2001;" horiz-adv-x="1972" />
<glyph unicode="&#x2002;" horiz-adv-x="986" />
<glyph unicode="&#x2003;" horiz-adv-x="1972" />
<glyph unicode="&#x2004;" horiz-adv-x="657" />
<glyph unicode="&#x2005;" horiz-adv-x="493" />
<glyph unicode="&#x2006;" horiz-adv-x="328" />
<glyph unicode="&#x2007;" horiz-adv-x="328" />
<glyph unicode="&#x2008;" horiz-adv-x="246" />
<glyph unicode="&#x2009;" horiz-adv-x="394" />
<glyph unicode="&#x200a;" horiz-adv-x="109" />
<glyph unicode="&#x2010;" horiz-adv-x="653" d="M96 424v137h461v-137h-461z" />
<glyph unicode="&#x2011;" horiz-adv-x="653" d="M96 424v137h461v-137h-461z" />
<glyph unicode="&#x2012;" horiz-adv-x="653" d="M96 424v137h461v-137h-461z" />
<glyph unicode="&#x2013;" horiz-adv-x="1024" d="M0 430v125h1024v-125h-1024z" />
<glyph unicode="&#x2014;" horiz-adv-x="2048" d="M0 430v125h2048v-125h-2048z" />
<glyph unicode="&#x2018;" horiz-adv-x="411" d="M72 1094q0 178 196 366h88q-82 -92 -122.5 -167.5t-40.5 -147.5v-23.5t4 -23.5h131q27 -39 26 -72q0 -53 -33.5 -87t-89.5 -34q-72 0 -115.5 51.5t-43.5 137.5z" />
<glyph unicode="&#x2019;" horiz-adv-x="411" d="M63 905q82 90 123 167t41 149v23t-4 24h-133q-27 39 -27 75q0 49 34 83t89 34q72 0 117 -51t45 -137q0 -180 -196 -367h-89z" />
<glyph unicode="&#x201a;" horiz-adv-x="411" d="M63 -336q80 92 122 167t42 146v23.5t-4 24.5h-131q-27 39 -26 75q0 49 33.5 84t88.5 35q72 0 116 -51t44 -137q0 -180 -196 -367h-89z" />
<glyph unicode="&#x201c;" horiz-adv-x="825" d="M72 1094q0 178 196 366h88q-82 -92 -122.5 -167.5t-40.5 -147.5v-23.5t4 -23.5h131q27 -39 26 -72q0 -53 -33.5 -87t-89.5 -34q-72 0 -115.5 51.5t-43.5 137.5zM483 1094q0 178 197 366h88q-82 -92 -123 -167.5t-41 -147.5v-23.5t4 -23.5h133q27 -39 27 -72 q0 -53 -34 -87t-89 -34q-72 0 -117 51.5t-45 137.5z" />
<glyph unicode="&#x201d;" horiz-adv-x="825" d="M63 905q82 90 123 167t41 149v23t-4 24h-133q-27 39 -27 75q0 49 34 83t89 34q72 0 117 -51t45 -137q0 -180 -196 -367h-89zM475 905q82 90 123 167t41 149v23t-4 24h-131q-27 39 -27 75q0 49 33 83t88 34q72 0 117 -51t45 -137q0 -180 -197 -367h-88z" />
<glyph unicode="&#x201e;" horiz-adv-x="825" d="M63 -336q80 92 122 167t42 146v23.5t-4 24.5h-131q-27 39 -26 75q0 49 33.5 84t88.5 35q72 0 116 -51t44 -137q0 -180 -196 -367h-89zM477 100q0 49 34 84t89 35q72 0 116 -51t44 -137q0 -180 -195 -367h-88q80 92 122 167t42 146v23.5t-4 24.5h-133q-27 39 -27 75z" />
<glyph unicode="&#x2022;" horiz-adv-x="1208" d="M307 762q0 61 23.5 114.5t63.5 93.5t94.5 63.5t115.5 23.5t114.5 -23.5t93.5 -63.5t63.5 -93.5t23.5 -114.5t-23.5 -114.5t-63.5 -94.5t-94 -64.5t-116 -23.5q-61 0 -115.5 23.5t-94.5 63.5t-62.5 94.5t-22.5 115.5z" />
<glyph unicode="&#x2026;" horiz-adv-x="2048" d="M211 111q0 55 39 93t92 38t91 -38t38 -93q0 -53 -38 -91t-91 -38t-92 36.5t-39 92.5zM893 111q0 55 39 93t92 38t91 -38t38 -93q0 -53 -38 -91t-91 -38t-92 36.5t-39 92.5zM1577 111q0 55 39 93t92 38t91 -38t38 -93q0 -53 -38 -91t-91 -38t-92 36.5t-39 92.5z" />
<glyph unicode="&#x202f;" horiz-adv-x="394" />
<glyph unicode="&#x2039;" horiz-adv-x="501" d="M80 410v163l336 273v-135l-240 -219l240 -222v-133z" />
<glyph unicode="&#x203a;" horiz-adv-x="501" d="M94 137v133l240 222l-240 219v135l334 -273v-163z" />
<glyph unicode="&#x205f;" horiz-adv-x="493" />
<glyph unicode="&#x2122;" horiz-adv-x="1683" d="M242 1214v142h469v-142h-54l-12 82l-14 13h-107v-439l78 -8v-45h-250v43l80 8v441h-106l-17 -13l-12 -82h-55zM772 1309v47h209v-25l139 -368l142 366v27h204v-47l-65 -11v-428l65 -10v-43h-219v43l62 10v435l-189 -488h-45l-180 488v-435l63 -8v-45h-184v45l64 8v428z " />
<glyph unicode="&#x25fc;" horiz-adv-x="983" d="M0 0v983h983v-983h-983z" />
<glyph unicode="&#xfb01;" horiz-adv-x="1175" d="M59 0v74l109 10l37 33v745h-131v64l131 32v33q0 123 31.5 221.5t86 168t127 106.5t154.5 37q63 0 100 -31t37 -78q0 -74 -88 -110l-157 114q-119 -68 -119 -311v-150h422l119 56h67v-897l33 -33l96 -10v-74h-446v74l110 10l37 33v745h-440v-745l35 -33l104 -10v-74h-455z M817 1321q0 45 30 74.5t77 29.5q45 0 75.5 -30.5t30.5 -73.5q0 -45 -30.5 -76t-75.5 -31t-76 31t-31 76z" />
<glyph unicode="&#xfb02;" horiz-adv-x="1185" d="M59 0v74l109 10l37 33v745h-131v64l131 32v33q0 123 31.5 221.5t86 168t127 106.5t154.5 37q59 0 95 -27t42 -74l209 99h45v-1405l35 -33l117 -10v-74h-465v74l109 10l34 33v1249h-92l-71 -53l-152 114q-133 -61 -133 -319v-150h285v-96h-287v-745l35 -33l104 -10v-74 h-455z" />
</font>
</defs>
</svg>
