<?xml version="1.0" standalone="no"?>
<!DOCTYPE svg PUBLIC "-//W3C//DTD SVG 1.1//EN" "http://www.w3.org/Graphics/SVG/1.1/DTD/svg11.dtd" >
<svg xmlns="http://www.w3.org/2000/svg">
<metadata></metadata>
<defs>
<font id="charteritalic" horiz-adv-x="1138" >
<font-face units-per-em="2048" ascent="1561" descent="-487" />
<missing-glyph horiz-adv-x="569" />
<glyph horiz-adv-x="0" />
<glyph horiz-adv-x="682" />
<glyph unicode=" "  horiz-adv-x="569" />
<glyph unicode="&#x09;" horiz-adv-x="569" />
<glyph unicode="&#xa0;" horiz-adv-x="569" />
<glyph unicode="!" horiz-adv-x="692" d="M131 98q0 47 34 82t81 35q49 0 84 -35t35 -82q0 -49 -35 -82.5t-84 -33.5q-47 0 -81 33.5t-34 82.5zM231 350l93 783q16 133 45.5 199.5t113.5 66.5q43 0 66.5 -24.5t23.5 -67.5q0 -45 -34 -174l-207 -783h-101z" />
<glyph unicode="&#x22;" horiz-adv-x="677" d="M90 1362q0 100 84 100q41 0 63.5 -25.5t22.5 -74.5q0 -8 -1 -18.5t-3 -22.5l-66 -457h-32l-64 457q-2 10 -3 20.5t-1 20.5zM418 1360q0 51 22.5 76.5t63.5 25.5q84 0 84 -100v-18.5t-2 -22.5l-68 -457h-31l-65 457q-2 10 -3 19.5t-1 19.5z" />
<glyph unicode="#" horiz-adv-x="1525" d="M131 471v96h326l98 299h-324v97h357l170 491l96 -37l-162 -454h316l163 489l97 -35l-160 -454h285v-97h-318l-100 -299h334v-96h-367l-172 -518l-96 33l164 485h-314l-170 -518l-96 33l168 485h-295zM561 567h305l105 299h-309z" />
<glyph unicode="$" d="M43 90l66 313h106l-20 -229l18 -24q109 -53 205 -56l102 533q-154 70 -226.5 149.5t-72.5 190.5q0 76 32 146.5t90 124.5t139 90t182 42l28 152h84l-26 -146q137 -2 303 -61l-64 -299h-92l10 196l-24 35q-74 33 -152 37l-98 -516q166 -59 245.5 -142t79.5 -204 q0 -168 -123.5 -281.5t-349.5 -140.5l-41 -209h-86l41 209q-207 8 -356 90zM391 1020q0 -74 39 -125t123 -86l92 473q-121 -23 -187.5 -94.5t-66.5 -167.5zM508 96q133 25 201.5 97.5t68.5 177.5q0 80 -42 131t-134 86z" />
<glyph unicode="%" horiz-adv-x="1744" d="M102 827q0 104 28 206t75 179q57 92 134 139.5t167 47.5q113 0 177.5 -77t64.5 -212q0 -104 -28 -203.5t-77 -179.5q-115 -186 -301 -186q-113 0 -176.5 74.5t-63.5 211.5zM238 0l1140 1374h125l-1141 -1374h-124zM242 795q0 -180 114 -181q100 0 166 148q35 78 57.5 179 t22.5 202q0 182 -113 182q-100 0 -167 -149q-37 -82 -58.5 -182.5t-21.5 -198.5zM997 264q0 104 28 204.5t75 178.5q57 92 134 139.5t167 47.5q113 0 177 -76t64 -211q0 -104 -27.5 -203.5t-76.5 -179.5q-117 -188 -301 -189q-113 0 -176.5 76t-63.5 213zM1137 231 q0 -182 114 -182q98 0 166 150q35 78 57.5 179t22.5 202q0 182 -113 182q-100 0 -167 -150q-37 -82 -58.5 -182t-21.5 -199z" />
<glyph unicode="&#x26;" horiz-adv-x="1441" d="M41 311q0 260 352 439q-55 78 -83.5 144.5t-28.5 127.5q0 76 31.5 145.5t90 120.5t139.5 82t179 31q139 0 219 -75t80 -193q0 -129 -105.5 -230.5t-312.5 -165.5l305 -405q41 37 85 103.5t93 162.5l-24 33l-100 20v86h401v-86l-145 -18q-131 -248 -259 -371 q63 -94 137 -136t175 -42h22v-82l-145 -8q-18 -2 -30.5 -2h-20.5q-39 0 -71 9t-60.5 28.5t-58 50.5t-64.5 72q-104 -88 -219 -131.5t-232 -43.5q-78 0 -142.5 25t-110.5 70t-71.5 106.5t-25.5 132.5zM225 373q0 -59 20.5 -109.5t55.5 -87.5t84 -57.5t109 -20.5 q154 0 299 117l-353 471q-111 -68 -163 -141.5t-52 -171.5zM434 1073q0 -66 31 -134t90 -146q297 106 297 325q0 88 -48 139.5t-126 51.5q-53 0 -97 -18.5t-77 -50.5t-51.5 -75t-18.5 -92z" />
<glyph unicode="'" horiz-adv-x="348" d="M90 1340.5v19.5q0 102 84 102q41 0 63.5 -25.5t22.5 -74.5q0 -8 -1 -18.5t-3 -22.5l-66 -457h-32l-66 457q-2 10 -2 19.5z" />
<glyph unicode="(" horiz-adv-x="858" d="M162 281q0 133 29.5 286.5t91.5 327.5q82 225 264 393q88 82 188.5 128t204.5 54l-16 -86q-82 -12 -156 -53t-133 -106q-68 -76 -115 -163t-78 -192q-59 -201 -85.5 -356.5t-26.5 -265.5q0 -203 73.5 -316.5t214.5 -136.5l-16 -86q-98 8 -179 52t-139.5 119t-90 176.5 t-31.5 224.5z" />
<glyph unicode=")" horiz-adv-x="858" d="M-135 -291l16 86q82 10 156 52t133 108q72 80 122 178t83 217q53 199 75.5 347.5t22.5 246.5q0 195 -74.5 307.5t-212.5 132.5l17 86q98 -8 178 -52t138.5 -117.5t90 -173t31.5 -216.5q0 -328 -101.5 -591t-281.5 -429q-92 -84 -191.5 -130t-201.5 -52z" />
<glyph unicode="*" horiz-adv-x="1024" d="M203 1169l149 37l195 -143l-12 -25l-263 17zM268 692l35 148l238 166l18 -15l-143 -248zM557 1346l105 124l57 -124l-115 -256h-29zM580 991l24 15l172 -166l-20 -148l-127 53zM623 1065l249 141l136 -37l-115 -114l-266 -17z" />
<glyph unicode="+" horiz-adv-x="1705" d="M254 553v117h541v551h118v-551h539v-117h-539v-553h-118v553h-541z" />
<glyph unicode="," horiz-adv-x="569" d="M-117 -346l13 67q246 47 280 293h-131q-18 27 -18 60q0 63 42 103t103 40q63 0 97 -37t34 -102q0 -72 -30.5 -142.5t-86 -129t-132.5 -99.5t-171 -53z" />
<glyph unicode="-" horiz-adv-x="653" d="M47 424l27 137h458l-26 -137h-459z" />
<glyph unicode="." horiz-adv-x="569" d="M53 111q0 51 35 86.5t86 35.5t87 -35.5t36 -86.5t-36 -86t-87 -35q-49 0 -85 34.5t-36 86.5z" />
<glyph unicode="/" horiz-adv-x="985" d="M-227 -190l1177 1564h125l-1177 -1564h-125z" />
<glyph unicode="0" d="M55 436q0 178 46 348t126 306q92 154 213.5 231.5t264.5 77.5q174 0 275 -121t101 -340q0 -180 -46 -348t-126 -303q-92 -154 -213 -233t-264 -79q-174 0 -275.5 122t-101.5 339zM244 401q0 -328 211 -327q176 0 299 256q59 127 106 358q16 86 24.5 156.5t8.5 130.5 q0 328 -207 328q-94 0 -168 -64.5t-135 -194.5q-29 -61 -56.5 -150t-50.5 -206q-33 -164 -32 -287z" />
<glyph unicode="1" d="M168 0v88l213 12l33 35l204 1063l-20 21l-297 -39v84l477 135h49l-243 -1272l18 -31l178 -10v-86h-612z" />
<glyph unicode="2" d="M-45 0l25 129q211 147 374.5 270t276 233.5t170 216t57.5 222.5q0 106 -57.5 164.5t-165.5 58.5q-92 0 -193 -49l-41 -219q-49 -31 -98 -31q-45 0 -70.5 23.5t-25.5 58.5q0 41 21.5 86t66.5 86q74 68 181.5 109t223.5 41q174 0 266.5 -81t92.5 -226q0 -111 -56.5 -215.5 t-167 -215t-273.5 -232.5t-374 -267h617l69 174h93l-64 -336h-948z" />
<glyph unicode="3" d="M2 199q0 53 29.5 83.5t83.5 30.5q35 0 71 -14l31 -176q80 -49 172 -49q82 0 152.5 28.5t122 77.5t80 115.5t28.5 144.5q0 104 -64.5 164t-185.5 60q-29 0 -58.5 -2.5t-64.5 -6.5l17 115q14 -2 26.5 -2h24.5q88 0 158.5 24.5t121 67.5t77 100.5t26.5 122.5 q0 102 -61.5 161t-167.5 59q-98 0 -195 -66l-29 -197q-31 -10 -54.5 -17t-41.5 -7q-39 0 -64.5 26.5t-25.5 69.5q0 51 37 102.5t101.5 92.5t153.5 66.5t195 25.5q166 0 258.5 -76t92.5 -205q0 -131 -101.5 -235.5t-294.5 -151.5q152 -6 233 -77.5t81 -188.5 q0 -104 -57.5 -203.5t-161.5 -171.5q-80 -53 -178.5 -83t-202.5 -30q-82 0 -148.5 17.5t-115 47.5t-75 70t-26.5 87z" />
<glyph unicode="4" d="M0 397l25 133l862 856h121l-164 -856h229l-26 -133h-230l-90 -473h-158l90 473h-659zM178 530h508l121 633z" />
<glyph unicode="5" d="M6 162q0 51 34 85t85 34q23 0 51 -7l53 -174q68 -31 150 -30q80 0 151.5 30.5t126 84t85 124t30.5 148.5q0 264 -364 264q-29 0 -197 -12l135 665h717l-29 -155h-596l-84 -418q129 35 230 35q180 0 276 -88.5t96 -241.5q0 -102 -50 -203.5t-144 -179.5 q-180 -150 -430 -150q-160 0 -243 53.5t-83 135.5z" />
<glyph unicode="6" d="M66 444q0 221 89 421t261 354q223 201 583 247l5 -104q-262 -27 -443.5 -176.5t-245.5 -392.5q90 66 178.5 97.5t174.5 31.5q162 0 260 -99.5t98 -273.5q0 -117 -43 -220.5t-117.5 -182t-176 -125t-220.5 -46.5q-182 0 -292.5 123t-110.5 346zM250 426q0 -172 63.5 -264 t175.5 -92q72 0 135.5 32.5t111.5 90t77 137.5t29 176q0 293 -262 293q-158 0 -291 -111q-39 -119 -39 -262z" />
<glyph unicode="7" d="M92 -76l916 1295h-633l-68 -187h-96l65 342h945l-17 -82l-934 -1323l-8 -45h-170z" />
<glyph unicode="8" d="M37 289q0 129 87 239.5t261 188.5q-88 45 -129 106.5t-41 153.5q0 88 37 166t103.5 135t156.5 90t197 33q164 0 257 -80t93 -213q0 -127 -78.5 -226.5t-232.5 -158.5q68 -33 115.5 -64.5t80.5 -67.5t48.5 -78t15.5 -93q0 -92 -41 -174t-114 -144.5t-174 -99.5t-222 -37 q-203 0 -311.5 90t-108.5 234zM209 326q0 -119 76.5 -189.5t206.5 -70.5q72 0 133 23.5t105 65.5t68.5 97t24.5 117q0 55 -22.5 93t-68.5 70.5t-115.5 64.5t-161.5 75q-125 -72 -185.5 -153t-60.5 -193zM387 1022q0 -86 69 -146.5t210 -119.5q111 51 171 142t60 198 q0 100 -57.5 157.5t-161.5 57.5q-59 0 -111.5 -21.5t-92.5 -60.5t-63.5 -91.5t-23.5 -115.5z" />
<glyph unicode="9" d="M57 -29q262 96 444.5 241.5t299.5 360.5q-203 -113 -350 -112q-78 0 -143.5 26.5t-113 74.5t-74 115.5t-26.5 151.5q0 123 53.5 239t151.5 198q162 133 365 133q197 0 301 -108.5t104 -313.5q0 -176 -63.5 -340t-187.5 -305.5t-306 -255t-418 -191.5zM283 870 q0 -137 70.5 -216t191.5 -79q156 1 301 130q18 78 28.5 146.5t10.5 129.5q0 162 -66.5 245t-187.5 83q-68 0 -131.5 -34t-111.5 -93.5t-76.5 -139t-28.5 -172.5z" />
<glyph unicode=":" horiz-adv-x="653" d="M96 111q0 51 35 86.5t86 35.5t87 -35.5t36 -86.5t-36 -86t-87 -35q-49 0 -85 34.5t-36 86.5zM238 856q0 51 34.5 86t85.5 35t86 -35t35 -86t-34.5 -87t-86.5 -36q-49 0 -84.5 36t-35.5 87z" />
<glyph unicode=";" horiz-adv-x="653" d="M-66 -346l13 67q246 47 280 293h-131q-18 27 -18 60q0 63 42 103t103 40q63 0 97 -37t34 -102q0 -72 -30.5 -142.5t-86 -129t-132 -99.5t-171.5 -53zM238 856q0 51 34.5 86t85.5 35t86 -35t35 -86t-34.5 -87t-86.5 -36q-49 0 -84.5 36t-35.5 87z" />
<glyph unicode="&#x3c;" horiz-adv-x="1705" d="M264 559v103l1178 483v-127l-1000 -408l1000 -405v-129z" />
<glyph unicode="=" horiz-adv-x="1705" d="M254 360v117h1198v-117h-1198zM254 743v117h1198v-117h-1198z" />
<glyph unicode="&#x3e;" horiz-adv-x="1705" d="M264 76v129l1000 405l-1000 408v127l1178 -483v-103z" />
<glyph unicode="?" horiz-adv-x="995" d="M193 98q0 47 34.5 82t81.5 35q49 0 83 -35t34 -82q0 -49 -34 -82.5t-83 -33.5q-47 0 -81.5 33.5t-34.5 82.5zM211 1180q0 43 24.5 83t69.5 70.5t107.5 48t138.5 17.5q174 0 267 -79t93 -214q0 -334 -465 -516l-47 -240h-106l57 299q184 66 278.5 179.5t94.5 261.5 q0 215 -242 215h-6l-123 -203q-10 -2 -18 -2h-19q-51 0 -77.5 21.5t-26.5 58.5z" />
<glyph unicode="@" horiz-adv-x="1929" d="M156 504q0 408 297 680q123 111 286.5 172t341.5 61q162 0 293 -47t221.5 -133t139.5 -206t49 -267q0 -227 -115 -404q-78 -119 -184.5 -182t-204.5 -63q-152 0 -152 155v19q-84 -86 -156.5 -130t-144.5 -44q-111 0 -182.5 89t-71.5 240q0 98 30 186.5t85 164.5 q76 102 180.5 157.5t214.5 55.5q96 0 201 -56l37 47h111q-20 -51 -31.5 -105t-24.5 -114l-80 -352q-10 -41 -13 -68.5t-3 -44.5q0 -41 23.5 -64.5t62.5 -23.5q41 0 88 27t92 80q68 80 106 194.5t38 243.5q0 119 -42 221.5t-118 177t-183.5 116.5t-236.5 42q-334 0 -555 -205 q-254 -236 -254 -596q0 -168 52.5 -305t148.5 -233t231 -149.5t299 -53.5q137 0 273.5 37t265.5 113l28 -70q-164 -92 -320.5 -136t-301.5 -44q-174 0 -323.5 58t-268.5 173q-229 219 -229 586zM748 469q0 -113 44 -170t126 -57q106 0 215 135l84 430l-84 115q-10 2 -22.5 3 t-23.5 1q-72 0 -133 -34t-107 -94.5t-72.5 -144.5t-26.5 -184z" />
<glyph unicode="A" horiz-adv-x="1241" d="M-162 0v78l113 12l756 1296h135l219 -1261l35 -37l100 -10v-78h-448v78l120 10l15 29l-64 391h-497l-220 -391l17 -29l125 -10v-78h-406zM373 596h428l-94 590z" />
<glyph unicode="B" horiz-adv-x="1204" d="M-57 0v78l129 12l34 29l218 1136l-21 31l-131 10v78h526q209 0 311.5 -60.5t102.5 -195.5q0 -147 -91 -245.5t-271 -143.5q324 -16 323 -272q0 -457 -618 -457h-512zM281 90q70 -6 135 -6q456 0 456 356q0 123 -78.5 176.5t-244.5 53.5q-29 0 -68 -3t-90 -8zM408 756 q68 -6 104 -6q188 0 292.5 95t104.5 253q0 102 -71.5 149t-219.5 47q-39 0 -112 -6z" />
<glyph unicode="C" horiz-adv-x="1236" d="M84 543q0 201 83 378t234 302q106 86 233.5 131t268.5 45q174 0 371 -70l-57 -315h-87v196l-16 39q-100 53 -217 54q-102 0 -194.5 -36t-167.5 -104q-121 -109 -188.5 -275.5t-67.5 -369.5q0 -213 110.5 -329.5t315.5 -116.5q84 0 176 28l39 35l90 236h88l-56 -324 q-215 -72 -407 -72q-127 0 -228.5 40t-173 114t-110.5 179.5t-39 234.5z" />
<glyph unicode="D" horiz-adv-x="1374" d="M-57 0v78l131 12l32 29l220 1136l-21 31l-133 10v78h465q317 0 478 -133t161 -389q0 -180 -65.5 -342t-188.5 -283t-279.5 -174t-367.5 -53h-432zM287 96h112q168 0 295 55.5t207 159.5q78 104 127 253t49 308q0 209 -112.5 308.5t-343.5 99.5h-111z" />
<glyph unicode="E" horiz-adv-x="1118" d="M-49 0v78l129 12l35 29l219 1136l-23 31l-131 10v78h953l-58 -299h-98v174l-23 31h-440l-100 -518h311l37 29l45 149h88l-86 -451h-84l8 148l-24 29h-314l-110 -572h522l37 33l69 207h95l-66 -334h-991z" />
<glyph unicode="F" horiz-adv-x="1042" d="M-53 0v78l129 10l33 29l219 1138l-21 29l-131 12v78h930l-64 -321h-98v194l-20 33h-414l-102 -541h288l37 31l47 148h90l-88 -451h-88l8 147l-24 31h-289l-100 -522l28 -31l144 -10v-82h-514z" />
<glyph unicode="G" horiz-adv-x="1359" d="M80 545q0 199 86 376t246 300q115 88 248 134t280 46q113 0 205 -16.5t164 -45.5l-60 -325h-108l6 192l-19 43q-102 51 -206 51q-102 0 -197.5 -36.5t-177.5 -106.5q-125 -106 -196.5 -272t-71.5 -369q0 -98 29.5 -180t83.5 -139.5t130 -89t166 -31.5q78 0 215 28l78 437 l-20 28l-134 11v79h504v-79l-131 -11l-33 -28l-96 -494q-131 -37 -238.5 -54.5t-193.5 -17.5q-127 0 -230.5 41t-176 116t-112.5 179.5t-40 233.5z" />
<glyph unicode="H" horiz-adv-x="1458" d="M-57 0v78l131 12l32 29l220 1136l-21 31l-133 10v78h500v-78l-135 -10l-31 -31l-96 -489h667l97 489l-25 31l-131 10v78h500v-78l-136 -10l-32 -31l-217 -1136l20 -29l131 -12v-78h-496v78l134 12l30 29l105 553h-666l-106 -553l24 -29l131 -12v-78h-497z" />
<glyph unicode="I" horiz-adv-x="638" d="M-47 0v78l131 12l33 29l219 1136l-23 31l-131 10v78h500v-78l-135 -10l-33 -31l-219 -1136l24 -29l134 -12v-78h-500z" />
<glyph unicode="J" horiz-adv-x="915" d="M-86 25l68 344h102v-260l25 -27q39 -8 71 -8q72 0 119 27.5t80 83t54.5 138.5t43.5 193l144 739l-23 31l-131 10v78h498v-78l-134 -10l-32 -31l-137 -731q-27 -143 -64 -246.5t-94.5 -171t-139 -99.5t-198.5 -32q-147 0 -252 50z" />
<glyph unicode="K" horiz-adv-x="1280" d="M-61 0v78l131 12l32 29l220 1136l-23 31l-131 10v78h498v-78l-134 -10l-32 -31l-111 -559h60l563 555l-13 33l-143 10v80h496v-82l-170 -12l-539 -526l291 -566q16 -31 32.5 -52t38 -34.5t52 -18.5t78.5 -5h41v-78q-72 -4 -118 -6t-67 -2q-55 0 -90 6t-60.5 23.5t-45 46 t-41.5 73.5l-238 469h-143l-94 -491l26 -29l133 -12v-78h-499z" />
<glyph unicode="L" horiz-adv-x="1019" d="M-57 0v78l131 10l32 31l220 1136l-21 31l-133 10v78h498v-78l-133 -10l-33 -31l-225 -1161h434l37 33l79 246h99l-72 -373h-913z" />
<glyph unicode="M" horiz-adv-x="1718" d="M-55 0v78l129 12l32 29l218 1136l-23 31l-129 10v78h418v-55l186 -1043l574 1035v63h426v-78l-129 -10l-33 -31l-217 -1136l20 -29l131 -12v-78h-485v78l147 12l21 29l219 1149l-707 -1268h-90l-221 1262l-213 -1143l31 -29l121 -12v-78h-426z" />
<glyph unicode="N" horiz-adv-x="1398" d="M-63 0v78l131 12l32 29l219 1136l-20 31l-133 10v78h352v-51l490 -1038l188 970l-20 31l-132 10v78h431v-78l-132 -10l-32 -31l-240 -1255h-119l-538 1139l-199 -1020l23 -29l131 -12v-78h-432z" />
<glyph unicode="O" horiz-adv-x="1449" d="M84 530q0 160 49 307.5t143 270.5q104 139 249.5 214t303.5 75q98 0 179.5 -24.5t142.5 -69.5q104 -78 161.5 -193t57.5 -250q0 -174 -48 -325.5t-140 -270.5q-106 -139 -252 -214t-305 -75q-119 0 -218.5 41t-171 115t-111.5 175.5t-40 223.5zM281 518q0 -102 25.5 -185 t72.5 -140.5t111.5 -88t144.5 -30.5q215 0 373 231q74 111 117.5 255t43.5 298q0 209 -97 327t-257 118q-104 0 -199.5 -57.5t-173.5 -174.5q-76 -111 -118.5 -256t-42.5 -297z" />
<glyph unicode="P" horiz-adv-x="1110" d="M-57 0v78l131 12l32 29l220 1136l-23 31l-131 10v78h436q84 0 160 -5t147 -32q90 -33 143.5 -110.5t53.5 -175.5q0 -117 -43 -215.5t-125 -169t-197.5 -110.5t-259.5 -40q-23 0 -54.5 1t-72.5 3l-77 -401l14 -29l131 -12v-78h-485zM379 616q23 -2 43 -3t41 -1 q221 0 340 106.5t119 299.5q0 141 -80 204.5t-250 63.5q-20 0 -41 -1t-43 -3z" />
<glyph unicode="Q" horiz-adv-x="1449" d="M82 528q0 160 50 308.5t144 271.5q106 139 252 214t306 75q94 0 173.5 -24.5t143.5 -72.5q104 -76 161.5 -191.5t57.5 -250.5q0 -276 -117.5 -489t-334.5 -330q35 -68 65.5 -116t64 -79.5t73.5 -46t96 -14.5q35 0 90 12t127 41v-69q-94 -45 -175 -70t-153 -25 q-129 0 -214 75t-155 237q-35 -4 -64.5 -6.5t-54.5 -2.5q-115 0 -213 41t-169.5 115t-112.5 175.5t-41 221.5zM279 518q0 -100 25.5 -182t72.5 -140.5t112.5 -90t145.5 -31.5q215 0 373 231q74 111 117.5 255.5t43.5 297.5q0 104 -25.5 186t-71.5 139.5t-110.5 88.5 t-144.5 31q-215 0 -375 -232q-76 -111 -119.5 -257t-43.5 -296z" />
<glyph unicode="R" horiz-adv-x="1232" d="M-59 0v78l131 10l32 29l220 1138l-23 29l-145 12v78h518q219 0 325.5 -69.5t106.5 -229.5q0 -158 -104.5 -270.5t-303.5 -155.5q68 -14 108 -46t65.5 -79t42 -107.5t36.5 -131.5q16 -59 33.5 -98.5t43.5 -64t64.5 -34.5t98.5 -10h18v-76q-96 -12 -143 -12q-127 0 -188 51 q-55 47 -78 125t-45 182q-10 45 -19.5 83t-24 68.5t-38 54.5t-62.5 42q-33 16 -118 16q-25 0 -52.5 -1t-60.5 -3l-96 -491l24 -29l133 -10v-78h-499zM397 707q20 -2 39 -2h37q215 0 326.5 90t111.5 249q0 123 -77.5 180.5t-239.5 57.5q-20 0 -42 -1t-44 -3z" />
<glyph unicode="S" horiz-adv-x="1099" d="M18 70l68 325h107l-21 -235l21 -27q119 -59 227 -59q160 0 255 82t95 217q0 49 -16.5 81.5t-46 58.5t-71.5 47.5t-91 45.5q-80 41 -144.5 79t-109.5 79t-68.5 89t-23.5 110q0 92 35.5 170.5t102 137t160 92.5t208.5 34q88 0 173 -14.5t169 -45.5l-66 -311h-90l8 203 l-25 37q-86 39 -178 39q-72 0 -131 -21.5t-102 -58.5t-66.5 -87.5t-23.5 -107.5q0 -55 18.5 -93t52 -66.5t84 -53t115.5 -55.5q76 -35 133.5 -70t96 -74.5t58 -89t19.5 -114.5q0 -94 -41 -174t-113.5 -138.5t-175 -92.5t-225.5 -34q-207 0 -377 95z" />
<glyph unicode="T" horiz-adv-x="1157" d="M88 1069l59 305h1102l-61 -305h-111l8 191l-22 30h-291l-225 -1171l26 -29l134 -12v-78h-500v78l131 12l33 29l219 1171h-289l-35 -30l-65 -191h-113z" />
<glyph unicode="U" horiz-adv-x="1359" d="M131 311q0 35 7 80t18 101l147 763l-22 31l-131 10v78h497v-78l-133 -10l-33 -31l-145 -745q-18 -96 -19 -154q0 -123 75 -188.5t216 -65.5q94 0 165 25t120 76t81 127t52 180l145 745l-24 31l-133 10v78h428v-78l-129 -10l-35 -31l-150 -763q-10 -51 -20 -98.5 t-26.5 -92.5t-41 -88t-63.5 -82q-72 -72 -180.5 -113t-245.5 -41q-205 0 -312.5 85t-107.5 249z" />
<glyph unicode="V" horiz-adv-x="1208" d="M63 1296v78h429v-78l-115 -10l-15 -31l162 -1067l555 1067l-16 31l-119 10v78h385v-78l-108 -12l-703 -1294h-127l-198 1259l-33 37z" />
<glyph unicode="W" horiz-adv-x="1839" d="M104 1296v78h439v-78l-117 -10l-14 -31l75 -964l508 1083h133l115 -1098l449 979l-17 31l-121 10v78h394v-78l-119 -12l-600 -1284h-117l-121 1124l-522 -1124h-129l-102 1249l-35 37z" />
<glyph unicode="X" horiz-adv-x="1165" d="M-170 0v78l133 12l35 29l510 577l-246 559l-20 31l-131 10v78h497v-78l-135 -10l-31 -31l183 -424l372 424l-12 31l-117 10v78h426v-78l-143 -10l-479 -549l270 -618l21 -29l131 -12v-78h-496v78l133 12l33 29l-201 471l-422 -471l21 -29l133 -12v-78h-465z" />
<glyph unicode="Y" horiz-adv-x="1150" d="M63 1296v78h498v-78l-133 -10l-33 -31l185 -579l428 579l-21 31l-131 10v78h459v-78l-135 -10l-33 -31l-520 -680l-90 -456l26 -29l133 -12v-78h-497v78l129 12l32 29l86 438l-229 698l-20 31z" />
<glyph unicode="Z" d="M-51 0l14 84l967 1192h-508l-45 -27l-70 -192h-106l61 317h909l-18 -86l-969 -1188h586l29 27l82 244h100l-70 -371h-962z" />
<glyph unicode="[" horiz-adv-x="862" d="M100 -272l330 1722h485l-16 -88h-324l-296 -1546h323l-16 -88h-486z" />
<glyph unicode="\" horiz-adv-x="985" d="M72 1374h116l811 -1564h-114z" />
<glyph unicode="]" horiz-adv-x="862" d="M-90 -272l16 88h324l297 1546h-324l17 88h485l-330 -1722h-485z" />
<glyph unicode="^" horiz-adv-x="2048" d="M412 897l522 565h178l520 -565h-92l-518 436l-520 -436h-90z" />
<glyph unicode="_" horiz-adv-x="1024" d="M0 -365h1024v-118h-1024v118z" />
<glyph unicode="`" horiz-adv-x="1024" d="M371 1507h202l123 -389h-102z" />
<glyph unicode="a" horiz-adv-x="1075" d="M35 340q0 203 106 379q78 129 199 198.5t274 69.5q43 0 90.5 -11t94.5 -34l41 45h106q-33 -68 -78 -293l-73 -362q-20 -96 -21 -144q0 -94 111 -94q16 0 44.5 5t69.5 16v-62q-170 -71 -249 -71h-2q-125 0 -125 155v17q-82 -86 -157 -129t-149 -43q-131 0 -206.5 94 t-75.5 264zM205 352q0 -246 178 -246q115 0 242 136l106 540l-82 125h-28q-90 0 -166 -41t-131.5 -114.5t-87 -175t-31.5 -224.5z" />
<glyph unicode="b" horiz-adv-x="1038" d="M51 72l240 1290l-178 33v51l311 61h68q-14 -43 -25.5 -89t-22.5 -99l-88 -481q179 153 301 153h2q117 0 192 -94t75 -254q0 -133 -41 -252t-119 -215t-182.5 -145t-221.5 -49q-168 0 -311 90zM225 147q81 -81 181 -81h2q131 0 235 157q49 74 82 180.5t33 212.5 q0 119 -47 184.5t-123 65.5q-55 0 -113.5 -28.5t-132.5 -79.5z" />
<glyph unicode="c" horiz-adv-x="806" d="M31 352q0 137 44 255t126 208q78 86 174 132t192 46q86 0 138.5 -42t52.5 -101q0 -47 -35 -79t-94 -34l-119 156h-10q-61 0 -117.5 -37t-98.5 -104.5t-66.5 -161.5t-24.5 -209q0 -135 54 -207t150 -72q72 0 154 42t166 128v-94q-96 -100 -193.5 -149t-189.5 -49 q-135 0 -219 99t-84 273z" />
<glyph unicode="d" horiz-adv-x="1071" d="M43 348q0 211 100 371q84 131 208 203.5t253 72.5q86 0 164 -34l72 409l-181 21v57l314 59h53l-219 -1226q-12 -68 -12 -111q0 -86 90 -86q37 0 133 22v-61q-86 -31 -148.5 -45t-103.5 -14q-137 0 -137 145v20.5t2 20.5q-152 -190 -320 -190q-123 0 -195.5 95t-72.5 271z M209 350q0 -123 48 -187.5t128 -64.5q57 0 125 43t137 131l92 521l-98 116q-14 2 -26.5 4t-22.5 2q-70 0 -138.5 -39.5t-123 -113.5t-88 -178.5t-33.5 -233.5z" />
<glyph unicode="e" horiz-adv-x="868" d="M43 354q0 129 48 251t134 214q78 82 170 125t168 43q98 0 154.5 -55t56.5 -148q0 -131 -142.5 -221t-416.5 -108q-6 -43 -6 -95q0 -125 57.5 -195.5t155.5 -70.5q72 0 154.5 42t173.5 126v-96q-190 -184 -398 -184q-145 0 -227 96t-82 276zM225 524q96 6 171 30t126 60.5 t78 81.5t27 95q0 47 -31 78.5t-76 31.5q-90 0 -170 -95.5t-125 -281.5z" />
<glyph unicode="f" horiz-adv-x="598" d="M-309 -334q0 49 45 82l213 -55q72 76 106.5 215t63.5 344l86 588l-137 -15l2 68l155 63q51 266 169 404.5t261 138.5q74 0 122 -37t48 -84q0 -41 -26.5 -68.5t-73.5 -37.5l-168 137q-117 -76 -184 -477h289v-92h-306l-82 -582q-20 -141 -53 -257t-100 -212 q-82 -117 -164 -174t-156 -57q-49 0 -79.5 29.5t-30.5 78.5z" />
<glyph unicode="g" horiz-adv-x="985" d="M-63 -174q0 98 66.5 164.5t205.5 120.5q-2 10 -2 17v17q0 96 82 199q-92 37 -140.5 101.5t-48.5 146.5q0 84 31 156.5t85 126t127 84t157 30.5q49 0 96 -13t94 -38h293v-88h-211q27 -68 27 -135q0 -84 -32 -156t-86 -123t-125 -79.5t-150 -28.5h-15.5t-32.5 2 q-27 -51 -26 -109v-12l325 -148q160 -74 160 -202q0 -57 -38 -111.5t-103.5 -97.5t-155.5 -69.5t-196 -26.5q-180 0 -283.5 74.5t-103.5 197.5zM96 -133q0 -98 77 -162.5t200 -64.5q135 0 210.5 54t75.5 124q0 80 -114 131l-260 121q-188 -43 -189 -203zM262 569 q0 -84 37 -128t100 -44q43 0 86 26t77 70t54.5 104t20.5 130q0 92 -37 139t-102 47q-45 0 -87 -26.5t-75 -72.5t-53.5 -109.5t-20.5 -135.5z" />
<glyph unicode="h" horiz-adv-x="1128" d="M47 0l281 1372l-193 17v51l322 67h63q-20 -74 -39.5 -164t-42.5 -198l-67 -350q121 98 217 146t176 48t126 -44t46 -120q0 -39 -8 -84t-21 -100l-71 -317q-10 -41 -15.5 -74t-5.5 -60q0 -102 105 -102q43 0 114 18v-55q-82 -33 -143.5 -48t-102.5 -15q-149 0 -149 123 q0 47 14 110l88 379q10 45 15.5 78t5.5 53q0 66 -25.5 98.5t-85.5 32.5q-51 0 -129 -41t-174 -127l-127 -694h-174z" />
<glyph unicode="i" horiz-adv-x="587" d="M68 868v54l303 65h53l-148 -766q-6 -35 -6 -51q0 -80 99 -80q55 0 151 31v-64q-170 -71 -286 -71h-3q-131 0 -131 135q0 39 13 106l120 611zM301 1331q0 47 32 79t79 32q45 0 77.5 -33t32.5 -78q0 -47 -32.5 -78.5t-77.5 -31.5q-47 0 -79 31.5t-32 78.5z" />
<glyph unicode="j" horiz-adv-x="550" d="M-262 -334q0 49 45 82l211 -55q39 41 64.5 97t44 126t33 154t30.5 182l92 604l-207 25v47l311 59h74l-114 -729q-10 -66 -21.5 -127t-28 -119.5t-42 -115t-64.5 -109.5q-82 -117 -165 -173t-155 -56q-49 0 -78.5 29.5t-29.5 78.5zM289 1325q0 47 31.5 79t78.5 32 q45 0 78 -32t33 -79t-33 -79t-78 -32q-47 0 -78.5 32t-31.5 79z" />
<glyph unicode="k" horiz-adv-x="1052" d="M51 0l277 1380l-189 11v57l322 59h57l-219 -1020l379 392q105 108 179 108h1q51 0 84 -29.5t33 -74.5q0 -82 -113 -127l-74 80q-66 -47 -131 -103.5t-133 -118.5q57 -133 104.5 -231t90.5 -163.5t87 -98.5t97 -33q23 0 49.5 4t57.5 10v-57q-90 -29 -150.5 -42t-89.5 -13 q-61 0 -106.5 39t-85.5 118l-175 353l-116 -107l-66 -393h-170z" />
<glyph unicode="l" horiz-adv-x="563" d="M109 369l196 1003l-182 21v53l311 61h55q-10 -57 -16 -90t-8 -43l-207 -1030q-12 -61 -17 -102t-5 -64q0 -96 112 -96q27 0 62.5 8t83.5 25v-64q-88 -37 -157 -53t-116 -16q-149 0 -149 149q0 47 37 238z" />
<glyph unicode="m" horiz-adv-x="1669" d="M66 0l170 836l-168 32v54l303 65h51l-37 -194q237 194 385 194h2q78 0 121 -47t45 -139q223 186 375 186q74 0 121 -46t47 -128q0 -68 -25 -172l-70 -317q-10 -41 -16 -75t-6 -59q0 -49 27.5 -75.5t76.5 -26.5q43 0 115 18v-55q-168 -63 -246 -63q-149 0 -149 121 q0 37 16 112l88 379q10 45 14.5 77t4.5 54q0 131 -101 131q-59 0 -132.5 -41t-145.5 -125l-133 -696h-170l123 600q18 98 18 141q0 57 -29.5 89t-83.5 32q-41 0 -116.5 -40t-173.5 -128l-129 -694h-172z" />
<glyph unicode="n" d="M66 0l170 838l-168 30v52l303 67h51l-37 -196q123 98 219 147t178 49q80 0 126 -44t46 -120q0 -39 -8 -83t-20 -99l-70 -317q-10 -45 -16 -79t-6 -57q0 -100 106 -100q41 0 113 18v-57q-160 -61 -246 -61q-150 0 -150 123q0 39 17 110l88 379q10 45 14 78t4 53 q0 68 -25.5 98.5t-84.5 30.5q-53 0 -131 -41t-172 -127l-127 -692h-174z" />
<glyph unicode="o" horiz-adv-x="1028" d="M45 371q0 125 43 242.5t121 205.5q151 170 362 170q160 0 254.5 -107.5t94.5 -293.5q0 -123 -43 -235.5t-123 -205.5q-144 -165 -358 -165h-3q-160 0 -254 104t-94 285zM219 369q0 -147 53.5 -225t145.5 -78q66 0 125 39.5t104 110.5t71.5 169t26.5 215q0 154 -53 231.5 t-147 77.5q-66 0 -125.5 -40t-104.5 -111.5t-70.5 -171t-25.5 -217.5z" />
<glyph unicode="p" horiz-adv-x="1056" d="M-141 -385l121 25l20 22l215 1192l-160 20v52l291 61h53l-24 -125q176 125 309 125q123 0 191.5 -91t68.5 -265q0 -264 -174 -457q-78 -86 -181.5 -134t-207.5 -48q-76 0 -158 39l-67 -381l194 -35v-61h-491v61zM244 137q92 -55 176 -55q135 0 229 125q25 33 48.5 80 t40 102t26.5 115.5t10 122.5q0 123 -50 188.5t-134 65.5q-90 0 -230 -109z" />
<glyph unicode="q" horiz-adv-x="1048" d="M51 352q0 240 135 416q84 111 193.5 170t220.5 59q45 0 93 -14t102 -37l53 51h98q-8 -31 -13 -54t-9 -44l-213 -1245l196 -35v-65h-504v65l125 25l23 24l82 473q-163 -153 -303 -153h-2q-127 0 -202 95t-75 269zM217 342q0 -111 51 -173.5t140 -62.5q113 0 239 123 l98 555l-102 125q-10 2 -20.5 2h-20.5q-137 0 -248 -131q-57 -70 -97 -187.5t-40 -250.5z" />
<glyph unicode="r" horiz-adv-x="815" d="M57 0l170 838l-168 30v52l303 67h41l-65 -280q98 141 192.5 210.5t171.5 69.5q53 0 84 -29.5t31 -76.5q0 -59 -37 -96t-100 -37h-14l-54 110q-76 -29 -127 -64.5t-84.5 -81.5t-54 -103.5t-33.5 -127.5l-84 -481h-172z" />
<glyph unicode="s" horiz-adv-x="757" d="M-35 162q0 47 30 75.5t77 28.5q39 0 88 -37l-37 -102q49 -72 147 -72q88 0 137.5 46t49.5 128q0 59 -38 100.5t-104 90.5q-43 33 -78.5 61.5t-61 57t-40 62.5t-14.5 77q0 63 27.5 119.5t74.5 98.5t111.5 66.5t138.5 24.5q88 0 139.5 -37t51.5 -90q0 -43 -31 -71.5 t-88 -32.5l-86 118q-29 20 -64 21q-61 0 -102 -39t-41 -98q0 -55 41 -95t113 -96q45 -35 83.5 -64.5t65.5 -60t42 -65.5t15 -80q0 -68 -27.5 -125t-76.5 -99t-117.5 -66.5t-152.5 -24.5q-129 0 -201 50t-72 130z" />
<glyph unicode="t" horiz-adv-x="681" d="M90 172q0 25 3 59.5t13 77.5l111 555l-127 -10v61l150 66l102 205h94l-43 -234h295v-88h-311l-107 -547q-4 -29 -8 -51t-4 -39q0 -127 125 -127q68 0 195 41v-65q-209 -90 -316 -90q-172 0 -172 186z" />
<glyph unicode="u" horiz-adv-x="1132" d="M61 868v54l322 67l33 -28l-129 -596q-23 -109 -23 -152q0 -53 32 -83t87 -30q53 0 129 31t162 98l153 740h166l-145 -668q-8 -39 -14.5 -72.5t-6.5 -66.5t29 -56.5t78 -23.5q37 0 115 22v-57q-86 -31 -150.5 -47t-112.5 -16q-122 0 -122 129v21q0 9 2 20 q-203 -170 -371 -170q-92 0 -145.5 50t-53.5 142q0 47 17 123l118 539z" />
<glyph unicode="v" horiz-adv-x="929" d="M-16 872v52l206 67h5q43 0 70.5 -13t45 -43t25.5 -74t14 -105l53 -561q117 150 195 274.5t119 230.5l-39 250q51 41 102 41q53 0 81 -30.5t28 -86.5q0 -106 -137.5 -328t-423.5 -546h-99q29 55 29 133q0 18 -1 36.5t-3 37.5l-51 479q-8 72 -21.5 115t-40.5 59z" />
<glyph unicode="w" horiz-adv-x="1460" d="M0 874v50l236 69l71 -4l45 -807q102 193 198.5 380.5t178.5 379.5l123 14q12 -285 55 -802q129 172 213 307t119 244l-41 239q39 47 105 47q51 0 78.5 -30.5t27.5 -86.5q0 -115 -136 -327.5t-390 -546.5h-119l-49 715q-41 -88 -137.5 -266.5t-253.5 -448.5h-134l17 45 l-55 811z" />
<glyph unicode="x" horiz-adv-x="976" d="M-96 94q0 86 100 105l94 -88q70 37 145.5 133t139.5 250q-41 141 -78 229t-78 127l-170 22v50l207 71q6 0 11.5 1t11.5 1q45 0 74.5 -25.5t52 -76.5t43 -129t47.5 -182q203 411 390 411h1q49 0 83 -33.5t34 -80.5q0 -74 -101 -115l-88 80q-139 -37 -274 -350 q31 -104 53.5 -180t47 -126.5t54 -75t76.5 -24.5q31 0 109 23v-64q-147 -59 -230 -59q-53 0 -87.5 23.5t-59.5 73.5t-45.5 128t-44.5 186q-100 -211 -194.5 -313t-196.5 -102q-59 0 -93 30.5t-34 79.5z" />
<glyph unicode="y" horiz-adv-x="972" d="M-231 -309q0 41 29.5 72.5t80.5 39.5l121 -120q94 6 180 96t178 264l-6 -4l-127 616q-27 141 -82 213l-174 15v45l201 65q6 2 13 2h14q49 0 78.5 -26.5t50 -80.5t37 -137t38.5 -196l68 -346q66 166 144.5 358.5t177.5 419.5h38l162 -53v-43l-104 -62q-55 -63 -101.5 -146 t-91.5 -181.5t-95 -208t-114 -223.5q-141 -258 -278 -386t-266 -128q-76 0 -124 39.5t-48 95.5z" />
<glyph unicode="z" horiz-adv-x="901" d="M-29 39l705 790l-203 -45q-115 59 -180 60q-82 0 -129 -66l108 -131q-36 -65 -94 -65h-2q-43 0 -69.5 31.5t-26.5 88.5q0 53 23.5 105.5t61.5 92.5t88 64.5t103 24.5q47 0 87 -16.5t81 -38.5q41 -20 74 -33.5t66 -13.5q25 0 61 16l39 101l125 -66l-707 -788l199 51 q150 -68 209 -68q78 0 127 74l-113 125q43 74 98 74q43 0 72 -34t29 -89q0 -53 -23.5 -104.5t-62.5 -92.5t-91.5 -65.5t-107.5 -24.5q-43 0 -85 13.5t-82 30.5t-77.5 30.5t-74.5 13.5q-33 0 -66 -18l-49 -89z" />
<glyph unicode="{" horiz-adv-x="995" d="M133 549v90q14 -2 27.5 -2h25.5q137 0 190.5 60.5t53.5 203.5v209q0 176 94 253t305 77h27v-76q-78 -2 -128 -15.5t-80 -42t-42 -74.5t-12 -114v-166q0 -80 -13.5 -140t-44 -103t-82 -71t-126.5 -44q145 -33 206.5 -113t61.5 -233v-170q0 -78 8 -129t35 -83t79 -45.5 t138 -15.5v-79h-51q-109 0 -180.5 18t-114.5 62t-60.5 116t-17.5 178v174q0 152 -55 213.5t-197 61.5h-47z" />
<glyph unicode="|" horiz-adv-x="1024" d="M449 -483v2048h126v-2048h-126z" />
<glyph unicode="}" horiz-adv-x="995" d="M131 -195q86 2 138.5 15.5t79 45.5t34.5 83t8 129v170q0 154 61.5 233.5t206.5 112.5q-78 16 -129 44t-81.5 71t-43 103t-12.5 140v166q0 68 -12 114t-42 74.5t-81 42t-127 15.5v76h27q211 0 305 -77t94 -253v-209q0 -72 12.5 -122t41 -81.5t74.5 -46t116 -14.5h25.5 t27.5 2v-90h-47q-141 0 -196.5 -61.5t-55.5 -213.5v-174q0 -106 -17.5 -178t-60.5 -116t-114.5 -62t-182.5 -18h-49v79z" />
<glyph unicode="~" horiz-adv-x="1705" d="M178 461v133q211 145 387 145q80 0 150.5 -20.5t140.5 -44.5q74 -27 142.5 -49.5t146.5 -22.5q92 0 184 40t201 116v-131q-201 -143 -387 -144q-86 0 -191 35q-106 35 -199.5 69t-189.5 34q-92 0 -183 -41t-202 -119z" />
<glyph unicode="&#xa1;" horiz-adv-x="692" d="M125 80q0 33 35 168l207 782h100l-92 -782q-16 -133 -46 -199.5t-114 -66.5q-90 0 -90 98zM334 1282q0 49 35 83t84 34q47 0 80.5 -35t33.5 -82t-33.5 -82t-80.5 -35q-49 0 -84 34t-35 83z" />
<glyph unicode="&#xa2;" d="M86 383q0 121 38 229.5t108.5 192.5t170 141.5t222.5 77.5l39 207h92l-39 -203h39q152 0 250 -45l-43 -231h-109l10 145q-72 41 -164 41l-161 -844q100 0 180 39l45 152h108l-47 -240q-127 -43 -258 -43h-47l-39 -203h-92l39 207q-166 27 -254 126t-88 251zM260 397 q0 -119 49 -196.5t137 -102.5l160 832q-76 -20 -139.5 -70.5t-109.5 -121t-71.5 -157.5t-25.5 -184z" />
<glyph unicode="&#xa3;" d="M-43 0v117q82 16 138.5 54t93 99.5t60 149.5t42.5 205h-144v94h160q35 336 180.5 507t374.5 171q119 0 188.5 -43t69.5 -103q0 -102 -164 -131l-92 178h-8q-84 0 -144.5 -34.5t-104.5 -107.5t-74.5 -181.5t-53.5 -255.5h377v-94h-395q-53 -338 -295 -475l2 -5 q59 6 94 8.5t47 2.5h609v-156h-961z" />
<glyph unicode="&#xa4;" horiz-adv-x="1241" d="M86 424l207 205q-88 117 -88 256t88 256l-207 205l72 73l207 -207q59 45 121.5 68t134.5 23q141 0 260 -91l204 207l72 -73l-205 -205q86 -115 86 -256q0 -143 -86 -256l205 -205l-72 -74l-204 207q-113 -88 -260 -88q-143 0 -256 88l-207 -207zM309 887q0 -66 24.5 -123 t66.5 -100t99.5 -68t123.5 -25t123 25t99 68t66.5 100t24.5 123q0 63 -24.5 120.5t-66.5 100.5t-99 67.5t-123 24.5t-123.5 -24.5t-99.5 -67.5t-66.5 -100.5t-24.5 -120.5z" />
<glyph unicode="&#xa5;" d="M4 483v84h449l-70 211h-320v84h285l-127 395l-106 21v82h440v-82l-125 -12l-22 -23l178 -553l411 537l-12 28l-98 23v82h375v-82l-123 -25l-297 -391h280v-84h-354l-158 -211h455v-84h-465l-68 -362l29 -29l137 -10v-82h-522v82l150 10l43 29l67 362h-432z" />
<glyph unicode="&#xa6;" horiz-adv-x="1024" d="M449 -350v758h126v-758h-126zM449 674v758h126v-758h-126z" />
<glyph unicode="&#xa7;" horiz-adv-x="1024" d="M8 -223l45 264h101l-7 -184q88 -53 185 -54q53 0 99 16.5t79 44t51.5 63.5t18.5 73q0 45 -21.5 78t-59.5 60.5t-92.5 55t-121.5 62.5q-182 96 -183 276q0 117 79 216.5t233 158.5q-84 47 -123 97.5t-39 121.5q0 76 31.5 138.5t90 108.5t143.5 71.5t192 25.5q68 0 133 -12 t131 -35l-51 -264h-91l9 164q-98 61 -185 61q-51 0 -95 -16t-76.5 -44t-51 -63.5t-18.5 -72.5q0 -41 18.5 -68.5t52 -50t80.5 -46.5t107 -56q111 -59 164 -127t53 -164q0 -53 -21.5 -108.5t-62.5 -106.5t-100.5 -94t-135.5 -72q168 -86 168 -219q0 -72 -32.5 -137.5 t-91 -115.5t-140.5 -80t-178 -30q-141 0 -287 64zM264 592q0 -45 14.5 -80t44 -64.5t74.5 -57.5t107 -58q223 129 223 293q1 149 -235 243q-113 -47 -170.5 -118.5t-57.5 -157.5z" />
<glyph unicode="&#xa8;" horiz-adv-x="1024" d="M334 1313q0 45 30.5 74.5t71.5 29.5q45 0 76 -30.5t31 -73.5t-32 -74t-75 -31q-41 0 -71.5 31t-30.5 74zM715 1313q0 45 31.5 74.5t72.5 29.5q45 0 75 -30.5t30 -73.5t-31 -74t-74 -31q-41 0 -72.5 31t-31.5 74z" />
<glyph unicode="&#xa9;" horiz-adv-x="1843" d="M137 696q0 158 58.5 299.5t171.5 255.5q111 113 256 174.5t305 61.5q156 0 303 -62.5t258 -175.5q109 -111 167 -256t58 -305q0 -154 -62.5 -298t-178.5 -261q-111 -111 -252.5 -167t-305.5 -56q-152 0 -293 59.5t-253 171.5q-115 115 -173.5 257.5t-58.5 301.5zM227 696 q0 -293 205 -497q104 -102 228 -154.5t266 -52.5q141 0 267 52t224 155q100 104 153.5 231t53.5 266q0 141 -53 271.5t-152 228.5q-98 98 -227 152.5t-264 54.5q-141 0 -269.5 -54.5t-226.5 -154.5q-100 -104 -152.5 -230t-52.5 -268zM453 692q0 106 35.5 195.5t102 154 t160 99.5t207.5 35q66 0 138.5 -11.5t150.5 -36.5v-245h-88l-31 153q-76 45 -159 45q-74 0 -135.5 -28.5t-106.5 -79.5t-70.5 -123t-25.5 -156t25.5 -155.5t69.5 -124t103.5 -82t128.5 -29.5q37 0 80 11.5t95 29.5l26 172h88v-256q-72 -25 -147.5 -38t-153.5 -13 q-109 0 -200 36t-156.5 99.5t-101 152.5t-35.5 195z" />
<glyph unicode="&#xaa;" horiz-adv-x="806" d="M27 918q0 143 79 266q59 90 149.5 138t205.5 48q66 0 139 -31l31 31h80q-25 -45 -60 -205l-55 -254q-14 -66 -14 -100q0 -66 82 -66q12 0 33.5 4.5t52.5 10.5v-43q-127 -49 -189 -49q-94 0 -94 108v10q-121 -119 -229 -118q-98 0 -154.5 65.5t-56.5 184.5zM154 926 q0 -172 133 -172q86 0 182 96l80 377l-62 88h-22q-68 0 -124 -29t-98 -80t-65.5 -122.5t-23.5 -157.5z" />
<glyph unicode="&#xab;" horiz-adv-x="905" d="M27 410l30 163l389 273l-26 -135l-283 -219l199 -222l-27 -133zM432 410l31 163l387 273l-25 -135l-282 -219l196 -222l-24 -133z" />
<glyph unicode="&#xac;" horiz-adv-x="1705" d="M254 741v117h1198v-502h-115v385h-1083z" />
<glyph unicode="&#xad;" horiz-adv-x="653" d="M47 424l27 137h458l-26 -137h-459z" />
<glyph unicode="&#xae;" horiz-adv-x="1843" d="M137 696q0 158 58.5 299.5t171.5 255.5q111 113 256 174.5t305 61.5q156 0 303 -62.5t258 -175.5q109 -111 167 -256t58 -305q0 -154 -62.5 -298t-178.5 -261q-111 -111 -252.5 -167t-305.5 -56q-152 0 -293 59.5t-253 171.5q-115 115 -173.5 257.5t-58.5 301.5zM227 696 q0 -293 205 -497q104 -102 228 -154.5t266 -52.5q141 0 267 52t224 155q100 104 153.5 231t53.5 266q0 141 -53 271.5t-152 228.5q-98 98 -227 152.5t-264 54.5q-141 0 -269.5 -54.5t-226.5 -154.5q-100 -104 -152.5 -230t-52.5 -268zM520 1077v70h432q166 0 249 -53.5 t83 -169.5q0 -86 -62.5 -145.5t-185.5 -86.5q94 -14 148 -80q35 -43 46 -89t27 -83q12 -33 29 -54t39.5 -34.5t54 -18.5t76.5 -5v-74q-41 -8 -72.5 -12t-54.5 -4q-94 0 -162 59q-25 20 -40 48t-26 58.5t-21.5 63.5t-24.5 63q-31 70 -75 93.5t-128 23.5h-28.5t-30.5 -2v-307 l129 -14v-76h-392v74l109 14v721zM793 727q14 -2 26 -2h25q262 0 262 170q0 86 -65.5 132t-194.5 46q-12 0 -25.5 -1t-27.5 -3v-342z" />
<glyph unicode="&#xaf;" horiz-adv-x="1024" d="M317 1260l19 104h616l-18 -104h-617z" />
<glyph unicode="&#xb0;" horiz-adv-x="673" d="M55 1171q0 59 22.5 111.5t60.5 90.5t89.5 59.5t110.5 21.5q57 0 109.5 -22.5t90 -60.5t60.5 -90t23 -110q0 -57 -23 -108t-60.5 -90t-90 -61.5t-111.5 -22.5t-110.5 21.5t-89.5 60.5t-59.5 90t-21.5 110zM135 1171q0 -43 16.5 -79.5t44 -64.5t64.5 -43t78 -15q43 0 80 16 t63.5 44t42 64.5t15.5 77.5q0 84 -57.5 142.5t-143.5 58.5q-84 0 -143.5 -57.5t-59.5 -143.5z" />
<glyph unicode="&#xb1;" horiz-adv-x="1705" d="M254 41v117h1198v-117h-1198zM254 719v117h541v344h118v-344h539v-117h-539v-344h-118v344h-541z" />
<glyph unicode="&#xb2;" horiz-adv-x="751" d="M-31 549l17 78q141 88 249.5 161.5t182.5 140t111.5 130t37.5 133.5q0 63 -37.5 98t-109.5 35q-59 0 -127 -29l-29 -131q-31 -18 -63 -18q-29 0 -46.5 13.5t-17.5 35.5q0 53 58 102q49 41 119.5 66t148.5 25q115 0 175 -49.5t60 -135.5q0 -68 -36.5 -130t-109.5 -128.5 t-180.5 -139.5t-246.5 -161h405l48 105h61l-43 -201h-627z" />
<glyph unicode="&#xb3;" horiz-adv-x="751" d="M2 668q0 33 19.5 51t54.5 18q23 0 47 -8l20 -106q49 -29 113 -29q55 0 101 17.5t80 46t53.5 68.5t19.5 87q0 63 -43 98t-123 35q-18 0 -37.5 -1t-42.5 -3l10 70q10 -2 17.5 -2h15.5q117 0 185.5 55t68.5 133q0 61 -40 97t-111 36q-63 0 -129 -41l-19 -116 q-20 -6 -35.5 -10.5t-27.5 -4.5q-25 0 -42.5 15.5t-17.5 42.5q0 31 23.5 61.5t66.5 55t102.5 40t129.5 15.5q111 0 171 -46.5t60 -121.5q0 -78 -66.5 -141.5t-193.5 -92.5q98 -4 152.5 -46t54.5 -114q0 -61 -38 -120.5t-107 -104.5q-109 -68 -252 -67q-109 0 -174.5 38.5 t-65.5 94.5z" />
<glyph unicode="&#xb4;" horiz-adv-x="1024" d="M518 1118l273 389h202l-375 -389h-100z" />
<glyph unicode="&#xb5;" horiz-adv-x="1120" d="M-80 -330q0 31 15.5 90.5t39 146.5t54 202.5t61.5 261.5l109 514h147l-104 -492q-12 -61 -13 -112q0 -84 42 -129.5t118 -45.5q199 0 258 269l111 510h149l-114 -531q-10 -45 -15.5 -77.5t-5.5 -59.5q0 -49 25.5 -78.5t66.5 -29.5q72 0 117 69q18 27 27.5 54.5t16.5 49 t15.5 36t20.5 14.5q27 0 26 -37q0 -18 -9 -58t-31 -92q-74 -164 -230 -163q-66 0 -107.5 49t-41.5 141v23q-92 -217 -281 -218q-194 1 -223 216q-31 -154 -43 -267.5t-24.5 -190.5t-33 -115t-63.5 -38q-37 0 -58.5 23.5t-21.5 64.5z" />
<glyph unicode="&#xb6;" horiz-adv-x="991" d="M53 971q0 215 118 309t366 94h401v-74l-127 -20v-1442h-100v1452h-156v-715h-37q-465 0 -465 396z" />
<glyph unicode="&#xb7;" horiz-adv-x="569" d="M162 686q0 51 35 87t86 36t87 -36t36 -87t-36 -86t-87 -35q-49 0 -85 35t-36 86z" />
<glyph unicode="&#xb8;" horiz-adv-x="1024" d="M125 -436l14 74q59 -16 119 -17q72 0 113 30t41 77q0 57 -88 57q-10 0 -20.5 -1t-22.5 -3l43 219h73l-24 -125q14 2 25.5 2h17.5q129 0 129 -115q0 -92 -76 -155.5t-205 -63.5q-70 0 -139 21z" />
<glyph unicode="&#xb9;" horiz-adv-x="751" d="M113 549v53l139 6l22 23l136 637l-15 12l-196 -23v50l315 82h33l-160 -764l12 -19l117 -6v-51h-403z" />
<glyph unicode="&#xba;" horiz-adv-x="772" d="M35 940q0 86 31.5 169t91.5 144q112 119 270 119q121 0 191.5 -74.5t70.5 -205.5q0 -86 -32.5 -165t-92.5 -145q-109 -115 -270 -114q-119 0 -189.5 72.5t-70.5 199.5zM164 938q0 -104 40 -158.5t109 -54.5q49 0 93.5 27.5t78 78t54 119t20.5 150.5q0 106 -39.5 161.5 t-109.5 55.5q-49 0 -94.5 -27.5t-79 -79t-53 -121t-19.5 -151.5z" />
<glyph unicode="&#xbb;" horiz-adv-x="905" d="M-12 137l24 133l283 222l-197 219l25 135l285 -273l-31 -163zM391 137l27 133l282 222l-198 219l26 135l283 -273l-31 -163z" />
<glyph unicode="&#xbc;" horiz-adv-x="1775" d="M104 604v49l136 6l20 21l129 596l-14 10l-187 -20v47l301 73h31l-153 -710l12 -19l113 -4v-49h-388zM254 0l1141 1374h125l-1141 -1374h-125zM1059 223l16 74l543 479h76l-103 -479h144l-17 -74h-145l-55 -266h-101l58 266h-416zM1171 297h320l76 354z" />
<glyph unicode="&#xbd;" horiz-adv-x="1775" d="M104 604v49l136 6l20 21l129 596l-14 10l-187 -20v47l301 73h31l-153 -710l12 -19l113 -4v-49h-388zM254 0l1141 1374h125l-1141 -1374h-125zM1030 0l17 72q133 82 236 150.5t174 131t106.5 122t35.5 124.5q0 59 -36.5 92t-104.5 33q-53 0 -121 -29l-26 -121 q-31 -18 -62 -18q-29 0 -44 13.5t-15 33.5q0 49 55 96q47 37 114.5 59.5t139.5 22.5q111 0 169 -45t58 -127q0 -61 -35.5 -119.5t-105 -120t-172 -130t-235.5 -150.5h389l43 98h57l-39 -188h-598z" />
<glyph unicode="&#xbe;" horiz-adv-x="1777" d="M2 715q0 29 18.5 47t51.5 18q23 0 45 -8l20 -98q51 -29 109 -29q51 0 96 15.5t77 43t50 65.5t18 81q0 59 -40.5 92t-116.5 33q-18 0 -37 -1t-41 -3l10 65q10 -2 17.5 -2h15.5q109 0 174.5 52.5t65.5 123.5q0 57 -39 90t-105 33q-61 0 -123 -37l-18 -110q-18 -4 -33.5 -8 t-26.5 -4q-25 0 -41 14t-16 39q0 29 22.5 57.5t63.5 51t97.5 36.5t123.5 14q104 0 163 -41.5t59 -113.5q0 -74 -63.5 -132t-186.5 -85q96 -4 146 -44t50 -106q0 -57 -35.5 -112.5t-101.5 -96.5q-104 -63 -240 -63q-104 0 -166.5 36t-62.5 87zM254 0l1141 1374h125 l-1141 -1374h-125zM1059 223l16 74l543 479h76l-103 -479h144l-17 -74h-145l-55 -266h-101l58 266h-416zM1171 297h320l76 354z" />
<glyph unicode="&#xbf;" horiz-adv-x="995" d="M57 274q0 334 467 517l45 239h107l-58 -299q-186 -66 -279 -179.5t-93 -260.5q0 -215 241 -215h7l122 203q10 2 19.5 2h17.5q104 0 105 -80q0 -43 -24.5 -83t-68.5 -71t-106.5 -48t-138.5 -17q-174 0 -268.5 78.5t-94.5 213.5zM543 1282q0 49 34.5 83t81.5 34t82 -35 t35 -82t-34.5 -82t-82.5 -35q-49 0 -82.5 34t-33.5 83z" />
<glyph unicode="&#xc0;" horiz-adv-x="1241" d="M-162 0v78l113 12l756 1296h135l219 -1261l35 -37l100 -10v-78h-448v78l120 10l15 29l-64 391h-497l-220 -391l17 -29l125 -10v-78h-406zM373 596h428l-94 590zM535 1900h202l123 -389h-102z" />
<glyph unicode="&#xc1;" horiz-adv-x="1241" d="M-162 0v78l113 12l756 1296h135l219 -1261l35 -37l100 -10v-78h-448v78l120 10l15 29l-64 391h-497l-220 -391l17 -29l125 -10v-78h-406zM373 596h428l-94 590zM682 1511l273 389h202l-375 -389h-100z" />
<glyph unicode="&#xc2;" horiz-adv-x="1241" d="M-162 0v78l113 12l756 1296h135l219 -1261l35 -37l100 -10v-78h-448v78l120 10l15 29l-64 391h-497l-220 -391l17 -29l125 -10v-78h-406zM373 596h428l-94 590zM467 1511l299 389h133l152 -389h-113l-125 289l-233 -289h-113z" />
<glyph unicode="&#xc3;" horiz-adv-x="1241" d="M-162 0v78l113 12l756 1296h135l219 -1261l35 -37l100 -10v-78h-448v78l120 10l15 29l-64 391h-497l-220 -391l17 -29l125 -10v-78h-406zM373 596h428l-94 590zM457 1567q18 123 74.5 184t146.5 61q41 0 78 -16.5t69.5 -36.5t62.5 -36.5t56 -16.5q84 0 105 137h86 q-14 -117 -77 -181.5t-140 -64.5q-45 0 -86 16.5t-76 35t-64.5 35t-50.5 16.5q-35 0 -63.5 -35t-32.5 -98h-88z" />
<glyph unicode="&#xc4;" horiz-adv-x="1241" d="M-162 0v78l113 12l756 1296h135l219 -1261l35 -37l100 -10v-78h-448v78l120 10l15 29l-64 391h-497l-220 -391l17 -29l125 -10v-78h-406zM373 596h428l-94 590zM498 1706q0 45 30.5 74.5t71.5 29.5q45 0 76 -30.5t31 -73.5t-32 -74t-75 -31q-41 0 -71.5 31t-30.5 74z M879 1706q0 45 31.5 74.5t72.5 29.5q45 0 75 -30.5t30 -73.5t-31 -74t-74 -31q-41 0 -72.5 31t-31.5 74z" />
<glyph unicode="&#xc5;" horiz-adv-x="1241" d="M-162 0v78l113 12l756 1296h135l219 -1261l35 -37l100 -10v-78h-448v78l120 10l15 29l-64 391h-497l-220 -391l17 -29l125 -10v-78h-406zM373 596h428l-94 590zM561 1761q0 51 19.5 96.5t52.5 78t77 52t95 19.5t96 -19.5t78 -52t52.5 -78t19.5 -96.5t-18.5 -96t-51.5 -78 t-78 -51t-96 -18t-96 18t-78 51t-52.5 78t-19.5 96zM653 1761q0 -63 45 -107t109 -44q66 0 110 44t44 107q0 66 -44 109t-110 43q-63 0 -108.5 -43t-45.5 -109z" />
<glyph unicode="&#xc6;" horiz-adv-x="1787" d="M-236 0v78l125 26l934 1145l-12 31l-119 12v82h1108l-59 -299h-96v174l-23 31h-440l-101 -518h312l34 29l48 149h88l-88 -451h-84l8 148l-23 29h-313l-111 -572h523l34 33l72 207h94l-65 -334h-989v78l129 12l32 29l80 405h-493l-326 -399l4 -29l131 -18v-78h-414z M446 621h435l131 692z" />
<glyph unicode="&#xc7;" horiz-adv-x="1236" d="M84 543q0 201 83 378t234 302q106 86 233.5 131t268.5 45q174 0 371 -70l-57 -315h-87v196l-16 39q-100 53 -217 54q-102 0 -194.5 -36t-167.5 -104q-121 -109 -188.5 -275.5t-67.5 -369.5q0 -213 110.5 -329.5t315.5 -116.5q84 0 176 28l39 35l90 236h88l-56 -324 q-215 -72 -407 -72q-127 0 -228.5 40t-173 114t-110.5 179.5t-39 234.5zM371 -436l14 74q59 -16 119 -17q72 0 113 30t41 77q0 57 -88 57q-10 0 -20.5 -1t-22.5 -3l43 219h73l-24 -125q14 2 25.5 2h17.5q129 0 129 -115q0 -92 -76 -155.5t-205 -63.5q-70 0 -139 21z" />
<glyph unicode="&#xc8;" horiz-adv-x="1118" d="M-49 0v78l129 12l35 29l219 1136l-23 31l-131 10v78h953l-58 -299h-98v174l-23 31h-440l-100 -518h311l37 29l45 149h88l-86 -451h-84l8 148l-24 29h-314l-110 -572h522l37 33l69 207h95l-66 -334h-991zM473 1900h202l123 -389h-102z" />
<glyph unicode="&#xc9;" horiz-adv-x="1118" d="M-49 0v78l129 12l35 29l219 1136l-23 31l-131 10v78h953l-58 -299h-98v174l-23 31h-440l-100 -518h311l37 29l45 149h88l-86 -451h-84l8 148l-24 29h-314l-110 -572h522l37 33l69 207h95l-66 -334h-991zM620 1511l273 389h202l-375 -389h-100z" />
<glyph unicode="&#xca;" horiz-adv-x="1118" d="M-49 0v78l129 12l35 29l219 1136l-23 31l-131 10v78h953l-58 -299h-98v174l-23 31h-440l-100 -518h311l37 29l45 149h88l-86 -451h-84l8 148l-24 29h-314l-110 -572h522l37 33l69 207h95l-66 -334h-991zM405 1511l299 389h133l152 -389h-113l-125 289l-233 -289h-113z " />
<glyph unicode="&#xcb;" horiz-adv-x="1118" d="M-49 0v78l129 12l35 29l219 1136l-23 31l-131 10v78h953l-58 -299h-98v174l-23 31h-440l-100 -518h311l37 29l45 149h88l-86 -451h-84l8 148l-24 29h-314l-110 -572h522l37 33l69 207h95l-66 -334h-991zM436 1706q0 45 30.5 74.5t71.5 29.5q45 0 76 -30.5t31 -73.5 t-32 -74t-75 -31q-41 0 -71.5 31t-30.5 74zM817 1706q0 45 31.5 74.5t72.5 29.5q45 0 75 -30.5t30 -73.5t-31 -74t-74 -31q-41 0 -72.5 31t-31.5 74z" />
<glyph unicode="&#xcc;" horiz-adv-x="638" d="M-47 0v78l131 12l33 29l219 1136l-23 31l-131 10v78h500v-78l-135 -10l-33 -31l-219 -1136l24 -29l134 -12v-78h-500zM236 1900h202l123 -389h-102z" />
<glyph unicode="&#xcd;" horiz-adv-x="638" d="M-47 0v78l131 12l33 29l219 1136l-23 31l-131 10v78h500v-78l-135 -10l-33 -31l-219 -1136l24 -29l134 -12v-78h-500zM383 1511l273 389h202l-375 -389h-100z" />
<glyph unicode="&#xce;" horiz-adv-x="638" d="M-47 0v78l131 12l33 29l219 1136l-23 31l-131 10v78h500v-78l-135 -10l-33 -31l-219 -1136l24 -29l134 -12v-78h-500zM168 1511l299 389h133l152 -389h-113l-125 289l-233 -289h-113z" />
<glyph unicode="&#xcf;" horiz-adv-x="638" d="M-47 0v78l131 12l33 29l219 1136l-23 31l-131 10v78h500v-78l-135 -10l-33 -31l-219 -1136l24 -29l134 -12v-78h-500zM199 1706q0 45 30.5 74.5t71.5 29.5q45 0 76 -30.5t31 -73.5t-32 -74t-75 -31q-41 0 -71.5 31t-30.5 74zM580 1706q0 45 31.5 74.5t72.5 29.5 q45 0 75 -30.5t30 -73.5t-31 -74t-74 -31q-41 0 -72.5 31t-31.5 74z" />
<glyph unicode="&#xd0;" horiz-adv-x="1374" d="M-57 0v78l131 12l32 29l109 559h-176l10 94h184l93 483l-21 31l-131 10v78h465q317 0 477 -133t160 -389q0 -180 -64.5 -342t-187.5 -283t-280.5 -174t-368.5 -53h-432zM287 96h112q168 0 296 55.5t208 159.5q78 104 126 253t48 308q0 209 -111.5 308.5t-342.5 99.5h-113 l-96 -508h307l-19 -94h-309z" />
<glyph unicode="&#xd1;" horiz-adv-x="1398" d="M-63 0v78l131 12l32 29l219 1136l-20 31l-133 10v78h352v-51l490 -1038l188 970l-20 31l-132 10v78h431v-78l-132 -10l-32 -31l-240 -1255h-119l-538 1139l-199 -1020l23 -29l131 -12v-78h-432zM535 1567q18 123 74.5 184t146.5 61q41 0 78 -16.5t69.5 -36.5t62.5 -36.5 t56 -16.5q84 0 105 137h86q-14 -117 -77 -181.5t-140 -64.5q-45 0 -86 16.5t-76 35t-64.5 35t-50.5 16.5q-35 0 -63.5 -35t-32.5 -98h-88z" />
<glyph unicode="&#xd2;" horiz-adv-x="1449" d="M84 530q0 160 49 307.5t143 270.5q104 139 249.5 214t303.5 75q98 0 179.5 -24.5t142.5 -69.5q104 -78 161.5 -193t57.5 -250q0 -174 -48 -325.5t-140 -270.5q-106 -139 -252 -214t-305 -75q-119 0 -218.5 41t-171 115t-111.5 175.5t-40 223.5zM281 518q0 -102 25.5 -185 t72.5 -140.5t111.5 -88t144.5 -30.5q215 0 373 231q74 111 117.5 255t43.5 298q0 209 -97 327t-257 118q-104 0 -199.5 -57.5t-173.5 -174.5q-76 -111 -118.5 -256t-42.5 -297zM639 1900h202l123 -389h-102z" />
<glyph unicode="&#xd3;" horiz-adv-x="1449" d="M84 530q0 160 49 307.5t143 270.5q104 139 249.5 214t303.5 75q98 0 179.5 -24.5t142.5 -69.5q104 -78 161.5 -193t57.5 -250q0 -174 -48 -325.5t-140 -270.5q-106 -139 -252 -214t-305 -75q-119 0 -218.5 41t-171 115t-111.5 175.5t-40 223.5zM281 518q0 -102 25.5 -185 t72.5 -140.5t111.5 -88t144.5 -30.5q215 0 373 231q74 111 117.5 255t43.5 298q0 209 -97 327t-257 118q-104 0 -199.5 -57.5t-173.5 -174.5q-76 -111 -118.5 -256t-42.5 -297zM786 1511l273 389h202l-375 -389h-100z" />
<glyph unicode="&#xd4;" horiz-adv-x="1449" d="M84 530q0 160 49 307.5t143 270.5q104 139 249.5 214t303.5 75q98 0 179.5 -24.5t142.5 -69.5q104 -78 161.5 -193t57.5 -250q0 -174 -48 -325.5t-140 -270.5q-106 -139 -252 -214t-305 -75q-119 0 -218.5 41t-171 115t-111.5 175.5t-40 223.5zM281 518q0 -102 25.5 -185 t72.5 -140.5t111.5 -88t144.5 -30.5q215 0 373 231q74 111 117.5 255t43.5 298q0 209 -97 327t-257 118q-104 0 -199.5 -57.5t-173.5 -174.5q-76 -111 -118.5 -256t-42.5 -297zM571 1511l299 389h133l152 -389h-113l-125 289l-233 -289h-113z" />
<glyph unicode="&#xd5;" horiz-adv-x="1449" d="M84 530q0 160 49 307.5t143 270.5q104 139 249.5 214t303.5 75q98 0 179.5 -24.5t142.5 -69.5q104 -78 161.5 -193t57.5 -250q0 -174 -48 -325.5t-140 -270.5q-106 -139 -252 -214t-305 -75q-119 0 -218.5 41t-171 115t-111.5 175.5t-40 223.5zM281 518q0 -102 25.5 -185 t72.5 -140.5t111.5 -88t144.5 -30.5q215 0 373 231q74 111 117.5 255t43.5 298q0 209 -97 327t-257 118q-104 0 -199.5 -57.5t-173.5 -174.5q-76 -111 -118.5 -256t-42.5 -297zM561 1567q18 123 74.5 184t146.5 61q41 0 78 -16.5t69.5 -36.5t62.5 -36.5t56 -16.5 q84 0 105 137h86q-14 -117 -77 -181.5t-140 -64.5q-45 0 -86 16.5t-76 35t-64.5 35t-50.5 16.5q-35 0 -63.5 -35t-32.5 -98h-88z" />
<glyph unicode="&#xd6;" horiz-adv-x="1449" d="M84 530q0 160 49 307.5t143 270.5q104 139 249.5 214t303.5 75q98 0 179.5 -24.5t142.5 -69.5q104 -78 161.5 -193t57.5 -250q0 -174 -48 -325.5t-140 -270.5q-106 -139 -252 -214t-305 -75q-119 0 -218.5 41t-171 115t-111.5 175.5t-40 223.5zM281 518q0 -102 25.5 -185 t72.5 -140.5t111.5 -88t144.5 -30.5q215 0 373 231q74 111 117.5 255t43.5 298q0 209 -97 327t-257 118q-104 0 -199.5 -57.5t-173.5 -174.5q-76 -111 -118.5 -256t-42.5 -297zM602 1706q0 45 30.5 74.5t71.5 29.5q45 0 76 -30.5t31 -73.5t-32 -74t-75 -31q-41 0 -71.5 31 t-30.5 74zM983 1706q0 45 31.5 74.5t72.5 29.5q45 0 75 -30.5t30 -73.5t-31 -74t-74 -31q-41 0 -72.5 31t-31.5 74z" />
<glyph unicode="&#xd7;" horiz-adv-x="1705" d="M301 135l475 475l-475 477l80 82l477 -477l475 477l82 -82l-475 -477l475 -475l-82 -82l-475 475l-477 -475z" />
<glyph unicode="&#xd8;" horiz-adv-x="1449" d="M86 539q0 158 48 302t142 267q106 139 252 214t310 75q133 0 235 -51l113 176l76 -47l-113 -172q111 -84 166 -196t55 -247q0 -174 -48 -325.5t-140 -270.5q-106 -139 -251 -214t-304 -75q-156 0 -295 76l-131 -203l-66 50l131 202q-88 72 -134 182.5t-46 256.5zM268 526 q0 -168 76 -301l666 1024q-88 53 -193 54q-119 0 -213 -56.5t-174 -173.5q-76 -111 -119 -255t-43 -292zM406 162q102 -94 237 -94q219 0 377 231q74 111 118 255t44 294q0 217 -107 344z" />
<glyph unicode="&#xd9;" horiz-adv-x="1359" d="M131 311q0 35 7 80t18 101l147 763l-22 31l-131 10v78h497v-78l-133 -10l-33 -31l-145 -745q-18 -96 -19 -154q0 -123 75 -188.5t216 -65.5q94 0 165 25t120 76t81 127t52 180l145 745l-24 31l-133 10v78h428v-78l-129 -10l-35 -31l-150 -763q-10 -51 -20 -98.5 t-26.5 -92.5t-41 -88t-63.5 -82q-72 -72 -180.5 -113t-245.5 -41q-205 0 -312.5 85t-107.5 249zM594 1900h202l123 -389h-102z" />
<glyph unicode="&#xda;" horiz-adv-x="1359" d="M131 311q0 35 7 80t18 101l147 763l-22 31l-131 10v78h497v-78l-133 -10l-33 -31l-145 -745q-18 -96 -19 -154q0 -123 75 -188.5t216 -65.5q94 0 165 25t120 76t81 127t52 180l145 745l-24 31l-133 10v78h428v-78l-129 -10l-35 -31l-150 -763q-10 -51 -20 -98.5 t-26.5 -92.5t-41 -88t-63.5 -82q-72 -72 -180.5 -113t-245.5 -41q-205 0 -312.5 85t-107.5 249zM741 1511l273 389h202l-375 -389h-100z" />
<glyph unicode="&#xdb;" horiz-adv-x="1359" d="M131 311q0 35 7 80t18 101l147 763l-22 31l-131 10v78h497v-78l-133 -10l-33 -31l-145 -745q-18 -96 -19 -154q0 -123 75 -188.5t216 -65.5q94 0 165 25t120 76t81 127t52 180l145 745l-24 31l-133 10v78h428v-78l-129 -10l-35 -31l-150 -763q-10 -51 -20 -98.5 t-26.5 -92.5t-41 -88t-63.5 -82q-72 -72 -180.5 -113t-245.5 -41q-205 0 -312.5 85t-107.5 249zM526 1511l299 389h133l152 -389h-113l-125 289l-233 -289h-113z" />
<glyph unicode="&#xdc;" horiz-adv-x="1359" d="M131 311q0 35 7 80t18 101l147 763l-22 31l-131 10v78h497v-78l-133 -10l-33 -31l-145 -745q-18 -96 -19 -154q0 -123 75 -188.5t216 -65.5q94 0 165 25t120 76t81 127t52 180l145 745l-24 31l-133 10v78h428v-78l-129 -10l-35 -31l-150 -763q-10 -51 -20 -98.5 t-26.5 -92.5t-41 -88t-63.5 -82q-72 -72 -180.5 -113t-245.5 -41q-205 0 -312.5 85t-107.5 249zM557 1706q0 45 30.5 74.5t71.5 29.5q45 0 76 -30.5t31 -73.5t-32 -74t-75 -31q-41 0 -71.5 31t-30.5 74zM938 1706q0 45 31.5 74.5t72.5 29.5q45 0 75 -30.5t30 -73.5t-31 -74 t-74 -31q-41 0 -72.5 31t-31.5 74z" />
<glyph unicode="&#xdd;" horiz-adv-x="1150" d="M63 1296v78h498v-78l-133 -10l-33 -31l185 -579l428 579l-21 31l-131 10v78h459v-78l-135 -10l-33 -31l-520 -680l-90 -456l26 -29l133 -12v-78h-497v78l129 12l32 29l86 438l-229 698l-20 31zM637 1511l273 389h202l-375 -389h-100z" />
<glyph unicode="&#xde;" horiz-adv-x="1089" d="M-59 0v78l129 12l32 29l222 1138l-25 29l-129 10v78h498v-78l-133 -10l-33 -29l-27 -141h80q254 0 379 -77.5t125 -256.5q0 -111 -44 -207t-125 -166.5t-195.5 -110.5t-256.5 -40q-27 0 -59.5 1t-71.5 3l-28 -143l14 -29l131 -12v-78h-483zM326 358q20 -2 39.5 -3 t37.5 -1q223 0 343 107.5t120 298.5q0 141 -79.5 204.5t-247.5 63.5q-20 0 -40 -1t-42 -3z" />
<glyph unicode="&#xdf;" horiz-adv-x="1175" d="M-309 -334q0 49 45 82l213 -55q72 76 106.5 215t63.5 344l86 588q98 672 561 671q145 0 224 -71.5t79 -196.5q0 -53 -15 -139t-50 -209q-55 6 -89 6q-113 0 -172 -41t-59 -106q0 -51 41 -91t113 -96q45 -35 82.5 -64.5t65.5 -60t42 -65.5t14 -80q0 -68 -27.5 -125 t-76.5 -99t-117.5 -66.5t-152.5 -24.5q-129 0 -200 50t-71 130q0 47 30 75.5t77 28.5q39 0 88 -37l-37 -102q49 -72 145 -72q88 0 138.5 46t50.5 128q0 59 -38 100.5t-103 90.5q-43 33 -79 61.5t-61.5 57t-40 62.5t-14.5 77q0 59 23.5 112.5t66.5 94.5t104.5 67.5 t137.5 32.5q47 160 47 264q0 84 -45 128t-131 44q-160 0 -254 -134t-135 -404l-93 -625q-20 -139 -50.5 -255t-102.5 -214q-82 -117 -164 -174t-156 -57q-49 0 -79.5 29.5t-30.5 78.5z" />
<glyph unicode="&#xe0;" horiz-adv-x="1075" d="M35 340q0 203 106 379q78 129 199 198.5t274 69.5q43 0 90.5 -11t94.5 -34l41 45h106q-33 -68 -78 -293l-73 -362q-20 -96 -21 -144q0 -94 111 -94q16 0 44.5 5t69.5 16v-62q-172 -72 -251 -71q-125 0 -125 155v17q-82 -86 -157 -129t-149 -43q-131 0 -206.5 94 t-75.5 264zM205 352q0 -246 178 -246q115 0 242 136l106 540l-82 125h-28q-90 0 -166 -41t-131.5 -114.5t-87 -175t-31.5 -224.5zM398 1507h202l123 -389h-102z" />
<glyph unicode="&#xe1;" horiz-adv-x="1075" d="M35 340q0 203 106 379q78 129 199 198.5t274 69.5q43 0 90.5 -11t94.5 -34l41 45h106q-33 -68 -78 -293l-73 -362q-20 -96 -21 -144q0 -94 111 -94q16 0 44.5 5t69.5 16v-62q-172 -72 -251 -71q-125 0 -125 155v17q-82 -86 -157 -129t-149 -43q-131 0 -206.5 94 t-75.5 264zM205 352q0 -246 178 -246q115 0 242 136l106 540l-82 125h-28q-90 0 -166 -41t-131.5 -114.5t-87 -175t-31.5 -224.5zM545 1118l273 389h202l-375 -389h-100z" />
<glyph unicode="&#xe2;" horiz-adv-x="1075" d="M35 340q0 203 106 379q78 129 199 198.5t274 69.5q43 0 90.5 -11t94.5 -34l41 45h106q-33 -68 -78 -293l-73 -362q-20 -96 -21 -144q0 -94 111 -94q16 0 44.5 5t69.5 16v-62q-172 -72 -251 -71q-125 0 -125 155v17q-82 -86 -157 -129t-149 -43q-131 0 -206.5 94 t-75.5 264zM205 352q0 -246 178 -246q115 0 242 136l106 540l-82 125h-28q-90 0 -166 -41t-131.5 -114.5t-87 -175t-31.5 -224.5zM330 1118l299 389h133l152 -389h-113l-125 289l-233 -289h-113z" />
<glyph unicode="&#xe3;" horiz-adv-x="1075" d="M35 340q0 203 106 379q78 129 199 198.5t274 69.5q43 0 90.5 -11t94.5 -34l41 45h106q-33 -68 -78 -293l-73 -362q-20 -96 -21 -144q0 -94 111 -94q16 0 44.5 5t69.5 16v-62q-172 -72 -251 -71q-125 0 -125 155v17q-82 -86 -157 -129t-149 -43q-131 0 -206.5 94 t-75.5 264zM205 352q0 -246 178 -246q115 0 242 136l106 540l-82 125h-28q-90 0 -166 -41t-131.5 -114.5t-87 -175t-31.5 -224.5zM320 1174q18 123 74.5 184t146.5 61q41 0 78 -16.5t69.5 -36.5t62.5 -36.5t56 -16.5q84 0 105 137h86q-14 -117 -77 -181.5t-140 -64.5 q-45 0 -86 16.5t-76 35t-64.5 35t-50.5 16.5q-35 0 -63.5 -35t-32.5 -98h-88z" />
<glyph unicode="&#xe4;" horiz-adv-x="1075" d="M35 340q0 203 106 379q78 129 199 198.5t274 69.5q43 0 90.5 -11t94.5 -34l41 45h106q-33 -68 -78 -293l-73 -362q-20 -96 -21 -144q0 -94 111 -94q16 0 44.5 5t69.5 16v-62q-172 -72 -251 -71q-125 0 -125 155v17q-82 -86 -157 -129t-149 -43q-131 0 -206.5 94 t-75.5 264zM205 352q0 -246 178 -246q115 0 242 136l106 540l-82 125h-28q-90 0 -166 -41t-131.5 -114.5t-87 -175t-31.5 -224.5zM361 1313q0 45 30.5 74.5t71.5 29.5q45 0 76 -30.5t31 -73.5t-32 -74t-75 -31q-41 0 -71.5 31t-30.5 74zM742 1313q0 45 31.5 74.5t72.5 29.5 q45 0 75 -30.5t30 -73.5t-31 -74t-74 -31q-41 0 -72.5 31t-31.5 74z" />
<glyph unicode="&#xe5;" horiz-adv-x="1075" d="M35 340q0 203 106 379q78 129 199 198.5t274 69.5q43 0 90.5 -11t94.5 -34l41 45h106q-33 -68 -78 -293l-73 -362q-20 -96 -21 -144q0 -94 111 -94q16 0 44.5 5t69.5 16v-62q-172 -72 -251 -71q-125 0 -125 155v17q-82 -86 -157 -129t-149 -43q-131 0 -206.5 94 t-75.5 264zM205 352q0 -246 178 -246q115 0 242 136l106 540l-82 125h-28q-90 0 -166 -41t-131.5 -114.5t-87 -175t-31.5 -224.5zM430 1337q0 45 17.5 86t47 71t69.5 47.5t87 17.5q45 0 86 -17.5t71 -47.5t47 -71t17 -86q0 -47 -17 -87t-47 -68.5t-70 -46t-87 -17.5 t-87 17.5t-69.5 46t-47 68.5t-17.5 87zM514 1337q0 -57 40 -96t97 -39t97 40t40 95q0 57 -40 97.5t-97 40.5t-97 -39t-40 -99z" />
<glyph unicode="&#xe6;" horiz-adv-x="1374" d="M4 190q0 301 586 359l24 125q12 57 13 98q0 127 -138 127q-59 0 -137 -33l-33 -168h-200q0 61 31.5 114.5t89 92.5t136.5 60.5t173 21.5q180 0 221 -137q84 68 156.5 102.5t148.5 34.5q98 0 154.5 -55t56.5 -148q0 -131 -142.5 -221t-416.5 -108q-6 -43 -6 -95 q0 -125 57.5 -195.5t155.5 -70.5q72 0 154.5 42t173.5 126v-96q-96 -92 -195.5 -137t-202.5 -45q-182 -1 -268 155q-217 -156 -385 -155q-98 0 -152.5 57t-54.5 149zM188 238q0 -131 138 -132q113 1 252 99q-6 37 -10.5 73.5t-4.5 73.5q0 31 3 60.5t7 60.5 q-197 -25 -291 -80t-94 -155zM737 524q96 6 171 30t126 60.5t78 81.5t27 95q0 47 -31 77.5t-76 30.5q-90 0 -170 -94.5t-125 -280.5z" />
<glyph unicode="&#xe7;" horiz-adv-x="806" d="M19 -436l14 74q59 -16 119 -17q72 0 113 30t41 77q0 57 -88 57q-10 0 -20.5 -1t-22.5 -3l43 219h73l-24 -125q14 2 25.5 2h17.5q129 0 129 -115q0 -92 -76 -155.5t-205 -63.5q-70 0 -139 21zM31 352q0 137 44 255t126 208q78 86 174 132t192 46q86 0 138.5 -42t52.5 -101 q0 -47 -35 -79t-94 -34l-119 156h-10q-61 0 -117.5 -37t-98.5 -104.5t-66.5 -161.5t-24.5 -209q0 -135 54 -207t150 -72q72 0 154 42t166 128v-94q-96 -100 -193.5 -149t-189.5 -49q-135 0 -219 99t-84 273z" />
<glyph unicode="&#xe8;" horiz-adv-x="868" d="M43 354q0 129 48 251t134 214q78 82 170 125t168 43q98 0 154.5 -55t56.5 -148q0 -131 -142.5 -221t-416.5 -108q-6 -43 -6 -95q0 -125 57.5 -195.5t155.5 -70.5q72 0 154.5 42t173.5 126v-96q-190 -184 -398 -184q-145 0 -227 96t-82 276zM225 524q96 6 171 30t126 60.5 t78 81.5t27 95q0 47 -31 78.5t-76 31.5q-90 0 -170 -95.5t-125 -281.5zM322 1507h202l123 -389h-102z" />
<glyph unicode="&#xe9;" horiz-adv-x="868" d="M43 354q0 129 48 251t134 214q78 82 170 125t168 43q98 0 154.5 -55t56.5 -148q0 -131 -142.5 -221t-416.5 -108q-6 -43 -6 -95q0 -125 57.5 -195.5t155.5 -70.5q72 0 154.5 42t173.5 126v-96q-190 -184 -398 -184q-145 0 -227 96t-82 276zM225 524q96 6 171 30t126 60.5 t78 81.5t27 95q0 47 -31 78.5t-76 31.5q-90 0 -170 -95.5t-125 -281.5zM469 1118l273 389h202l-375 -389h-100z" />
<glyph unicode="&#xea;" horiz-adv-x="868" d="M43 354q0 129 48 251t134 214q78 82 170 125t168 43q98 0 154.5 -55t56.5 -148q0 -131 -142.5 -221t-416.5 -108q-6 -43 -6 -95q0 -125 57.5 -195.5t155.5 -70.5q72 0 154.5 42t173.5 126v-96q-190 -184 -398 -184q-145 0 -227 96t-82 276zM225 524q96 6 171 30t126 60.5 t78 81.5t27 95q0 47 -31 78.5t-76 31.5q-90 0 -170 -95.5t-125 -281.5zM254 1118l299 389h133l152 -389h-113l-125 289l-233 -289h-113z" />
<glyph unicode="&#xeb;" horiz-adv-x="868" d="M43 354q0 129 48 251t134 214q78 82 170 125t168 43q98 0 154.5 -55t56.5 -148q0 -131 -142.5 -221t-416.5 -108q-6 -43 -6 -95q0 -125 57.5 -195.5t155.5 -70.5q72 0 154.5 42t173.5 126v-96q-190 -184 -398 -184q-145 0 -227 96t-82 276zM225 524q96 6 171 30t126 60.5 t78 81.5t27 95q0 47 -31 78.5t-76 31.5q-90 0 -170 -95.5t-125 -281.5zM285 1313q0 45 30.5 74.5t71.5 29.5q45 0 76 -30.5t31 -73.5t-32 -74t-75 -31q-41 0 -71.5 31t-30.5 74zM666 1313q0 45 31.5 74.5t72.5 29.5q45 0 75 -30.5t30 -73.5t-31 -74t-74 -31q-41 0 -72.5 31 t-31.5 74z" />
<glyph unicode="&#xec;" horiz-adv-x="587" d="M68 868v54l303 65h53l-148 -766q-6 -35 -6 -51q0 -80 99 -80q55 0 151 31v-64q-172 -72 -289 -71q-131 0 -131 135q0 39 13 106l120 611zM156 1507h202l123 -389h-102z" />
<glyph unicode="&#xed;" horiz-adv-x="587" d="M68 868v54l303 65h53l-148 -766q-6 -35 -6 -51q0 -80 99 -80q55 0 151 31v-64q-172 -72 -289 -71q-131 0 -131 135q0 39 13 106l120 611zM303 1118l273 389h202l-375 -389h-100z" />
<glyph unicode="&#xee;" horiz-adv-x="587" d="M68 868v54l303 65h53l-148 -766q-6 -35 -6 -51q0 -80 99 -80q55 0 151 31v-64q-172 -72 -289 -71q-131 0 -131 135q0 39 13 106l120 611zM88 1118l299 389h133l152 -389h-113l-125 289l-233 -289h-113z" />
<glyph unicode="&#xef;" horiz-adv-x="587" d="M68 868v54l303 65h53l-148 -766q-6 -35 -6 -51q0 -80 99 -80q55 0 151 31v-64q-172 -72 -289 -71q-131 0 -131 135q0 39 13 106l120 611zM119 1313q0 45 30.5 74.5t71.5 29.5q45 0 76 -30.5t31 -73.5t-32 -74t-75 -31q-41 0 -71.5 31t-30.5 74zM500 1313q0 45 31.5 74.5 t72.5 29.5q45 0 75 -30.5t30 -73.5t-31 -74t-74 -31q-41 0 -72.5 31t-31.5 74z" />
<glyph unicode="&#xf0;" horiz-adv-x="1024" d="M45 371q0 123 44 243.5t124 212.5q135 158 342 158q27 0 56.5 -2t64.5 -8q-23 53 -45.5 105.5t-48.5 103.5l-285 -115l-29 76l269 104l-72 105l-160 41l8 57l240 33l125 -178l242 94l30 -72l-229 -92q92 -172 139 -325.5t47 -301.5q0 -139 -39 -254.5t-108.5 -198.5 t-162.5 -129t-204 -46q-160 0 -254 104t-94 285zM219 369q0 -147 53.5 -225t145.5 -78q66 0 124 37.5t102 106.5t69.5 166t25.5 218q0 156 -43 301q-59 14 -116 14q-80 0 -146.5 -39t-115 -109.5t-74 -171t-25.5 -220.5z" />
<glyph unicode="&#xf1;" d="M66 0l170 838l-168 30v52l303 67h51l-37 -196q123 98 219 147t178 49q80 0 126 -44t46 -120q0 -39 -8 -83t-20 -99l-70 -317q-10 -45 -16 -79t-6 -57q0 -100 106 -100q41 0 113 18v-57q-160 -61 -246 -61q-150 0 -150 123q0 39 17 110l88 379q10 45 14 78t4 53 q0 68 -25.5 98.5t-84.5 30.5q-53 0 -131 -41t-172 -127l-127 -692h-174zM316 1174q18 123 74.5 184t146.5 61q41 0 78 -16.5t69.5 -36.5t62.5 -36.5t56 -16.5q84 0 105 137h86q-14 -117 -77 -181.5t-140 -64.5q-45 0 -86 16.5t-76 35t-64.5 35t-50.5 16.5q-35 0 -63.5 -35 t-32.5 -98h-88z" />
<glyph unicode="&#xf2;" horiz-adv-x="1028" d="M45 371q0 125 43 242.5t121 205.5q151 170 362 170q160 0 254.5 -107.5t94.5 -293.5q0 -123 -43 -235.5t-123 -205.5q-145 -166 -361 -165q-160 0 -254 104t-94 285zM219 369q0 -147 53.5 -225t145.5 -78q66 0 125 39.5t104 110.5t71.5 169t26.5 215q0 154 -53 231.5 t-147 77.5q-66 0 -125.5 -40t-104.5 -111.5t-70.5 -171t-25.5 -217.5zM373 1507h202l123 -389h-102z" />
<glyph unicode="&#xf3;" horiz-adv-x="1028" d="M45 371q0 125 43 242.5t121 205.5q151 170 362 170q160 0 254.5 -107.5t94.5 -293.5q0 -123 -43 -235.5t-123 -205.5q-145 -166 -361 -165q-160 0 -254 104t-94 285zM219 369q0 -147 53.5 -225t145.5 -78q66 0 125 39.5t104 110.5t71.5 169t26.5 215q0 154 -53 231.5 t-147 77.5q-66 0 -125.5 -40t-104.5 -111.5t-70.5 -171t-25.5 -217.5zM520 1118l273 389h202l-375 -389h-100z" />
<glyph unicode="&#xf4;" horiz-adv-x="1028" d="M45 371q0 125 43 242.5t121 205.5q151 170 362 170q160 0 254.5 -107.5t94.5 -293.5q0 -123 -43 -235.5t-123 -205.5q-145 -166 -361 -165q-160 0 -254 104t-94 285zM219 369q0 -147 53.5 -225t145.5 -78q66 0 125 39.5t104 110.5t71.5 169t26.5 215q0 154 -53 231.5 t-147 77.5q-66 0 -125.5 -40t-104.5 -111.5t-70.5 -171t-25.5 -217.5zM305 1118l299 389h133l152 -389h-113l-125 289l-233 -289h-113z" />
<glyph unicode="&#xf5;" horiz-adv-x="1028" d="M45 371q0 125 43 242.5t121 205.5q151 170 362 170q160 0 254.5 -107.5t94.5 -293.5q0 -123 -43 -235.5t-123 -205.5q-145 -166 -361 -165q-160 0 -254 104t-94 285zM219 369q0 -147 53.5 -225t145.5 -78q66 0 125 39.5t104 110.5t71.5 169t26.5 215q0 154 -53 231.5 t-147 77.5q-66 0 -125.5 -40t-104.5 -111.5t-70.5 -171t-25.5 -217.5zM295 1174q18 123 74.5 184t146.5 61q41 0 78 -16.5t69.5 -36.5t62.5 -36.5t56 -16.5q84 0 105 137h86q-14 -117 -77 -181.5t-140 -64.5q-45 0 -86 16.5t-76 35t-64.5 35t-50.5 16.5q-35 0 -63.5 -35 t-32.5 -98h-88z" />
<glyph unicode="&#xf6;" horiz-adv-x="1028" d="M45 371q0 125 43 242.5t121 205.5q151 170 362 170q160 0 254.5 -107.5t94.5 -293.5q0 -123 -43 -235.5t-123 -205.5q-145 -166 -361 -165q-160 0 -254 104t-94 285zM219 369q0 -147 53.5 -225t145.5 -78q66 0 125 39.5t104 110.5t71.5 169t26.5 215q0 154 -53 231.5 t-147 77.5q-66 0 -125.5 -40t-104.5 -111.5t-70.5 -171t-25.5 -217.5zM336 1313q0 45 30.5 74.5t71.5 29.5q45 0 76 -30.5t31 -73.5t-32 -74t-75 -31q-41 0 -71.5 31t-30.5 74zM717 1313q0 45 31.5 74.5t72.5 29.5q45 0 75 -30.5t30 -73.5t-31 -74t-74 -31q-41 0 -72.5 31 t-31.5 74z" />
<glyph unicode="&#xf7;" horiz-adv-x="1705" d="M254 553v117h1198v-117h-1198zM739 250q0 49 34 82t81 33t81 -34t34 -81t-33 -81t-82 -34q-47 0 -81 34t-34 81zM739 971q0 47 34 80.5t81 33.5t81 -33.5t34 -80.5t-33 -81t-82 -34t-82 34t-33 81z" />
<glyph unicode="&#xf8;" horiz-adv-x="1028" d="M45 371q0 125 43 242.5t121 205.5q152 170 362 170q100 0 170 -41l107 172l57 -37l-110 -172q59 -53 92 -134t33 -189q0 -121 -43 -234.5t-123 -206.5q-147 -166 -361 -165q-76 0 -155 32l-115 -178l-51 35l108 178q-135 117 -135 322zM209 373q0 -113 41 -207l434 686 q-55 57 -135 57q-68 0 -130.5 -41t-108.5 -112.5t-73.5 -170t-27.5 -212.5zM293 113q47 -47 125 -47q70 0 131 39.5t108.5 110.5t75 168t27.5 212q0 123 -37 195z" />
<glyph unicode="&#xf9;" horiz-adv-x="1132" d="M61 868v54l322 67l33 -28l-129 -596q-23 -109 -23 -152q0 -53 32 -83t87 -30q53 0 129 31t162 98l153 740h166l-145 -668q-8 -39 -14.5 -72.5t-6.5 -66.5t29 -56.5t78 -23.5q37 0 115 22v-57q-86 -31 -150.5 -47t-112.5 -16q-123 0 -122 131v19t2 20q-203 -170 -371 -170 q-92 0 -145.5 50t-53.5 142q0 47 17 123l118 539zM381 1507h202l123 -389h-102z" />
<glyph unicode="&#xfa;" horiz-adv-x="1132" d="M61 868v54l322 67l33 -28l-129 -596q-23 -109 -23 -152q0 -53 32 -83t87 -30q53 0 129 31t162 98l153 740h166l-145 -668q-8 -39 -14.5 -72.5t-6.5 -66.5t29 -56.5t78 -23.5q37 0 115 22v-57q-86 -31 -150.5 -47t-112.5 -16q-123 0 -122 131v19t2 20q-203 -170 -371 -170 q-92 0 -145.5 50t-53.5 142q0 47 17 123l118 539zM528 1118l273 389h202l-375 -389h-100z" />
<glyph unicode="&#xfb;" horiz-adv-x="1132" d="M61 868v54l322 67l33 -28l-129 -596q-23 -109 -23 -152q0 -53 32 -83t87 -30q53 0 129 31t162 98l153 740h166l-145 -668q-8 -39 -14.5 -72.5t-6.5 -66.5t29 -56.5t78 -23.5q37 0 115 22v-57q-86 -31 -150.5 -47t-112.5 -16q-123 0 -122 131v19t2 20q-203 -170 -371 -170 q-92 0 -145.5 50t-53.5 142q0 47 17 123l118 539zM313 1118l299 389h133l152 -389h-113l-125 289l-233 -289h-113z" />
<glyph unicode="&#xfc;" horiz-adv-x="1132" d="M61 868v54l322 67l33 -28l-129 -596q-23 -109 -23 -152q0 -53 32 -83t87 -30q53 0 129 31t162 98l153 740h166l-145 -668q-8 -39 -14.5 -72.5t-6.5 -66.5t29 -56.5t78 -23.5q37 0 115 22v-57q-86 -31 -150.5 -47t-112.5 -16q-123 0 -122 131v19t2 20q-203 -170 -371 -170 q-92 0 -145.5 50t-53.5 142q0 47 17 123l118 539zM344 1313q0 45 30.5 74.5t71.5 29.5q45 0 76 -30.5t31 -73.5t-32 -74t-75 -31q-41 0 -71.5 31t-30.5 74zM725 1313q0 45 31.5 74.5t72.5 29.5q45 0 75 -30.5t30 -73.5t-31 -74t-74 -31q-41 0 -72.5 31t-31.5 74z" />
<glyph unicode="&#xfd;" horiz-adv-x="972" d="M-231 -309q0 41 29.5 72.5t80.5 39.5l121 -120q94 6 180 96t178 264l-6 -4l-127 616q-27 141 -82 213l-174 15v45l201 65q6 2 13 2h14q49 0 78.5 -26.5t50 -80.5t37 -137t38.5 -196l68 -346q66 166 144.5 358.5t177.5 419.5h38l162 -53v-43l-104 -62q-55 -63 -101.5 -146 t-91.5 -181.5t-95 -208t-114 -223.5q-141 -258 -278 -386t-266 -128q-76 0 -124 39.5t-48 95.5zM495 1118l273 389h202l-375 -389h-100z" />
<glyph unicode="&#xfe;" horiz-adv-x="1056" d="M-141 -385l121 25l20 22l305 1710l-182 21v53l311 61h55q-10 -51 -15 -83.5t-9 -49.5l-90 -512q180 127 309 127q123 0 191.5 -92t68.5 -266q0 -264 -174 -457q-78 -86 -181.5 -134t-207.5 -48q-76 0 -158 39l-67 -381l194 -35v-61h-491v61zM244 137q92 -55 176 -55 q135 0 229 125q25 33 48.5 80t40 102t26.5 115.5t10 122.5q0 123 -50 188.5t-134 65.5q-90 0 -230 -109z" />
<glyph unicode="&#xff;" horiz-adv-x="972" d="M-231 -309q0 41 29.5 72.5t80.5 39.5l121 -120q94 6 180 96t178 264l-6 -4l-127 616q-27 141 -82 213l-174 15v45l201 65q6 2 13 2h14q49 0 78.5 -26.5t50 -80.5t37 -137t38.5 -196l68 -346q66 166 144.5 358.5t177.5 419.5h38l162 -53v-43l-104 -62q-55 -63 -101.5 -146 t-91.5 -181.5t-95 -208t-114 -223.5q-141 -258 -278 -386t-266 -128q-76 0 -124 39.5t-48 95.5zM311 1313q0 45 30.5 74.5t71.5 29.5q45 0 76 -30.5t31 -73.5t-32 -74t-75 -31q-41 0 -71.5 31t-30.5 74zM692 1313q0 45 31.5 74.5t72.5 29.5q45 0 75 -30.5t30 -73.5t-31 -74 t-74 -31q-41 0 -72.5 31t-31.5 74z" />
<glyph unicode="&#x152;" horiz-adv-x="2062" d="M84 530q0 213 83 396.5t232 308.5q96 78 208 120t235 42q147 0 243.5 -62.5t155.5 -195.5l41 235h774l-59 -299h-99v174l-20 31h-440l-101 -518h312l34 29l48 149h88l-88 -451h-84l8 148l-23 29h-313l-111 -572h523l34 33l72 207h94l-65 -334h-844l31 174 q-186 -199 -430 -199q-119 0 -217.5 41t-170 115t-111.5 175.5t-40 223.5zM281 518q0 -209 97 -326.5t257 -117.5q215 0 373 231q74 111 117.5 255t43.5 298q0 209 -97 327t-257 118q-104 0 -199.5 -57.5t-173.5 -174.5q-76 -111 -118.5 -255t-42.5 -298z" />
<glyph unicode="&#x153;" horiz-adv-x="1536" d="M45 371q0 125 43 242.5t121 205.5q152 170 362 170q218 0 308 -190q86 94 178 142t176 48q98 0 153.5 -56t55.5 -149q0 -131 -142.5 -221t-416.5 -108q-6 -43 -6 -95q0 -125 58 -195.5t157 -70.5q145 0 325 168v-96q-190 -184 -395 -184q-195 0 -272 163 q-152 -164 -357 -163q-160 0 -254 104t-94 285zM221 365q0 -147 52.5 -223t142.5 -76q63 0 121.5 39.5t102.5 110.5t69.5 169t25.5 215q0 152 -52 230.5t-144 78.5q-66 0 -123.5 -40t-100.5 -111.5t-68.5 -172t-25.5 -220.5zM895 524q96 6 171 30t125 60.5t76.5 81.5 t26.5 95q0 47 -29.5 78.5t-74.5 31.5q-90 0 -170 -95.5t-125 -281.5z" />
<glyph unicode="&#x178;" horiz-adv-x="1150" d="M63 1296v78h498v-78l-133 -10l-33 -31l185 -579l428 579l-21 31l-131 10v78h459v-78l-135 -10l-33 -31l-520 -680l-90 -456l26 -29l133 -12v-78h-497v78l129 12l32 29l86 438l-229 698l-20 31zM453 1706q0 45 30.5 74.5t71.5 29.5q45 0 76 -30.5t31 -73.5t-32 -74 t-75 -31q-41 0 -71.5 31t-30.5 74zM834 1706q0 45 31.5 74.5t72.5 29.5q45 0 75 -30.5t30 -73.5t-31 -74t-74 -31q-41 0 -72.5 31t-31.5 74z" />
<glyph unicode="&#x2c6;" horiz-adv-x="1024" d="M303 1118l299 389h133l152 -389h-113l-125 289l-233 -289h-113z" />
<glyph unicode="&#x2dc;" horiz-adv-x="1024" d="M293 1174q18 123 74.5 184t146.5 61q41 0 78 -16.5t69.5 -36.5t62.5 -36.5t56 -16.5q84 0 105 137h86q-14 -117 -77 -181.5t-140 -64.5q-45 0 -86 16.5t-76 35t-64.5 35t-50.5 16.5q-35 0 -63.5 -35t-32.5 -98h-88z" />
<glyph unicode="&#x2000;" horiz-adv-x="1003" />
<glyph unicode="&#x2001;" horiz-adv-x="2007" />
<glyph unicode="&#x2002;" horiz-adv-x="1003" />
<glyph unicode="&#x2003;" horiz-adv-x="2007" />
<glyph unicode="&#x2004;" horiz-adv-x="669" />
<glyph unicode="&#x2005;" horiz-adv-x="501" />
<glyph unicode="&#x2006;" horiz-adv-x="334" />
<glyph unicode="&#x2007;" horiz-adv-x="334" />
<glyph unicode="&#x2008;" horiz-adv-x="250" />
<glyph unicode="&#x2009;" horiz-adv-x="401" />
<glyph unicode="&#x200a;" horiz-adv-x="111" />
<glyph unicode="&#x2010;" horiz-adv-x="653" d="M47 424l27 137h458l-26 -137h-459z" />
<glyph unicode="&#x2011;" horiz-adv-x="653" d="M47 424l27 137h458l-26 -137h-459z" />
<glyph unicode="&#x2012;" horiz-adv-x="653" d="M47 424l27 137h458l-26 -137h-459z" />
<glyph unicode="&#x2013;" horiz-adv-x="1024" d="M-49 430l24 125h1022l-22 -125h-1024z" />
<glyph unicode="&#x2014;" horiz-adv-x="2048" d="M-39 430l25 125h2044l-25 -125h-2044z" />
<glyph unicode="&#x2018;" horiz-adv-x="411" d="M143 1042q0 92 68 200t205 218h88q-113 -104 -171.5 -191t-58.5 -167v-4h132q14 -27 14 -54q0 -53 -41 -96t-105 -43q-59 0 -95 36t-36 101z" />
<glyph unicode="&#x2019;" horiz-adv-x="411" d="M104 905q121 111 175.5 197t54.5 158v8h-131q-14 27 -15 53q0 53 42 96t104 43q59 0 95 -37t36 -98q0 -96 -67.5 -202.5t-204.5 -217.5h-89z" />
<glyph unicode="&#x201a;" horiz-adv-x="411" d="M-133 -336q115 104 172 191.5t57 169.5h-131q-14 27 -14 55q0 53 42 95t103 42q59 0 95 -36t36 -97q0 -96 -67.5 -202.5t-204.5 -217.5h-88z" />
<glyph unicode="&#x201c;" horiz-adv-x="825" d="M143 1042q0 92 68 200t205 218h88q-113 -104 -171.5 -191t-58.5 -167v-4h132q14 -27 14 -54q0 -53 -41 -96t-105 -43q-59 0 -95 36t-36 101zM557 1042q0 92 67.5 200t204.5 218h89q-119 -111 -174.5 -196.5t-55.5 -157.5v-8h131q14 -27 15 -54q0 -53 -42 -96t-106 -43 q-59 0 -94 36t-35 101z" />
<glyph unicode="&#x201d;" horiz-adv-x="825" d="M104 905q121 111 175.5 197t54.5 158v8h-131q-14 27 -15 53q0 53 42 96t104 43q59 0 95 -37t36 -98q0 -96 -67.5 -202.5t-204.5 -217.5h-89zM518 905q121 111 175.5 197t54.5 158v8h-134q-14 27 -14 53q0 53 43 96t105 43q59 0 94 -37t35 -98q0 -96 -67 -202.5 t-204 -217.5h-88z" />
<glyph unicode="&#x201e;" horiz-adv-x="825" d="M-133 -336q115 104 172 191.5t57 169.5h-131q-14 27 -14 55q0 53 42 95t103 42q59 0 95 -36t36 -97q0 -96 -67.5 -202.5t-204.5 -217.5h-88zM281 -336q115 104 172 191.5t57 169.5h-133q-14 27 -15 55q0 53 43.5 95t104.5 42q59 0 94 -36t35 -97q0 -96 -66.5 -202.5 t-203.5 -217.5h-88z" />
<glyph unicode="&#x2022;" horiz-adv-x="1208" d="M307 762q0 61 23.5 114.5t63.5 93.5t94.5 63.5t115.5 23.5t114.5 -23.5t93.5 -63.5t63.5 -93.5t23.5 -114.5t-23.5 -114.5t-63.5 -94.5t-94 -64.5t-116 -23.5q-61 0 -115.5 23.5t-94.5 63.5t-62.5 94.5t-22.5 115.5z" />
<glyph unicode="&#x2026;" horiz-adv-x="2048" d="M111 111q0 51 34.5 86.5t85.5 35.5t87 -35.5t36 -86.5t-35.5 -86t-87.5 -35q-49 0 -84.5 34.5t-35.5 86.5zM793 111q0 51 34.5 86.5t85.5 35.5t87 -35.5t36 -86.5t-35.5 -86t-87.5 -35q-49 0 -84.5 34.5t-35.5 86.5zM1477 111q0 51 34.5 86.5t85.5 35.5t87 -35.5 t36 -86.5t-35.5 -86t-87.5 -35q-49 0 -84.5 34.5t-35.5 86.5z" />
<glyph unicode="&#x202f;" horiz-adv-x="401" />
<glyph unicode="&#x2039;" horiz-adv-x="501" d="M27 410l30 163l389 273l-26 -135l-283 -219l199 -222l-27 -133z" />
<glyph unicode="&#x203a;" horiz-adv-x="501" d="M-12 137l24 133l283 222l-197 219l25 135l285 -273l-31 -163z" />
<glyph unicode="&#x205f;" horiz-adv-x="501" />
<glyph unicode="&#x2122;" horiz-adv-x="1683" d="M242 1214v142h469v-142h-54l-12 82l-14 13h-107v-439l78 -8v-45h-250v45l80 8v439h-106l-17 -13l-12 -82h-55zM772 1309v47h209v-25l139 -368l142 366v27h204v-47l-65 -11v-428l65 -8v-45h-219v45l62 8v435l-189 -488h-45l-180 488v-435l63 -8v-45h-184v45l64 8v428z" />
<glyph unicode="&#x25fc;" horiz-adv-x="993" d="M0 0v993h993v-993h-993z" />
<glyph unicode="&#xfb01;" horiz-adv-x="1175" d="M-309 -334q0 49 45 82l213 -55q72 76 106.5 215t63.5 344l86 588l-137 -15l2 68l155 63q51 266 169 404.5t261 138.5q74 0 122 -37t48 -84q0 -41 -26.5 -68.5t-73.5 -37.5l-168 137q-117 -76 -184 -477h340l256 55h53l-148 -766q-6 -35 -6 -51q0 -80 99 -80q55 0 151 31 v-64q-172 -72 -289 -71q-131 0 -131 135q0 39 13 106l120 611l-475 2l-82 -582q-20 -141 -53 -257t-100 -212q-82 -117 -164 -174t-156 -57q-49 0 -79.5 29.5t-30.5 78.5zM899 1331q0 47 32 79t79 32q45 0 77.5 -33t32.5 -78q0 -47 -32.5 -78.5t-77.5 -31.5q-47 0 -79 31.5 t-32 78.5z" />
<glyph unicode="&#xfb02;" horiz-adv-x="1185" d="M-309 -334q0 49 45 82l213 -55q72 76 106.5 215t63.5 344l86 588l-137 -15l2 68l155 63q51 266 169 404.5t261 138.5q82 0 129 -45l271 53h55q-10 -57 -16.5 -90t-8.5 -43l-206 -1030q-12 -61 -17.5 -102t-5.5 -64q0 -96 113 -96q27 0 62.5 8t82.5 25v-64 q-88 -37 -156.5 -53t-115.5 -16q-147 0 -148 151q0 23 8.5 81t26.5 155l197 1003l-101 10l-100 -110l-168 137q-117 -76 -184 -477h286v-94h-303l-82 -580q-20 -141 -53 -257t-100 -212q-82 -117 -164 -174t-156 -57q-49 0 -79.5 29.5t-30.5 78.5z" />
</font>
</defs>
</svg>
