<?xml version="1.0" standalone="no"?>
<!DOCTYPE svg PUBLIC "-//W3C//DTD SVG 1.1//EN" "http://www.w3.org/Graphics/SVG/1.1/DTD/svg11.dtd" >
<svg xmlns="http://www.w3.org/2000/svg">
<metadata></metadata>
<defs>
<font id="kievitregular_italic" horiz-adv-x="1243" >
<font-face units-per-em="2048" ascent="1638" descent="-410" />
<missing-glyph horiz-adv-x="450" />
<glyph unicode="&#xfb01;" horiz-adv-x="1124" d="M-264 -432l49 123q29 -12 62.5 -21.5t74.5 -9.5q47 0 81 21.5t56.5 56.5t37 79t22.5 91l176 956h-195l21 119h194l31 164q35 186 141.5 269t278.5 83q115 0 182.5 -27.5t102.5 -50.5l-68 -123q-29 16 -83 41t-146 25q-121 0 -181.5 -55.5t-83.5 -182.5l-26 -143h563 l-178 -983h-148l156 864h-416l-174 -960q-35 -186 -113.5 -280.5t-240.5 -94.5q-59 0 -100 11t-76 28z" />
<glyph unicode="&#xfb02;" horiz-adv-x="1118" d="M-264 -432l49 123q29 -12 62.5 -21.5t74.5 -9.5q47 0 81 21.5t56.5 56.5t37 79t22.5 91l176 956h-195l21 119h194l31 164q35 186 141.5 269t278.5 83q133 0 213 -18.5t129 -38.5l-260 -1442h-148l242 1341q-35 10 -81 16.5t-107 6.5q-121 0 -181.5 -55.5t-83.5 -182.5 l-26 -143h242l-21 -119h-244l-174 -960q-35 -186 -113.5 -280.5t-240.5 -94.5q-59 0 -100 11t-76 28z" />
<glyph horiz-adv-x="0" />
<glyph unicode="&#xd;" horiz-adv-x="450" />
<glyph unicode=" "  horiz-adv-x="450" />
<glyph unicode="&#x09;" horiz-adv-x="450" />
<glyph unicode="&#xa0;" horiz-adv-x="450" />
<glyph unicode="!" horiz-adv-x="507" d="M74 100q0 47 34.5 81t86.5 34q47 0 81.5 -34t34.5 -81q0 -49 -34.5 -83.5t-81.5 -34.5q-51 0 -86 34.5t-35 83.5zM172 408l135 956h180l-200 -956h-115z" />
<glyph unicode="&#x22;" horiz-adv-x="735" d="M254 909l29 455h178l-90 -455h-117zM524 909l54 455h178l-115 -455h-117z" />
<glyph unicode="#" horiz-adv-x="1052" d="M96 512l35 121h182l74 227h-199l35 121h203l86 268h119l-86 -268h205l86 268h118l-86 -268h183l-35 -121h-187l-73 -227h202l-34 -121h-207l-94 -295h-119l94 295h-205l-94 -295h-119l94 295h-178zM432 633h205l74 227h-205z" />
<glyph unicode="$" horiz-adv-x="892" d="M27 88l84 115q10 -10 31.5 -26.5t54 -33t74.5 -29t96 -12.5q106 0 172.5 38t66.5 116q0 33 -14 57.5t-41 46t-64.5 43t-87.5 48.5q-57 31 -102 60.5t-76 63t-46 73.5t-15 93q0 55 23.5 100.5t65.5 79t97 56t121 29.5l39 208h145l-39 -213q92 -10 146.5 -36.5t70.5 -38.5 l-75 -115q-27 16 -87.5 42t-158.5 26q-88 0 -144.5 -35t-56.5 -99q0 -59 47 -98t125 -78q57 -29 109.5 -57.5t91.5 -63t62.5 -79.5t23.5 -105q0 -61 -25.5 -110.5t-69.5 -86t-105.5 -59t-133.5 -31.5l-41 -229h-145l41 229q-92 12 -158 45t-102 66z" />
<glyph unicode="%" horiz-adv-x="1452" d="M94 682q0 61 23.5 120.5t64.5 104.5t99.5 73t126.5 28q123 0 182 -68t59 -174q0 -66 -23.5 -125t-65.5 -105.5t-100 -73t-126 -26.5q-57 0 -101.5 19.5t-75 53.5t-47 79t-16.5 94zM219 692q0 -158 125 -157q80 0 130 63.5t50 161.5q0 72 -31.5 110.5t-93.5 38.5 q-80 0 -130 -59t-50 -158zM289 0l755 983h125l-755 -983h-125zM801 221q0 61 23.5 120.5t64.5 105t99.5 73t125.5 27.5q123 0 182.5 -67.5t59.5 -174.5q0 -66 -23.5 -125t-65.5 -105t-100.5 -73t-126.5 -27q-57 0 -101 19.5t-74.5 53.5t-47 79t-16.5 94zM926 231 q0 -158 125 -157q80 0 130 63.5t50 161.5q0 72 -32 111t-93 39q-80 0 -130 -59.5t-50 -158.5z" />
<glyph unicode="&#x26;" horiz-adv-x="1388" d="M74 322q0 139 45 264t119.5 218t172 148.5t199.5 55.5q100 0 165 -50.5t65 -154.5q0 -59 -28 -108.5t-71 -89.5t-94 -68.5t-100 -44.5l235 -273q92 61 179 148q61 61 110 132.5t84 146.5t53.5 148.5t18.5 139.5q0 174 -101.5 271.5t-324.5 131.5l26 125 q274 -37 409.5 -170t135.5 -350q0 -74 -23.5 -159t-65.5 -171t-101.5 -170t-132.5 -157q-89 -88 -189 -158q49 -57 86 -94t67.5 -59.5t58.5 -32t61 -9.5q47 0 82.5 15.5t52.5 25.5l49 -102q-23 -16 -73 -35.5t-116 -19.5q-55 0 -101 16t-89 49t-88 78t-96 104 q-82 -41 -166 -64.5t-170 -23.5q-84 0 -148.5 28t-107.5 75t-65.5 109.5t-22.5 134.5zM219 338q0 -119 58.5 -175.5t166.5 -56.5q59 0 118 14.5t116 41.5l-275 311l27 82q123 29 195.5 95.5t72.5 137.5q0 43 -28.5 68t-87.5 25q-72 0 -137.5 -46.5t-115.5 -122t-80 -174 t-30 -200.5z" />
<glyph unicode="'" horiz-adv-x="440" d="M238 909l41 455h186l-113 -455h-114z" />
<glyph unicode="(" horiz-adv-x="606" d="M84 342q0 223 59.5 406.5t143.5 324.5t176 241.5t158 160.5h145q-70 -63 -161 -167t-173 -245t-138 -321.5t-56 -395.5q0 -129 18 -234.5t49 -191.5t69 -155.5t75 -126.5h-134q-31 39 -70.5 102t-75.5 150t-60.5 200t-24.5 252z" />
<glyph unicode=")" horiz-adv-x="616" d="M-145 -362q86 82 182 196.5t177 260t134 320.5t53 376q0 125 -22.5 233.5t-55 194.5t-70.5 150.5t-69 105.5h140q31 -37 70.5 -100.5t75.5 -149.5t60.5 -194.5t24.5 -237.5q0 -227 -63.5 -416t-152.5 -334t-182.5 -247.5t-152.5 -157.5h-149z" />
<glyph unicode="*" horiz-adv-x="888" d="M176 1059l49 115l260 -99l41 289h136l-62 -291l281 96l26 -114l-297 -74l148 -252l-109 -55l-129 252l-209 -252l-92 71l219 238z" />
<glyph unicode="+" horiz-adv-x="1153" d="M135 479l23 125h366l66 379h137l-65 -379h370l-22 -125h-371l-70 -397h-137l70 397h-367z" />
<glyph unicode="," horiz-adv-x="442" d="M-12 -240q41 39 76.5 85t35.5 100q0 27 -9 45t-19.5 35.5t-19.5 38t-9 49.5q0 51 33 83.5t80 32.5q51 0 90 -35.5t39 -101.5q0 -63 -23.5 -122.5t-59.5 -109.5t-77 -91t-74 -66z" />
<glyph unicode="-" horiz-adv-x="624" d="M111 522l22 131h412l-23 -131h-411z" />
<glyph unicode="." horiz-adv-x="442" d="M39 104q0 49 36 85t89 36q49 0 85 -36t36 -85q0 -51 -36 -86.5t-85 -35.5q-53 0 -89 35.5t-36 86.5z" />
<glyph unicode="/" horiz-adv-x="823" d="M-117 -330l946 1805h138l-947 -1805h-137z" />
<glyph unicode="0" horiz-adv-x="1085" d="M94 406q0 117 40 226t111.5 192t170 133.5t213.5 50.5q104 0 177 -38t118 -97.5t64.5 -134t19.5 -150.5q0 -121 -39 -231.5t-110 -195.5t-169 -135.5t-217 -50.5q-98 0 -170 39t-118 100.5t-68.5 138.5t-22.5 153zM244 414q0 -147 62.5 -230.5t180.5 -83.5q84 0 153 39 t117 104.5t74.5 154t26.5 184.5q0 57 -12 111.5t-40 97.5t-75 68.5t-117 25.5q-80 0 -147.5 -38t-116.5 -102.5t-77.5 -150.5t-28.5 -180z" />
<glyph unicode="1" horiz-adv-x="657" d="M102 889l336 94h119l-180 -983h-150l154 840l-248 -74z" />
<glyph unicode="2" horiz-adv-x="919" d="M-12 0l8 68q154 104 276.5 193t208.5 169t131 156t45 155q0 66 -45 101t-123 35q-84 0 -149.5 -32t-112.5 -67l-71 96q59 47 147 90.5t199 43.5q141 0 225 -66.5t84 -187.5q0 -102 -59.5 -196.5t-144.5 -176.5t-180 -148.5t-165 -111.5q23 0 45 2q20 2 45 3t47 1h383 l-20 -127h-774z" />
<glyph unicode="3" horiz-adv-x="899" d="M-29 -360l35 118q16 -4 55 -11t103 -7q86 0 159.5 22.5t128 64.5t85 103.5t30.5 139.5q0 70 -28.5 116.5t-75.5 74.5t-109.5 40t-132.5 12l17 113q70 0 141.5 19.5t130.5 58.5t97 95t38 128q0 63 -44 106.5t-132 43.5q-84 0 -140.5 -29t-107.5 -62l-71 99q59 47 141 85 t198 38q78 0 137.5 -21.5t99.5 -58.5t59.5 -85t19.5 -102q0 -70 -31 -129t-80 -105t-109.5 -80t-119.5 -50v-2q51 -10 99 -35t85 -62.5t59.5 -87t22.5 -108.5q0 -109 -48 -195t-128 -146t-184 -93t-217 -33q-72 0 -116 9t-67 16z" />
<glyph unicode="4" horiz-adv-x="1067" d="M-27 0l13 96l782 887h150l-160 -858h215l-21 -125h-217l-67 -362h-150l68 362h-613zM170 125h440l121 637h-4z" />
<glyph unicode="5" horiz-adv-x="854" d="M-33 -360l35 118q16 -4 54 -11t104 -7q88 0 162.5 23.5t129 68.5t84 109.5t29.5 144.5q0 90 -29.5 147.5t-93.5 94.5q-55 35 -129.5 47t-167.5 8l115 600h590l-21 -121h-442l-74 -364q90 -8 166 -39t131.5 -82t86 -120t30.5 -155q0 -115 -44 -205t-122 -152t-183.5 -96 t-227.5 -34q-74 0 -117 9t-66 16z" />
<glyph unicode="6" horiz-adv-x="1067" d="M121 469q0 166 60.5 330t179 295t294.5 213t408 82l14 -125q-154 0 -282.5 -41t-229 -117t-169 -182.5t-99.5 -235.5q61 55 139 87t172 32q168 0 267.5 -91t99.5 -247q0 -102 -35 -192.5t-97.5 -157t-148.5 -105.5t-188 -39q-88 0 -160 34t-122 98.5t-76.5 155.5 t-26.5 206zM270 465q0 -170 61.5 -267.5t184.5 -97.5q74 0 131.5 30t97 79t61 114.5t21.5 137.5q0 100 -58 160.5t-181 60.5q-98 0 -172 -31t-142 -92q-2 -23 -3 -46.5t-1 -47.5z" />
<glyph unicode="7" horiz-adv-x="919" d="M-16 -342l747 1194h-631l25 131h795l-17 -106l-799 -1287z" />
<glyph unicode="8" horiz-adv-x="997" d="M63 291q0 74 27 136t74 114.5t111.5 94.5t140.5 77q-94 72 -146.5 152.5t-52.5 158.5q0 82 34 149.5t89 114.5t128 74t153 27q88 0 152.5 -25t107.5 -64.5t64.5 -92t21.5 -105.5q0 -123 -81 -214t-237 -169q96 -68 162 -150t66 -188q0 -88 -38 -162t-101.5 -128 t-145.5 -85t-170 -31q-92 0 -159.5 28t-112 73t-66 101t-21.5 114zM215 305q0 -90 59.5 -142t157.5 -52q55 0 108.5 18t93.5 53t64.5 84t24.5 109q0 78 -52.5 140t-158.5 134q-63 -31 -117.5 -66.5t-94.5 -76.5t-62.5 -91t-22.5 -110zM371 1038q0 -78 51 -138.5t129 -115.5 q53 27 100 58.5t83 68.5t57.5 80t21.5 92q0 70 -49 123.5t-154 53.5q-47 0 -90 -14.5t-76.5 -43t-53 -69.5t-19.5 -95z" />
<glyph unicode="9" horiz-adv-x="1034" d="M-16 -258q141 0 263 37t220 105.5t168.5 167.5t109.5 224q-49 -37 -122.5 -68.5t-159.5 -31.5q-88 0 -154.5 27.5t-111.5 75t-68 112t-23 137.5q0 100 37 188.5t100.5 153t147.5 101.5t178 37q96 0 166 -33t115 -90.5t66.5 -136t21.5 -168.5q0 -217 -68.5 -394.5 t-193.5 -303.5t-297 -194.5t-381 -68.5zM256 537q0 -104 55.5 -173t171.5 -69q86 0 159 29.5t132 74.5q14 78 14 172q0 141 -54 227.5t-175 86.5q-59 0 -114.5 -24.5t-97.5 -70t-66.5 -110t-24.5 -143.5z" />
<glyph unicode=":" horiz-adv-x="442" d="M39 104q0 49 36 85t89 36q49 0 85 -36t36 -85q0 -51 -36 -86.5t-85 -35.5q-53 0 -89 35.5t-36 86.5zM168 872q0 49 36 85t89 36q49 0 85 -36t36 -85q0 -51 -36 -86.5t-85 -35.5q-53 0 -89 35.5t-36 86.5z" />
<glyph unicode=";" horiz-adv-x="442" d="M-12 -240q41 39 76.5 85t35.5 100q0 27 -9 45t-19.5 35.5t-19.5 38t-9 49.5q0 51 33 83.5t80 32.5q51 0 90 -35.5t39 -101.5q0 -63 -23.5 -122.5t-59.5 -109.5t-77 -91t-74 -66zM170 872q0 49 36 85t89 36q49 0 85 -36t36 -85q0 -51 -36 -86.5t-85 -35.5q-53 0 -89 35.5 t-36 86.5z" />
<glyph unicode="&#x3c;" horiz-adv-x="815" d="M94 504l572 446l75 -98l-465 -358l334 -357l-88 -84z" />
<glyph unicode="=" horiz-adv-x="1087" d="M113 313l22 129h797l-23 -129h-796zM172 647l23 129h796l-22 -129h-797z" />
<glyph unicode="&#x3e;" horiz-adv-x="815" d="M74 152l465 358l-334 356l88 84l428 -450l-571 -447z" />
<glyph unicode="?" horiz-adv-x="831" d="M117 100q0 47 34.5 81t86.5 34q47 0 81.5 -34t34.5 -81q0 -49 -34.5 -83.5t-81.5 -34.5q-51 0 -86 34.5t-35 83.5zM211 395l22 129q8 49 20.5 86t34 66t55.5 55.5t85 54.5q53 31 97 58.5t75 60.5t48.5 74t17.5 98q0 82 -53.5 131t-159.5 49q-57 0 -103.5 -15t-70.5 -25 l-43 118q37 18 99 36t140 18q86 0 151.5 -25t109.5 -66t66.5 -95t22.5 -111q0 -82 -28.5 -143.5t-74.5 -109.5t-104.5 -84t-115.5 -69q-59 -33 -88 -72t-41 -106l-21 -113h-141z" />
<glyph unicode="@" horiz-adv-x="1525" d="M82 492q0 152 55.5 292t154.5 247.5t235.5 172t297.5 64.5q162 0 287 -58.5t210 -147.5t128 -199t43 -210q0 -96 -26.5 -184t-73.5 -154.5t-113 -105.5t-143 -39q-104 0 -159.5 64.5t-55.5 164.5h-4q-14 -33 -39 -72.5t-60 -74.5t-82 -58.5t-104 -23.5q-47 0 -83 20.5 t-60.5 53t-37 75.5t-12.5 87q0 98 27 195t81 175t136 126t190 48q66 0 130.5 -16t109.5 -27l-51 -284q-8 -41 -18.5 -94.5t-10.5 -100.5q0 -59 31 -101t78 -42q51 0 94 28.5t73.5 76.5t48 112.5t17.5 136.5q0 113 -43 207t-117.5 162.5t-175 107.5t-215.5 39 q-117 0 -226.5 -52t-194.5 -141.5t-136 -209t-51 -254.5q0 -123 38 -226.5t109.5 -180.5t176 -120t237.5 -43q90 0 173 18.5t132 41.5l47 -105q-57 -23 -157.5 -46t-216.5 -23q-158 0 -283 53t-212 145t-133 216t-46 264zM590 428q0 -45 18.5 -88t61.5 -43q61 0 109 49 t85 123t62.5 159t40.5 156l8 41q-8 2 -22.5 6.5t-31 7.5t-33 5t-26.5 2q-61 0 -112.5 -36t-86 -94.5t-54 -133t-19.5 -154.5z" />
<glyph unicode="A" d="M-43 0l764 1364h153l236 -1364h-160l-55 338h-592l-186 -338h-160zM377 473h495l-73 457q-8 47 -15.5 93t-11.5 81q-6 41 -10 80h-4q-16 -41 -39 -82q-18 -37 -42 -81t-48 -91z" />
<glyph unicode="B" horiz-adv-x="1144" d="M100 0l244 1364h342q178 0 283.5 -75t105.5 -220t-78.5 -234.5t-216.5 -123.5v-4q104 -20 174 -90t70 -183q0 -111 -42 -192.5t-116.5 -136t-178 -80t-228.5 -25.5h-359zM281 133h188q213 0 303 74t90 221q0 98 -69.5 159.5t-219.5 61.5h-202zM393 776h197 q164 0 242.5 72.5t78.5 195.5q0 94 -58 140.5t-191 46.5h-187z" />
<glyph unicode="C" d="M119 547q0 174 60.5 326.5t165 267t246.5 181.5t308 67q74 0 131 -7.5t101.5 -19.5t79 -29.5t65.5 -38.5l-92 -118q-53 37 -123 58t-174 21q-133 0 -244 -55t-190.5 -151.5t-123.5 -224.5t-44 -271q0 -92 22.5 -173t70.5 -141.5t124 -94t182 -33.5q113 0 193.5 34.5 t150.5 87.5l70 -110q-33 -29 -79 -55.5t-102.5 -47t-118 -33t-124.5 -12.5q-141 0 -244.5 45.5t-173.5 122t-103.5 181t-33.5 223.5z" />
<glyph unicode="D" horiz-adv-x="1351" d="M100 0l244 1364h301q170 0 293 -38t203 -106.5t118.5 -166t38.5 -215.5q0 -162 -51 -313.5t-155.5 -268.5t-261 -186.5t-367.5 -69.5h-363zM283 131h204q158 0 279 54.5t202 148.5t123 221t42 272q0 211 -121 308.5t-385 97.5h-150z" />
<glyph unicode="E" horiz-adv-x="1011" d="M100 0l244 1364h686l-24 -135h-529l-80 -438h467l-24 -136h-465l-92 -520h542l-24 -135h-701z" />
<glyph unicode="F" horiz-adv-x="989" d="M100 0l244 1364h700l-24 -135h-543l-80 -438h475l-24 -136h-473l-117 -655h-158z" />
<glyph unicode="G" horiz-adv-x="1413" d="M121 549q0 170 60.5 322.5t166 267t250.5 182.5t315 68q162 0 263.5 -38t152.5 -77l-94 -119q-53 41 -138 70.5t-198 29.5q-137 0 -249.5 -56t-193.5 -151.5t-125 -222.5t-44 -270q0 -98 25.5 -180t77.5 -141.5t131 -93.5t188 -34q78 0 137 11.5t101 26t65.5 28.5 t31.5 18l68 388h-297l25 135h452l-108 -602q-10 -6 -46 -29t-97.5 -46.5t-147.5 -42t-195 -18.5q-141 0 -249.5 44t-181 121t-109.5 182.5t-37 226.5z" />
<glyph unicode="H" horiz-adv-x="1452" d="M100 0l242 1364h158l-103 -578h758l102 578h158l-244 -1364h-157l116 651h-755l-117 -651h-158z" />
<glyph unicode="I" horiz-adv-x="563" d="M113 0l243 1364h158l-244 -1364h-157z" />
<glyph unicode="J" horiz-adv-x="552" d="M-219 -367l55 136q10 -4 27.5 -9.5t46.5 -5.5q160 0 203 242l243 1368h156l-248 -1393q-31 -176 -120 -268t-240 -92q-45 0 -79 8t-44 14z" />
<glyph unicode="K" horiz-adv-x="1132" d="M100 0l244 1364h154l-242 -1364h-156zM395 711l647 653h185l-656 -655l467 -709h-178z" />
<glyph unicode="L" horiz-adv-x="937" d="M100 0l244 1364h156l-217 -1229h524l-23 -135h-684z" />
<glyph unicode="M" horiz-adv-x="1708" d="M41 0l424 1364h143l158 -987q10 -61 14 -105.5t11 -99.5h4q29 59 50 104.5t50 100.5l516 987h145l-69 -1364h-152l49 895q4 72 8.5 117t10.5 82h-4q-16 -37 -36 -77t-52 -102l-482 -915h-145l-145 903q-10 68 -17.5 112t-11.5 79h-4q-6 -37 -18.5 -82t-34.5 -117 l-267 -895h-145z" />
<glyph unicode="N" horiz-adv-x="1406" d="M94 0l244 1364h154l460 -950q53 -115 80 -199h4q4 41 12.5 97.5t18.5 115.5l166 936h143l-241 -1364h-146l-473 977q-23 47 -40 88t-34 92h-4q-4 -41 -11 -87t-17 -107l-172 -963h-144z" />
<glyph unicode="O" horiz-adv-x="1503" d="M123 563q0 152 53 300.5t150.5 265t234.5 188.5t307 72q145 0 254 -48.5t179.5 -130.5t105.5 -189.5t35 -225.5q0 -152 -51.5 -298.5t-148.5 -262t-235.5 -187.5t-310.5 -72q-137 0 -243.5 48.5t-180 130.5t-111.5 188.5t-38 220.5zM287 565q0 -94 28.5 -177t82 -145.5 t131 -98t176.5 -35.5q135 0 241.5 58t180 155.5t112.5 221.5t39 253q0 92 -26.5 175t-79 145.5t-131 100t-183.5 37.5q-135 0 -240.5 -58t-179 -154.5t-112.5 -221.5t-39 -256z" />
<glyph unicode="P" horiz-adv-x="1073" d="M100 0l244 1364h322q190 0 305.5 -87t115.5 -253q0 -113 -41.5 -201t-117.5 -148.5t-179.5 -92t-226.5 -31.5h-166l-98 -551h-158zM381 686h156q197 0 291 87.5t94 232.5q0 51 -14.5 92t-48.5 69.5t-88 45t-132 16.5h-162z" />
<glyph unicode="Q" horiz-adv-x="1503" d="M123 563q0 152 53 300.5t150.5 265t234.5 188.5t307 72q145 0 254 -48.5t179.5 -130.5t105.5 -189.5t35 -225.5q0 -147 -50.5 -293t-144.5 -260.5t-228 -188.5t-302 -78q61 -92 136 -134t183 -42q86 0 150.5 28t91.5 44l55 -119q-43 -29 -119.5 -56.5t-191.5 -27.5 q-158 0 -283 79t-235 257q-92 31 -163 87t-120 130t-73.5 162t-24.5 180zM287 565q0 -94 28.5 -177t82 -145.5t131 -98t176.5 -35.5q135 0 241.5 58t180 155.5t112.5 221.5t39 253q0 92 -26.5 175t-79 145.5t-131 100t-183.5 37.5q-135 0 -240.5 -58t-179 -154.5 t-112.5 -221.5t-39 -256z" />
<glyph unicode="R" horiz-adv-x="1163" d="M100 0l244 1364h356q180 0 281.5 -83t101.5 -228q0 -182 -117.5 -286.5t-326.5 -121.5v-4q25 -16 54.5 -51t76.5 -119l260 -471h-176l-215 393q-41 74 -69.5 120t-54.5 71.5t-54.5 35t-69.5 9.5h-20l-113 -629h-158zM391 760h207q170 0 247 79.5t77 204.5q0 184 -252 185 h-193z" />
<glyph unicode="S" horiz-adv-x="927" d="M-14 137l98 109q23 -20 50.5 -44t65.5 -44.5t88 -33.5t118 -13t114.5 18t76.5 51t43 74t13 88q0 49 -15 89t-43 76t-68 72.5t-89 79.5t-94 87.5t-81 91.5t-56.5 100t-20.5 117q0 82 30 144.5t82 104.5t123 63.5t152 21.5q63 0 115.5 -11.5t92.5 -27t70 -35t50 -33.5 l-82 -121q-20 16 -43.5 32.5t-53.5 31t-69 22.5t-90 8q-113 0 -167 -53t-54 -147q0 -43 14.5 -78t42 -69t65.5 -68.5t85 -75.5q51 -45 99 -89t84 -93.5t57.5 -106.5t21.5 -129q0 -66 -23.5 -132.5t-73.5 -119.5t-129 -86t-190 -33q-86 0 -153.5 17.5t-117.5 43t-84 53.5 t-54 48z" />
<glyph unicode="T" horiz-adv-x="995" d="M168 1229l22 135h918l-23 -135h-374l-219 -1229h-158l219 1229h-385z" />
<glyph unicode="U" horiz-adv-x="1382" d="M176 295q-7 44 -7 92q0 58 11 123l152 854h155l-147 -834q-14 -77 -14 -139q0 -114 46 -178q72 -100 265 -100q188 0 286.5 101t135.5 306l149 844h148l-156 -870q-23 -119 -64.5 -214.5t-111.5 -163t-168 -104.5t-233 -37q-133 0 -226.5 40t-149 111t-71.5 169z" />
<glyph unicode="V" horiz-adv-x="1214" d="M188 1364h158l184 -940q14 -68 24.5 -136.5t14.5 -107.5h4q18 41 48 109.5t65 134.5l481 940h162l-715 -1364h-149z" />
<glyph unicode="W" horiz-adv-x="1751" d="M193 1364h155l76 -846q8 -84 13 -157.5t7 -131.5h5q18 55 49.5 128t68.5 157l375 850h160l100 -883q10 -84 15.5 -139t9.5 -113h4q10 29 20.5 56.5t22.5 57.5t26.5 64.5t32.5 77.5l365 879h164l-596 -1364h-146l-100 864q-10 92 -17.5 162t-13.5 145h-4 q-29 -76 -59.5 -145.5t-71.5 -161.5l-389 -864h-141z" />
<glyph unicode="X" horiz-adv-x="1134" d="M-35 0l551 713l-285 651h164l228 -543l397 543h174l-510 -662l309 -702h-164l-251 594l-439 -594h-174z" />
<glyph unicode="Y" horiz-adv-x="1114" d="M184 1364h164l246 -700h2l465 700h166l-578 -852l-92 -512h-158l93 514z" />
<glyph unicode="Z" horiz-adv-x="1054" d="M-33 0l21 113l915 1120h-682l25 131h880l-20 -104l-926 -1129h752l-25 -131h-940z" />
<glyph unicode="[" horiz-adv-x="616" d="M18 -330l314 1805h403l-20 -115h-262l-273 -1575h262l-20 -115h-404z" />
<glyph unicode="\" horiz-adv-x="759" d="M160 1475h129l334 -1805h-129z" />
<glyph unicode="]" horiz-adv-x="614" d="M-94 -330l20 115h260l275 1575h-262l20 115h404l-314 -1805h-403z" />
<glyph unicode="^" horiz-adv-x="1239" d="M160 590l551 774h102l272 -774h-131l-213 629l-444 -629h-137z" />
<glyph unicode="_" horiz-adv-x="792" d="M-150 -326l23 125h801l-23 -125h-801z" />
<glyph unicode="`" horiz-adv-x="1024" d="M342 1364h199l145 -258h-127z" />
<glyph unicode="a" horiz-adv-x="985" d="M61 276q0 135 38 267.5t112 235t182.5 166t249.5 63.5q106 0 177 -14.5t102 -24.5l-99 -541q-18 -104 -30.5 -184t-18.5 -133q-8 -66 -12 -111h-144q10 82 22.5 151.5t33.5 151.5h-4q-31 -61 -67 -120.5t-80 -105.5t-98 -74t-122 -28q-123 0 -182.5 84t-59.5 217z M211 299q0 -100 31.5 -145t93.5 -45q68 0 133.5 61t119.5 157.5t93 211t55 223.5l15 98q-16 6 -55.5 12.5t-82.5 6.5q-96 0 -170.5 -49.5t-127 -131.5t-79 -185t-26.5 -214z" />
<glyph unicode="b" horiz-adv-x="997" d="M59 14l265 1461h147l-92 -496q-12 -66 -28.5 -137.5t-39.5 -157.5h4q33 61 71 118.5t84 103.5t102.5 74t123.5 28q63 0 108.5 -26t74 -69t42 -100.5t13.5 -120.5q0 -137 -40 -266t-113.5 -229.5t-181 -161t-243.5 -60.5q-51 0 -100 5.5t-89 11.5t-67.5 12t-40.5 10z M227 119q14 -4 46 -10.5t98 -6.5q98 0 175 48.5t129 128t79.5 184t27.5 215.5q0 86 -26.5 141t-89.5 55q-76 0 -143.5 -64.5t-123 -161.5t-95.5 -213t-58 -218z" />
<glyph unicode="c" horiz-adv-x="827" d="M55 356q0 139 45 259t121 207t172 136.5t199 49.5q96 0 150.5 -22.5t84.5 -45.5l-75 -117q-23 16 -64 33.5t-113 17.5q-68 0 -134 -34.5t-119.5 -100t-86 -159t-32.5 -207.5q0 -139 52 -203t138 -64q45 0 84 12.5t68.5 30t52.5 37t37 33.5l88 -96q-20 -20 -53 -46 t-76 -48.5t-97.5 -38t-115.5 -15.5q-150 0 -238 99.5t-88 281.5z" />
<glyph unicode="d" horiz-adv-x="991" d="M63 291q0 143 41 273t117 228.5t184.5 157t241.5 58.5q59 0 93 -6.5t55 -10.5l88 484h147l-190 -1047q-18 -104 -30.5 -184t-18.5 -133q-8 -66 -13 -111h-143q10 82 22.5 152.5t32.5 152.5h-4q-33 -61 -72 -119.5t-85 -105.5t-102 -76t-122 -29t-112 26t-74.5 69t-42 100 t-13.5 121zM213 311q0 -88 26.5 -145t90.5 -57q74 0 142.5 60t124.5 155.5t97 211t60 226.5l16 100q-16 6 -59 13.5t-95 7.5q-94 0 -168.5 -48.5t-127 -128t-80 -183t-27.5 -212.5z" />
<glyph unicode="e" horiz-adv-x="872" d="M55 330q0 139 42 262t114 215t168 146.5t205 54.5q111 0 185.5 -55.5t74.5 -168.5q0 -92 -53.5 -157.5t-142.5 -111.5t-203.5 -75t-237.5 -45q-2 -12 -2 -23.5v-23.5q0 -117 48 -179.5t144 -62.5q82 0 148.5 39t107.5 82l86 -100q-23 -23 -56.5 -49.5t-78.5 -49 t-101.5 -38t-123.5 -15.5q-84 0 -144.5 29t-100.5 78t-59.5 112.5t-19.5 135.5zM221 506q98 14 184.5 36.5t149.5 54.5t99 75t36 98q0 106 -129 107q-55 0 -107.5 -27t-98.5 -76t-81 -117.5t-53 -150.5z" />
<glyph unicode="f" horiz-adv-x="663" d="M-264 -432l49 123q29 -12 62.5 -21.5t74.5 -9.5q47 0 81 21.5t56.5 56.5t37 79t22.5 91l176 956h-195l21 119h194l17 82q8 37 14 82q31 168 122 260t253 92q86 0 147.5 -22.5t89.5 -40.5l-65 -123q-23 14 -72 32.5t-112 18.5q-55 0 -93 -17.5t-63 -49t-40 -75.5t-24 -96 l-26 -143h242l-21 -119h-244l-174 -960q-35 -186 -113.5 -280.5t-240.5 -94.5q-59 0 -100 11t-76 28z" />
<glyph unicode="g" horiz-adv-x="980" d="M-23 -369l80 117q39 -29 93.5 -57.5t140.5 -28.5q147 0 223 91t104 249l17 88q10 55 23.5 110.5t27.5 98.5h-4q-31 -59 -70 -117.5t-85 -104.5t-101 -74t-121 -28t-112 26t-74.5 69t-42 100t-13.5 121q0 143 41 273t117 228.5t183.5 157t240.5 58.5q45 0 91 -4.5t86 -9.5 t71 -11t47 -10l-180 -975q-23 -125 -63 -213t-99 -144.5t-139 -83t-185 -26.5q-53 0 -98 10t-84 25.5t-67.5 33t-47.5 31.5zM213 311q0 -88 26.5 -145t90.5 -57q74 0 143.5 61t125.5 156.5t96 211t59 224.5l16 100q-16 6 -58 13.5t-96 7.5q-96 0 -170.5 -48.5t-126 -128 t-79 -183t-27.5 -212.5z" />
<glyph unicode="h" horiz-adv-x="1046" d="M66 0l270 1475h147l-92 -492q-10 -59 -18 -100t-15.5 -75t-13.5 -63.5t-14 -62.5h4q23 43 58.5 99.5t85.5 106.5t114.5 85t144.5 35q125 0 175 -92q32 -59 33 -142q0 -47 -11 -102l-123 -672h-147l116 657q9 50 9 89q0 128 -99 128q-61 0 -126.5 -46t-127 -139 t-115 -236.5t-88.5 -339.5l-20 -113h-147z" />
<glyph unicode="i" horiz-adv-x="479" d="M76 0l178 983h147l-178 -983h-147zM266 1280q0 45 33 77t76 32q45 0 76.5 -32t31.5 -77t-31.5 -77t-76.5 -32q-43 0 -76 32t-33 77z" />
<glyph unicode="j" horiz-adv-x="479" d="M-309 -444l55 125q10 -6 37 -13.5t63 -7.5q51 0 88 18.5t61.5 53.5t41 84t26.5 110l191 1057h147l-190 -1073q-14 -80 -39 -149.5t-67 -121t-107.5 -81t-163.5 -29.5q-55 0 -89 9t-54 18zM266 1280q0 45 33 77t76 32q45 0 76.5 -32t31.5 -77t-31.5 -77t-76.5 -32 q-43 0 -76 32t-33 77z" />
<glyph unicode="k" horiz-adv-x="897" d="M53 0l256 1475h148l-256 -1475h-148zM313 549l451 434h182l-473 -442l313 -541h-157z" />
<glyph unicode="l" horiz-adv-x="481" d="M76 0l266 1475h147l-266 -1475h-147z" />
<glyph unicode="m" horiz-adv-x="1617" d="M66 0l178 983h141q-4 -25 -10 -63.5t-15.5 -81.5t-19.5 -87t-18 -81h4q25 49 60.5 108.5t84.5 110.5t111.5 85t138.5 34q74 0 117 -31t63.5 -78t21.5 -105v-8q0 -53 -12 -104h4q33 57 71 115.5t86 104.5t108.5 76t134.5 30q63 0 106 -26t65 -72q24 -46 28 -108 q1 -16 1 -32q0 -48 -10 -100l-121 -670h-145l113 631q8 43 11 86q1 12 1 23q0 30 -6 56q-8 36 -28.5 57t-61.5 21q-66 0 -131.5 -49t-125 -145t-109.5 -238.5t-83 -328.5l-20 -113h-148l115 631q6 37 9 80q1 12 1 23q0 30 -6 56q-8 36 -30.5 60t-65.5 24q-61 0 -125 -48 t-122 -143t-108.5 -237.5t-85.5 -332.5l-20 -113h-147z" />
<glyph unicode="n" horiz-adv-x="1046" d="M66 0l178 983h141q-4 -25 -11 -63.5t-15.5 -83.5t-18.5 -90.5t-21 -81.5h5q25 49 62.5 108t87.5 111.5t115.5 88.5t147.5 36q125 0 175 -92q32 -59 33 -142q0 -47 -11 -102l-123 -672h-147l116 657q9 50 9 89q0 128 -99 128q-61 0 -126.5 -46t-127 -139t-115 -236.5 t-88.5 -339.5l-20 -113h-147z" />
<glyph unicode="o" horiz-adv-x="976" d="M59 383q0 115 38 226.5t105.5 200.5t160 143.5t202.5 54.5q90 0 156.5 -34t109.5 -89.5t63.5 -128t20.5 -150.5q0 -123 -38.5 -236.5t-106.5 -201.5t-161 -140.5t-201 -52.5q-94 0 -161 37t-108 95.5t-60.5 131t-19.5 144.5zM205 387q0 -131 53 -210t160 -79 q78 0 141.5 44t109.5 115t71.5 156t25.5 169q0 147 -53.5 225t-157.5 78q-78 0 -142.5 -45t-110.5 -117t-71.5 -161t-25.5 -175z" />
<glyph unicode="p" horiz-adv-x="997" d="M-25 -446l261 1429h143q-8 -47 -16.5 -85t-16.5 -71.5t-16 -68.5t-19 -74h4q33 61 71 118.5t84 103.5t102.5 74t123.5 28q63 0 108.5 -26t74 -69t42 -100.5t13.5 -120.5q0 -137 -40 -266t-113.5 -229.5t-181 -161t-243.5 -60.5q-61 0 -101 6.5t-52 10.5l-80 -438h-148z M227 115q14 -4 45 -10.5t97 -6.5q98 0 176 49.5t130 130t79.5 185t27.5 215.5q0 86 -26.5 141t-89.5 55q-76 0 -143.5 -63t-123 -160.5t-95.5 -213t-58 -218.5z" />
<glyph unicode="q" horiz-adv-x="980" d="M63 291q0 143 41 273t117 228.5t183.5 157t240.5 58.5q45 0 91 -4.5t86 -9.5t71 -11t47 -10l-262 -1419h-146l86 450q6 33 14.5 72t16.5 78t17.5 76.5t19.5 68.5h-4q-31 -59 -70 -117.5t-85 -104.5t-101 -74t-121 -28t-112 26t-74.5 69t-42 100t-13.5 121zM213 311 q0 -88 26.5 -145t90.5 -57q74 0 143.5 61t125.5 156.5t96 211t59 224.5l16 100q-16 6 -58 13.5t-96 7.5q-96 0 -170.5 -48.5t-126 -128t-79 -183t-27.5 -212.5z" />
<glyph unicode="r" horiz-adv-x="727" d="M66 0l178 983h141q-10 -84 -30.5 -174t-37.5 -152h5q27 59 64.5 122t83.5 113t99.5 83t108.5 33q37 0 58.5 -4.5t41.5 -14.5l-61 -141q-12 4 -25.5 6t-32.5 2q-66 0 -128 -49t-117.5 -144.5t-101.5 -233.5t-79 -316l-20 -113h-147z" />
<glyph unicode="s" horiz-adv-x="724" d="M-14 78l80 106q39 -31 91 -58.5t134 -27.5q78 0 122 39t44 101q0 61 -42 111t-118 128q-35 37 -63.5 70t-49 65.5t-31 67.5t-10.5 76q0 117 84 184.5t226 67.5q82 0 137 -20.5t94 -49.5l-76 -111q-23 16 -63.5 36t-112.5 20q-68 0 -107.5 -31t-39.5 -88q0 -27 8 -49.5 t24.5 -46t41 -50t59.5 -63.5q43 -47 77.5 -84t57 -73t35 -73.5t12.5 -86.5q0 -53 -20.5 -100.5t-61.5 -83.5t-101.5 -57.5t-140.5 -21.5q-111 0 -183.5 36t-106.5 67z" />
<glyph unicode="t" horiz-adv-x="681" d="M84 864l20 119h175l51 277l155 36l-57 -313h242l-21 -119h-243l-109 -585q-8 -41 -12 -73t-1 -54.5t16 -35t42 -12.5q57 0 103.5 34t80.5 63l76 -103q-53 -47 -120.5 -85t-159.5 -38q-125 0 -165 71q-25 44 -25 111q0 40 9 89l115 618h-172z" />
<glyph unicode="u" horiz-adv-x="1046" d="M111 311l122 672h148l-117 -657q-9 -50 -9 -89q0 -128 99 -128q57 0 122 43t126.5 132t114.5 224t86 317l28 158h148l-100 -555q-18 -104 -30.5 -184t-19.5 -133q-8 -66 -12 -111h-143q10 80 25.5 169t31.5 163h-4q-29 -53 -66.5 -115.5t-89 -116t-117 -89.5t-147.5 -36 q-125 -1 -175 91q-32 58 -32 141q0 48 11 104z" />
<glyph unicode="v" horiz-adv-x="854" d="M96 983h150l78 -612q4 -41 8 -87t6 -87h4l434 786h156l-572 -983h-131z" />
<glyph unicode="w" horiz-adv-x="1392" d="M109 983h149l55 -571q4 -51 7.5 -109.5t5.5 -97.5h4l387 778h141l41 -561q4 -55 7 -110.5t3 -90.5h4l396 762h155l-534 -983h-127l-55 782h-5l-397 -782h-127z" />
<glyph unicode="x" horiz-adv-x="872" d="M-76 0l424 508l-229 475h162l163 -358l287 358h162l-393 -477l241 -506h-161l-179 387l-315 -387h-162z" />
<glyph unicode="y" horiz-adv-x="897" d="M-193 -416l62 121q16 -8 44 -15t77 -7q39 0 74.5 12t73.5 44t78 85t89 137l-199 1022h154l129 -721q6 -37 11.5 -71.5t9.5 -65.5h4q10 31 22.5 66.5t28.5 70.5l330 721h155l-360 -754q-86 -178 -155.5 -307t-138.5 -212t-145.5 -122t-175.5 -39q-80 0 -116.5 13.5 t-51.5 21.5z" />
<glyph unicode="z" horiz-adv-x="843" d="M-18 0l16 94l629 768h-475l20 121h664l-17 -100l-631 -762h525l-21 -121h-710z" />
<glyph unicode="{" horiz-adv-x="714" d="M59 528l21 115q111 0 176.5 56.5t83.5 164.5l68 391q20 117 90.5 168.5t169.5 51.5h166l-21 -117h-133q-68 0 -97.5 -42t-43.5 -120l-62 -358q-23 -123 -85 -180.5t-159 -77.5v-5q86 -25 129.5 -83t24.5 -168l-65 -383q-14 -80 1 -117t85 -37h135l-21 -117h-162 q-43 0 -80.5 15.5t-65.5 46t-40 74.5t-2 102l72 395q18 104 -27 163.5t-158 61.5z" />
<glyph unicode="|" horiz-adv-x="575" d="M231 -512v2048h117v-2048h-117z" />
<glyph unicode="}" horiz-adv-x="714" d="M-92 -330l20 117h133q72 0 100.5 44t41.5 118l63 375q18 113 82 173t164 89v4q-86 23 -129 83t-25 171l62 360q14 82 -1.5 118t-84.5 36h-135l20 117h172q41 0 78 -14.5t62.5 -44.5t36 -74t-0.5 -103l-65 -375q-16 -100 32 -160.5t152 -64.5l-20 -115q-100 0 -170 -54 t-90 -167l-72 -414q-20 -117 -92 -168t-160 -51h-174z" />
<glyph unicode="~" horiz-adv-x="1204" d="M113 518q47 41 116.5 81t151.5 40q70 0 122 -22.5t100 -48t100.5 -48t123.5 -22.5q49 0 99.5 23.5t95.5 60.5l70 -93q-55 -53 -129 -88.5t-148 -35.5q-84 0 -142.5 22.5t-107.5 49t-94 49t-102 22.5q-61 0 -104.5 -25.5t-78.5 -56.5z" />
<glyph unicode="&#xa1;" horiz-adv-x="507" d="M16 -375l201 957h115l-135 -957h-181zM193 889q0 49 34.5 84t81.5 35q51 0 86 -35t35 -84q0 -47 -35 -81t-86 -34q-47 0 -81.5 34t-34.5 81z" />
<glyph unicode="&#xa2;" horiz-adv-x="806" d="M55 356q0 123 35 230.5t95.5 190.5t139 139.5t167.5 78.5l38 219h146l-37 -208q72 -6 117 -25.5t71 -40.5l-75 -117q-23 16 -64 33.5t-113 17.5q-68 0 -134 -34.5t-119.5 -100t-86 -159t-32.5 -207.5q0 -139 52 -203t138 -64q45 0 84 12.5t68.5 30t52.5 37t37 33.5 l88 -96q-16 -16 -43 -38t-60.5 -41t-74.5 -36.5t-88 -25.5q-2 -16 -6 -37q-4 -16 -6.5 -37t-6.5 -43q-8 -53 -20 -117h-146q12 63 21 117q4 23 6 43t6 37q4 20 6 37q-119 23 -187.5 119t-68.5 255z" />
<glyph unicode="&#xa3;" horiz-adv-x="931" d="M16 0l19 100q63 33 112.5 81t84 102.5t56 112t29.5 106.5q8 51 13 108h-195l21 119h178q4 70 7 140.5t15 144.5q31 178 127.5 276.5t274.5 98.5q51 0 90 -6.5t67.5 -17.5t49 -23.5t36.5 -24.5l-75 -119q-29 18 -70 38.5t-117 20.5q-96 0 -150 -59t-79 -194 q-12 -70 -16.5 -136.5t-8.5 -138.5h299l-20 -119h-287q-2 -27 -6 -54.5t-8 -55.5q-12 -76 -38 -136.5t-56.5 -106.5t-63.5 -78t-61 -52h520l-21 -127h-727z" />
<glyph unicode="&#xa4;" horiz-adv-x="1116" d="M41 463l20 119h142q2 43 7 85t13 83h-131l21 118h141q37 115 98.5 211.5t144.5 165t182 106.5t214 38q68 0 116 -7.5t83.5 -18.5t61.5 -25.5t48 -30.5l-82 -121q-35 23 -88 46t-155 23q-84 0 -155 -28.5t-129 -78.5t-102.5 -122t-72.5 -158h366l-20 -118h-379 q-8 -41 -13 -83t-7 -85h368l-20 -119h-348q6 -78 26.5 -142.5t59 -111.5t97 -72.5t138.5 -25.5q90 0 157.5 28.5t108.5 53.5l56 -123q-47 -29 -128 -62t-210 -33q-115 0 -200 39t-141.5 106.5t-88 156t-37.5 186.5h-162z" />
<glyph unicode="&#xa5;" horiz-adv-x="1114" d="M106 197l23 118h334l26 148h-335l22 119h297l-283 782h154l248 -717h2l471 717h160l-531 -782h297l-22 -119h-330l-27 -148h332l-22 -118h-332l-35 -197h-149l34 197h-334z" />
<glyph unicode="&#xa6;" horiz-adv-x="2205" d="M143 -444v1919h1919v-1919h-1919zM297 -291h1612v1612h-1612v-1612zM782 0v1042h140v-495l413 495h162l-414 -489l441 -553h-174q-121 150 -215 268q-41 51 -80 98.5t-68 86.5q-37 43 -65 84v-537h-140z" />
<glyph unicode="&#xa7;" horiz-adv-x="837" d="M6 -240l78 111q25 -18 60.5 -34.5t101.5 -16.5q100 0 148 57t48 141q0 76 -50 155t-110.5 165t-110.5 179t-50 198q0 98 49 163.5t137 118.5q-16 37 -26.5 76t-10.5 80q0 90 33 155.5t83 107.5t112.5 62.5t124.5 20.5q100 0 152 -19.5t87 -43.5l-80 -117 q-23 16 -60.5 33.5t-109.5 17.5q-98 0 -146 -60.5t-48 -150.5q0 -74 50 -150.5t111.5 -159.5t111.5 -173t50 -191q0 -106 -52 -174t-134 -125q16 -37 25.5 -72.5t9.5 -74.5q0 -90 -29 -155.5t-77 -108.5t-111.5 -64.5t-132.5 -21.5q-90 0 -147.5 24.5t-86.5 46.5zM268 725 q0 -55 25.5 -114.5t83.5 -145.5q33 -47 63.5 -91t57.5 -85q53 39 76.5 84t23.5 98q0 59 -45 142t-121 188q-18 25 -36 49t-34 49q-47 -29 -70.5 -68.5t-23.5 -105.5z" />
<glyph unicode="&#xa8;" horiz-adv-x="1024" d="M346 1212q0 43 30 73t73 30q47 0 75.5 -30t28.5 -73q0 -45 -29.5 -74.5t-74.5 -29.5q-43 0 -73 29.5t-30 74.5zM721 1212q0 43 29.5 73t72.5 30q47 0 76 -30t29 -73q0 -45 -30 -74.5t-75 -29.5q-43 0 -72.5 29.5t-29.5 74.5z" />
<glyph unicode="&#xa9;" horiz-adv-x="1689" d="M123 735q0 158 60.5 297t164 242.5t241.5 164t296 60.5t297 -60.5t242.5 -164t164 -242.5t60.5 -297t-60.5 -297t-164 -242.5t-243 -164t-296.5 -60.5q-158 0 -296 60.5t-241.5 164t-164 243t-60.5 296.5zM238 735q0 -143 49 -264t135 -208t204.5 -136t258.5 -49 q139 0 258 49t206 136t136 208t49 264t-49 263t-136 208t-206 137.5t-258 49.5t-258 -49.5t-205 -137.5t-135 -207.5t-49 -263.5zM432 735q0 100 36 186.5t99.5 151t149.5 101t184 36.5q109 0 173.5 -30.5t115.5 -71.5l-78 -98q-33 29 -81 54.5t-132 25.5q-82 0 -141.5 -32 t-99.5 -82t-59 -112.5t-19 -124.5q0 -74 25.5 -139t69.5 -114.5t104.5 -77t129.5 -27.5q90 0 146.5 30.5t91.5 59.5l63 -104q-51 -41 -123.5 -74t-185.5 -33q-102 0 -188 38t-148.5 102.5t-97.5 151.5t-35 183z" />
<glyph unicode="&#xaa;" horiz-adv-x="718" d="M129 850q0 98 30.5 194.5t88 173t138.5 124t183 47.5q78 0 131.5 -12.5t75.5 -20.5l-69 -389q-10 -61 -18.5 -116.5t-12.5 -96.5l-10 -92h-121q10 59 17 110t22 111h-2q-47 -100 -116 -170t-157 -70q-86 0 -133 58.5t-47 148.5zM260 864q0 -41 17.5 -73.5t64.5 -32.5 q45 0 92 41t86 105.5t68.5 146.5t42.5 161l8 54q-12 4 -38 8t-52 4q-66 0 -119 -34t-91 -90t-58.5 -132t-20.5 -158z" />
<glyph unicode="&#xab;" horiz-adv-x="921" d="M61 502l342 389h164l-350 -402l197 -374h-148zM426 502l342 389h164l-350 -402l196 -374h-147z" />
<glyph unicode="&#xac;" horiz-adv-x="974" d="M66 0l266 1475h147l-73 -416q-6 -29 -14.5 -66t-17.5 -75.5t-18.5 -75.5t-15.5 -64h6q29 43 63.5 84t76.5 74t91.5 52.5t106.5 19.5q109 0 171.5 -64.5t62.5 -157.5q0 -88 -34 -151.5t-88.5 -108.5t-121 -73.5t-129.5 -46.5l301 -406h-166l-340 459q76 10 153.5 32.5 t139 59.5t100.5 90t39 125q0 53 -29.5 86t-95.5 33q-53 0 -109.5 -36t-106.5 -97.5t-89 -144.5t-55 -179l-74 -428h-147z" />
<glyph unicode="&#xad;" horiz-adv-x="624" d="M111 522l22 131h412l-23 -131h-411z" />
<glyph unicode="&#xae;" horiz-adv-x="1689" d="M123 735q0 158 60.5 297t164 242.5t241.5 164t296 60.5t297 -60.5t242.5 -164t164 -242.5t60.5 -297t-60.5 -297t-164 -242.5t-243 -164t-296.5 -60.5q-158 0 -296 60.5t-241.5 164t-164 243t-60.5 296.5zM238 735q0 -143 49 -264t135 -208t204.5 -136t258.5 -49 q139 0 258 49t206 136t136 208t49 264t-49 263t-136 208t-206 137.5t-258 49.5t-258 -49.5t-205 -137.5t-135 -207.5t-49 -263.5zM608 279v925h301q70 0 124 -21.5t89 -57t53.5 -83t18.5 -98.5q0 -102 -64.5 -162.5t-181.5 -76.5q31 -23 55.5 -51.5t53.5 -69.5l215 -305 h-162l-223 325q-35 51 -63.5 70.5t-82.5 19.5v-415h-133zM741 799h95q39 0 77.5 4t69.5 18.5t49.5 44t18.5 78.5q0 66 -38 106t-134 40h-138v-291z" />
<glyph unicode="&#xaf;" horiz-adv-x="1024" d="M352 1176l23 124h555l-23 -124h-555z" />
<glyph unicode="&#xb0;" horiz-adv-x="694" d="M174 1122q0 55 20.5 103.5t56.5 84.5t84 57.5t101 21.5q55 0 103.5 -21.5t84 -57.5t56 -84.5t20.5 -103.5t-20.5 -103t-56 -84t-83.5 -57.5t-104 -21.5q-53 0 -101 21.5t-84 57.5t-56.5 84t-20.5 103zM285 1122q0 -68 43 -116t108 -48q68 0 111 48t43 116q0 66 -43 115 t-111 49q-66 0 -108.5 -49t-42.5 -115z" />
<glyph unicode="&#xb1;" horiz-adv-x="1705" d="M-262 -438l49 123q29 -12 62.5 -21.5t74.5 -9.5q47 0 81 21.5t56.5 56.5t37 79t22.5 91l176 962h-197l21 119h198l21 115q37 199 138.5 292t281.5 93q111 0 178.5 -29t110.5 -63q55 57 130.5 82.5t174.5 25.5q133 0 213 -18.5t129 -38.5l-260 -1442h-148l242 1341 q-35 10 -81 16.5t-108 6.5q-121 0 -181 -55.5t-83 -182.5l-26 -143h241l-20 -119h-244l-174 -960q-33 -178 -110.5 -271.5t-233.5 -93.5q-59 0 -100 11.5t-74 27.5l49 123q29 -12 61.5 -21.5t73.5 -9.5q45 0 77 20.5t53.5 54.5t34.5 76t22 87l176 956h-439l-176 -966 q-35 -186 -113.5 -280.5t-240.5 -94.5q-59 0 -100 11t-76 28zM467 983h436l31 164q6 37 16.5 68.5t22.5 60.5q-35 29 -87 50.5t-138 21.5q-123 0 -180.5 -62.5t-84.5 -208.5z" />
<glyph unicode="&#xb2;" horiz-adv-x="2205" d="M143 -444v1919h1919v-1919h-1919zM297 -291h1612v1612h-1612v-1612zM782 0v1042h140v-495l413 495h162l-414 -489l441 -553h-174q-121 150 -215 268q-41 51 -80 98.5t-68 86.5q-37 43 -65 84v-537h-140z" />
<glyph unicode="&#xb3;" horiz-adv-x="2205" d="M143 -444v1919h1919v-1919h-1919zM297 -291h1612v1612h-1612v-1612zM782 0v1042h140v-495l413 495h162l-414 -489l441 -553h-174q-121 150 -215 268q-41 51 -80 98.5t-68 86.5q-37 43 -65 84v-537h-140z" />
<glyph unicode="&#xb4;" horiz-adv-x="1024" d="M305 1106l227 258h228l-311 -258h-144z" />
<glyph unicode="&#xb6;" horiz-adv-x="1241" d="M186 903q0 100 36 185.5t99.5 146.5t149.5 95t184 34h641l-22 -129h-160l-280 -1597h-136l281 1597h-209l-281 -1597h-137l162 923q-70 0 -130 24.5t-104 69.5t-69 108.5t-25 139.5z" />
<glyph unicode="&#xb7;" horiz-adv-x="481" d="M123 596q0 47 35 82t84 35q47 0 81.5 -35t34.5 -82t-34.5 -82t-81.5 -35q-49 0 -84 35t-35 82z" />
<glyph unicode="&#xb8;" horiz-adv-x="1024" d="M205 -426l31 84q10 -4 35.5 -11t66.5 -7q47 0 74.5 19t27.5 60q0 29 -12 46.5t-32.5 26.5t-47 11t-53.5 0l74 197h104l-51 -135q61 -10 102 -48.5t41 -101.5q0 -78 -65.5 -121t-159.5 -43q-55 0 -87 8.5t-48 14.5z" />
<glyph unicode="&#xb9;" horiz-adv-x="2205" d="M143 -444v1919h1919v-1919h-1919zM297 -291h1612v1612h-1612v-1612zM782 0v1042h140v-495l413 495h162l-414 -489l441 -553h-174q-121 150 -215 268q-41 51 -80 98.5t-68 86.5q-37 43 -65 84v-537h-140z" />
<glyph unicode="&#xba;" horiz-adv-x="739" d="M139 942q0 82 28 163t79 143.5t120.5 101.5t153.5 39q68 0 117 -23t82 -62.5t49 -92t16 -113.5q0 -96 -28.5 -179t-78.5 -143.5t-121 -95.5t-155 -35q-66 0 -113.5 23.5t-81.5 63.5t-50.5 94.5t-16.5 115.5zM268 944q0 -96 35 -145t113 -49q55 0 99 27.5t75 73.5 t47 105.5t16 122.5q0 98 -33.5 151.5t-113.5 53.5q-55 0 -99.5 -29.5t-75 -78t-47 -109.5t-16.5 -123z" />
<glyph unicode="&#xbb;" horiz-adv-x="921" d="M-2 115l342 399l-197 377h148l205 -391l-334 -385h-164zM362 115l343 399l-197 377h147l205 -391l-334 -385h-164z" />
<glyph unicode="&#xbc;" horiz-adv-x="2205" d="M143 -444v1919h1919v-1919h-1919zM297 -291h1612v1612h-1612v-1612zM782 0v1042h140v-495l413 495h162l-414 -489l441 -553h-174q-121 150 -215 268q-41 51 -80 98.5t-68 86.5q-37 43 -65 84v-537h-140z" />
<glyph unicode="&#xbd;" horiz-adv-x="2205" d="M143 -444v1919h1919v-1919h-1919zM297 -291h1612v1612h-1612v-1612zM782 0v1042h140v-495l413 495h162l-414 -489l441 -553h-174q-121 150 -215 268q-41 51 -80 98.5t-68 86.5q-37 43 -65 84v-537h-140z" />
<glyph unicode="&#xbe;" horiz-adv-x="2205" d="M143 -444v1919h1919v-1919h-1919zM297 -291h1612v1612h-1612v-1612zM782 0v1042h140v-495l413 495h162l-414 -489l441 -553h-174q-121 150 -215 268q-41 51 -80 98.5t-68 86.5q-37 43 -65 84v-537h-140z" />
<glyph unicode="&#xbf;" horiz-adv-x="903" d="M35 -102q0 82 28.5 143t74.5 109.5t104.5 84t115.5 68.5q59 33 88 72t41 106l21 113h141l-22 -129q-8 -49 -20.5 -86t-34 -65.5t-55.5 -55.5t-85 -55q-53 -31 -97 -58.5t-75 -60.5t-48 -74t-17 -98q0 -82 53 -131t160 -49q57 0 103 15t71 26l43 -119q-37 -18 -99.5 -35.5 t-140.5 -17.5q-86 0 -151.5 24.5t-109.5 65.5t-66.5 94t-22.5 113zM506 889q0 49 34.5 84t82.5 35q51 0 85.5 -35t34.5 -84q0 -47 -34.5 -81t-85.5 -34q-47 0 -82 34t-35 81z" />
<glyph unicode="&#xc0;" d="M-43 0l764 1364h153l236 -1364h-160l-55 338h-592l-186 -338h-160zM377 473h495l-73 457q-8 47 -15.5 93t-11.5 81q-6 41 -10 80h-4q-16 -41 -39 -82q-18 -37 -42 -81t-48 -91zM516 1733h199l145 -258h-127z" />
<glyph unicode="&#xc1;" d="M-43 0l764 1364h153l236 -1364h-160l-55 338h-592l-186 -338h-160zM377 473h495l-73 457q-8 47 -15.5 93t-11.5 81q-6 41 -10 80h-4q-16 -41 -39 -82q-18 -37 -42 -81t-48 -91zM739 1475l227 258h228l-311 -258h-144z" />
<glyph unicode="&#xc2;" d="M-43 0l764 1364h153l236 -1364h-160l-55 338h-592l-186 -338h-160zM377 473h495l-73 457q-8 47 -15.5 93t-11.5 81q-6 41 -10 80h-4q-16 -41 -39 -82q-18 -37 -42 -81t-48 -91zM482 1477l301 313h102l188 -313h-125l-133 182l-192 -182h-141z" />
<glyph unicode="&#xc3;" d="M-43 0l764 1364h153l236 -1364h-160l-55 338h-592l-186 -338h-160zM377 473h495l-73 457q-8 47 -15.5 93t-11.5 81q-6 41 -10 80h-4q-16 -41 -39 -82q-18 -37 -42 -81t-48 -91zM504 1573q33 43 81 81t114 38q37 0 62.5 -12.5t48 -27.5t45 -27.5t51.5 -12.5 q41 0 68.5 20.5t43.5 39.5l64 -70q-35 -43 -84 -82t-117 -39q-37 0 -62.5 12.5t-48 27.5t-45 27.5t-51.5 12.5q-35 0 -62.5 -21.5t-45.5 -37.5z" />
<glyph unicode="&#xc4;" d="M-43 0l764 1364h153l236 -1364h-160l-55 338h-592l-186 -338h-160zM377 473h495l-73 457q-8 47 -15.5 93t-11.5 81q-6 41 -10 80h-4q-16 -41 -39 -82q-18 -37 -42 -81t-48 -91zM530 1581q0 43 30 73t73 30q47 0 75.5 -30t28.5 -73q0 -45 -29.5 -74.5t-74.5 -29.5 q-43 0 -73 29.5t-30 74.5zM905 1581q0 43 29.5 73t72.5 30q47 0 76 -30t29 -73q0 -45 -30 -74.5t-75 -29.5q-43 0 -72.5 29.5t-29.5 74.5z" />
<glyph unicode="&#xc5;" d="M-43 0l764 1364h153l236 -1364h-160l-55 338h-592l-186 -338h-160zM377 473h495l-73 457q-8 47 -15.5 93t-11.5 81q-6 41 -10 80h-4q-16 -41 -39 -82q-18 -37 -42 -81t-48 -91zM623 1677q0 43 15 79t42 62.5t61.5 41t73.5 14.5t74 -14.5t61.5 -40t42 -61.5t15.5 -79 t-15.5 -78.5t-42 -61.5t-61.5 -40t-74 -14t-73.5 14t-61.5 39t-42 60.5t-15 78.5zM715 1679q0 -47 25.5 -79.5t74.5 -32.5q47 0 73.5 32.5t26.5 79.5q0 49 -26.5 81t-73.5 32q-49 0 -74.5 -31.5t-25.5 -81.5z" />
<glyph unicode="&#xc6;" horiz-adv-x="1658" d="M-129 0l1036 1364h117h653l-24 -135h-529l-80 -438h467l-24 -136h-465l-92 -520h543l-25 -135h-700l61 338h-512l-256 -338h-170zM399 473h432q10 55 21 117q10 53 22.5 119.5t24.5 138.5q29 166 68 377z" />
<glyph unicode="&#xc7;" d="M119 547q0 174 60.5 326.5t165 267t246.5 181.5t308 67q74 0 131 -7.5t101.5 -19.5t79 -29.5t65.5 -38.5l-92 -118q-53 37 -123 58t-174 21q-133 0 -244 -55t-190.5 -151.5t-123.5 -224.5t-44 -271q0 -92 22.5 -173t70.5 -141.5t124 -94t182 -33.5q113 0 193.5 34.5 t150.5 87.5l70 -110q-33 -29 -79 -55.5t-102.5 -47t-118 -33t-124.5 -12.5l-41 -110q61 -10 102 -48t41 -102q0 -78 -65.5 -121t-159.5 -43q-55 0 -87 8.5t-48 14.5l30 84q10 -4 36 -11t67 -7q47 0 74.5 19t27.5 60q0 29 -12 46.5t-32.5 26.5t-47.5 11t-53 0l67 179 q-115 16 -200.5 66t-142 125t-84 170t-27.5 204z" />
<glyph unicode="&#xc8;" horiz-adv-x="1011" d="M100 0l244 1364h686l-24 -135h-529l-80 -438h467l-24 -136h-465l-92 -520h542l-24 -135h-701zM432 1733h199l145 -258h-127z" />
<glyph unicode="&#xc9;" horiz-adv-x="1011" d="M100 0l244 1364h686l-24 -135h-529l-80 -438h467l-24 -136h-465l-92 -520h542l-24 -135h-701zM618 1475l227 258h228l-311 -258h-144z" />
<glyph unicode="&#xca;" horiz-adv-x="1011" d="M100 0l244 1364h686l-24 -135h-529l-80 -438h467l-24 -136h-465l-92 -520h542l-24 -135h-701zM406 1477l301 313h102l188 -313h-125l-133 182l-192 -182h-141z" />
<glyph unicode="&#xcb;" horiz-adv-x="1011" d="M100 0l244 1364h686l-24 -135h-529l-80 -438h467l-24 -136h-465l-92 -520h542l-24 -135h-701zM426 1581q0 43 30 73t73 30q47 0 75.5 -30t28.5 -73q0 -45 -29.5 -74.5t-74.5 -29.5q-43 0 -73 29.5t-30 74.5zM801 1581q0 43 29.5 73t72.5 30q47 0 76 -30t29 -73 q0 -45 -30 -74.5t-75 -29.5q-43 0 -72.5 29.5t-29.5 74.5z" />
<glyph unicode="&#xcc;" horiz-adv-x="563" d="M113 0l243 1364h158l-244 -1364h-157zM158 1733h199l145 -258h-127z" />
<glyph unicode="&#xcd;" horiz-adv-x="563" d="M113 0l243 1364h158l-244 -1364h-157zM377 1475l227 258h228l-311 -258h-144z" />
<glyph unicode="&#xce;" horiz-adv-x="563" d="M113 0l243 1364h158l-244 -1364h-157zM142 1477l301 313h102l188 -313h-125l-133 182l-192 -182h-141z" />
<glyph unicode="&#xcf;" horiz-adv-x="563" d="M113 0l243 1364h158l-244 -1364h-157zM168 1581q0 43 30 73t73 30q47 0 75.5 -30t28.5 -73q0 -45 -29.5 -74.5t-74.5 -29.5q-43 0 -73 29.5t-30 74.5zM543 1581q0 43 29.5 73t72.5 30q47 0 76 -30t29 -73q0 -45 -30 -74.5t-75 -29.5q-43 0 -72.5 29.5t-29.5 74.5z" />
<glyph unicode="&#xd0;" horiz-adv-x="1368" d="M88 643l23 119h141l108 602h302q170 0 292.5 -38t202.5 -106.5t119 -166t39 -215.5q0 -162 -51.5 -313.5t-155.5 -268.5t-261 -186.5t-368 -69.5h-362l114 643h-143zM299 131h205q158 0 278.5 54.5t201.5 148.5t123 221t42 272q0 211 -121 308.5t-385 97.5h-149l-84 -471 h231l-23 -119h-229z" />
<glyph unicode="&#xd1;" horiz-adv-x="1406" d="M94 0l244 1364h154l460 -950q53 -115 80 -199h4q4 41 12.5 97.5t18.5 115.5l166 936h143l-241 -1364h-146l-473 977q-23 47 -40 88t-34 92h-4q-4 -41 -11 -87t-17 -107l-172 -963h-144zM598 1573q33 43 81 81t114 38q37 0 62.5 -12.5t48 -27.5t45 -27.5t51.5 -12.5 q41 0 68.5 20.5t43.5 39.5l64 -70q-35 -43 -84 -82t-117 -39q-37 0 -62.5 12.5t-48 27.5t-45 27.5t-51.5 12.5q-35 0 -62.5 -21.5t-45.5 -37.5z" />
<glyph unicode="&#xd2;" horiz-adv-x="1503" d="M123 563q0 152 53 300.5t150.5 265t234.5 188.5t307 72q145 0 254 -48.5t179.5 -130.5t105.5 -189.5t35 -225.5q0 -152 -51.5 -298.5t-148.5 -262t-235.5 -187.5t-310.5 -72q-137 0 -243.5 48.5t-180 130.5t-111.5 188.5t-38 220.5zM287 565q0 -94 28.5 -177t82 -145.5 t131 -98t176.5 -35.5q135 0 241.5 58t180 155.5t112.5 221.5t39 253q0 92 -26.5 175t-79 145.5t-131 100t-183.5 37.5q-135 0 -240.5 -58t-179 -154.5t-112.5 -221.5t-39 -256zM600 1733h199l145 -258h-127z" />
<glyph unicode="&#xd3;" horiz-adv-x="1503" d="M123 563q0 152 53 300.5t150.5 265t234.5 188.5t307 72q145 0 254 -48.5t179.5 -130.5t105.5 -189.5t35 -225.5q0 -152 -51.5 -298.5t-148.5 -262t-235.5 -187.5t-310.5 -72q-137 0 -243.5 48.5t-180 130.5t-111.5 188.5t-38 220.5zM287 565q0 -94 28.5 -177t82 -145.5 t131 -98t176.5 -35.5q135 0 241.5 58t180 155.5t112.5 221.5t39 253q0 92 -26.5 175t-79 145.5t-131 100t-183.5 37.5q-135 0 -240.5 -58t-179 -154.5t-112.5 -221.5t-39 -256zM809 1475l227 258h228l-311 -258h-144z" />
<glyph unicode="&#xd4;" horiz-adv-x="1503" d="M123 563q0 152 53 300.5t150.5 265t234.5 188.5t307 72q145 0 254 -48.5t179.5 -130.5t105.5 -189.5t35 -225.5q0 -152 -51.5 -298.5t-148.5 -262t-235.5 -187.5t-310.5 -72q-137 0 -243.5 48.5t-180 130.5t-111.5 188.5t-38 220.5zM287 565q0 -94 28.5 -177t82 -145.5 t131 -98t176.5 -35.5q135 0 241.5 58t180 155.5t112.5 221.5t39 253q0 92 -26.5 175t-79 145.5t-131 100t-183.5 37.5q-135 0 -240.5 -58t-179 -154.5t-112.5 -221.5t-39 -256zM578 1477l301 313h102l188 -313h-125l-133 182l-192 -182h-141z" />
<glyph unicode="&#xd5;" horiz-adv-x="1503" d="M123 563q0 152 53 300.5t150.5 265t234.5 188.5t307 72q145 0 254 -48.5t179.5 -130.5t105.5 -189.5t35 -225.5q0 -152 -51.5 -298.5t-148.5 -262t-235.5 -187.5t-310.5 -72q-137 0 -243.5 48.5t-180 130.5t-111.5 188.5t-38 220.5zM287 565q0 -94 28.5 -177t82 -145.5 t131 -98t176.5 -35.5q135 0 241.5 58t180 155.5t112.5 221.5t39 253q0 92 -26.5 175t-79 145.5t-131 100t-183.5 37.5q-135 0 -240.5 -58t-179 -154.5t-112.5 -221.5t-39 -256zM635 1573q33 43 81 81t114 38q37 0 62.5 -12.5t48 -27.5t45 -27.5t51.5 -12.5q41 0 68.5 20.5 t43.5 39.5l64 -70q-35 -43 -84 -82t-117 -39q-37 0 -62.5 12.5t-48 27.5t-45 27.5t-51.5 12.5q-35 0 -62.5 -21.5t-45.5 -37.5z" />
<glyph unicode="&#xd6;" horiz-adv-x="1503" d="M123 563q0 152 53 300.5t150.5 265t234.5 188.5t307 72q145 0 254 -48.5t179.5 -130.5t105.5 -189.5t35 -225.5q0 -152 -51.5 -298.5t-148.5 -262t-235.5 -187.5t-310.5 -72q-137 0 -243.5 48.5t-180 130.5t-111.5 188.5t-38 220.5zM287 565q0 -94 28.5 -177t82 -145.5 t131 -98t176.5 -35.5q135 0 241.5 58t180 155.5t112.5 221.5t39 253q0 92 -26.5 175t-79 145.5t-131 100t-183.5 37.5q-135 0 -240.5 -58t-179 -154.5t-112.5 -221.5t-39 -256zM629 1581q0 43 30 73t73 30q47 0 75.5 -30t28.5 -73q0 -45 -29.5 -74.5t-74.5 -29.5 q-43 0 -73 29.5t-30 74.5zM1004 1581q0 43 29.5 73t72.5 30q47 0 76 -30t29 -73q0 -45 -30 -74.5t-75 -29.5q-43 0 -72.5 29.5t-29.5 74.5z" />
<glyph unicode="&#xd7;" horiz-adv-x="2205" d="M143 -444v1919h1919v-1919h-1919zM297 -291h1612v1612h-1612v-1612zM782 0v1042h140v-495l413 495h162l-414 -489l441 -553h-174q-121 150 -215 268q-41 51 -80 98.5t-68 86.5q-37 43 -65 84v-537h-140z" />
<glyph unicode="&#xd8;" horiz-adv-x="1503" d="M70 -70l196 232q-72 82 -107.5 185.5t-35.5 215.5q0 152 53 300.5t150.5 265t234.5 188.5t307 72q111 0 199 -28t156 -79l168 197l84 -70l-172 -201q72 -84 105.5 -189.5t33.5 -223.5q0 -152 -51.5 -298.5t-148.5 -262t-235.5 -187.5t-310.5 -72q-106 0 -194 29t-156 82 l-192 -225zM287 565q0 -168 84 -286l755 886q-51 41 -116.5 65.5t-151.5 24.5q-135 0 -240.5 -58t-179 -154.5t-112.5 -221.5t-39 -256zM438 201q53 -43 119 -67.5t148 -24.5q135 0 241.5 58t180 155.5t112.5 221.5t39 253q0 80 -20.5 154.5t-61.5 133.5l-33 -37 q-33 -38 -86 -99.5t-120.5 -141.5t-138 -163t-139.5 -163t-122 -142.5t-86 -100.5z" />
<glyph unicode="&#xd9;" horiz-adv-x="1382" d="M176.5 295q-16.5 98 3.5 215l152 854h155l-147 -834q-39 -217 32.5 -317t264.5 -100q188 0 286.5 101t135.5 306l149 844h148l-156 -870q-23 -119 -64.5 -214.5t-111.5 -163t-168 -104.5t-233 -37q-133 0 -226.5 40t-148.5 111t-71.5 169zM573 1733h199l145 -258h-127z " />
<glyph unicode="&#xda;" horiz-adv-x="1382" d="M176.5 295q-16.5 98 3.5 215l152 854h155l-147 -834q-39 -217 32.5 -317t264.5 -100q188 0 286.5 101t135.5 306l149 844h148l-156 -870q-23 -119 -64.5 -214.5t-111.5 -163t-168 -104.5t-233 -37q-133 0 -226.5 40t-148.5 111t-71.5 169zM739 1475l227 258h228 l-311 -258h-144z" />
<glyph unicode="&#xdb;" horiz-adv-x="1382" d="M176.5 295q-16.5 98 3.5 215l152 854h155l-147 -834q-39 -217 32.5 -317t264.5 -100q188 0 286.5 101t135.5 306l149 844h148l-156 -870q-23 -119 -64.5 -214.5t-111.5 -163t-168 -104.5t-233 -37q-133 0 -226.5 40t-148.5 111t-71.5 169zM560 1477l301 313h102l188 -313 h-125l-133 182l-192 -182h-141z" />
<glyph unicode="&#xdc;" horiz-adv-x="1382" d="M176.5 295q-16.5 98 3.5 215l152 854h155l-147 -834q-39 -217 32.5 -317t264.5 -100q188 0 286.5 101t135.5 306l149 844h148l-156 -870q-23 -119 -64.5 -214.5t-111.5 -163t-168 -104.5t-233 -37q-133 0 -226.5 40t-148.5 111t-71.5 169zM565 1581q0 43 30 73t73 30 q47 0 75.5 -30t28.5 -73q0 -45 -29.5 -74.5t-74.5 -29.5q-43 0 -73 29.5t-30 74.5zM940 1581q0 43 29.5 73t72.5 30q47 0 76 -30t29 -73q0 -45 -30 -74.5t-75 -29.5q-43 0 -72.5 29.5t-29.5 74.5z" />
<glyph unicode="&#xdd;" horiz-adv-x="1114" d="M184 1364h164l246 -700h2l465 700h166l-578 -852l-92 -512h-158l93 514zM618 1475l227 258h228l-311 -258h-144z" />
<glyph unicode="&#xde;" horiz-adv-x="1081" d="M100 0l244 1364h156l-41 -236h174q190 0 306 -87t116 -253q0 -113 -42 -200.5t-118 -148t-179.5 -92.5t-226.5 -32h-174l-57 -315h-158zM340 451h164q197 0 291 87t94 232q0 51 -14.5 92t-48 70t-88 45t-132.5 16h-170z" />
<glyph unicode="&#xdf;" horiz-adv-x="1024" d="M-356 -432l49 123q29 -12 62.5 -21.5t74.5 -9.5q47 0 81 20.5t56.5 55.5t36.5 80t23 92l213 1161q20 117 65 199t107.5 133t142.5 74.5t170 23.5q74 0 130 -21.5t94 -59.5t57.5 -88t19.5 -107q0 -86 -30.5 -148.5t-76 -108.5t-98.5 -81t-98 -67t-76 -63.5t-31 -74.5 q0 -41 50.5 -77t111 -79t110.5 -101t50 -144q0 -129 -88 -216.5t-268 -87.5q-90 0 -153.5 22.5t-98.5 45.5l67 113q27 -18 77 -38t116 -20q98 0 151.5 47.5t53.5 128.5q0 39 -23.5 71t-59.5 60.5t-77 55t-77 57.5t-59.5 68t-23.5 84q0 57 30 102t75 82t97 72t97 73.5t75 88 t30 112.5q0 80 -42 128t-135 48q-119 0 -201.5 -70.5t-113.5 -236.5l-215 -1165q-16 -92 -44 -162t-69 -118t-100 -71.5t-139 -23.5q-59 0 -100.5 11t-75.5 28z" />
<glyph unicode="&#xe0;" horiz-adv-x="985" d="M61 276q0 135 38 267.5t112 235t182.5 166t249.5 63.5q106 0 177 -14.5t102 -24.5l-99 -541q-18 -104 -30.5 -184t-18.5 -133q-8 -66 -12 -111h-144q10 82 22.5 151.5t33.5 151.5h-4q-31 -61 -67 -120.5t-80 -105.5t-98 -74t-122 -28q-123 0 -182.5 84t-59.5 217z M211 299q0 -100 31.5 -145t93.5 -45q68 0 133.5 61t119.5 157.5t93 211t55 223.5l15 98q-16 6 -55.5 12.5t-82.5 6.5q-96 0 -170.5 -49.5t-127 -131.5t-79 -185t-26.5 -214zM373 1364h199l145 -258h-127z" />
<glyph unicode="&#xe1;" horiz-adv-x="985" d="M61 276q0 135 38 267.5t112 235t182.5 166t249.5 63.5q106 0 177 -14.5t102 -24.5l-99 -541q-18 -104 -30.5 -184t-18.5 -133q-8 -66 -12 -111h-144q10 82 22.5 151.5t33.5 151.5h-4q-31 -61 -67 -120.5t-80 -105.5t-98 -74t-122 -28q-123 0 -182.5 84t-59.5 217z M211 299q0 -100 31.5 -145t93.5 -45q68 0 133.5 61t119.5 157.5t93 211t55 223.5l15 98q-16 6 -55.5 12.5t-82.5 6.5q-96 0 -170.5 -49.5t-127 -131.5t-79 -185t-26.5 -214zM596 1106l227 258h228l-311 -258h-144z" />
<glyph unicode="&#xe2;" horiz-adv-x="985" d="M61 276q0 135 38 267.5t112 235t182.5 166t249.5 63.5q106 0 177 -14.5t102 -24.5l-99 -541q-18 -104 -30.5 -184t-18.5 -133q-8 -66 -12 -111h-144q10 82 22.5 151.5t33.5 151.5h-4q-31 -61 -67 -120.5t-80 -105.5t-98 -74t-122 -28q-123 0 -182.5 84t-59.5 217z M211 299q0 -100 31.5 -145t93.5 -45q68 0 133.5 61t119.5 157.5t93 211t55 223.5l15 98q-16 6 -55.5 12.5t-82.5 6.5q-96 0 -170.5 -49.5t-127 -131.5t-79 -185t-26.5 -214zM365 1108l301 313h102l188 -313h-125l-133 182l-192 -182h-141z" />
<glyph unicode="&#xe3;" horiz-adv-x="985" d="M61 276q0 135 38 267.5t112 235t182.5 166t249.5 63.5q106 0 177 -14.5t102 -24.5l-99 -541q-18 -104 -30.5 -184t-18.5 -133q-8 -66 -12 -111h-144q10 82 22.5 151.5t33.5 151.5h-4q-31 -61 -67 -120.5t-80 -105.5t-98 -74t-122 -28q-123 0 -182.5 84t-59.5 217z M211 299q0 -100 31.5 -145t93.5 -45q68 0 133.5 61t119.5 157.5t93 211t55 223.5l15 98q-16 6 -55.5 12.5t-82.5 6.5q-96 0 -170.5 -49.5t-127 -131.5t-79 -185t-26.5 -214zM381 1204q33 43 81 81t114 38q37 0 62.5 -12.5t48 -27.5t45 -27.5t51.5 -12.5q41 0 68.5 20.5 t43.5 39.5l64 -70q-35 -43 -84 -82t-117 -39q-37 0 -62.5 12.5t-48 27.5t-45 27.5t-51.5 12.5q-35 0 -62.5 -21.5t-45.5 -37.5z" />
<glyph unicode="&#xe4;" horiz-adv-x="985" d="M61 276q0 135 38 267.5t112 235t182.5 166t249.5 63.5q106 0 177 -14.5t102 -24.5l-99 -541q-18 -104 -30.5 -184t-18.5 -133q-8 -66 -12 -111h-144q10 82 22.5 151.5t33.5 151.5h-4q-31 -61 -67 -120.5t-80 -105.5t-98 -74t-122 -28q-123 0 -182.5 84t-59.5 217z M211 299q0 -100 31.5 -145t93.5 -45q68 0 133.5 61t119.5 157.5t93 211t55 223.5l15 98q-16 6 -55.5 12.5t-82.5 6.5q-96 0 -170.5 -49.5t-127 -131.5t-79 -185t-26.5 -214zM375 1212q0 43 30 73t73 30q47 0 75.5 -30t28.5 -73q0 -45 -29.5 -74.5t-74.5 -29.5 q-43 0 -73 29.5t-30 74.5zM750 1212q0 43 29.5 73t72.5 30q47 0 76 -30t29 -73q0 -45 -30 -74.5t-75 -29.5q-43 0 -72.5 29.5t-29.5 74.5z" />
<glyph unicode="&#xe5;" horiz-adv-x="985" d="M61 276q0 135 38 267.5t112 235t182.5 166t249.5 63.5q106 0 177 -14.5t102 -24.5l-99 -541q-18 -104 -30.5 -184t-18.5 -133q-8 -66 -12 -111h-144q10 82 22.5 151.5t33.5 151.5h-4q-31 -61 -67 -120.5t-80 -105.5t-98 -74t-122 -28q-123 0 -182.5 84t-59.5 217z M211 299q0 -100 31.5 -145t93.5 -45q68 0 133.5 61t119.5 157.5t93 211t55 223.5l15 98q-16 6 -55.5 12.5t-82.5 6.5q-96 0 -170.5 -49.5t-127 -131.5t-79 -185t-26.5 -214zM461 1295q0 43 15.5 78.5t42 62.5t61 41t73.5 14t74 -14t61.5 -40t42 -61.5t15.5 -78.5t-15.5 -79 t-42 -61.5t-61.5 -40t-74 -14.5t-73.5 14.5t-61 39t-42 60.5t-15.5 79zM553 1297q0 -47 25.5 -80t74.5 -33q47 0 74 33t27 80q0 49 -27 80.5t-74 31.5q-49 0 -74.5 -31.5t-25.5 -80.5z" />
<glyph unicode="&#xe6;" horiz-adv-x="1425" d="M16 217q0 61 20.5 109.5t55.5 84t79 61.5t93 40q78 23 164 32t170 9h37q16 49 27.5 91t11.5 101t-35 94t-127 35q-53 0 -97 -12t-79 -28.5t-61.5 -34t-41.5 -29.5l-73 102q23 18 56.5 42t79.5 44.5t104.5 35t129.5 14.5q209 0 273 -152q70 72 152.5 112t177.5 40 q111 0 185.5 -55.5t74.5 -168.5q0 -92 -50.5 -156.5t-136.5 -105.5t-200.5 -60.5t-245.5 -21.5q-6 -43 -6 -92q0 -117 48 -179.5t144 -62.5q82 0 148.5 39t107.5 82l86 -100q-23 -23 -56.5 -49.5t-78.5 -49t-101.5 -38t-123.5 -15.5q-111 0 -181.5 47.5t-105.5 124.5 q-66 -76 -152 -124t-202 -48q-61 0 -111.5 18.5t-85.5 51.5t-54.5 77t-19.5 95zM178 225q0 -63 37 -92t96 -29q100 0 175 44.5t124 105.5q-6 37 -6 76q0 29 2 56.5t6 55.5h-24q-84 0 -155 -8t-126 -31q-61 -25 -95 -68.5t-34 -109.5zM782 551q100 0 185.5 13.5t144.5 41 t93 68.5t34 96q0 106 -129 107q-51 0 -100 -24t-92.5 -66t-79.5 -102t-56 -134z" />
<glyph unicode="&#xe7;" horiz-adv-x="806" d="M55 356q0 139 45 259t121 207t172 136.5t199 49.5q96 0 150.5 -22.5t84.5 -45.5l-75 -117q-23 16 -64 33.5t-113 17.5q-68 0 -134 -34.5t-119.5 -100t-86 -159t-32.5 -207.5q0 -139 52 -203t138 -64q45 0 84 12.5t68.5 30t52.5 37t37 33.5l88 -96q-18 -18 -48 -42 t-68 -45.5t-85 -37.5t-102 -21l-43 -112q61 -10 102 -48t41 -102q0 -78 -65.5 -121t-159.5 -43q-55 0 -87 8.5t-48 14.5l30 84q10 -4 36 -11t67 -7q47 0 74.5 19t27.5 60q0 29 -12 46.5t-32.5 26.5t-47.5 11t-53 0l65 179q-121 20 -190.5 116.5t-69.5 257.5z" />
<glyph unicode="&#xe8;" horiz-adv-x="872" d="M55 330q0 139 42 262t114 215t168 146.5t205 54.5q111 0 185.5 -55.5t74.5 -168.5q0 -92 -53.5 -157.5t-142.5 -111.5t-203.5 -75t-237.5 -45q-2 -12 -2 -23.5v-23.5q0 -117 48 -179.5t144 -62.5q82 0 148.5 39t107.5 82l86 -100q-23 -23 -56.5 -49.5t-78.5 -49 t-101.5 -38t-123.5 -15.5q-84 0 -144.5 29t-100.5 78t-59.5 112.5t-19.5 135.5zM221 506q98 14 184.5 36.5t149.5 54.5t99 75t36 98q0 106 -129 107q-55 0 -107.5 -27t-98.5 -76t-81 -117.5t-53 -150.5zM313 1364h199l145 -258h-127z" />
<glyph unicode="&#xe9;" horiz-adv-x="872" d="M55 330q0 139 42 262t114 215t168 146.5t205 54.5q111 0 185.5 -55.5t74.5 -168.5q0 -92 -53.5 -157.5t-142.5 -111.5t-203.5 -75t-237.5 -45q-2 -12 -2 -23.5v-23.5q0 -117 48 -179.5t144 -62.5q82 0 148.5 39t107.5 82l86 -100q-23 -23 -56.5 -49.5t-78.5 -49 t-101.5 -38t-123.5 -15.5q-84 0 -144.5 29t-100.5 78t-59.5 112.5t-19.5 135.5zM221 506q98 14 184.5 36.5t149.5 54.5t99 75t36 98q0 106 -129 107q-55 0 -107.5 -27t-98.5 -76t-81 -117.5t-53 -150.5zM514 1106l227 258h228l-311 -258h-144z" />
<glyph unicode="&#xea;" horiz-adv-x="872" d="M55 330q0 139 42 262t114 215t168 146.5t205 54.5q111 0 185.5 -55.5t74.5 -168.5q0 -92 -53.5 -157.5t-142.5 -111.5t-203.5 -75t-237.5 -45q-2 -12 -2 -23.5v-23.5q0 -117 48 -179.5t144 -62.5q82 0 148.5 39t107.5 82l86 -100q-23 -23 -56.5 -49.5t-78.5 -49 t-101.5 -38t-123.5 -15.5q-84 0 -144.5 29t-100.5 78t-59.5 112.5t-19.5 135.5zM221 506q98 14 184.5 36.5t149.5 54.5t99 75t36 98q0 106 -129 107q-55 0 -107.5 -27t-98.5 -76t-81 -117.5t-53 -150.5zM283 1108l301 313h102l188 -313h-125l-133 182l-192 -182h-141z" />
<glyph unicode="&#xeb;" horiz-adv-x="872" d="M55 330q0 139 42 262t114 215t168 146.5t205 54.5q111 0 185.5 -55.5t74.5 -168.5q0 -92 -53.5 -157.5t-142.5 -111.5t-203.5 -75t-237.5 -45q-2 -12 -2 -23.5v-23.5q0 -117 48 -179.5t144 -62.5q82 0 148.5 39t107.5 82l86 -100q-23 -23 -56.5 -49.5t-78.5 -49 t-101.5 -38t-123.5 -15.5q-84 0 -144.5 29t-100.5 78t-59.5 112.5t-19.5 135.5zM221 506q98 14 184.5 36.5t149.5 54.5t99 75t36 98q0 106 -129 107q-55 0 -107.5 -27t-98.5 -76t-81 -117.5t-53 -150.5zM311 1212q0 43 30 73t73 30q47 0 75.5 -30t28.5 -73 q0 -45 -29.5 -74.5t-74.5 -29.5q-43 0 -73 29.5t-30 74.5zM686 1212q0 43 29.5 73t72.5 30q47 0 76 -30t29 -73q0 -45 -30 -74.5t-75 -29.5q-43 0 -72.5 29.5t-29.5 74.5z" />
<glyph unicode="&#xec;" horiz-adv-x="520" d="M72 1364h199l145 -258h-127zM96 0l178 983h148l-178 -983h-148z" />
<glyph unicode="&#xed;" horiz-adv-x="520" d="M96 0l178 983h148l-178 -983h-148zM291 1106l227 258h228l-311 -258h-144z" />
<glyph unicode="&#xee;" horiz-adv-x="520" d="M54 1108l301 313h102l188 -313h-125l-133 182l-192 -182h-141zM96 0l178 983h148l-178 -983h-148z" />
<glyph unicode="&#xef;" horiz-adv-x="520" d="M86 1212q0 43 30 73t73 30q47 0 75.5 -30t28.5 -73q0 -45 -29.5 -74.5t-74.5 -29.5q-43 0 -73 29.5t-30 74.5zM96 0l178 983h148l-178 -983h-148zM461 1212q0 43 29.5 73t72.5 30q47 0 76 -30t29 -73q0 -45 -30 -74.5t-75 -29.5q-43 0 -72.5 29.5t-29.5 74.5z" />
<glyph unicode="&#xf0;" horiz-adv-x="956" d="M59 377q0 135 41 248.5t111 194.5t159 127t187 46q84 0 133 -27.5t78 -56.5q-25 219 -137 332l-170 -135l-70 86l148 117q-119 66 -306 65l48 125q223 0 370 -100l178 141l70 -86l-160 -127q180 -184 181 -547q0 -141 -29 -285.5t-91.5 -259t-158.5 -187.5t-231 -73 q-74 0 -137.5 28t-110.5 80t-75 126t-28 168zM207 383q0 -135 49 -210t170 -75q86 0 150.5 56.5t107.5 150.5t65.5 214t24.5 247q-29 41 -81 73.5t-144 32.5q-68 0 -129.5 -33.5t-109.5 -97t-75.5 -154.5t-27.5 -204z" />
<glyph unicode="&#xf1;" horiz-adv-x="1046" d="M66 0l178 983h141q-4 -25 -11 -63.5t-15.5 -83.5t-18.5 -90.5t-21 -81.5h5q25 49 62.5 108t87.5 111.5t115.5 88.5t147.5 36q125 0 175.5 -92.5t21.5 -243.5l-123 -672h-147l116 657q39 217 -90 217q-61 0 -126.5 -46t-127 -139t-115 -236.5t-88.5 -339.5l-20 -113h-147z M360 1204q33 43 81 81t114 38q37 0 62.5 -12.5t48 -27.5t45 -27.5t51.5 -12.5q41 0 68.5 20.5t43.5 39.5l64 -70q-35 -43 -84 -82t-117 -39q-37 0 -62.5 12.5t-48 27.5t-45 27.5t-51.5 12.5q-35 0 -62.5 -21.5t-45.5 -37.5z" />
<glyph unicode="&#xf2;" horiz-adv-x="976" d="M59 383q0 115 38 226.5t105.5 200.5t160 143.5t202.5 54.5q90 0 156.5 -34t109.5 -89.5t63.5 -128t20.5 -150.5q0 -123 -38.5 -236.5t-106.5 -201.5t-161 -140.5t-201 -52.5q-94 0 -161 37t-108 95.5t-60.5 131t-19.5 144.5zM205 387q0 -131 53 -210t160 -79 q78 0 141.5 44t109.5 115t71.5 156t25.5 169q0 147 -53.5 225t-157.5 78q-78 0 -142.5 -45t-110.5 -117t-71.5 -161t-25.5 -175zM289 1364h199l145 -258h-127z" />
<glyph unicode="&#xf3;" horiz-adv-x="976" d="M59 383q0 115 38 226.5t105.5 200.5t160 143.5t202.5 54.5q90 0 156.5 -34t109.5 -89.5t63.5 -128t20.5 -150.5q0 -123 -38.5 -236.5t-106.5 -201.5t-161 -140.5t-201 -52.5q-94 0 -161 37t-108 95.5t-60.5 131t-19.5 144.5zM205 387q0 -131 53 -210t160 -79 q78 0 141.5 44t109.5 115t71.5 156t25.5 169q0 147 -53.5 225t-157.5 78q-78 0 -142.5 -45t-110.5 -117t-71.5 -161t-25.5 -175zM526 1106l227 258h228l-311 -258h-144z" />
<glyph unicode="&#xf4;" horiz-adv-x="976" d="M59 383q0 115 38 226.5t105.5 200.5t160 143.5t202.5 54.5q90 0 156.5 -34t109.5 -89.5t63.5 -128t20.5 -150.5q0 -123 -38.5 -236.5t-106.5 -201.5t-161 -140.5t-201 -52.5q-94 0 -161 37t-108 95.5t-60.5 131t-19.5 144.5zM205 387q0 -131 53 -210t160 -79 q78 0 141.5 44t109.5 115t71.5 156t25.5 169q0 147 -53.5 225t-157.5 78q-78 0 -142.5 -45t-110.5 -117t-71.5 -161t-25.5 -175zM285 1108l301 313h102l188 -313h-125l-133 182l-192 -182h-141z" />
<glyph unicode="&#xf5;" horiz-adv-x="976" d="M59 383q0 115 38 226.5t105.5 200.5t160 143.5t202.5 54.5q90 0 156.5 -34t109.5 -89.5t63.5 -128t20.5 -150.5q0 -123 -38.5 -236.5t-106.5 -201.5t-161 -140.5t-201 -52.5q-94 0 -161 37t-108 95.5t-60.5 131t-19.5 144.5zM205 387q0 -131 53 -210t160 -79 q78 0 141.5 44t109.5 115t71.5 156t25.5 169q0 147 -53.5 225t-157.5 78q-78 0 -142.5 -45t-110.5 -117t-71.5 -161t-25.5 -175zM315 1204q33 43 81 81t114 38q37 0 62.5 -12.5t48 -27.5t45 -27.5t51.5 -12.5q41 0 68.5 20.5t43.5 39.5l64 -70q-35 -43 -84 -82t-117 -39 q-37 0 -62.5 12.5t-48 27.5t-45 27.5t-51.5 12.5q-35 0 -62.5 -21.5t-45.5 -37.5z" />
<glyph unicode="&#xf6;" horiz-adv-x="976" d="M59 383q0 115 38 226.5t105.5 200.5t160 143.5t202.5 54.5q90 0 156.5 -34t109.5 -89.5t63.5 -128t20.5 -150.5q0 -123 -38.5 -236.5t-106.5 -201.5t-161 -140.5t-201 -52.5q-94 0 -161 37t-108 95.5t-60.5 131t-19.5 144.5zM205 387q0 -131 53 -210t160 -79 q78 0 141.5 44t109.5 115t71.5 156t25.5 169q0 147 -53.5 225t-157.5 78q-78 0 -142.5 -45t-110.5 -117t-71.5 -161t-25.5 -175zM317 1212q0 43 30 73t73 30q47 0 75.5 -30t28.5 -73q0 -45 -29.5 -74.5t-74.5 -29.5q-43 0 -73 29.5t-30 74.5zM692 1212q0 43 29.5 73t72.5 30 q47 0 76 -30t29 -73q0 -45 -30 -74.5t-75 -29.5q-43 0 -72.5 29.5t-29.5 74.5z" />
<glyph unicode="&#xf7;" horiz-adv-x="2205" d="M143 -444v1919h1919v-1919h-1919zM297 -291h1612v1612h-1612v-1612zM782 0v1042h140v-495l413 495h162l-414 -489l441 -553h-174q-121 150 -215 268q-41 51 -80 98.5t-68 86.5q-37 43 -65 84v-537h-140z" />
<glyph unicode="&#xf8;" horiz-adv-x="976" d="M-33 -55l156 186q-33 55 -48.5 120.5t-15.5 131.5q0 115 38 226.5t105.5 200.5t160 143.5t202.5 54.5q74 0 131.5 -21.5t98.5 -60.5l174 204l78 -65l-189 -223q29 -49 43 -109.5t14 -126.5q0 -123 -38.5 -236.5t-106.5 -201.5t-161 -140.5t-201 -52.5q-70 0 -123.5 20.5 t-94.5 55.5l-145 -172zM205 387q0 -82 20 -141l482 569q-53 70 -152 70q-78 0 -142.5 -45t-110.5 -117t-71.5 -161t-25.5 -175zM274 156q53 -57 144 -58q78 0 141.5 44t109.5 115t71.5 156t25.5 169q0 82 -14 137l-238 -283q-45 -53 -87 -102t-77 -90q-39 -47 -76 -88z" />
<glyph unicode="&#xf9;" horiz-adv-x="1046" d="M111 311l122 672h148l-117 -657q-39 -217 90 -217q57 0 122 43t126.5 132t114.5 224t86 317l28 158h148l-100 -555q-18 -104 -30.5 -184t-19.5 -133q-8 -66 -12 -111h-143q10 80 25.5 169t31.5 163h-4q-29 -53 -66.5 -115.5t-89 -116t-117 -89.5t-147.5 -36 q-125 0 -175 91.5t-21 244.5zM348 1364h199l145 -258h-127z" />
<glyph unicode="&#xfa;" horiz-adv-x="1046" d="M111 311l122 672h148l-117 -657q-39 -217 90 -217q57 0 122 43t126.5 132t114.5 224t86 317l28 158h148l-100 -555q-18 -104 -30.5 -184t-19.5 -133q-8 -66 -12 -111h-143q10 80 25.5 169t31.5 163h-4q-29 -53 -66.5 -115.5t-89 -116t-117 -89.5t-147.5 -36 q-125 0 -175 91.5t-21 244.5zM530 1106l227 258h228l-311 -258h-144z" />
<glyph unicode="&#xfb;" horiz-adv-x="1046" d="M111 311l122 672h148l-117 -657q-39 -217 90 -217q57 0 122 43t126.5 132t114.5 224t86 317l28 158h148l-100 -555q-18 -104 -30.5 -184t-19.5 -133q-8 -66 -12 -111h-143q10 80 25.5 169t31.5 163h-4q-29 -53 -66.5 -115.5t-89 -116t-117 -89.5t-147.5 -36 q-125 0 -175 91.5t-21 244.5zM324 1108l301 313h102l188 -313h-125l-133 182l-192 -182h-141z" />
<glyph unicode="&#xfc;" horiz-adv-x="1046" d="M111 311l122 672h148l-117 -657q-39 -217 90 -217q57 0 122 43t126.5 132t114.5 224t86 317l28 158h148l-100 -555q-18 -104 -30.5 -184t-19.5 -133q-8 -66 -12 -111h-143q10 80 25.5 169t31.5 163h-4q-29 -53 -66.5 -115.5t-89 -116t-117 -89.5t-147.5 -36 q-125 0 -175 91.5t-21 244.5zM346 1212q0 43 30 73t73 30q47 0 75.5 -30t28.5 -73q0 -45 -29.5 -74.5t-74.5 -29.5q-43 0 -73 29.5t-30 74.5zM721 1212q0 43 29.5 73t72.5 30q47 0 76 -30t29 -73q0 -45 -30 -74.5t-75 -29.5q-43 0 -72.5 29.5t-29.5 74.5z" />
<glyph unicode="&#xfd;" horiz-adv-x="897" d="M-193 -416l62 121q16 -8 44 -15t77 -7q39 0 74.5 12t73.5 44t78 85t89 137l-199 1022h154l129 -721q6 -37 11.5 -71.5t9.5 -65.5h4q10 31 22.5 66.5t28.5 70.5l330 721h155l-360 -754q-86 -178 -155.5 -307t-138.5 -212t-145.5 -122t-175.5 -39q-80 0 -116.5 13.5 t-51.5 21.5zM459 1106l227 258h228l-311 -258h-144z" />
<glyph unicode="&#xfe;" horiz-adv-x="991" d="M-25 -446l349 1921h147l-92 -496q-6 -33 -15.5 -77t-19.5 -87t-19.5 -79t-13.5 -52h4q33 61 71 118.5t84 103.5t102.5 74t123.5 28q63 0 108.5 -26t74 -69t42 -100.5t13.5 -120.5q0 -137 -40 -266t-113.5 -229.5t-181 -161t-243.5 -60.5q-61 0 -101 6.5t-52 10.5 l-80 -438h-148zM227 115q14 -4 45 -10.5t97 -6.5q98 0 176 49.5t130 130t79.5 185t27.5 215.5q0 86 -26.5 141t-89.5 55q-76 0 -143.5 -63t-123 -160.5t-95.5 -213t-58 -218.5z" />
<glyph unicode="&#xff;" horiz-adv-x="897" d="M-193 -416l62 121q16 -8 44 -15t77 -7q39 0 74.5 12t73.5 44t78 85t89 137l-199 1022h154l129 -721q6 -37 11.5 -71.5t9.5 -65.5h4q10 31 22.5 66.5t28.5 70.5l330 721h155l-360 -754q-86 -178 -155.5 -307t-138.5 -212t-145.5 -122t-175.5 -39q-80 0 -116.5 13.5 t-51.5 21.5zM254 1212q0 43 30 73t73 30q47 0 75.5 -30t28.5 -73q0 -45 -29.5 -74.5t-74.5 -29.5q-43 0 -73 29.5t-30 74.5zM629 1212q0 43 29.5 73t72.5 30q47 0 76 -30t29 -73q0 -45 -30 -74.5t-75 -29.5q-43 0 -72.5 29.5t-29.5 74.5z" />
<glyph unicode="&#x152;" horiz-adv-x="1767" d="M123 563q0 152 53 300.5t151.5 265t236.5 188.5t310 72q66 0 123.5 -4.5t110.5 -20.5h678l-25 -135h-528l-80 -438h467l-25 -136h-465l-92 -520h543l-25 -135h-675q-90 -25 -189 -25q-139 0 -244.5 47.5t-178 128t-109.5 187t-37 225.5zM287 565q0 -96 26.5 -179 t78.5 -144.5t129 -97t179 -35.5q96 0 181 30l192 1082q-45 20 -97 27t-112 7q-137 0 -244.5 -58t-181 -154.5t-112.5 -221.5t-39 -256z" />
<glyph unicode="&#x153;" horiz-adv-x="1540" d="M59 383q0 115 38 226.5t105.5 200.5t160 143.5t202.5 54.5q123 0 201 -61.5t113 -155.5q78 104 175 160.5t208 56.5t185.5 -55.5t74.5 -168.5q0 -92 -53.5 -157.5t-142.5 -111.5t-203.5 -74.5t-237.5 -45.5q-2 -12 -2 -23.5v-23.5q0 -117 48 -179.5t144 -62.5 q82 0 148.5 39t107.5 82l86 -100q-23 -23 -56.5 -49.5t-78.5 -49t-101.5 -38t-123.5 -15.5q-115 0 -186.5 54.5t-106.5 140.5q-66 -90 -157 -142.5t-199 -52.5q-94 0 -161 37t-108 95.5t-60.5 131t-19.5 144.5zM205 387q0 -131 53 -210t160 -79q78 0 141.5 44t109.5 115 t71.5 156t25.5 169q0 147 -53.5 225t-157.5 78q-78 0 -142.5 -45t-110.5 -117t-71.5 -161t-25.5 -175zM899 506q98 14 184 36.5t149.5 54.5t99.5 75t36 98q0 106 -129 107q-55 0 -107.5 -27t-98.5 -76t-81 -117.5t-53 -150.5z" />
<glyph unicode="&#x178;" horiz-adv-x="1114" d="M184 1364h164l246 -700h2l465 700h166l-578 -852l-92 -512h-158l93 514zM434 1581q0 43 30 73t73 30q47 0 75.5 -30t28.5 -73q0 -45 -29.5 -74.5t-74.5 -29.5q-43 0 -73 29.5t-30 74.5zM809 1581q0 43 29.5 73t72.5 30q47 0 76 -30t29 -73q0 -45 -30 -74.5t-75 -29.5 q-43 0 -72.5 29.5t-29.5 74.5z" />
<glyph unicode="&#x2c6;" horiz-adv-x="1024" d="M322 1108l301 313h102l188 -313h-125l-133 182l-192 -182h-141z" />
<glyph unicode="&#x2dc;" horiz-adv-x="1024" d="M350 1204q33 43 81 81t114 38q37 0 62.5 -12.5t48 -27.5t45 -27.5t51.5 -12.5q41 0 68.5 20.5t43.5 39.5l64 -70q-35 -43 -84 -82t-117 -39q-37 0 -62.5 12.5t-48 27.5t-45 27.5t-51.5 12.5q-35 0 -62.5 -21.5t-45.5 -37.5z" />
<glyph unicode="&#x2000;" horiz-adv-x="937" />
<glyph unicode="&#x2001;" horiz-adv-x="1874" />
<glyph unicode="&#x2002;" horiz-adv-x="937" />
<glyph unicode="&#x2003;" horiz-adv-x="1874" />
<glyph unicode="&#x2004;" horiz-adv-x="624" />
<glyph unicode="&#x2005;" horiz-adv-x="468" />
<glyph unicode="&#x2006;" horiz-adv-x="312" />
<glyph unicode="&#x2007;" horiz-adv-x="312" />
<glyph unicode="&#x2008;" horiz-adv-x="234" />
<glyph unicode="&#x2009;" horiz-adv-x="374" />
<glyph unicode="&#x200a;" horiz-adv-x="104" />
<glyph unicode="&#x2010;" horiz-adv-x="624" d="M111 522l22 131h412l-23 -131h-411z" />
<glyph unicode="&#x2011;" horiz-adv-x="624" d="M111 522l22 131h412l-23 -131h-411z" />
<glyph unicode="&#x2012;" horiz-adv-x="624" d="M111 522l22 131h412l-23 -131h-411z" />
<glyph unicode="&#x2013;" horiz-adv-x="1148" d="M106 500l23 125h936l-23 -125h-936z" />
<glyph unicode="&#x2014;" horiz-adv-x="1777" d="M106 500l23 125h1565l-23 -125h-1565z" />
<glyph unicode="&#x2018;" horiz-adv-x="389" d="M168 1024q0 57 24.5 114.5t59.5 106.5t76 90t73 66l60 -53q-39 -37 -76 -86.5t-37 -102.5q0 -25 8.5 -42t19.5 -34.5t19 -36t8 -47.5q0 -47 -31.5 -78.5t-78.5 -31.5t-86 34.5t-39 100.5z" />
<glyph unicode="&#x2019;" horiz-adv-x="389" d="M156 930q39 37 75.5 86t36.5 102q0 25 -8 42.5t-19.5 34.5t-19.5 35.5t-8 47.5q0 47 31.5 79t79.5 32q47 0 86 -35t39 -101q0 -59 -25 -115.5t-59.5 -105.5t-75.5 -90t-74 -65z" />
<glyph unicode="&#x201a;" horiz-adv-x="389" d="M-53 -236q39 37 75.5 86.5t36.5 102.5q0 25 -8 42t-19.5 34.5t-19.5 36t-8 47.5q0 47 32 78.5t79 31.5t86 -34.5t39 -100.5q0 -59 -25 -115.5t-59.5 -105.5t-75.5 -90t-74 -66z" />
<glyph unicode="&#x201c;" horiz-adv-x="733" d="M168 1024q0 57 24.5 114.5t59.5 106.5t76 90t73 66l60 -53q-39 -37 -76 -86.5t-37 -102.5q0 -25 8.5 -42t19.5 -34.5t19 -36t8 -47.5q0 -47 -31.5 -78.5t-78.5 -31.5t-86 34.5t-39 100.5zM512 1024q0 57 24.5 114.5t59.5 106.5t76 90t73 66l60 -53q-39 -37 -76 -86.5 t-37 -102.5q0 -25 8.5 -42t19.5 -34.5t19.5 -36t8.5 -47.5q0 -47 -32 -78.5t-79 -31.5t-86 34.5t-39 100.5z" />
<glyph unicode="&#x201d;" horiz-adv-x="733" d="M156 930q39 37 75.5 86t36.5 102q0 25 -8 42.5t-19.5 34.5t-19.5 35.5t-8 47.5q0 47 31.5 79t79.5 32q47 0 86 -35t39 -101q0 -59 -25 -115.5t-59.5 -105.5t-75.5 -90t-74 -65zM500 930q39 37 75.5 86t36.5 102q0 25 -8 42.5t-19.5 34.5t-19.5 35.5t-8 47.5q0 47 32 79 t79 32t86 -35t39 -101q0 -59 -25 -115.5t-59.5 -105.5t-75.5 -90t-74 -65z" />
<glyph unicode="&#x201e;" horiz-adv-x="733" d="M-53 -236q39 37 75.5 86.5t36.5 102.5q0 25 -8 42t-19.5 34.5t-19.5 36t-8 47.5q0 47 32 78.5t79 31.5t86 -34.5t39 -100.5q0 -59 -25 -115.5t-59.5 -105.5t-75.5 -90t-74 -66zM291 -236q39 37 75.5 86.5t36.5 102.5q0 25 -8 42t-19 34.5t-19.5 36t-8.5 47.5 q0 47 32 78.5t79 31.5t86 -34.5t39 -100.5q0 -59 -24.5 -115.5t-59.5 -105.5t-76 -90t-74 -66z" />
<glyph unicode="&#x2022;" horiz-adv-x="727" d="M113 586q0 53 19.5 99t53 81t78.5 55.5t98 20.5t99.5 -20.5t80 -55.5t53 -81t19.5 -99t-19.5 -99.5t-53 -81t-79.5 -54t-100 -19.5q-53 0 -98 19.5t-78.5 54t-53 80.5t-19.5 100z" />
<glyph unicode="&#x2026;" horiz-adv-x="1259" d="M39 102q0 49 33.5 84t87.5 35q49 0 85 -35t36 -84t-36 -84.5t-85 -35.5q-53 0 -87 35.5t-34 84.5zM451 102q0 49 33.5 84t84.5 35t86 -35t35 -84t-34.5 -84.5t-86.5 -35.5q-51 0 -84.5 35.5t-33.5 84.5zM860 102q0 49 35 84t86 35q49 0 85 -35t36 -84t-36 -84.5 t-85 -35.5q-51 0 -86 35.5t-35 84.5z" />
<glyph unicode="&#x202f;" horiz-adv-x="374" />
<glyph unicode="&#x2039;" horiz-adv-x="557" d="M61 502l342 389h164l-350 -402l197 -374h-148z" />
<glyph unicode="&#x203a;" horiz-adv-x="557" d="M-2 115l342 399l-197 377h148l205 -391l-334 -385h-164z" />
<glyph unicode="&#x205f;" horiz-adv-x="468" />
<glyph unicode="&#x2122;" horiz-adv-x="1345" d="M170 1272l14 92h445l-17 -92h-163l-89 -504h-108l88 504h-170zM596 768l168 596h113l73 -350q4 -23 7.5 -45.5t5.5 -40.5q2 -23 4 -43h4q8 18 18 41q16 39 45 90l193 348h129l-41 -596h-107l29 338q2 23 4 45.5t6 42.5q4 23 6 45h-4q-8 -23 -18 -45l-23.5 -47t-29.5 -55 l-187 -324h-88l-63 307q-6 29 -10.5 56.5t-8.5 52.5q-4 27 -6 55h-4q-2 -16 -6 -39q-6 -35 -23 -98l-88 -334h-98z" />
<glyph unicode="&#x25fc;" horiz-adv-x="983" d="M0 0v983h983v-983h-983z" />
</font>
</defs>
</svg>
