<?xml version="1.0" standalone="no"?>
<!DOCTYPE svg PUBLIC "-//W3C//DTD SVG 1.1//EN" "http://www.w3.org/Graphics/SVG/1.1/DTD/svg11.dtd" >
<svg xmlns="http://www.w3.org/2000/svg">
<metadata></metadata>
<defs>
<font id="steeltongsitalic" horiz-adv-x="622" >
<font-face units-per-em="2048" ascent="1638" descent="-410" />
<missing-glyph horiz-adv-x="251" />
<glyph horiz-adv-x="0" />
<glyph horiz-adv-x="682" />
<glyph unicode=" "  horiz-adv-x="251" />
<glyph unicode="&#x09;" horiz-adv-x="251" />
<glyph unicode="&#xa0;" horiz-adv-x="251" />
<glyph unicode="!" horiz-adv-x="2459" d="M-2 0l154 791h79l-139 -713h121l-14 -78h-201zM211 0l256 791h80l-47 -791h-82l10 117h-102l-37 -117h-78zM352 203h80l17 223l14 139l-39 -137zM559 0l66 338l-17 453h82l-2 -244l-6 -107l35 107l96 244h82l-193 -453l-65 -338h-78zM672 1024l86 442q33 176 151 176 q117 0 84 -174l-14 -73h-76l25 123q6 45 -33 45q-43 0 -49 -45l-107 -543q-10 -45 33 -45q39 0 49 45l29 147h76l-19 -98q-35 -174 -151 -174q-119 0 -84 174zM805 174l86 442q35 174 153 175q119 0 84 -175l-86 -442q-33 -174 -151 -174q-119 0 -86 174zM874 125 q-10 -47 31 -47q39 0 49 47l107 543q10 45 -33 45q-37 0 -47 -45zM965 1024l118 618h80l-129 -667q-10 -45 31 -45q39 0 49 45l129 667h78l-119 -618q-35 -174 -153 -174q-119 0 -84 174zM1106 174l121 617h80l-131 -666q-10 -47 30 -47q37 0 47 47l131 666h80l-121 -617 q-33 -174 -151 -174q-119 0 -86 174zM1266 1024l18 98h78l-29 -147q-10 -45 25 -45q33 0 43 45l18 92q6 37 -2 79t-37 89q-57 94 -39 182l11 49q33 176 143 176q115 0 82 -176l-14 -71h-80l24 123q6 45 -26 45q-35 0 -41 -45l-23 -109q-10 -51 45 -149q55 -96 41 -166 l-12 -70q-35 -174 -150 -174q-111 0 -75 174zM1425 0l138 713h-80l16 78h238l-17 -78h-80l-137 -713h-78zM1571 850l139 713h-80l15 79h237l-14 -79h-80l-139 -713h-78zM1739 0l153 791h119q117 0 82 -175l-16 -79q-18 -106 -80 -134q49 -29 28 -135l-18 -94 q-33 -174 -149 -174h-119zM1798 1024l86 442q33 176 150 176q119 0 86 -176l-86 -442q-35 -174 -154 -174q-117 0 -82 174zM1831 78h41q37 0 47 47l39 194q6 43 -31 46h-41zM1866 975q-10 -45 30 -45q39 0 50 45l106 543q6 45 -33 45q-41 0 -47 -45zM1901 442h41q41 0 49 47 l34 179q10 45 -30 45h-41zM2062 850l154 792h117l-31 -428l-12 -139l39 139l133 428h118l-153 -792h-72l121 620l-29 -96l-172 -524h-65l37 530l8 88l-121 -618h-72zM2111 0l66 338l-14 453h80l-2 -244l-7 -107l37 107l94 244h82l-190 -453l-66 -338h-80z" />
<glyph unicode="&#x22;" horiz-adv-x="401" d="M281 1229l8 246l33 163h139l-33 -163l-86 -246h-61zM510 1229l8 246l33 163h139l-33 -163l-86 -246h-61z" />
<glyph unicode="#" horiz-adv-x="2174" d="M166 850l153 792h117l-30 -428l-13 -139l37 139l135 428h119l-154 -792h-71l121 620l-27 -96l-172 -524h-66l37 530l6 88l-120 -618h-72zM479 0l258 791h80l-49 -791h-80l8 117h-102l-35 -117h-80zM563 850l258 792h80l-49 -792h-80l8 121h-98l-39 -121h-80zM623 203h79 l17 223l12 139l-39 -137zM709 1055h77l17 221l14 141l-39 -139zM799 0l153 791h123q129 0 99 -166l-19 -88q-18 -109 -90 -156l-14 -381h-80l18 365h-41l-69 -365h-80zM885 850l153 792h78l-69 -360l36 70l150 290h84l-207 -385l59 -407h-84l-38 313l-9 70l-75 -383h-78z M963 442h43q53 0 65 54l31 161q8 55 -43 56h-43zM1153 0l137 713h-80l17 78h237l-16 -78h-80l-137 -713h-78zM1204 850l154 792h201l-15 -79h-121l-53 -269h68l-15 -80h-67l-56 -284h121l-16 -80h-201zM1343 0l154 791h80l-154 -791h-80zM1520 174l18 98h80l-29 -147 q-10 -47 25 -47q31 0 41 47l18 90q14 72 -41 166q-53 94 -37 184l11 51q35 174 147 175q113 0 78 -175l-14 -71h-80l24 121q8 45 -24 45q-33 0 -41 -45l-21 -107q-10 -47 43 -149q53 -100 41 -166l-14 -70q-33 -174 -146 -174t-79 174zM1612 1024l119 618h79l-129 -667 q-10 -45 31 -45q37 0 47 45l129 667h80l-119 -618q-35 -174 -153 -174q-119 0 -84 174zM1827 0l137 713h-80l17 78h237l-16 -78h-78l-137 -713h-80zM1878 850l154 792h120q133 0 97 -182l-6 -30q-35 -182 -164 -183h-43l-78 -397h-80zM2050 1325h43q51 0 64 55l24 129 q8 53 -43 54h-41z" />
<glyph unicode="$" horiz-adv-x="3221" d="M33 178l86 443q35 174 153 174q111 0 78 -174l-12 -72h-74l23 121q10 47 -31 47q-39 0 -49 -47l-105 -541q-10 -45 29 -45q41 0 51 45l29 147h74l-21 -98q-31 -172 -145 -172q-117 0 -86 172zM324 178l86 443q35 174 153 174q117 0 82 -174l-86 -443q-31 -172 -149 -172 q-117 0 -86 172zM395 129q-10 -45 29 -45t49 45l105 541q10 47 -29 47t-49 -47zM422 1026l18 98h78l-29 -147q-10 -45 25 -45q33 0 43 45l18 92q12 74 -38 166q-57 94 -39 184l10 49q33 174 143 174q113 0 80 -174l-14 -71h-78l25 121q6 45 -27 45q-35 0 -41 -45l-23 -109 q-10 -51 45 -147q53 -98 39 -166l-12 -70q-35 -172 -145 -172q-113 0 -78 172zM625 178l86 443q35 174 151 174q119 0 84 -174l-86 -443q-31 -172 -151 -172q-115 0 -84 172zM694 129q-10 -45 29 -45t49 45l105 541q10 47 -29 47t-49 -47zM727 854l137 709h-78l15 79h235 l-14 -79h-80l-137 -709h-78zM889 6l153 789h123q131 0 99 -166l-17 -88q-23 -109 -92 -154l-14 -381h-80l18 363h-41l-69 -363h-80zM952 1026l119 616h78l-129 -665q-10 -45 31 -45q37 0 47 45l129 665h80l-119 -616q-35 -172 -152 -172q-119 0 -84 172zM1055 446h43 q51 0 61 54l31 162q12 55 -39 55h-43zM1190 6l153 789h119q117 0 82 -174l-86 -443q-31 -172 -149 -172h-119zM1217 854l151 788h94l-4 -450l-8 -119l111 569h69l-151 -788h-95l7 461l6 106l-109 -567h-71zM1282 84h41q39 0 49 45l105 541q10 47 -29 47h-41zM1489 6l153 789 h78l-153 -789h-78zM1593 854l138 709h-80l14 79h238l-15 -79h-78l-137 -709h-80zM1630 6l154 789h94l-6 -451l-6 -119l110 570h70l-154 -789h-94l8 463l6 106l-110 -569h-72zM1757 854l301 788h49l-303 -788h-47zM1923 6l258 789h80l-49 -789h-80l10 117h-102l-37 -117h-80z M1991 854l151 788h201l-14 -79h-121l-54 -269h70l-14 -77h-70l-69 -363h-80zM2066 209h80l17 221l16 139l-39 -137zM2238 854l152 788h78l-152 -788h-78zM2259 6l139 711h-78l15 78h235l-14 -78h-78l-139 -711h-80zM2413 1026l86 442q33 174 151 174q121 0 88 -174l-14 -71 h-76l25 121q6 45 -37 45q-41 0 -47 -45l-107 -541q-10 -45 29 -45q45 0 55 45l33 162h-45l14 78h121l-70 -363l-30 51q-31 -51 -92 -51q-119 0 -84 172zM2484 178l86 443q35 174 154 174q117 0 82 -174l-86 -443q-31 -172 -150 -172q-117 0 -86 172zM2554 129 q-10 -45 31 -45q39 0 49 45l104 541q10 47 -28 47q-41 0 -52 -47zM2675 854l151 788h80l-67 -348h79l68 348h78l-152 -788h-78l70 363h-80l-69 -363h-80zM2753 6l153 789h119q131 0 98 -166l-16 -88q-23 -113 -90 -154l-17 -381h-78l19 363h-41l-70 -363h-77zM2916 446h43 q51 0 62 54l31 162q12 55 -41 55h-41zM3025 854l137 709h-78l15 79h235l-14 -79h-78l-137 -709h-80z" />
<glyph unicode="%" horiz-adv-x="493" d="M10 6l258 793h82l-49 -793h-80l8 117h-102l-37 -117h-80zM154 209h79l19 223l14 139l-39 -137z" />
<glyph unicode="&#x26;" horiz-adv-x="712" d="M98 360l13 66q41 238 243 444q-53 297 -22 457q61 311 286 311q207 0 146 -311q-37 -195 -238 -455l58 -432l69 125h138l-185 -385q14 -53 105 -30l-29 -150h-84q-88 0 -102 68q-74 -68 -203 -68q-264 0 -195 360zM250 299q-27 -135 74 -135q94 0 125 41l-58 489 q-82 -90 -117 -270zM485 1047q113 168 138 299l8 34q16 94 -45 95q-61 0 -78 -95l-8 -37q-25 -122 -15 -296z" />
<glyph unicode="'" horiz-adv-x="221" d="M309 1229l8 246l33 163h139l-32 -163l-86 -246h-62z" />
<glyph unicode="(" horiz-adv-x="3223" d="M268 2l154 789h119q117 0 82 -175l-86 -442q-35 -172 -150 -172h-119zM268 850l51 788h78l-28 -426l-15 -139l39 139l133 426h66l-29 -426l-16 -139l39 139l135 426h80l-258 -788h-72l33 502l-162 -502h-74zM362 80h39q41 0 48 45l106 543q10 45 -31 45h-39zM567 2 l154 789h78l-154 -789h-78zM680 850l154 788h118q131 0 99 -165l-17 -87q-23 -111 -92 -155l-14 -381h-78l20 362h-41l-71 -362h-78zM711 2l153 789h121q129 0 98 -166l-16 -86q-23 -113 -92 -156l-14 -381h-80l20 363h-43l-70 -363h-77zM844 1292h43q53 0 61 54l31 159 q12 55 -41 56h-41zM874 444h46q47 0 59 52l31 161q10 55 -41 56h-43zM979 850l154 788h77l-153 -788h-78zM1012 2l153 789h199l-16 -78h-121l-51 -269h69l-16 -79h-70l-55 -285h121l-15 -78h-198zM1171 850l140 711h-80l14 77h238l-15 -77h-79l-140 -711h-78zM1294 174 l86 442q35 174 154 175q113 0 80 -175l-15 -71h-75l24 123q10 45 -32 45q-35 0 -46 -45l-106 -543q-6 -45 29 -45q43 0 49 45l28 147h76l-18 -98q-35 -172 -148 -172q-121 0 -86 172zM1413 850l139 711h-77l14 77h235l-14 -77h-78l-139 -711h-80zM1604 2l137 711h-78l16 78 h236l-17 -78h-77l-138 -711h-79zM1606 850l153 788h201l-14 -77h-123l-54 -269h70l-14 -80h-70l-55 -284h123l-17 -78h-200zM1796 2l154 789h198l-16 -78h-121l-51 -269h70l-17 -79h-69l-56 -285h121l-14 -78h-199zM1858 850l153 788h94l-8 -450l-6 -119l111 569h69 l-153 -788h-95l9 463l8 106l-111 -569h-71zM2048 2l154 789h116q119 0 84 -175l-86 -442q-35 -172 -151 -172h-117zM2140 80h39q41 0 47 45l107 543q10 45 -31 45h-39zM2271 850l258 788h80l-49 -788h-80l8 119h-100l-37 -119h-80zM2415 1053h79l15 221l16 141l-39 -139z M2468 2l153 789h117q119 0 84 -175l-14 -77q-23 -109 -82 -136q49 -29 29 -135l-19 -94q-35 -172 -151 -172h-117zM2560 80h39q43 0 49 45l39 194q8 43 -31 46h-41zM2591 850l153 788h95l-7 -450l-8 -119l111 569h71l-153 -788h-94l8 463l6 106l-111 -569h-71zM2632 444h41 q39 0 47 45l35 179q10 45 -33 45h-39zM2839 2l65 336l-16 453h82l-2 -244l-7 -107l37 107l94 244h82l-190 -453l-66 -336h-79zM2916 850l154 788h119q121 0 84 -174l-86 -442q-31 -172 -152 -172h-119zM3013 928h39q37 0 47 47l104 541q10 45 -29 45h-39z" />
<glyph unicode=")" horiz-adv-x="2504" d="M29 0l153 791h121q133 0 96 -183l-6 -30q-33 -182 -166 -183h-43l-75 -395h-80zM162 850l258 792h80l-47 -792h-82l12 121h-102l-39 -121h-80zM201 475h43q51 0 59 51l27 131q8 55 -43 56h-41zM307 1055h80l16 221l15 141l-39 -139zM334 0l153 791h121q129 0 99 -166 l-19 -88q-18 -111 -88 -156l-16 -381h-78l18 365h-43l-69 -365h-78zM496 442h45q51 0 63 54l31 161q8 55 -43 56h-43zM518 1024l19 98h79l-28 -147q-10 -45 24 -45q31 0 41 45l19 92q12 74 -39 168q-57 94 -39 182l10 49q33 176 146 176q111 0 77 -176l-14 -71h-78l25 123 q6 45 -25 45q-35 0 -41 -45l-22 -109q-4 -25 5 -62.5t38 -86.5q55 -94 39 -166l-13 -70q-35 -174 -145 -174q-113 0 -78 174zM668 174l86 442q35 174 153 175q117 0 82 -175l-86 -442q-33 -174 -149 -174q-119 0 -86 174zM735 125q-10 -47 33 -47q37 0 47 47l107 543 q10 45 -31 45q-39 0 -49 -45zM807 1024l18 98h80l-28 -147q-10 -45 24 -45q31 0 41 45l19 92q12 76 -41 168q-55 96 -37 182l10 49q33 176 145 176q113 0 80 -176l-14 -71h-80l25 123q6 45 -25 45q-35 0 -41 -45l-22 -109q-10 -51 43 -149q55 -96 40 -166l-12 -70 q-35 -174 -147 -174q-113 0 -78 174zM936 0l154 791h116q119 0 84 -175l-86 -442q-33 -174 -151 -174h-117zM1028 78h39q39 0 49 47l107 543q10 45 -33 45h-39zM1096 1024l86 442q33 176 149 176q121 0 88 -176l-86 -442q-35 -174 -155 -174q-117 0 -82 174zM1165 975 q-10 -45 29 -45t49 45l107 543q6 45 -33 45t-45 -45zM1268 174l121 617h79l-131 -666q-10 -47 31 -47q37 0 47 47l131 666h80l-121 -617q-33 -174 -151 -174q-119 0 -86 174zM1395 1024l86 442q33 176 151 176q117 0 84 -174l-14 -73h-78l25 123q6 45 -31 45q-41 0 -47 -45 l-107 -543q-10 -45 31 -45q37 0 47 45l29 147h78l-19 -98q-35 -174 -151 -174q-119 0 -84 174zM1569 174l86 442q35 174 153 175q113 0 80 -175l-14 -71h-76l25 123q10 45 -31 45q-37 0 -47 -45l-107 -543q-10 -47 31 -47q37 0 47 47l29 147h76l-19 -98q-33 -174 -147 -174 q-119 0 -86 174zM1653 850l153 792h80l-153 -792h-80zM1765 850l256 792h82l-49 -792h-80l11 121h-103l-39 -121h-78zM1829 0l153 791h201l-16 -78h-123l-53 -271h71l-14 -77h-72l-55 -287h123l-14 -78h-201zM1909 1055h82l14 221l14 141l-39 -139zM2081 0l153 791h121 q131 0 101 -166l-19 -88q-18 -109 -90 -156l-14 -381h-80l18 365h-41l-69 -365h-80zM2101 850l140 713h-80l14 79h240l-15 -79h-82l-139 -713h-78zM2245 442h43q51 0 63 54l31 161q8 55 -43 56h-41zM2294 850l153 792h201l-14 -79h-123l-53 -269h71l-14 -80h-72l-55 -284 h123l-17 -80h-200z" />
<glyph unicode="*" horiz-adv-x="2383" d="M12 0l258 788h80l-47 -788h-80l8 117h-102l-35 -117h-82zM158 203h80l14 221l14 139l-39 -137zM455 0l151 788h201l-14 -77h-121l-54 -269h70l-14 -80h-70l-69 -362h-80zM702 0l152 788h80l-152 -788h-80zM844 0l151 788h80l-137 -710h119l-15 -78h-198zM1087 0l152 788 h115l-29 -426l-14 -139l39 139l133 426h119l-152 -788h-72l119 616l-29 -94l-168 -522h-65l33 528l10 88l-119 -616h-72zM1634 0l152 788h119q119 0 84 -174l-17 -77q-18 -104 -80 -136q49 -29 29 -135l-18 -94q-35 -172 -150 -172h-119zM1726 78h41q35 0 45 47l39 192 q6 45 -28 45h-41zM1796 442h41q39 0 47 45l35 179q6 45 -29 45h-41zM2005 0l66 338l-17 450h80v-243l-4 -107l35 107l92 243h82l-189 -450l-65 -338h-80z" />
<glyph unicode="+" horiz-adv-x="3571" d="M166 848l153 788h78l-153 -788h-78zM307 848l154 788h94l-8 -450l-8 -119l110 569h72l-154 -788h-94l8 463l8 106l-110 -569h-72zM721 848l258 788h80l-49 -788h-80l8 119h-102l-35 -119h-80zM864 1051h80l14 221l17 141l-41 -139zM1073 1020l21 98h77l-28 -147 q-10 -45 24 -45q33 0 43 45l17 92q16 76 -39 166q-55 92 -37 184l8 49q33 174 148 174q109 0 75 -174l-14 -71h-78l25 120q10 47 -25 48q-33 0 -43 -48l-20 -106q-10 -53 45 -150q29 -47 37 -89t2 -76l-15 -70q-35 -172 -143 -172q-115 0 -80 172zM1362 1020l20 98h78 l-28 -147q-10 -45 22 -45q33 0 43 45l16 92q14 72 -38 166q-53 94 -35 184l8 49q33 174 145 174q111 0 78 -174l-14 -71h-80l25 120q10 47 -25 48q-31 0 -41 -48l-20 -106q-10 -53 45 -150q51 -94 38 -165l-14 -70q-35 -172 -145 -172q-113 0 -78 172zM1649 1020l86 442 q33 174 151 174q117 0 84 -174l-86 -442q-35 -172 -151 -172q-119 0 -84 172zM1720 971q-10 -45 27 -45q41 0 51 45l105 540q10 47 -33 48q-35 0 -45 -48zM1948 1020l86 442q33 174 153 174q113 0 80 -172l-14 -73h-76l25 120q10 47 -31 48q-37 0 -47 -48l-105 -540 q-10 -45 29 -45t49 45l29 147h76l-21 -98q-35 -172 -147 -172q-121 0 -86 172zM2208 848l153 788h78l-153 -788h-78zM2318 848l258 788h78l-49 -788h-80l8 119h-100l-37 -119h-78zM2355 0l47 788h80l-31 -426l-12 -139l37 139l135 426h64l-29 -426l-14 -139l39 139l133 426 h80l-256 -788h-72l31 502l-160 -502h-72zM2462 1051h78l14 221l16 141l-41 -139zM2652 848l137 711h-77l16 77h238l-17 -77h-80l-137 -711h-80zM2765 0l151 788h78l-151 -788h-78zM2845 848l153 788h80l-153 -788h-80zM2955 0l137 711h-77l14 77h236l-15 -77h-78l-137 -711 h-80zM3021 1020l86 442q33 174 151 174q117 0 84 -174l-86 -442q-35 -172 -151 -172q-119 0 -84 172zM3090 971q-10 -45 29 -45t49 45l105 540q10 47 -31 48q-37 0 -47 -48zM3148 0l151 788h78l-67 -348h79l68 348h78l-152 -788h-78l70 362h-80l-69 -362h-78zM3285 848 l154 788h94l-6 -450l-6 -119l110 569h70l-154 -788h-94l8 463l6 106l-110 -569h-72z" />
<glyph unicode="," horiz-adv-x="231" d="M37 -117l14 72q66 0 80 72h-90l33 170h147l-31 -164q-31 -154 -153 -150z" />
<glyph unicode="-" horiz-adv-x="339" d="M182 770l25 131h274l-24 -131h-275z" />
<glyph unicode="." horiz-adv-x="231" d="M37 0l37 197h147l-37 -197h-147z" />
<glyph unicode="/" horiz-adv-x="1089" d="M4 4l256 787h80l-49 -787h-80l10 117h-102l-37 -117h-78zM145 207h80l17 219l14 139l-39 -137zM324 4l153 787h94l-8 -449l-8 -119l111 568h71l-153 -787h-95l9 461l8 106l-111 -567h-71zM647 4l154 787h119q117 0 81 -175l-86 -440q-35 -172 -149 -172h-119zM739 82h41 q39 0 49 45l105 541q10 45 -31 45h-41z" />
<glyph unicode="0" d="M135 360l178 918q70 360 316 360t176 -360l-178 -918q-70 -360 -316 -360t-176 360zM279 258q-18 -94 63 -94q82 0 100 94l220 1122q16 94 -66 95q-82 0 -98 -95z" />
<glyph unicode="1" horiz-adv-x="350" d="M121 0l254 1311h-90l30 164q90 0 115 124l8 39h164l-317 -1638h-164z" />
<glyph unicode="2" d="M66 0l59 311q41 213 250 455q211 244 254 451l33 163q16 94 -66 95q-82 0 -98 -95l-49 -252h-164l28 150q70 360 316 360t176 -360l-19 -90q-43 -221 -251.5 -463t-247.5 -436l-25 -125h326l-31 -164h-491z" />
<glyph unicode="3" d="M135 360l37 197l2 6h164l-59 -305q-18 -94 63 -94q82 0 100 94l78 401q18 90 -61 95h-53l32 164h62q72 0 90 94l72 368q16 94 -66 95q-82 0 -98 -95l-49 -252h-164l28 150q70 360 316 360t176 -360l-33 -164q-43 -221 -154 -278q88 -57 46 -279l-37 -197 q-70 -360 -316 -360t-176 360z" />
<glyph unicode="4" horiz-adv-x="618" d="M78 328l33 172l557 1138h153l-223 -1146h84l-31 -164h-84l-63 -328h-154l64 328h-336zM264 492h180l134 684l-84 -197z" />
<glyph unicode="5" horiz-adv-x="626" d="M139 360l39 203h164l-59 -305q-18 -94 63 -94q82 0 100 94l97 500q23 109 -76 108q-82 0 -109 -73h-139l164 845h491l-32 -163h-328l-94 -492q45 33 92 33q246 0 176 -361l-57 -295q-70 -360 -316 -360t-176 360z" />
<glyph unicode="6" d="M135 360l178 918q70 360 316 360t176 -360l-29 -150h-164l50 252q16 94 -66 95q-82 0 -98 -95l-78 -399q43 31 88 31q246 0 174 -361l-55 -291q-70 -360 -316 -360t-176 360zM279 258q-18 -94 63 -94q82 0 100 94l97 494q18 96 -64 96q-80 0 -98 -88z" />
<glyph unicode="7" horiz-adv-x="538" d="M113 0q78 410 213 782.5t331 692.5h-350l33 163h494l-35 -182q-195 -301 -319 -669.5t-206 -786.5h-161z" />
<glyph unicode="8" d="M135 360l37 197q43 221 156 279q-90 57 -47 278l32 164q70 360 316 360t176 -360l-33 -164q-43 -221 -154 -278q88 -57 46 -279l-37 -197q-70 -360 -316 -360t-176 360zM279 258q-18 -94 63 -94q82 0 100 94l78 401q18 90 -61 95q-84 0 -103 -95zM426 1012 q-18 -90 66 -94q80 0 98 94l72 368q16 94 -66 95q-82 0 -98 -95z" />
<glyph unicode="9" d="M135 360l29 150h164l-49 -252q-18 -94 63 -94q82 0 100 94l78 399q-43 -31 -88 -30q-246 0 -176 360l57 291q70 360 316 360t176 -360l-178 -918q-70 -360 -316 -360t-176 360zM401 887q-18 -96 64 -96q80 0 98 88l99 501q16 94 -66 95q-82 0 -98 -95z" />
<glyph unicode=":" horiz-adv-x="2381" d="M2 2l154 789h123q129 0 92 -181l-6 -32q-33 -180 -164 -181h-45l-76 -395h-78zM172 475h45q49 0 62 53l24 129q8 55 -41 56h-45zM305 2l154 789h121q131 0 100 -166l-16 -86q-23 -113 -93 -156l-14 -381h-80l19 363h-41l-70 -363h-80zM471 444h43q49 0 61 52l31 161 q8 55 -43 56h-41zM606 2l154 789h201l-17 -78h-123l-51 -269h70l-17 -79h-69l-56 -285h123l-14 -78h-201zM889 174l18 98h80l-26 -145q-10 -47 22 -47q33 0 43 47l16 90q16 76 -38 166q-55 90 -39 182l10 51q35 174 147 175q113 0 78 -175l-14 -71h-80l24 121q8 45 -24 45 q-33 0 -41 -45l-21 -107q-10 -47 43 -149q53 -96 41 -166l-14 -70q-35 -172 -145 -172q-115 0 -80 172zM1145 2l153 789h201l-16 -78h-123l-51 -269h71l-16 -79h-72l-55 -285h123l-14 -78h-201zM1397 2l153 789h95l-9 -451l-8 -119l113 570h71l-153 -789h-94l8 463l6 106 l-111 -569h-71zM1772 2l137 711h-78l16 78h236l-17 -78h-79l-138 -711h-77zM1997 174l18 98h78l-27 -145q-10 -47 23 -47q35 0 45 47l16 90q16 76 -39 166t-38 182l10 51q35 174 145 175q115 0 80 -175l-14 -71h-80l24 121q8 45 -26 45q-33 0 -41 -45l-21 -107 q-10 -47 43 -149q55 -96 43 -166l-14 -70q-35 -172 -147 -172q-113 0 -78 172z" />
<glyph unicode=";" horiz-adv-x="2811" d="M0 2l152 789h122q129 0 93 -181l-7 -32q-33 -180 -163 -181h-45l-76 -395h-76zM168 475h45q49 0 61 53l25 129q8 55 -41 56h-45zM301 2l154 789h120q131 0 101 -166l-17 -86q-23 -113 -92 -156l-14 -381h-80l19 363h-41l-70 -363h-80zM467 444h43q49 0 61 52l31 161 q8 55 -43 56h-41zM602 2l154 789h200l-16 -78h-123l-51 -269h70l-17 -79h-69l-56 -285h123l-14 -78h-201zM885 174l18 98h80l-27 -145q-10 -47 23 -47t43 47l16 90q16 76 -39 166t-38 182l10 51q35 174 147 175q113 0 78 -175l-14 -71h-80l24 121q8 45 -24 45q-33 0 -41 -45 l-21 -107q-10 -47 43 -149q53 -96 41 -166l-14 -70q-35 -172 -145 -172q-115 0 -80 172zM1141 2l153 789h201l-16 -78h-123l-51 -269h71l-16 -79h-72l-55 -285h123l-15 -78h-200zM1393 2l153 789h94l-8 -451l-8 -119l113 570h71l-153 -789h-94l8 463l6 106l-111 -569h-71z M1767 2l138 711h-78l16 78h236l-17 -78h-80l-137 -711h-78zM1993 174l18 98h78l-27 -145q-10 -47 23 -47q35 0 45 47l16 90q16 76 -39 166t-39 182l11 51q35 174 145 175q115 0 80 -175l-14 -71h-80l24 121q8 45 -26 45q-33 0 -41 -45l-21 -107q-10 -47 43 -149 q55 -96 43 -166l-14 -70q-35 -172 -147 -172q-113 0 -78 172zM2337 2l258 789h80l-49 -789h-80l8 117h-100l-37 -117h-80zM2480 205h78l18 221l15 139l-39 -137z" />
<glyph unicode="&#x3c;" horiz-adv-x="2572" d="M244 850l139 713h-80l14 79h238l-14 -79h-80l-139 -713h-78zM436 850l154 792h201l-15 -79h-123l-53 -269h72l-15 -80h-71l-56 -284h123l-16 -80h-201zM467 0l258 791h80l-47 -791h-82l10 117h-102l-37 -117h-80zM610 203h80l17 223l14 139l-39 -137zM723 1024l86 442 q33 176 152 176q115 0 81 -174l-14 -73h-76l25 123q6 45 -31 45q-43 0 -49 -45l-106 -543q-10 -45 32 -45q37 0 47 45l29 147h76l-19 -98q-35 -174 -149 -174q-119 0 -84 174zM788 0l154 791h119q117 0 82 -175l-86 -442q-33 -174 -150 -174h-119zM883 78h39q37 0 47 47 l106 543q10 45 -31 45h-38zM981 850l154 792h77l-67 -348h80l67 348h80l-153 -792h-80l71 364h-80l-71 -364h-78zM1161 0l49 791h80l-30 -426l-15 -142l39 142l135 426h82l-260 -791h-80zM1282 850l154 792h94l-8 -452l-6 -119l110 571h72l-154 -792h-94l6 465l8 106 l-110 -571h-72zM1378 0l154 791h80l-154 -791h-80zM1552 174l19 98h80l-29 -147q-10 -47 25 -47q33 0 43 47l18 90q14 72 -41 166t-39 184l10 51q35 174 148 175q115 0 80 -175l-15 -71h-79l24 121q8 45 -27 45q-33 0 -40 -45l-21 -107q-10 -47 43 -149q55 -98 43 -166 l-14 -70q-33 -174 -148 -174q-113 0 -80 174zM1608 850l153 792h78l-153 -792h-78zM1786 1024l86 442q33 176 149 176q117 0 84 -174l-14 -73h-76l25 123q6 45 -33 45q-41 0 -47 -45l-107 -543q-10 -45 31 -45q39 0 49 45l29 147h76l-19 -98q-35 -174 -151 -174 q-117 0 -82 174zM1841 174l86 442q35 174 156 175q117 0 82 -175l-86 -442q-33 -174 -150 -174q-121 0 -88 174zM1911 125q-10 -47 33 -47q35 0 45 47l106 543q10 45 -29 45t-49 -45zM2009 850l260 792h80l-49 -792h-80l10 121h-100l-39 -121h-82zM2109 0l154 791h121 q131 0 100 -166l-18 -88q-18 -109 -90 -156l-15 -381h-80l19 365h-41l-70 -365h-80zM2157 1055h79l15 221l14 141l-39 -139zM2273 442h43q51 0 64 54l30 161q8 55 -43 56h-40zM2333 850l153 792h78l-137 -712h123l-17 -80h-200z" />
<glyph unicode="=" horiz-adv-x="3098" d="M2 2l154 789h120q131 0 95 -181l-6 -32q-33 -180 -166 -181h-43l-76 -395h-78zM172 475h45q47 0 59 53l25 131q10 53 -41 54h-43zM303 2l154 789h123q129 0 98 -166l-16 -86q-23 -113 -93 -156l-14 -381h-80l19 363h-41l-70 -363h-80zM469 444h43q51 0 63 52l31 163 q10 53 -43 54h-43zM606 2l154 789h198l-16 -78h-121l-51 -269h68l-17 -79h-67l-56 -285h121l-14 -78h-199zM891 174l18 98h78l-26 -145q-10 -47 22 -47q33 0 43 47l16 90q14 72 -38 166q-53 90 -37 182l10 51q35 174 145 175q113 0 78 -175l-14 -71h-80l24 121q8 45 -24 45 q-33 0 -41 -45l-21 -107q-12 -49 43 -147q53 -100 41 -166l-14 -72q-35 -172 -145 -172q-113 0 -78 172zM1143 2l153 789h203l-16 -78h-121l-51 -269h67l-16 -79h-68l-55 -285h121l-14 -78h-203zM1395 2l153 789h94l-6 -451l-8 -119l113 570h69l-153 -789h-94l8 463l6 106 l-111 -569h-71zM1772 2l137 711h-80l16 78h238l-17 -78h-77l-138 -711h-79zM1997 174l18 98h80l-27 -145q-10 -47 23 -47t43 47l16 90q14 72 -41 166q-53 90 -36 182l10 51q35 174 147 175q111 0 76 -175l-14 -71h-78l24 121q8 45 -24 45q-33 0 -41 -45l-21 -107 q-12 -49 43 -147q51 -100 39 -166l-14 -72q-35 -172 -143 -172q-115 0 -80 172zM2341 2l260 789h78l-49 -789h-80l8 117h-100l-37 -117h-80zM2486 205h78l16 221l13 139l-39 -137zM2660 2l154 789h94l-4 -451l-10 -119l112 570h70l-154 -789h-94l8 463l7 106l-111 -569h-72z " />
<glyph unicode="&#x3e;" horiz-adv-x="2940" d="M37 172l18 98h80l-29 -145q-10 -47 27 -47q31 0 41 47l19 90q14 72 -41 166q-57 98 -39 182l10 51q35 174 147 174q113 0 78 -174l-14 -71h-78l23 121q8 45 -23 45q-37 0 -45 -45l-21 -107q-10 -53 46 -147q53 -96 40 -166l-14 -72q-35 -172 -143 -172q-117 0 -82 172z M326 172l118 616h80l-129 -663q-10 -47 31 -47q37 0 47 47l129 663h78l-119 -616q-35 -172 -149 -172q-121 0 -86 172zM594 0l151 788h121q133 0 97 -180l-7 -33q-33 -180 -163 -180h-45l-76 -395h-78zM606 848l137 711h-79l16 79h238l-17 -79h-78l-137 -711h-80zM762 473 h45q49 0 59 53l27 131q10 53 -41 54h-43zM799 848l153 790h201l-16 -79h-121l-51 -269h67l-14 -78h-68l-55 -284h121l-17 -80h-200zM897 0l152 788h198l-14 -77h-119l-53 -269h67l-14 -80h-67l-56 -284h119l-14 -78h-199zM1083 1022l86 442q37 174 152 174q117 0 80 -174 l-12 -71h-74l22 120q8 45 -32 46q-39 0 -48 -46l-104 -540q-8 -45 31 -45q41 0 49 45l29 147h73l-20 -98q-31 -174 -148 -174q-115 0 -84 174zM1149 0l151 788h121q131 0 101 -165l-19 -86q-23 -113 -90 -156l-14 -381h-78l18 362h-43l-69 -362h-78zM1311 442h45q51 0 59 52 l33 163q10 53 -41 54h-43zM1341 848l154 790h80l-68 -348h78l68 348h80l-154 -790h-80l72 364h-78l-72 -364h-80zM1522 0l47 788h80l-31 -426l-14 -139l38 139l136 426h80l-256 -788h-80zM1640 848l154 790h94l-6 -450l-6 -119l111 569h69l-153 -790h-95l9 463l6 106 l-111 -569h-72zM1737 0l151 788h80l-151 -788h-80zM1913 172l18 98h80l-29 -145q-10 -47 25 -47q31 0 41 47l18 90q14 72 -41 166t-36 182l10 51q35 174 145 174q113 0 78 -174l-14 -71h-78l22 121q8 45 -22 45q-35 0 -43 -45l-21 -107q-10 -53 43 -147q53 -100 41 -166 l-14 -72q-35 -172 -143 -172q-115 0 -80 172zM1968 848l154 790h78l-154 -790h-78zM2142 1022l86 442q37 174 154 174q115 0 78 -174l-13 -71h-73l22 120q8 45 -33 46q-39 0 -47 -46l-104 -540q-8 -45 31 -45q41 0 49 45l28 147h74l-20 -98q-31 -174 -146 -174 q-117 0 -86 174zM2200 172l86 442q35 174 151 174q121 0 86 -174l-86 -442q-35 -172 -151 -172q-121 0 -86 172zM2269 125q-10 -47 31 -47q39 0 49 47l107 541q6 45 -33 45q-41 0 -47 -45zM2370 848l258 790h77l-47 -790h-80l9 119h-103l-35 -119h-79zM2468 0l151 788h121 q131 0 101 -165l-19 -86q-23 -111 -88 -156l-14 -381h-82l20 362h-43l-69 -362h-78zM2513 1051h78l18 223l14 141l-38 -141zM2630 442h43q55 0 63 52l33 163q10 53 -43 54h-43zM2689 848l154 790h77l-137 -710h123l-16 -80h-201z" />
<glyph unicode="?" horiz-adv-x="3842" d="M35 174l86 442q35 174 153 175q113 0 80 -175l-14 -71h-76l25 121q10 47 -31 47q-39 0 -49 -47l-107 -541q-10 -47 33 -47q37 0 47 47l29 145h76l-19 -96q-33 -174 -147 -174q-119 0 -86 174zM293 0l153 791h80l-69 -349h80l69 349h80l-154 -791h-79l69 365h-80l-69 -365 h-80zM594 0l154 791h79l-153 -791h-80zM737 0l154 791h201l-17 -78h-123l-53 -271h70l-15 -77h-69l-56 -287h123l-14 -78h-201zM745 850l261 790h79l-49 -790h-80l7 119h-101l-35 -119h-82zM891 1053h78l18 223l14 141l-38 -141zM987 0l154 791h202l-16 -78h-123l-53 -271 h70l-15 -77h-69l-70 -365h-80zM1102 1024l18 96h80l-29 -145q-10 -47 25 -47q31 0 41 47l18 90q12 72 -41 168q-55 92 -36 184l10 49q33 174 145 174q113 0 80 -174l-14 -71h-80l22 121q10 47 -22 47q-33 0 -43 -47l-21 -109q-10 -51 43 -147q55 -98 41 -166l-12 -70 q-33 -174 -147 -174q-111 0 -78 174zM1325 0l260 791h78l-49 -791h-80l8 117h-100l-37 -117h-80zM1391 1024l18 96h80l-29 -145q-10 -47 25 -47q31 0 41 47l18 90q12 72 -41 168q-55 88 -37 184l11 49q33 174 145 174q113 0 80 -174l-14 -71h-80l22 121q10 47 -22 47 q-33 0 -43 -47l-21 -109q-10 -51 43 -147q55 -98 41 -166l-12 -70q-33 -174 -148 -174q-111 0 -77 174zM1470 203h78l15 223l14 139l-39 -139zM1642 850l154 790h82l-154 -790h-82zM1647 0l153 791h94l-6 -451l-10 -119l113 570h71l-153 -791h-94l4 463l10 106l-111 -569 h-71zM1821 1024l18 96h80l-29 -145q-10 -47 25 -47q31 0 41 47l18 90q12 72 -41 168q-55 92 -37 184l11 49q33 174 145 174q113 0 80 -174l-14 -71h-80l22 121q10 47 -22 47q-33 0 -43 -47l-21 -109q-10 -51 43 -147q55 -98 41 -166l-12 -70q-33 -174 -148 -174 q-111 0 -77 174zM1972 0l154 791h80l-154 -791h-80zM2114 0l153 791h117l-33 -426l-14 -142l39 142l137 426h119l-154 -791h-72l119 616l-28 -94l-168 -522h-66l33 530l8 86l-119 -616h-71zM2124 850l139 713h-78l15 77h237l-14 -77h-78l-139 -713h-82zM2249 850l258 790h80 l-47 -790h-82l10 119h-103l-36 -119h-80zM2392 1053h80l18 223l15 141l-39 -141zM2509 0l258 791h80l-49 -791h-80l8 117h-100l-37 -117h-80zM2570 850l154 790h94l-8 -450l-6 -119l110 569h72l-154 -790h-94l8 463l7 106l-111 -569h-72zM2652 203h80l14 223l15 139 l-39 -139zM2845 0l137 713h-78l16 78h238l-16 -78h-80l-137 -713h-80zM2947 850l139 713h-80l15 77h235l-14 -77h-78l-139 -713h-78zM3070 174l86 442q35 174 154 175q119 0 84 -175l-86 -442q-33 -174 -152 -174t-86 174zM3140 125q-10 -47 30 -47q39 0 49 47l107 541 q10 47 -33 47q-37 0 -47 -47zM3312 850l139 713h-80l14 77h238l-14 -77h-78l-140 -713h-79zM3338 0l154 791h121q131 0 100 -166l-18 -88q-23 -111 -91 -156l-14 -381h-80l19 365h-41l-70 -365h-80zM3502 442h43q51 0 64 54l30 161q10 55 -43 56h-41zM3539 1024l86 442 q33 174 149 174q119 0 86 -174l-86 -442q-33 -174 -153 -174q-115 0 -82 174zM3607 975q-10 -47 30 -47q39 0 49 47l105 541q10 47 -31 47q-39 0 -49 -47z" />
<glyph unicode="@" horiz-adv-x="4196" d="M199 1024l86 442q33 174 151 174q115 0 82 -172l-14 -73h-76l25 123q6 45 -31 45q-43 0 -49 -45l-107 -543q-8 -45 33 -45q39 0 47 45l29 147h76l-19 -98q-33 -174 -149 -174q-117 0 -84 174zM457 850l153 790h80l-153 -790h-80zM600 850l154 790h94l-8 -450l-6 -119 l110 569h72l-154 -790h-94l6 465l6 106l-110 -571h-70zM926 850l153 790h201l-14 -77h-123l-53 -271h69l-14 -78h-70l-55 -284h123l-17 -80h-200zM1178 850l153 790h115l-29 -426l-14 -139l39 139l133 426h119l-154 -790h-72l121 620l-28 -96l-170 -524h-66l35 530l10 88 l-121 -618h-71zM1573 850l258 790h78l-47 -790h-82l10 119h-102l-35 -119h-80zM1716 1053h78l21 223l12 141l-39 -139zM1911 850l139 713h-82l14 77h238l-14 -77h-78l-139 -713h-78zM2136 1024l86 442q33 174 152 174t86 -174l-86 -442q-33 -174 -154 -174q-117 0 -84 174z M2206 975q-8 -45 30 -45q39 0 48 45l106 543q6 45 -31 45q-41 0 -47 -45zM2437 1024l86 442q33 174 152 174q121 0 88 -172l-15 -73h-75l24 123q6 45 -37 45t-49 -45l-106 -543q-8 -45 32 -45q45 0 54 45l30 160h-45l17 79h121l-72 -364l-29 53q-31 -53 -92 -53 q-117 0 -84 174zM2699 850l154 790h121q133 0 100 -165l-16 -89q-20 -104 -92 -155l-15 -381h-80l21 364h-43l-72 -364h-78zM2863 1292h45q51 0 62 56l32 159q8 55 -43 56h-43zM2968 850l260 790h80l-50 -790h-80l7 119h-99l-37 -119h-81zM3113 1053h78l18 223l15 141 l-39 -139zM3291 850l154 790h121q131 0 96 -182l-6 -31q-35 -182 -166 -182h-43l-78 -395h-78zM3430 0l154 791h117q121 0 86 -175l-17 -79q-18 -102 -82 -136q51 -29 31 -133l-18 -94q-33 -174 -154 -174h-117zM3461 1325h43q53 0 62 53l26 129q8 55 -41 56h-43zM3525 78 h36q39 0 50 47l39 192q6 43 -31 48h-39zM3594 442h39q41 0 49 45l35 179q10 47 -33 47h-37zM3594 850l154 790h80l-68 -348h78l68 348h79l-153 -790h-80l72 364h-78l-72 -364h-80zM3801 0l66 338l-15 453h80l-2 -244l-4 -109l35 109l96 244h82l-193 -453l-65 -338h-80z M3965 850l65 338l-14 452h80v-243l-4 -107l35 107l94 243h82l-193 -452l-65 -338h-80z" />
<glyph unicode="A" horiz-adv-x="600" d="M0 0l535 1638h165l-100 -1638h-166l17 246h-209l-76 -246h-166zM299 422h164l33 461l30 291l-82 -289z" />
<glyph unicode="B" d="M66 0l317 1638h246q192 0 192 -218q0 -62 -16 -142l-33 -164q-43 -221 -170 -278q74 -42 74 -166q0 -50 -12 -113l-37 -197q-70 -360 -316 -360h-245zM260 164h82q82 0 100 94l78 401q3 17 3 30q0 60 -64 65h-84zM408 918h84q80 0 98 94l72 368q3 15 3 28q0 66 -69 67 h-82z" />
<glyph unicode="C" horiz-adv-x="606" d="M135 360l178 918q70 360 316 360q184 0 184 -215q0 -63 -16 -145l-29 -150h-156l50 252q3 15 3 28q0 66 -69 67q-82 0 -98 -95l-219 -1122q-3 -17 -4 -31q0 -63 67 -63q82 0 100 94l60 305h155l-39 -203q-70 -360 -307 -360q-192 0 -192 218q0 62 16 142z" />
<glyph unicode="D" d="M66 0l317 1638h246q192 0 192 -218q0 -62 -16 -142l-178 -918q-70 -360 -316 -360h-245zM260 164h82q82 0 100 94l220 1122q3 15 3 28q0 66 -69 67h-82z" />
<glyph unicode="E" horiz-adv-x="522" d="M66 0l317 1638h416l-33 -163h-252l-106 -557h143l-33 -164h-143l-115 -590h252l-31 -164h-415z" />
<glyph unicode="F" horiz-adv-x="512" d="M66 0l317 1638h416l-33 -163h-252l-106 -557h143l-33 -164h-143l-146 -754h-163z" />
<glyph unicode="G" horiz-adv-x="616" d="M135 360l178 918q70 360 318 360q197 0 197 -220q0 -62 -15 -140l-29 -150h-157l49 252q2 14 2 25q0 69 -80 70q-84 0 -100 -95l-219 -1122q-3 -17 -3 -31q0 -63 66 -63q94 0 113 94l65 334h-92l31 162h250l-146 -754l-59 111q-68 -111 -193 -111q-192 0 -192 218 q0 62 16 142z" />
<glyph unicode="H" d="M66 0l317 1638h164l-139 -720h163l140 720h163l-317 -1638h-164l146 754h-164l-146 -754h-163z" />
<glyph unicode="I" horiz-adv-x="294" d="M66 0l317 1638h164l-318 -1638h-163z" />
<glyph unicode="J" horiz-adv-x="387" d="M41 0l31 164h45q82 0 100 94l268 1380h164l-248 -1278q-70 -360 -315 -360h-45z" />
<glyph unicode="K" horiz-adv-x="663" d="M66 0l317 1638h164l-146 -747l72 145l315 602h173l-431 -798l129 -840h-174l-88 645l-14 146l-154 -791h-163z" />
<glyph unicode="L" horiz-adv-x="503" d="M66 0l317 1638h164l-287 -1474h252l-31 -164h-415z" />
<glyph unicode="M" horiz-adv-x="884" d="M66 0l317 1638h240l-64 -882l-29 -291l80 289l281 884h246l-318 -1638h-147l248 1282l-58 -197l-354 -1085h-135l69 1100l19 180l-248 -1280h-147z" />
<glyph unicode="N" horiz-adv-x="675" d="M66 0l317 1638h197l-15 -933l-14 -248l229 1181h148l-318 -1638h-196l14 963l14 219l-229 -1182h-147z" />
<glyph unicode="O" d="M135 360l178 918q70 360 316 360q192 0 192 -218q0 -62 -16 -142l-178 -918q-70 -360 -316 -360q-192 0 -192 218q0 62 16 142zM279 258q-3 -17 -4 -31q0 -63 67 -63q82 0 100 94l220 1122q3 15 3 28q0 66 -69 67q-82 0 -98 -95z" />
<glyph unicode="P" horiz-adv-x="630" d="M66 0l317 1638h252q214 0 214 -234q0 -63 -15 -142l-13 -66q-74 -377 -344 -377h-90l-158 -819h-163zM420 983h90q106 0 127 111l53 270q3 17 3 32q0 79 -91 79h-88z" />
<glyph unicode="Q" d="M135 360l178 918q70 360 316 360q192 0 192 -218q0 -62 -16 -142l-178 -918q-63 -324 -267 -356q-7 -26 -7 -45q0 -51 48 -55q9 -1 17 -1q62 0 127 38l-23 -117q-82 -33 -141 -33q-47 0 -80 21q-52 30 -52 118q0 33 7 74q-136 29 -136 214q0 62 15 142zM279 258 q-3 -17 -3 -31q0 -63 66 -63q82 0 100 94l220 1122q3 15 3 28q0 66 -69 67q-82 0 -98 -95z" />
<glyph unicode="R" horiz-adv-x="624" d="M66 0l317 1638h252q218 0 218 -221q0 -55 -13 -123l-35 -180q-43 -227 -189 -323l-30 -791h-166l41 754h-86l-146 -754h-163zM408 918h90q106 0 127 110l65 336q3 17 3 32q0 79 -91 79h-88z" />
<glyph unicode="S" horiz-adv-x="598" d="M135 360l39 203h164l-59 -305q-4 -19 -4 -35q0 -59 55 -59q70 0 88 94l37 188q6 31 6 63q0 127 -91 283q-86 147 -86 290q0 46 9 92l20 104q70 360 303 360q180 0 180 -214q0 -63 -16 -146l-28 -150h-164l49 252q3 18 3 32q0 62 -56 63q-70 0 -86 -95l-45 -223 q-3 -16 -3 -34q0 -102 95 -273q90 -161 90 -286q0 -31 -6 -60l-27 -144q-70 -360 -303 -360q-180 0 -180 214q0 64 16 146z" />
<glyph unicode="T" horiz-adv-x="503" d="M170 0l285 1475h-164l33 163h491l-33 -163h-164l-284 -1475h-164z" />
<glyph unicode="U" d="M135 360l248 1278h164l-268 -1380q-3 -17 -4 -31q0 -63 67 -63q82 0 100 94l269 1380h163l-247 -1278q-70 -360 -316 -360q-192 0 -192 218q0 62 16 142z" />
<glyph unicode="V" horiz-adv-x="600" d="M217 0l100 1638h166l-63 -882l-31 -291l80 289l283 884h166l-535 -1638h-166z" />
<glyph unicode="W" horiz-adv-x="1001" d="M217 0l100 1638h166l-63 -882l-29 -291l80 289l281 884h133l-64 -882l-28 -291l79 289l281 884h166l-533 -1638h-151l67 1044l-333 -1044h-152z" />
<glyph unicode="X" horiz-adv-x="624" d="M2 0l395 883l-39 755h168l2 -368l4 -137l56 137l145 368h170l-336 -755l58 -883h-170l-13 465l-8 166l-74 -170l-188 -461h-170z" />
<glyph unicode="Y" horiz-adv-x="593" d="M215 0l135 700l-33 938h168v-505l-12 -222l74 222l194 505h170l-397 -938l-135 -700h-164z" />
<glyph unicode="Z" horiz-adv-x="550" d="M31 0l35 184l589 1291h-323l33 163h473l-39 -200l-574 -1274h326l-31 -164h-489z" />
<glyph unicode="[" horiz-adv-x="1914" d="M100 0l50 791h79l-32 -429l-13 -139l37 139l137 429h64l-31 -429l-14 -139l39 139l135 429h82l-258 -791h-72l29 504l-160 -504h-72zM236 1022l20 98h78l-29 -147q-10 -45 25 -45q33 0 43 45l16 90q14 72 -39 168q-55 92 -37 184l9 49q37 174 145 174q115 0 78 -174 l-13 -71h-77l22 123q10 45 -24 45q-33 0 -43 -45l-21 -109q-10 -53 45 -150q53 -98 39 -165l-14 -70q-31 -172 -146 -172q-109 0 -77 172zM510 0l154 791h120q129 0 99 -166l-19 -88q-23 -115 -88 -156l-16 -381h-78l18 362h-43l-69 -362h-78zM524 1022l86 442q18 88 55 131 t99 43q113 0 80 -172l-15 -73h-75l22 123q10 45 -28 45q-39 0 -50 -45l-104 -543q-10 -45 31 -45q37 0 47 45l28 147h76l-20 -98q-31 -172 -146 -172q-61 0 -81.5 43t-4.5 129zM672 442h45q53 0 61 52l33 163q10 53 -43 54h-43zM782 850l154 788h121q131 0 98 -165l-16 -89 q-20 -106 -90 -153l-15 -381h-80l21 362h-43l-72 -362h-78zM811 0l154 791h77l-153 -791h-78zM946 1290h45q49 0 60 56l30 159q12 55 -39 56h-43zM1004 0l137 711h-80l16 80h236l-17 -80h-77l-138 -711h-77zM1083 850l154 788h201l-15 -77h-123l-53 -271h70l-14 -78h-70 l-55 -284h122l-16 -78h-201zM1194 0l154 791h202l-16 -80h-123l-53 -269h69l-14 -80h-70l-55 -284h123l-14 -78h-203zM1335 850l154 788h201l-15 -77h-123l-53 -271h70l-15 -78h-69l-55 -284h122l-16 -78h-201zM1446 0l153 791h123q129 0 99 -166l-19 -88q-23 -113 -90 -156 l-14 -381h-80l18 362h-41l-69 -362h-80zM1585 850l154 788h94l-6 -450l-8 -119l110 569h72l-154 -788h-94l8 463l6 106l-110 -569h-72zM1610 442h43q55 0 63 52l33 163q10 53 -43 54h-43z" />
<glyph unicode="\" horiz-adv-x="2639" d="M170 850l258 790h82l-49 -790h-80l6 119h-100l-37 -119h-80zM315 1055h80l17 221l14 141l-39 -141zM391 0l154 791h119q117 0 84 -175l-86 -444q-35 -172 -152 -172h-119zM485 78h39q39 0 47 45l107 545q8 43 -31 43h-39zM494 850l153 790h94l-8 -450l-8 -119l111 569h71 l-153 -790h-92l6 463l6 106l-111 -569h-69zM694 0l154 791h76l-154 -791h-76zM819 850l154 790h78l-154 -790h-78zM836 0l153 791h121q129 0 98 -166l-18 -88q-10 -55 -31.5 -94.5t-58.5 -61.5l-13 -381h-81l18 365h-41l-70 -365h-77zM961 850l153 790h115l-31 -426 l-12 -139l39 139l135 426h117l-154 -790h-70l121 620l-26 -96l-174 -524h-66l35 530l10 90l-121 -620h-71zM997 442h43q51 0 64 54l31 161q8 53 -41 54h-43zM1137 0l153 791h199l-16 -80h-121l-54 -271h70l-14 -75h-70l-55 -287h121l-15 -78h-198zM1358 850l256 790h80 l-49 -790h-80l8 119h-103l-34 -119h-78zM1421 172l86 444q33 174 154 175q113 0 80 -175l-15 -71h-75l24 123q8 43 -30 43q-41 0 -50 -43l-106 -545q-8 -45 33 -45q39 0 47 45l28 149h76l-18 -100q-35 -172 -148 -172q-121 0 -86 172zM1501 1055h78l18 221l13 141l-39 -141z M1729 850l139 713h-80l14 77h238l-15 -77h-79l-140 -713h-77zM1731 0l137 711h-78l16 80h238l-16 -80h-82l-138 -711h-77zM1919 850l154 790h79l-153 -790h-80zM1958 172l86 444q33 174 151 175q115 0 82 -175l-86 -444q-35 -172 -149 -172q-119 0 -84 172zM2025 123 q-8 -45 31 -45t47 45l107 545q8 43 -31 43t-47 -43zM2099 1024l86 444q33 172 150 172q119 0 86 -172l-86 -444q-33 -174 -154 -174q-115 0 -82 174zM2167 973q-10 -45 31 -45q37 0 47 45l106 545q6 45 -31 45q-41 0 -47 -45zM2224 0l154 791h123q129 0 98 -166l-19 -88 q-23 -111 -90 -156l-14 -381h-80l19 365h-43l-70 -365h-78zM2361 850l154 790h98l-10 -450l-6 -119l110 569h72l-153 -790h-95l6 463l9 106l-111 -569h-74zM2386 442h45q51 0 63 54l31 161q8 53 -41 54h-45z" />
<glyph unicode="]" horiz-adv-x="3598" d="M168 854l151 788h78l-69 -360l34 70l152 290h82l-207 -385l64 -403h-82l-45 309l-7 72l-73 -381h-78zM487 854l152 788h199l-15 -77h-121l-53 -271h70l-14 -77h-70l-55 -285h120l-14 -78h-199zM696 178l21 98h78l-29 -147q-10 -45 22 -45q33 0 43 45l17 92q14 72 -41 166 q-51 90 -33 182l8 52q35 174 146 174q113 0 78 -174l-13 -72h-80l23 121q8 45 -25 45t-41 -45l-20 -107q-10 -53 45 -149q51 -94 39 -166l-14 -70q-31 -172 -146 -172q-109 0 -78 172zM809 854l63 336l-14 452h80v-243l-4 -107l35 107l92 243h82l-193 -452l-63 -336h-78z M983 178l121 617h78l-129 -666q-10 -45 28 -45q41 0 52 45l129 666h77l-120 -617q-31 -172 -152 -172q-115 0 -84 172zM1112 854l256 788h80l-47 -788h-78l6 119h-102l-33 -119h-82zM1249 6l154 789h121q131 0 96 -183l-6 -30q-37 -182 -168 -183h-43l-76 -393h-78z M1255 1057h80l17 221l12 141l-37 -139zM1419 479h43q55 0 64 51l24 132q12 55 -41 55h-43zM1432 854l151 788h94l-4 -450l-8 -119l111 569h69l-151 -788h-95l7 463l8 106l-111 -569h-71zM1552 6l154 789h201l-15 -78h-123l-53 -271h70l-17 -77h-69l-55 -285h122l-14 -78 h-201zM1757 854l152 788h80l-152 -788h-80zM1804 6l154 789h121q131 0 98 -166l-16 -88q-23 -111 -93 -154l-14 -381h-80l19 363h-41l-70 -363h-78zM1898 854l152 788h117l-31 -425l-14 -140l39 140l135 425h119l-152 -788h-72l119 616l-29 -94l-170 -522h-63l33 528l8 88 l-119 -616h-72zM1968 446h43q53 0 64 54l30 162q12 55 -41 55h-43zM2177 6l49 789h80l-33 -426l-14 -140l37 140l139 426h80l-258 -789h-80zM2294 854l256 788h78l-48 -788h-79l8 119h-101l-34 -119h-80zM2392 6l154 789h80l-154 -789h-80zM2437 1057h78l18 221l13 141 l-39 -139zM2566 178l21 98h79l-28 -147q-10 -45 22 -45q33 0 43 45l17 92q14 72 -39 166q-55 92 -37 182l8 52q35 174 148 174q111 0 75 -174l-12 -72h-78l23 121q8 45 -25 45t-41 -45l-20 -107q-8 -51 43 -149q29 -47 37 -89t2 -77l-15 -70q-31 -172 -143 -172 q-111 0 -80 172zM2630 854l137 711h-80l14 77h238l-14 -77h-78l-137 -711h-80zM2820 854l152 788h80l-152 -788h-80zM2855 178l86 443q35 174 154 174q117 0 81 -174l-86 -443q-31 -172 -149 -172q-117 0 -86 172zM2925 129q-10 -45 30 -45q39 0 49 45l105 541q10 47 -29 47 q-41 0 -51 -47zM2996 1026l86 442q33 174 150 174q119 0 86 -174l-86 -442q-35 -172 -152 -172q-119 0 -84 172zM3064 977q-10 -45 31 -45q39 0 49 45l106 541q6 47 -33 47q-41 0 -47 -47zM3121 6l154 789h121q131 0 98 -166l-16 -88q-23 -111 -93 -154l-14 -381h-78l19 363 h-41l-70 -363h-80zM3262 854l152 788h94l-4 -450l-10 -119l110 569h70l-151 -788h-95l6 463l11 106l-111 -569h-72zM3287 446h43q51 0 61 54l31 162q12 55 -41 55h-41z" />
<glyph unicode="^" horiz-adv-x="2908" d="M266 848l49 790h78l-28 -426l-17 -141l41 141l133 426h66l-31 -426l-16 -141l41 141l135 426h80l-256 -790h-74l33 504l-162 -504h-72zM676 848l153 790h78l-153 -790h-78zM868 848l138 711h-80l16 79h236l-17 -79h-78l-137 -711h-78zM1059 848l153 790h80l-67 -348h78 l67 348h80l-154 -790h-79l71 364h-78l-71 -364h-80zM1481 848l153 790h117l-31 -426l-14 -141l39 141l135 426h119l-154 -790h-71l120 618l-26 -96l-174 -522h-64l33 530l8 86l-119 -616h-71zM1491 -2l154 790h200l-14 -79h-123l-53 -269h69l-14 -78h-70l-71 -364h-78z M1737 -2l153 790h123q131 0 101 -165l-19 -88q-20 -109 -92 -156l-14 -381h-80l20 364h-43l-71 -364h-78zM1901 440h45q51 0 61 54l33 161q10 53 -41 54h-45zM1942 1020l120 618h78l-129 -665q-10 -47 31 -47q37 0 47 47l129 665h80l-121 -618q-35 -172 -149 -172 q-121 0 -86 172zM2073 172l86 442q35 174 151 174q121 0 86 -174l-86 -442q-33 -174 -153 -174q-117 0 -84 174zM2142 123q-10 -47 31 -47q39 0 49 47l105 541q8 45 -31 45q-41 0 -49 -45zM2241 1020l20 98h80l-29 -145q-10 -47 23 -47t43 47l16 90q14 72 -41 168 q-53 94 -35 184l9 47q37 176 147 176q115 0 78 -176l-15 -71h-79l24 122q8 45 -24 46q-33 0 -41 -46l-21 -108q-10 -51 43 -148q55 -98 41 -165l-14 -72q-35 -172 -146 -172q-115 0 -79 172zM2339 -2l153 790h115l-29 -426l-16 -141l41 141l133 426h119l-154 -790h-71 l120 616l-26 -94l-172 -522h-66l35 530l10 86l-121 -616h-71zM2497 848l153 790h80l-154 -790h-79zM2671 1020l86 442q37 176 155 176q115 0 78 -174l-14 -73h-76l25 122q8 45 -31 46q-39 0 -47 -46l-105 -540q-10 -47 29 -47t49 47l29 145h76l-21 -98q-35 -172 -145 -172 q-123 0 -88 172z" />
<glyph unicode="_" horiz-adv-x="2324" d="M0 0l154 791h116l-30 -426l-15 -142l39 142l135 426h119l-153 -791h-72l119 618l-27 -94l-170 -524h-65l32 530l11 88l-119 -618h-74zM317 1024l86 442q33 176 150 176q119 0 86 -176l-86 -442q-35 -174 -154 -174q-117 0 -82 174zM385 975q-10 -45 31 -45q39 0 49 45 l106 543q6 45 -32 45q-41 0 -47 -45zM461 174l121 617h80l-132 -666q-10 -47 31 -47q37 0 47 47l131 666h78l-121 -617q-33 -174 -149 -174q-119 0 -86 174zM582 850l153 792h123q131 0 100 -165l-18 -88q-20 -109 -90 -156l-16 -383h-80l20 364h-43l-72 -364h-77zM745 1294 h46q53 0 61 54l33 161q8 53 -41 54h-45zM762 174l18 98h80l-29 -147q-10 -47 25 -47q31 0 41 47l18 90q14 72 -41 166q-53 94 -36 184l10 51q35 174 147 175q113 0 78 -175l-14 -71h-80l25 121q8 45 -25 45t-41 -45l-20 -107q-6 -27 5 -63.5t35 -85.5q55 -98 43 -166 l-14 -70q-33 -174 -145 -174q-113 0 -80 174zM885 850l153 792h78l-153 -792h-78zM1016 0l153 791h82l-153 -791h-82zM1061 1024l86 442q33 176 151 176q123 0 91 -174l-15 -73h-78l25 123q6 45 -37 45q-41 0 -47 -45l-107 -543q-10 -45 29 -45q45 0 55 45l31 162h-45l17 77 h120l-71 -364l-29 53q-31 -53 -92 -53q-119 0 -84 174zM1192 174l86 442q35 174 156 175q111 0 77 -175l-14 -71h-76l25 123q10 45 -31 45q-37 0 -47 -45l-106 -543q-10 -47 30 -47q37 0 47 47l29 147h76l-19 -98q-33 -174 -145 -174q-121 0 -88 174zM1323 850l154 792h79 l-153 -792h-80zM1466 850l154 792h94l-8 -452l-6 -119l110 571h72l-153 -792h-95l8 465l7 106l-111 -571h-72zM1573 0l153 791h119q119 0 84 -175l-16 -79q-18 -106 -82 -134q51 -31 31 -135l-19 -94q-33 -174 -151 -174h-119zM1667 78h39q39 0 49 47l39 194q6 41 -31 46 h-41zM1737 442h41q41 0 49 47l35 179q10 45 -33 45h-39zM1759 850l260 792h80l-49 -792h-80l8 121h-100l-37 -121h-82zM1907 1055h78l16 221l14 141l-39 -139zM1946 0l65 338l-14 453h80l-2 -244l-4 -107l34 107l97 244h82l-193 -453l-66 -338h-79zM2083 850l153 792h78 l-137 -712h121l-17 -80h-198z" />
<glyph unicode="`" horiz-adv-x="323" d="M381 1817h178l78 -105h-84z" />
<glyph unicode="a" horiz-adv-x="2162" d="M272 846l50 790h81l-32 -426l-15 -141l39 141l137 426h60l-31 -426l-14 -141l39 141l137 426h80l-258 -790h-74l35 504l-160 -504h-74zM682 846l154 790h120q105 0 104 -109q0 -25 -5 -57l-17 -90q-20 -104 -92 -153l-16 -381h-78l16 364h-39l-69 -364h-78zM846 1288h43 q49 0 59 53l31 162q1 7 1 14q0 37 -40 37h-43zM981 846l154 790h77l-153 -790h-78zM1171 846l138 708h-76l16 82h236l-17 -82h-77l-138 -708h-82zM1415 846l137 708h-79l16 82h237l-16 -82h-80l-137 -708h-78zM1434 0l151 786h117q94 0 94 -102q0 -30 -8 -68l-16 -81 q-18 -104 -82 -134q29 -16 35 -49q2 -12 2 -26q0 -25 -7 -58l-18 -94q-33 -174 -152 -174h-116zM1526 82h39q23 0 34 9t15 34l37 190q2 9 2 16q0 29 -33 29h-39zM1595 442h39q41 0 52 43l32 179q2 9 2 16q0 29 -32 29h-39zM1606 846l153 790h199l-16 -82h-117l-51 -266h67 l-16 -78h-68l-53 -282h117l-17 -82h-198zM1806 0l64 336l-17 450h80l2 -243l-8 -105l37 105l90 243h82l-188 -450l-64 -336h-78zM1858 846l153 790h92l-6 -450l-6 -121l111 571h71l-153 -790h-97l9 463l8 104l-111 -567h-71z" />
<glyph unicode="b" horiz-adv-x="1980" d="M197 1020l86 442q35 174 151 174q92 0 92 -104q0 -31 -8 -70l-14 -73h-78l25 122q2 8 2 15q0 30 -35 30q-33 0 -43 -45l-105 -538q-8 -45 27 -45q41 0 49 45l29 145h78l-21 -98q-33 -174 -151 -174q-91 0 -91 106q0 30 7 68zM424 846l258 790h82l-53 -790h-78l8 119h-102 l-35 -119h-80zM567 1049h82l15 223l14 137l-39 -137zM776 1020l21 98h80l-29 -145q-8 -45 24 -45q33 0 41 45l17 88q4 17 4 34q0 62 -45 132q-41 75 -41 142q0 20 4 40l10 53q35 174 148 174q88 0 88 -102q0 -31 -8 -72l-15 -73h-82l25 122q10 45 -25 45q-18 0 -27.5 -11 t-13.5 -34l-22 -110q-1 -5 -1 -10q0 -48 48 -136q43 -77 44 -138q0 -14 -3 -27l-14 -70q-33 -174 -148 -174q-87 0 -87 104q0 31 7 70zM1083 846l138 710h-82l16 80h236l-17 -80h-76l-137 -710h-78zM1274 846l153 790h78l-153 -790h-78zM1288 0l152 786h116q94 0 94 -102 q0 -30 -8 -68l-16 -81q-18 -100 -82 -134q36 -23 36 -83q0 -22 -5 -50l-19 -94q-33 -174 -151 -174h-117zM1380 82h39q18 0 31.5 9t17.5 34l37 190q2 9 2 16q0 29 -32 29h-39zM1415 846l154 790h94l-8 -448l-6 -123l110 571h70l-154 -790h-94l10 463l4 104l-110 -567h-70z M1450 442h39q41 0 51 43l33 179q2 9 2 16q0 29 -33 29h-39zM1657 0l63 336l-12 450h80l-2 -243l-4 -105l37 105l90 243h82l-189 -450l-63 -336h-82zM1772 1020l86 442q35 174 153 174q94 0 94 -105q0 -30 -8 -69l-14 -73h-72l25 122q2 7 2 14q0 31 -43 31q-39 0 -49 -45 l-105 -538q-1 -7 -1 -13q0 -32 34 -32q45 0 53 45l31 157h-45l14 80h121l-70 -364l-26 53q-37 -53 -94 -53q-93 0 -93 107q0 29 7 67z" />
<glyph unicode="c" horiz-adv-x="1533" d="M164 846l153 790h117l-35 -426l-10 -141l35 141l137 426h117l-154 -790h-69l118 616l-26 -94l-168 -522h-66l35 530l8 86l-118 -616h-74zM623 1020l120 616h76l-129 -665q-1 -7 -1 -13q0 -30 34 -30q41 0 49 43l129 665h76l-121 -616q-33 -174 -149 -174q-91 0 -91 106 q0 30 7 68zM858 0l152 786h116q98 0 98 -105q0 -29 -7 -65l-17 -81q-18 -100 -82 -134q36 -23 36 -84q0 -23 -5 -51l-19 -92q-33 -174 -155 -174h-117zM922 1020l20 98h76l-29 -147q-8 -43 25 -43q37 0 45 43l16 90q3 15 3 30q0 61 -44 136q-40 77 -40 145q0 19 3 37l11 53 q35 174 143 174q88 0 88 -102q0 -31 -8 -72l-14 -73h-78l24 120q6 45 -28 45q-35 0 -41 -45l-23 -108q-1 -6 -1 -13q0 -47 48 -133q43 -82 43 -140q0 -13 -2 -25l-14 -70q-33 -174 -148 -174q-83 0 -83 101q0 32 8 73zM954 82h35q23 0 34 9t15 34l37 190q10 45 -26 45h-39z M1024 442h39q37 0 47 43l33 179q2 9 2 16q0 29 -33 29h-35zM1176 846l153 790h78l-154 -790h-77zM1231 0l63 336l-16 450h80l2 -243l-4 -105l33 105l94 243h82l-193 -450l-63 -336h-78zM1350 1020l86 442q35 174 153 174q86 0 86 -101q0 -31 -8 -73l-14 -73h-76l25 120 q6 45 -29 45q-43 0 -49 -45l-105 -538q-1 -7 -1 -13q0 -30 34 -30q37 0 45 43l29 147h76l-21 -98q-33 -174 -145 -174q-93 0 -93 107q0 29 7 67z" />
<glyph unicode="d" horiz-adv-x="2289" d="M0 0l152 786h116q93 0 93 -104q0 -29 -7 -66l-86 -442q-33 -174 -151 -174h-117zM92 82h39q41 0 49 43l107 541q1 6 1 11q0 34 -34 34h-39zM254 1022l86 442q35 174 152 174q88 0 88 -101q0 -32 -9 -73l-14 -73h-78l25 122q2 9 2 17q0 29 -31 29q-39 0 -49 -46l-104 -540 q-1 -7 -1 -13q0 -30 33 -30q37 0 45 43l29 147h78l-21 -98q-33 -174 -147 -174q-91 0 -91 106q0 30 7 68zM301 0l152 786h198l-14 -75h-123l-53 -269h69l-14 -82h-70l-55 -278h123l-14 -82h-199zM545 1022l86 442q35 174 153 174q90 0 90 -103q0 -31 -8 -71l-86 -442 q-33 -174 -149 -174q-93 0 -93 107q0 29 7 67zM584 174l18 98h78l-29 -147q-8 -43 25 -43t41 43l18 90q3 15 3 30q0 61 -44 136q-38 78 -38 145q0 19 3 37l11 53q33 170 143 170q87 0 87 -102q0 -30 -7 -68l-14 -73h-80l24 123q4 23 -1 34t-23 11q-35 0 -41 -45l-23 -111 q-1 -6 -1 -12q0 -44 46 -133q43 -82 43 -140q0 -13 -2 -26l-14 -70q-33 -174 -145 -174q-86 0 -86 103q0 31 8 71zM614 973q-1 -7 -1 -13q0 -30 34 -30q37 0 45 43l105 540q2 9 2 17q0 29 -31 29q-39 0 -49 -46zM836 0l151 786h82l-151 -786h-82zM842 1022l20 98h82 l-29 -147q-8 -43 23 -43q33 0 41 43l16 90q3 15 3 31q0 61 -42 135q-42 73 -42 141q0 21 4 41l10 53q35 174 147 174q88 0 88 -102q0 -31 -8 -72l-14 -73h-82l24 122q10 45 -24 46q-29 0 -39 -46l-21 -110q-2 -8 -2 -17q0 -49 45 -129q43 -78 43 -139q0 -14 -2 -26l-14 -70 q-33 -174 -147 -174q-87 0 -87 104q0 31 7 70zM1010 174l86 442q33 170 155 170q95 0 95 -105q0 -29 -7 -65l-14 -73h-76l25 123q1 6 1 10q0 35 -38 35q-43 0 -49 -45l-107 -541q-1 -7 -1 -13q0 -30 34 -30q45 0 53 43l33 160h-45l14 75h117l-69 -360l-27 53 q-35 -53 -90 -53q-97 0 -97 108q0 29 7 66zM1149 848l137 711h-80l17 79h239l-16 -79h-82l-137 -711h-78zM1278 0l152 786h92l-4 -446l-9 -121l111 567h70l-152 -786h-94l4 463l8 104l-108 -567h-70zM1372 1022l121 616h78l-129 -665q-1 -7 -1 -13q0 -30 34 -30q41 0 49 43 l129 665h76l-121 -616q-33 -174 -150 -174q-93 0 -93 107q0 29 7 67zM1602 0l151 786h199l-15 -75h-120l-54 -269h70l-14 -82h-70l-55 -278h121l-15 -82h-198zM1640 848l154 790h113l-29 -426l-16 -141l41 141l135 426h116l-153 -790h-68l119 616l-29 -94l-172 -522h-65 l35 530l8 86l-119 -616h-70zM1853 0l152 786h119q108 0 108 -106q0 -25 -6 -55l-18 -90q-20 -106 -90 -154l-17 -381h-78l19 360h-41l-70 -360h-78zM2015 442h45q47 0 60 54l30 161q1 7 1 14q0 39 -42 40h-41zM2066 848l154 790h199l-17 -79h-121l-51 -269h68l-14 -78h-68 l-55 -282h120l-16 -82h-199z" />
<glyph unicode="e" horiz-adv-x="1591" d="M164 846l153 790h199l-16 -82h-117l-51 -266h67l-16 -78h-68l-53 -282h117l-17 -82h-198zM416 846l153 790h117q62 0 80 -44q10 -24 9 -59q0 -31 -7 -71l-86 -442q-16 -88 -52 -131t-98 -43h-116zM508 928h41q41 0 49 45l104 538q1 7 1 13q0 30 -33 30h-41zM715 846 l153 790h78l-153 -790h-78zM899 0l152 786h116q94 0 94 -102q0 -30 -8 -68l-16 -81q-18 -104 -82 -134q29 -16 35 -49q2 -12 2 -27q0 -25 -6 -57l-19 -94q-33 -174 -151 -174h-117zM905 846l137 708h-77l16 82h236l-17 -82h-78l-137 -708h-80zM991 82h39q23 0 34 9t15 34 l37 190q2 9 2 16q0 29 -33 29h-38zM1061 442h39q41 0 51 43l33 179q2 9 2 16q0 29 -33 29h-39zM1100 846l153 790h199l-16 -82h-123l-51 -266h69l-16 -78h-70l-53 -282h123l-17 -82h-198zM1272 0l63 336l-16 450h80l2 -243l-8 -105l37 105l90 243h82l-189 -450l-63 -336h-78 zM1346 846l153 790h123q90 0 90 -103q0 -31 -8 -71l-86 -442q-33 -174 -150 -174h-122zM1444 928h41q37 0 45 45l104 538q1 8 1 14q0 29 -29 29h-41z" />
<glyph unicode="f" horiz-adv-x="2877" d="M164 848l153 792h123q102 0 102 -114q0 -30 -7 -68l-7 -33q-37 -184 -166 -184h-45l-75 -393h-78zM334 1323h45q53 0 61 53l25 129q2 10 2 18q0 35 -43 36h-45zM467 848l154 792h122q104 0 104 -104q0 -27 -7 -61l-17 -91q-20 -106 -92 -153l-12 -383h-82l20 366h-41 l-71 -366h-78zM631 1290h45q51 0 61 53l31 162q6 29 -6 41.5t-35 12.5h-45zM649 0l152 788h117q94 0 94 -102q0 -30 -8 -68l-86 -444q-33 -174 -152 -174h-117zM739 82h41q39 0 51 45l105 541q1 6 1 11q0 32 -34 32h-41zM801 1022l88 444q31 174 149 174q92 0 92 -109 q0 -29 -6 -65l-88 -444q-33 -174 -151 -174q-91 0 -91 106q0 30 7 68zM870 973q-1 -7 -1 -13q0 -30 32 -30q41 0 49 43l105 540q4 23 -5.5 34.5t-27.5 11.5q-37 0 -47 -46zM950 0l152 788h198l-14 -77h-123l-53 -269h70l-15 -80h-69l-56 -280h123l-14 -82h-199zM1069 848 l154 792h116q92 0 92 -109q0 -29 -6 -65l-88 -444q-33 -174 -151 -174h-117zM1161 930h41q37 0 45 43l105 540q2 9 2 17q0 28 -31 29h-41zM1235 174l18 98h76l-26 -145q-12 -45 22 -45q35 0 47 45l17 88q4 16 4 33q0 62 -45 135q-41 74 -41 142q0 20 4 40l10 53 q35 170 141 170q90 0 90 -101q0 -30 -8 -69l-14 -73h-78l25 123q6 43 -29 43t-41 -43l-23 -111q-1 -6 -1 -13q0 -47 47 -134q45 -79 45 -140q0 -13 -2 -26l-15 -70q-33 -174 -147 -174q-84 0 -84 103q0 31 8 71zM1399 1022l121 618h79l-129 -667q-1 -7 -1 -13q0 -30 34 -30 q37 0 45 43l129 667h82l-121 -618q-33 -174 -151 -174q-95 0 -95 107q0 30 7 67zM1491 0l151 788h76l-151 -788h-76zM1665 174l86 444q16 86 53 128t99 42q96 0 96 -103q0 -29 -8 -67l-15 -73h-75l24 123q1 5 1 10q0 33 -38 33q-43 0 -49 -43l-104 -541q-3 -10 -3 -18 q0 -27 33 -27q43 0 56 45l30 158h-45l15 77h121l-70 -362l-31 53q-18 -29 -38.5 -41t-51.5 -12q-93 0 -93 107q0 29 7 67zM1700 1022l88 444q31 174 149 174q92 0 92 -109q0 -29 -6 -65l-14 -73h-78l23 120q2 8 2 15q0 30 -35 31q-35 0 -45 -46l-104 -540q-8 -43 28 -43 q41 0 49 43l29 147h78l-21 -98q-33 -174 -151 -174q-91 0 -91 106q0 30 7 68zM1929 0l152 788h92l-6 -446l-8 -123l110 569h70l-152 -788h-94l8 463l6 106l-110 -569h-68zM2011 848l137 711h-80l17 81h233l-16 -81h-76l-137 -711h-78zM2202 848l153 792h76l-154 -792h-75z M2253 0l151 788h199l-14 -77h-121l-53 -269h67l-14 -80h-68l-55 -280h121l-15 -82h-198zM2376 1022l88 444q31 174 151 174q91 0 91 -108q0 -29 -7 -66l-88 -444q-33 -174 -149 -174q-93 0 -93 107q0 29 7 67zM2445 973q-1 -7 -1 -13q0 -30 34 -30q41 0 49 43l105 540 q4 23 -5.5 34.5t-27.5 11.5q-39 0 -49 -46zM2505 0l151 788h121q106 0 106 -105q0 -25 -6 -56l-18 -90q-20 -109 -90 -154l-12 -383h-82l16 362h-39l-69 -362h-78zM2644 848l154 792h94l-8 -450l-7 -123l111 573h70l-154 -792h-94l10 463l4 106l-110 -569h-70zM2666 442h44 q53 0 65 54l31 163q1 7 1 13q0 38 -44 39h-43z" />
<glyph unicode="g" horiz-adv-x="3323" d="M-4 0l154 791h120q100 0 100 -111q0 -31 -8 -72l-6 -33q-35 -182 -163 -182h-41l-76 -393h-80zM166 473h41q55 0 63 53l27 129q1 7 1 13q0 40 -44 41h-41zM299 0l154 791h75l-69 -349h82l69 349h78l-153 -791h-78l69 365h-82l-69 -365h-76zM584 846l153 790h119 q90 0 90 -103q0 -31 -8 -71l-86 -442q-31 -174 -150 -174h-118zM631 174l86 442q35 174 153 175q90 0 90 -104q0 -31 -8 -71l-86 -442q-33 -174 -149 -174q-93 0 -93 107q0 29 7 67zM678 928h41q39 0 47 45l104 538q4 25 -5 34t-25 9h-41zM698 125q-1 -9 -1 -15q0 -13 5 -19 q7 -9 29 -9q16 0 29.5 9t17.5 34l105 539q2 9 2 16q0 29 -31 29q-41 0 -51 -45zM885 846l153 790h76l-153 -790h-76zM946 0l137 709h-75l16 82h233l-16 -82h-80l-137 -709h-78zM1026 846l154 790h116q107 0 107 -110q0 -25 -6 -56l-17 -90q-23 -104 -90 -153l-18 -381h-76 l16 364h-41l-69 -364h-76zM1169 174l86 442q35 174 154 175q90 0 90 -104q0 -31 -8 -71l-86 -442q-33 -174 -150 -174q-93 0 -93 107q0 29 7 67zM1188 1288h45q49 0 59 53l31 162q2 9 2 17q0 34 -45 34h-41zM1241 125q-1 -9 -1 -16q0 -12 4 -18q7 -9 26 -9q20 0 31.5 9 t15.5 34l104 539q2 9 2 17q0 28 -30 28q-37 0 -47 -45zM1325 846l154 790h198l-16 -82h-121l-51 -266h67l-16 -78h-67l-54 -282h121l-16 -82h-199zM1470 174l86 442q35 174 152 175q94 0 94 -105q0 -31 -8 -70l-14 -73h-72l23 121q2 8 2 14q0 31 -41 31q-37 0 -47 -45 l-105 -539q-4 -25 3 -34t26 -9q25 0 37 9t16 34l31 158h-45l16 82h121l-70 -365l-26 53q-37 -53 -95 -53q-91 0 -91 106q0 30 7 68zM1610 1020l86 442q35 174 151 174q86 0 86 -101q0 -32 -8 -73l-14 -73h-76l25 122q4 25 -3.5 34t-25.5 9q-23 0 -34 -9t-15 -34l-105 -538 q-1 -7 -1 -13q0 -32 34 -32q37 0 45 45l29 145h76l-21 -98q-31 -174 -145 -174q-91 0 -91 108q0 29 7 66zM1733 0l153 791h121q68 0 91 -42q14 -24 14 -62q0 -28 -7 -62l-18 -90q-10 -55 -32.5 -92t-57.5 -62l-12 -381h-82l20 365h-39l-69 -365h-82zM1898 442h39q53 0 64 52 l33 161q1 7 1 13q0 40 -44 41h-39zM1917 846l137 708h-82l17 82h239l-16 -82h-82l-137 -708h-76zM1999 0l260 791h80l-47 -791h-82l6 117h-96l-39 -117h-82zM2140 1020l86 442q35 174 152 174q92 0 92 -104q0 -30 -8 -70l-86 -442q-31 -174 -152 -174q-91 0 -91 108 q0 29 7 66zM2144 203h80l17 223l14 137l-39 -137zM2212 973q-1 -8 -1 -15q0 -30 30 -30q41 0 49 45l104 538q4 25 -3 34t-30 9q-18 0 -29.5 -9t-15.5 -34zM2320 0l154 791h121q104 0 104 -112q0 -31 -8 -71l-6 -33q-35 -182 -164 -182h-45l-76 -393h-80zM2406 846l154 790 h121q104 0 104 -108q0 -26 -6 -58l-16 -90q-23 -104 -92 -153l-13 -381h-82l21 364h-43l-70 -364h-78zM2490 473h45q51 0 60 53l26 129q1 7 1 13q0 40 -44 41h-41zM2570 1288h43q53 0 64 53l30 162q6 29 -6 40t-37 11h-43zM2623 0l154 791h82l-70 -349h76l70 349h78 l-154 -791h-78l70 365h-76l-70 -365h-82zM2861 1020l86 442q35 174 152 174q92 0 92 -104q0 -30 -8 -70l-86 -442q-31 -174 -152 -174q-91 0 -91 108q0 29 7 66zM2929 973q-1 -7 -1 -14q0 -31 33 -31q41 0 50 45l104 538q4 25 -5 34t-28 9q-18 0 -31.5 -9t-17.5 -34zM2996 0 l64 336l-15 455h80v-244l-8 -109l37 109l92 244h86l-194 -455l-64 -336h-78zM3127 846l154 790h199l-17 -82h-121l-51 -266h68l-17 -78h-67l-70 -364h-78z" />
<glyph unicode="h" horiz-adv-x="2455" d="M0 0l154 791h120q103 0 103 -113q0 -31 -8 -70l-7 -33q-35 -182 -165 -182h-39l-76 -393h-82zM174 475h39q53 0 61 51l27 131q1 7 1 13q0 40 -44 41h-39zM305 0l154 791h121q68 0 90 -42q13 -24 13 -62q0 -27 -7 -62l-19 -90q-20 -104 -88 -154l-14 -381h-80l21 365h-45 l-70 -365h-76zM465 442h45q51 0 65 54l31 161q1 7 1 13q0 40 -44 41h-45zM637 174l86 442q35 174 154 175q89 0 90 -102q0 -31 -9 -73l-86 -442q-33 -174 -149 -174q-93 0 -93 107q0 29 7 67zM709 125q-1 -8 -1 -14q0 -29 29 -29q39 0 47 43l107 541q1 6 1 12q0 33 -32 33 q-39 0 -45 -45zM905 0l154 791h117q92 0 92 -104q0 -31 -8 -71l-86 -442q-33 -174 -152 -174h-117zM995 82h41q41 0 49 43l107 541q1 6 1 11q0 34 -34 34h-41zM1237 174l121 617h78l-131 -666q-1 -7 -1 -13q0 -30 33 -30q39 0 47 43l132 666h77l-120 -617 q-33 -174 -150 -174q-93 0 -93 107q0 29 7 67zM1538 174l86 442q35 174 152 175q88 0 88 -102q0 -32 -9 -73l-14 -73h-78l25 123q6 45 -29 45q-43 0 -49 -45l-106 -541q-1 -7 -1 -13q0 -30 33 -30q37 0 45 43l29 147h78l-19 -98q-33 -174 -147 -174q-91 0 -91 106q0 30 7 68 zM1548 848l154 790h82l-137 -708h120l-16 -82h-203zM1792 848l154 790h82l-154 -790h-82zM1796 0l154 791h198l-16 -80h-121l-53 -269h70l-15 -77h-69l-56 -283h121l-14 -82h-199zM1933 848l154 790h94l-8 -450l-6 -117l110 567h74l-153 -790h-97l8 467l9 104l-111 -571h-74 zM2044 0l154 791h122q107 0 106 -110q0 -25 -5 -56l-19 -90q-20 -106 -90 -154l-16 -381h-78l18 365h-41l-69 -365h-82zM2210 442h45q45 0 59 54l31 161q1 7 1 14q0 39 -42 40h-41zM2259 848l154 790h202l-16 -79h-123l-51 -269h69l-14 -78h-70l-55 -282h123l-16 -82h-203z " />
<glyph unicode="i" horiz-adv-x="3227" d="M195 1024l86 442q31 174 155 174q87 0 87 -106q0 -30 -7 -68l-14 -73h-78l22 123q8 43 -26 43q-41 0 -49 -43l-105 -541q-1 -7 -2 -13q0 -32 35 -32t43 45l29 145h78l-19 -96q-35 -176 -147 -176q-96 0 -96 107q0 30 8 69zM487 1024l86 442q31 174 150 174q96 0 96 -110 q0 -28 -6 -64l-86 -442q-35 -176 -158 -176q-90 0 -90 104q0 31 8 72zM559 975q-1 -8 -1 -15q0 -30 28 -30q41 0 49 45l104 541q1 7 1 13q0 30 -33 30q-35 0 -43 -43zM811 1223l10 61h133l-10 -61h-133zM915 848l154 792h121q107 0 107 -115q0 -30 -7 -67l-6 -33 q-18 -92 -59 -135t-107 -43h-43l-78 -399h-82zM1090 1323h43q51 0 59 53l27 131q1 7 1 13q0 39 -46 39h-39zM1221 848l153 792h121q105 0 105 -103q0 -27 -7 -62l-16 -91q-23 -104 -92 -153l-12 -383h-82l22 366h-41l-72 -366h-79zM1386 1290h41q53 0 64 53l33 164q1 7 1 13 q0 39 -46 39h-41zM1554 1024l86 442q31 174 152 174q91 0 90 -108q0 -29 -6 -66l-86 -442q-35 -176 -152 -176q-92 0 -92 105q0 31 8 71zM1626 975q-1 -8 -1 -15q0 -30 30 -30q41 0 49 45l104 541q1 7 1 13q0 30 -33 30q-37 0 -45 -43zM1821 848l153 792h119q91 0 91 -108 q0 -29 -7 -66l-86 -442q-35 -176 -152 -176h-118zM1919 930h37q39 0 47 45l104 541q8 43 -30 43h-37zM2157 1024l118 616h76l-129 -665q-1 -7 -1 -13q0 -32 34 -32q41 0 49 45l129 665h78l-119 -616q-35 -176 -154 -176q-89 0 -89 103q0 32 8 73zM2456 1024l86 442 q31 174 151 174q59 0 77 -44q10 -24 10 -59q0 -31 -7 -71l-14 -73h-72l23 123q1 7 1 13q0 30 -34 30q-41 0 -49 -43l-105 -541q-1 -7 -1 -13q0 -32 34 -32q41 0 49 45l29 145h71l-18 -96q-35 -176 -147 -176q-92 0 -92 105q0 31 8 71zM2513 0l153 793h119q61 1 80 -45 q10 -24 10 -60q0 -32 -8 -72l-16 -79q-18 -104 -76 -136q31 -17 31 -74q0 -25 -6 -59l-19 -94q-16 -88 -52 -131t-97 -43h-119zM2609 82h37q41 0 49 43l39 192q4 25 -3 34t-30 14h-37zM2679 442h37q41 0 51 45l35 179q1 6 1 11q0 34 -34 34h-37zM2714 848l153 792h199 l-17 -81h-120l-52 -269h70l-14 -76h-70l-55 -284h121l-17 -82h-198zM2888 0l65 338l-18 455h82l2 -244l-10 -111l38 111l91 244h86l-195 -455l-66 -338h-75zM2966 848l153 792h119q91 0 91 -108q0 -29 -7 -66l-86 -442q-35 -176 -152 -176h-118zM3060 930h41q35 0 43 45 l104 541q2 8 2 15q0 28 -28 28h-41z" />
<glyph unicode="j" horiz-adv-x="2473" d="M162 848l153 792h121q108 0 108 -116q0 -29 -7 -66l-7 -33q-18 -92 -59 -135t-106 -43h-43l-78 -399h-82zM336 1323h43q51 0 59 53l27 131q1 7 1 13q0 38 -46 39h-39zM467 848l154 792h120q106 0 106 -105q0 -26 -7 -60l-17 -91q-23 -104 -92 -153l-12 -383h-82l22 366 h-41l-71 -366h-80zM633 1290h41q53 0 63 53l33 164q1 7 1 13q0 38 -46 39h-41zM801 1024l86 442q31 174 151 174q91 0 91 -108q0 -29 -7 -66l-86 -442q-35 -176 -151 -176q-92 0 -92 105q0 31 8 71zM872 975q-1 -8 -1 -15q0 -30 30 -30q41 0 49 45l105 541q1 7 1 13 q0 30 -34 30q-37 0 -45 -43zM1067 848l154 792h118q91 0 91 -108q0 -29 -7 -66l-86 -442q-35 -176 -151 -176h-119zM1165 930h37q39 0 47 45l105 541q8 43 -31 43h-37zM1403 1024l119 616h75l-129 -665q-1 -7 -1 -13q0 -32 34 -32q41 0 49 45l129 665h78l-119 -616 q-35 -176 -153 -176q-90 0 -90 104q0 31 8 72zM1702 1024l86 442q31 174 151 174q59 0 78 -44q10 -23 10 -58q0 -31 -8 -72l-14 -73h-72l23 123q1 7 1 13q0 30 -34 30q-41 0 -49 -43l-105 -541q-1 -7 -1 -13q0 -32 34 -32q41 0 49 45l29 145h72l-19 -96q-35 -176 -147 -176 q-92 0 -92 105q0 31 8 71zM1759 0l154 793h119q61 0 80 -45q9 -25 9 -61q0 -31 -7 -71l-17 -79q-18 -104 -76 -136q31 -17 31 -74q0 -26 -6 -59l-18 -94q-16 -88 -52.5 -131t-97.5 -43h-119zM1855 82h37q41 0 50 43l38 192q4 25 -3 34t-29 14h-37zM1925 442h37q41 0 51 45 l35 179q1 6 1 11q0 34 -34 34h-37zM1960 848l154 792h198l-16 -81h-121l-51 -269h69l-14 -76h-70l-55 -284h121l-16 -82h-199zM2134 0l66 338l-19 455h82l2 -244l-10 -111l39 111l90 244h86l-195 -455l-65 -338h-76zM2212 848l153 792h119q91 0 91 -108q0 -29 -7 -66 l-86 -442q-35 -176 -151 -176h-119zM2306 930h41q35 0 43 45l104 541q2 8 2 15q0 28 -28 28h-41z" />
<glyph unicode="k" horiz-adv-x="2211" d="M164 852l153 788h117q95 0 95 -107q0 -29 -7 -67l-86 -442q-35 -172 -155 -172h-117zM258 930h39q39 0 49 45l105 541q1 8 1 14q0 31 -32 31h-39zM465 852l153 788h78l-153 -788h-78zM604 852l154 788h123q105 0 105 -105q0 -27 -7 -60l-16 -89q-20 -106 -91 -153 l-16 -381h-80l23 362h-43l-72 -362h-80zM770 1294h45q53 0 62 54l32 161q1 7 1 13q0 38 -44 39h-43zM905 852l154 788h201l-15 -79h-121l-53 -267h70l-15 -80h-69l-56 -284h121l-16 -78h-201zM1192 1024l86 442q33 174 152 174q89 0 88 -104q0 -31 -7 -70l-14 -69h-76 l23 119q1 8 1 15q0 30 -30 30q-41 0 -49 -45l-104 -541q-2 -9 -2 -16q0 -29 32 -29q37 0 47 45l29 147h76l-19 -98q-35 -172 -149 -172q-92 0 -92 103q0 30 8 69zM1493 4l154 789h118q89 0 89 -106q0 -30 -7 -69l-14 -79q-23 -109 -82 -133q35 -22 35 -80q0 -24 -6 -54 l-19 -96q-33 -172 -149 -172h-119zM1499 852l139 709h-79l14 79h237l-14 -79h-78l-139 -709h-80zM1585 82h41q39 0 49 45l37 195q2 8 2 15q0 27 -33 30h-41zM1657 444h41q37 0 47 45l35 179q1 8 1 14q0 31 -32 31h-41zM1692 852l153 788h199l-14 -79h-121l-54 -267h70 l-14 -80h-70l-55 -284h121l-17 -78h-198zM1866 4l65 336l-16 453h80v-246l-8 -105l34 105l97 246h82l-193 -453l-65 -336h-76zM1942 852l153 788h119q93 0 93 -107q0 -30 -7 -67l-86 -442q-35 -172 -154 -172h-118zM2038 930h39q37 0 47 45l104 541q1 8 1 15q0 30 -29 30 h-39z" />
<glyph unicode="l" horiz-adv-x="2963" d="M197 1024l86 442q33 174 151 174q89 0 89 -105q0 -30 -7 -69l-14 -69h-76l23 119q1 8 1 15q0 30 -30 30q-43 0 -51 -45l-105 -541q-2 -8 -2 -15q0 -30 35 -30q37 0 47 45l29 147h76l-19 -98q-35 -172 -149 -172q-92 0 -92 103q0 30 8 69zM487 1024l86 442q33 174 150 174 q93 0 93 -107q0 -30 -7 -67l-86 -442q-35 -172 -154 -172q-90 0 -90 102q0 30 8 70zM557 975q-2 -9 -2 -16q0 -29 31 -29q39 0 49 45l104 541q1 8 1 14q0 31 -31 31q-39 0 -47 -45zM809 1223l10 61h133l-10 -61h-133zM915 852l154 788h117q95 0 95 -107q0 -29 -7 -67 l-86 -442q-35 -172 -156 -172h-117zM1010 930h39q39 0 49 45l104 541q1 8 1 14q0 31 -32 31h-38zM1217 852l153 788h78l-154 -788h-77zM1356 852l153 788h123q105 0 105 -107q0 -26 -6 -58l-17 -89q-20 -106 -90 -153l-16 -381h-80l22 362h-43l-71 -362h-80zM1522 1294h45 q53 0 61 54l33 161q1 7 1 13q0 38 -44 39h-43zM1657 852l153 788h201l-14 -79h-121l-53 -267h69l-14 -80h-70l-55 -284h121l-16 -78h-201zM1944 1024l86 442q33 174 151 174q89 0 89 -105q0 -30 -7 -69l-14 -69h-76l22 119q8 45 -28 45q-41 0 -49 -45l-105 -541 q-2 -9 -2 -16q0 -29 33 -29q37 0 47 45l29 147h75l-18 -98q-35 -172 -149 -172q-92 0 -92 103q0 30 8 69zM2245 4l153 789h119q89 0 89 -106q0 -30 -7 -69l-14 -79q-23 -109 -82 -133q34 -22 34 -79q0 -24 -6 -55l-18 -96q-33 -172 -150 -172h-118zM2251 852l139 709h-80 l14 79h238l-14 -79h-78l-139 -709h-80zM2337 82h41q39 0 49 45l37 195q2 8 2 15q0 27 -33 30h-41zM2408 444h41q37 0 48 45l34 179q1 8 1 14q0 31 -31 31h-41zM2443 852l154 788h199l-15 -79h-121l-53 -267h70l-15 -80h-69l-56 -284h121l-16 -78h-199zM2617 4l66 336 l-17 453h80v-246l-8 -105l35 105l96 246h82l-192 -453l-66 -336h-76zM2693 852l154 788h119q93 0 93 -107q0 -30 -7 -67l-86 -442q-35 -172 -154 -172h-119zM2789 930h39q37 0 47 45l105 541q1 8 1 15q0 30 -30 30h-39z" />
<glyph unicode="m" horiz-adv-x="1529" d="M197 1022l20 98h82l-29 -149q-10 -43 25 -43q31 0 41 43l16 90q4 17 4 35q0 62 -43 135q-43 70 -43 140q0 22 4 44l9 49q37 172 149 172q52 0 74 -42q12 -23 12 -59q0 -31 -8 -71l-14 -75h-80l24 124q10 43 -24 43q-31 0 -41 -43l-21 -110q-2 -8 -1 -18q0 -49 42 -130 q45 -79 46 -138q0 -13 -3 -25l-14 -70q-16 -86 -54 -130t-91 -44q-89 0 -89 107q0 30 7 67zM506 848l137 708h-80l17 80h235l-16 -80h-80l-137 -708h-76zM729 1022l86 442q37 172 152 172q95 0 94 -102q0 -31 -8 -70l-86 -442q-31 -174 -154 -174q-91 0 -91 108q0 29 7 66z M799 971q-2 -9 -3 -17q0 -28 31 -28q41 0 52 45l104 542q1 7 1 13q0 30 -34 30q-39 0 -47 -43zM831 0l152 788h119q60 0 82 -44q13 -26 13 -66q0 -28 -7 -64l-16 -79q-23 -109 -87 -136q40 -20 39 -84q0 -22 -4 -49l-18 -96q-33 -170 -154 -170h-119zM924 78h41q37 0 47 43 l37 194q2 10 2 18q0 29 -29 29h-43zM993 440h43q37 0 47 45l33 179q2 9 2 16q0 29 -31 29h-40zM995 848l154 788h123q105 0 104 -106q0 -27 -6 -60l-16 -86q-20 -106 -92 -157l-15 -379h-80l19 362h-43l-70 -362h-78zM1159 1288h45q51 0 62 53l30 162q2 10 2 18q0 35 -43 35 h-45zM1202 0l64 336l-13 452h82l-4 -245l-4 -107l35 107l94 245h82l-192 -452l-64 -336h-80zM1366 848l66 338l-13 450h82l-4 -243l-4 -105l35 105l94 243h82l-193 -450l-65 -338h-80z" />
<glyph unicode="n" horiz-adv-x="3241" d="M160 850l153 792h119q92 0 92 -104q0 -31 -8 -70l-16 -79q-23 -109 -82 -136q36 -20 36 -82q0 -23 -5 -51l-19 -96q-35 -174 -151 -174h-119zM256 930h39q35 0 45 45l37 194q10 45 -27 45h-39zM326 1292h39q37 0 47 47l34 179q6 45 -28 45h-39zM428 850l258 792h80 l-49 -792h-80l6 119h-100l-37 -119h-78zM573 1055h78l17 223l14 139l-39 -139zM782 1024l19 98h80l-29 -147q-10 -45 27 -45q31 0 41 45l18 92q2 14 2 29q0 64 -43 137q-27 47 -38 92q-6 24 -6 48q0 22 5 44l10 51q35 174 148 174q86 0 86 -101q0 -31 -8 -73l-15 -73h-78 l25 123q6 45 -25 45q-37 0 -43 -45l-22 -109q-2 -8 -2 -17q0 -50 47 -130q43 -74 42 -134q0 -17 -3 -34l-12 -70q-35 -174 -146 -174q-88 0 -88 102q0 31 8 72zM971 0l153 791h97l-11 -451l-8 -119l113 570h71l-153 -791h-94l6 465l8 104l-111 -569h-71zM1038 850l154 792 h199l-15 -79h-121l-53 -271h70l-15 -78h-69l-55 -284h120l-16 -80h-199zM1288 850l154 792h119q94 0 94 -105q0 -30 -8 -69l-86 -444q-35 -174 -154 -174h-119zM1329 174l86 442q33 174 154 175q91 0 91 -106q0 -30 -7 -69l-86 -442q-33 -174 -152 -174q-93 0 -93 107 q0 29 7 67zM1384 930h39q39 0 50 45l106 543q1 6 1 11q0 34 -34 34h-39zM1399 125q-1 -6 -1 -12q0 -33 32 -33q41 0 47 45l106 543q2 9 2 16q0 29 -33 29q-37 0 -47 -45zM1669 0l49 791h80l-31 -426l-14 -142l39 139l137 429h80l-258 -791h-82zM1745 1024l86 444 q35 174 151 174q94 0 94 -105q0 -30 -8 -69l-86 -444q-35 -174 -153 -174q-92 0 -92 104q0 30 8 70zM1815 975q-2 -9 -2 -16q0 -29 32 -29q37 0 47 45l107 543q1 6 1 12q0 33 -32 33q-41 0 -47 -45zM1886 0l154 791h201l-17 -78h-121l-53 -271h68l-15 -80h-67l-56 -282h121 l-14 -80h-201zM2011 850l154 792h94l-8 -452l-6 -119l110 571h72l-154 -792h-94l6 467l8 104l-110 -571h-72zM2138 0l154 791h80l-140 -711h121l-14 -80h-201zM2503 0l153 791h119q91 0 91 -106q0 -30 -7 -69l-14 -77q-20 -106 -84 -136q37 -20 37 -77q0 -25 -7 -56l-18 -96 q-33 -174 -152 -174h-118zM2509 850l139 713h-80l15 79h237l-14 -79h-78l-139 -713h-80zM2595 80h41q41 0 47 45l39 194q8 43 -31 43h-41zM2664 442h41q39 0 50 47l34 179q2 9 2 16q0 29 -32 29h-41zM2701 850l154 792h80l-68 -350h78l68 350h77l-153 -792h-78l72 364h-78 l-72 -364h-80zM2873 0l66 338l-14 453h81l-4 -244l-4 -107l35 107l96 244h82l-192 -453l-66 -338h-80zM3000 850l154 792h203l-15 -79h-123l-53 -271h70l-14 -78h-70l-55 -284h122l-16 -80h-203z" />
<glyph unicode="o" horiz-adv-x="2924" d="M188 1024l19 98h78l-29 -145q-2 -11 -2 -19q0 -30 27 -30q33 0 43 49l18 90q2 14 2 29q0 64 -43 137q-41 71 -41 139q0 22 4 45l10 49q35 176 144 176q88 0 88 -103q0 -31 -8 -73l-15 -71h-77l22 121q10 47 -25 47q-33 0 -43 -47l-20 -107q-2 -8 -1 -17q0 -50 46 -132 q43 -73 42 -132q0 -17 -3 -34l-12 -70q-35 -174 -148 -174q-84 0 -84 101q0 31 8 73zM475 1024l86 442q35 176 152 176q90 0 90 -104q0 -31 -8 -72l-15 -71h-75l22 121q2 10 2 17q0 30 -31 30q-39 0 -49 -47l-104 -539q-2 -10 -2 -18q0 -31 32 -31q37 0 48 49l28 145h76 l-18 -98q-35 -174 -150 -174q-92 0 -92 104q0 30 8 70zM733 850l154 792h123q105 0 106 -105q0 -28 -8 -62l-16 -86q-20 -109 -91 -156l-18 -383h-78l21 364h-41l-72 -364h-80zM899 1294h43q51 0 62 54l32 161q2 9 2 16q0 37 -43 38h-43zM1036 850l154 792h201l-15 -79h-123 l-53 -271h70l-15 -78h-69l-56 -286h123l-16 -78h-201zM1286 850l154 792h200l-14 -79h-121l-53 -271h68l-15 -78h-67l-56 -286h121l-16 -78h-201zM1540 850l154 792h92l-6 -452l-6 -119l110 571h72l-154 -792h-96l8 465l6 106l-110 -571h-70zM1864 850l153 792h121 q104 0 104 -111q0 -31 -8 -71l-6 -30q-35 -184 -166 -185h-41l-77 -395h-80zM2036 1325h41q55 0 63 53l27 131q2 8 2 16q0 38 -45 38h-41zM2169 850l153 792h80l-137 -714h121l-16 -78h-201zM2193 0l154 791h117q91 0 91 -105q0 -30 -7 -68l-15 -79q-23 -109 -84 -136 q37 -21 37 -81q0 -24 -6 -54l-18 -92q-35 -176 -152 -176h-117zM2284 80h40q41 0 48 45l38 194q8 43 -30 43h-41zM2353 442h41q39 0 49 45l35 179q1 8 1 15q0 32 -32 32h-41zM2378 850l260 792h80l-52 -792h-77l8 117h-103l-36 -117h-80zM2525 1057h78l16 221l15 139 l-39 -139zM2566 0l66 340l-19 451h82v-244l-6 -107l35 107l94 244h82l-188 -451l-66 -340h-80zM2730 850l66 338l-19 454h82l2 -245l-6 -105l35 105l92 245h82l-189 -454l-65 -338h-80z" />
<glyph unicode="p" horiz-adv-x="2459" d="M2 0l152 786h120q100 0 100 -112q0 -30 -7 -68l-7 -33q-18 -92 -57 -136t-104 -44h-45l-76 -393h-76zM168 473h45q23 0 40 12.5t21 38.5l27 129q2 9 2 17q0 40 -43 41h-45zM190 846l154 790h201l-17 -80h-120l-52 -268h68l-16 -78h-68l-55 -284h121l-15 -80h-201zM303 0 l152 786h120q105 0 105 -107q0 -26 -6 -58l-17 -89q-20 -106 -88 -151l-14 -381h-80l19 360h-41l-70 -360h-80zM410 846l190 426l-16 364h80l2 -176l2 -69l26 69l70 176h82l-162 -364l27 -426h-80l-8 225v80l-37 -80l-90 -225h-86zM467 440h45q49 0 57 54l33 159q2 9 2 17 q0 40 -43 41h-41zM637 172l86 442q33 172 149 172q93 0 93 -105q0 -30 -7 -67l-86 -442q-33 -172 -151 -172q-91 0 -91 105q0 29 7 67zM707 125q-2 -10 -2 -18q0 -31 30 -31q37 0 47 49l105 537q1 9 1 16q0 33 -30 33q-39 0 -47 -49zM743 846l154 790h201l-17 -80h-125 l-51 -268h72l-16 -78h-72l-55 -284h124l-14 -80h-201zM905 0l152 786h114q61 0 81 -43q11 -23 11 -59q0 -30 -8 -70l-86 -442q-16 -88 -52 -130t-97 -42h-115zM995 76h39q39 0 49 49l105 537q1 8 1 15q0 34 -32 34h-39zM1024 1018l86 446q16 84 56 128t100 44q57 0 76 -44 q9 -23 9 -57q0 -31 -8 -71l-14 -73h-72l25 120q4 23 -5 34t-28 11q-23 0 -33 -11t-14 -34l-104 -540q-2 -9 -2 -17q0 -28 30 -28q41 0 52 45l28 147h72l-21 -100q-16 -84 -52 -128t-93 -44q-59 0 -82 44q-13 26 -13 65q0 28 7 63zM1233 172l119 614h82l-129 -661 q-2 -10 -2 -18q0 -31 32 -31q35 0 45 49l129 661h80l-119 -614q-33 -172 -149 -172q-95 0 -95 106q0 29 7 66zM1317 1018l121 618h80l-129 -665q-2 -9 -2 -16q0 -29 32 -29q37 0 47 45l129 665h80l-121 -618q-16 -84 -54 -128t-95 -44q-59 0 -82 44q-13 25 -13 64q0 28 7 64 zM1534 172l86 442q33 172 149 172q91 0 91 -105q0 -29 -7 -67l-14 -73h-76l23 121q1 8 1 15q0 34 -32 34q-41 0 -49 -49l-104 -537q-2 -10 -2 -18q0 -31 32 -31q39 0 49 49l29 143h76l-19 -96q-33 -172 -149 -172q-91 0 -91 105q0 29 7 67zM1634 846l138 710h-78l16 80h238 l-17 -80h-80l-137 -710h-80zM1794 0l152 786h196l-14 -75h-121l-53 -271h69l-14 -80h-70l-55 -284h121l-14 -76h-197zM1827 846l153 790h80l-153 -790h-80zM2042 846l49 790h78l-33 -426l-14 -139l39 139l139 426h76l-256 -790h-78zM2044 0l151 786h119q107 0 107 -107 q0 -26 -6 -58l-17 -89q-20 -106 -88 -151l-14 -381h-80l16 360h-39l-69 -360h-80zM2208 440h43q51 0 59 54l33 159q2 9 2 17q0 40 -45 41h-39zM2255 846l153 790h201l-16 -80h-121l-51 -268h69l-16 -78h-70l-55 -284h121l-14 -80h-201z" />
<glyph unicode="q" horiz-adv-x="3180" d="M201 1022l86 442q35 172 149 172q90 0 90 -102q0 -30 -8 -70l-12 -71h-76l23 120q2 8 2 15q0 28 -35 28q-33 0 -43 -43l-105 -540q-10 -43 27 -43q39 0 49 43l29 149h76l-21 -100q-31 -172 -149 -172q-89 0 -89 106q0 29 7 66zM492 1022l86 442q35 172 151 172 q88 0 88 -101q0 -31 -8 -71l-86 -442q-31 -172 -148 -172q-90 0 -90 105q0 30 7 67zM559 973q-2 -8 -2 -15q0 -28 35 -28q37 0 47 43l104 540q2 9 2 15q0 28 -32 28q-39 0 -49 -43zM727 8l154 783h118q103 0 103 -111q0 -31 -8 -70l-4 -30q-37 -180 -168 -181h-39l-76 -391 h-80zM811 1221l12 61h131l-12 -61h-131zM899 479h43q49 0 57 51l25 129q2 9 2 17q0 38 -43 39h-39zM918 850l153 786h201l-17 -80h-120l-52 -268h68l-14 -76h-68l-55 -282h121l-17 -80h-200zM1030 8l154 783h119q105 0 105 -105q0 -26 -7 -59l-17 -88q-20 -106 -94 -152 l-14 -379h-78l21 359h-43l-70 -359h-76zM1137 850l190 424l-16 362h80l2 -176l-2 -67l28 67l68 176h84l-164 -362l31 -424h-84l-6 223l-5 80l-34 -80l-92 -223h-80zM1192 446h43q29 0 42 12.5t19 41.5l31 159q2 9 2 17q0 38 -43 39h-43zM1364 180l84 438q33 172 149 173 q89 0 89 -104q0 -30 -7 -69l-84 -438q-33 -172 -151 -172q-59 0 -78 42q-9 23 -9 58q0 31 7 72zM1430 131q-2 -10 -2 -18q0 -29 30 -29q41 0 51 47l105 535q1 8 1 15q0 34 -34 34q-39 0 -47 -49zM1464 850l154 786h201l-17 -80h-121l-51 -268h68l-15 -76h-67l-55 -282h120 l-16 -80h-201zM1624 8l154 783h118q89 0 89 -104q0 -30 -7 -69l-84 -438q-33 -172 -151 -172h-119zM1718 84h39q37 0 47 47l105 535q1 9 1 16q0 33 -30 33h-39zM1749 1022l86 442q35 172 150 172q89 0 89 -101q0 -31 -8 -71l-12 -71h-76l23 120q2 8 2 15q0 28 -35 28 q-33 0 -43 -43l-104 -540q-10 -43 26 -43q39 0 49 43l29 149h76l-21 -100q-31 -172 -149 -172q-89 0 -89 106q0 29 7 66zM1958 180l119 611h75l-129 -660q-2 -9 -2 -17q0 -30 33 -30q39 0 49 47l129 660h80l-119 -611q-33 -172 -153 -172q-89 0 -89 104q0 30 7 68z M2040 1022l121 614h75l-129 -663q-4 -20 5.5 -31.5t27.5 -11.5q37 0 47 43l129 663h76l-121 -614q-31 -172 -147 -172q-91 0 -91 107q0 28 7 65zM2253 180l84 438q33 172 155 173q84 0 84 -102q0 -31 -8 -71l-14 -71h-72l25 119q1 8 1 15q0 34 -32 34q-41 0 -49 -49 l-105 -535q-2 -9 -2 -17q0 -30 33 -30q39 0 49 47l29 145h72l-19 -96q-33 -172 -145 -172q-93 0 -93 105q0 30 7 67zM2355 850l137 706h-79l16 80h235l-16 -80h-80l-137 -706h-76zM2511 8l153 783h199l-16 -76h-121l-51 -269h69l-16 -79h-70l-55 -283h121l-14 -76h-199z M2546 850l153 786h76l-154 -786h-75zM2757 850l51 786h80l-31 -424l-16 -139l41 139l133 424h80l-259 -786h-79zM2761 8l153 783h121q105 0 105 -105q0 -26 -7 -59l-16 -88q-10 -53 -34.5 -91t-59.5 -61l-14 -379h-80l22 359h-45l-70 -359h-75zM2922 446h46q49 0 61 54 l31 159q2 9 2 17q0 38 -43 39h-45zM2974 850l153 786h199l-16 -80h-119l-51 -268h67l-14 -76h-68l-55 -282h119l-17 -80h-198z" />
<glyph unicode="r" horiz-adv-x="2287" d="M-2 0l152 786h120q89 0 89 -104q0 -30 -7 -68l-86 -442q-33 -172 -147 -172h-121zM92 76h41q39 0 49 49l105 537q1 8 1 15q0 34 -32 34h-41zM299 0l152 786h81l-151 -786h-82zM440 0l152 786h125q102 0 102 -105q0 -26 -6 -58l-18 -88q-10 -53 -33 -93.5t-55 -58.5 l-15 -383h-80l19 360h-41l-70 -360h-80zM604 440h45q51 0 62 54l32 159q2 9 2 17q0 40 -43 41h-45zM741 0l152 786h199l-15 -75h-119l-53 -271h68l-15 -80h-67l-55 -284h118l-14 -76h-199zM944 1018l86 446q35 172 156 172q96 0 96 -104q0 -30 -8 -68l-12 -71h-78l22 120 q2 8 2 14q0 31 -39 32q-37 0 -47 -46l-104 -542q-2 -9 -2 -16q0 -29 31 -29q45 0 55 45l31 162h-46l17 79h123l-72 -366l-33 57q-29 -57 -90 -57q-60 0 -82 44q-13 26 -13 65q0 28 7 63zM1026 172l86 442q33 172 150 172q91 0 91 -105q0 -30 -7 -67l-15 -71h-76l23 119 q1 8 1 15q0 34 -32 34q-16 0 -30.5 -12.5t-18.5 -36.5l-104 -537q-4 -25 5 -37t25 -12q39 0 50 49l28 143h76l-18 -96q-33 -172 -150 -172q-91 0 -91 105q0 29 7 67zM1241 1018l121 618h80l-129 -665q-2 -8 -1 -15q0 -30 34.5 -30t44.5 45l129 665h79l-120 -618 q-16 -84 -53 -128t-95 -44q-59 0 -83 44q-14 26 -13 67q0 27 6 61zM1335 0l138 711h-80l14 75h235l-14 -75h-76l-137 -711h-80zM1511 846l154 790h199l-17 -77h-123l-51 -271h72l-14 -76h-72l-57 -286h122l-14 -80h-199zM1559 172l86 442q16 88 55 130t94 42q97 0 97 -107 q0 -29 -7 -65l-86 -442q-33 -172 -156 -172q-56 0 -78 42q-13 24 -12 63q0 29 7 67zM1630 125q-2 -10 -2 -19q0 -30 29 -30q41 0 51 49l104 537q1 8 1 15q0 34 -33 34q-37 0 -45 -49zM1792 1018l20 102h80l-28 -149q-10 -45 22 -45q37 0 47 45l19 94q2 13 2 26q0 65 -49 138 q-40 69 -40 137q0 23 5 47l8 51q35 172 147 172q84 0 84 -99q0 -31 -8 -73l-12 -71h-74l23 120q2 9 2 17q0 29 -31 29t-41 -46l-20 -108q-2 -8 -2 -17q0 -49 45 -131q41 -79 41 -140q0 -14 -2 -27l-15 -72q-16 -84 -51 -128t-92 -44q-56 0 -76 44q-12 25 -11 62q0 29 7 66z M1829 0l151 786h121q103 0 103 -107q0 -25 -6 -56l-19 -88q-10 -53 -32.5 -93.5t-55.5 -58.5l-14 -383h-80l22 360h-45l-69 -360h-76zM1989 440h45q51 0 61 54l33 159q2 9 2 17q0 40 -43 41h-45zM2101 846l137 713h-79l16 77h235l-16 -77h-80l-137 -713h-76z" />
<glyph unicode="s" horiz-adv-x="2682" d="M-4 0l151 786h201l-14 -75h-121l-53 -271h67l-14 -80h-68l-55 -284h121l-14 -76h-201zM248 0l151 786h201l-14 -75h-121l-53 -271h69l-14 -80h-70l-69 -360h-80zM494 0l151 786h201l-15 -75h-120l-54 -271h68l-14 -80h-68l-70 -360h-79zM741 0l152 786h201l-15 -75h-125 l-53 -271h74l-14 -80h-74l-56 -284h125l-14 -76h-201zM909 1018l21 100h82l-29 -147q-10 -45 21 -45q33 0 43 45l16 92q4 16 4 33q0 59 -43 131q-42 76 -42 147q0 19 3 37l10 53q35 172 148 172q86 0 86 -100q0 -31 -8 -72l-15 -73h-80l25 120q10 45 -25 45q-29 0 -39 -45 l-20 -108q-4 -23 5 -61.5t38 -86.5q41 -76 42 -136q0 -14 -3 -27l-14 -74q-16 -84 -53.5 -128t-92.5 -44q-57 0 -77 44q-11 24 -10 60q0 30 7 68zM1024 172l86 442q33 172 152 172q87 0 87 -102q0 -31 -8 -70l-14 -73h-72l23 121q1 8 1 15q0 34 -32 34q-41 0 -49 -49 l-104 -537q-2 -10 -2 -18q0 -31 32 -31q39 0 50 49l28 143h72l-19 -96q-33 -172 -145 -172q-93 0 -93 105q0 30 7 67zM1165 846l154 790h121q101 0 101 -113q0 -29 -7 -67l-6 -33q-37 -180 -166 -180h-43l-76 -397h-78zM1335 0l138 711h-80l14 75h235l-14 -75h-80l-137 -711 h-76zM1335 1319h43q53 0 64 53l24 131q6 29 -6 41t-37 12h-43zM1466 846l154 790h201l-17 -80h-121l-51 -268h70l-16 -78h-70l-55 -284h120l-14 -80h-201zM1556 172l19 96h80l-29 -143q-8 -45 25 -45q35 0 43 45l18 88q3 16 3 32q0 63 -42 136q-31 45 -40 92q-5 25 -5 49 q0 22 4 43l10 49q33 172 146 172q87 0 88 -103q0 -30 -8 -69l-15 -73h-77l22 121q2 10 2 18q0 31 -26 31q-35 0 -43 -49l-21 -105q-2 -8 -2 -18q0 -50 45 -129q44 -78 44 -140q0 -16 -3 -30l-12 -68q-33 -172 -146 -172q-87 0 -87 103q0 30 7 69zM1753 1018l86 446 q35 172 150 172q90 0 90 -102q0 -30 -8 -70l-15 -73h-76l25 120q2 8 2 15q0 30 -35 30q-37 0 -47 -45l-104 -540q-2 -9 -2 -17q0 -28 30 -28q41 0 52 45l28 147h76l-20 -100q-16 -84 -53.5 -128t-96.5 -44q-57 0 -77 44q-12 25 -12 62q0 29 7 66zM1933 0l152 786h121 q89 0 89 -104q0 -30 -7 -68l-17 -82q-18 -100 -80 -131q34 -21 34 -81q0 -23 -5 -52l-18 -96q-33 -172 -148 -172h-121zM2009 846l154 790h80l-154 -790h-80zM2028 76h40q37 0 48 49l38 192q6 43 -30 43h-41zM2097 440h41q39 0 49 45l33 177q1 9 1 16q0 33 -30 33h-41z M2122 846l256 790h82l-50 -790h-81l8 121h-101l-34 -121h-80zM2263 1051h82l14 221l15 139l-39 -139zM2306 0l64 336l-17 450h80l2 -241l-6 -109l33 109l96 241h80l-193 -450l-63 -336h-76zM2441 846l154 790h76l-140 -710h125l-14 -80h-201z" />
<glyph unicode="t" horiz-adv-x="2652" d="M0 -4l152 788h200l-14 -75h-121l-53 -271h69l-14 -80h-69l-58 -286h121l-14 -76h-199zM252 -4l154 788h200l-14 -75h-125l-53 -271h71l-14 -80h-72l-71 -362h-76zM498 -4l153 788h201l-14 -75h-121l-53 -271h67l-14 -80h-68l-71 -362h-80zM745 -4l154 788h199l-15 -75 h-120l-54 -271h68l-14 -80h-68l-57 -286h120l-14 -76h-199zM1028 168l88 444q33 172 154 172q87 0 87 -103q0 -30 -7 -69l-15 -73h-75l22 120q1 9 1 17q0 33 -28 33q-41 0 -49 -50l-104 -538q-2 -10 -2 -18q0 -31 30 -31q37 0 48 49l28 145h76l-20 -98q-31 -172 -146 -172 q-94 0 -94 108q0 28 6 64zM1214 846l50 792h79l-30 -428l-17 -139l39 139l138 428h79l-258 -792h-80zM1337 -4l140 713h-76l14 75h238l-15 -75h-82l-139 -713h-80zM1432 846l153 792h76l-154 -792h-75zM1565 168l20 98h80l-29 -145q-8 -45 25 -45q31 0 39 45l16 88 q4 18 4 36q0 23 -6 45q-10 40 -37 89q-29 45 -37 92q-4 21 -4 41q0 26 6 51l11 49q33 172 145 172q87 0 87 -103q0 -30 -7 -69l-14 -73h-82l22 120q8 49 -20 50q-35 0 -43 -50l-21 -104q-1 -7 -2 -15q0 -50 45 -134q45 -75 45 -135q0 -17 -4 -33l-14 -70q-31 -172 -145 -172 q-59 0 -78 43q-10 23 -10 57q0 31 8 72zM1606 1018l20 100h80l-31 -149q-6 -43 25 -43q33 0 39 43l18 94q4 17 4 35q0 61 -43 129q-40 70 -40 139q0 23 5 47l9 51q35 174 147 174q86 0 86 -101q0 -31 -8 -73l-12 -71h-82l22 120q10 43 -22 43q-31 0 -41 -43l-21 -108 q-2 -8 -2 -18q0 -50 45 -132q43 -82 44 -140q0 -13 -3 -25l-14 -72q-35 -172 -145 -172q-88 0 -88 101q0 31 8 71zM1894 1018l121 620h76l-131 -669q-1 -6 -1 -11q0 -32 34 -32q43 0 49 43l131 669h80l-121 -620q-35 -172 -154 -172q-92 0 -92 103q0 30 8 69zM1942 -4 l153 788h117q95 0 95 -106q0 -29 -7 -66l-16 -82q-23 -102 -84 -133q37 -21 37 -81q0 -22 -5 -50l-20 -98q-31 -172 -154 -172h-116zM2036 72h37q41 0 51 49l37 192q10 45 -27 45h-41zM2107 438h41q39 0 45 45l35 176q1 9 1 16q0 34 -31 34h-37zM2132 846l258 792h80 l-49 -792h-80l6 119h-100l-35 -119h-80zM2275 1051h76l19 221l12 141l-35 -141zM2316 -4l66 338l-17 450h80v-241l-8 -109l37 109l96 241h80l-192 -450l-66 -338h-76zM2449 846l154 792h80l-139 -712h120l-14 -80h-201z" />
<glyph unicode="u" horiz-adv-x="2605" d="M0 0l154 791h200l-16 -80h-121l-53 -271h67l-14 -75h-67l-56 -285h121l-14 -80h-201zM252 0l154 791h200l-16 -80h-121l-53 -271h69l-14 -75h-70l-69 -365h-80zM453 1022l18 92l2 4h76l-29 -143q-2 -10 -2 -17q0 -32 33 -32q41 0 51 49l37 192q1 7 1 13q0 30 -34 30h-24 l16 82h29q18 0 29.5 9.5t15.5 33.5l35 176q1 7 1 13q0 32 -34 32q-41 0 -49 -45l-23 -118h-76l13 71q37 172 151 172q91 0 90 -100q0 -31 -8 -72l-14 -80q-23 -109 -76 -133q29 -21 29 -77q0 -26 -6 -60l-19 -92q-31 -172 -149 -172q-91 0 -91 107q0 28 7 65zM498 0l153 791 h201l-16 -80h-121l-53 -271h67l-14 -75h-68l-69 -365h-80zM717 850l153 786h121q91 0 91 -100q0 -31 -9 -72l-86 -442q-31 -172 -149 -172h-121zM745 0l154 791h197l-17 -80h-121l-53 -271h74l-14 -75h-74l-55 -285h120l-14 -80h-197zM811 926h41q35 0 45 49l104 536 q8 45 -26 45h-41zM1028 172l86 442q35 176 154 177q58 -1 76 -45q10 -24 9 -59q0 -30 -7 -69l-15 -73h-76l25 121q6 45 -29 45q-41 0 -47 -45l-106 -541q-6 -45 30 -45q39 0 46 45l28 147h76l-18 -100q-35 -172 -146 -172q-94 0 -94 103q0 30 8 69zM1210 850l50 786h79 l-30 -426l-15 -139l37 139l137 426h80l-258 -786h-80zM1335 0l138 711h-76l16 80h236l-17 -80h-80l-137 -711h-80zM1427 850l154 786h80l-154 -786h-80zM1561 172l18 100h80l-29 -147q-6 -45 25 -45q37 0 43 45l18 92q3 14 3 29q0 60 -46 135q-41 72 -41 142q0 21 4 42 l11 49q35 176 147 177q86 0 86 -103q0 -32 -8 -74l-14 -69h-78l24 121q6 45 -26 45q-35 0 -41 -45l-23 -109q-2 -8 -2 -18q0 -50 45 -129q45 -80 45 -141q0 -13 -2 -25l-14 -72q-35 -172 -146 -172q-52 0 -74 43q-12 24 -13 61q0 30 8 68zM1599 1022l21 96h80l-29 -143 q-2 -11 -3 -20q0 -29 26 -29q37 0 47 49l16 88q3 15 3 32q0 61 -46 136q-43 70 -43 139q0 20 4 41l11 53q37 172 147 172q87 0 87 -98q0 -32 -9 -74l-13 -71h-75l22 118q8 45 -28 45q-33 0 -41 -45l-21 -108q-2 -8 -2 -16q0 -47 47 -127q42 -81 42 -139q0 -15 -3 -29 l-14 -70q-31 -172 -146 -172q-87 0 -87 105q0 29 7 67zM1888 1022l121 614h80l-129 -661q-2 -10 -3 -19q0 -30 30 -30q41 0 51 49l129 661h80l-121 -614q-31 -172 -154 -172q-91 0 -91 107q0 28 7 65zM1937 0l154 791h119q90 0 90 -105q0 -31 -8 -72l-17 -77 q-18 -102 -80 -136q35 -19 35 -78q0 -24 -6 -55l-18 -96q-35 -172 -150 -172h-119zM2032 80h39q39 0 45 45l38 192q6 41 -28 48h-39zM2101 440h39q37 0 47 45l35 181q6 45 -29 45h-39zM2124 850l258 786h82l-51 -786h-80l6 117h-98l-35 -117h-82zM2267 1051h78l18 221 l15 139l-37 -135zM2310 0l66 338l-17 453h80v-246l-10 -105l37 105l98 246h80l-193 -453l-65 -338h-76zM2445 850l154 786h76l-140 -710h121l-14 -76h-197z" />
<glyph unicode="v" horiz-adv-x="2502" d="M164 854l256 784h80l-47 -784h-80l4 115h-101l-32 -115h-80zM258 4l154 789h116q92 0 92 -106q0 -31 -8 -71l-86 -440q-31 -172 -151 -172h-117zM305 1053h80l14 221l17 139l-39 -135zM352 84h37q39 0 49 45l105 541q2 8 2 15q0 28 -33 28h-37zM516 1026l19 96h79 l-28 -145q-10 -47 24 -47q31 0 41 47l19 88q2 13 2 28q0 61 -41 140q-43 68 -43 137q0 22 4 43l10 53q33 172 146 172q87 0 87 -102q0 -31 -8 -70l-14 -71h-80l23 118q8 45 -25 46q-33 0 -41 -46l-20 -106q-2 -8 -1 -17q0 -49 46 -128q42 -81 42 -139q0 -15 -3 -29l-13 -68 q-33 -172 -145 -172q-87 0 -87 103q0 30 7 69zM559 4l154 789h75l-153 -789h-76zM698 4l154 789h121q104 0 104 -109q0 -26 -6 -59l-16 -84q-23 -111 -90 -156l-19 -381h-76l19 365h-41l-70 -365h-80zM805 1026l18 96h76l-29 -145q-2 -10 -2 -17q0 -30 31 -30t41 47l18 88 q2 14 2 28q0 62 -42 140q-41 69 -41 136q0 22 4 44l10 53q33 172 145 172q84 0 84 -101q0 -31 -8 -71l-14 -71h-76l22 118q8 45 -24 46q-37 0 -45 -46l-21 -106q-2 -8 -1 -17q0 -49 46 -128q42 -81 42 -139q0 -15 -3 -29l-12 -68q-33 -172 -141 -172q-87 0 -87 103 q0 30 7 69zM864 444h41q51 0 62 58l30 160q2 9 2 17q0 34 -43 34h-41zM999 4l154 789h201l-17 -80h-125l-51 -269h72l-16 -75h-72l-55 -285h124l-14 -80h-201zM1057 854l151 784h80l-151 -784h-80zM1233 1026l18 96h78l-29 -145q-2 -10 -2 -18q0 -29 29 -29q31 0 41 47 l18 88q2 14 2 28q0 61 -40 140q-43 68 -43 137q0 22 4 43l10 53q33 172 145 172q84 0 84 -101q0 -31 -8 -71l-14 -71h-76l23 118q8 45 -25 46q-35 0 -43 -46l-21 -106q-2 -8 -1 -18q0 -50 44 -127q42 -81 42 -139q0 -15 -3 -29l-12 -68q-33 -172 -141 -172q-87 0 -87 103 q0 30 7 69zM1280 176l86 440q35 176 156 177q86 0 86 -99q0 -32 -9 -73l-12 -72h-74l23 121q4 20 -5 31.5t-26 11.5q-39 0 -49 -43l-104 -541q-2 -9 -2 -16q0 -29 32 -29q39 0 50 45l28 147h74l-21 -100q-31 -172 -145 -172q-94 0 -94 108q0 28 6 64zM1538 854l135 705h-80 l17 79h235l-16 -79h-76l-135 -705h-80zM1591 4l138 709h-80l16 80h238l-17 -80h-82l-137 -709h-76zM1661 854l256 784h80l-47 -784h-80l4 115h-100l-33 -115h-80zM1802 1053h76l20 221l17 139l-39 -135zM1812 176l86 440q35 176 156 177q90 0 90 -105q0 -31 -8 -72l-86 -440 q-31 -172 -149 -172q-95 0 -95 110q0 27 6 62zM1884 129q-2 -9 -2 -16q0 -29 33 -29q39 0 49 45l104 541q2 9 2 15q0 28 -32 28q-39 0 -49 -43zM1982 854l152 784h92l-8 -448l-6 -121l110 569h72l-151 -784h-97l8 461l5 102l-109 -563h-68zM2081 4l153 789h121 q105 0 104 -111q0 -26 -5 -57l-17 -84q-23 -109 -90 -156l-14 -381h-80l18 365h-41l-69 -365h-80zM2247 444h45q47 0 57 58l31 160q2 9 2 17q0 34 -43 34h-41zM2355 854l135 705h-80l17 79h235l-16 -79h-76l-135 -705h-80z" />
<glyph unicode="w" horiz-adv-x="2224" d="M-2 0l154 791h116q94 0 94 -106q0 -31 -8 -71l-86 -442q-35 -172 -153 -172h-117zM88 80h41q41 0 47 45l107 541q4 23 -2.5 34t-28.5 11h-41zM295 0l154 791h79l-153 -791h-80zM438 0l154 791h121q105 0 105 -107q0 -28 -7 -63l-16 -84q-18 -106 -90 -156l-17 -381h-80 l21 365h-43l-70 -365h-78zM600 440h43q53 0 66 58l30 159q1 7 1 13q0 40 -44 41h-43zM739 0l154 791h201l-17 -80h-125l-53 -271h74l-15 -75h-73l-56 -285h125l-14 -80h-201zM1022 172l86 442q35 176 154 177q86 0 86 -101q0 -32 -9 -74l-14 -71h-72l25 121q1 6 1 11 q0 34 -34 34q-41 0 -47 -45l-106 -541q-6 -45 30 -45q18 0 31.5 11t17.5 34l29 147h72l-19 -100q-16 -86 -51 -129t-94 -43q-94 0 -94 103q0 30 8 69zM1333 0l137 711h-79l16 80h235l-16 -80h-80l-137 -711h-76zM1425 850l258 786h80l-49 -786h-80l6 117h-100l-35 -117h-80z M1554 172l86 442q35 176 156 177q88 0 88 -104q0 -32 -8 -73l-86 -442q-35 -172 -148 -172q-96 0 -96 104q0 30 8 68zM1569 1051h76l18 221l14 139l-37 -135zM1624 125q-1 -6 -1 -11q0 -34 34 -34q16 0 29.5 11t17.5 34l106 541q6 45 -30 45q-43 0 -49 -45zM1745 850 l153 786h121q103 0 103 -109q0 -26 -6 -57l-17 -88q-20 -106 -92 -155l-12 -377h-80l20 360h-43l-69 -360h-78zM1823 0l153 791h121q103 0 103 -106q0 -28 -7 -64l-16 -84q-18 -104 -88 -156l-18 -381h-76l18 365h-41l-69 -365h-80zM1909 1290h43q55 0 63 53l31 160 q6 29 -6 41t-37 12h-43zM1987 440h41q51 0 63 58l31 159q1 7 1 14q0 39 -42 40h-41zM2095 850l137 706h-82l17 80h237l-16 -80h-76l-137 -706h-80z" />
<glyph unicode="x" horiz-adv-x="3168" d="M193 1022l86 442q37 172 151 172q87 0 87 -98q0 -32 -9 -74l-12 -71h-72l22 118q1 8 1 14q0 31 -33 31q-41 0 -49 -45l-105 -536q-2 -10 -2 -17q0 -32 33 -32q41 0 51 49l29 143h71l-20 -96q-31 -172 -146 -172q-90 0 -90 105q0 30 7 67zM434 0l154 791h119 q104 0 104 -111q0 -31 -8 -70l-6 -32q-35 -184 -168 -185h-39l-76 -393h-80zM481 1022l86 442q37 172 156 172q91 0 91 -100q0 -31 -9 -72l-86 -442q-31 -172 -150 -172q-94 0 -94 108q0 28 6 64zM553 975q-2 -10 -2 -17q0 -32 33 -32q37 0 47 49l104 536q8 45 -28 45 q-41 0 -50 -45zM604 473h39q55 0 64 53l26 131q1 7 1 13q0 40 -44 41h-39zM739 0l154 791h119q102 0 102 -109q0 -26 -6 -59l-18 -86q-18 -104 -89 -156l-14 -381h-80l21 365h-43l-70 -365h-76zM805 1219l12 65h133l-12 -65h-133zM899 440h43q53 0 66 58l30 159q1 7 1 13 q0 40 -44 41h-43zM913 850l154 786h197l-17 -80h-119l-51 -264h68l-17 -82h-67l-55 -284h118l-14 -76h-197zM1067 172l86 442q35 176 156 177q90 0 90 -105q0 -31 -8 -72l-86 -442q-35 -172 -150 -172q-96 0 -96 104q0 30 8 68zM1135 850l190 422l-20 364h79l2 -176l5 -67 l22 67l72 176h80l-160 -364l27 -422h-80l-11 221l2 80l-36 -80l-93 -221h-79zM1139 125q-1 -6 -1 -12q0 -33 31 -33q18 0 31.5 11t18.5 34l106 541q1 6 1 11q0 34 -34 34q-41 0 -47 -45zM1335 0l154 791h121q90 0 90 -105q0 -31 -8 -72l-86 -442q-35 -172 -150 -172h-121z M1432 80h38q39 0 46 45l106 541q6 45 -29 45h-39zM1464 850l154 786h201l-17 -80h-121l-51 -264h68l-17 -82h-67l-55 -284h120l-14 -76h-201zM1669 172l121 619h76l-131 -666q-1 -6 -1 -11q0 -34 33 -34q43 0 50 45l131 666h80l-121 -619q-35 -172 -154 -172q-92 0 -92 103 q0 30 8 69zM1749 1022l86 442q37 172 152 172q90 0 90 -99q0 -32 -9 -73l-12 -71h-76l23 118q1 7 1 13q0 32 -34 32q-41 0 -49 -45l-104 -536q-2 -10 -2 -18q0 -31 32 -31q41 0 51 49l29 143h76l-21 -96q-31 -172 -149 -172q-91 0 -91 107q0 28 7 65zM1966 172l86 442 q35 176 156 177q58 -1 76 -45q10 -24 10 -59q0 -30 -8 -69l-15 -73h-71l24 121q1 6 1 11q0 34 -34 34q-43 0 -49 -45l-106 -541q-1 -6 -1 -11q0 -34 33 -34q18 0 32 11t18 34l28 147h72l-18 -100q-35 -172 -146 -172q-96 0 -96 104q0 30 8 68zM2038 1022l121 614h79 l-129 -661q-2 -10 -2 -17q0 -32 33 -32q37 0 47 49l129 661h80l-121 -614q-31 -172 -149 -172q-94 0 -94 108q0 28 6 64zM2226 0l154 791h200l-16 -80h-121l-53 -271h70l-15 -75h-69l-56 -285h121l-14 -80h-201zM2355 850l137 706h-77l16 80h238l-17 -80h-80l-137 -706h-80z M2480 0l154 791h119q102 0 102 -109q0 -26 -6 -59l-19 -86q-18 -104 -88 -156l-14 -381h-80l21 365h-43l-70 -365h-76zM2548 850l153 786h80l-153 -786h-80zM2640 440h43q53 0 65 58l31 159q1 7 1 13q0 40 -44 41h-43zM2763 850l49 786h82l-33 -426l-14 -139l39 139l135 426 h80l-258 -786h-80zM2808 172l18 100h82l-29 -147q-6 -45 23 -45q39 0 45 45l19 92q4 16 4 33q0 59 -43 131q-46 79 -46 150q0 17 3 34l10 49q35 176 147 177q86 0 86 -103q0 -32 -8 -74l-14 -69h-76l25 121q6 45 -29 45q-33 0 -39 -45l-23 -109q-2 -9 -2 -18q0 -51 45 -129 q43 -82 44 -140q0 -13 -3 -26l-14 -72q-35 -172 -145 -172q-53 0 -75 43q-12 24 -12 62q0 30 7 67zM2980 850l153 786h197l-16 -80h-121l-51 -264h69l-16 -82h-70l-55 -284h121l-15 -76h-196z" />
<glyph unicode="y" horiz-adv-x="2994" d="M2 0l152 788h116q93 0 93 -105q0 -30 -7 -67l-86 -442q-33 -174 -151 -174h-117zM96 80h37q39 0 47 45l107 541q6 43 -31 43h-37zM301 0l152 788h200l-14 -79h-121l-53 -267h67l-14 -80h-67l-56 -282h121l-14 -80h-201zM580 1022l86 442q33 172 151 172q89 0 89 -99 q0 -32 -9 -73l-12 -71h-76l22 120q1 8 1 14q0 31 -31 32q-39 0 -47 -46l-105 -540q-2 -9 -2 -16q0 -29 33 -29q39 0 47 45l29 147h75l-20 -98q-31 -174 -147 -174q-91 0 -91 108q0 29 7 66zM586 174l18 96h80l-29 -145q-8 -45 23 -45q33 0 41 45l18 90q4 17 4 34 q0 61 -43 134q-40 70 -40 138q0 22 4 44l10 51q33 172 143 172q87 0 87 -103q0 -30 -7 -69l-14 -71h-80l24 121q6 43 -24 43q-33 0 -39 -43l-23 -109q-2 -9 -2 -18q0 -52 45 -129q43 -82 43 -140q0 -14 -2 -26l-14 -70q-33 -174 -145 -174q-86 0 -86 103q0 31 8 71zM838 848 l153 788h121q105 0 105 -104q0 -26 -7 -59l-16 -89q-23 -111 -92 -155l-15 -381h-77l18 362h-43l-70 -362h-77zM840 0l151 788h80l-151 -788h-80zM1001 1290h43q51 0 62 56l31 159q2 10 2 18q0 35 -43 36h-43zM1016 174l86 442q33 172 151 172q95 0 95 -106q0 -29 -7 -66 l-14 -71h-76l25 121q1 5 1 10q0 33 -38 33q-43 0 -49 -43l-107 -541q-1 -8 -1 -14q0 -31 32 -31q47 0 55 45l33 160h-47l14 77h121l-69 -362l-27 53q-35 -53 -94 -53q-91 0 -91 106q0 30 7 68zM1137 848l153 788h201l-16 -77h-121l-51 -269h69l-16 -80h-70l-53 -282h121 l-17 -80h-200zM1278 0l152 788h94l-4 -448l-9 -121l111 569h70l-152 -788h-94l6 463l8 106l-110 -569h-72zM1358 848l258 788h80l-49 -788h-80l8 119h-102l-35 -119h-80zM1501 1051h78l16 223l17 139l-41 -139zM1604 0l151 788h201l-14 -79h-121l-54 -267h68l-14 -80h-68 l-55 -282h121l-15 -80h-200zM1694 848l137 711h-78l16 77h236l-16 -77h-78l-137 -711h-80zM1855 0l152 788h117q93 0 93 -105q0 -30 -7 -67l-86 -442q-33 -174 -152 -174h-117zM1919 1022l121 614h78l-129 -663q-2 -9 -2 -16q0 -29 32 -29q39 0 49 45l130 663h79l-120 -614 q-31 -174 -154 -174q-91 0 -91 108q0 29 7 66zM1950 80h37q39 0 47 45l106 541q6 43 -31 43h-36zM2187 848l154 788h121q103 0 103 -103q0 -27 -7 -60l-16 -89q-20 -109 -93 -155l-12 -381h-80l19 362h-43l-70 -362h-76zM2275 0l152 788h119q91 0 91 -105q0 -29 -7 -67 l-17 -79q-18 -109 -80 -136q36 -19 36 -76q0 -25 -7 -57l-18 -94q-33 -174 -150 -174h-119zM2349 1290h45q51 0 62 56l30 159q2 10 2 18q0 35 -43 36h-45zM2370 80h38q41 0 50 45l39 192q6 43 -31 45h-41zM2439 442h41q41 0 49 45l35 179q1 6 1 11q0 32 -34 32h-39z M2486 848l154 788h201l-17 -77h-123l-51 -269h70l-17 -80h-69l-54 -282h123l-16 -80h-201zM2648 0l66 338l-19 450h80l2 -243l-6 -107l35 107l94 243h82l-191 -450l-65 -338h-78zM2771 1022l20 98h78l-28 -147q-10 -45 26 -45q31 0 41 45l17 90q3 15 3 31q0 61 -42 137 q-41 69 -41 137q0 23 4 45l8 51q33 172 147 172q86 0 86 -102q0 -31 -8 -70l-12 -71h-80l23 120q8 45 -25 46q-35 0 -43 -46l-20 -106q-2 -9 -2 -18q0 -52 45 -129q46 -82 46 -141q0 -14 -3 -27l-15 -70q-31 -174 -145 -174q-87 0 -87 106q0 30 7 68z" />
<glyph unicode="z" horiz-adv-x="4933" d="M199 1024l86 442q33 172 153 172q87 0 87 -103q0 -30 -7 -69l-14 -71h-76l23 121q8 45 -27 45q-43 0 -51 -45l-105 -541q-1 -7 -1 -13q0 -32 34 -32q37 0 45 45l29 145h76l-19 -96q-33 -174 -147 -174q-93 0 -93 107q0 29 7 67zM457 850l153 788h121q107 0 106 -106 q0 -26 -6 -59l-16 -87q-20 -106 -92 -155l-14 -381h-82l22 362h-41l-71 -362h-80zM623 1292h43q53 0 61 54l33 161q1 7 1 13q0 40 -44 41h-41zM758 850l153 788h201l-14 -77h-121l-53 -269h67l-14 -80h-68l-55 -282h121l-17 -80h-200zM930 0l258 791h80l-49 -791h-80l8 119 h-103l-34 -119h-80zM979 850l256 788h82l-49 -788h-80l6 117h-100l-37 -117h-78zM1073 203h78l16 221l15 141l-39 -139zM1120 1053h80l19 223l14 139l-39 -139zM1249 0l154 791h96l-8 -451l-8 -119l112 570h70l-154 -791h-94l6 463l9 106l-111 -569h-72zM1315 850l139 711 h-80l15 77h237l-14 -77h-78l-139 -711h-80zM1542 1024l119 614h78l-129 -663q-1 -8 -1 -14q0 -31 31 -31q39 0 48 45l129 663h79l-118 -614q-33 -174 -154 -174q-89 0 -89 105q0 30 7 69zM1575 0l154 791h118q92 0 92 -104q0 -31 -8 -71l-86 -442q-33 -174 -151 -174h-119z M1669 80h39q41 0 49 45l107 541q1 7 1 13q0 32 -34 32h-39zM1806 850l154 788h121q107 0 107 -106q0 -26 -7 -59l-16 -87q-20 -109 -92 -155l-15 -381h-80l21 362h-41l-72 -362h-80zM1972 1292h43q53 0 62 54l32 161q1 7 1 13q0 40 -44 41h-41zM2030 174l18 98h80l-29 -147 q-8 -45 25 -45t41 45l18 90q3 15 3 30q0 60 -42 138q-43 70 -43 141q0 21 4 41l11 51q35 174 147 175q86 0 86 -102q0 -32 -8 -73l-14 -71h-80l24 121q8 45 -24 45q-33 0 -41 -45l-21 -107q-2 -10 -3 -21q0 -51 46 -126q43 -82 43 -142q0 -14 -2 -26l-14 -70 q-33 -174 -146 -174q-87 0 -87 103q0 31 8 71zM2107 850l154 788h201l-15 -77h-120l-54 -269h68l-14 -80h-68l-55 -282h120l-16 -80h-201zM2318 174l121 617h78l-131 -666q-1 -7 -1 -13q0 -32 34 -32q39 0 47 45l131 666h78l-121 -617q-33 -174 -150 -174q-93 0 -93 107 q0 29 7 67zM2394 1024l19 96h77l-28 -145q-8 -45 24 -45q35 0 43 45l19 90q2 14 2 29q0 63 -41 139q-43 70 -43 139q0 22 4 43l10 51q33 172 143 172q89 0 89 -104q0 -30 -7 -68l-14 -71h-80l23 121q8 45 -25 45q-35 0 -43 -45l-20 -107q-2 -8 -1 -18q0 -52 46 -131 q44 -78 44 -137q0 -15 -3 -29l-13 -70q-33 -174 -149 -174q-84 0 -84 103q0 31 8 71zM2585 0l153 791h123q102 0 103 -111q0 -31 -9 -72l-6 -33q-33 -180 -166 -180h-43l-76 -395h-79zM2755 473h43q53 0 63 53l27 131q2 8 2 16q0 38 -45 38h-43zM2769 850l153 788h119 q91 0 91 -105q0 -30 -7 -67l-86 -442q-33 -174 -151 -174h-119zM2865 930h39q39 0 47 45l105 541q1 8 1 15q0 30 -30 30h-39zM2888 0l153 791h203l-16 -80h-123l-53 -269h69l-14 -80h-70l-55 -282h123l-15 -80h-202zM3068 850l154 788h200l-14 -77h-121l-53 -269h67l-14 -80 h-68l-55 -282h121l-16 -80h-201zM3142 0l153 791h121q104 0 104 -108q0 -26 -6 -58l-18 -88q-23 -111 -90 -156l-12 -381h-82l20 362h-43l-70 -362h-77zM3303 442h45q51 0 64 54l31 161q2 8 2 16q0 38 -45 38h-43zM3355 1024l18 96h80l-29 -145q-8 -45 25 -45q35 0 43 45 l18 90q2 13 2 27q0 62 -43 141q-43 70 -43 139q0 22 4 43l11 51q33 172 145 172q87 0 87 -103q0 -30 -7 -69l-14 -71h-78l22 121q8 45 -24 45q-35 0 -43 -45l-21 -107q-1 -7 -1 -16q0 -52 44 -133q44 -78 44 -137q0 -15 -3 -29l-12 -70q-33 -174 -148 -174q-85 0 -85 102 q0 31 8 72zM3514 0l50 791h79l-30 -426l-15 -142l37 139l139 429h78l-256 -791h-82zM3609 850l153 788h78l-154 -788h-77zM3731 0l154 791h80l-154 -791h-80zM3785 1024l86 442q33 172 153 172q95 0 95 -106q0 -29 -7 -66l-14 -71h-76l23 121q1 7 1 13q0 32 -36 32 q-43 0 -51 -45l-105 -541q-1 -8 -1 -14q0 -31 32 -31q45 0 53 45l31 160h-43l16 77h119l-71 -362l-29 53q-29 -53 -92 -53q-91 0 -91 106q0 30 7 68zM3908 174l18 98h76l-29 -147q-8 -45 27 -45q33 0 41 45l18 90q3 15 3 30q0 60 -42 138q-41 68 -41 139q0 21 4 43l11 51 q35 174 145 175q86 0 86 -102q0 -32 -8 -73l-15 -71h-79l24 121q8 45 -24 45q-35 0 -43 -45l-21 -107q-3 -11 -3 -22q0 -51 50 -125q41 -83 41 -142q0 -14 -2 -26l-14 -70q-33 -174 -146 -174q-85 0 -85 102q0 31 8 72zM4049 850l153 788h93l-6 -448l-7 -121l111 569h70 l-154 -788h-94l8 463l6 106l-110 -569h-70zM4194 174l86 442q35 174 152 175q92 0 92 -104q0 -31 -8 -71l-86 -442q-33 -174 -152 -174q-91 0 -91 106q0 30 7 68zM4264 125q-1 -8 -1 -15q0 -30 30 -30q41 0 49 45l106 541q1 7 1 13q0 32 -34 32q-37 0 -45 -45zM4375 850 l153 788h199l-15 -77h-120l-54 -269h70l-14 -80h-70l-55 -282h121l-17 -80h-198zM4461 0l153 791h121q106 0 106 -109q0 -26 -6 -57l-18 -88q-23 -111 -90 -156l-15 -381h-79l18 362h-41l-70 -362h-79zM4624 442h43q51 0 64 54l31 161q2 8 2 16q0 38 -45 38h-41zM4624 850 l154 788h121q107 0 106 -106q0 -26 -6 -59l-16 -87q-20 -109 -92 -155l-15 -381h-80l21 362h-41l-72 -362h-80zM4790 1292h43q53 0 62 54l32 161q1 7 1 13q0 40 -44 41h-40z" />
<glyph unicode="{" horiz-adv-x="2947" d="M2 0l154 791h120q131 0 95 -183l-6 -30q-33 -182 -164 -183h-45l-76 -395h-78zM172 475h45q49 0 62 53l24 129q8 53 -43 54h-43zM305 0l154 791h123q129 0 98 -166l-18 -88q-18 -106 -91 -156l-14 -381h-80l19 362h-41l-70 -362h-80zM469 442h43q53 0 66 54l30 161 q8 53 -43 54h-43zM494 850l258 790h79l-49 -790h-80l9 119h-101l-37 -119h-79zM637 1053h80l16 223l15 141l-39 -139zM641 172l86 444q33 174 154 175q115 0 82 -175l-86 -444q-35 -172 -150 -172q-121 0 -86 172zM711 123q-10 -45 30 -45q37 0 47 45l107 543q8 45 -31 45 t-47 -45zM815 850l154 790h94l-4 -448l-10 -121l110 569h72l-154 -790h-94l8 465l6 106l-110 -571h-72zM907 0l154 791h119q117 0 84 -175l-86 -444q-35 -172 -152 -172h-119zM1001 78h39q37 0 47 45l107 543q8 45 -31 45h-39zM1141 850l153 790h80l-153 -790h-80zM1241 172 l121 619h80l-131 -668q-10 -45 30 -45q37 0 48 45l131 668h77l-120 -619q-35 -172 -150 -172q-121 0 -86 172zM1284 850l154 790h114l-28 -423l-15 -142l39 139l133 426h119l-153 -790h-70l121 620l-29 -96l-172 -524h-65l34 532l9 86l-121 -618h-70zM1540 172l86 444 q33 174 156 175q113 0 80 -175l-15 -71h-75l24 121q8 45 -31 45q-41 0 -49 -45l-106 -543q-10 -45 32 -45q37 0 48 45l28 149h76l-18 -100q-35 -172 -148 -172q-123 0 -88 172zM1679 850l258 790h78l-47 -790h-82l8 119h-100l-37 -119h-78zM1823 1053h78l18 223l14 141 l-39 -139zM1851 0l138 711h-78l16 80h236l-17 -80h-78l-137 -711h-80zM2015 850l139 713h-77l14 77h236l-15 -77h-78l-139 -713h-80zM2044 0l154 791h79l-153 -791h-80zM2208 850l153 790h80l-153 -790h-80zM2220 172l86 444q33 174 154 175q115 0 82 -175l-86 -444 q-35 -172 -150 -172q-121 0 -86 172zM2288 123q-10 -45 32 -45q37 0 47 45l107 543q8 45 -31 45q-41 0 -49 -45zM2386 1024l86 442q33 174 151 174q117 0 84 -174l-86 -442q-35 -174 -151 -174q-119 0 -84 174zM2454 975q-8 -45 32 -45q39 0 47 45l107 543q6 45 -31 45 q-43 0 -49 -45zM2486 0l154 791h94l-6 -453l-8 -117l112 570h70l-154 -791h-94l8 465l7 104l-111 -569h-72zM2650 850l154 790h94l-4 -448l-8 -121l110 569h70l-154 -790h-94l8 465l6 106l-110 -571h-72z" />
<glyph unicode="|" horiz-adv-x="3631" d="M207 1024l18 98h78l-29 -149q-10 -43 25 -43q33 0 43 43l18 92q12 76 -41 168q-55 88 -36 184l10 49q33 174 143 174q115 0 82 -174l-14 -71h-80l22 121q8 45 -24 45q-35 0 -43 -45l-21 -109q-10 -51 45 -147q27 -47 38.5 -89.5t2.5 -76.5l-12 -70q-35 -174 -149 -174 q-111 0 -76 174zM496 1024l86 442q33 174 149 174q119 0 86 -174l-86 -442q-35 -174 -153 -174q-117 0 -82 174zM563 973q-10 -43 31 -43q39 0 49 43l107 545q6 43 -33 43q-41 0 -47 -43zM731 172l19 100h79l-28 -149q-10 -43 24 -43q31 0 41 43l19 92q12 76 -41 168 t-37 182l10 51q35 174 148 175q111 0 75 -175l-14 -73h-78l25 123q6 45 -25 45q-35 0 -41 -45l-22 -109q-8 -45 43 -147q53 -94 41 -166l-15 -72q-35 -172 -143 -172q-115 0 -80 172zM795 1024l118 616h80l-129 -667q-10 -43 31 -43q37 0 47 43l129 667h80l-119 -616 q-35 -174 -153 -174q-119 0 -84 174zM1020 172l121 619h78l-132 -668q-10 -45 33 -45q37 0 47 45l131 668h80l-121 -619q-35 -172 -151 -172q-121 0 -86 172zM1061 850l153 790h95l-9 -450l-6 -119l111 569h72l-154 -790h-94l8 465l6 104l-110 -569h-72zM1288 0l154 791h121 q131 0 94 -183l-6 -30q-33 -182 -166 -183h-45l-76 -395h-76zM1386 850l154 790h117q121 0 88 -174l-86 -442q-35 -174 -156 -174h-117zM1456 475h45q49 0 62 53l24 129q10 53 -41 54h-45zM1481 930h39q39 0 49 43l106 545q6 43 -33 43h-38zM1591 0l154 791h201l-17 -80 h-123l-53 -269h70l-15 -80h-69l-56 -284h123l-14 -78h-201zM1808 850l154 790h201l-15 -79h-123l-53 -269h72l-14 -78h-72l-55 -284h122l-16 -80h-201zM1843 0l154 791h121q129 0 98 -166l-18 -88q-18 -106 -89 -156l-16 -381h-80l19 362h-39l-70 -362h-80zM2007 442h41 q53 0 66 54l30 161q10 53 -43 54h-41zM2060 850l154 790h201l-15 -79h-123l-53 -269h70l-15 -78h-69l-72 -364h-78zM2216 0l51 791h78l-31 -429l-14 -139l37 139l137 429h82l-260 -791h-80zM2306 850l154 790h200l-14 -79h-121l-53 -269h70l-15 -78h-69l-72 -364h-80z M2433 0l154 791h79l-153 -791h-80zM2554 850l153 790h201l-14 -79h-121l-53 -269h67l-14 -78h-68l-55 -284h121l-16 -80h-201zM2607 172l19 100h79l-28 -149q-10 -43 24 -43q33 0 43 43l19 92q12 76 -41 168q-55 90 -39 182l10 51q35 174 148 175q115 0 79 -175l-14 -73h-80 l25 123q6 45 -27 45q-35 0 -41 -45l-22 -109q-8 -45 43 -147q57 -98 45 -166l-15 -72q-35 -172 -147 -172q-115 0 -80 172zM2841 1024l86 442q33 174 151 174q115 0 82 -172l-14 -73h-76l25 123q6 43 -31 43q-41 0 -47 -43l-107 -545q-10 -43 31 -43q37 0 47 43l29 149h75 l-18 -98q-35 -174 -149 -174q-119 0 -84 174zM2898 172l86 444q35 174 151 175q119 0 84 -175l-86 -444q-35 -172 -151 -172q-119 0 -84 172zM2966 123q-10 -45 30 -45q37 0 47 45l107 543q8 45 -31 45t-47 -45zM3148 850l139 711h-78l15 79h237l-14 -79h-80l-139 -711h-80z M3164 0l154 791h121q131 0 100 -166l-18 -88q-18 -106 -91 -156l-14 -381h-80l19 362h-41l-70 -362h-80zM3328 442h43q51 0 63 54l31 161q10 53 -43 54h-41zM3375 1024l19 98h79l-28 -149q-10 -43 24 -43q31 0 41 43l19 92q12 70 -39 168q-57 90 -39 184l10 49 q33 174 146 174t79 -174l-14 -71h-80l23 121q8 45 -23 45q-35 0 -43 -45l-20 -109q-10 -49 43 -147q57 -98 41 -166l-13 -70q-35 -174 -147 -174q-113 0 -78 174z" />
<glyph unicode="}" horiz-adv-x="5758" d="M33 172l86 440q33 174 149 174q115 0 82 -174l-14 -67h-76l23 119q10 45 -29 45q-41 0 -51 -45l-105 -541q-8 -45 33 -45q39 0 47 45l29 147h76l-19 -98q-35 -172 -147 -172q-119 0 -84 172zM291 0l151 786h80l-67 -344h75l68 344h80l-152 -786h-80l70 362h-76l-69 -362 h-80zM557 0l256 786h80l-47 -786h-80l6 119h-98l-35 -119h-82zM700 203h78l17 221l14 139l-37 -139zM879 0l151 786h121q129 0 98 -163l-18 -88q-20 -109 -88 -156l-17 -379h-77l20 362h-41l-70 -362h-79zM1042 442h43q51 0 64 54l31 159q10 53 -43 54h-41zM1147 0l256 786 h80l-47 -786h-80l8 119h-100l-37 -119h-80zM1290 203h78l18 221l15 139l-39 -139zM1499 172l86 440q33 174 152 174q113 0 80 -174l-15 -67h-76l23 119q10 45 -27 45t-47 -45l-104 -541q-8 -45 28 -45q37 0 46 45l28 147h76l-18 -98q-35 -172 -146 -172q-121 0 -86 172z M1806 0l138 709h-74l14 77h236l-15 -77h-82l-137 -709h-80zM2001 0l151 786h201l-14 -77h-125l-53 -267h71l-14 -80h-72l-55 -284h125l-14 -78h-201zM2251 0l151 786h121q133 0 103 -163l-19 -88q-20 -106 -92 -156l-12 -379h-82l20 362h-41l-69 -362h-80zM2415 442h43 q51 0 63 54l31 159q10 53 -43 54h-41zM2585 172l18 98h78l-29 -147q-8 -43 27 -43q33 0 41 43l18 92q12 74 -41 166q-53 98 -37 182l11 49q33 174 145 174q113 0 80 -174l-14 -69h-80l22 121q10 45 -22 45q-35 0 -45 -45l-21 -109q-10 -53 45 -147q57 -94 41 -166l-12 -70 q-35 -172 -146 -172q-115 0 -79 172zM2634 848l153 788h119q115 0 82 -176l-14 -78q-10 -53 -28.5 -85.5t-53.5 -49.5q51 -23 28 -133l-18 -94q-35 -172 -149 -172h-119zM2730 928h39q39 0 47 43l37 194q10 43 -25 47h-43zM2800 1288h43q33 0 43 45l34 178q8 43 -30 43h-39z M2902 848l258 788h82l-53 -788h-78l8 117h-100l-35 -117h-82zM2994 172l86 440q33 174 150 174q115 0 82 -174l-15 -67h-73l22 119q10 45 -33 45q-39 0 -49 -45l-104 -541q-8 -45 30 -45q43 0 52 45l28 147h74l-18 -98q-35 -172 -148 -172q-119 0 -84 172zM3045 1051h80 l15 221l14 139l-37 -139zM3252 0l152 786h121q129 0 98 -163l-19 -88q-10 -55 -31.5 -93.5t-58.5 -62.5l-12 -379h-80l19 362h-41l-70 -362h-78zM3256 1020l21 98h78l-29 -147q-8 -43 25 -43q35 0 43 43l16 92q8 37 -3 78t-38 88q-29 47 -37 93t0 89l10 49q33 176 146 176 q111 0 78 -176l-13 -67h-78l23 116q8 45 -27 45q-33 0 -41 -45l-20 -104q-10 -53 43 -148q53 -96 41 -167l-14 -70q-35 -172 -146 -172q-113 0 -78 172zM3414 442h43q53 0 66 54l30 159q10 53 -43 54h-43zM3510 848l154 788h201l-17 -82h-121l-51 -266h68l-15 -76h-67 l-55 -284h120l-16 -80h-201zM3551 0l152 786h198l-14 -77h-119l-53 -267h68l-15 -80h-67l-56 -284h119l-14 -78h-199zM3762 848l154 788h117q117 0 83 -176l-86 -440q-35 -172 -151 -172h-117zM3774 0l254 786h80l-47 -786h-82l11 119h-101l-39 -119h-76zM3854 928h41 q39 0 47 43l105 540q8 43 -31 43h-41zM3916 203h80l14 221l14 139l-39 -139zM4108 0l138 709h-80l14 77h233l-14 -77h-76l-137 -709h-78zM4217 1020l86 440q33 176 151 176q115 0 82 -176l-86 -440q-35 -172 -149 -172q-119 0 -84 172zM4284 971q-8 -43 33 -43q37 0 45 43 l105 540q8 43 -29 43q-41 0 -49 -43zM4301 0l151 786h197l-14 -77h-119l-53 -267h69l-14 -80h-72l-55 -284h121l-15 -78h-196zM4479 848l154 788h96l-8 -450l-7 -119l111 569h72l-154 -788h-94l6 461l6 106l-110 -567h-72zM4551 0l151 786h119q117 0 84 -174l-86 -440 q-35 -172 -150 -172h-118zM4643 78h41q37 0 45 45l104 541q10 45 -26 45h-41zM4973 0l151 786h115q121 0 88 -174l-17 -77q-20 -104 -81 -134q51 -33 30 -135l-18 -94q-35 -172 -154 -172h-114zM4977 848l137 706h-78l16 82h238l-16 -82h-82l-138 -706h-77zM5065 78h37 q39 0 47 45l37 192q4 23 -1.5 34t-27.5 13h-37zM5134 442h37q41 0 49 43l33 179q10 45 -29 45h-36zM5169 848l154 788h78l-68 -348h80l67 348h78l-153 -788h-78l72 364h-80l-72 -364h-78zM5343 0l64 336l-17 450h82v-239l-6 -109l33 109l96 239h80l-193 -450l-63 -336h-76z M5468 848l154 788h200l-16 -82h-123l-51 -266h70l-15 -76h-69l-56 -284h123l-16 -80h-201z" />
<glyph unicode="~" horiz-adv-x="2889" d="M160 852l153 784h117q117 0 82 -172l-86 -442q-31 -170 -150 -170h-116zM256 930h37q39 0 49 43l104 540q10 45 -32 46h-37zM461 852l153 784h76l-153 -784h-76zM600 852l154 784h120q131 0 99 -166l-17 -86q-23 -111 -92 -153l-12 -379h-82l23 360h-43l-72 -360h-78z M610 178l86 440q33 172 156 173q117 0 84 -173l-14 -71h-74l24 119q8 47 -36 47q-41 0 -50 -47l-104 -537q-10 -47 27 -47q47 0 57 47l31 160h-43l14 78h119l-70 -361l-29 53q-31 -53 -90 -53q-119 0 -88 172zM764 1290h43q51 0 61 53l31 162q12 53 -41 54h-43zM874 6 l154 785h121q127 0 96 -164l-16 -88q-23 -106 -90 -154l-15 -379h-80l21 361h-41l-70 -361h-80zM899 852l154 784h200l-16 -77h-121l-51 -269h68l-15 -78h-67l-56 -282h121l-16 -78h-201zM1040 444h41q51 0 64 56l31 159q10 53 -43 54h-41zM1143 6l256 785h80l-49 -785h-80 l8 117h-101l-36 -117h-78zM1184 1022l86 442q35 172 151 172q115 0 80 -172l-12 -71h-76l23 120q10 45 -31 46q-39 0 -49 -46l-105 -540q-4 -23 5.5 -33t27.5 -10q37 0 47 43l29 147h76l-21 -98q-31 -170 -147 -170q-115 0 -84 170zM1284 207h80l16 221l15 141l-39 -139z M1462 6l154 785h119q133 0 96 -181l-4 -30q-37 -180 -170 -181h-43l-76 -393h-76zM1491 852l137 707h-78l17 77h235l-16 -77h-78l-137 -707h-80zM1630 479h43q51 0 62 49l24 131q10 53 -41 54h-43zM1714 1022l86 442q35 172 152 172t82 -172l-86 -442q-31 -170 -150 -170 q-115 0 -84 170zM1763 6l154 785h80l-68 -347h78l68 347h75l-153 -785h-76l70 361h-78l-70 -361h-80zM1786 973q-10 -43 29 -43t49 43l104 540q10 45 -33 46q-35 0 -45 -46zM1978 852l154 784h123q131 0 98 -166l-16 -86q-20 -109 -92 -153l-15 -379h-80l23 360h-43 l-72 -360h-80zM2060 6l154 785h80l-154 -785h-80zM2144 1290h45q51 0 62 53l30 162q12 53 -43 54h-43zM2236 178l86 440q33 172 152 173q113 0 80 -173l-14 -71h-78l24 119q8 47 -28 47q-39 0 -48 -47l-104 -537q-10 -47 29 -47q37 0 47 47l28 145h78l-20 -96 q-31 -172 -148 -172q-115 0 -84 172zM2433 1022l86 442q35 172 152 172t82 -172l-87 -442q-31 -170 -149 -170q-115 0 -84 170zM2503 973q-10 -43 30 -43q23 0 33 10t14 33l105 540q10 45 -31 46q-37 0 -47 -46zM2525 178l21 96h80l-29 -145q-10 -45 22 -45q33 0 43 45 l17 90q16 74 -39 168q-27 47 -37 91t0 91l8 49q33 172 148 173q109 0 75 -173l-14 -71h-78l25 119q10 47 -25 47q-31 0 -41 -47l-20 -107q-12 -49 45 -147q49 -96 37 -164l-15 -70q-31 -172 -143 -172q-111 0 -80 172zM2697 852l154 784h201l-17 -77h-123l-51 -269h70 l-15 -78h-69l-72 -360h-78z" />
<glyph unicode="&#xa1;" horiz-adv-x="2850" d="M166 850l153 788h121q129 0 97 -180l-7 -33q-37 -180 -165 -180h-43l-78 -395h-78zM336 1323h45q49 0 59 53l27 131q10 53 -41 54h-43zM467 850l154 788h122q131 0 99 -165l-17 -87q-23 -113 -92 -155l-14 -381h-80l20 362h-41l-71 -362h-80zM633 1292h43q55 0 63 51 l33 164q10 53 -43 54h-43zM770 850l154 788h198l-14 -77h-121l-53 -269h67l-14 -80h-67l-56 -284h121l-16 -78h-199zM1055 1022l20 98h78l-29 -145q-10 -47 25 -47q31 0 41 47l18 90q12 72 -41 166q-53 92 -34 182l8 51q35 174 145 174q113 0 78 -174l-12 -71h-80l22 120 q8 45 -24 46q-33 0 -41 -46l-21 -106q-10 -53 43 -147q55 -100 41 -166l-14 -72q-31 -172 -145 -172q-109 0 -78 172zM1307 850l153 788h203l-14 -77h-121l-53 -269h67l-14 -80h-68l-55 -284h121l-17 -78h-202zM1559 850l153 788h94l-6 -450l-6 -119l111 569h69l-153 -788 h-95l9 463l6 106l-111 -569h-71zM1935 850l140 711h-80l14 77h238l-15 -77h-78l-139 -711h-80zM2161 1022l20 98h80l-29 -145q-10 -47 25 -47q31 0 41 47l18 90q12 74 -43 166q-53 92 -35 182l9 51q35 174 147 174q111 0 76 -174l-12 -71h-78l22 120q8 45 -24 46 q-33 0 -41 -46l-21 -106q-10 -53 43 -147q53 -100 39 -166l-14 -72q-31 -172 -143 -172q-111 0 -80 172zM2505 850l260 788h78l-50 -788h-79l8 117h-101l-36 -117h-80zM2650 1053h78l16 221l15 139l-39 -137z" />
<glyph unicode="&#xa2;" horiz-adv-x="2422" d="M166 850l153 788h121q129 0 97 -180l-7 -33q-37 -180 -165 -180h-43l-78 -395h-78zM336 1323h45q49 0 59 53l27 131q10 53 -41 54h-43zM467 850l154 788h122q131 0 99 -165l-17 -87q-23 -113 -92 -155l-14 -381h-80l20 362h-41l-71 -362h-80zM633 1292h43q55 0 63 51 l33 164q10 53 -43 54h-43zM770 850l154 788h198l-14 -77h-121l-53 -269h67l-14 -80h-67l-56 -284h121l-16 -78h-199zM1055 1022l20 98h78l-29 -145q-10 -47 25 -47q31 0 41 47l18 90q12 72 -41 166q-53 92 -34 182l8 51q35 174 145 174q113 0 78 -174l-12 -71h-80l22 120 q8 45 -24 46q-33 0 -41 -46l-21 -106q-10 -53 43 -147q55 -100 41 -166l-14 -72q-31 -172 -145 -172q-109 0 -78 172zM1307 850l153 788h203l-14 -77h-121l-53 -269h67l-14 -80h-68l-55 -284h121l-17 -78h-202zM1559 850l153 788h94l-6 -450l-6 -119l111 569h69l-153 -788 h-95l9 463l6 106l-111 -569h-71zM1935 850l140 711h-80l14 77h238l-15 -77h-78l-139 -711h-80zM2161 1022l20 98h80l-29 -145q-10 -47 25 -47q31 0 41 47l18 90q12 74 -43 166q-53 92 -35 182l9 51q35 174 147 174q111 0 76 -174l-12 -71h-78l22 120q8 45 -24 46 q-33 0 -41 -46l-21 -106q-10 -53 43 -147q53 -100 39 -166l-14 -72q-31 -172 -143 -172q-111 0 -80 172z" />
<glyph unicode="&#xa3;" horiz-adv-x="3782" d="M6 0l258 791h80l-47 -791h-82l10 117h-102l-37 -117h-80zM150 203h79l17 221l14 141l-39 -139zM328 0l153 791h121q133 0 96 -183l-6 -30q-33 -182 -166 -183h-45l-75 -395h-78zM496 473h45q51 0 61 53l27 131q10 53 -43 54h-43zM633 0l153 791h119q131 0 94 -183l-6 -30 q-33 -182 -164 -183h-43l-75 -395h-78zM801 473h43q51 0 61 53l27 131q10 53 -43 54h-41zM936 0l154 791h198l-16 -80h-119l-53 -269h69l-14 -77h-70l-55 -287h119l-14 -78h-199zM1157 0l256 791h80l-49 -791h-80l8 117h-100l-37 -117h-78zM1298 203h80l17 221l14 141 l-39 -139zM1477 0l153 791h123q129 0 98 -166l-18 -88q-20 -109 -90 -156l-14 -381h-80l18 365h-43l-70 -365h-77zM1638 442h45q51 0 64 54l31 161q10 53 -41 54h-45zM1745 0l260 791h80l-49 -791h-80l6 117h-100l-35 -117h-82zM1890 203h78l17 221l14 141l-39 -139z M2030 1022l20 98h80l-29 -147q-10 -45 25 -45q33 0 43 45l18 92q12 72 -41 168q-57 92 -39 182l9 49q37 176 147 176q115 0 78 -176l-12 -71h-78l22 123q8 45 -24 45q-35 0 -43 -45l-21 -109q-4 -25 5.5 -62.5t37.5 -84.5q55 -98 41 -166l-14 -72q-31 -172 -146 -172 q-111 0 -79 172zM2066 0l154 791h94l-6 -451l-10 -119l112 570h72l-153 -791h-95l4 463l11 106l-111 -569h-72zM2286 850l153 790h123q131 0 96 -182l-6 -31q-35 -182 -166 -182h-45l-78 -395h-77zM2425 174l86 440q35 176 153 177q113 0 80 -177l-14 -71h-76l25 123 q8 45 -31 45t-47 -45l-107 -541q-10 -47 31 -47q37 0 47 47l29 145h76l-19 -96q-33 -174 -147 -174q-119 0 -86 174zM2456 1323h45q51 0 61 55l27 129q8 53 -41 54h-45zM2589 850l153 790h203l-14 -79h-123l-53 -269h69l-14 -80h-70l-55 -284h123l-17 -78h-202zM2685 0 l154 791h200l-16 -80h-123l-53 -269h69l-14 -77h-70l-55 -287h123l-14 -78h-201zM2873 1022l86 442q37 176 154 176t84 -174l-14 -73h-78l22 123q8 45 -28 45q-41 0 -50 -45l-104 -543q-10 -45 31 -45q37 0 47 45l29 147h77l-20 -98q-31 -172 -150 -172q-117 0 -86 172z M3058 0l153 791h119q119 0 84 -177l-16 -77q-18 -102 -82 -136q51 -29 30 -133l-18 -94q-33 -174 -152 -174h-118zM3133 850l154 790h78l-154 -790h-78zM3152 78h39q37 0 47 47l39 192q6 43 -31 48h-39zM3222 442h38q41 0 50 45l34 179q8 45 -30 45h-39zM3244 850l258 790 h80l-49 -790h-80l8 119h-100l-37 -119h-80zM3387 1053h80l15 221l16 141l-37 -139zM3428 0l66 338l-14 453h79l-2 -246l-4 -107l35 107l96 246h82l-192 -453l-66 -338h-80zM3566 850l153 790h78l-137 -712h123l-17 -78h-200z" />
<glyph unicode="&#xa4;" horiz-adv-x="3354" d="M35 174l18 96h78l-29 -147q-6 -43 27 -43q35 0 41 43l18 92q14 72 -41 166q-53 94 -36 184l10 49q33 174 145 174q111 0 78 -174l-14 -69h-78l22 119q12 47 -22 47q-33 0 -45 -47l-21 -107q-8 -47 45 -147q53 -96 41 -166l-14 -70q-33 -174 -143 -174q-113 0 -80 174z M287 0l151 788h203l-14 -77h-121l-53 -269h67l-14 -80h-68l-55 -282h121l-15 -80h-202zM573 174l86 440q33 174 152 174q117 0 84 -174l-86 -440q-31 -154 -127 -170q-12 -47 18 -49q35 -4 70 16l-10 -55q-72 -29 -107 -6t-20 94q-90 16 -60 170zM643 123q-6 -43 31 -43 q39 0 45 43l104 541q12 47 -26 47q-37 0 -49 -47zM872 174l119 614h80l-129 -665q-6 -43 31 -43q41 0 47 43l129 665h80l-119 -614q-33 -174 -152 -174t-86 174zM1139 0l151 788h201l-14 -77h-121l-53 -269h69l-14 -80h-70l-55 -282h121l-15 -80h-200zM1391 0l151 788h94 l-6 -448l-8 -121l111 569h71l-151 -788h-94l6 463l6 104l-109 -567h-71zM1749 174l86 440q33 174 150 174t83 -174l-14 -69h-78l23 119q12 47 -29 47q-37 0 -49 -47l-104 -541q-6 -43 30 -43q41 0 47 43l29 147h78l-19 -98q-35 -172 -149 -172q-117 0 -84 174zM1999 1020 l18 96l2 4h80l-28 -145q-10 -47 30 -47q37 0 47 47l37 192q10 43 -31 43h-24l16 80h29q37 0 43 47l35 174q10 47 -31 48q-37 0 -47 -48l-23 -118h-79l12 71q35 174 153 174q117 0 82 -174l-14 -80q-23 -106 -74 -133q43 -27 21 -135l-19 -96q-31 -172 -149 -172 q-117 0 -86 172zM2007 0l152 788h200l-14 -77h-123l-53 -269h69l-14 -80h-70l-55 -282h123l-14 -80h-201zM2265 848l154 790h118q119 0 84 -174l-86 -444q-31 -172 -151 -172h-119zM2292 174l18 96h80l-29 -147q-6 -43 25 -43q35 0 41 43l18 92q16 76 -39 166 q-55 94 -39 184l11 49q33 174 145 174q111 0 78 -174l-14 -69h-78l22 119q12 47 -22 47q-31 0 -43 -47l-21 -107q-10 -49 43 -147q53 -96 41 -166l-14 -70q-33 -174 -143 -174q-113 0 -80 174zM2361 928h39q37 0 47 47l105 536q10 47 -31 48h-39zM2666 0l152 788h121 q115 0 82 -174l-17 -77q-18 -104 -77 -136q47 -29 26 -133l-18 -94q-33 -174 -148 -174h-121zM2718 1020l86 444q35 174 153 174q115 0 80 -174l-12 -71h-74l23 118q10 47 -33 48q-37 0 -47 -48l-105 -536q-10 -47 31 -47q39 0 49 47l29 145h74l-21 -100q-31 -172 -147 -172 q-117 0 -86 172zM2761 80h41q41 0 47 43l39 194q6 43 -31 45h-41zM2830 442h41q39 0 49 45l33 177q12 47 -28 47h-41zM3011 1020l86 444q35 174 153 174q121 0 86 -174l-12 -71h-76l23 118q10 47 -37 48q-39 0 -49 -48l-105 -536q-10 -47 31 -47q45 0 55 47l31 158h-45 l14 77h121l-70 -362l-28 55q-33 -55 -92 -55q-117 0 -86 172zM3039 0l64 336l-17 452h82v-241l-6 -107l35 107l94 241h82l-192 -452l-64 -336h-78zM3273 848l153 790h82l-153 -790h-82z" />
<glyph unicode="&#xa5;" horiz-adv-x="2838" d="M33 174l86 440q33 174 149 174q117 0 84 -174l-14 -69h-78l23 119q12 47 -29 47q-35 0 -47 -47l-105 -541q-6 -43 29 -43q41 0 47 43l29 147h78l-19 -98q-35 -172 -149 -172q-117 0 -84 174zM324 174l86 440q33 174 151 174q119 0 86 -174l-86 -440q-33 -174 -151 -174 q-119 0 -86 174zM393 123q-6 -43 31 -43q41 0 47 43l104 541q12 47 -28 47q-37 0 -49 -47zM590 0l151 788h95l-5 -448l-8 -121l111 569h72l-152 -788h-96l6 463l6 104l-108 -567h-72zM870 1020l86 444q35 174 154 174t84 -174l-86 -444q-31 -172 -152 -172q-117 0 -86 172z M940 975q-10 -47 33 -47q39 0 49 47l104 536q10 47 -32 48q-39 0 -50 -48zM950 174l86 440q33 174 148 174q117 0 84 -174l-15 -69h-77l22 119q12 47 -29 47q-37 0 -49 -47l-104 -541q-6 -43 31 -43q41 0 47 43l28 147h78l-18 -98q-35 -172 -150 -172t-82 174zM1139 848 l153 790h119q135 0 100 -168l-16 -86q-23 -111 -92 -153l-14 -383h-80l18 362h-43l-70 -362h-75zM1206 0l152 788h203l-15 -77h-123l-53 -269h70l-15 -80h-69l-56 -282h123l-14 -80h-203zM1300 1292h46q53 0 61 51l31 162q12 53 -43 54h-43zM1438 848l153 790h80l-153 -790 h-80zM1456 0l152 788h125q131 0 94 -180l-6 -33q-35 -180 -164 -180h-43l-76 -395h-82zM1614 1020l86 444q35 174 153 174q121 0 86 -174l-12 -71h-76l23 118q10 47 -37 48q-39 0 -49 -48l-105 -536q-10 -47 31 -47q43 0 53 47l31 158h-43l14 77h119l-69 -362l-27 55 q-35 -55 -94 -55q-115 0 -84 172zM1628 473h43q51 0 62 53l26 129q8 55 -41 56h-43zM1815 0l137 711h-82l14 77h236l-15 -77h-77l-138 -711h-75zM1876 848l154 790h79l-153 -790h-80zM2017 848l154 790h94l-6 -450l-6 -121l110 571h70l-154 -790h-94l8 465l5 106l-111 -571 h-70zM2126 0l151 788h119q117 0 84 -174l-16 -77q-18 -106 -82 -136q53 -29 31 -133l-19 -94q-33 -174 -149 -174h-119zM2218 80h41q41 0 47 43l39 194q6 43 -31 45h-41zM2288 442h41q39 0 49 45l32 177q12 47 -28 47h-41zM2312 848l258 790h78l-47 -790h-82l8 121h-98 l-37 -121h-80zM2456 1051h75l19 223l14 141l-35 -139zM2497 0l63 336l-14 452h80l2 -241l-9 -107l35 107l94 241h82l-190 -452l-64 -336h-79zM2632 848l153 790h78l-137 -710h123l-17 -80h-200z" />
<glyph unicode="&#xa6;" horiz-adv-x="1636" d="M0 0l258 788h80l-49 -788h-78l6 119h-100l-35 -119h-82zM145 203h78l17 223l14 139l-39 -139zM285 848l153 790h115l-31 -426l-16 -141l39 139l137 428h119l-154 -790h-72l121 618l-28 -94l-172 -524h-66l37 532l8 84l-119 -616h-71zM322 0l151 788h121q133 0 102 -165 l-18 -86q-23 -111 -90 -156l-15 -381h-81l20 362h-43l-70 -362h-77zM483 442h45q49 0 62 54l31 159q8 55 -41 56h-43zM672 0l137 711h-78l14 77h236l-14 -77h-80l-137 -711h-78zM678 848l260 790h78l-49 -790h-80l6 121h-98l-35 -121h-82zM823 1051h76l16 223l17 141 l-37 -139zM864 0l152 788h78l-152 -788h-78zM1014 848l137 711h-80l16 79h238l-16 -79h-78l-137 -711h-80zM1038 174l19 96h80l-29 -147q-6 -43 22 -43q37 0 44 43l18 92q14 72 -39 166q-55 94 -39 184l10 49q33 174 144 174q113 0 80 -174l-15 -69h-78l23 119q12 47 -25 47 q-29 0 -41 -47l-20 -107q-8 -47 41 -147q55 -96 43 -166l-14 -70q-33 -174 -146 -174q-111 0 -78 174zM1255 848l138 711h-78l16 79h236l-17 -79h-77l-138 -711h-80zM1346 0l137 711h-82l14 77h238l-15 -77h-77l-138 -711h-77zM1448 848l154 790h200l-16 -79h-121l-51 -269 h69l-16 -80h-70l-53 -282h121l-16 -80h-201z" />
<glyph unicode="&#xa7;" horiz-adv-x="2111" d="M2 0l152 788h114l-30 -423l-13 -140l39 137l135 426h117l-151 -788h-72l119 616l-27 -92l-170 -524h-65l32 530l11 84l-119 -614h-72zM397 0l254 788h80l-47 -788h-80l6 119h-100l-35 -119h-78zM401 1020l21 100h78l-29 -145q-8 -45 25 -45q35 0 43 45l16 88 q14 72 -41 168q-53 92 -35 184l8 49q35 174 146 174q113 0 78 -174l-13 -71h-77l22 118q8 45 -27 45q-33 0 -41 -45l-20 -106q-10 -49 43 -148q55 -98 41 -167l-14 -70q-31 -172 -146 -172q-109 0 -78 172zM539 203h79l15 223l14 139l-39 -139zM653 848l154 790h123 q131 0 96 -184l-6 -31q-37 -180 -168 -180h-43l-76 -395h-80zM717 0l151 788h78l-69 -358l36 70l148 288h84l-205 -385l61 -403h-83l-41 311l-9 70l-73 -381h-78zM825 1321h43q53 0 64 55l24 129q12 53 -43 54h-43zM961 848l153 790h199l-17 -79h-120l-52 -269h68l-16 -80 h-68l-53 -282h121l-17 -80h-198zM1036 0l152 788h198l-14 -77h-121l-53 -269h70l-15 -80h-69l-56 -282h121l-14 -80h-199zM1241 1020l86 444q35 174 156 174q113 0 78 -174l-13 -71h-73l22 118q10 47 -31 48q-39 0 -49 -48l-104 -536q-10 -47 33 -47q37 0 47 47l28 145h74 l-20 -100q-31 -172 -146 -172q-119 0 -88 172zM1440 174l119 614h79l-129 -665q-6 -43 31 -43q41 0 47 43l129 665h80l-119 -614q-33 -174 -151 -174q-119 0 -86 174zM1501 848l154 790h78l-154 -790h-78zM1610 848l258 790h82l-49 -790h-78l6 121h-100l-37 -121h-82z M1708 0l152 788h120q131 0 95 -180l-7 -33q-35 -180 -163 -180h-43l-76 -395h-78zM1753 1051h82l16 223l17 141l-41 -139zM1876 473h43q51 0 61 53l27 129q8 55 -41 56h-43zM1929 848l154 790h82l-137 -710h120l-16 -80h-203z" />
<glyph unicode="&#xa8;" horiz-adv-x="4882" d="M2 0l152 788h77l-151 -788h-78zM143 0l152 788h94l-6 -450l-10 -119l110 569h72l-152 -788h-94l6 463l11 106l-111 -569h-72zM557 0l256 788h80l-47 -788h-80l8 119h-102l-35 -119h-80zM700 203h80l15 221l14 141l-39 -139zM909 172l19 98h78l-29 -147q-10 -45 27 -45 q31 0 40 45l19 92q16 76 -39 166q-57 90 -39 184l10 49q33 174 146 174q111 0 78 -174l-15 -71h-78l23 121q10 47 -23 47q-35 0 -45 -47l-20 -107q-10 -53 45 -149q55 -94 39 -166l-12 -70q-35 -172 -144 -172q-115 0 -80 172zM1198 172l19 98h77l-28 -147q-10 -45 24 -45 q31 0 41 45l19 92q14 72 -39 166q-55 92 -37 184l10 49q33 174 143 174q113 0 80 -174l-14 -71h-80l23 121q10 47 -23 47t-43 -47l-20 -107q-10 -53 45 -149q53 -98 39 -166l-13 -70q-35 -172 -145 -172q-113 0 -78 172zM1485 172l86 442q33 174 149 174q119 0 86 -174 l-86 -442q-35 -172 -151 -172q-119 0 -84 172zM1554 123q-10 -45 29 -45t49 45l105 541q10 47 -31 47q-37 0 -47 -47zM1784 172l86 442q33 174 151 174q115 0 82 -172l-14 -73h-76l23 121q10 47 -29 47t-49 -47l-105 -541q-10 -45 31 -45q37 0 47 45l29 147h76l-19 -98 q-35 -172 -147 -172q-121 0 -86 172zM2044 0l151 788h78l-151 -788h-78zM2154 0l256 788h78l-47 -788h-80l9 119h-101l-37 -119h-78zM2298 203h78l14 221l14 141l-39 -139zM2488 0l138 711h-78l14 77h238l-15 -77h-80l-137 -711h-80zM2681 0l151 788h80l-151 -788h-80z M2857 172l86 442q33 174 149 174q119 0 86 -174l-86 -442q-35 -172 -151 -172q-119 0 -84 172zM2925 123q-10 -45 30 -45q37 0 47 45l105 541q10 47 -29 47t-49 -47zM3121 0l152 788h94l-4 -450l-8 -119l110 569h70l-152 -788h-94l6 463l8 106l-110 -569h-72zM3664 0l47 788 h80l-31 -426l-12 -139l37 139l135 426h63l-28 -426l-15 -139l39 139l133 426h80l-256 -788h-71l30 502l-159 -502h-72zM4073 0l152 788h78l-152 -788h-78zM4264 0l137 711h-78l15 77h235l-14 -77h-78l-137 -711h-80zM4456 0l152 788h78l-68 -348h80l68 348h78l-152 -788h-78 l70 362h-80l-70 -362h-78z" />
<glyph unicode="&#xa9;" horiz-adv-x="788" d="M20 1315q0 66 25 124t69 103t101 70.5t125 25.5q66 0 124 -25.5t103 -70.5t71 -103.5t26 -123.5q0 -68 -26 -125t-71 -101.5t-103 -69t-124 -24.5q-68 0 -125 24.5t-101 69t-69 101.5t-25 125zM72 1315q0 -55 21.5 -104.5t57 -85t85 -57t104.5 -21.5t103.5 21.5t85 57 t58 85t21.5 104.5t-21.5 103t-58 85t-85 58.5t-103.5 21.5t-104.5 -21.5t-85 -58.5t-57 -85t-21.5 -103zM244 1229v162q0 123 90 122q94 0 94 -122v-21h-61v45q0 35 -33 35q-29 0 -29 -35v-211q0 -37 29 -37q33 0 33 37v37h61v-12q0 -123 -94 -123q-90 0 -90 123z" />
<glyph unicode="&#xaa;" horiz-adv-x="2969" d="M31 174l86 442q33 172 151 172q113 0 80 -172l-14 -73h-74l25 123q6 43 -31 43q-41 0 -47 -43l-107 -543q-10 -45 31 -45q37 0 47 45l29 147h74l-19 -96q-33 -174 -145 -174q-119 0 -86 174zM322 174l86 442q33 172 153 172q117 0 84 -172l-86 -442q-33 -174 -149 -174 q-121 0 -88 174zM391 123q-10 -45 33 -45q37 0 47 45l107 543q6 43 -31 43q-43 0 -49 -43zM590 0l151 788h95l-7 -448l-6 -121l111 569h70l-152 -788h-94l4 463l10 106l-110 -569h-72zM948 174l19 96h80l-29 -147q-10 -45 24 -45q31 0 41 45l19 90q16 78 -41 168 q-53 94 -37 184l10 51q33 172 146 172t80 -172l-15 -73h-80l25 123q6 43 -25 43q-35 0 -41 -43l-22 -109q-10 -51 43 -147q55 -100 41 -168l-12 -68q-33 -174 -146 -174t-80 174zM1030 850l154 788h116l-30 -426l-17 -139l41 139l136 426h116l-153 -788h-70l121 616l-29 -94 l-172 -522h-65l34 528l11 88l-121 -616h-72zM1237 174l119 614h78l-129 -665q-10 -45 30 -45q39 0 49 45l129 665h80l-118 -614q-33 -174 -154 -174q-117 0 -84 174zM1456 850l154 788h200l-14 -77h-121l-53 -269h70l-15 -80h-69l-56 -282h121l-16 -80h-201zM1503 0l152 788 h80l-138 -710h121l-14 -78h-201zM1708 850l154 788h118q119 0 82 -174l-86 -442q-31 -172 -149 -172h-119zM1796 0l137 709h-78l15 79h237l-14 -79h-80l-137 -709h-80zM1804 930h39q39 0 49 43l105 543q10 45 -31 45h-39zM1923 0l254 788h82l-49 -788h-80l8 119h-100 l-37 -119h-78zM2009 850l154 788h78l-154 -788h-78zM2064 203h80l17 221l14 141l-41 -139zM2183 1022l86 442q37 174 154 174q115 0 78 -174l-13 -71h-73l22 123q10 45 -29 45t-49 -45l-104 -543q-10 -43 31 -43q37 0 47 43l28 147h74l-20 -98q-31 -172 -146 -172 q-117 0 -86 172zM2243 0l151 788h94l-4 -448l-10 -121l111 569h71l-151 -788h-95l7 463l6 106l-111 -569h-69zM2410 850l259 788h79l-49 -788h-78l7 117h-101l-35 -117h-82zM2554 1053h80l16 223l14 139l-36 -139zM2619 0l138 709h-80l14 79h236l-15 -79h-78l-137 -709h-78z M2732 850l154 788h77l-137 -708h123l-16 -80h-201z" />
<glyph unicode="&#xab;" horiz-adv-x="2052" d="M4 0l256 788h80l-47 -788h-78l6 119h-100l-37 -119h-80zM147 203h80l17 221l12 141l-37 -139zM164 850l153 788h117l-31 -426l-16 -139l43 139l133 426h119l-154 -788h-71l121 616l-27 -94l-172 -522h-66l33 528l10 88l-120 -616h-72zM326 0l151 788h117q119 0 86 -172 l-86 -442q-33 -174 -152 -174h-116zM418 78h39q39 0 49 45l106 543q6 43 -32 43h-39zM592 850l153 788h199l-14 -77h-119l-53 -269h67l-14 -80h-68l-55 -282h119l-16 -80h-199zM696 0l49 788h80l-30 -426l-15 -139l39 139l135 426h80l-256 -788h-82zM842 850l153 788h119 q123 0 86 -174l-86 -442q-31 -172 -153 -172h-119zM915 0l152 788h78l-152 -788h-78zM938 930h39q39 0 49 43l104 543q10 45 -30 45h-39zM1090 174l18 96h80l-29 -147q-10 -45 25 -45q31 0 41 45l18 90q14 74 -41 168q-53 94 -37 184l11 51q33 172 145 172q113 0 80 -172 l-15 -73h-79l24 123q6 43 -24 43q-35 0 -41 -43l-23 -109q-4 -25 5 -62.5t38 -84.5q55 -100 41 -168l-12 -68q-33 -174 -146 -174t-79 174zM1143 850l153 788h80l-153 -788h-80zM1317 1022l86 442q37 174 156 174q117 0 79 -174l-12 -71h-76l23 123q10 45 -31 45 q-39 0 -49 -45l-104 -543q-10 -43 30 -43q39 0 49 43l29 147h76l-21 -98q-31 -172 -147 -172q-119 0 -88 172zM1376 174l86 442q33 172 152 172t86 -172l-86 -442q-33 -174 -152 -174t-86 174zM1446 123q-10 -45 31 -45q39 0 49 45l106 543q6 43 -33 43q-41 0 -47 -43z M1546 850l258 788h80l-49 -788h-80l8 117h-102l-35 -117h-80zM1645 0l151 788h121q131 0 100 -165l-18 -86q-20 -111 -90 -158l-15 -379h-77l18 362h-41l-70 -362h-79zM1690 1053h77l21 223l12 139l-39 -139zM1808 442h41q53 0 66 54l31 161q8 51 -43 52h-41zM1868 850 l153 788h78l-137 -708h121l-17 -80h-198z" />
<glyph unicode="&#xac;" horiz-adv-x="4882" d="M2 850l152 788h77l-151 -788h-78zM143 850l152 788h94l-6 -450l-10 -119l110 569h72l-152 -788h-94l6 463l11 106l-111 -569h-72zM557 850l256 788h80l-47 -788h-80l8 119h-102l-35 -119h-80zM700 1053h80l15 221l14 141l-39 -139zM909 1022l19 98h78l-29 -147 q-10 -45 27 -45q31 0 40 45l19 92q16 76 -39 166q-57 90 -39 184l10 49q33 174 146 174q111 0 78 -174l-15 -71h-78l23 120q10 47 -23 48q-35 0 -45 -48l-20 -106q-10 -53 45 -150q55 -94 39 -165l-12 -70q-35 -172 -144 -172q-115 0 -80 172zM1198 1022l19 98h77l-28 -147 q-10 -45 24 -45q31 0 41 45l19 92q14 72 -39 166q-55 92 -37 184l10 49q33 174 143 174q113 0 80 -174l-14 -71h-80l23 120q10 47 -23 48q-33 0 -43 -48l-20 -106q-10 -53 45 -150q53 -98 39 -165l-13 -70q-35 -172 -145 -172q-113 0 -78 172zM1485 1022l86 442 q33 174 149 174q119 0 86 -174l-86 -442q-35 -172 -151 -172q-119 0 -84 172zM1554 973q-10 -45 29 -45t49 45l105 540q10 47 -31 48q-37 0 -47 -48zM1784 1022l86 442q33 174 151 174q115 0 82 -172l-14 -73h-76l23 120q10 47 -29 48q-39 0 -49 -48l-105 -540 q-10 -45 31 -45q37 0 47 45l29 147h76l-19 -98q-35 -172 -147 -172q-121 0 -86 172zM2044 850l151 788h78l-151 -788h-78zM2154 850l256 788h78l-47 -788h-80l9 119h-101l-37 -119h-78zM2298 1053h78l14 221l14 141l-39 -139zM2488 850l138 711h-78l14 77h238l-15 -77h-80 l-137 -711h-80zM2681 850l151 788h80l-151 -788h-80zM2857 1022l86 442q33 174 149 174q119 0 86 -174l-86 -442q-35 -172 -151 -172q-119 0 -84 172zM2925 973q-10 -45 30 -45q37 0 47 45l105 540q10 47 -29 48q-39 0 -49 -48zM3121 850l152 788h94l-4 -450l-8 -119 l110 569h70l-152 -788h-94l6 463l8 106l-110 -569h-72zM3664 850l47 788h80l-31 -426l-12 -139l37 139l135 426h63l-28 -426l-15 -139l39 139l133 426h80l-256 -788h-71l30 502l-159 -502h-72zM4073 850l152 788h78l-152 -788h-78zM4264 850l137 711h-78l15 77h235l-14 -77 h-78l-137 -711h-80zM4456 850l152 788h78l-68 -348h80l68 348h78l-152 -788h-78l70 362h-80l-70 -362h-78z" />
<glyph unicode="&#xad;" horiz-adv-x="7159" d="M0 494v1132h1327v-1132h-258l-440 -428l59 428h-688zM268 1067q0 -152 33 -287q164 -39 350 -39q203 0 379 39q41 123 41 267q0 153 -41 288q-162 33 -350 33q-203 0 -379 -33q-33 -123 -33 -268zM954 211q0 86 62.5 146.5t148.5 60.5t148.5 -60.5t62.5 -146.5 q0 -90 -61.5 -150.5t-149.5 -60.5t-149.5 60.5t-61.5 150.5zM993 211q0 -78 50 -129t122 -51q74 0 123 52t49 128t-49 126t-123 50q-72 0 -122 -50t-50 -126zM1083 88v244h97q86 0 86 -70q0 -61 -66 -67l72 -107h-41l-68 105h-41v-105h-39zM1122 223h39q68 0 68 41 q0 37 -55 37h-52v-78zM1665 1444q0 86 39 140t100 54q115 0 125 -122h-39q-12 78 -86 77q-96 0 -96 -149q0 -156 98 -156q72 0 86 103h39q-14 -147 -131 -148q-55 0 -92 45q-43 53 -43 156zM1679 389v250h41v-236q0 -104 76 -104q82 0 82 102v238h41v-244q0 -141 -123 -141 q-117 0 -117 135zM1679 758v377h50l149 -304v304h41v-377h-45l-156 305v-305h-39zM1964 352h35q4 -55 57 -55q49 0 49 43q0 27 -43 39l-43 12q-49 14 -49 68q0 86 82 86q84 0 84 -84h-37q0 45 -49 45q-43 0 -43 -39q0 -27 39 -37l37 -10q59 -16 59 -74q0 -90 -86 -90 q-88 0 -92 96zM1964 829q0 76 68 86l61 11q16 0 16 30q0 45 -51 45q-45 0 -49 -53h-35q2 92 90 92q82 0 82 -75v-158q0 -16 15 -16q4 0 12 2v-35q-12 -4 -23 -4q-33 0 -36 41q-33 -43 -80 -43q-70 0 -70 77zM1976 1253v375h37v-375h-37zM2003 836q0 -47 41 -48q27 0 46 19.5 t19 46.5v45q-10 -10 -58 -18.5t-48 -44.5zM2056 1391q0 57 27 100t78 43q49 0 74.5 -43t25.5 -100q0 -59 -25.5 -102.5t-74.5 -43.5q-51 0 -78 43t-27 103zM2095 1391q0 -105 66 -105q61 0 61 105q0 104 -61 104q-66 0 -66 -104zM2177 393q0 152 102 152q96 0 97 -158h-160 q0 -90 61 -90q53 0 60 53h37q-10 -49 -39 -76q-23 -18 -62 -18q-45 0 -70.5 39t-25.5 98zM2187 993v39h31v76h37v-76h37v-39h-37v-176q0 -23 20 -22h17v-37h-21q-8 -2 -30.5 -2t-22.5 57v180h-31zM2216 422h121q-4 82 -62 82q-25 0 -42 -24.5t-17 -57.5zM2290 1341h32 q8 -57 62 -57q49 0 49 45q0 27 -43 39l-43 12q-51 14 -51 68q0 86 84 86t84 -86h-37q0 47 -51 47q-43 0 -43 -39q0 -25 39 -37l34 -12q63 -20 64 -72q0 -90 -86 -90q-88 0 -94 96zM2329 758v274h32v-274h-32zM2329 1081v54h32v-54h-32zM2404 410q0 135 95 135q31 0 63 -45 v139h39v-375h-37v37q-18 -45 -61 -45q-98 0 -99 154zM2404 895q0 59 28 102t77 43t73.5 -43t24.5 -102q0 -57 -24.5 -100t-73.5 -43t-77 43t-28 100zM2443 401q1 -104 62 -104q57 0 57 92q0 115 -57 115q-61 0 -62 -103zM2443 895q0 -104 66 -104q61 0 61 104t-61 104 q-66 0 -66 -104zM2503 1382q0 152 102 152q94 0 94 -160h-157q0 -90 63 -90q25 0 39 18.5t14 36.5h37q0 -45 -39 -75q-16 -18 -57 -19q-96 0 -96 137zM2542 1411h118q-4 82 -59 82q-27 0 -43 -24.5t-16 -57.5zM2650 758v274h37v-39q27 47 68 47q74 0 73 -96v-186h-37v170 q0 72 -47 71q-55 0 -55 -92v-149h-39zM2732 1399q0 135 90 135q39 0 68 -47v141h37v-375h-35v37q-23 -45 -66 -45q-94 0 -94 154zM2744 539h41l41 -215h2l41 215h41l43 -215h2l43 215h37l-61 -275h-37l-45 211l-43 -211h-39zM2771 1391q0 -107 57 -107q61 0 62 92 q0 117 -62 117q-57 0 -57 -102zM2871 829q0 76 68 86l59 11q20 0 21 30q0 45 -51 45q-41 0 -54 -53h-30q2 92 90 92q82 0 82 -75v-158q0 -16 10 -16q8 0 10 2v-35q-10 -4 -16 -4q-39 0 -39 41q-33 -43 -80 -43q-70 0 -70 77zM2908 836q0 -47 41 -48q27 0 48.5 19.5 t21.5 46.5v45q-10 -10 -60.5 -18.5t-50.5 -44.5zM3072 264v275h37v-275h-37zM3072 588v51h37v-51h-37zM3082 1444q0 88 38 141t106 53q109 0 120 -122h-36q-16 78 -84 77q-100 0 -101 -149q0 -156 101 -156q68 0 86 103h39q-18 -147 -134 -148q-57 0 -92 45q-43 53 -43 156z M3117 758v377h37v-377h-37zM3142 500v39h28v75h37v-75h37v-39h-37v-178q0 -20 23 -21h14v-37q-31 -4 -52.5 -4t-21.5 59v181h-28zM3279 264v375h37v-137h2q25 43 61 43q78 0 78 -94v-187h-39v178q0 61 -43 62q-59 0 -59 -90v-150h-37zM3318 948q0 88 38 142.5t101 54.5 q53 0 88 -39q31 -33 35 -84h-39q-12 78 -84 78q-98 0 -98 -150q0 -156 98 -155q72 0 86 102h41q-16 -147 -131 -147q-135 0 -135 198zM3381 1325q0 72 70 84l57 10q23 4 23 33q0 45 -53 45q-45 0 -52 -53h-32q2 90 90 90q82 0 82 -76v-158q0 -16 12 -16q2 0 6 2h4v-33 q-16 -6 -18 -6q-35 0 -39 43q-31 -45 -78 -45q-72 0 -72 80zM3420 1331q0 -47 39 -47q29 0 49.5 18.5t20.5 45.5v45q-8 -8 -58.5 -16.5t-50.5 -45.5zM3617 829q0 76 63 86l64 11q16 0 16 30q0 45 -49 45q-41 0 -51 -53h-33q2 92 88 92q84 0 84 -75v-158q0 -16 8 -16t15 2 v-35q-14 -4 -21 -4q-39 0 -39 41q-33 -43 -80 -43q-66 0 -65 77zM3625 1145v381h35v-39q27 47 63 47q92 0 92 -135q0 -154 -96 -154q-41 0 -57 37v-137h-37zM3635 264v375h135q88 0 88 -104q0 -113 -88 -113h-94v-158h-41zM3654 836q0 -47 41 -48q23 0 44 19.5t21 46.5v45 q-8 -10 -57 -18.5t-49 -44.5zM3660 1376q0 -92 57 -92q61 0 62 107q0 102 -62 102q-57 0 -57 -117zM3676 467h80q63 0 64 68q0 61 -62 61h-82v-129zM3840 1489v37h29v78h37v-78h32v-37h-32v-178q0 -23 20 -23h12v-35q-23 -4 -24 -4q-45 0 -45 60v180h-29zM3856 651v381h35 v-39q27 47 68 47q90 0 90 -137q0 -152 -96 -151q-39 0 -60 34v-135h-37zM3891 883q1 -92 62 -92q59 0 59 106q0 102 -59 102q-61 0 -62 -116zM3895 393q0 152 107 152q94 0 94 -158h-162q0 -90 66 -90q23 0 39 17.5t16 35.5h37q0 -43 -39 -76q-25 -18 -59 -18q-98 0 -99 137 zM3934 422h121q-2 82 -59 82q-27 0 -44.5 -24.5t-17.5 -57.5zM3975 1253v273h37v-273h-37zM3975 1577v51h37v-51h-37zM4055 1391q0 57 26.5 100t75.5 43q51 0 77 -43t26 -100q0 -59 -25.5 -102.5t-77.5 -43.5q-49 0 -75.5 43t-26.5 103zM4069 993v39h31v76h39v-76h35v-39 h-35v-176q0 -23 18 -22h17v-37h-21q-10 -2 -31.5 -2t-21.5 57v180h-31zM4096 1391q0 -105 61 -105q66 0 66 105q0 104 -66 104q-61 0 -61 -104zM4143 264v275h37v-47q20 53 59 53h13v-49h-17q-53 0 -53 -72v-160h-39zM4211 758v274h37v-274h-37zM4211 1081v54h37v-54h-37z M4276 264v275h35v-39h2q20 45 68 45q39 0 57 -43q33 43 68 43q66 0 65 -92v-189h-37v176q0 63 -41 64q-51 0 -51 -74v-166h-37v189q0 51 -35 51q-57 0 -57 -90v-150h-37zM4291 895q0 59 25.5 102t74.5 43q47 0 73.5 -43t26.5 -102q0 -57 -26.5 -100t-73.5 -43 q-49 0 -74.5 43t-25.5 100zM4303 1253v273h35v-39q23 47 63 47q80 0 80 -94v-187h-39v168q0 72 -45 72q-57 0 -57 -90v-150h-37zM4325 895q0 -104 66 -104q61 0 61 104t-61 104q-66 0 -66 -104zM4524 1382q0 152 102 152q96 0 97 -160h-160q0 -90 61 -90q53 0 60 55h37 q-8 -49 -39 -75q-25 -18 -62 -19q-96 0 -96 137zM4532 758v274h35v-39q29 47 70 47q74 0 73 -96v-186h-34v170q0 72 -50 71q-57 0 -57 -92v-149h-37zM4563 1411h123q-4 82 -64 82q-25 0 -42 -24.5t-17 -57.5zM4626 264v275h37v-275h-37zM4626 588v51h37v-51h-37zM4704 352 h35q4 -55 62 -55q49 0 49 43q0 27 -43 39l-43 12q-53 14 -54 68q0 86 84 86t84 -84h-34q0 45 -54 45q-43 0 -43 -39q0 -27 39 -37l37 -10q63 -16 64 -74q0 -90 -86 -90q-96 0 -97 96zM4753 1399q0 135 93 135q43 0 63 -47v141h39v-375h-37v37q-18 -45 -59 -45q-98 0 -99 154 zM4768 758v274h37v-274h-37zM4768 1081v54h37v-54h-37zM4790 1391q1 -107 62 -107q57 0 57 92q0 117 -57 117q-61 0 -62 -102zM4860 758v274h35v-39q25 47 65 47q76 0 76 -96v-186h-37v170q0 72 -47 71q-55 0 -55 -92v-149h-37zM4913 352h37q2 -55 57 -55q51 0 52 43 q0 27 -43 39l-43 12q-53 14 -54 68q0 86 84 86t84 -84h-37q0 45 -51 45q-43 0 -43 -39q0 -27 39 -37l39 -10q59 -16 59 -74q0 -90 -86 -90q-88 0 -94 96zM5079 903q0 59 24.5 98t67.5 39q37 0 68 -47v39h35v-252q0 -137 -103 -137q-78 0 -84 82h37q6 -43 49 -43q63 0 64 96 v8q-20 -35 -62 -34q-96 0 -96 151zM5114 1253v375h37v-135q20 41 61 41q90 0 90 -135q0 -154 -96 -154q-37 0 -57 41v-33h-35zM5120 897q0 -106 57 -106q61 0 62 92q0 117 -62 116q-57 0 -57 -102zM5136 264v275h37v-275h-37zM5136 588v51h37v-51h-37zM5149 1376 q0 -92 57 -92q59 0 59 107q0 102 -59 102q-57 0 -57 -117zM5216 401q0 57 28 100.5t77 43.5t74.5 -43t25.5 -101q0 -59 -25.5 -102t-74.5 -43t-77 43t-28 102zM5255 401q0 -104 66 -104q61 0 61 104t-61 105q-66 0 -66 -105zM5327 1526h41l55 -221h2l60 221h41 q-47 -160 -78 -269q-27 -82 -40.5 -99t-45.5 -17q-4 0 -19 4v43q20 -6 25 -6q18 0 39 63zM5452 758v377h41v-377h-41zM5462 264v275h37v-39q27 45 63 45q78 0 78 -94v-187h-37v168q0 72 -47 72q-55 0 -55 -90v-150h-39zM5556 758v274h35v-39q29 47 68 47q74 0 73 -96v-186 h-32v170q0 72 -50 71q-59 0 -59 -92v-149h-35zM5650 1489v37h29v78h39v-78h37v-37h-37v-178q0 -23 23 -23h14v-35q-31 -4 -53.5 -4t-22.5 60v180h-29zM5706 264v55h43v-55h-43zM5773 846h37q0 -55 60 -55q51 0 51 43q0 25 -45 38l-43 15q-49 16 -49 65q0 88 79 88 q84 0 84 -86h-32q-8 45 -56 45q-43 0 -43 -38q0 -20 41 -35l35 -13q63 -23 64 -71q0 -90 -86 -90q-88 0 -97 94zM5790 1253v375h37v-139q29 45 63 45q78 0 78 -94v-187h-37v179q0 61 -43 61q-61 0 -61 -90v-150h-37zM5976 993v39h31v76h37v-76h32v-39h-32v-176q0 -23 20 -22 h12v-37h-16q-6 -2 -8 -2q-45 0 -45 57v180h-31zM6013 1382q0 152 102 152q96 0 97 -160h-160q0 -90 61 -90q27 0 42.5 18.5t15.5 36.5h34q0 -45 -36 -75q-23 -18 -62 -19q-94 0 -94 137zM6052 1411h121q-4 82 -64 82q-23 0 -40 -24.5t-17 -57.5zM6113 758v274h37v-274h-37z M6113 1081v54h37v-54h-37zM6187 993v39h29v76h37v-76h32v-39h-32v-176q0 -23 20 -22h12v-37h-14q-8 -2 -10 -2q-45 0 -45 57v180h-29zM6324 836v196h37v-182q0 -59 41 -59q63 0 64 90v151h34v-274h-32v41h-2q-23 -47 -70 -47q-72 0 -72 84zM6533 993v39h33v76h37v-76h35v-39 h-35v-176q0 -23 18 -22h17v-37h-21q-8 -2 -29.5 -2t-21.5 57v180h-33zM6660 887q0 154 107 153q94 0 94 -159h-160q0 -90 64 -90q51 0 57 53h37q-8 -47 -39 -74q-25 -18 -62 -18q-98 0 -98 135zM6701 918h123q-4 82 -64 81q-23 0 -41 -25.5t-18 -55.5zM6914 758v57h43v-57 h-43z" />
<glyph unicode="&#xae;" horiz-adv-x="974" d="M27 1305q0 70 25.5 130t69.5 105t104.5 71.5t127.5 26.5q68 0 128.5 -26.5t105.5 -71.5t71.5 -105.5t26.5 -129.5q0 -68 -26.5 -127.5t-71.5 -103.5t-105.5 -69.5t-128.5 -25.5t-128 25.5t-104 69.5t-69.5 103.5t-25.5 127.5zM78 1305q0 -55 22.5 -105.5t59.5 -88.5 t87 -59.5t107 -21.5q55 0 105.5 21.5t88.5 59.5t59.5 88t21.5 106q0 57 -21.5 107t-59.5 87t-88 59.5t-106 22.5q-57 0 -107 -22.5t-87 -59.5t-59.5 -87t-22.5 -107zM223 1108h68v184h74l53 -184h67l-61 192q72 14 68 111q-2 98 -142 98h-127v-401zM291 1331v137h74 q55 0 55 -69q0 -68 -55 -68h-74z" />
<glyph unicode="&#xb0;" horiz-adv-x="2754" d="M166 854l256 788h78l-45 -788h-82l10 119h-100l-37 -119h-80zM309 1057h78l19 221l12 141l-39 -139zM518 1028l19 96h79l-28 -145q-8 -45 22 -45q35 0 43 45l19 90q14 74 -39 166q-57 94 -39 184l10 51q35 172 144 172q115 0 79 -172l-14 -73h-78l25 123q6 43 -27 43 t-39 -43l-22 -109q-10 -55 43 -147q53 -100 41 -166l-15 -70q-33 -174 -145 -174q-111 0 -78 174zM805 1028l18 96h80l-29 -145q-8 -45 25 -45q35 0 43 45l19 90q14 70 -41 166q-57 94 -39 184l10 51q35 172 145 172q115 0 80 -172l-14 -73h-78l25 123q6 43 -27 43 q-35 0 -41 -43l-23 -109q-10 -53 43 -147q55 -98 43 -166l-14 -70q-33 -174 -145 -174q-113 0 -80 174zM1094 1028l86 442q35 172 151 172q119 0 84 -172l-86 -442q-33 -174 -149 -174q-119 0 -86 174zM1163 979q-8 -45 31 -45t47 45l107 541q6 43 -31 43q-41 0 -47 -43z M1393 1028l86 442q35 172 151 172q117 0 82 -172l-14 -73h-76l25 123q6 43 -31 43q-41 0 -47 -43l-107 -541q-8 -45 31 -45t47 45l29 145h76l-19 -96q-33 -174 -147 -174q-119 0 -86 174zM1653 854l151 788h76l-151 -788h-76zM1761 854l256 788h80l-47 -788h-80l8 119h-100 l-37 -119h-80zM1905 1057h80l14 221l14 141l-39 -139zM2099 854l137 709h-79l14 79h235l-14 -79h-78l-137 -709h-78zM2290 854l151 788h199l-14 -79h-121l-51 -267h71l-16 -79h-72l-55 -283h121l-15 -80h-198zM2572 1028l19 96h80l-29 -145q-8 -45 24 -45q35 0 44 45l18 90 q14 70 -41 166q-57 94 -39 184l10 51q35 172 146 172q115 0 80 -172l-15 -73h-78l25 123q6 43 -27 43q-35 0 -41 -43l-22 -109q-10 -53 43 -147q55 -98 43 -166l-14 -70q-33 -174 -146 -174t-80 174z" />
<glyph unicode="&#xb1;" horiz-adv-x="2957" d="M31 174l86 442q33 172 151 172q113 0 80 -170l-14 -73h-74l25 123q8 43 -31 43q-41 0 -49 -45l-107 -541q-10 -47 33 -47q37 0 47 47l29 147h74l-19 -98q-16 -86 -51 -130t-94 -44q-121 0 -86 174zM324 174l86 442q33 172 149 172q119 0 86 -172l-86 -442 q-35 -174 -151 -174q-119 0 -84 174zM391 125q-10 -47 31 -47q39 0 49 47l107 541q8 45 -33 45q-39 0 -47 -45zM590 0l151 788h97l-7 -448l-10 -119l111 567h72l-152 -788h-94l6 465l8 104l-110 -569h-72zM938 850l154 788h116l-30 -424l-13 -139l37 139l135 424h119 l-153 -788h-72l121 618l-29 -94l-170 -524h-66l35 530l8 88l-120 -618h-72zM948 174l19 98h77l-28 -147q-8 -45 26 -45q33 0 41 45l19 90q14 70 -39 168q-53 92 -39 184l10 49q33 172 146 172t80 -172l-15 -71h-80l25 121q8 45 -25 45q-35 0 -43 -45l-20 -107 q-10 -47 43 -149q55 -96 43 -166l-14 -70q-35 -174 -146 -174q-115 0 -80 174zM1237 174l119 614h78l-129 -663q-10 -47 30 -47q39 0 49 47l129 663h78l-118 -614q-35 -174 -152 -174q-119 0 -84 174zM1364 850l154 788h79l-153 -788h-80zM1503 0l152 788h80l-138 -710h121 l-14 -78h-201zM1507 850l154 788h78l-137 -710h120l-16 -78h-199zM1751 850l154 788h77l-153 -788h-78zM1796 0l137 711h-78l15 77h237l-14 -77h-80l-137 -711h-80zM1921 0l258 788h78l-47 -788h-80l8 119h-100l-37 -119h-80zM1942 850l139 711h-78l14 77h236l-15 -77h-77 l-140 -711h-79zM2066 203h78l17 223l12 141l-37 -139zM2066 850l258 788h80l-49 -788h-80l9 119h-103l-35 -119h-80zM2210 1053h78l20 223l12 141l-39 -139zM2243 0l151 788h94l-4 -448l-10 -119l111 567h71l-151 -788h-95l7 465l8 104l-111 -569h-71zM2388 850l154 788h120 q131 0 99 -163l-17 -89q-20 -104 -90 -155l-16 -381h-80l22 364h-43l-71 -364h-78zM2552 1292h45q51 0 61 56l33 159q8 53 -43 54h-43zM2619 0l138 711h-82l14 77h238l-15 -77h-78l-137 -711h-78zM2761 850l65 338l-16 450h80l2 -241l-6 -107l34 107l95 241h80l-191 -450 l-65 -338h-78z" />
<glyph unicode="&#xb2;" horiz-adv-x="2213" d="M96 0l256 788h80l-47 -788h-80l6 119h-100l-35 -119h-80zM166 850l153 788h115l-28 -424l-15 -139l37 139l135 424h119l-154 -788h-71l121 618l-27 -94l-172 -524h-66l35 530l8 88l-120 -618h-70zM240 203h77l19 223l12 141l-39 -139zM418 0l151 788h117q119 0 86 -172 l-86 -442q-35 -174 -151 -174h-117zM510 78h39q39 0 49 47l107 541q8 45 -33 45h-39zM590 850l153 788h82l-153 -788h-82zM733 850l154 788h78l-138 -710h123l-16 -78h-201zM791 0l45 788h82l-31 -423l-15 -140l39 140l136 423h79l-258 -788h-77zM977 850l153 788h78 l-153 -788h-78zM1006 0l151 788h80l-152 -788h-79zM1167 850l140 711h-78l14 77h238l-15 -77h-77l-140 -711h-82zM1182 174l18 98h78l-29 -147q-8 -45 25 -45t41 45l18 90q16 74 -39 168q-51 94 -37 184l11 49q33 172 143 172q113 0 80 -172l-14 -71h-80l24 121q8 45 -24 45 q-33 0 -41 -45l-21 -107q-10 -47 43 -149q53 -96 41 -166l-14 -70q-35 -174 -145 -174q-113 0 -78 174zM1292 850l260 788h78l-47 -788h-80l8 119h-102l-37 -119h-80zM1438 1053h78l18 223l14 141l-39 -139zM1468 174l86 442q33 172 152 172t86 -172l-86 -442 q-35 -174 -152 -174q-121 0 -86 174zM1536 125q-4 -23 5 -35t28 -12q39 0 49 47l106 541q8 45 -32 45q-41 0 -50 -45zM1614 850l153 788h121q131 0 99 -163l-17 -89q-20 -104 -90 -155l-16 -381h-78l20 364h-41l-71 -364h-80zM1735 0l151 788h123q131 0 100 -163l-18 -88 q-18 -109 -90 -154l-14 -383h-80l18 365h-39l-69 -365h-82zM1780 1292h43q51 0 61 56l33 159q8 53 -43 54h-41zM1901 442h41q53 0 65 56l31 159q8 53 -43 54h-41zM1987 850l65 338l-16 450h82v-241l-4 -107l34 107l93 241h81l-190 -450l-66 -338h-79z" />
<glyph unicode="&#xb3;" horiz-adv-x="2904" d="M33 174l86 442q33 172 151 172q115 0 82 -170l-14 -73h-76l25 123q8 43 -31 43q-41 0 -49 -45l-107 -541q-10 -47 33 -47q37 0 47 47l29 147h76l-19 -98q-35 -174 -147 -174q-121 0 -86 174zM326 174l86 442q33 172 151 172q117 0 84 -172l-86 -442q-35 -174 -149 -174 q-121 0 -86 174zM393 125q-10 -47 33 -47q35 0 45 47l107 541q8 45 -29 45q-41 0 -49 -45zM592 0l151 788h95l-4 -448l-9 -119l111 567h70l-152 -788h-94l6 465l8 104l-110 -569h-72zM809 850l47 788h80l-29 -424l-14 -139l39 139l135 424h63l-28 -424l-15 -139l37 139 l136 424h79l-256 -788h-73l32 504l-159 -504h-74zM950 174l19 98h78l-29 -147q-8 -45 26 -45q33 0 41 45l19 90q16 76 -41 168q-51 94 -37 184l10 49q33 172 146 172t80 -172l-15 -71h-80l25 121q8 45 -25 45q-35 0 -43 -45l-20 -107q-6 -27 6 -63.5t37 -85.5 q55 -96 43 -166l-14 -70q-35 -174 -146 -174q-115 0 -80 174zM1219 850l153 788h199l-15 -77h-120l-54 -269h70l-14 -78h-70l-55 -286h121l-17 -78h-198zM1239 174l119 614h78l-129 -663q-10 -47 32 -47q37 0 47 47l130 663h77l-118 -614q-35 -174 -150 -174q-121 0 -86 174 zM1438 850l258 788h80l-50 -788h-79l6 119h-101l-34 -119h-80zM1505 0l152 788h78l-138 -710h123l-14 -78h-201zM1581 1053h80l18 223l13 141l-39 -139zM1759 850l154 788h121q129 0 96 -180l-6 -31q-35 -182 -164 -182h-45l-78 -395h-78zM1800 0l137 711h-79l14 77h237 l-14 -77h-80l-137 -711h-78zM1923 0l256 788h80l-47 -788h-80l8 119h-100l-37 -119h-80zM1929 1325h45q53 0 62 53l26 129q8 53 -43 54h-43zM2066 203h80l15 223l14 141l-37 -139zM2097 1024l86 442q33 172 152 172q117 0 84 -172l-86 -442q-33 -174 -152 -174 q-117 0 -84 174zM2165 975q-10 -47 33 -47q37 0 47 47l104 541q8 45 -29 45q-43 0 -51 -45zM2245 0l151 788h94l-6 -448l-8 -119l111 567h69l-151 -788h-92l6 465l6 104l-111 -569h-69zM2361 850l154 788h96l-8 -448l-6 -119l110 567h72l-153 -788h-97l8 465l7 104 l-111 -569h-72zM2619 0l138 711h-78l14 77h236l-15 -77h-78l-137 -711h-80zM2722 1024l18 98h80l-29 -147q-8 -45 25 -45q35 0 43 45l18 90q12 74 -43 166q-25 49 -36 94t0 92l10 49q33 172 145 172q113 0 80 -172l-14 -71h-78l22 121q8 45 -24 45q-35 0 -43 -45l-21 -107 q-8 -51 43 -149q55 -96 41 -166l-12 -70q-33 -174 -147 -174q-111 0 -78 174z" />
<glyph unicode="&#xb4;" horiz-adv-x="2377" d="M262 850l49 788h80l-31 -424l-12 -139l39 139l133 424h64l-29 -424l-14 -139l39 139l135 424h80l-258 -788h-74l33 504l-160 -504h-74zM326 0l256 788h80l-48 -788h-79l6 119h-101l-34 -119h-80zM469 203h80l14 223l15 141l-39 -139zM647 0l152 788h116q119 0 86 -172 l-86 -442q-35 -174 -151 -174h-117zM672 850l153 788h201l-14 -77h-123l-53 -269h69l-14 -78h-70l-55 -286h123l-17 -78h-200zM739 78h39q39 0 49 47l107 541q8 45 -33 45h-39zM891 850l260 788h78l-47 -788h-80l8 119h-102l-37 -119h-80zM1020 0l45 788h80l-29 -423 l-14 -140l39 140l135 423h80l-258 -788h-78zM1036 1053h78l19 223l14 141l-39 -139zM1212 850l154 788h121q129 0 96 -180l-6 -31q-35 -182 -164 -182h-45l-78 -395h-78zM1235 0l151 788h78l-151 -788h-78zM1382 1325h45q53 0 62 53l27 129q8 53 -43 54h-43zM1411 174l19 98 h77l-28 -147q-8 -45 24 -45q33 0 41 45l19 90q16 74 -39 168q-53 90 -37 184l10 49q33 172 143 172q113 0 80 -172l-14 -71h-80l25 121q8 45 -25 45t-41 -45l-20 -107q-10 -47 43 -149q53 -96 41 -166l-15 -70q-35 -174 -145 -174q-113 0 -78 174zM1550 1024l86 442 q33 172 152 172t86 -172l-86 -442q-33 -174 -154 -174q-117 0 -84 174zM1620 975q-10 -47 31 -47q39 0 49 47l104 541q8 45 -30 45q-41 0 -50 -45zM1698 174l86 442q33 172 151 172q119 0 86 -172l-86 -442q-35 -174 -151 -174q-121 0 -86 174zM1767 125q-10 -47 31 -47 q37 0 47 47l107 541q8 45 -31 45t-47 -45zM1817 850l153 788h94l-8 -448l-6 -119l111 567h71l-153 -788h-94l6 465l6 104l-111 -569h-69zM1966 0l152 788h120q131 0 101 -163l-19 -88q-18 -106 -88 -154l-16 -383h-80l21 365h-43l-70 -365h-78zM2128 442h45q51 0 63 56 l31 159q8 53 -43 54h-43zM2177 1024l18 98h80l-28 -147q-8 -45 24 -45q33 0 41 45l19 90q12 74 -43 166q-25 49 -35 94t0 92l10 49q33 172 145 172q111 0 78 -172l-14 -71h-78l23 121q8 45 -23 45q-35 0 -43 -45l-20 -107q-10 -55 43 -149q55 -94 39 -166l-13 -70 q-33 -174 -145 -174q-111 0 -78 174z" />
<glyph unicode="&#xb5;" horiz-adv-x="1896" d="M195 0l151 788h117q119 0 86 -172l-86 -442q-35 -174 -152 -174h-116zM266 850l49 788h80l-28 -424l-17 -139l39 139l135 424h80l-258 -788h-80zM287 78h39q39 0 49 47l106 541q8 45 -32 45h-39zM483 850l154 788h199l-15 -77h-121l-53 -269h70l-15 -78h-69l-55 -286h120 l-16 -78h-199zM494 0l151 788h201l-15 -77h-120l-54 -269h70l-14 -77h-70l-55 -287h121l-15 -78h-200zM733 850l154 788h80l-68 -346h80l68 346h77l-153 -788h-78l72 364h-80l-72 -364h-80zM780 174l19 98h78l-29 -147q-8 -45 24 -45q33 0 41 45l19 90q14 72 -41 168 q-51 92 -35 184l10 49q33 172 144 172t77 -172l-14 -71h-78l25 121q8 45 -25 45t-41 -45l-20 -107q-6 -27 5 -63.5t36 -85.5q53 -92 41 -166l-15 -70q-35 -174 -143 -174q-113 0 -78 174zM1034 0l152 788h78l-152 -788h-78zM1034 850l154 788h80l-154 -788h-80zM1208 174 l86 442q33 172 152 172q123 0 90 -170l-14 -73h-76l24 123q8 43 -38 43q-39 0 -48 -45l-106 -541q-10 -47 31 -47q43 0 53 47l33 160h-45l14 80h121l-70 -365l-29 53q-35 -53 -92 -53q-121 0 -86 174zM1210 1024l86 442q33 172 152 172q115 0 82 -170l-14 -73h-74l24 123 q6 43 -32 43q-43 0 -52 -45l-104 -541q-10 -47 33 -47q39 0 49 47l29 147h73l-18 -98q-33 -174 -150 -174t-84 174zM1468 850l154 788h78l-137 -710h123l-17 -78h-201zM1473 0l151 788h94l-6 -448l-6 -119l111 567h69l-151 -788h-95l9 465l6 104l-111 -569h-71zM1710 850 l154 788h202l-14 -77h-123l-53 -269h70l-15 -78h-69l-56 -286h123l-16 -78h-203z" />
<glyph unicode="&#xb6;" horiz-adv-x="2134" d="M268 850l47 788h82l-30 -424l-13 -139l37 139l135 424h64l-29 -424l-14 -139l39 139l133 424h80l-256 -788h-74l33 504l-160 -504h-74zM379 0l151 788h119q119 0 86 -172l-86 -442q-35 -174 -151 -174h-119zM471 78h41q37 0 47 47l107 541q8 45 -31 45h-41zM678 0 l151 788h201l-14 -77h-121l-53 -269h69l-14 -77h-70l-55 -287h121l-14 -78h-201zM678 850l153 788h199l-14 -77h-121l-53 -269h69l-14 -78h-70l-55 -286h121l-16 -78h-199zM897 850l258 788h80l-49 -788h-78l6 119h-102l-35 -119h-80zM963 174l18 98h80l-29 -147 q-8 -45 27 -45q33 0 41 45l18 90q14 72 -41 168q-53 92 -39 184l11 49q33 172 147 172q111 0 78 -172l-14 -71h-78l24 121q8 45 -24 45q-35 0 -43 -45l-21 -107q-6 -27 5.5 -63.5t35.5 -85.5q55 -92 43 -166l-14 -70q-35 -174 -144 -174q-117 0 -81 174zM1040 1053h80 l19 223l12 141l-39 -139zM1219 0l151 788h80l-152 -788h-79zM1219 850l153 788h121q129 0 96 -180l-6 -31q-35 -182 -164 -182h-45l-78 -395h-77zM1389 1325h45q53 0 61 53l27 129q8 53 -43 54h-43zM1395 174l86 442q33 172 151 172q121 0 88 -170l-14 -73h-76l25 123 q8 43 -37 43q-41 0 -49 -45l-107 -541q-10 -47 31 -47q43 0 53 47l33 160h-43l14 80h121l-69 -365l-29 53q-37 -53 -94 -53q-119 0 -84 174zM1556 1024l86 442q33 172 152 172q117 0 84 -172l-86 -442q-33 -174 -152 -174q-117 0 -84 174zM1626 975q-10 -47 31 -47 q37 0 47 47l104 541q8 45 -28 45q-41 0 -49 -45zM1659 0l151 788h95l-7 -448l-8 -119l111 567h72l-152 -788h-94l6 465l6 104l-110 -569h-70zM1823 850l153 788h95l-9 -448l-6 -119l111 567h71l-153 -788h-94l6 465l6 104l-111 -569h-69z" />
<glyph unicode="&#xb7;" horiz-adv-x="3080" d="M164 850l153 790h121q133 0 99 -180l-7 -33q-35 -182 -165 -182h-43l-78 -395h-80zM336 1325h43q55 0 63 53l27 131q10 53 -45 54h-41zM469 850l154 790h120q133 0 101 -165l-17 -86q-23 -113 -92 -158l-14 -381h-82l23 364h-44l-71 -364h-78zM633 1294h45q53 0 61 54 l33 161q10 53 -43 54h-43zM805 1024l86 442q33 174 151 174q119 0 86 -174l-86 -442q-33 -174 -153 -174q-117 0 -84 174zM874 975q-10 -47 31 -47q37 0 47 47l107 543q6 45 -31 45q-41 0 -47 -45zM1106 1024l18 98h78l-28 -147q-8 -45 24 -45q35 0 43 45l19 90 q12 72 -41 168q-27 47 -37.5 92t0.5 92l10 49q33 174 143 174q113 0 80 -174l-14 -71h-78l25 123q6 43 -27 43q-35 0 -41 -43l-23 -109q-10 -53 46 -149q55 -94 38 -168l-12 -68q-33 -174 -147 -174q-109 0 -76 174zM1352 0l153 791h117q117 0 84 -175l-86 -442 q-33 -174 -152 -174h-116zM1409 850l139 713h-78l15 77h237l-14 -77h-80l-139 -713h-80zM1444 78h39q41 0 49 45l106 543q8 45 -32 45h-39zM1604 850l153 790h78l-68 -346h78l68 346h80l-154 -790h-80l72 364h-78l-72 -364h-77zM1651 0l153 791h203l-16 -80h-123l-53 -271 h67l-14 -75h-68l-55 -287h121l-15 -78h-200zM1903 850l153 790h201l-14 -77h-123l-54 -269h72l-14 -80h-72l-55 -286h123l-17 -78h-200zM1935 174l19 96h80l-29 -147q-10 -45 25 -45q31 0 41 45l18 92q14 70 -39 168q-53 94 -39 182l10 51q33 174 148 175q111 0 78 -175 l-15 -71h-80l25 121q8 45 -25 45t-41 -45l-22 -109q-10 -51 45 -147q53 -98 39 -168l-12 -68q-33 -174 -146 -174t-80 174zM2191 0l154 791h78l-154 -791h-78zM2206 850l139 713h-78l14 77h236l-14 -77h-80l-139 -713h-78zM2367 174l87 442q33 174 153 175q119 0 86 -175 l-14 -71h-76l25 121q8 45 -37 45q-39 0 -47 -45l-107 -543q-8 -45 29 -45q47 0 55 45l33 162h-47l14 80h123l-70 -365l-30 51q-31 -51 -93 -51q-117 0 -84 174zM2398 850l154 790h80l-154 -790h-80zM2576 1024l86 442q33 174 150 174q115 0 82 -174l-15 -71h-75l24 123 q6 45 -30 45q-41 0 -48 -45l-106 -543q-10 -47 31 -47q37 0 47 47l28 147h76l-18 -98q-33 -174 -150 -174q-115 0 -82 174zM2632 0l153 791h94l-8 -451l-6 -121l113 572h69l-153 -791h-94l4 463l10 106l-111 -569h-71zM2867 1024l19 98h80l-29 -147q-8 -45 24 -45 q33 0 41 45l19 90q12 70 -39 168q-27 47 -38 92t-1 92l10 49q33 174 146 174t79 -174l-14 -71h-80l25 123q6 43 -25 43q-35 0 -41 -43l-22 -109q-4 -27 6 -63.5t39 -85.5q53 -98 39 -168l-13 -68q-33 -174 -147 -174q-111 0 -78 174z" />
<glyph unicode="&#xb8;" horiz-adv-x="2830" d="M164 850l153 790h121q131 0 97 -180l-7 -33q-35 -182 -166 -182h-40l-78 -395h-80zM336 1325h41q55 0 63 53l27 131q10 53 -43 54h-41zM467 850l154 790h122q131 0 99 -165l-17 -86q-23 -113 -92 -158l-14 -381h-80l20 364h-41l-71 -364h-80zM633 1294h43q53 0 61 54 l33 161q10 53 -41 54h-43zM803 1024l86 442q33 174 151 174q121 0 88 -174l-86 -442q-33 -174 -155 -174q-117 0 -84 174zM872 975q-10 -47 31 -47q39 0 49 47l107 543q6 45 -33 45q-41 0 -47 -45zM1104 0l153 791h117q117 0 84 -175l-86 -442q-33 -174 -151 -174h-117z M1104 1024l18 98h80l-28 -147q-8 -45 24 -45q33 0 41 45l18 90q12 74 -38 168q-57 96 -39 184l10 49q33 174 145 174q113 0 80 -174l-14 -71h-80l25 123q6 43 -25 43q-35 0 -41 -43l-23 -109q-8 -51 43 -149q55 -96 41 -168l-12 -68q-33 -174 -147 -174q-111 0 -78 174z M1196 78h39q39 0 47 45l107 543q8 45 -31 45h-39zM1403 0l153 791h201l-16 -80h-123l-53 -271h71l-14 -75h-72l-55 -287h123l-14 -78h-201zM1409 850l139 713h-80l15 77h237l-14 -77h-78l-139 -713h-80zM1602 850l153 790h80l-68 -346h78l68 346h78l-154 -790h-78l72 364 h-78l-72 -364h-79zM1688 174l18 96h80l-29 -147q-10 -45 25 -45q31 0 41 45l18 92q16 76 -41 168q-53 92 -37 182l11 51q33 174 147 175q111 0 78 -175l-14 -71h-80l24 121q8 45 -24 45q-33 0 -41 -45l-23 -109q-8 -45 43 -147q57 -96 41 -168l-12 -68q-33 -174 -146 -174 t-79 174zM1903 850l153 790h201l-14 -77h-123l-54 -269h70l-14 -80h-70l-55 -286h123l-17 -78h-200zM1944 0l153 791h78l-154 -791h-77zM2118 174l86 442q33 174 155 175q119 0 86 -175l-14 -71h-76l25 121q8 45 -37 45q-41 0 -49 -45l-107 -543q-8 -45 33 -45q43 0 51 45 l33 162h-43l14 80h121l-69 -365l-31 51q-33 -51 -90 -51q-121 0 -88 174zM2189 1024l19 98h78l-29 -147q-8 -45 24 -45q35 0 43 45l19 90q12 72 -41 168q-27 47 -37 92t0 92l10 49q33 174 144 174q113 0 80 -174l-15 -71h-78l25 123q6 43 -27 43q-35 0 -41 -43l-22 -109 q-10 -53 45 -149q53 -98 39 -168l-12 -68q-33 -174 -148 -174q-109 0 -76 174zM2384 0l153 791h95l-6 -451l-11 -121l113 572h72l-154 -791h-94l4 463l8 106l-110 -569h-70zM2443 850l154 790h78l-154 -790h-78zM2619 1024l19 98h80l-29 -147q-8 -45 25 -45t41 45l18 90 q12 74 -39 168q-57 96 -39 184l10 49q33 174 146 174t80 -174l-15 -71h-80l25 123q6 43 -25 43q-35 0 -40 -43l-23 -109q-8 -51 43 -149q55 -96 41 -168l-12 -68q-33 -174 -148 -174q-111 0 -78 174z" />
<glyph unicode="&#xb9;" horiz-adv-x="2121" d="M31 172l86 442q33 174 151 174q115 0 82 -174l-14 -71h-76l23 121q10 47 -31 47q-37 0 -47 -47l-105 -541q-10 -43 29 -43t49 43l29 147h76l-19 -98q-35 -172 -147 -172q-121 0 -86 172zM260 0l254 788h80l-45 -788h-82l8 117h-100l-37 -117h-78zM401 203h78l19 221 l14 141l-41 -141zM406 848l153 788h115l-29 -424l-16 -139l39 137l135 426h119l-154 -788h-72l119 616l-24 -94l-173 -522h-65l33 530l10 86l-119 -616h-71zM580 0l151 788h121q133 0 96 -182l-6 -31q-35 -182 -166 -182h-43l-76 -393h-77zM748 473h43q51 0 61 53l27 131 q10 53 -41 54h-43zM864 1020l86 442q33 174 152 174q117 0 84 -174l-86 -442q-31 -172 -152 -172q-115 0 -84 172zM932 0l137 711h-78l15 77h235l-14 -77h-78l-137 -711h-80zM936 973q-8 -45 29 -45q39 0 47 45l104 538q8 47 -31 48q-37 0 -45 -48zM1157 172l119 616h78 l-129 -665q-10 -43 32 -43q37 0 48 43l129 665h79l-118 -616q-35 -172 -152 -172q-121 0 -86 172zM1182 848l137 711h-80l16 77h238l-16 -77h-80l-137 -711h-78zM1372 848l154 788h80l-154 -788h-80zM1423 0l152 788h121q131 0 100 -165l-18 -88q-23 -109 -90 -154l-15 -381 h-78l19 362h-41l-70 -362h-80zM1548 1020l86 442q33 174 154 174q115 0 82 -174l-86 -442q-31 -172 -150 -172q-117 0 -86 172zM1587 442h43q51 0 64 54l30 161q10 53 -43 54h-41zM1618 973q-8 -45 33 -45q37 0 45 45l104 538q8 47 -28 48q-41 0 -50 -48zM1724 0l152 788 h199l-15 -77h-121l-53 -269h70l-14 -80h-70l-55 -282h120l-14 -80h-199zM1815 848l153 788h94l-6 -450l-8 -117l111 567h71l-153 -788h-97l9 463l8 106l-111 -569h-71z" />
<glyph unicode="&#xba;" horiz-adv-x="2390" d="M0 0l152 788h116q119 0 86 -174l-16 -79q-18 -104 -80 -134q51 -29 29 -133l-19 -96q-35 -172 -151 -172h-117zM92 80h39q39 0 49 43l37 192q8 43 -29 47h-41zM162 442h41q39 0 49 43l33 179q10 47 -31 47h-39zM332 172l86 442q33 174 149 174q119 0 86 -174l-86 -442 q-35 -172 -151 -172q-119 0 -84 172zM401 123q-10 -43 29 -43t49 43l105 541q10 47 -31 47q-37 0 -47 -47zM567 0l254 788h82l-47 -788h-80l6 117h-98l-37 -117h-80zM709 203h79l17 221l14 141l-39 -141zM887 0l151 788h123q129 0 99 -165l-19 -88q-23 -109 -88 -154 l-16 -381h-78l18 362h-41l-69 -362h-80zM1030 1020l21 98h79l-28 -145q-8 -45 24 -45q33 0 41 45l17 90q16 72 -39 166q-55 96 -37 184l8 49q33 174 148 174q111 0 77 -174l-14 -71h-80l25 120q8 47 -25 48q-33 0 -41 -48l-20 -106q-10 -53 45 -150q51 -94 39 -163l-15 -72 q-31 -172 -145 -172q-111 0 -80 172zM1051 442h43q51 0 63 54l31 161q10 53 -41 54h-43zM1188 0l151 788h117q119 0 86 -174l-86 -442q-35 -172 -151 -172h-117zM1280 80h39q39 0 49 43l105 541q10 47 -31 47h-39zM1337 848l138 711h-80l16 77h238l-17 -77h-80l-137 -711 h-78zM1487 0l151 788h80l-151 -788h-80zM1563 1020l86 442q33 174 151 174q117 0 84 -174l-86 -442q-31 -172 -151 -172q-115 0 -84 172zM1628 0l152 788h94l-4 -450l-8 -119l110 569h70l-152 -788h-94l6 463l8 106l-110 -569h-72zM1632 973q-8 -45 31 -45t47 45l105 538 q8 47 -31 48q-39 0 -47 -48zM1827 848l153 788h123q131 0 97 -163l-17 -89q-23 -111 -90 -155l-14 -381h-80l20 362h-43l-69 -362h-80zM1987 172l86 442q33 174 153 174q119 0 86 -174l-14 -71h-76l23 121q10 47 -35 47q-39 0 -49 -47l-105 -541q-10 -43 31 -43q43 0 53 43 l33 162h-45l14 77h121l-70 -362l-28 53q-35 -53 -92 -53q-121 0 -86 172zM1993 1290h45q51 0 61 53l31 162q12 53 -43 54h-43zM2202 848l65 336l-18 452h82v-243l-4 -105l34 105l93 243h83l-194 -452l-66 -336h-75z" />
<glyph unicode="&#xbb;" horiz-adv-x="2525" d="M2 0l152 788h198l-14 -77h-121l-53 -269h69l-14 -80h-69l-56 -282h121l-14 -80h-199zM254 0l152 788h116q119 0 86 -174l-86 -442q-35 -172 -151 -172h-117zM346 80h39q39 0 49 43l105 541q10 47 -31 47h-39zM553 0l152 788h79l-151 -788h-80zM743 0l138 711h-76l14 77 h236l-15 -77h-79l-138 -711h-80zM938 0l152 788h77l-151 -788h-78zM1079 0l152 788h94l-6 -450l-8 -119l110 569h70l-152 -788h-92l4 463l9 106l-111 -569h-70zM1438 172l86 442q33 174 149 174q123 0 90 -174l-14 -71h-76l23 121q10 47 -37 47q-39 0 -49 -47l-105 -541 q-10 -43 31 -43q43 0 53 43l33 162h-45l14 77h123l-69 -362l-29 53q-37 -53 -94 -53q-119 0 -84 172zM1516 848l153 788h199l-17 -77h-120l-52 -269h70l-16 -80h-72l-70 -362h-75zM1761 848l154 788h78l-154 -788h-78zM1823 0l151 788h117q119 0 86 -174l-16 -79 q-18 -104 -80 -134q51 -29 28 -133l-18 -96q-35 -172 -152 -172h-116zM1903 848l153 788h78l-137 -708h121l-17 -80h-198zM1913 80h41q37 0 47 43l37 192q8 45 -29 47h-41zM1982 442h41q39 0 50 43l32 179q10 47 -28 47h-41zM2144 848l154 788h115l-29 -424l-17 -139l39 137 l136 426h120l-153 -788h-72l119 616l-27 -94l-172 -522h-63l33 530l8 86l-119 -616h-72zM2193 0l64 336l-16 452h79l2 -243l-6 -107l35 107l94 243h82l-192 -452l-64 -336h-78z" />
<glyph unicode="&#xbc;" horiz-adv-x="1724" d="M131 176l86 440q33 172 152 172q115 0 82 -172l-15 -73h-76l25 123q6 45 -31 45q-41 0 -47 -45l-104 -539q-12 -49 28 -49q37 0 50 49l28 147h76l-20 -98q-33 -176 -148 -176q-119 0 -86 176zM164 850l153 788h121q119 0 82 -174l-86 -442q-31 -172 -149 -172h-121z M260 928h41q35 0 45 45l105 540q8 47 -27 48h-41zM422 176l86 440q33 172 151 172q119 0 86 -172l-86 -440q-33 -176 -151 -176q-119 0 -86 176zM465 850l153 788h78l-153 -788h-78zM496 127q-12 -49 26 -49q23 0 34 12t17 37l105 539q4 23 -3 34t-30 11q-39 0 -45 -45z M575 850l259 788h79l-49 -788h-80l7 119h-101l-33 -119h-82zM657 0l258 788h80l-45 -788h-82l6 119h-98l-37 -119h-82zM719 1053h80l16 221l14 141l-36 -137zM803 203h80l14 223l14 141l-37 -139zM897 850l154 788h75l-137 -710h125l-16 -78h-201zM1014 176l86 440 q33 172 151 172q113 0 80 -172l-14 -73h-76l25 123q6 45 -29 45q-45 0 -51 -45l-105 -539q-12 -49 33 -49q35 0 47 49l29 147h76l-21 -98q-33 -176 -145 -176q-119 0 -86 176zM1171 1022l86 442q37 174 154 174q121 0 84 -174l-86 -442q-31 -172 -152 -172q-117 0 -86 172z M1241 973q-10 -45 33 -45q37 0 47 45l104 540q8 47 -28 48q-43 0 -51 -48zM1272 0l151 788h80l-67 -348h77l68 348h80l-152 -788h-79l69 365h-78l-69 -365h-80zM1470 1022l86 442q37 174 156 174q125 0 88 -174l-12 -69h-80l23 118q8 47 -33 48q-45 0 -53 -48l-105 -540 q-4 -20 5 -32.5t28 -12.5q43 0 53 45l31 164h-45l16 75h125l-72 -362l-32 53q-29 -53 -93 -53q-117 0 -86 172z" />
<glyph unicode="&#xbd;" horiz-adv-x="2256" d="M164 850l153 788h119q121 0 84 -174l-86 -442q-31 -172 -151 -172h-119zM260 928h39q35 0 45 45l105 540q8 47 -27 48h-39zM465 850l153 788h78l-153 -788h-78zM575 850l259 788h79l-47 -788h-82l9 119h-103l-37 -119h-78zM682 176l86 440q33 172 152 172q115 0 81 -172 l-14 -73h-74l25 123q6 45 -33 45q-41 0 -47 -45l-104 -539q-12 -49 28 -49q39 0 52 49l28 147h74l-21 -98q-33 -176 -147 -176q-119 0 -86 176zM719 1053h78l18 221l16 141l-40 -137zM895 850l154 788h79l-137 -710h121l-16 -78h-201zM975 176l86 440q33 172 151 172 q117 0 84 -172l-86 -440q-33 -176 -149 -176q-119 0 -86 176zM1044 127q-12 -49 31 -49q39 0 51 49l105 539q6 45 -33 45q-43 0 -49 -45zM1169 1022l86 442q37 174 156 174t82 -174l-86 -442q-31 -172 -150 -172t-88 172zM1210 0l256 788h80l-47 -788h-80l6 119h-100 l-35 -119h-80zM1241 973q-10 -45 33 -45q35 0 45 45l104 540q8 47 -26 48q-43 0 -51 -48zM1354 203h78l18 223l12 141l-39 -139zM1470 1022l86 442q37 174 156 174q123 0 86 -174l-12 -69h-78l23 118q4 25 -3.5 36.5t-31.5 11.5q-18 0 -32.5 -11.5t-18.5 -36.5l-105 -540 q-4 -20 5 -32.5t28 -12.5q43 0 53 45l31 164h-45l16 75h121l-72 -362l-26 53q-35 -53 -95 -53q-117 0 -86 172zM1567 176l86 440q33 172 147 172q117 0 84 -172l-14 -73h-78l25 123q4 23 -2.5 34t-28.5 11q-41 0 -47 -45l-105 -539q-12 -49 29 -49q23 0 33 12t16 37l29 147 h78l-21 -98q-33 -176 -149 -176q-115 0 -82 176zM1769 1022l121 616h76l-129 -665q-4 -20 5 -32.5t26 -12.5q41 0 51 45l129 665h78l-121 -616q-31 -172 -154 -172q-113 0 -82 172zM1823 0l151 788h78l-67 -348h81l68 348h78l-152 -788h-78l70 365h-82l-69 -365h-78z M2036 850l153 788h201l-14 -77h-125l-53 -269h71l-14 -80h-72l-55 -284h123l-17 -78h-198z" />
<glyph unicode="&#xbe;" horiz-adv-x="745" d="M166 850l258 788h80l-49 -788h-80l8 117h-100l-37 -117h-80zM309 1053h80l17 221l14 141l-37 -139zM485 850l154 788h94l-6 -448l-8 -119l110 567h70l-154 -788h-92l9 463l6 104l-111 -567h-72z" />
<glyph unicode="&#xbf;" horiz-adv-x="2990" d="M164 848l153 788h121q131 0 99 -182l-7 -31q-37 -182 -168 -182h-45l-75 -393h-78zM334 1321h45q51 0 61 53l25 129q12 55 -43 56h-43zM469 848l154 788h120q129 0 97 -166l-17 -86q-23 -113 -90 -157l-14 -379h-80l18 362h-41l-69 -362h-78zM633 1290h43q55 0 63 53 l31 160q12 55 -43 56h-43zM801 1022l86 440q33 174 153 174q117 0 84 -174l-86 -440q-33 -174 -151 -174q-119 0 -86 174zM870 971q-8 -45 31 -45q41 0 49 45l105 540q8 47 -31 48q-41 0 -49 -48zM1067 848l154 788h118q115 0 82 -174l-86 -440q-33 -174 -149 -174h-119z M1163 926h37q41 0 49 45l105 540q8 47 -31 48h-37zM1399 1022l121 614h79l-129 -665q-8 -45 29 -45q43 0 51 45l129 665h76l-121 -614q-33 -174 -149 -174q-119 0 -86 174zM1698 1022l86 440q16 88 56 131t99 43q111 0 78 -174l-14 -71h-74l25 120q8 47 -33 48 q-39 0 -47 -48l-105 -540q-8 -45 29 -45q43 0 51 45l29 147h74l-21 -96q-33 -174 -145 -174q-121 0 -88 174zM2009 848l137 711h-80l17 77h235l-16 -77h-78l-137 -711h-78zM2200 848l153 788h82l-154 -788h-81zM2374 1022l86 440q33 174 153 174q117 0 84 -174l-86 -440 q-33 -174 -151 -174q-119 0 -86 174zM2445 971q-8 -45 29 -45q41 0 49 45l105 540q8 47 -31 48q-39 0 -47 -48zM2642 848l154 788h92l-4 -448l-9 -119l111 567h70l-154 -788h-92l6 463l6 104l-110 -567h-70z" />
<glyph unicode="&#xc0;" horiz-adv-x="3047" d="M-2 0v1638h2740v-1638h-2740zM246 561h2238v123h-2238v-123zM248 193h67q68 0 68 145q0 141 -66 141h-69v-286zM248 1331h270v-598h154v598h1812v117h-2236v-117zM289 236v200h22q29 0 29 -100t-31 -100h-20zM428 193h41v200h-41v-200zM428 436h41v43h-41v-43zM510 174 q0 -59 57 -59q51 -1 51 69v209h-36v-22q-8 27 -33 26q-39 0 -39 -100q0 -102 39 -102q23 0 31 22v-39q0 -33 -13 -33q-12 0 -15 7.5t-3 21.5h-39zM545 287q0 45 3 61.5t17 16.5q15 0 15 -72q0 -63 -15 -64q-20 0 -20 58zM666 193h39v200h-39v-200zM666 436h39v43h-39v-43z M731 358h17v-125q0 -43 36 -43q18 0 23 3v32h-6q-14 0 -15 25v108h21v35h-21v58l-38 -25v-33h-17v-35zM829 252q0 -63 37 -64q27 0 39 29l2 -24h37q-2 25 -2 36v103q0 66 -55 65q-27 0 -39 -12q-16 -18 -17 -49h41q0 31 15 31q16 0 16 -31v-14q-37 0 -49 -11 q-25 -14 -25 -59zM829 733h146v230h411v-236h121v559h-121v-231h-411v231h-146v-553zM870 254q0 33 33 37q0 -68 -18 -68q-14 0 -15 31zM987 193h39v286h-39v-286zM1075 193h39v286h-39v-286zM1145 393l37 -203l-17 -75h41l58 278h-39l-23 -141l-18 141h-39zM1362 193h41 v221l37 -221h41l41 221v-221h41v286h-66l-33 -196h-2l-30 196h-70v-286zM1569 725h184l219 215l209 -213h186l-301 303l256 256h-190l-174 -176l-172 176h-187l265 -260zM1599 252q0 -63 39 -64q25 0 35 29l2 -24h37v16q-2 14 -2 20v103q0 66 -55 65q-25 0 -38 -13t-13 -48 h36q0 31 17 31q16 0 16 -31v-14q-37 0 -49 -11q-25 -14 -25 -59zM1638 254q0 33 35 37q0 -68 -22 -68q-12 0 -13 31zM1745 258q-4 -70 55 -70q53 1 53 62q0 37 -35.5 59.5t-35.5 34.5q0 23 16 23q6 0 9 -5.5t3 -25.5h39q2 61 -47 61q-57 0 -57 -57q0 -33 33.5 -55.5 t33.5 -42.5q0 -18 -12 -19q-10 0 -14 8.5t-4 26.5h-37zM1870 358h16v-125q0 -43 37 -43q18 0 21 3v32h-5q-14 0 -14 25v108h21v35h-21v58l-39 -25v-33h-16v-35zM1970 295q0 -106 55 -107q29 0 43.5 18.5t14.5 53.5h-39q0 -35 -19 -35q-16 0 -16 58h74q4 115 -58 114 q-55 0 -55 -102zM2009 315q0 49 16 50q21 -1 21 -50h-37zM2122 193h39v108q0 49 37 47v49q-27 0 -39 -30v26h-37v-200zM2220 295q0 -106 59 -107q55 0 56 72h-39q0 -35 -17 -35q-20 0 -20 58h78q4 115 -58 114q-59 0 -59 -102zM2259 315q0 49 20 50q17 -1 17 -50h-37z M2372 295q0 -106 38 -107q25 0 33 27v-22h39v286h-39v-104q-14 23 -33 22q-39 0 -38 -102zM2410 295q0 70 15 70q18 0 18 -70q0 -72 -18 -72q-14 0 -15 72zM2503 618q0 -25 17 -41t40 -16q25 0 42 16t17 41q0 55 -59 56q-57 0 -57 -56zM2517 618q0 47 43 48q47 -1 47 -48 q0 -49 -47 -49q-43 0 -43 49zM2540 586h10v26h10l18 -26h13l-21 26q18 4 19 19q0 20 -25 20h-24v-65zM2550 621v22h12q16 0 16 -10q0 -12 -18 -12h-10z" />
<glyph unicode="&#xc1;" horiz-adv-x="2404" d="M0 0v1636h2238v-1636h-2238zM162 360h1915v914h-1915v-914zM174 104q14 -10 41 -10q74 1 74 62q0 33 -42 52t-42 36q0 27 28 26q23 0 35 -24h4q2 10 7 26q-12 14 -43 15q-59 0 -60 -58q0 -33 40 -53t40 -39q0 -29 -31 -28q-35 0 -39 30h-4q-2 -16 -8 -35zM180 1331 q2 0 10 2h11.5h27.5q16 -2 33 -2q39 0 66.5 27t27.5 72q0 88 -104 88h-27q-20 -2 -24 -2q-14 0 -21 2q2 -23 2 -76v-37q0 -49 -2 -74zM225 1348v153q2 0 8 2h19q61 1 61 -71q0 -86 -67 -86q-16 0 -21 2zM268 700q0 57 39 108.5t96 63.5q66 27 138 27q20 0 106 -18v284h301 v-270h90v82l299 137v-219h80v-72h-80v-233q23 -20 41 -21q12 0 32 4.5t28 4.5q20 0 56 -6.5t52 -6.5q66 0 66 43q0 2 -2 6q-16 27 -72.5 68t-73.5 74q-2 8 -2 22q0 66 103 101q76 25 172 24q141 0 202 -31v-4q0 -27 -28 -26h-29q-43 0 -57 -23v-6q0 -31 69.5 -81t69.5 -97 v-6q0 -63 -106 -99q-84 -27 -183 -26h-14q-90 0 -166 20q-20 8 -39 8q-43 0 -118.5 -14t-112.5 -14q-162 0 -193 90v229h-84v-319h-303v22q-55 -27 -135 -26q-102 0 -172 59t-70 141zM377 164q0 -70 84 -70q80 0 80 86q0 68 4 105q-4 -4 -15 -4q-8 0 -14 4q0 -14 4 -39v-37 q0 -98 -49 -98q-51 0 -51 77q0 57 2 97q-8 -4 -21 -4q-18 0 -24 4v-121zM535 1331q4 0 10 2h12h10q9 -2 11 -2q-2 25 -3 74v37q0 53 3 76q-6 -2 -21 -2q-16 0 -22 2q0 -10 4 -35v-41v-37v-39q-4 -25 -4 -35zM567 705q0 -59 54 -105l26 -10v221h-2q-78 -29 -78 -106zM641 96 q2 0 12 2h10.5h14.5q4 -2 8 -2v35q-4 25 -4 39v14h6l47 -88q2 0 10 2h15.5h13.5q4 -2 8 -2q-39 61 -53 92q41 10 41 50q0 25 -15.5 36t-52.5 11h-20q-14 -4 -18 -4q-16 0 -23 4q2 -25 2 -78v-37q0 -49 -2 -74zM682 195q0 10 4 36v37q43 0 43 -37t-39 -36h-8zM758 1417 q0 -88 108 -88q31 0 70 10q-2 4 -2 31q0 10 2 27v16h-41q0 2 2 -12v-33v-20q-8 -4 -31 -5q-66 0 -65 78q0 84 67 84q35 0 56 -28h2q2 12 8 28q-27 16 -66 17q-111 0 -110 -105zM866 96l6 2h13.5h11.5q10 -2 12 -2q-2 25 -2 74v14h2l47 -88q4 0 13 2h11h15q7 -2 11 -2 q-18 31 -58 92q45 10 45 50q0 25 -22 34q-10 12 -45 13h-21q-14 -4 -18 -4q-18 0 -21 4v-37v-41v-37v-39v-35zM907 195v73q43 0 43 -37t-39 -36h-4zM1073 190q0 -96 107 -96q45 0 72.5 26.5t27.5 69.5q0 96 -100 97q-45 0 -76 -29t-31 -68zM1118 188q0 82 62 82q57 1 57 -73 q0 -88 -59 -88t-60 79zM1118 1331q4 0 15 2h9h9q10 -2 12 -2q-2 25 -2 74v37q0 53 2 76q-6 -2 -22 -2q-14 0 -23 2q4 -23 4 -76v-37q0 -49 -4 -74zM1341 1495q18 2 50 2q2 -2 2 -24v-68q0 -49 -2 -74q2 0 8 2h13h11q8 -2 11 -2q-2 25 -2 74v92q35 0 47 -2v23q-20 -2 -68 -2 q-45 0 -70 2v-23zM1366 164q0 -70 84 -70q78 0 78 86q0 68 4 105q-4 -4 -14 -4q-8 0 -13 4q0 -14 2 -39v-37q0 -98 -47 -98q-51 0 -51 77q0 57 2 97q-6 -4 -22 -4t-23 4v-121zM1614 1331q4 0 8 2h7h7q2 -2 4 -2q6 18 21 58h63q2 -8 17 -58q2 0 10 2h14h11q6 -2 10 -2 q-35 76 -74 187h-18q-18 -51 -80 -187zM1624 96q6 2 14 2h4q4 -2 7 -2v23q-2 20 -2 45v63q59 -59 122 -131q2 2 7 2q-2 0 10 -2q0 109 6 189q-2 -4 -12 -4q-6 0 -11 4q2 -14 3 -129q-41 41 -121 129q-2 -4 -11 -4q-6 0 -10 4q0 -6 2 -25v-31q0 -106 -8 -133zM1667 1403 q10 23 27 63q8 -20 24 -63h-51zM1890 96q2 0 13 2h10h24q20 -2 33 -2q39 0 66.5 28t27.5 71q0 90 -102 90h-29q-18 -4 -22 -4q-14 0 -21 4q2 -25 2 -78v-37q0 -49 -2 -74zM1931 113v153q4 0 13 2h16q63 1 63 -71q0 -86 -65 -86q-20 0 -27 2zM1956 1331q-4 0 12 2h43h31 q14 -2 16 -2v25q-41 -6 -59 -6v92q0 53 2 76q-6 -2 -27 -2q-14 0 -18 2q2 -23 2 -76v-37q0 -49 -2 -74z" />
<glyph unicode="&#xc2;" horiz-adv-x="3694" d="M-2 0v1640h3434v-1640h-3434zM188 610q0 -147 123 -253.5t312 -106.5q139 0 243 47v-37h537v569h153v-411q53 -158 345 -158q74 0 208 24.5t203 24.5q31 0 70 -14q129 -35 301 -35h24q180 0 326 47q197 63 197 174v13q0 86 -127 176t-127 143v10q29 41 112 41h47 q49 0 50 47v11q-113 53 -361 53q-174 0 -309 -45q-186 -59 -186 -180q0 -25 2 -41q35 -59 135 -132t127 -118q4 -6 4 -13q0 -80 -117 -79q-33 0 -97.5 13t-98.5 13q-16 0 -51 -8t-54 -8q-41 0 -70 35v417h140v129h-140v396l-544 -246v-150h-162v486h-535v-510 q-145 31 -196 31q-129 0 -246 -43q-96 -27 -167 -118t-71 -194zM727 616q0 144 139 195h2v-399l-51 18q-90 80 -90 186z" />
<glyph unicode="&#xc3;" horiz-adv-x="2148" d="M117 422v795h1900v-795h-1900zM205 512h1722v614h-1722v-614zM590 608v422h184q141 0 141 -135t-141 -135h-94v-152h-90zM680 831h72q77 1 77 64q0 61 -77 61h-72v-125zM889 608l153 422h95l151 -422h-92l-31 94h-151l-33 -94h-92zM1036 772h107l-51 154h-5zM1327 608 v422h88v-342h201v-80h-289z" />
<glyph unicode="&#xc4;" horiz-adv-x="2174" d="M131 420v794h1901v-794h-1901zM219 510h1723v614h-1723v-614zM322 606v422h88l172 -283v283h86v-422h-93l-167 283h-2v-283h-84zM717 950v78h334v-78h-121v-344h-90v344h-123zM1075 745v3h88q0 -80 90 -80q78 0 78 53q0 37 -63 55q-106 31 -113 37q-66 31 -65 98 q0 59 49 97q43 31 104 30q164 0 164 -137h-86q-2 66 -80 66q-63 0 -63 -47q0 -31 47 -48q37 -8 73 -18q121 -35 121 -123q0 -133 -170 -133q-74 0 -121 35q-53 41 -53 112zM1458 815q0 96 54.5 159.5t148.5 63.5q68 0 117 -41t59 -110h-86q-12 74 -90 74q-113 0 -113 -146 q0 -141 113 -141q80 0 92 96h86q-6 -80 -55 -126t-123 -46q-94 0 -148.5 61.5t-54.5 155.5z" />
<glyph unicode="&#xc5;" horiz-adv-x="1443" d="M41 0v1366l133 -137v-1092zM41 0l133 137h1096l135 -137h-1364zM41 1366h457v133h411v-133h496l-135 -137h-361v-207h-411v207h-324zM1270 137v1092l135 137v-1366z" />
<glyph unicode="&#xc6;" horiz-adv-x="1443" d="M41 0v1366l133 -137v-1092zM41 0l133 137h1096l135 -137h-1364zM41 1366h463v133h411v-133h490l-135 -137h-355v-207h-411v207h-330zM504 477v410h411v-410h-411zM1270 137v1092l135 137v-1366z" />
<glyph unicode="&#xc7;" horiz-adv-x="1714" d="M41 1024v477h408v-135h815v133h409v-481h-135v-1018l-133 137v881h-141v211h-815v-205h-140v-887l-135 -137v1024h-133zM174 0l135 137h1096l133 -137h-1364z" />
<glyph unicode="&#xc8;" horiz-adv-x="1714" d="M41 1024v477h408v-135h815v133h409v-481h-135v-1018l-133 137v881h-141v211h-815v-205h-140v-887l-135 -137v1024h-133zM174 0l135 137h1096l133 -137h-1364zM653 477v410h412v-410h-412z" />
<glyph unicode="&#xc9;" horiz-adv-x="1714" d="M41 1024v477h408v-135h815v133h409v-481h-135v-1018l-133 137v881h-141v211h-815v-205h-140v-887l-135 -137v1024h-133zM174 0l135 137h344v203h412v-203h340l133 -137h-473v-137h-412v137h-479z" />
<glyph unicode="&#xca;" horiz-adv-x="1714" d="M41 1024v477h408v-135h204v133h412v-133h199v133h409v-481h-135v-1018l-133 137v881h-141v211h-199v-207h-412v207h-204v-205h-140v-887l-135 -137v1024h-133zM174 0l135 137h344v203h412v-203h340l133 -137h-473v-137h-412v137h-479z" />
<glyph unicode="&#xcb;" horiz-adv-x="1714" d="M41 1024v477h408v-135h815v133h409v-481h-135v-1018l-133 137v881h-141v211h-815v-205h-140v-887l-135 -137v1024h-133zM174 0l135 137h344v203h412v-203h340l133 -137h-473v-137h-412v137h-479zM653 477v410h412v-410h-412z" />
<glyph unicode="&#xcc;" horiz-adv-x="1714" d="M41 1024v477h408v-135h204v133h412v-133h199v133h409v-481h-135v-1018l-133 137v881h-141v211h-199v-207h-412v207h-204v-205h-140v-887l-135 -137v1024h-133zM174 0l135 137h1096l133 -137h-1364z" />
<glyph unicode="&#xcd;" horiz-adv-x="1714" d="M41 1024v477h408v-135h204v133h412v-133h199v133h409v-481h-135v-1018l-133 137v881h-141v211h-199v-207h-412v207h-204v-205h-140v-887l-135 -137v1024h-133zM174 0l135 137h1096l133 -137h-1364zM653 477v410h412v-410h-412z" />
<glyph unicode="&#xce;" horiz-adv-x="1714" d="M41 1024v477h408v-135h204v133h412v-133h199v133h409v-481h-135v-1018l-133 137v881h-141v211h-199v-207h-412v207h-204v-205h-140v-887l-135 -137v1024h-133zM174 0l135 137h344v203h412v-203h340l133 -137h-473v-137h-412v137h-479zM653 477v410h412v-410h-412z" />
<glyph unicode="&#xcf;" horiz-adv-x="1718" d="M41 -137v477h133v684h-133v477h408v-135h815v133h409v-481h-135v-678h139v-477h-409v137h-819v-137h-408zM309 340h140v-203h819v203h137v678h-141v211h-815v-205h-140v-684zM653 477v410h412v-410h-412z" />
<glyph unicode="&#xd0;" horiz-adv-x="1718" d="M41 -137v477h133v684h-133v477h408v-135h204v133h412v-133h199v133h409v-481h-135v-678h139v-477h-409v137h-819v-137h-408zM309 340h140v-203h819v203h137v678h-141v211h-199v-207h-412v207h-204v-205h-140v-684z" />
<glyph unicode="&#xd1;" horiz-adv-x="1718" d="M41 -137v477h133v684h-133v477h408v-135h204v133h412v-133h199v133h409v-481h-135v-678h139v-477h-409v137h-819v-137h-408zM309 340h140v-203h819v203h137v678h-141v211h-199v-207h-412v207h-204v-205h-140v-684zM653 477v410h412v-410h-412z" />
<glyph unicode="&#xd2;" d="M135 360l178 918q70 360 316 360t176 -360l-178 -918q-70 -360 -316 -360t-176 360zM279 258q-18 -94 63 -94q82 0 100 94l220 1122q16 94 -66 95q-82 0 -98 -95zM432 1817h178l78 -105h-84z" />
<glyph unicode="&#xd3;" d="M135 360l178 918q70 360 316 360t176 -360l-178 -918q-70 -360 -316 -360t-176 360zM279 258q-18 -94 63 -94q82 0 100 94l220 1122q16 94 -66 95q-82 0 -98 -95zM571 1712l119 105h178l-213 -105h-84z" />
<glyph unicode="&#xd4;" d="M135 360l178 918q70 360 316 360t176 -360l-178 -918q-70 -360 -316 -360t-176 360zM279 258q-18 -94 63 -94q82 0 100 94l220 1122q16 94 -66 95q-82 0 -98 -95zM444 1712l170 105h95l127 -105h-148l-31 82l-63 -82h-150z" />
<glyph unicode="&#xd5;" d="M135 360l178 918q70 360 316 360t176 -360l-178 -918q-70 -360 -316 -360t-176 360zM279 258q-18 -94 63 -94q82 0 100 94l220 1122q16 94 -66 95q-82 0 -98 -95zM457 1712q6 45 38.5 75t73.5 30q25 0 51.5 -6.5t50 -14.5t45 -14t38.5 -6q35 4 45 41h59q-10 -53 -40 -79 t-66 -26q-51 0 -103 21q-55 20 -88 18q-35 0 -45 -39h-59z" />
<glyph unicode="&#xd6;" d="M135 360l178 918q70 360 316 360t176 -360l-178 -918q-70 -360 -316 -360t-176 360zM279 258q-18 -94 63 -94q82 0 100 94l220 1122q16 94 -66 95q-82 0 -98 -95zM453 1712l20 105h98l-20 -105h-98zM731 1712l21 105h100l-21 -105h-100z" />
<glyph unicode="&#xd7;" horiz-adv-x="548" d="M195 709l147 125l-100 124l110 93l103 -123l147 123l74 -93l-148 -124l99 -123l-111 -93l-98 123l-150 -125z" />
<glyph unicode="&#xd8;" d="M135 360l178 918q70 360 316 360t176 -360l-178 -918q-70 -360 -316 -360t-176 360zM279 258q-18 -94 63 -94q82 0 100 94l220 1122q16 94 -66 95q-82 0 -98 -95z" />
<glyph unicode="&#xd9;" d="M135 360l248 1278h164l-268 -1380q-18 -94 63 -94q82 0 100 94l269 1380h163l-247 -1278q-70 -360 -316 -360t-176 360zM436 1817h178l78 -105h-84z" />
<glyph unicode="&#xda;" d="M135 360l248 1278h164l-268 -1380q-18 -94 63 -94q82 0 100 94l269 1380h163l-247 -1278q-70 -360 -316 -360t-176 360zM524 1712l119 105h178l-213 -105h-84z" />
<glyph unicode="&#xdb;" d="M135 360l248 1278h164l-268 -1380q-18 -94 63 -94q82 0 100 94l269 1380h163l-247 -1278q-70 -360 -316 -360t-176 360zM444 1712l170 105h95l127 -105h-148l-31 82l-63 -82h-150z" />
<glyph unicode="&#xdc;" d="M135 360l248 1278h164l-268 -1380q-18 -94 63 -94q82 0 100 94l269 1380h163l-247 -1278q-70 -360 -316 -360t-176 360zM453 1712l20 105h98l-20 -105h-98zM731 1712l21 105h100l-21 -105h-100z" />
<glyph unicode="&#xdd;" horiz-adv-x="593" d="M215 0l135 700l-33 938h168v-505l-12 -222l74 222l194 505h170l-397 -938l-135 -700h-164zM487 1712l119 105h178l-213 -105h-84z" />
<glyph unicode="&#xde;" horiz-adv-x="630" d="M66 0l317 1638h164l-82 -419h88q272 0 199 -377l-13 -66q-74 -377 -344 -377h-90l-76 -399h-163zM338 563h90q106 0 127 111l53 270q23 111 -86 111h-88z" />
<glyph unicode="&#xdf;" horiz-adv-x="579" d="M70 0l256 1319q61 319 284 319q225 0 164 -319l-49 -246q-35 -180 -125 -237q68 -59 33 -238l-53 -279q-61 -319 -306 -319l27 141q100 0 119 95l84 436q18 90 -84 94l29 141q102 0 120 94l78 402q18 94 -63 94q-82 0 -101 -94l-272 -1403h-141z" />
<glyph unicode="&#xe0;" horiz-adv-x="555" d="M121 289l18 92q27 141 150 219q63 39 112.5 69.5t85.5 53.5l52 264q16 82 -50 82q-61 0 -77 -82l-43 -227h-142l33 168q55 289 258 289q207 0 152 -289l-181 -928h-141l10 53q-45 -53 -125 -53q-168 0 -112 289zM250 229q-16 -84 49 -84q76 0 92 84l62 318 q-31 -14 -57.5 -30.5t-53.5 -33.5q-49 -35 -66 -118zM326 1389h178l78 -105h-84z" />
<glyph unicode="&#xe1;" horiz-adv-x="555" d="M121 289l18 92q27 141 150 219q63 39 112.5 69.5t85.5 53.5l52 264q16 82 -50 82q-61 0 -77 -82l-43 -227h-142l33 168q55 289 258 289q207 0 152 -289l-181 -928h-141l10 53q-45 -53 -125 -53q-168 0 -112 289zM250 229q-16 -84 49 -84q76 0 92 84l62 318 q-31 -14 -57.5 -30.5t-53.5 -33.5q-49 -35 -66 -118zM455 1284l118 105h179l-213 -105h-84z" />
<glyph unicode="&#xe2;" horiz-adv-x="555" d="M121 289l18 92q27 141 150 219q63 39 112.5 69.5t85.5 53.5l52 264q16 82 -50 82q-61 0 -77 -82l-43 -227h-142l33 168q55 289 258 289q207 0 152 -289l-181 -928h-141l10 53q-45 -53 -125 -53q-168 0 -112 289zM250 229q-16 -84 49 -84q76 0 92 84l62 318 q-31 -14 -57.5 -30.5t-53.5 -33.5q-49 -35 -66 -118zM346 1284l170 105h94l127 -105h-147l-31 82l-63 -82h-150z" />
<glyph unicode="&#xe3;" horiz-adv-x="555" d="M121 289l18 92q27 141 150 219q63 39 112.5 69.5t85.5 53.5l52 264q16 82 -50 82q-61 0 -77 -82l-43 -227h-142l33 168q55 289 258 289q207 0 152 -289l-181 -928h-141l10 53q-45 -53 -125 -53q-168 0 -112 289zM250 229q-16 -84 49 -84q76 0 92 84l62 318 q-31 -14 -57.5 -30.5t-53.5 -33.5q-49 -35 -66 -118zM344 1284q8 45 40 75t73 30q25 0 51.5 -6.5t51 -14.5t45 -14t36.5 -6q37 4 45 41h59q-10 -53 -39.5 -79t-66.5 -26q-51 0 -102 21q-55 20 -88 18q-35 0 -46 -39h-59z" />
<glyph unicode="&#xe4;" horiz-adv-x="555" d="M121 289l18 92q27 141 150 219q63 39 112.5 69.5t85.5 53.5l52 264q16 82 -50 82q-61 0 -77 -82l-43 -227h-142l33 168q55 289 258 289q207 0 152 -289l-181 -928h-141l10 53q-45 -53 -125 -53q-168 0 -112 289zM250 229q-16 -84 49 -84q76 0 92 84l62 318 q-31 -14 -57.5 -30.5t-53.5 -33.5q-49 -35 -66 -118zM336 1284l20 105h99l-21 -105h-98zM614 1284l21 105h100l-20 -105h-101z" />
<glyph unicode="&#xe5;" horiz-adv-x="555" d="M121 289l18 92q27 141 150 219q63 39 112.5 69.5t85.5 53.5l52 264q16 82 -50 82q-61 0 -77 -82l-43 -227h-142l33 168q55 289 258 289q207 0 152 -289l-181 -928h-141l10 53q-45 -53 -125 -53q-168 0 -112 289zM250 229q-16 -84 49 -84q76 0 92 84l62 318 q-31 -14 -57.5 -30.5t-53.5 -33.5q-49 -35 -66 -118zM426 1343q8 47 49 82t88 35t75 -34.5t19 -82.5q-8 -47 -50 -80.5t-89 -33.5t-73.5 33.5t-18.5 80.5zM455 1343q-6 -35 14 -60.5t55 -25.5t66 26t37 60q6 35 -14.5 61t-55.5 26t-65.5 -26t-36.5 -61z" />
<glyph unicode="&#xe6;" horiz-adv-x="839" d="M121 289l18 92q27 141 150 219q63 39 112.5 69.5t85.5 53.5l41 205l2 14l9 45q16 82 -50 82q-61 0 -77 -82l-43 -227h-142l33 168q55 289 258 289q86 0 121 -72q68 72 156 72q215 0 159 -289l-67 -346h-285l-70 -353q-16 -84 54 -84q74 0 90 84l45 234h141l-33 -174 q-55 -289 -258 -289q-98 0 -141 76q-66 -76 -156 -76q-209 0 -153 289zM250 229q-16 -84 49 -84q76 0 92 84l62 318q-31 -14 -57.5 -30.5t-53.5 -33.5q-49 -35 -66 -118zM629 725h143l51 262q16 82 -57 82q-70 0 -86 -82z" />
<glyph unicode="&#xe7;" horiz-adv-x="548" d="M121 289l125 639q55 289 266 289q215 0 160 -289l-33 -168h-141l43 227q16 82 -58 82q-70 0 -86 -82l-147 -758q-16 -84 53 -84q74 0 90 84l45 234h142l-33 -174q-55 -289 -271 -289q-211 0 -155 289zM160 -186h71q-16 -55 19 -56q35 0 43 43q10 59 -29 95q-35 35 -22 96 l4 20h69l-4 -16q-10 -53 29 -86q37 -35 22 -100q-18 -98 -122 -99q-106 0 -80 103z" />
<glyph unicode="&#xe8;" horiz-adv-x="557" d="M121 289l125 639q55 289 266 289q215 0 160 -289l-68 -346h-285l-69 -353q-16 -84 53 -84q74 0 90 84l45 234h142l-33 -174q-55 -289 -271 -289q-211 0 -155 289zM346 725h143l52 262q16 82 -58 82q-70 0 -86 -82zM346 1389h178l78 -105h-84z" />
<glyph unicode="&#xe9;" horiz-adv-x="557" d="M121 289l125 639q55 289 266 289q215 0 160 -289l-68 -346h-285l-69 -353q-16 -84 53 -84q74 0 90 84l45 234h142l-33 -174q-55 -289 -271 -289q-211 0 -155 289zM346 725h143l52 262q16 82 -58 82q-70 0 -86 -82zM446 1284l119 105h178l-213 -105h-84z" />
<glyph unicode="&#xea;" horiz-adv-x="557" d="M121 289l125 639q55 289 266 289q215 0 160 -289l-68 -346h-285l-69 -353q-16 -84 53 -84q74 0 90 84l45 234h142l-33 -174q-55 -289 -271 -289q-211 0 -155 289zM330 1284l170 105h94l127 -105h-148l-30 82l-64 -82h-149zM346 725h143l52 262q16 82 -58 82 q-70 0 -86 -82z" />
<glyph unicode="&#xeb;" horiz-adv-x="557" d="M121 289l125 639q55 289 266 289q215 0 160 -289l-68 -346h-285l-69 -353q-16 -84 53 -84q74 0 90 84l45 234h142l-33 -174q-55 -289 -271 -289q-211 0 -155 289zM338 1284l20 105h99l-21 -105h-98zM346 725h143l52 262q16 82 -58 82q-70 0 -86 -82zM616 1284l21 105h100 l-20 -105h-101z" />
<glyph unicode="&#xec;" horiz-adv-x="288" d="M78 0l235 1217h142l-236 -1217h-141zM227 1389h179l77 -105h-84z" />
<glyph unicode="&#xed;" horiz-adv-x="288" d="M78 0l235 1217h142l-236 -1217h-141zM332 1284l119 105h178l-213 -105h-84z" />
<glyph unicode="&#xee;" horiz-adv-x="288" d="M78 0l235 1217h142l-236 -1217h-141zM201 1284l170 105h94l127 -105h-148l-30 82l-64 -82h-149z" />
<glyph unicode="&#xef;" horiz-adv-x="288" d="M78 0l235 1217h142l-236 -1217h-141zM209 1284l20 105h99l-21 -105h-98zM487 1284l21 105h100l-20 -105h-101z" />
<glyph unicode="&#xf0;" d="M133 360l55 291q72 360 318 361q45 0 76 -31l77 399q16 94 -65 95q-82 0 -98 -95l-50 -252h-163l28 150q70 360 316 360t176 -360l-178 -918q-70 -360 -316 -360t-176 360zM276 258q-18 -94 64 -94t100 94l99 502q14 88 -66 88q-82 0 -100 -96z" />
<glyph unicode="&#xf1;" horiz-adv-x="557" d="M66 0l235 1217h141l-10 -50q35 49 127 50q168 0 113 -289l-180 -928h-142l191 987q16 82 -56 82t-88 -82l-190 -987h-141zM328 1284q8 45 39.5 75t72.5 30q25 0 51.5 -6.5t51 -14.5t45 -14t37.5 -6q37 4 45 41h59q-10 -53 -40 -79t-66 -26q-51 0 -103 21q-55 20 -88 18 q-35 0 -45 -39h-59z" />
<glyph unicode="&#xf2;" horiz-adv-x="557" d="M121 289l125 639q55 289 266 289q215 0 160 -289l-125 -639q-55 -289 -271 -289q-211 0 -155 289zM250 229q-16 -84 53 -84q74 0 90 84l148 758q16 82 -58 82q-70 0 -86 -82zM336 1389h178l78 -105h-84z" />
<glyph unicode="&#xf3;" horiz-adv-x="557" d="M121 289l125 639q55 289 266 289q215 0 160 -289l-125 -639q-55 -289 -271 -289q-211 0 -155 289zM250 229q-16 -84 53 -84q74 0 90 84l148 758q16 82 -58 82q-70 0 -86 -82zM403 1284l119 105h178l-213 -105h-84z" />
<glyph unicode="&#xf4;" horiz-adv-x="557" d="M121 289l125 639q55 289 266 289q215 0 160 -289l-125 -639q-55 -289 -271 -289q-211 0 -155 289zM250 229q-16 -84 53 -84q74 0 90 84l148 758q16 82 -58 82q-70 0 -86 -82zM334 1284l170 105h94l127 -105h-147l-31 82l-64 -82h-149z" />
<glyph unicode="&#xf5;" horiz-adv-x="557" d="M121 289l125 639q55 289 266 289q215 0 160 -289l-125 -639q-55 -289 -271 -289q-211 0 -155 289zM250 229q-16 -84 53 -84q74 0 90 84l148 758q16 82 -58 82q-70 0 -86 -82zM342 1284q8 45 40 75t73 30q25 0 51 -6.5t51 -14.5t45.5 -14t36.5 -6q37 4 45 41h59 q-10 -53 -39.5 -79t-66.5 -26q-51 0 -102 21q-55 20 -89 18q-35 0 -45 -39h-59z" />
<glyph unicode="&#xf6;" horiz-adv-x="557" d="M121 289l125 639q55 289 266 289q215 0 160 -289l-125 -639q-55 -289 -271 -289q-211 0 -155 289zM250 229q-16 -84 53 -84q74 0 90 84l148 758q16 82 -58 82q-70 0 -86 -82zM338 1284l20 105h99l-21 -105h-98zM616 1284l21 105h100l-20 -105h-101z" />
<glyph unicode="&#xf7;" d="M170 770l25 131h577l-24 -131h-578zM315 457l39 196h148l-39 -196h-148zM424 1018l39 196h147l-39 -196h-147z" />
<glyph unicode="&#xf8;" horiz-adv-x="557" d="M121 289l125 639q55 289 266 289q215 0 160 -289l-125 -639q-55 -289 -271 -289q-211 0 -155 289zM250 229q-16 -84 53 -84q74 0 90 84l148 758q16 82 -58 82q-70 0 -86 -82z" />
<glyph unicode="&#xf9;" horiz-adv-x="557" d="M121 289l180 928h141l-192 -988q-16 -82 55 -82q72 0 88 82l193 988h141l-235 -1217h-142l8 49q-33 -49 -125 -49q-168 0 -112 289zM340 1389h178l78 -105h-84z" />
<glyph unicode="&#xfa;" horiz-adv-x="557" d="M121 289l180 928h141l-192 -988q-16 -82 55 -82q72 0 88 82l193 988h141l-235 -1217h-142l8 49q-33 -49 -125 -49q-168 0 -112 289zM422 1284l119 105h178l-213 -105h-84z" />
<glyph unicode="&#xfb;" horiz-adv-x="557" d="M121 289l180 928h141l-192 -988q-16 -82 55 -82q72 0 88 82l193 988h141l-235 -1217h-142l8 49q-33 -49 -125 -49q-168 0 -112 289zM328 1284l170 105h94l127 -105h-148l-30 82l-64 -82h-149z" />
<glyph unicode="&#xfc;" horiz-adv-x="557" d="M121 289l180 928h141l-192 -988q-16 -82 55 -82q72 0 88 82l193 988h141l-235 -1217h-142l8 49q-33 -49 -125 -49q-168 0 -112 289zM336 1284l20 105h99l-21 -105h-98zM614 1284l21 105h100l-20 -105h-101z" />
<glyph unicode="&#xfd;" horiz-adv-x="503" d="M-16 -289l26 148q125 8 174 141l68 1217h145l-37 -541l-28 -258l69 256l174 543h148l-397 -1217q-49 -147 -138.5 -218t-203.5 -71zM389 1284l119 105h178l-213 -105h-84z" />
<glyph unicode="&#xfe;" horiz-adv-x="557" d="M8 -289l375 1927h141l-92 -471q35 49 127 50q168 0 113 -289l-125 -639q-55 -289 -240 -289q-61 0 -96 25l-61 -314h-142zM250 229q-16 -84 55 -84q72 0 88 84l148 758q16 82 -56 82t-88 -82z" />
<glyph unicode="&#xff;" horiz-adv-x="503" d="M-16 -289l26 148q125 8 174 141l68 1217h145l-37 -541l-28 -258l69 256l174 543h148l-397 -1217q-49 -147 -138.5 -218t-203.5 -71zM311 1284l21 105h98l-20 -105h-99zM590 1284l20 105h101l-21 -105h-100z" />
<glyph unicode="&#x152;" horiz-adv-x="1142" d="M0 0l152 788h198l-14 -77h-121l-53 -269h69l-14 -80h-70l-69 -362h-78zM246 0l151 788h80l-151 -788h-80zM389 0l152 788h77l-137 -708h121l-14 -80h-199zM631 0l151 788h115l-29 -423l-14 -140l39 137l133 426h119l-152 -788h-71l118 616l-28 -92l-168 -524h-66l33 530 l8 84l-119 -614h-69z" />
<glyph unicode="&#x153;" horiz-adv-x="1142" d="M164 852l153 788h199l-14 -77h-121l-53 -269h69l-14 -80h-70l-71 -362h-78zM410 852l153 788h80l-154 -788h-79zM553 852l154 788h77l-137 -708h121l-16 -80h-199zM795 852l153 788h115l-29 -423l-14 -140l39 137l133 426h119l-154 -788h-72l121 616l-28 -92l-170 -524 h-66l35 530l8 84l-121 -614h-69z" />
<glyph unicode="&#x178;" horiz-adv-x="3098" d="M166 850l153 788h121q129 0 97 -180l-7 -33q-37 -180 -165 -180h-43l-78 -395h-78zM336 1323h45q49 0 59 53l27 131q10 53 -41 54h-43zM467 850l154 788h122q131 0 99 -165l-17 -87q-23 -113 -92 -155l-14 -381h-80l20 362h-41l-71 -362h-80zM633 1292h43q55 0 63 51 l33 164q10 53 -43 54h-43zM770 850l154 788h198l-14 -77h-121l-53 -269h67l-14 -80h-67l-56 -284h121l-16 -78h-199zM1055 1022l20 98h78l-29 -145q-10 -47 25 -47q31 0 41 47l18 90q12 72 -41 166q-53 92 -34 182l8 51q35 174 145 174q113 0 78 -174l-12 -71h-80l22 120 q8 45 -24 46q-33 0 -41 -46l-21 -106q-10 -53 43 -147q55 -100 41 -166l-14 -72q-31 -172 -145 -172q-109 0 -78 172zM1307 850l153 788h203l-14 -77h-121l-53 -269h67l-14 -80h-68l-55 -284h121l-17 -78h-202zM1559 850l153 788h94l-6 -450l-6 -119l111 569h69l-153 -788 h-95l9 463l6 106l-111 -569h-71zM1935 850l140 711h-80l14 77h238l-15 -77h-78l-139 -711h-80zM2161 1022l20 98h80l-29 -145q-10 -47 25 -47q31 0 41 47l18 90q12 74 -43 166q-53 92 -35 182l9 51q35 174 147 174q111 0 76 -174l-12 -71h-78l22 120q8 45 -24 46 q-33 0 -41 -46l-21 -106q-10 -53 43 -147q53 -100 39 -166l-14 -72q-31 -172 -143 -172q-111 0 -80 172zM2505 850l260 788h78l-50 -788h-79l8 117h-101l-36 -117h-80zM2650 1053h78l16 221l15 139l-39 -137zM2824 850l154 788h94l-4 -450l-8 -119l110 569h70l-154 -788h-94 l8 463l6 106l-110 -569h-72z" />
<glyph unicode="&#x2c6;" horiz-adv-x="2291" d="M-2 0l152 788h116q121 0 88 -174l-86 -440q-33 -174 -153 -174h-117zM90 78h39q41 0 49 45l105 541q12 47 -31 47h-39zM297 0l152 788h200l-14 -77h-123l-53 -269h71l-14 -80h-72l-55 -284h123l-14 -78h-201zM580 174l18 96h80l-29 -145q-8 -47 25 -47q35 0 43 47l18 90 q8 37 -3 78t-38 88q-55 94 -39 184l11 49q33 174 145 174q115 0 82 -174l-14 -71h-80l22 121q12 47 -24 47q-31 0 -43 -47l-21 -109q-10 -51 45 -147t43 -164l-14 -70q-33 -174 -148 -174q-113 0 -79 174zM614 1022l86 440q33 174 154 174q113 0 80 -174l-14 -71h-76l24 120 q8 47 -30 48q-39 0 -47 -48l-105 -538q-8 -47 29 -47q41 0 49 47l29 145h75l-20 -96q-33 -174 -148 -174q-119 0 -86 174zM836 0l151 788h80l-152 -788h-79zM907 1022l86 440q33 174 152 174q115 0 82 -174l-86 -440q-33 -174 -150 -174t-84 174zM977 973q-8 -47 29 -47 q43 0 51 47l104 538q8 47 -33 48q-39 0 -47 -48zM1010 174l86 440q33 174 151 174q121 0 88 -174l-14 -71h-74l23 121q12 47 -37 47q-37 0 -49 -47l-105 -541q-8 -45 31 -45q45 0 53 45l33 162h-45l14 77h121l-69 -362l-29 53q-35 -53 -92 -53q-119 0 -86 174zM1174 848 l153 788h78l-139 -710h120l-14 -78h-198zM1276 0l151 788h95l-9 -448l-8 -119l111 567h74l-152 -788h-98l6 463l8 104l-108 -567h-70zM1448 1022l86 440q33 174 154 174q115 0 81 -174l-86 -440q-33 -174 -149 -174q-119 0 -86 174zM1520 973q-8 -47 28 -47q41 0 49 47 l105 538q8 47 -31 48q-39 0 -47 -48zM1599 0l152 788h201l-15 -77h-120l-54 -269h68l-14 -80h-68l-55 -284h121l-15 -78h-201zM1747 1022l121 614h80l-129 -663q-8 -47 26 -47q43 0 51 47l129 663h78l-121 -614q-33 -174 -151 -174q-117 0 -84 174zM1851 0l152 788h119 q133 0 102 -165l-18 -86q-23 -113 -95 -158l-10 -379h-80l19 362h-41l-70 -362h-78zM2013 442h43q51 0 64 54l30 159q8 55 -43 56h-41zM2015 848l154 788h119q133 0 100 -166l-16 -86q-20 -109 -95 -157l-12 -379h-80l19 360h-41l-70 -360h-78zM2179 1290h43q53 0 62 51 l30 162q12 55 -43 56h-41z" />
<glyph unicode="&#x2dc;" horiz-adv-x="1935" d="M41 180v1376h1645l-7 -1376h-342q-137 -135 -514 -497l70 497h-852zM356 856q0 -207 39 -319q147 -53 492 -54q303 1 436 58q33 127 33 350q0 190 -37 313q-16 18 -148 35q-147 18 -313 18q-276 0 -463 -57q-39 -133 -39 -344zM1399 -199q-4 49 2 84q12 68 67 125 q45 47 123 70q29 6 56 4q55 0 100 -23q109 -53 131 -143q4 -12 10 -35q2 -14 4 -41q4 -51 -16 -102q-14 -33 -41 -66q-51 -59 -125 -80q-37 0 -102 -4q-16 0 -60 15q-74 27 -131 125q-14 29 -18 71zM1444 -180q0 -12 4 -37q2 -10 8 -31q39 -82 123 -108q39 -12 70 -11 q41 2 61 11q57 20 90 61q16 18 35 64q10 53 10 69q-2 33 -10 63.5t-29 55.5q-35 45 -76.5 62.5t-84.5 17.5q-25 0 -37 -2q-39 -6 -65.5 -23.5t-49.5 -40.5q-8 -14 -33 -49q-20 -51 -16 -102zM1540 -33h82q94 0 109 -4q18 -8 29.5 -20t15.5 -43q12 -86 -70 -86q-2 -6 4 -15.5 t8 -14.5t33 -56q6 -8 16 -29h-57q-4 0 -8 14q-8 8 -25 43q-10 18 -28 58h-50q2 0 -6 -13v-14v-88h-49q-4 0 -4 6v262zM1593 -70v-41v-27t6 -7q-8 0 60 -2q37 0 53 9t12 34q0 16 -14 25t-70 9h-47z" />
<glyph unicode="&#x2000;" horiz-adv-x="908" />
<glyph unicode="&#x2001;" horiz-adv-x="1817" />
<glyph unicode="&#x2002;" horiz-adv-x="908" />
<glyph unicode="&#x2003;" horiz-adv-x="1817" />
<glyph unicode="&#x2004;" horiz-adv-x="605" />
<glyph unicode="&#x2005;" horiz-adv-x="454" />
<glyph unicode="&#x2006;" horiz-adv-x="302" />
<glyph unicode="&#x2007;" horiz-adv-x="302" />
<glyph unicode="&#x2008;" horiz-adv-x="227" />
<glyph unicode="&#x2009;" horiz-adv-x="363" />
<glyph unicode="&#x200a;" horiz-adv-x="100" />
<glyph unicode="&#x2010;" horiz-adv-x="339" d="M182 770l25 131h274l-24 -131h-275z" />
<glyph unicode="&#x2011;" horiz-adv-x="339" d="M182 770l25 131h274l-24 -131h-275z" />
<glyph unicode="&#x2012;" horiz-adv-x="339" d="M182 770l25 131h274l-24 -131h-275z" />
<glyph unicode="&#x2013;" horiz-adv-x="1650" d="M41 342v1008h752v-1008h-752zM186 467h160q131 0 225.5 108.5t94.5 264.5q0 158 -95 266q-102 117 -225 117h-160v-756zM856 342v1008h754v-1008h-754zM975 840q0 -154 94 -263.5t223 -109.5h160v756h-160q-121 0 -219 -114t-98 -269z" />
<glyph unicode="&#x2014;" horiz-adv-x="2349" d="M41 715v504h377v-504h-377zM55 428v215h92q107 0 107 -106q0 -109 -107 -109h-92zM111 477h26q60 1 60 60t-60 59h-26v-119zM113 778h80q66 0 112.5 53.5t46.5 133.5t-47 133q-51 59 -112 59h-80v-379zM449 715v504h374v-504h-374zM455 428v215h57v-215h-57zM508 965 q0 -78 45 -132.5t113 -54.5h79v379h-79q-61 0 -109.5 -57.5t-48.5 -134.5zM723 537q0 47 28.5 78.5t75.5 31.5q90 0 97 -78h-56q-4 31 -43 31q-49 0 -49 -63t49 -64q45 0 49 33h-38v41h90v-119h-33l-4 25q-20 -27 -62 -27q-47 0 -75.5 31.5t-28.5 79.5zM930 715v504h1378 v-504h-1378zM965 752h1306v430h-1306v-430zM1083 856v227h115q90 0 90 -88v-47q0 -92 -82 -92h-123zM1143 428v215h53v-215h-53zM1145 907h51q33 0 33 41v47q0 35 -33 35h-51v-123zM1319 936v65q0 82 102 82q106 0 107 -82v-65q0 -82 -107 -82q-102 0 -102 82zM1378 942 q0 -37 43 -37q41 0 41 37v53q0 37 -41 37q-43 0 -43 -37v-53zM1403 596v47h182v-47h-65v-168h-56v168h-61zM1554 856v227h64v-176h90v-51h-154zM1735 856v227h118q72 0 72 -59q0 -47 -35 -51v-4q39 -2 39 -51q0 -61 -74 -62h-120zM1737 428l80 215h59l80 -215h-62l-14 39 h-74l-12 -39h-57zM1796 905h45q29 0 29 23q0 20 -27 20h-47v-43zM1796 991h43q27 0 27 23q0 20 -21 20h-49v-43zM1819 508h51l-27 76zM1942 1083h67l41 -88h2l43 88h68l-78 -147v-80h-64v80zM2146 428v215h56v-166h102v-49h-158z" />
<glyph unicode="&#x2018;" horiz-adv-x="204" d="M291 1325l33 164q29 152 151 149l-14 -71q-66 0 -80 -72h90l-33 -170h-147z" />
<glyph unicode="&#x2019;" horiz-adv-x="217" d="M328 1327l14 72q66 0 80 71h-90l33 170h147l-31 -163q-31 -154 -153 -150z" />
<glyph unicode="&#x201a;" horiz-adv-x="231" d="M37 -117l14 72q66 0 80 72h-90l33 170h147l-31 -164q-31 -154 -153 -150z" />
<glyph unicode="&#x201c;" horiz-adv-x="428" d="M311 1325l33 164q29 152 152 149l-15 -71q-66 0 -80 -72h91l-33 -170h-148zM516 1325l33 164q29 152 151 149l-14 -71q-66 0 -80 -72h90l-32 -170h-148z" />
<glyph unicode="&#x201d;" horiz-adv-x="479" d="M301 1327l14 72q66 0 80 71h-90l33 170h147l-30 -163q-31 -154 -154 -150zM506 1327l14 72q66 0 80 71h-90l33 170h147l-31 -163q-31 -154 -153 -150z" />
<glyph unicode="&#x201e;" horiz-adv-x="2772" d="M2 0l154 791h123q131 0 94 -181l-6 -35q-33 -180 -164 -180h-45l-76 -395h-80zM174 475h45q51 0 60 51l26 133q8 51 -43 52h-43zM307 0l154 791h123q129 0 98 -168l-16 -84q-25 -111 -93 -158l-14 -381h-80l19 365h-43l-70 -365h-78zM424 852l260 788h80l-51 -788h-78 l6 117h-102l-33 -117h-82zM469 442h45q51 0 64 56l30 161q8 51 -41 52h-45zM571 1055h78l15 223l16 137l-39 -137zM641 174l86 442q33 174 154 175q117 0 84 -175l-86 -442q-33 -174 -152 -174t-86 174zM711 123q-8 -41 30 -41q39 0 47 41l107 545q8 43 -31 43t-47 -43z M780 1026l19 96h78l-29 -145q-10 -47 26 -47q18 0 27.5 12t13.5 35l19 88q6 39 -4 80t-35 90q-57 88 -39 180l10 53q33 172 146 172q115 0 82 -172l-15 -71h-82l25 121q4 23 -1 34t-24 11q-37 0 -43 -45l-22 -107q-8 -51 45 -149q57 -98 43 -168l-12 -68q-16 -90 -55.5 -132 t-94.5 -42q-111 0 -78 174zM909 0l154 791h119q115 0 82 -175l-86 -442q-33 -174 -150 -174h-119zM1001 82h41q41 0 50 41l106 545q8 43 -33 43h-41zM1067 1026l18 96h82l-28 -145q-10 -47 24 -47q31 0 41 47l19 88q12 74 -39 170q-59 90 -41 180l10 53q33 172 147 172 q111 0 78 -172l-14 -71h-78l25 121q6 45 -25 45q-35 0 -41 -45l-22 -107q-10 -57 43 -149q55 -96 39 -168l-13 -68q-33 -174 -145 -174q-113 0 -80 174zM1243 174l121 617h80l-131 -668q-8 -41 28 -41q39 0 48 41l131 668h79l-120 -617q-33 -174 -152 -174q-117 0 -84 174z M1356 1026l86 442q33 172 153 172q117 0 84 -172l-86 -442q-33 -174 -151 -174q-119 0 -86 174zM1427 977q-10 -47 31 -47q37 0 47 47l107 541q6 45 -31 45q-41 0 -47 -45zM1542 174l86 442q16 88 56 131.5t98 43.5q113 0 80 -175l-15 -71h-75l24 123q8 43 -31 43t-47 -43 l-106 -545q-8 -41 30 -41q39 0 48 41l28 147h76l-18 -98q-35 -172 -148 -172q-119 0 -86 174zM1659 1026l86 442q33 172 151 172q115 0 82 -172l-14 -71h-76l25 121q6 45 -31 45q-43 0 -49 -45l-107 -541q-10 -47 33 -47q37 0 47 47l29 145h76l-19 -96q-33 -174 -149 -174 q-117 0 -84 174zM1804 0l154 791h201l-17 -80h-123l-53 -269h68l-15 -77h-67l-56 -283h121l-14 -82h-199zM1915 852l153 788h82l-153 -788h-82zM2025 852l261 788h79l-47 -788h-82l9 117h-103l-35 -117h-82zM2054 0l154 791h123q127 0 96 -168l-17 -84q-12 -57 -33.5 -95 t-58.5 -63l-14 -381h-78l19 365h-43l-70 -365h-78zM2173 1055h78l16 223l17 137l-39 -137zM2216 442h45q51 0 63 56l31 161q8 51 -41 52h-45zM2363 852l140 711h-78l14 77h238l-15 -77h-77l-140 -711h-82zM2388 174l18 96h80l-28 -145q-4 -25 2 -34t22 -9t28.5 9t16.5 34 l19 92q14 68 -43 166q-55 90 -39 184l10 49q33 174 147 175q111 0 78 -175l-14 -71h-76l25 123q8 43 -29 43q-33 0 -41 -43l-22 -111q-8 -45 43 -147q55 -96 43 -166l-15 -70q-33 -174 -145 -174q-113 0 -80 174zM2556 852l154 788h200l-14 -77h-123l-53 -271h69l-14 -78 h-70l-55 -284h123l-16 -78h-201z" />
<glyph unicode="&#x2022;" horiz-adv-x="2727" d="M127 612q0 33 98 66q301 96 1057 96q754 0 1057 -96q102 -33 102 -66q0 -68 -323 -114q-176 -27 -385 -39q-197 -12 -451 -13q-256 0 -451 13q-209 12 -382 39q-322 47 -322 114zM190 918l103 425h233l-65 -290h51q115 0 201 45q106 55 106 159q0 135 -278 136h-238 l33 135h901q61 -172 125 -400q6 25 149 201q84 98 166 199h502q143 0 256 -58q141 -71 141 -198q0 -164 -194 -268q-166 -86 -346 -86h-334l98 425h240l-72 -290h53q117 0 201 45q109 55 109 159q0 135 -283 136h-229l-545 -615l-213 604q-8 14 -12 15q-2 -2 -2 -11 q2 -4 2 -8q18 -51 18 -106q0 -23 -4 -49q-35 -143 -215 -232q-158 -74 -322 -73h-336zM369 305h69l76 -143l72 143h69l-127 -219h-34zM809 92v213h61v-213h-61zM977 608q0 -31 119 -45q76 -10 145 -10q70 0 143 10q121 14 121 45t-121 45q-76 8 -143 9q-70 0 -145 -9 q-119 -14 -119 -45zM1051 92v213h90q57 0 102 -24q53 -29 53 -84q0 -51 -55 -80q-45 -25 -100 -25h-90zM1114 127h10q109 0 109 72q0 70 -119 69v-141zM1462 92v213h166v-37h-100v-45h96v-39h-96v-57h100v-35h-166zM1792 199q0 53 53 86q47 27 105 26q57 0 104 -26 q53 -33 53 -86t-50 -83t-107 -30t-105 27q-53 33 -53 86zM1855 201q0 -31 32 -52.5t63 -21.5q33 0 64.5 21.5t31.5 52.5t-32 49t-64 18q-31 0 -63 -18.5t-32 -48.5z" />
<glyph unicode="&#x2026;" horiz-adv-x="5023" d="M33 172l86 442q33 174 153 174q115 0 82 -174l-86 -442q-16 -88 -55 -131t-94 -43q-119 0 -86 174zM100 121q-8 -41 35 -41q37 0 45 41l107 545q8 43 -29 43q-43 0 -51 -43zM297 -2l154 790h122q131 0 99 -167l-17 -84q-20 -111 -92 -158l-14 -381h-78l18 364h-38 l-72 -364h-82zM465 440h41q53 0 65 56l31 161q8 51 -43 52h-41zM602 -2l154 790h75l-153 -790h-76zM776 172l86 442q33 174 152 174q125 0 92 -174l-14 -71h-78l24 123q8 43 -39 43q-41 0 -49 -43l-106 -545q-8 -41 33 -41q45 0 53 41l33 164h-45l14 77h123l-72 -364l-31 53 q-31 -53 -92 -53q-117 0 -84 174zM1038 -2l154 790h80l-154 -790h-80zM1182 -2l153 790h95l-7 -450l-6 -119l111 569h69l-153 -790h-96l12 463l6 108l-113 -571h-71zM1477 -2l258 790h80l-52 -790h-75l6 119h-101l-39 -119h-77zM1622 201h78l16 223l17 141l-41 -141z M1753 850l154 788h123q127 0 94 -180l-6 -33q-35 -182 -166 -182h-43l-76 -393h-80zM1796 -2l154 790h78l-138 -708h125l-16 -82h-203zM1925 1323h45q51 0 62 53l26 131q10 53 -43 54h-43zM2060 850l154 788h76l-138 -710h123l-16 -78h-199zM2195 172l86 442q33 174 154 174 q113 0 80 -174l-14 -71h-76l24 123q8 43 -28 43q-39 0 -47 -43l-107 -545q-8 -41 31 -41q37 0 45 41l29 147h75l-18 -98q-35 -172 -148 -172q-119 0 -86 174zM2271 850l258 788h78l-47 -788h-80l8 117h-102l-37 -117h-78zM2415 1053h75l19 223l16 137l-39 -137zM2492 172 l86 442q33 174 148 174q119 0 86 -174l-86 -442q-33 -174 -154 -174q-59 0 -77.5 43t-2.5 131zM2556 121q-8 -41 33 -41q39 0 47 41l106 545q8 43 -30 43q-41 0 -50 -43zM2591 850l153 788h97l-9 -448l-6 -123l111 571h72l-154 -788h-96l6 463l8 104l-111 -567h-71zM2755 -2 l153 790h94l-6 -450l-6 -119l111 569h69l-153 -790h-95l9 463l8 108l-113 -571h-71zM2918 850l154 788h94l-8 -448l-6 -123l110 571h72l-153 -788h-97l11 463l4 104l-111 -567h-70zM3117 172l86 442q33 174 150 174q115 0 81 -174l-14 -71h-76l25 123q8 43 -31 43t-47 -43 l-106 -545q-8 -41 30 -41q39 0 47 41l29 147h76l-19 -98q-35 -172 -149 -172q-115 0 -82 174zM3244 850l154 788h80l-154 -788h-80zM3371 -2l154 790h202l-14 -79h-121l-53 -269h68l-15 -78h-67l-56 -282h121l-16 -82h-203zM3387 850l154 788h92l-6 -448l-8 -123l110 571h72 l-154 -788h-92l6 463l9 104l-111 -567h-72zM3625 -2l154 790h122q131 0 95 -180l-6 -35q-37 -180 -164 -180h-43l-78 -395h-80zM3746 1024l86 442q33 172 153 172q121 0 88 -172l-14 -71h-74l23 121q8 45 -37 45q-18 0 -32.5 -11.5t-18.5 -33.5l-105 -541q-10 -47 31 -47 q45 0 55 47l31 158h-45l16 79h119l-71 -362l-27 51q-31 -51 -94 -51q-121 0 -84 174zM3797 473h43q55 0 63 51l27 133q8 51 -43 52h-43zM3979 -2l140 711h-78l14 79h236l-15 -79h-76l-139 -711h-82zM4100 850l256 788h82l-49 -788h-82l10 117h-100l-39 -117h-78zM4241 1053 h82l19 223l10 137l-37 -137zM4295 -2l153 790h117q119 0 86 -176l-16 -75q-18 -106 -82 -138q53 -23 30 -135l-18 -92q-33 -174 -154 -174h-116zM4391 80h37q41 0 49 41l37 194q8 45 -29 47h-39zM4422 850l153 788h92l-6 -448l-6 -123l111 571h69l-153 -788h-94l10 463 l4 104l-111 -567h-69zM4461 440h38q41 0 50 45l34 181q8 43 -32 43h-37zM4667 -2l68 340l-21 450h84l-2 -243l-4 -109l35 109l94 243h82l-190 -450l-68 -340h-78zM4747 850l154 788h119q117 0 84 -172l-86 -442q-37 -174 -152 -174h-119zM4839 928h43q37 0 48 47l104 541 q8 45 -29 45h-43z" />
<glyph unicode="&#x202f;" horiz-adv-x="363" />
<glyph unicode="&#x2039;" horiz-adv-x="2891" d="M0 0l152 788h120q135 0 99 -182l-6 -31q-35 -182 -166 -182h-45l-76 -393h-78zM168 473h45q51 0 61 53l27 129q8 55 -43 56h-43zM305 0l152 788h121q129 0 98 -165l-19 -86q-23 -113 -90 -158l-12 -379h-80l19 362h-41l-70 -362h-78zM467 442h43q53 0 65 54l31 159 q8 55 -43 56h-43zM637 174l86 440q33 174 151 174q119 0 87 -174l-87 -440q-33 -174 -151 -174q-119 0 -86 174zM705 123q-8 -45 32 -45q39 0 47 45l105 541q12 47 -29 47q-39 0 -51 -47zM903 0l152 788h119q117 0 83 -174l-86 -440q-33 -174 -149 -174h-119zM999 78h37 q39 0 47 45l105 541q12 47 -29 47h-37zM1235 174l119 614h80l-129 -665q-8 -45 30 -45q41 0 49 45l129 665h76l-119 -614q-33 -174 -149 -174q-119 0 -86 174zM1534 174l86 440q33 174 154 174q113 0 79 -174l-14 -71h-74l23 121q12 47 -31 47q-37 0 -49 -47l-104 -541 q-8 -45 30 -45q41 0 49 45l29 147h74l-19 -96q-33 -174 -145 -174q-121 0 -88 174zM1845 0l137 711h-79l14 77h235l-14 -77h-78l-137 -711h-78zM2036 0l151 788h82l-151 -788h-82zM2210 174l86 440q33 174 151 174q119 0 86 -174l-86 -440q-33 -174 -151 -174 q-119 0 -86 174zM2279 123q-8 -45 31 -45t47 45l105 541q12 47 -29 47q-37 0 -49 -47zM2478 0l152 788h92l-2 -448l-10 -119l110 567h70l-152 -788h-92l4 463l6 104l-108 -567h-70z" />
<glyph unicode="&#x203a;" horiz-adv-x="1089" d="M168 850l256 786h80l-49 -786h-80l10 117h-102l-37 -117h-78zM309 1053h80l17 219l14 139l-39 -137zM487 850l154 786h94l-8 -448l-8 -119l110 567h72l-153 -786h-95l9 461l8 106l-111 -567h-72zM811 850l154 786h118q117 0 82 -174l-86 -440q-31 -172 -149 -172h-119z M905 928h41q37 0 47 45l105 540q10 45 -31 46h-41z" />
<glyph unicode="&#x205f;" horiz-adv-x="454" />
</font>
</defs>
</svg>
