<?xml version="1.0" standalone="no"?>
<!DOCTYPE svg PUBLIC "-//W3C//DTD SVG 1.1//EN" "http://www.w3.org/Graphics/SVG/1.1/DTD/svg11.dtd" >
<svg xmlns="http://www.w3.org/2000/svg" xmlns:xlink="http://www.w3.org/1999/xlink" version="1.1">
<metadata>
Created by FontForge 20170731 at Fri Jun  4 17:43:03 2021
 By Aleksey,,,
Copyright 2021 The Urbanist Project Authors (https://github.com/coreyhu/Urbanist)
</metadata>
<defs>
<font id="Urbanist-ExtraLightItalic" horiz-adv-x="1160" >
  <font-face 
    font-family="Urbanist ExtraLight"
    font-weight="200"
    font-style="italic"
    font-stretch="normal"
    units-per-em="2000"
    panose-1="0 0 0 0 0 0 0 0 0 0"
    ascent="1600"
    descent="-400"
    x-height="1000"
    cap-height="1400"
    bbox="-347 -500 2558 1900"
    underline-thickness="50"
    underline-position="-175"
    unicode-range="U+000D-FFFD"
  />
<missing-glyph horiz-adv-x="1000" 
d="M100 -500v2400h800v-2400h-800zM200 -400h600v2200h-600v-2200z" />
    <glyph glyph-name=".notdef" horiz-adv-x="1000" 
d="M100 -500v2400h800v-2400h-800zM200 -400h600v2200h-600v-2200z" />
    <glyph glyph-name=".null" horiz-adv-x="1200" 
 />
    <glyph glyph-name=".null" horiz-adv-x="1200" 
 />
    <glyph glyph-name="nonmarkingreturn" unicode="&#xd;" horiz-adv-x="1200" 
 />
    <glyph glyph-name="nonmarkingreturn" unicode="&#xfeff;" horiz-adv-x="1200" 
 />
    <glyph glyph-name="space" unicode=" " horiz-adv-x="480" 
 />
    <glyph glyph-name="exclam" unicode="!" horiz-adv-x="313" 
d="M-41 420l138 980h80l-138 -980h-80zM-63 -26q-24 0 -38.5 16.5t-10.5 40.5q3 23 21.5 39.5t43.5 16.5q22 0 36 -16.5t11 -39.5q-3 -24 -21.5 -40.5t-41.5 -16.5z" />
    <glyph glyph-name="quotedbl" unicode="&#x22;" horiz-adv-x="483" 
d="M5 878l73 522h75l-73 -522h-75zM258 878l73 522h75l-73 -522h-75z" />
    <glyph glyph-name="numbersign" unicode="#" horiz-adv-x="1479" 
d="M1314 955h-219l-209 -508h221l-34 -84h-219l-150 -363h-86l150 363h-527l-149 -363h-86l149 363h-221l34 84h220l209 508h-222l34 83h222l147 362h86l-147 -362h526l147 362h86l-147 -362h219zM800 447l209 508h-526l-209 -508h526z" />
    <glyph glyph-name="dollar" unicode="$" horiz-adv-x="1165" 
d="M572 1333q-108 0 -206 -37t-164 -104t-78 -156q-15 -102 30.5 -158t133.5 -84.5t202 -50.5q127 -24 233 -70.5t164 -124t42 -191.5q-15 -112 -89.5 -195t-184.5 -131.5t-234 -55.5l-28 -199h-75l28 199q-104 5 -194.5 40t-152.5 96.5t-79 144.5l84 31q16 -74 75 -124.5
t142.5 -76.5t171.5 -26q108 0 206 36.5t165 103.5t79 157q13 92 -38 150.5t-140 93t-188 52.5q-137 26 -243 66.5t-160 115t-36 201.5q16 111 90.5 194t185.5 131.5t234 54.5l29 208h75l-29 -208q98 -5 187.5 -39t153 -95t84.5 -147l-87 -29q-15 74 -74.5 124.5t-143 76.5
t-171.5 26z" />
    <glyph glyph-name="percent" unicode="%" horiz-adv-x="1165" 
d="M-70 0l1005 1400h100l-1005 -1400h-100zM215 885q-86 0 -138 60.5t-40 146.5q8 58 43 105.5t86 75.5t108 28q85 0 137.5 -61.5t40.5 -147.5q-9 -58 -43.5 -105t-85.5 -74.5t-108 -27.5zM225 960q56 0 100 39t51 93q8 56 -24.5 95t-88.5 39q-55 0 -99 -39t-52 -95
q-7 -54 25.5 -93t87.5 -39zM694 99q-86 0 -138.5 62t-40.5 147q8 57 43 104t86.5 75t108.5 28q87 0 138.5 -61t40.5 -146q-9 -57 -43.5 -104.5t-86 -76t-108.5 -28.5zM705 174q54 0 98.5 39t52.5 95q8 54 -26 93t-88 39q-55 0 -99.5 -39t-52.5 -93q-8 -56 26 -95t89 -39z
" />
    <glyph glyph-name="ampersand" unicode="&#x26;" horiz-adv-x="1409" 
d="M272 -26q-117 0 -197.5 56.5t-117 146.5t-22.5 191q9 66 30 113.5t64 96t117 114t189 167.5q-70 84 -106.5 130.5t-47 84t-2.5 93.5q11 72 55 131.5t108 94.5t135 35t125.5 -35t81.5 -94.5t17 -131.5q-8 -58 -30 -97t-72 -85t-141 -126l370 -431l233 203l-17 -121
l-165 -145l262 -304l-69 -61l-262 302q-117 -103 -192 -167.5t-127.5 -99.5t-102 -48t-116.5 -13zM404 914q85 74 129 113t62 68t24 72q11 75 -35 127.5t-119 52.5q-77 0 -135.5 -54.5t-68.5 -125.5q-6 -44 4.5 -73.5t43.5 -68t95 -111.5zM284 60q57 0 99 12.5t87.5 45
t113 92.5t176.5 156l-373 433q-111 -99 -179.5 -159t-106 -101t-54.5 -80t-24 -94q-13 -85 18 -154.5t94.5 -110t148.5 -40.5z" />
    <glyph glyph-name="quotesingle" unicode="'" horiz-adv-x="231" 
d="M5 878l73 522h75l-73 -522h-75z" />
    <glyph glyph-name="parenleft" unicode="(" horiz-adv-x="583" 
d="M185 -112q-87 91 -131 213t-52 261.5t12 281.5q20 141 69 284.5t128 267t186 204.5h86q-159 -147 -251 -338t-132 -418q-26 -237 15 -424t156 -332h-86z" />
    <glyph glyph-name="parenright" unicode=")" horiz-adv-x="583" 
d="M-112 -112q155 145 248 332t135 424q23 227 -15 418t-156 338h86q85 -81 129 -204.5t52.5 -267t-10.5 -284.5q-20 -142 -67.5 -281.5t-125.5 -261.5t-190 -213h-86z" />
    <glyph glyph-name="asterisk" unicode="*" horiz-adv-x="695" 
d="M119 862l-54 45l163 187l-211 73l33 70l212 -70l33 233h75l-33 -233l232 70l13 -70l-232 -73l111 -187l-68 -45l-109 189z" />
    <glyph glyph-name="plus" unicode="+" 
d="M354 100l64 457h-457l13 86h457l64 457h86l-64 -457h457l-13 -86h-457l-64 -457h-86z" />
    <glyph glyph-name="comma" unicode="," horiz-adv-x="348" 
d="M-132 -112l109 338h86l-138 -338h-57z" />
    <glyph glyph-name="hyphen" unicode="-" horiz-adv-x="880" 
d="M14 643h640l-13 -86h-640z" />
    <glyph glyph-name="period" unicode="." horiz-adv-x="313" 
d="M-65 -26q-22 0 -36.5 16.5t-10.5 40.5q3 23 21.5 39.5t41.5 16.5q24 0 38 -16.5t11 -39.5q-3 -24 -21.5 -40.5t-43.5 -16.5z" />
    <glyph glyph-name="slash" unicode="/" horiz-adv-x="650" 
d="M570 1400l-616 -1512h-86l616 1512h86z" />
    <glyph glyph-name="zero" unicode="0" horiz-adv-x="1182" 
d="M392 -26q-170 0 -275 98t-144 263t-11 365q21 151 74.5 282.5t136 231t189.5 156t234 56.5q169 0 273.5 -98t143.5 -262.5t11 -365.5q-21 -150 -75 -281.5t-135.5 -231.5t-188 -156.5t-233.5 -56.5zM404 60q146 0 257.5 87.5t183 233t96.5 319.5q25 183 -7 327.5
t-120 228.5t-231 84q-150 0 -261.5 -88.5t-181.5 -234.5t-94 -317q-25 -176 6 -321t118.5 -232t233.5 -87z" />
    <glyph glyph-name="one" unicode="1" horiz-adv-x="463" 
d="M20 0l185 1314h-137l39 86h196l-197 -1400h-86z" />
    <glyph glyph-name="two" unicode="2" horiz-adv-x="1061" 
d="M-117 0l11 75q104 90 220.5 190t229 202.5t206 202t153.5 188t70 159.5q12 88 -20.5 161.5t-99 117.5t-154.5 44q-89 0 -168 -44t-133 -117.5t-67 -161.5h-86q16 113 84.5 206t169 148t212.5 55t196 -55.5t125.5 -148.5t26.5 -205q-11 -73 -67.5 -165.5t-144.5 -194
t-193 -204t-211.5 -197t-199.5 -170.5h714l-13 -86h-861z" />
    <glyph glyph-name="three" unicode="3" horiz-adv-x="962" 
d="M281 -26q-129 0 -216 54.5t-125.5 146t-23.5 202.5h86q-12 -87 17.5 -159t98.5 -115t175 -43q87 0 169 43t140 115t70 159q15 107 -27.5 178t-129.5 106.5t-203 35.5l12 78q162 0 271.5 72t128.5 212q11 76 -22.5 140.5t-96.5 102.5t-140 38q-78 0 -153 -38
t-127.5 -102.5t-63.5 -140.5h-86q14 101 81 184.5t163 133t198 49.5q101 0 182 -49.5t123.5 -133t27.5 -184.5q-15 -115 -88 -200.5t-178 -119.5q124 -44 178 -139t36 -223q-15 -111 -87 -202.5t-175.5 -146t-214.5 -54.5z" />
    <glyph glyph-name="four" unicode="4" horiz-adv-x="1057" 
d="M491 0l59 421h-608l13 89l708 890h111l-125 -893h163l-13 -86h-163l-59 -421h-86zM60 510l503 -3l103 762z" />
    <glyph glyph-name="five" unicode="5" horiz-adv-x="1085" 
d="M318 -26q-125 0 -218.5 60.5t-139 162t-27.5 224.5h86q-15 -99 22 -181t112.5 -131t175.5 -49q99 0 188 49t149.5 131t74.5 181q14 100 -23 182t-113 131t-181 49h-331l211 617h639l-12 -86h-569l-150 -445h196q143 -1 243.5 -57.5t147.5 -157t28 -233.5
q-17 -123 -92 -224.5t-185 -162t-232 -60.5z" />
    <glyph glyph-name="six" unicode="6" horiz-adv-x="1065" 
d="M327 -26q-131 0 -230.5 64.5t-149 173.5t-31.5 241q12 80 38 132t71 121l497 694h100l-379 -530q123 61 242.5 54.5t213.5 -68t143 -165.5t30 -238q-18 -132 -98 -240.5t-198 -173.5t-249 -65zM338 60q114 0 210.5 55.5t160 145.5t78.5 193q15 108 -25.5 196t-121.5 141
t-189 53q-112 0 -208.5 -54.5t-160.5 -143t-79 -192.5q-15 -111 26.5 -200.5t123 -141.5t185.5 -52z" />
    <glyph glyph-name="seven" unicode="7" horiz-adv-x="1054" 
d="M-40 0l942 1314h-874l12 86h973l-11 -86l-945 -1314h-97z" />
    <glyph glyph-name="eight" unicode="8" horiz-adv-x="1033" 
d="M317 -26q-121 0 -212.5 54.5t-137.5 145.5t-31 202q17 121 102.5 218t203.5 144q-89 43 -138 129t-35 192q14 101 80 184.5t164 133t208 49.5q109 0 193 -49.5t126 -133t28 -184.5q-14 -106 -88 -192t-175 -129q107 -47 164.5 -144t39.5 -218q-15 -111 -86.5 -202
t-178.5 -145.5t-227 -54.5zM429 778q85 0 160 38t125 101.5t61 141.5t-21.5 141.5t-96.5 101.5t-149 38t-160 -38t-125 -101.5t-61 -141.5t21.5 -141.5t96.5 -101.5t149 -38zM328 60q96 0 180 42.5t140 114.5t68 159q12 88 -24 159.5t-108 114t-167 42.5q-94 0 -178 -42.5
t-141 -114t-69 -159.5q-13 -87 24 -159t109 -114.5t166 -42.5z" />
    <glyph glyph-name="nine" unicode="9" horiz-adv-x="1031" 
d="M187 0l411 571q-117 -58 -231 -51.5t-203.5 65t-136 157.5t-28.5 227q18 125 94 229t188.5 166t238.5 62q124 0 218.5 -62t142 -166t29.5 -229q-10 -77 -35.5 -126t-69.5 -115l-519 -728h-99zM401 598q106 0 197.5 51t152.5 135.5t75 182.5q15 106 -24.5 191t-117 134.5
t-176.5 49.5q-109 0 -200.5 -52.5t-152 -138t-73.5 -184.5q-15 -102 23.5 -186t115.5 -133.5t180 -49.5z" />
    <glyph glyph-name="colon" unicode=":" horiz-adv-x="313" 
d="M63 887q-22 0 -36 16.5t-11 41.5q3 22 22 38.5t41 16.5q25 0 39 -16.5t11 -38.5q-4 -25 -23 -41.5t-43 -16.5zM-65 -26q-22 0 -36.5 16.5t-10.5 40.5q3 23 21.5 39.5t41.5 16.5q24 0 38 -16.5t11 -39.5q-3 -24 -21.5 -40.5t-43.5 -16.5z" />
    <glyph glyph-name="semicolon" unicode=";" horiz-adv-x="359" 
d="M111 887q-24 0 -38.5 16.5t-11.5 39.5q4 24 23 40.5t43 16.5q23 0 37 -16.5t10 -40.5q-3 -23 -21.5 -39.5t-41.5 -16.5zM-132 -112l109 338h86l-138 -338h-57z" />
    <glyph glyph-name="less" unicode="&#x3c;" 
d="M918 246l-960 284l19 138l1040 286l-13 -91l-965 -263l892 -265z" />
    <glyph glyph-name="equal" unicode="=" 
d="M-11 752l12 86h1000l-12 -86h-1000zM-66 362l12 86h1000l-12 -86h-1000z" />
    <glyph glyph-name="greater" unicode="&#x3e;" 
d="M-82 247l13 89l966 264l-893 262l13 91l960 -285l-19 -138z" />
    <glyph glyph-name="question" unicode="?" horiz-adv-x="948" 
d="M299 509q13 91 69.5 168t144.5 121q72 36 120.5 104.5t59.5 150.5q12 80 -18 145.5t-90 104.5t-140 39q-79 0 -149.5 -39t-118.5 -104.5t-60 -145.5h-86q15 103 77.5 188.5t154.5 136t194 50.5q104 0 182 -50.5t116.5 -136t23.5 -188.5q-14 -106 -77.5 -194.5
t-159.5 -137.5q-64 -32 -105.5 -88t-51.5 -124h-86zM257 -26q-23 0 -37 17.5t-11 39.5q2 23 21 39.5t42 16.5q24 0 38 -16.5t11 -39.5q-3 -22 -22 -39.5t-42 -17.5z" />
    <glyph glyph-name="at" unicode="@" horiz-adv-x="1677" 
d="M621 -152q-157 0 -287.5 50.5t-221.5 144t-132 222.5t-19 286t100 294.5t197 241.5t264.5 163t303.5 59t287.5 -59t218.5 -163.5t128.5 -242t17.5 -293.5q-11 -75 -40.5 -151.5t-74.5 -141t-102 -103.5t-123 -39q-56 0 -103.5 26.5t-74 72.5t-19.5 105
q-53 -76 -133 -121.5t-179 -45.5q-110 0 -192.5 53.5t-123.5 144t-25 200.5q15 110 81 200t163.5 143.5t207.5 53.5q99 0 167.5 -45.5t99.5 -120.5l21 146l77 -6l-84 -592q-8 -53 33 -90.5t95 -37.5q67 0 117 52.5t82 132.5t44 164q20 139 -15.5 261t-115 214.5t-194 144.5
t-253.5 52q-138 0 -267.5 -52t-235 -144t-175 -214t-89.5 -262q-26 -186 45.5 -324.5t213.5 -215.5t327 -77zM642 230q89 0 159 50t114.5 127t55.5 160q11 78 -9.5 147.5t-77 113t-152.5 43.5q-89 0 -167.5 -43t-131.5 -115.5t-65 -161.5q-13 -90 20.5 -163t100.5 -115.5
t153 -42.5z" />
    <glyph glyph-name="A" unicode="A" horiz-adv-x="1298" 
d="M590 1400h118l313 -1400h-91l-73 327h-717l-165 -327h-92zM183 413h654l-201 897z" />
    <glyph glyph-name="B" unicode="B" horiz-adv-x="1085" 
d="M-77 0l197 1400h453q98 0 173 -39.5t112 -116.5t21 -188q-9 -71 -45 -132t-82 -101t-87 -48q78 -23 126 -81.5t66 -136t7 -157.5q-17 -123 -79.5 -213t-152.5 -138.5t-191 -48.5h-518zM123 808h364q112 0 200.5 64t105.5 184q19 134 -52 198.5t-183 64.5h-363zM21 81h428
q80 0 151.5 42.5t120.5 116t62 167.5q12 83 -17 156.5t-87.5 119t-138.5 45.5h-429z" />
    <glyph glyph-name="C" unicode="C" horiz-adv-x="1398" 
d="M548 -26q-142 0 -259 56.5t-198 156t-115.5 231t-13.5 282.5q21 150 93 281.5t180.5 231.5t241.5 156.5t275 56.5q170 0 301.5 -79t207.5 -211l-81 -40q-66 112 -184 178t-257 66q-126 0 -242.5 -51t-211 -140t-157 -204.5t-80.5 -244.5q-19 -133 11.5 -248.5t101 -204
t172.5 -138t227 -49.5q145 0 279.5 67.5t229.5 175.5l69 -41q-113 -132 -266.5 -210t-323.5 -78z" />
    <glyph glyph-name="D" unicode="D" horiz-adv-x="1342" 
d="M-77 0l197 1400h462q146 0 265 -54.5t202 -151t119.5 -223t15.5 -271.5q-20 -145 -92.5 -271.5t-182 -223t-244 -151t-280.5 -54.5h-462zM22 86h376q128 0 246 47.5t214 132t159 196t81 238.5t-14 238.5t-104.5 196t-177 132t-232.5 47.5h-376z" />
    <glyph glyph-name="E" unicode="E" horiz-adv-x="1059" 
d="M-77 0l197 1400h839l-12 -86h-753l-73 -521h634l-12 -86h-635l-86 -621h752l-12 -86h-839z" />
    <glyph glyph-name="F" unicode="F" horiz-adv-x="954" 
d="M-77 0l197 1400h814l-12 -86h-728l-73 -521h632l-13 -86h-632l-99 -707h-86z" />
    <glyph glyph-name="G" unicode="G" horiz-adv-x="1496" 
d="M550 -26q-144 0 -261 56.5t-198 156.5t-115.5 231.5t-13.5 281.5q21 151 93.5 283t181.5 231.5t242 155.5t275 56q166 0 298.5 -77.5t210.5 -210.5l-83 -43q-71 117 -187.5 181t-251.5 64q-125 0 -242 -50.5t-212 -139.5t-158 -204.5t-81 -245.5q-19 -132 11.5 -247.5
t101.5 -204t173.5 -138.5t227.5 -50q147 0 280.5 69t233.5 185t145 257h-442l11 82h541q-27 -141 -101 -264t-180.5 -216.5t-235 -146t-264.5 -52.5z" />
    <glyph glyph-name="H" unicode="H" horiz-adv-x="1227" 
d="M1021 1400h86l-197 -1400h-86l99 707h-815l-99 -707h-86l197 1400h86l-85 -607h815z" />
    <glyph glyph-name="I" unicode="I" horiz-adv-x="386" 
d="M-47 0l197 1400h86l-197 -1400h-86z" />
    <glyph glyph-name="J" unicode="J" horiz-adv-x="759" 
d="M72 -26q-63 0 -120 21t-101 64l65 66q66 -65 168 -65q77 0 147 42t117.5 109.5t58.5 145.5l146 1043h86l-146 -1043q-14 -101 -76 -188t-152.5 -141t-192.5 -54z" />
    <glyph glyph-name="K" unicode="K" horiz-adv-x="1011" 
d="M758 0h-110l-400 670l-169 -175l-70 -495h-86l197 1400h86l-108 -770l754 770h112l-649 -662z" />
    <glyph glyph-name="L" unicode="L" horiz-adv-x="981" 
d="M-77 0l197 1400h86l-184 -1314h674l-12 -86h-761z" />
    <glyph glyph-name="M" unicode="M" horiz-adv-x="1717" 
d="M-77 0l467 1400h51l263 -1099l570 1099h51l75 -1400h-88l-63 1177l-546 -1054h-49l-251 1054l-393 -1177h-87z" />
    <glyph glyph-name="N" unicode="N" horiz-adv-x="1289" 
d="M-50 0l197 1400h94l639 -1245l176 1245h86l-197 -1400h-92l-642 1245l-175 -1245h-86z" />
    <glyph glyph-name="O" unicode="O" horiz-adv-x="1540" 
d="M570 -26q-142 0 -259.5 56.5t-198.5 156.5t-116 231.5t-14 281.5t93 281.5t181.5 231.5t242.5 156.5t275 56.5q143 0 260 -56.5t197.5 -156.5t116 -231.5t14.5 -281.5t-93.5 -281.5t-181.5 -231.5t-241.5 -156.5t-275.5 -56.5zM582 60q126 0 243 50.5t212 139.5
t158 204.5t81 245.5q18 131 -12.5 247t-101.5 204.5t-173.5 138.5t-227.5 50q-126 0 -243 -50.5t-212 -139.5t-157.5 -204.5t-80.5 -245.5q-19 -132 11.5 -248t101.5 -204t173.5 -138t227.5 -50z" />
    <glyph glyph-name="P" unicode="P" horiz-adv-x="1015" 
d="M-77 0l197 1400h421q110 0 192 -53t122 -144.5t24 -205.5q-17 -115 -83.5 -206.5t-163 -144t-204.5 -52.5h-335l-84 -594h-86zM105 680h331q86 0 162.5 41.5t129 114t65.5 163.5q13 92 -19.5 164.5t-97 114t-150.5 41.5h-331z" />
    <glyph glyph-name="Q" unicode="Q" horiz-adv-x="1543" 
d="M1200 -15l-148 174q-104 -87 -228 -135.5t-254 -48.5q-143 0 -260.5 56.5t-198 156.5t-115.5 231.5t-14 281.5t93 281.5t181 231.5t242 156.5t276 56.5t259.5 -56.5t197 -156.5t115.5 -231.5t14 -281.5q-19 -139 -83 -262t-159 -220l151 -173zM582 61q107 0 217 41.5
t198 117.5l-213 248l69 62l213 -247q175 181 208 418q19 132 -12 248t-102 204t-173 138t-226 50q-126 0 -242.5 -51t-212 -140t-158 -204.5t-80.5 -244.5q-19 -132 12 -248t102 -204t173.5 -138t226.5 -50z" />
    <glyph glyph-name="R" unicode="R" horiz-adv-x="1091" 
d="M-50 0l197 1400h443q111 0 192.5 -53t121.5 -144.5t24 -205.5q-16 -107 -74 -193t-144 -140t-184 -65l261 -599h-100l-260 594h-307l-84 -594h-86zM132 680h353q86 0 162.5 41.5t129 114t65.5 163.5q13 92 -19.5 164.5t-97 114t-150.5 41.5h-353z" />
    <glyph glyph-name="S" unicode="S" horiz-adv-x="1205" 
d="M402 -26q-110 0 -209 34t-167 97t-86 151l84 31q16 -74 75 -124.5t142.5 -76.5t171.5 -26q108 0 206 36.5t165 103.5t79 157q13 92 -38 150.5t-140 93t-188 52.5q-137 26 -243 66.5t-160 115t-36 201.5q16 117 97 203t200.5 133t249.5 47q105 0 203 -32.5t168 -96
t92 -155.5l-87 -29q-15 74 -74.5 124.5t-143 76.5t-171.5 26q-108 0 -206 -37t-164 -104t-78 -156q-15 -102 30.5 -158t133.5 -84.5t202 -50.5q127 -24 233 -70.5t164 -124t42 -191.5q-16 -117 -97 -203t-200 -133t-250 -47z" />
    <glyph glyph-name="T" unicode="T" horiz-adv-x="1258" 
d="M1178 1400l-12 -86h-507l-185 -1314h-86l185 1314h-505l12 86h1098z" />
    <glyph glyph-name="U" unicode="U" horiz-adv-x="1308" 
d="M454 -26q-168 0 -276 82t-152 220.5t-21 307.5l115 816h86l-115 -816q-20 -143 15 -262t125 -190.5t235 -71.5q147 0 257 72t177.5 191.5t86.5 260.5l115 816h86l-115 -816q-23 -169 -106 -307.5t-214 -220.5t-299 -82z" />
    <glyph glyph-name="V" unicode="V" horiz-adv-x="1153" 
d="M331 0l-311 1400h92l284 -1281l646 1281h91l-707 -1400h-95z" />
    <glyph glyph-name="W" unicode="W" horiz-adv-x="1739" 
d="M261 0l-161 1400h89l145 -1264l499 1264h73l145 -1264l499 1264h89l-553 -1400h-108l-137 1193l-474 -1193h-106z" />
    <glyph glyph-name="X" unicode="X" horiz-adv-x="1252" 
d="M-137 0l613 704l-410 696h106l366 -624l542 624h106l-604 -696l413 -704h-106l-371 630l-547 -630h-108z" />
    <glyph glyph-name="Y" unicode="Y" horiz-adv-x="1139" 
d="M978 1400h101l-574 -765l-90 -635h-86l90 635l-359 765h101l314 -670z" />
    <glyph glyph-name="Z" unicode="Z" horiz-adv-x="1372" 
d="M-77 0l13 86l1191 1228h-1019l12 86h1132l-12 -86l-1191 -1228h1019l-13 -86h-1132z" />
    <glyph glyph-name="bracketleft" unicode="[" horiz-adv-x="486" 
d="M185 -26l-11 -86h-266l212 1512h266l-12 -86h-180l-188 -1340h179z" />
    <glyph glyph-name="backslash" unicode="\" horiz-adv-x="652" 
d="M274 -112l-194 1512h86l194 -1512h-86z" />
    <glyph glyph-name="bracketright" unicode="]" horiz-adv-x="486" 
d="M-112 -112l12 86h180l188 1340h-180l12 86h266l-212 -1512h-266z" />
    <glyph glyph-name="asciicircum" unicode="^" horiz-adv-x="695" 
d="M24 1000l327 650h63l145 -650h-91l-108 485l-246 -485h-90z" />
    <glyph glyph-name="underscore" unicode="_" horiz-adv-x="1240" 
d="M-80 -26h1000l-12 -86h-1000z" />
    <glyph glyph-name="grave" unicode="`" horiz-adv-x="966" 
d="M324 1426h86l39 -288h-35z" />
    <glyph glyph-name="a" unicode="a" horiz-adv-x="1193" 
d="M931 1000h86l-141 -1000h-86l30 218q-68 -110 -176.5 -177t-245.5 -67q-146 0 -255.5 71.5t-164 191t-34.5 265.5q16 109 70 204.5t136.5 167.5t183 113t208.5 41q140 0 230.5 -67.5t129.5 -177.5zM410 59q122 0 216.5 60t153.5 160.5t75 222.5q16 123 -16.5 223
t-111 159t-197.5 59q-122 0 -230 -60t-180.5 -161t-89.5 -224q-16 -123 31 -222.5t139 -158t210 -58.5z" />
    <glyph glyph-name="b" unicode="b" horiz-adv-x="1183" 
d="M545 1028q145 0 254.5 -71t164 -191t33.5 -266q-15 -109 -69.5 -204t-137 -167.5t-183.5 -113.5t-210 -41q-138 0 -229 67.5t-128 177.5l-31 -219h-86l211 1500h86l-101 -717q69 110 178.5 177.5t247.5 67.5zM408 59q122 0 230.5 60t181.5 160t90 221q18 125 -29 225.5
t-139 159t-210 58.5q-121 0 -215.5 -60t-154 -161t-76.5 -222q-17 -123 15 -223t109.5 -159t197.5 -59z" />
    <glyph glyph-name="c" unicode="c" horiz-adv-x="1018" 
d="M717 225l70 -41q-81 -96 -193 -153t-234 -57q-138 0 -241.5 71t-154 190.5t-30.5 264.5q15 110 67.5 205.5t131.5 168t175.5 113.5t199.5 41q122 0 218 -57t150 -153l-81 -41q-49 79 -129.5 122t-170.5 43q-116 0 -218.5 -60.5t-171 -161t-85.5 -220.5
q-17 -121 24.5 -221t127.5 -159.5t200 -59.5q97 0 188.5 46t156.5 119z" />
    <glyph glyph-name="d" unicode="d" horiz-adv-x="1208" 
d="M991 1500h86l-211 -1500h-86l31 219q-69 -110 -178 -177.5t-247 -67.5q-145 0 -254.5 71t-163.5 190.5t-34 264.5q15 109 69.5 205t137 168.5t183.5 113.5t210 41q138 0 228.5 -67.5t127.5 -177.5zM398 59q122 0 216.5 59.5t154 160t76.5 221.5q17 124 -15 224.5
t-110 159.5t-198 59q-121 0 -229 -60t-181.5 -160.5t-90.5 -222.5q-18 -124 28.5 -224t138.5 -158.5t210 -58.5z" />
    <glyph glyph-name="e" unicode="e" horiz-adv-x="1118" 
d="M360 -26q-138 0 -241.5 71t-154 190.5t-30.5 264.5q15 110 67.5 205.5t131.5 168t175.5 113.5t199.5 41q145 0 247 -72t148 -199.5t22 -293.5h-908q-6 -116 38.5 -207t126.5 -143.5t190 -52.5q118 0 222.5 62.5t175.5 173.5l84 -20q-79 -133 -211.5 -217.5t-282.5 -84.5z
M27 540h823q11 109 -33 201.5t-127.5 148.5t-193.5 56q-111 0 -208.5 -54.5t-167 -147t-93.5 -204.5z" />
    <glyph glyph-name="f" unicode="f" horiz-adv-x="635" 
d="M271 1287l-40 -287h315l-13 -86h-314l-129 -914h-86l129 914h-152l13 86h151l40 287q9 66 48.5 119.5t98 85.5t123.5 32q100 0 159 -72l-69 -60q-38 46 -102 46q-62 0 -112.5 -44.5t-59.5 -106.5z" />
    <glyph glyph-name="g" unicode="g" horiz-adv-x="1149" 
d="M887 1000h86l-148 -1046q-12 -90 -63.5 -171.5t-128.5 -145t-168 -100.5t-182 -37q-104 0 -193.5 49.5t-148 131t-70.5 178.5l85 37q5 -85 54 -155.5t124.5 -112.5t160.5 -42q74 0 148.5 30t138 82t105.5 118t52 138l38 262q-70 -108 -177 -175t-237 -67q-139 0 -243 71
t-155 190.5t-31 264.5q15 109 67.5 205t132 168.5t176.5 113.5t201 41q130 0 218 -67t127 -176zM375 59q117 0 210 61t152 161.5t76 218.5q16 120 -15.5 221t-107.5 161.5t-191 60.5q-117 0 -219.5 -60t-172 -160.5t-86.5 -222.5q-18 -123 25 -223t129 -159t200 -59z" />
    <glyph glyph-name="h" unicode="h" horiz-adv-x="1053" 
d="M853 548l-77 -548h-86l77 544q16 110 -18 200.5t-104 144.5t-165 54q-94 0 -178.5 -54t-142 -144.5t-73.5 -200.5l-77 -544h-86l211 1500h86l-97 -689q73 105 169.5 161t203.5 56q123 0 208.5 -66.5t125.5 -176t23 -237.5z" />
    <glyph glyph-name="i" unicode="i" horiz-adv-x="339" 
d="M64 1000h86l-141 -1000h-86zM139 1219q-25 0 -39 15.5t-11 39.5q4 24 22.5 39.5t42.5 15.5q23 0 37.5 -15.5t10.5 -39.5q-3 -24 -21.5 -39.5t-41.5 -15.5z" />
    <glyph glyph-name="j" unicode="j" horiz-adv-x="462" 
d="M225 1189q-23 0 -37 16.5t-11 39.5t22 40t42 17t37.5 -17t11.5 -40t-22.5 -39.5t-42.5 -16.5zM-347 -500l12 86q83 0 154 36.5t118 100t58 142.5l160 1135h86l-160 -1135q-14 -101 -74.5 -184t-152.5 -132t-201 -49z" />
    <glyph glyph-name="k" unicode="k" horiz-adv-x="963" 
d="M672 0h-98l-232 530l-270 -277l-36 -253h-86l211 1500h86l-156 -1112l600 612h112l-393 -400z" />
    <glyph glyph-name="l" unicode="l" horiz-adv-x="380" 
d="M-50 0l211 1500h86l-211 -1500h-86z" />
    <glyph glyph-name="m" unicode="m" horiz-adv-x="1698" 
d="M-99 0l141 1000h86l-27 -193q69 98 145 158t187 60q137 0 215.5 -72.5t110.5 -194.5q66 125 167 196t233 71q125 0 202.5 -65.5t107.5 -174.5t12 -237l-78 -548h-86l78 548q15 108 -7.5 196.5t-82.5 141.5t-158 53t-177 -53t-130.5 -141.5t-66.5 -196.5l-78 -548h-86
l78 548q15 108 -12 196.5t-91.5 141.5t-162.5 53q-90 0 -166 -57t-127 -150.5t-66 -201.5l-75 -530h-86z" />
    <glyph glyph-name="n" unicode="n" horiz-adv-x="1057" 
d="M838 549l-78 -549h-86l78 545q15 109 -19 199.5t-104.5 144.5t-166.5 54q-94 0 -179 -54t-143 -144.5t-74 -199.5l-77 -545h-86l141 1000h86l-27 -192q74 104 172 162t206 58q122 0 208 -66.5t125.5 -175.5t23.5 -237z" />
    <glyph glyph-name="o" unicode="o" horiz-adv-x="1120" 
d="M360 -26q-138 0 -241.5 71t-154 190.5t-30.5 264.5q15 110 67.5 205.5t131.5 168t175.5 113.5t199.5 41q138 0 241.5 -71t154.5 -191t30 -266q-15 -109 -67.5 -204t-131.5 -167.5t-175 -113.5t-200 -41zM372 60q116 0 218.5 61t171.5 161t86 218q17 119 -24.5 219.5
t-126.5 161.5t-202 61t-219 -61t-170.5 -161.5t-85.5 -219.5q-18 -123 24.5 -222.5t128.5 -158.5t199 -59z" />
    <glyph glyph-name="p" unicode="p" horiz-adv-x="1203" 
d="M-61 -500h-86l211 1500h86l-31 -219q69 110 178 177.5t247 67.5q145 0 254.5 -71t164 -190.5t34.5 -264.5q-16 -109 -70.5 -205t-137 -168.5t-183.5 -113.5t-210 -41q-138 0 -228.5 67.5t-127.5 177.5zM532 941q-120 0 -214 -59t-154.5 -159t-77.5 -223
q-17 -121 14.5 -222t108.5 -161t199 -60q118 0 226.5 58.5t183 159t92.5 225.5q17 121 -28 221.5t-136.5 160t-213.5 59.5z" />
    <glyph glyph-name="q" unicode="q" horiz-adv-x="1203" 
d="M405 -28q-145 0 -254.5 71t-163.5 191t-33 266q15 109 69 204t136.5 167.5t183.5 113.5t210 41q138 0 229 -67.5t128 -177.5l31 219h86l-211 -1500h-86l101 717q-69 -110 -178.5 -177.5t-247.5 -67.5zM542 941q-122 0 -230 -59.5t-181.5 -160t-89.5 -221.5
q-18 -125 28.5 -225.5t138.5 -159t210 -58.5q122 0 216 60t154 161t77 222q17 123 -15 223t-110 159t-198 59z" />
    <glyph glyph-name="r" unicode="r" horiz-adv-x="698" 
d="M587 922q-47 21 -103 21q-95 0 -180 -54t-143.5 -144.5t-74.5 -200.5l-77 -544h-86l141 1000h86l-27 -192q74 103 172.5 161.5t206.5 58.5q64 0 111 -18z" />
    <glyph glyph-name="s" unicode="s" horiz-adv-x="874" 
d="M247 -20q-85 1 -161 29.5t-128.5 77.5t-66.5 109l81 33q12 -49 58 -87t109 -59.5t123 -21.5q73 0 139.5 25t112 70.5t54.5 105.5q9 64 -27 101t-97 60t-127 44q-107 33 -183 66t-112.5 83t-24.5 134q12 87 72.5 150.5t148 98.5t181.5 35q124 0 216.5 -54.5t120.5 -142.5
l-78 -42q-20 74 -99.5 115.5t-168.5 42.5q-74 0 -141.5 -24t-113 -69.5t-54.5 -108.5q-9 -65 21 -98.5t90.5 -55t143.5 -49.5q89 -29 165.5 -63.5t119 -86.5t31.5 -135q-13 -87 -74 -151t-149 -98.5t-182 -33.5z" />
    <glyph glyph-name="t" unicode="t" horiz-adv-x="677" 
d="M550 914h-263l-130 -914h-86l130 914h-198l13 86h198l42 314h86l-42 -314h262z" />
    <glyph glyph-name="u" unicode="u" horiz-adv-x="1097" 
d="M-13 453l77 547h86l-76 -543q-16 -109 17.5 -199.5t104.5 -144.5t166 -54q94 0 179 54t143.5 144.5t74.5 199.5l76 543h86l-141 -1000h-86l28 194q-75 -104 -172.5 -162t-204.5 -58q-123 0 -209 66.5t-125.5 175.5t-23.5 237z" />
    <glyph glyph-name="v" unicode="v" horiz-adv-x="958" 
d="M335 0h-106l-225 1004h92l201 -901l453 901h92z" />
    <glyph glyph-name="w" unicode="w" horiz-adv-x="1584" 
d="M291 0h-92l-195 1000h84l175 -888l423 888h100l173 -888l423 888h86l-477 -1000h-94l-177 899z" />
    <glyph glyph-name="x" unicode="x" horiz-adv-x="998" 
d="M-117 0l437 502l-296 502h107l253 -428l372 428h106l-436 -502l295 -502h-106l-251 430l-375 -430h-106z" />
    <glyph glyph-name="y" unicode="y" horiz-adv-x="974" 
d="M748 1000h90l-757 -1500h-92l252 500l-217 1000h94l183 -881z" />
    <glyph glyph-name="z" unicode="z" horiz-adv-x="1058" 
d="M888 914l-852 -828h736l-13 -86h-854l13 86l851 828h-735l12 86h854z" />
    <glyph glyph-name="braceleft" unicode="{" horiz-adv-x="794" 
d="M425 -114q-97 0 -170 47.5t-109 127t-22 175.5l35 246q3 36 -20 54.5t-54 30.5t-53.5 28t-18.5 47q5 34 32 51t61.5 28.5t62.5 29t35 53.5l35 246q13 96 71.5 175.5t144.5 127t183 47.5h56l-11 -86h-57q-72 0 -137 -35.5t-109.5 -95.5t-54.5 -133l-35 -249
q-8 -42 -23.5 -64.5t-47 -42t-86.5 -52.5q47 -33 73 -52.5t34.5 -41t4.5 -63.5l-35 -249q-10 -73 17.5 -132.5t82.5 -95.5t128 -36h56l-12 -86h-57z" />
    <glyph glyph-name="bar" unicode="|" horiz-adv-x="366" 
d="M140 1400h86l-239 -1702h-86z" />
    <glyph glyph-name="braceright" unicode="}" horiz-adv-x="794" 
d="M-113 -114l13 86h56q73 0 138 36t108.5 95.5t53.5 132.5l36 249q8 42 22.5 63.5t45.5 41t87 52.5q-45 33 -70.5 52.5t-34.5 42t-6 64.5l35 249q10 73 -17.5 133t-82 95.5t-126.5 35.5h-57l12 86h56q97 0 170 -47.5t109 -127t22 -175.5l-35 -246q-3 -36 20.5 -53.5
t54.5 -29t53 -28.5t18 -51q-5 -31 -31.5 -47t-61 -28t-63 -30.5t-35.5 -54.5l-35 -246q-13 -96 -71 -175.5t-144.5 -127t-183.5 -47.5h-56z" />
    <glyph glyph-name="asciitilde" unicode="~" horiz-adv-x="1181" 
d="M728 437q-62 0 -130 36.5t-135.5 84.5t-129.5 84t-112 36q-51 1 -93.5 -27.5t-66.5 -74.5t-19 -98l-85 -12q-10 72 26.5 140.5t103 113t145.5 44.5q58 0 122.5 -37t129.5 -85t128 -84.5t120 -36.5q52 0 95.5 28t67.5 73t17 95l86 15q11 -77 -26 -144.5t-102.5 -109
t-141.5 -41.5z" />
    <glyph glyph-name="uni00A0" unicode="&#xa0;" horiz-adv-x="480" 
 />
    <glyph glyph-name="exclamdown" unicode="&#xa1;" horiz-adv-x="277" 
d="M82 1026q25 0 39.5 -16.5t10.5 -40.5q-3 -23 -22 -39.5t-43 -16.5q-23 0 -37 16.5t-11 39.5q4 24 22.5 40.5t40.5 16.5zM61 580l-138 -980h-81l138 980h81z" />
    <glyph glyph-name="cent" unicode="&#xa2;" horiz-adv-x="1092" 
d="M344 0l28 201q-128 11 -222.5 80t-140 179t-27.5 242t95 241.5t191 178.5t245 79l28 199h75l-28 -199q124 -7 219.5 -72t142.5 -167l-80 -43q-43 90 -132.5 144.5t-195.5 54.5q-113 0 -215.5 -56t-172.5 -150.5t-86 -209.5q-17 -118 27.5 -212.5t131.5 -150t199 -55.5
q105 0 209.5 54.5t172.5 144.5l69 -43q-76 -102 -190 -167t-240 -72l-28 -201h-75z" />
    <glyph glyph-name="sterling" unicode="&#xa3;" horiz-adv-x="1143" 
d="M-93 0l13 86q81 0 155.5 29t123.5 81.5t55 122.5q5 40 2 72.5t-12 59.5h-273l10 75h222q-31 40 -68.5 74t-69.5 76t-48 103.5t-3 156.5q15 101 65.5 190t128 156.5t171.5 105.5t195 38q136 0 238.5 -66t153 -177.5t31.5 -246.5h-86q16 111 -26 202.5t-126.5 146.5
t-196.5 55q-111 0 -210.5 -55t-167.5 -146.5t-84 -202.5q-13 -99 5.5 -158.5t55 -98t77 -72.5t69.5 -81h415l-10 -75h-374q6 -29 7 -64t-5 -79q-10 -75 -70 -136t-122 -86h727l-12 -86h-956z" />
    <glyph glyph-name="currency" unicode="&#xa4;" horiz-adv-x="961" 
d="M-22 299l-45 53l138 123q-43 65 -49 144.5t23 159t91 145.5l-106 125l61 52l107 -124q71 52 153.5 69.5t160.5 1t134 -68.5l140 122l45 -52l-138 -123q45 -66 52 -146.5t-22 -161t-91 -145.5l102 -121l-61 -53l-103 120q-112 -82 -238.5 -81t-215.5 83zM343 413
q78 0 148 38.5t117.5 103t58.5 143.5q12 79 -17 143t-88.5 102t-138.5 38q-80 0 -149 -38t-116 -102.5t-59 -142.5q-11 -80 19.5 -145t90 -102.5t134.5 -37.5z" />
    <glyph glyph-name="yen" unicode="&#xa5;" horiz-adv-x="1174" 
d="M347 0l31 216h-321l11 75h321l27 191h-321l10 75h321l11 78l-359 765h101l314 -670l503 670h101l-574 -765l-11 -78h321l-10 -75h-321l-27 -191h321l-11 -75h-321l-31 -216h-86z" />
    <glyph glyph-name="brokenbar" unicode="&#xa6;" horiz-adv-x="326" 
d="M120 1400h86l-105 -750h-86zM-14 448h86l-105 -750h-86z" />
    <glyph glyph-name="section" unicode="&#xa7;" horiz-adv-x="1063" 
d="M291 -417q-124 0 -217 55t-121 142l79 42q20 -73 99 -115t168 -43q74 0 141.5 24.5t113 70t54.5 108.5q9 64 -20 101.5t-89.5 59.5t-145.5 41q-184 41 -284.5 144.5t-75.5 284.5q13 90 63 169.5t126.5 136.5t169.5 79q-135 22 -192.5 83t-42.5 167q13 87 73 150.5t147 98
t182 34.5q124 0 217 -54.5t120 -141.5l-79 -42q-19 73 -98.5 115t-167.5 43q-74 0 -141.5 -24.5t-113.5 -70t-55 -108.5q-9 -64 19.5 -101t89 -59t146.5 -42q187 -43 286.5 -143.5t73.5 -289.5q-13 -89 -63.5 -168.5t-127.5 -136t-168 -78.5q264 -42 235 -248
q-12 -87 -72 -150.5t-147.5 -98.5t-181.5 -35zM360 172q90 0 171 44t135.5 117t66.5 160q15 105 -23 180t-108.5 115t-152.5 40q-90 0 -170.5 -43.5t-135.5 -118.5t-68 -168q-13 -92 24.5 -166t107 -117t153.5 -43z" />
    <glyph glyph-name="dieresis" unicode="&#xa8;" horiz-adv-x="1189" 
d="M422 1138q-24 0 -39 15.5t-12 40.5q3 23 23 40t44 17q23 0 38 -17t12 -40q-4 -25 -23.5 -40.5t-42.5 -15.5zM695 1138q-25 0 -40 15.5t-11 40.5q3 23 22.5 40t43.5 17q23 0 38 -17t12 -40q-4 -25 -23.5 -40.5t-41.5 -15.5z" />
    <glyph glyph-name="copyright" unicode="&#xa9;" horiz-adv-x="1750" 
d="M655 -164q-165 0 -300 62t-229 171t-135.5 253.5t-18.5 308.5q23 165 105 309t206.5 253.5t277.5 171t318 61.5q164 0 299.5 -61.5t229.5 -171t135.5 -253.5t18.5 -309q-23 -164 -105 -308.5t-207 -253.5t-277.5 -171t-317.5 -62zM667 -78q149 0 285.5 56t247.5 154.5
t183.5 226.5t92.5 272q21 148 -17 277t-122.5 226.5t-205 152t-265.5 53.5q-147 -1 -283 -57t-247.5 -153.5t-184.5 -225t-93 -273.5q-21 -149 17 -278t122.5 -225.5t205 -151t264.5 -54.5zM1043 356l70 -41q-82 -96 -194 -153t-234 -57q-138 0 -241.5 71t-154 190.5
t-30.5 264.5q16 110 68 205.5t131 168t175.5 113.5t199.5 41q122 0 218 -57t151 -153l-82 -40q-49 79 -129.5 121.5t-169.5 42.5q-117 0 -219 -60.5t-171 -161t-86 -220.5q-17 -121 25 -221t127.5 -159.5t199.5 -59.5q98 0 189 46.5t157 118.5z" />
    <glyph glyph-name="ordfeminine" unicode="&#xaa;" horiz-adv-x="1193" 
d="M931 1000h86l-141 -1000h-86l30 218q-68 -110 -176.5 -177t-245.5 -67q-146 0 -255.5 71.5t-164 191t-34.5 265.5q16 109 70 204.5t136.5 167.5t183 113t208.5 41q140 0 230.5 -67.5t129.5 -177.5zM410 59q122 0 216.5 60t153.5 160.5t75 222.5q16 123 -16.5 223
t-111 159t-197.5 59q-122 0 -230 -60t-180.5 -161t-89.5 -224q-16 -123 31 -222.5t139 -158t210 -58.5z" />
    <glyph glyph-name="guillemotleft" unicode="&#xab;" horiz-adv-x="939" 
d="M260 261l-252 340l347 338h104l-347 -338l252 -340h-104zM575 261l-252 340l347 338h104l-347 -338l252 -340h-104z" />
    <glyph glyph-name="logicalnot" unicode="&#xac;" horiz-adv-x="947" 
d="M630 329l64 457h-701l13 86h786l-76 -543h-86z" />
    <glyph glyph-name="uni00AD" unicode="&#xad;" horiz-adv-x="916" 
d="M50 643h640l-13 -86h-640z" />
    <glyph glyph-name="registered" unicode="&#xae;" horiz-adv-x="928" 
d="M337 496q-114 1 -197.5 56.5t-124.5 147t-25 200.5q15 110 82 202t166.5 147t211.5 55q115 0 198.5 -56.5t124 -148.5t25.5 -199q-15 -109 -82.5 -200.5t-167 -147t-211.5 -56.5zM348 572q90 0 170.5 44.5t135.5 119t68 164.5q12 90 -22 164.5t-102 119t-158 44.5
t-170.5 -44.5t-135.5 -119t-68 -164.5t21 -164.5t102.5 -119t158.5 -44.5zM254 712l54 387h142q45 0 71.5 -33t20.5 -81q-6 -39 -33 -69t-63 -38l73 -166h-75l-72 162h-31l-22 -162h-65zM351 939h77q17 0 31 14t17 32q3 21 -7.5 34.5t-27.5 13.5h-76z" />
    <glyph glyph-name="macron" unicode="&#xaf;" horiz-adv-x="1200" 
d="M253 1335h676l-12 -86h-676z" />
    <glyph glyph-name="degree" unicode="&#xb0;" horiz-adv-x="596" 
d="M222 862q-90 0 -145 64.5t-42 153.5q8 60 44.5 109.5t90.5 79t114 29.5q91 0 145.5 -64.5t41.5 -153.5q-8 -61 -44.5 -110.5t-90.5 -78.5t-114 -29zM234 948q56 0 100 38.5t51 93.5q8 56 -24.5 94t-88.5 38q-55 0 -99 -38t-52 -94q-7 -55 25.5 -93.5t87.5 -38.5z" />
    <glyph glyph-name="plusminus" unicode="&#xb1;" 
d="M384 311l64 457h-457l12 86h457l65 457h86l-65 -457h457l-12 -86h-457l-64 -457h-86zM-117 0l13 86h1000l-13 -86h-1000z" />
    <glyph glyph-name="uni00B2" unicode="&#xb2;" horiz-adv-x="676" 
d="M14 818l12 82q41 25 105 67.5t129.5 94t113 103.5t56.5 96q8 56 -26.5 91t-90.5 35t-101 -35t-53 -91h-82q12 90 84.5 148.5t163.5 58.5q90 0 145 -58.5t43 -148.5q-7 -45 -42.5 -94.5t-87.5 -99t-109 -92.5t-107 -75h294l-12 -82h-435z" />
    <glyph glyph-name="uni00B3" unicode="&#xb3;" horiz-adv-x="545" 
d="M189 798q-84 0 -135.5 53t-39.5 138h83q-7 -50 23 -80t81 -30q49 0 87 30t45 80q8 55 -28.5 88.5t-111.5 33.5l11 76q138 0 153 105q6 42 -21.5 67.5t-69.5 25.5t-75.5 -25.5t-39.5 -67.5h-83q11 77 72 125.5t138 48.5t124.5 -48.5t36.5 -125.5q-6 -45 -32 -85t-56 -56
q39 -33 56 -68.5t9 -93.5q-12 -85 -78.5 -138t-148.5 -53z" />
    <glyph glyph-name="acute" unicode="&#xb4;" horiz-adv-x="966" 
d="M443 1138l121 288h86l-172 -288h-35z" />
    <glyph glyph-name="uni00B5" unicode="&#xb5;" horiz-adv-x="1017" 
d="M-177 -432l201 1432h86l-76 -543q-16 -109 17.5 -199.5t104.5 -144.5t166 -54q94 0 179 54t143.5 144.5t74.5 199.5l76 543h86l-141 -1000h-86l28 194q-75 -104 -172.5 -162t-204.5 -58q-111 0 -191 59t-119 153l-86 -618h-86z" />
    <glyph glyph-name="paragraph" unicode="&#xb6;" horiz-adv-x="752" 
d="M181 -302l143 1020q-94 0 -164.5 46t-105.5 123t-22 171t70 171.5t140.5 124t177.5 46.5h86l-239 -1702h-86zM347 -302l239 1702h86l-239 -1702h-86z" />
    <glyph glyph-name="periodcentered" unicode="&#xb7;" horiz-adv-x="273" 
d="M15 544q-23 0 -37 16.5t-10 40.5q3 23 21.5 39t41.5 16q24 0 38.5 -16t11.5 -39q-4 -24 -23 -40.5t-43 -16.5z" />
    <glyph glyph-name="cedilla" unicode="&#xb8;" horiz-adv-x="1189" 
d="M160 -306l11 77h41q74 0 141 37t112.5 98.5t55.5 135.5l6 41h77l-6 -41q-13 -96 -71.5 -175t-144.5 -126t-182 -47h-40z" />
    <glyph glyph-name="uni00B9" unicode="&#xb9;" horiz-adv-x="408" 
d="M100 818l77 549h-86l24 82h156l-89 -631h-82z" />
    <glyph glyph-name="ordmasculine" unicode="&#xba;" horiz-adv-x="1120" 
d="M360 -26q-138 0 -241.5 71t-154 190.5t-30.5 264.5q15 110 67.5 205.5t131.5 168t175.5 113.5t199.5 41q138 0 241.5 -71t154.5 -191t30 -266q-15 -109 -67.5 -204t-131.5 -167.5t-175 -113.5t-200 -41zM372 60q116 0 218.5 61t171.5 161t86 218q17 119 -24.5 219.5
t-126.5 161.5t-202 61t-219 -61t-170.5 -161.5t-85.5 -219.5q-18 -123 24.5 -222.5t128.5 -158.5t199 -59z" />
    <glyph glyph-name="guillemotright" unicode="&#xbb;" horiz-adv-x="959" 
d="M255 261l348 340l-253 338h104l253 -338l-348 -340h-104zM-60 261l348 340l-253 338h104l253 -338l-348 -340h-104z" />
    <glyph glyph-name="onequarter" unicode="&#xbc;" horiz-adv-x="1981" 
d="M100 818l77 549h-86l24 82h156l-89 -631h-82zM211 0l1005 1400h89l-1005 -1400h-89zM1482 0l19 133h-278l14 100l309 398h107l-58 -415h76l-11 -83h-77l-19 -133h-82zM1321 216h193l42 304z" />
    <glyph glyph-name="onehalf" unicode="&#xbd;" horiz-adv-x="1981" 
d="M100 818l77 549h-86l24 82h156l-89 -631h-82zM211 0l1005 1400h89l-1005 -1400h-89zM1204 0l12 82q41 25 105 67.5t129.5 94t113 103.5t56.5 96q8 57 -26.5 91.5t-90.5 34.5t-101 -34.5t-53 -91.5h-82q12 90 84.5 149t163.5 59q90 0 145.5 -59t42.5 -149
q-7 -44 -42.5 -94t-87.5 -99.5t-109 -92.5t-107 -75h294l-12 -82h-435z" />
    <glyph glyph-name="threequarters" unicode="&#xbe;" horiz-adv-x="2118" 
d="M189 798q-84 0 -135.5 53t-39.5 138h83q-7 -50 23 -80t81 -30q49 0 87 30t45 80q8 55 -28.5 88.5t-111.5 33.5l11 76q138 0 153 105q6 42 -21.5 67.5t-69.5 25.5t-75.5 -25.5t-39.5 -67.5h-83q11 77 72 125.5t138 48.5t124.5 -48.5t36.5 -125.5q-6 -45 -32 -85t-56 -56
q39 -33 56 -68.5t9 -93.5q-12 -85 -78.5 -138t-148.5 -53zM348 0l1005 1400h89l-1005 -1400h-89zM1619 0l19 133h-278l14 100l309 398h107l-58 -415h76l-11 -83h-77l-19 -133h-82zM1458 216h193l42 304z" />
    <glyph glyph-name="questiondown" unicode="&#xbf;" horiz-adv-x="914" 
d="M384 913q-25 0 -39 16.5t-11 39.5q4 24 22.5 40.5t42.5 16.5q23 0 37 -16.5t11 -40.5q-3 -23 -22 -39.5t-41 -16.5zM198 -428q-104 0 -181.5 50.5t-116.5 136t-24 188.5q15 106 78.5 195.5t158.5 136.5q64 32 106 89t52 125h86q-13 -90 -69.5 -167t-143.5 -122
q-74 -37 -122.5 -106t-59.5 -151q-11 -79 19 -145t90 -105t140 -39q79 0 150 39t119.5 105t59.5 145h86q-15 -103 -77.5 -188.5t-154.5 -136t-196 -50.5z" />
    <glyph glyph-name="Agrave" unicode="&#xc0;" horiz-adv-x="1298" 
d="M590 1400h118l313 -1400h-91l-73 327h-717l-165 -327h-92zM183 413h654l-201 897zM552 1826h86l39 -288h-35z" />
    <glyph glyph-name="Aacute" unicode="&#xc1;" horiz-adv-x="1298" 
d="M590 1400h118l313 -1400h-91l-73 327h-717l-165 -327h-92zM183 413h654l-201 897zM662 1538l121 288h86l-172 -288h-35z" />
    <glyph glyph-name="Acircumflex" unicode="&#xc2;" horiz-adv-x="1298" 
d="M590 1400h118l313 -1400h-91l-73 327h-717l-165 -327h-92zM183 413h654l-201 897zM672 1800h68l67 -234h-65l-45 165l-95 -165h-65z" />
    <glyph glyph-name="Atilde" unicode="&#xc3;" horiz-adv-x="1298" 
d="M590 1400h118l313 -1400h-91l-73 327h-717l-165 -327h-92zM183 413h654l-201 897zM821 1519q-37 0 -76.5 23t-79 52t-76 51t-68.5 20q-33 -2 -58.5 -32.5t-19.5 -71.5l-74 -19q-9 46 13 91.5t64 75t93 29.5q38 0 79 -22t82 -50.5t78 -50.5t67 -22q23 0 42 19t28.5 43
t5.5 41l72 22q9 -48 -13.5 -94t-65 -75.5t-93.5 -29.5z" />
    <glyph glyph-name="Adieresis" unicode="&#xc4;" horiz-adv-x="1298" 
d="M590 1400h118l313 -1400h-91l-73 327h-717l-165 -327h-92zM183 413h654l-201 897zM533 1538q-24 0 -39 15.5t-12 40.5q3 23 23 40t44 17q23 0 38 -17t12 -40q-4 -25 -23.5 -40.5t-42.5 -15.5zM806 1538q-25 0 -40 15.5t-11 40.5q3 23 22.5 40t43.5 17q23 0 38 -17t12 -40
q-4 -25 -23.5 -40.5t-41.5 -15.5z" />
    <glyph glyph-name="Aring" unicode="&#xc5;" horiz-adv-x="1298" 
d="M590 1400h118l313 -1400h-91l-73 327h-717l-165 -327h-92zM183 413h654l-201 897zM663 1500q-60 0 -96.5 43.5t-27.5 103.5q8 58 56.5 101t107.5 43q60 0 96.5 -43t28.5 -101q-9 -62 -57.5 -104.5t-107.5 -42.5zM670 1555q38 0 67.5 26.5t35.5 65.5q5 36 -17.5 62
t-60.5 26q-37 0 -67 -26t-35 -62q-6 -39 17 -65.5t60 -26.5z" />
    <glyph glyph-name="AE" unicode="&#xc6;" horiz-adv-x="1589" 
d="M-117 0l707 1400h899l-12 -86h-612l-81 -571h517l-13 -86h-516l-80 -571h612l-12 -86h-699l47 327h-500l-165 -327h-92zM183 413h468l128 901h-139z" />
    <glyph glyph-name="Ccedilla" unicode="&#xc7;" horiz-adv-x="1398" 
d="M548 -26q-142 0 -259 56.5t-198 156t-115.5 231t-13.5 282.5q21 150 93 281.5t180.5 231.5t241.5 156.5t275 56.5q170 0 301.5 -79t207.5 -211l-81 -40q-66 112 -184 178t-257 66q-126 0 -242.5 -51t-211 -140t-157 -204.5t-80.5 -244.5q-19 -133 11.5 -248.5t101 -204
t172.5 -138t227 -49.5q145 0 279.5 67.5t229.5 175.5l69 -41q-113 -132 -266.5 -210t-323.5 -78zM261 -336l11 77h41q74 0 141 37t112.5 98.5t55.5 135.5l6 41h77l-6 -41q-13 -96 -71.5 -175t-144.5 -126t-182 -47h-40z" />
    <glyph glyph-name="Egrave" unicode="&#xc8;" horiz-adv-x="1059" 
d="M-77 0l197 1400h839l-12 -86h-753l-73 -521h634l-12 -86h-635l-86 -621h752l-12 -86h-839zM432 1826h86l39 -288h-35z" />
    <glyph glyph-name="Eacute" unicode="&#xc9;" horiz-adv-x="1059" 
d="M-77 0l197 1400h839l-12 -86h-753l-73 -521h634l-12 -86h-635l-86 -621h752l-12 -86h-839zM543 1538l121 288h86l-172 -288h-35z" />
    <glyph glyph-name="Ecircumflex" unicode="&#xca;" horiz-adv-x="1059" 
d="M-77 0l197 1400h839l-12 -86h-753l-73 -521h634l-12 -86h-635l-86 -621h752l-12 -86h-839zM552 1800h68l67 -234h-65l-45 165l-95 -165h-65z" />
    <glyph glyph-name="Edieresis" unicode="&#xcb;" horiz-adv-x="1059" 
d="M-77 0l197 1400h839l-12 -86h-753l-73 -521h634l-12 -86h-635l-86 -621h752l-12 -86h-839zM413 1538q-24 0 -39 15.5t-12 40.5q3 23 23 40t44 17q23 0 38 -17t12 -40q-4 -25 -23.5 -40.5t-42.5 -15.5zM686 1538q-25 0 -40 15.5t-11 40.5q3 23 22.5 40t43.5 17
q23 0 38 -17t12 -40q-4 -25 -23.5 -40.5t-41.5 -15.5z" />
    <glyph glyph-name="Igrave" unicode="&#xcc;" horiz-adv-x="386" 
d="M-47 0l197 1400h86l-197 -1400h-86zM96 1826h86l39 -288h-35z" />
    <glyph glyph-name="Iacute" unicode="&#xcd;" horiz-adv-x="386" 
d="M-47 0l197 1400h86l-197 -1400h-86zM206 1538l121 288h86l-172 -288h-35z" />
    <glyph glyph-name="Icircumflex" unicode="&#xce;" horiz-adv-x="386" 
d="M-46 0l197 1400h86l-197 -1400h-86zM216 1800h68l67 -234h-65l-45 165l-95 -165h-65z" />
    <glyph glyph-name="Idieresis" unicode="&#xcf;" horiz-adv-x="386" 
d="M-47 0l197 1400h86l-197 -1400h-86zM77 1538q-24 0 -39 15.5t-12 40.5q3 23 23 40t44 17q23 0 38 -17t12 -40q-4 -25 -23.5 -40.5t-42.5 -15.5zM350 1538q-25 0 -40 15.5t-11 40.5q3 23 22.5 40t43.5 17q23 0 38 -17t12 -40q-4 -25 -23.5 -40.5t-41.5 -15.5z" />
    <glyph glyph-name="Eth" unicode="&#xd0;" horiz-adv-x="1453" 
d="M32 0l99 707h-129l13 86h129l85 607h464q145 0 264 -54.5t202 -151t119.5 -223t16.5 -271.5q-21 -145 -93 -271.5t-182 -223t-244.5 -151t-279.5 -54.5h-464zM131 86h378q129 0 247.5 48.5t214 134t158 196t80.5 235.5q18 129 -15 240.5t-106.5 195.5t-178 131t-228.5 47
h-378l-73 -521h381l-13 -86h-381z" />
    <glyph glyph-name="Ntilde" unicode="&#xd1;" horiz-adv-x="1289" 
d="M-50 0l197 1400h94l639 -1245l176 1245h86l-197 -1400h-92l-642 1245l-175 -1245h-86zM816 1519q-37 0 -76.5 23t-79 52t-76 51t-68.5 20q-33 -2 -58.5 -32.5t-19.5 -71.5l-74 -19q-9 46 13 91.5t64 75t93 29.5q38 0 79 -22t82 -50.5t78 -50.5t67 -22q23 0 42 19t28.5 43
t5.5 41l72 22q9 -48 -13.5 -94t-65 -75.5t-93.5 -29.5z" />
    <glyph glyph-name="Ograve" unicode="&#xd2;" horiz-adv-x="1540" 
d="M570 -26q-142 0 -259.5 56.5t-198.5 156.5t-116 231.5t-14 281.5t93 281.5t181.5 231.5t242.5 156.5t275 56.5q143 0 260 -56.5t197.5 -156.5t116 -231.5t14.5 -281.5t-93.5 -281.5t-181.5 -231.5t-241.5 -156.5t-275.5 -56.5zM582 60q126 0 243 50.5t212 139.5
t158 204.5t81 245.5q18 131 -12.5 247t-101.5 204.5t-173.5 138.5t-227.5 50q-126 0 -243 -50.5t-212 -139.5t-157.5 -204.5t-80.5 -245.5q-19 -132 11.5 -248t101.5 -204t173.5 -138t227.5 -50zM673 1826h86l39 -288h-35z" />
    <glyph glyph-name="Oacute" unicode="&#xd3;" horiz-adv-x="1540" 
d="M570 -26q-142 0 -259.5 56.5t-198.5 156.5t-116 231.5t-14 281.5t93 281.5t181.5 231.5t242.5 156.5t275 56.5q143 0 260 -56.5t197.5 -156.5t116 -231.5t14.5 -281.5t-93.5 -281.5t-181.5 -231.5t-241.5 -156.5t-275.5 -56.5zM582 60q126 0 243 50.5t212 139.5
t158 204.5t81 245.5q18 131 -12.5 247t-101.5 204.5t-173.5 138.5t-227.5 50q-126 0 -243 -50.5t-212 -139.5t-157.5 -204.5t-80.5 -245.5q-19 -132 11.5 -248t101.5 -204t173.5 -138t227.5 -50zM783 1538l121 288h86l-172 -288h-35z" />
    <glyph glyph-name="Ocircumflex" unicode="&#xd4;" horiz-adv-x="1540" 
d="M570 -26q-142 0 -259.5 56.5t-198.5 156.5t-116 231.5t-14 281.5t93 281.5t181.5 231.5t242.5 156.5t275 56.5q143 0 260 -56.5t197.5 -156.5t116 -231.5t14.5 -281.5t-93.5 -281.5t-181.5 -231.5t-241.5 -156.5t-275.5 -56.5zM582 60q126 0 243 50.5t212 139.5
t158 204.5t81 245.5q18 131 -12.5 247t-101.5 204.5t-173.5 138.5t-227.5 50q-126 0 -243 -50.5t-212 -139.5t-157.5 -204.5t-80.5 -245.5q-19 -132 11.5 -248t101.5 -204t173.5 -138t227.5 -50zM793 1800h68l67 -234h-65l-45 165l-95 -165h-65z" />
    <glyph glyph-name="Otilde" unicode="&#xd5;" horiz-adv-x="1540" 
d="M570 -26q-142 0 -259.5 56.5t-198.5 156.5t-116 231.5t-14 281.5t93 281.5t181.5 231.5t242.5 156.5t275 56.5q143 0 260 -56.5t197.5 -156.5t116 -231.5t14.5 -281.5t-93.5 -281.5t-181.5 -231.5t-241.5 -156.5t-275.5 -56.5zM582 60q126 0 243 50.5t212 139.5
t158 204.5t81 245.5q18 131 -12.5 247t-101.5 204.5t-173.5 138.5t-227.5 50q-126 0 -243 -50.5t-212 -139.5t-157.5 -204.5t-80.5 -245.5q-19 -132 11.5 -248t101.5 -204t173.5 -138t227.5 -50zM942 1519q-37 0 -76.5 23t-79 52t-76 51t-68.5 20q-33 -2 -58.5 -32.5
t-19.5 -71.5l-74 -19q-9 46 13 91.5t64 75t93 29.5q38 0 79 -22t82 -50.5t78 -50.5t67 -22q23 0 42 19t28.5 43t5.5 41l72 22q9 -48 -13.5 -94t-65 -75.5t-93.5 -29.5z" />
    <glyph glyph-name="Odieresis" unicode="&#xd6;" horiz-adv-x="1540" 
d="M570 -26q-142 0 -259.5 56.5t-198.5 156.5t-116 231.5t-14 281.5t93 281.5t181.5 231.5t242.5 156.5t275 56.5q143 0 260 -56.5t197.5 -156.5t116 -231.5t14.5 -281.5t-93.5 -281.5t-181.5 -231.5t-241.5 -156.5t-275.5 -56.5zM582 60q126 0 243 50.5t212 139.5
t158 204.5t81 245.5q18 131 -12.5 247t-101.5 204.5t-173.5 138.5t-227.5 50q-126 0 -243 -50.5t-212 -139.5t-157.5 -204.5t-80.5 -245.5q-19 -132 11.5 -248t101.5 -204t173.5 -138t227.5 -50zM654 1538q-24 0 -39 15.5t-12 40.5q3 23 23 40t44 17q23 0 38 -17t12 -40
q-4 -25 -23.5 -40.5t-42.5 -15.5zM927 1538q-25 0 -40 15.5t-11 40.5q3 23 22.5 40t43.5 17q23 0 38 -17t12 -40q-4 -25 -23.5 -40.5t-41.5 -15.5z" />
    <glyph glyph-name="multiply" unicode="&#xd7;" horiz-adv-x="928" 
d="M-26 217l-52 60l369 323l-278 323l69 60l277 -322l368 322l54 -60l-369 -323l279 -323l-71 -60l-277 322z" />
    <glyph glyph-name="Oslash" unicode="&#xd8;" horiz-adv-x="1540" 
d="M171 -68l-68 43l93 130q-120 99 -180.5 255t-33.5 340q21 150 93 281.5t181.5 231.5t242.5 156.5t275 56.5q88 0 165.5 -22t144.5 -62l91 127l67 -43l-92 -130q119 -98 178.5 -254.5t33.5 -341.5q-21 -150 -93.5 -281.5t-181.5 -231.5t-241.5 -156.5t-275.5 -56.5
q-87 0 -164.5 22.5t-144.5 61.5zM250 183l780 1083q-57 35 -125 54.5t-144 19.5q-126 0 -243 -50.5t-212 -139.5t-157.5 -204.5t-80.5 -245.5q-23 -160 28 -295.5t154 -221.5zM582 60q126 0 243 50.5t212 139.5t158 204.5t81 245.5q23 160 -28 296t-153 223l-779 -1085
q56 -35 124 -54.5t142 -19.5z" />
    <glyph glyph-name="Ugrave" unicode="&#xd9;" horiz-adv-x="1308" 
d="M454 -26q-168 0 -276 82t-152 220.5t-21 307.5l115 816h86l-115 -816q-20 -143 15 -262t125 -190.5t235 -71.5q147 0 257 72t177.5 191.5t86.5 260.5l115 816h86l-115 -816q-23 -169 -106 -307.5t-214 -220.5t-299 -82zM557 1826h86l39 -288h-35z" />
    <glyph glyph-name="Uacute" unicode="&#xda;" horiz-adv-x="1308" 
d="M454 -26q-168 0 -276 82t-152 220.5t-21 307.5l115 816h86l-115 -816q-20 -143 15 -262t125 -190.5t235 -71.5q147 0 257 72t177.5 191.5t86.5 260.5l115 816h86l-115 -816q-23 -169 -106 -307.5t-214 -220.5t-299 -82zM668 1538l121 288h86l-172 -288h-35z" />
    <glyph glyph-name="Ucircumflex" unicode="&#xdb;" horiz-adv-x="1308" 
d="M454 -26q-168 0 -276 82t-152 220.5t-21 307.5l115 816h86l-115 -816q-20 -143 15 -262t125 -190.5t235 -71.5q147 0 257 72t177.5 191.5t86.5 260.5l115 816h86l-115 -816q-23 -169 -106 -307.5t-214 -220.5t-299 -82zM677 1800h68l67 -234h-65l-45 165l-95 -165h-65z
" />
    <glyph glyph-name="Udieresis" unicode="&#xdc;" horiz-adv-x="1308" 
d="M454 -26q-168 0 -276 82t-152 220.5t-21 307.5l115 816h86l-115 -816q-20 -143 15 -262t125 -190.5t235 -71.5q147 0 257 72t177.5 191.5t86.5 260.5l115 816h86l-115 -816q-23 -169 -106 -307.5t-214 -220.5t-299 -82zM538 1538q-24 0 -39 15.5t-12 40.5q3 23 23 40
t44 17q23 0 38 -17t12 -40q-4 -25 -23.5 -40.5t-42.5 -15.5zM811 1538q-25 0 -40 15.5t-11 40.5q3 23 22.5 40t43.5 17q23 0 38 -17t12 -40q-4 -25 -23.5 -40.5t-41.5 -15.5z" />
    <glyph glyph-name="Yacute" unicode="&#xdd;" horiz-adv-x="1139" 
d="M978 1400h101l-574 -765l-90 -635h-86l90 635l-359 765h101l314 -670zM583 1538l121 288h86l-172 -288h-35z" />
    <glyph glyph-name="Thorn" unicode="&#xde;" horiz-adv-x="1015" 
d="M-77 0l197 1400h86l-42 -297h335q111 0 193 -53t121.5 -144.5t23.5 -205.5q-16 -115 -83 -206.5t-164 -144t-204 -52.5h-335l-42 -297h-86zM63 383h332q85 0 161.5 41.5t129 113.5t66.5 164q12 92 -20.5 164.5t-97.5 114t-150 41.5h-332z" />
    <glyph glyph-name="germandbls" unicode="&#xdf;" horiz-adv-x="1029" 
d="M-77 0l138 981q16 114 85.5 209.5t172.5 152.5t219 57q98 0 171 -50.5t109 -135.5t22 -188q-14 -99 -74 -184.5t-145 -130.5q111 -32 165.5 -128.5t37.5 -216.5q-14 -101 -75.5 -184.5t-152 -132.5t-191.5 -49h-74l-10 81h93q79 0 150 39t119 104.5t59 144.5t-19 143.5
t-90 103t-139 39.5h-93l12 80h28q74 1 141.5 40t113.5 105t58 146q11 80 -16.5 146.5t-83.5 106.5t-131 40q-91 0 -171.5 -44.5t-135.5 -119.5t-68 -166l-139 -989h-86z" />
    <glyph glyph-name="agrave" unicode="&#xe0;" horiz-adv-x="1193" 
d="M931 1000h86l-141 -1000h-86l30 218q-68 -110 -176.5 -177t-245.5 -67q-146 0 -255.5 71.5t-164 191t-34.5 265.5q16 109 70 204.5t136.5 167.5t183 113t208.5 41q140 0 230.5 -67.5t129.5 -177.5zM410 59q122 0 216.5 60t153.5 160.5t75 222.5q16 123 -16.5 223
t-111 159t-197.5 59q-122 0 -230 -60t-180.5 -161t-89.5 -224q-16 -123 31 -222.5t139 -158t210 -58.5zM443 1426h86l39 -288h-35z" />
    <glyph glyph-name="aacute" unicode="&#xe1;" horiz-adv-x="1193" 
d="M931 1000h86l-141 -1000h-86l30 218q-68 -110 -176.5 -177t-245.5 -67q-146 0 -255.5 71.5t-164 191t-34.5 265.5q16 109 70 204.5t136.5 167.5t183 113t208.5 41q140 0 230.5 -67.5t129.5 -177.5zM410 59q122 0 216.5 60t153.5 160.5t75 222.5q16 123 -16.5 223
t-111 159t-197.5 59q-122 0 -230 -60t-180.5 -161t-89.5 -224q-16 -123 31 -222.5t139 -158t210 -58.5zM554 1138l121 288h86l-172 -288h-35z" />
    <glyph glyph-name="acircumflex" unicode="&#xe2;" horiz-adv-x="1193" 
d="M931 1000h86l-141 -1000h-86l30 218q-68 -110 -176.5 -177t-245.5 -67q-146 0 -255.5 71.5t-164 191t-34.5 265.5q16 109 70 204.5t136.5 167.5t183 113t208.5 41q140 0 230.5 -67.5t129.5 -177.5zM410 59q122 0 216.5 60t153.5 160.5t75 222.5q16 123 -16.5 223
t-111 159t-197.5 59q-122 0 -230 -60t-180.5 -161t-89.5 -224q-16 -123 31 -222.5t139 -158t210 -58.5zM564 1400h68l67 -234h-65l-45 165l-95 -165h-65z" />
    <glyph glyph-name="atilde" unicode="&#xe3;" horiz-adv-x="1193" 
d="M931 1000h86l-141 -1000h-86l30 218q-68 -110 -176.5 -177t-245.5 -67q-146 0 -255.5 71.5t-164 191t-34.5 265.5q16 109 70 204.5t136.5 167.5t183 113t208.5 41q140 0 230.5 -67.5t129.5 -177.5zM410 59q122 0 216.5 60t153.5 160.5t75 222.5q16 123 -16.5 223
t-111 159t-197.5 59q-122 0 -230 -60t-180.5 -161t-89.5 -224q-16 -123 31 -222.5t139 -158t210 -58.5zM713 1119q-37 0 -76.5 23t-79 52t-76 51t-68.5 20q-33 -2 -58.5 -32.5t-19.5 -71.5l-74 -19q-9 46 13 91.5t64 75t93 29.5q38 0 79 -22t82 -50.5t78 -50.5t67 -22
q23 0 42 19t28.5 43t5.5 41l72 22q9 -48 -13.5 -94t-65 -75.5t-93.5 -29.5z" />
    <glyph glyph-name="adieresis" unicode="&#xe4;" horiz-adv-x="1193" 
d="M931 1000h86l-141 -1000h-86l30 218q-68 -110 -176.5 -177t-245.5 -67q-146 0 -255.5 71.5t-164 191t-34.5 265.5q16 109 70 204.5t136.5 167.5t183 113t208.5 41q140 0 230.5 -67.5t129.5 -177.5zM410 59q122 0 216.5 60t153.5 160.5t75 222.5q16 123 -16.5 223
t-111 159t-197.5 59q-122 0 -230 -60t-180.5 -161t-89.5 -224q-16 -123 31 -222.5t139 -158t210 -58.5zM424 1138q-24 0 -39 15.5t-12 40.5q3 23 23 40t44 17q23 0 38 -17t12 -40q-4 -25 -23.5 -40.5t-42.5 -15.5zM697 1138q-25 0 -40 15.5t-11 40.5q3 23 22.5 40t43.5 17
q23 0 38 -17t12 -40q-4 -25 -23.5 -40.5t-41.5 -15.5z" />
    <glyph glyph-name="aring" unicode="&#xe5;" horiz-adv-x="1193" 
d="M931 1000h86l-141 -1000h-86l30 218q-68 -110 -176.5 -177t-245.5 -67q-146 0 -255.5 71.5t-164 191t-34.5 265.5q16 109 70 204.5t136.5 167.5t183 113t208.5 41q140 0 230.5 -67.5t129.5 -177.5zM410 59q122 0 216.5 60t153.5 160.5t75 222.5q16 123 -16.5 223
t-111 159t-197.5 59q-122 0 -230 -60t-180.5 -161t-89.5 -224q-16 -123 31 -222.5t139 -158t210 -58.5zM555 1100q-60 0 -96.5 43.5t-27.5 103.5q8 58 56.5 101t107.5 43q60 0 96.5 -43t28.5 -101q-9 -62 -57.5 -104.5t-107.5 -42.5zM562 1155q38 0 67.5 26.5t35.5 65.5
q5 36 -17.5 62t-60.5 26q-37 0 -67 -26t-35 -62q-6 -39 17 -65.5t60 -26.5z" />
    <glyph glyph-name="ae" unicode="&#xe6;" horiz-adv-x="1897" 
d="M268 -3q-96 0 -181 34t-133.5 105.5t-33.5 184.5q18 97 74.5 149.5t137 72.5t169.5 20h418q6 84 6 157.5t-20.5 129t-75 87t-157.5 31.5q-85 0 -175.5 -27.5t-145.5 -101.5l-68 43q47 66 114.5 102.5t142 51.5t143.5 15q119 0 186.5 -39.5t97 -107t34.5 -151.5
q77 132 208.5 215t279.5 83q145 0 247.5 -72t148.5 -199.5t22 -293.5h-908q-6 -115 38.5 -206.5t126.5 -144t190 -52.5q118 0 222 63t176 174l84 -21q-79 -133 -212 -217.5t-283 -84.5q-140 0 -243.5 74t-150.5 193q-26 -77 -81 -137t-129 -95t-156 -35h-113zM808 563h823
q10 109 -33 201.5t-126.5 149t-193.5 56.5q-111 0 -209 -55t-167.5 -147t-93.5 -205zM335 70q118 0 188.5 39t106.5 94t48.5 105t15.5 72l15 106h-400q-125 0 -206 -34.5t-99 -134.5q-12 -97 31 -150.5t122.5 -75t177.5 -21.5z" />
    <glyph glyph-name="ccedilla" unicode="&#xe7;" horiz-adv-x="1018" 
d="M717 225l70 -41q-81 -96 -193 -153t-234 -57q-138 0 -241.5 71t-154 190.5t-30.5 264.5q15 110 67.5 205.5t131.5 168t175.5 113.5t199.5 41q122 0 218 -57t150 -153l-81 -41q-49 79 -129.5 122t-170.5 43q-116 0 -218.5 -60.5t-171 -161t-85.5 -220.5
q-17 -121 24.5 -221t127.5 -159.5t200 -59.5q97 0 188.5 46t156.5 119zM71 -336l11 77h41q74 0 141 37t112.5 98.5t55.5 135.5l6 41h77l-6 -41q-13 -96 -71.5 -175t-144.5 -126t-182 -47h-40z" />
    <glyph glyph-name="egrave" unicode="&#xe8;" horiz-adv-x="1118" 
d="M360 -26q-138 0 -241.5 71t-154 190.5t-30.5 264.5q15 110 67.5 205.5t131.5 168t175.5 113.5t199.5 41q145 0 247 -72t148 -199.5t22 -293.5h-908q-6 -116 38.5 -207t126.5 -143.5t190 -52.5q118 0 222.5 62.5t175.5 173.5l84 -20q-79 -133 -211.5 -217.5t-282.5 -84.5z
M27 540h823q11 109 -33 201.5t-127.5 148.5t-193.5 56q-111 0 -208.5 -54.5t-167 -147t-93.5 -204.5zM406 1426h86l39 -288h-35z" />
    <glyph glyph-name="eacute" unicode="&#xe9;" horiz-adv-x="1118" 
d="M360 -26q-138 0 -241.5 71t-154 190.5t-30.5 264.5q15 110 67.5 205.5t131.5 168t175.5 113.5t199.5 41q145 0 247 -72t148 -199.5t22 -293.5h-908q-6 -116 38.5 -207t126.5 -143.5t190 -52.5q118 0 222.5 62.5t175.5 173.5l84 -20q-79 -133 -211.5 -217.5t-282.5 -84.5z
M27 540h823q11 109 -33 201.5t-127.5 148.5t-193.5 56q-111 0 -208.5 -54.5t-167 -147t-93.5 -204.5zM516 1138l121 288h86l-172 -288h-35z" />
    <glyph glyph-name="ecircumflex" unicode="&#xea;" horiz-adv-x="1118" 
d="M360 -26q-138 0 -241.5 71t-154 190.5t-30.5 264.5q15 110 67.5 205.5t131.5 168t175.5 113.5t199.5 41q145 0 247 -72t148 -199.5t22 -293.5h-908q-6 -116 38.5 -207t126.5 -143.5t190 -52.5q118 0 222.5 62.5t175.5 173.5l84 -20q-79 -133 -211.5 -217.5t-282.5 -84.5z
M27 540h823q11 109 -33 201.5t-127.5 148.5t-193.5 56q-111 0 -208.5 -54.5t-167 -147t-93.5 -204.5zM526 1400h68l67 -234h-65l-45 165l-95 -165h-65z" />
    <glyph glyph-name="edieresis" unicode="&#xeb;" horiz-adv-x="1118" 
d="M360 -26q-138 0 -241.5 71t-154 190.5t-30.5 264.5q15 110 67.5 205.5t131.5 168t175.5 113.5t199.5 41q145 0 247 -72t148 -199.5t22 -293.5h-908q-6 -116 38.5 -207t126.5 -143.5t190 -52.5q118 0 222.5 62.5t175.5 173.5l84 -20q-79 -133 -211.5 -217.5t-282.5 -84.5z
M27 540h823q11 109 -33 201.5t-127.5 148.5t-193.5 56q-111 0 -208.5 -54.5t-167 -147t-93.5 -204.5zM387 1138q-24 0 -39 15.5t-12 40.5q3 23 23 40t44 17q23 0 38 -17t12 -40q-4 -25 -23.5 -40.5t-42.5 -15.5zM660 1138q-25 0 -40 15.5t-11 40.5q3 23 22.5 40t43.5 17
q23 0 38 -17t12 -40q-4 -25 -23.5 -40.5t-41.5 -15.5z" />
    <glyph glyph-name="igrave" unicode="&#xec;" horiz-adv-x="339" 
d="M64 1000h86l-141 -1000h-86zM10 1426h86l39 -288h-35z" />
    <glyph glyph-name="iacute" unicode="&#xed;" horiz-adv-x="339" 
d="M64 1000h86l-141 -1000h-86zM120 1138l121 288h86l-172 -288h-35z" />
    <glyph glyph-name="icircumflex" unicode="&#xee;" horiz-adv-x="339" 
d="M64 1000h86l-141 -1000h-86zM130 1400h68l67 -234h-65l-45 165l-95 -165h-65z" />
    <glyph glyph-name="idieresis" unicode="&#xef;" horiz-adv-x="339" 
d="M64 1000h86l-141 -1000h-86zM-9 1138q-24 0 -39 15.5t-12 40.5q3 23 23 40t44 17q23 0 38 -17t12 -40q-4 -25 -23.5 -40.5t-42.5 -15.5zM264 1138q-25 0 -40 15.5t-11 40.5q3 23 22.5 40t43.5 17q23 0 38 -17t12 -40q-4 -25 -23.5 -40.5t-41.5 -15.5z" />
    <glyph glyph-name="eth" unicode="&#xf0;" horiz-adv-x="1124" 
d="M382 -26q-138 0 -242.5 67.5t-156.5 181.5t-33 253q15 104 67 195t131 160t175.5 108t199.5 39q121 0 214 -55.5t143 -148.5q-9 153 -68 293t-164 227l-266 -230l-47 55l254 217q-50 30 -107.5 46.5t-123.5 16.5l12 86q81 0 154.5 -22.5t136.5 -64.5l174 150l45 -54
l-162 -140q96 -84 158.5 -211t85.5 -286t-1 -336q-23 -161 -103.5 -284.5t-203 -193t-272.5 -69.5zM394 60q118 0 221 57.5t171 152.5t84 206q16 114 -26.5 208.5t-129.5 151t-203 56.5q-118 0 -220 -57t-170.5 -152t-84.5 -207q-16 -113 26.5 -207.5t129 -151.5t202.5 -57z
" />
    <glyph glyph-name="ntilde" unicode="&#xf1;" horiz-adv-x="1057" 
d="M838 549l-78 -549h-86l78 545q15 109 -19 199.5t-104.5 144.5t-166.5 54q-94 0 -179 -54t-143 -144.5t-74 -199.5l-77 -545h-86l141 1000h86l-27 -192q74 104 172 162t206 58q122 0 208 -66.5t125.5 -175.5t23.5 -237zM645 1119q-37 0 -76.5 23t-79 52t-76 51t-68.5 20
q-33 -2 -58.5 -32.5t-19.5 -71.5l-74 -19q-9 46 13 91.5t64 75t93 29.5q38 0 79 -22t82 -50.5t78 -50.5t67 -22q23 0 42 19t28.5 43t5.5 41l72 22q9 -48 -13.5 -94t-65 -75.5t-93.5 -29.5z" />
    <glyph glyph-name="ograve" unicode="&#xf2;" horiz-adv-x="1120" 
d="M360 -26q-138 0 -241.5 71t-154 190.5t-30.5 264.5q15 110 67.5 205.5t131.5 168t175.5 113.5t199.5 41q138 0 241.5 -71t154.5 -191t30 -266q-15 -109 -67.5 -204t-131.5 -167.5t-175 -113.5t-200 -41zM372 60q116 0 218.5 61t171.5 161t86 218q17 119 -24.5 219.5
t-126.5 161.5t-202 61t-219 -61t-170.5 -161.5t-85.5 -219.5q-18 -123 24.5 -222.5t128.5 -158.5t199 -59zM407 1426h86l39 -288h-35z" />
    <glyph glyph-name="oacute" unicode="&#xf3;" horiz-adv-x="1120" 
d="M360 -26q-138 0 -241.5 71t-154 190.5t-30.5 264.5q15 110 67.5 205.5t131.5 168t175.5 113.5t199.5 41q138 0 241.5 -71t154.5 -191t30 -266q-15 -109 -67.5 -204t-131.5 -167.5t-175 -113.5t-200 -41zM372 60q116 0 218.5 61t171.5 161t86 218q17 119 -24.5 219.5
t-126.5 161.5t-202 61t-219 -61t-170.5 -161.5t-85.5 -219.5q-18 -123 24.5 -222.5t128.5 -158.5t199 -59zM517 1138l121 288h86l-172 -288h-35z" />
    <glyph glyph-name="ocircumflex" unicode="&#xf4;" horiz-adv-x="1120" 
d="M360 -26q-138 0 -241.5 71t-154 190.5t-30.5 264.5q15 110 67.5 205.5t131.5 168t175.5 113.5t199.5 41q138 0 241.5 -71t154.5 -191t30 -266q-15 -109 -67.5 -204t-131.5 -167.5t-175 -113.5t-200 -41zM372 60q116 0 218.5 61t171.5 161t86 218q17 119 -24.5 219.5
t-126.5 161.5t-202 61t-219 -61t-170.5 -161.5t-85.5 -219.5q-18 -123 24.5 -222.5t128.5 -158.5t199 -59zM527 1400h68l67 -234h-65l-45 165l-95 -165h-65z" />
    <glyph glyph-name="otilde" unicode="&#xf5;" horiz-adv-x="1120" 
d="M360 -26q-138 0 -241.5 71t-154 190.5t-30.5 264.5q15 110 67.5 205.5t131.5 168t175.5 113.5t199.5 41q138 0 241.5 -71t154.5 -191t30 -266q-15 -109 -67.5 -204t-131.5 -167.5t-175 -113.5t-200 -41zM372 60q116 0 218.5 61t171.5 161t86 218q17 119 -24.5 219.5
t-126.5 161.5t-202 61t-219 -61t-170.5 -161.5t-85.5 -219.5q-18 -123 24.5 -222.5t128.5 -158.5t199 -59zM676 1119q-37 0 -76.5 23t-79 52t-76 51t-68.5 20q-33 -2 -58.5 -32.5t-19.5 -71.5l-74 -19q-9 46 13 91.5t64 75t93 29.5q38 0 79 -22t82 -50.5t78 -50.5t67 -22
q23 0 42 19t28.5 43t5.5 41l72 22q9 -48 -13.5 -94t-65 -75.5t-93.5 -29.5z" />
    <glyph glyph-name="odieresis" unicode="&#xf6;" horiz-adv-x="1120" 
d="M360 -26q-138 0 -241.5 71t-154 190.5t-30.5 264.5q15 110 67.5 205.5t131.5 168t175.5 113.5t199.5 41q138 0 241.5 -71t154.5 -191t30 -266q-15 -109 -67.5 -204t-131.5 -167.5t-175 -113.5t-200 -41zM372 60q116 0 218.5 61t171.5 161t86 218q17 119 -24.5 219.5
t-126.5 161.5t-202 61t-219 -61t-170.5 -161.5t-85.5 -219.5q-18 -123 24.5 -222.5t128.5 -158.5t199 -59zM388 1138q-24 0 -39 15.5t-12 40.5q3 23 23 40t44 17q23 0 38 -17t12 -40q-4 -25 -23.5 -40.5t-42.5 -15.5zM661 1138q-25 0 -40 15.5t-11 40.5q3 23 22.5 40
t43.5 17q23 0 38 -17t12 -40q-4 -25 -23.5 -40.5t-41.5 -15.5z" />
    <glyph glyph-name="divide" unicode="&#xf7;" 
d="M531 1051q35 0 56.5 -28t16.5 -61q-5 -36 -34 -62t-64 -26q-39 0 -59.5 26t-15.5 62q5 33 33 61t67 28zM-39 557l13 86h1000l-13 -86h-1000zM429 324q35 0 58 -27.5t18 -61.5q-5 -37 -35.5 -61.5t-65.5 -24.5q-39 0 -59.5 24.5t-15.5 61.5q5 34 33 61.5t67 27.5z" />
    <glyph glyph-name="oslash" unicode="&#xf8;" horiz-adv-x="1120" 
d="M88 -45l-64 40l58 80q-84 72 -125.5 183t-22.5 242q15 110 67.5 205.5t131.5 168t175.5 113.5t199.5 41q122 0 217 -56l57 77l63 -40l-57 -80q83 -72 123.5 -183.5t22.5 -245.5q-15 -109 -67.5 -204t-131.5 -167.5t-175 -113.5t-200 -41q-61 0 -116.5 16t-101.5 42z
M135 150l538 750q-95 54 -202 44.5t-204 -69.5t-165 -157.5t-85 -219.5q-15 -107 18 -198t100 -150zM194 104q100 -56 207.5 -46t203.5 70t162.5 157.5t83.5 216.5q14 107 -18 199.5t-99 152.5z" />
    <glyph glyph-name="ugrave" unicode="&#xf9;" horiz-adv-x="1097" 
d="M-13 453l77 547h86l-76 -543q-16 -109 17.5 -199.5t104.5 -144.5t166 -54q94 0 179 54t143.5 144.5t74.5 199.5l76 543h86l-141 -1000h-86l28 194q-75 -104 -172.5 -162t-204.5 -58q-123 0 -209 66.5t-125.5 175.5t-23.5 237zM396 1426h86l39 -288h-35z" />
    <glyph glyph-name="uacute" unicode="&#xfa;" horiz-adv-x="1097" 
d="M-13 453l77 547h86l-76 -543q-16 -109 17.5 -199.5t104.5 -144.5t166 -54q94 0 179 54t143.5 144.5t74.5 199.5l76 543h86l-141 -1000h-86l28 194q-75 -104 -172.5 -162t-204.5 -58q-123 0 -209 66.5t-125.5 175.5t-23.5 237zM506 1138l121 288h86l-172 -288h-35z" />
    <glyph glyph-name="ucircumflex" unicode="&#xfb;" horiz-adv-x="1097" 
d="M-13 453l77 547h86l-76 -543q-16 -109 17.5 -199.5t104.5 -144.5t166 -54q94 0 179 54t143.5 144.5t74.5 199.5l76 543h86l-141 -1000h-86l28 194q-75 -104 -172.5 -162t-204.5 -58q-123 0 -209 66.5t-125.5 175.5t-23.5 237zM516 1400h68l67 -234h-65l-45 165l-95 -165
h-65z" />
    <glyph glyph-name="udieresis" unicode="&#xfc;" horiz-adv-x="1097" 
d="M-13 453l77 547h86l-76 -543q-16 -109 17.5 -199.5t104.5 -144.5t166 -54q94 0 179 54t143.5 144.5t74.5 199.5l76 543h86l-141 -1000h-86l28 194q-75 -104 -172.5 -162t-204.5 -58q-123 0 -209 66.5t-125.5 175.5t-23.5 237zM376 1138q-24 0 -39 15.5t-12 40.5
q3 23 23 40t44 17q23 0 38 -17t12 -40q-4 -25 -23.5 -40.5t-42.5 -15.5zM649 1138q-25 0 -40 15.5t-11 40.5q3 23 22.5 40t43.5 17q23 0 38 -17t12 -40q-4 -25 -23.5 -40.5t-41.5 -15.5z" />
    <glyph glyph-name="yacute" unicode="&#xfd;" horiz-adv-x="974" 
d="M747 1000h90l-757 -1500h-92l252 500l-217 1000h94l183 -881zM444 1138l121 288h86l-172 -288h-35z" />
    <glyph glyph-name="thorn" unicode="&#xfe;" horiz-adv-x="1203" 
d="M-147 -500l267 1900h86l-87 -619q69 110 178 177.5t247 67.5q145 0 254.5 -71t164 -190.5t34.5 -264.5q-16 -109 -70.5 -205t-137 -168.5t-183.5 -113.5t-210 -41q-138 0 -228.5 67.5t-127.5 177.5l-101 -717h-86zM408 57q118 0 226.5 58.5t183 159t92.5 225.5
q17 121 -28 221.5t-136.5 160t-213.5 59.5q-120 0 -214 -59t-154.5 -159t-77.5 -223q-17 -121 14.5 -222t108.5 -161t199 -60z" />
    <glyph glyph-name="ydieresis" unicode="&#xff;" horiz-adv-x="974" 
d="M748 1000h90l-757 -1500h-92l252 500l-217 1000h94l183 -881zM315 1138q-24 0 -39 15.5t-12 40.5q3 23 23 40t44 17q23 0 38 -17t12 -40q-4 -25 -23.5 -40.5t-42.5 -15.5zM588 1138q-25 0 -40 15.5t-11 40.5q3 23 22.5 40t43.5 17q23 0 38 -17t12 -40q-4 -25 -23.5 -40.5
t-41.5 -15.5z" />
    <glyph glyph-name="cacute" unicode="&#x107;" horiz-adv-x="1018" 
d="M717 225l70 -41q-81 -96 -193 -153t-234 -57q-138 0 -241.5 71t-154 190.5t-30.5 264.5q15 110 67.5 205.5t131.5 168t175.5 113.5t199.5 41q122 0 218 -57t150 -153l-81 -41q-49 79 -129.5 122t-170.5 43q-116 0 -218.5 -60.5t-171 -161t-85.5 -220.5
q-17 -121 24.5 -221t127.5 -159.5t200 -59.5q97 0 188.5 46t156.5 119zM466 1138l121 288h86l-172 -288h-35z" />
    <glyph glyph-name="dotlessi" unicode="&#x131;" horiz-adv-x="339" 
d="M64 1000h86l-141 -1000h-86z" />
    <glyph glyph-name="OE" unicode="&#x152;" horiz-adv-x="2194" 
d="M570 -26q-142 0 -259.5 56.5t-198.5 156.5t-116 231.5t-14 281.5t93 281.5t181.5 231.5t242.5 156.5t275 56.5q133 0 243 -50.5t188.5 -140.5t116.5 -206l52 371h720l-12 -86h-633l-81 -571h538l-13 -86h-537l-80 -571h634l-13 -86h-720l53 372q-71 -117 -174.5 -207
t-228 -140.5t-257.5 -50.5zM582 60q126 0 243 50.5t212 139.5t158 204.5t81 245.5q18 131 -12.5 247t-101.5 204.5t-173.5 138.5t-227.5 50q-126 0 -243 -50.5t-212 -139.5t-157.5 -204.5t-80.5 -245.5q-19 -132 11.5 -248t101.5 -204t173.5 -138t227.5 -50z" />
    <glyph glyph-name="oe" unicode="&#x153;" horiz-adv-x="2032" 
d="M360 -26q-138 0 -241.5 71t-154 190.5t-30.5 264.5q15 110 67.5 205.5t131.5 168t175.5 113.5t199.5 41q155 0 266 -91.5t145 -235.5q49 96 127.5 170t175 115.5t200.5 41.5q145 0 247 -72t148 -199.5t22 -293.5h-908q-6 -116 38.5 -207t126.5 -143.5t190 -52.5
q118 0 222.5 62.5t175.5 173.5l84 -20q-79 -133 -211.5 -217.5t-282.5 -84.5q-155 0 -266 91t-146 234q-49 -95 -127.5 -168.5t-174.5 -115t-200 -41.5zM941 540h823q10 109 -33.5 201.5t-127 148.5t-193.5 56q-111 0 -209 -54.5t-167 -146.5t-93 -205zM372 60
q116 0 218.5 61t171.5 161t86 218q17 119 -24.5 219.5t-126.5 161.5t-202 61t-219 -61t-170.5 -161.5t-85.5 -219.5q-18 -123 24.5 -222.5t128.5 -158.5t199 -59z" />
    <glyph glyph-name="Wcircumflex" unicode="&#x174;" horiz-adv-x="1739" 
d="M261 0l-161 1400h89l145 -1264l499 1264h73l145 -1264l499 1264h89l-553 -1400h-108l-137 1193l-474 -1193h-106zM892 1800h68l67 -234h-65l-45 165l-95 -165h-65z" />
    <glyph glyph-name="wcircumflex" unicode="&#x175;" horiz-adv-x="1584" 
d="M291 0h-92l-195 1000h84l175 -888l423 888h100l173 -888l423 888h86l-477 -1000h-94l-177 899zM759 1400h68l67 -234h-65l-45 165l-95 -165h-65z" />
    <glyph glyph-name="Ycircumflex" unicode="&#x176;" horiz-adv-x="1139" 
d="M978 1400h101l-574 -765l-90 -635h-86l90 635l-359 765h101l314 -670zM592 1800h68l67 -234h-65l-45 165l-95 -165h-65z" />
    <glyph glyph-name="ycircumflex" unicode="&#x177;" horiz-adv-x="974" 
d="M748 1000h90l-757 -1500h-92l252 500l-217 1000h94l183 -881zM454 1400h68l67 -234h-65l-45 165l-95 -165h-65z" />
    <glyph glyph-name="Ydieresis" unicode="&#x178;" horiz-adv-x="1139" 
d="M978 1400h101l-574 -765l-90 -635h-86l90 635l-359 765h101l314 -670zM453 1538q-24 0 -39 15.5t-12 40.5q3 23 23 40t44 17q23 0 38 -17t12 -40q-4 -25 -23.5 -40.5t-42.5 -15.5zM726 1538q-25 0 -40 15.5t-11 40.5q3 23 22.5 40t43.5 17q23 0 38 -17t12 -40
q-4 -25 -23.5 -40.5t-41.5 -15.5z" />
    <glyph glyph-name="quoteleft" unicode="&#x2bb;" horiz-adv-x="248" 
d="M-13 878l164 522h57l-135 -522h-86z" />
    <glyph glyph-name="quoteleft" unicode="&#x2018;" horiz-adv-x="248" 
d="M-13 878l164 522h57l-135 -522h-86z" />
    <glyph glyph-name="uni02BC" unicode="&#x2bc;" horiz-adv-x="335" 
d="M-33 878l135 522h86l-164 -522h-57z" />
    <glyph glyph-name="circumflex" unicode="&#x2c6;" horiz-adv-x="1070" 
d="M502 1400h68l67 -234h-65l-45 165l-95 -165h-65z" />
    <glyph glyph-name="caron" unicode="&#x2c7;" horiz-adv-x="510" 
d="M189 1166l-69 234h65l48 -165l92 165h65l-133 -234h-68z" />
    <glyph glyph-name="breve" unicode="&#x2d8;" horiz-adv-x="1144" 
d="M534 1128q-91 0 -160 45t-103.5 120.5t-22.5 166.5h73q-10 -75 18 -133.5t82.5 -92t122.5 -33.5q70 0 134 35t107.5 93.5t53.5 130.5h73q-13 -94 -69.5 -169t-138.5 -119t-170 -44z" />
    <glyph glyph-name="dotaccent" unicode="&#x2d9;" horiz-adv-x="913" 
d="M432 1219q-25 0 -39 15.5t-11 39.5q4 24 22.5 39.5t42.5 15.5q23 0 37.5 -15.5t10.5 -39.5q-3 -24 -21.5 -39.5t-41.5 -15.5z" />
    <glyph glyph-name="ring" unicode="&#x2da;" horiz-adv-x="1089" 
d="M503 1100q-60 0 -96.5 43.5t-27.5 103.5q8 58 56.5 101t107.5 43q60 0 96.5 -43t28.5 -101q-9 -62 -57.5 -104.5t-107.5 -42.5zM510 1155q38 0 67.5 26.5t35.5 65.5q5 36 -17.5 62t-60.5 26q-37 0 -67 -26t-35 -62q-6 -39 17 -65.5t60 -26.5z" />
    <glyph glyph-name="ogonek" unicode="&#x2db;" horiz-adv-x="1079" 
d="M363 -362q-96 0 -168.5 47t-108.5 126t-23 175l11 76h77l-11 -76q-10 -74 18 -135.5t84.5 -98.5t130.5 -37h41l-11 -77h-40z" />
    <glyph glyph-name="tilde" unicode="&#x2dc;" horiz-adv-x="1168" 
d="M705 1048q-37 0 -76.5 23t-79 52t-76 51t-68.5 20q-33 -2 -58.5 -32.5t-19.5 -71.5l-74 -19q-9 46 13 91.5t64 75t93 29.5q38 0 79 -22t82 -50.5t78 -50.5t67 -22q23 0 42 19t28.5 43t5.5 41l72 22q9 -48 -13.5 -94t-65 -75.5t-93.5 -29.5z" />
    <glyph glyph-name="hungarumlaut" unicode="&#x2dd;" horiz-adv-x="669" 
d="M346 1138l121 288h86l-172 -288h-35zM483 1564l121 288h86l-172 -288h-35z" />
    <glyph glyph-name="gravecomb" unicode="&#x300;" horiz-adv-x="0" 
d="M324 1426h86l39 -288h-35z" />
    <glyph glyph-name="acutecomb" unicode="&#x301;" horiz-adv-x="0" 
d="M443 1138l121 288h86l-172 -288h-35z" />
    <glyph glyph-name="uni0302" unicode="&#x302;" horiz-adv-x="0" 
d="M502 1400h68l67 -234h-65l-45 165l-95 -165h-65z" />
    <glyph glyph-name="tildecomb" unicode="&#x303;" horiz-adv-x="0" 
d="M723 1119q-37 0 -76.5 23t-79 52t-76 51t-68.5 20q-33 -2 -58.5 -32.5t-19.5 -71.5l-74 -19q-9 46 13 91.5t64 75t93 29.5q38 0 79 -22t82 -50.5t78 -50.5t67 -22q23 0 42 19t28.5 43t5.5 41l72 22q9 -48 -13.5 -94t-65 -75.5t-93.5 -29.5z" />
    <glyph glyph-name="uni0307" unicode="&#x307;" horiz-adv-x="0" 
d="M432 1219q-25 0 -39 15.5t-11 39.5q4 24 22.5 39.5t42.5 15.5q23 0 37.5 -15.5t10.5 -39.5q-3 -24 -21.5 -39.5t-41.5 -15.5z" />
    <glyph glyph-name="uni0308" unicode="&#x308;" horiz-adv-x="0" 
d="M422 1138q-24 0 -39 15.5t-12 40.5q3 23 23 40t44 17q23 0 38 -17t12 -40q-4 -25 -23.5 -40.5t-42.5 -15.5zM695 1138q-25 0 -40 15.5t-11 40.5q3 23 22.5 40t43.5 17q23 0 38 -17t12 -40q-4 -25 -23.5 -40.5t-41.5 -15.5z" />
    <glyph glyph-name="uni030A" unicode="&#x30a;" horiz-adv-x="0" 
d="M503 1100q-60 0 -96.5 43.5t-27.5 103.5q8 58 56.5 101t107.5 43q60 0 96.5 -43t28.5 -101q-9 -62 -57.5 -104.5t-107.5 -42.5zM510 1155q38 0 67.5 26.5t35.5 65.5q5 36 -17.5 62t-60.5 26q-37 0 -67 -26t-35 -62q-6 -39 17 -65.5t60 -26.5z" />
    <glyph glyph-name="uni0327" unicode="&#x327;" horiz-adv-x="0" 
d="M160 -306l11 77h41q74 0 141 37t112.5 98.5t55.5 135.5l6 41h77l-6 -41q-13 -96 -71.5 -175t-144.5 -126t-182 -47h-40z" />
    <glyph glyph-name="uni03BC" unicode="&#x3bc;" horiz-adv-x="1017" 
d="M-177 -432l201 1432h86l-76 -543q-16 -109 17.5 -199.5t104.5 -144.5t166 -54q94 0 179 54t143.5 144.5t74.5 199.5l76 543h86l-141 -1000h-86l28 194q-75 -104 -172.5 -162t-204.5 -58q-111 0 -191 59t-119 153l-86 -618h-86z" />
    <glyph glyph-name="Wgrave" unicode="&#x1e80;" horiz-adv-x="1739" 
d="M261 0l-161 1400h89l145 -1264l499 1264h73l145 -1264l499 1264h89l-553 -1400h-108l-137 1193l-474 -1193h-106zM772 1826h86l39 -288h-35z" />
    <glyph glyph-name="wgrave" unicode="&#x1e81;" horiz-adv-x="1584" 
d="M291 0h-92l-195 1000h84l175 -888l423 888h100l173 -888l423 888h86l-477 -1000h-94l-177 899zM639 1426h86l39 -288h-35z" />
    <glyph glyph-name="Wacute" unicode="&#x1e82;" horiz-adv-x="1739" 
d="M261 0l-161 1400h89l145 -1264l499 1264h73l145 -1264l499 1264h89l-553 -1400h-108l-137 1193l-474 -1193h-106zM883 1538l121 288h86l-172 -288h-35z" />
    <glyph glyph-name="wacute" unicode="&#x1e83;" horiz-adv-x="1584" 
d="M291 0h-92l-195 1000h84l175 -888l423 888h100l173 -888l423 888h86l-477 -1000h-94l-177 899zM750 1138l121 288h86l-172 -288h-35z" />
    <glyph glyph-name="Wdieresis" unicode="&#x1e84;" horiz-adv-x="1739" 
d="M261 0l-161 1400h89l145 -1264l499 1264h73l145 -1264l499 1264h89l-553 -1400h-108l-137 1193l-474 -1193h-106zM753 1538q-24 0 -39 15.5t-12 40.5q3 23 23 40t44 17q23 0 38 -17t12 -40q-4 -25 -23.5 -40.5t-42.5 -15.5zM1026 1538q-25 0 -40 15.5t-11 40.5
q3 23 22.5 40t43.5 17q23 0 38 -17t12 -40q-4 -25 -23.5 -40.5t-41.5 -15.5z" />
    <glyph glyph-name="wdieresis" unicode="&#x1e85;" horiz-adv-x="1584" 
d="M291 0h-92l-195 1000h84l175 -888l423 888h100l173 -888l423 888h86l-477 -1000h-94l-177 899zM620 1138q-24 0 -39 15.5t-12 40.5q3 23 23 40t44 17q23 0 38 -17t12 -40q-4 -25 -23.5 -40.5t-42.5 -15.5zM893 1138q-25 0 -40 15.5t-11 40.5q3 23 22.5 40t43.5 17
q23 0 38 -17t12 -40q-4 -25 -23.5 -40.5t-41.5 -15.5z" />
    <glyph glyph-name="uni1E9E" unicode="&#x1e9e;" horiz-adv-x="1089" 
d="M-77 0l138 979q16 115 86 210.5t173.5 152t218.5 56.5q96 0 173 -28.5t118.5 -85t29.5 -141.5q-6 -42 -40 -89.5t-104 -124.5t-185 -207q101 10 187 -33.5t134 -127t32 -192.5q-17 -122 -93.5 -204t-180.5 -123.5t-205 -41.5h-71l-13 81h93q79 0 163.5 31t147.5 95
t77 164q14 98 -31.5 160.5t-122 93t-156.5 30.5h-67l2 40q1 21 34 62.5t81.5 94t98 107t84.5 103t40 82.5q7 61 -25.5 99.5t-91.5 56t-130 17.5q-89 0 -169 -44t-134 -118.5t-67 -165.5l-139 -989h-86z" />
    <glyph glyph-name="Ygrave" unicode="&#x1ef2;" horiz-adv-x="1139" 
d="M978 1400h101l-574 -765l-90 -635h-86l90 635l-359 765h101l314 -670zM472 1826h86l39 -288h-35z" />
    <glyph glyph-name="ygrave" unicode="&#x1ef3;" horiz-adv-x="974" 
d="M748 1000h90l-757 -1500h-92l252 500l-217 1000h94l183 -881zM334 1426h86l39 -288h-35z" />
    <glyph glyph-name="uni2002" unicode="&#x2002;" horiz-adv-x="1000" 
 />
    <glyph glyph-name="uni2009" unicode="&#x2009;" horiz-adv-x="400" 
 />
    <glyph glyph-name="uni200B" unicode="&#x200b;" horiz-adv-x="0" 
 />
    <glyph glyph-name="endash" unicode="&#x2013;" horiz-adv-x="1240" 
d="M14 643h1000l-13 -86h-1000z" />
    <glyph glyph-name="emdash" unicode="&#x2014;" horiz-adv-x="2040" 
d="M14 643h1800l-13 -86h-1800z" />
    <glyph glyph-name="quoteright" unicode="&#x2019;" horiz-adv-x="248" 
d="M-33 878l135 522h86l-164 -522h-57z" />
    <glyph glyph-name="quoteright" unicode="&#x2032;" horiz-adv-x="248" 
d="M-33 878l135 522h86l-164 -522h-57z" />
    <glyph glyph-name="quotesinglbase" unicode="&#x201a;" horiz-adv-x="272" 
d="M-168 -112l109 338h86l-138 -338h-57z" />
    <glyph glyph-name="quotedblleft" unicode="&#x201c;" horiz-adv-x="567" 
d="M47 878l164 522h57l-135 -522h-86zM306 882l164 522h57l-135 -522h-86z" />
    <glyph glyph-name="quotedblright" unicode="&#x201d;" horiz-adv-x="567" 
d="M-33 878l135 522h86l-164 -522h-57zM226 878l135 522h86l-164 -522h-57z" />
    <glyph glyph-name="quotedblright" unicode="&#x2033;" horiz-adv-x="567" 
d="M-33 878l135 522h86l-164 -522h-57zM226 878l135 522h86l-164 -522h-57z" />
    <glyph glyph-name="quotedblbase" unicode="&#x201e;" horiz-adv-x="496" 
d="M-168 -112l109 338h86l-138 -338h-57zM56 -112l109 338h86l-138 -338h-57z" />
    <glyph glyph-name="dagger" unicode="&#x2020;" horiz-adv-x="753" 
d="M41 1125l13 86h253l41 289h86l-41 -289h254l-13 -86h-253l-74 -529h-86l74 529h-254z" />
    <glyph glyph-name="daggerdbl" unicode="&#x2021;" horiz-adv-x="753" 
d="M-3 809l12 84h253l34 243h-254l13 86h254l39 278h86l-39 -278h253l-12 -86h-254l-34 -243h254l-11 -84h-254l-35 -249h-86l35 249h-254z" />
    <glyph glyph-name="bullet" unicode="&#x2022;" horiz-adv-x="310" 
d="M30 525q-30 0 -48.5 22t-13.5 55q4 30 28.5 51.5t55.5 21.5q33 0 51.5 -21.5t14.5 -51.5q-4 -33 -29.5 -55t-58.5 -22z" />
    <glyph glyph-name="ellipsis" unicode="&#x2026;" horiz-adv-x="907" 
d="M-65 -26q-22 0 -36.5 16.5t-10.5 40.5q3 23 21.5 39.5t41.5 16.5q24 0 38 -16.5t11 -39.5q-3 -24 -21.5 -40.5t-43.5 -16.5zM232 -26q-22 0 -36.5 16.5t-10.5 40.5q3 23 21.5 39.5t41.5 16.5q24 0 38 -16.5t11 -39.5q-3 -24 -21.5 -40.5t-43.5 -16.5zM530 -26
q-22 0 -36.5 16.5t-10.5 40.5q3 23 21.5 39.5t41.5 16.5q24 0 38 -16.5t11 -39.5q-3 -24 -21.5 -40.5t-43.5 -16.5z" />
    <glyph glyph-name="perthousand" unicode="&#x2030;" horiz-adv-x="1608" 
d="M-70 0l1005 1400h100l-1005 -1400h-100zM215 885q-86 0 -138 60.5t-40 146.5q8 58 43 105.5t86 75.5t108 28q85 0 137.5 -61.5t40.5 -147.5q-9 -58 -43.5 -105t-85.5 -74.5t-108 -27.5zM225 960q56 0 100 39t51 93q8 56 -24.5 95t-88.5 39q-55 0 -99 -39t-52 -95
q-7 -54 25.5 -93t87.5 -39zM641 99q-86 0 -138.5 62t-40.5 147q7 57 42.5 104t87 75t108.5 28q86 0 137.5 -61t40.5 -146q-8 -57 -43 -104.5t-86 -76t-108 -28.5zM1138 99q-86 0 -138.5 62t-40.5 147q7 57 42.5 104t87 75t108.5 28q86 0 138 -61t40 -146q-8 -57 -43 -104.5
t-86 -76t-108 -28.5zM652 174q54 0 98.5 39t52.5 95q7 54 -26.5 93t-87.5 39q-56 0 -100.5 -39t-51.5 -93q-8 -56 25.5 -95t89.5 -39zM1149 174q54 0 98.5 39t52.5 95q7 54 -26.5 93t-87.5 39q-56 0 -100.5 -39t-51.5 -93q-8 -56 25.5 -95t89.5 -39z" />
    <glyph glyph-name="uni2035" unicode="&#x2035;" horiz-adv-x="388" 
d="M138 878l-18 522h86l-11 -522h-57z" />
    <glyph glyph-name="guilsinglleft" unicode="&#x2039;" horiz-adv-x="624" 
d="M260 261l-252 340l347 338h104l-347 -338l252 -340h-104z" />
    <glyph glyph-name="guilsinglright" unicode="&#x203a;" horiz-adv-x="624" 
d="M-60 261l348 340l-253 338h104l253 -338l-348 -340h-104z" />
    <glyph glyph-name="fraction" unicode="&#x2044;" horiz-adv-x="897" 
d="M-197 0l1005 1400h89l-1005 -1400h-89z" />
    <glyph glyph-name="fraction" unicode="&#x2215;" horiz-adv-x="897" 
d="M-197 0l1005 1400h89l-1005 -1400h-89z" />
    <glyph glyph-name="uni2070" unicode="&#x2070;" horiz-adv-x="648" 
d="M239 798q-69 0 -120.5 43.5t-74.5 119t-10 171.5q14 96 58.5 172t108.5 120t133 44q70 0 120.5 -44t74 -120t9.5 -172q-13 -96 -58 -171.5t-108 -119t-133 -43.5zM251 879q52 0 95.5 38.5t72 96.5t37.5 118q9 65 -4.5 123.5t-46.5 95t-83 36.5q-53 0 -96 -38t-72 -96.5
t-38 -120.5q-8 -64 5.5 -122t46.5 -94.5t83 -36.5z" />
    <glyph glyph-name="uni2074" unicode="&#x2074;" horiz-adv-x="676" 
d="M292 818l19 133h-278l14 99l309 399h107l-58 -415h76l-11 -83h-77l-19 -133h-82zM131 1034h193l42 304z" />
    <glyph glyph-name="uni2075" unicode="&#x2075;" horiz-adv-x="674" 
d="M222 798q-93 0 -149.5 59t-43.5 152h83q-9 -57 27.5 -93.5t94.5 -36.5t104 36.5t55 93.5q8 58 -28.5 98t-93.5 41q-51 0 -87 -7t-98 -25l76 333h347l-11 -80h-272l-32 -146q135 18 216.5 -38t64.5 -176q-13 -93 -87 -152t-166 -59z" />
    <glyph glyph-name="uni2076" unicode="&#x2076;" horiz-adv-x="706" 
d="M244 798q-102 0 -158.5 64.5t-43.5 156.5q5 29 17.5 58.5t41 73t79.5 114t132 181.5h96l-144 -201q76 15 134.5 -14t89 -86t20.5 -126q-9 -68 -49 -117.5t-97 -76.5t-118 -27zM256 879q63 0 112.5 39.5t57.5 102.5q9 68 -32.5 108t-97.5 40q-63 0 -113 -45t-59 -109
q-7 -61 32 -98.5t100 -37.5z" />
    <glyph glyph-name="uni2077" unicode="&#x2077;" horiz-adv-x="620" 
d="M56 818l391 548h-332l12 83h428l-11 -82l-392 -549h-96z" />
    <glyph glyph-name="uni2078" unicode="&#x2078;" horiz-adv-x="598" 
d="M212 798q-82 0 -134 53t-40 137q8 51 37 93t71 70q-27 25 -41 62.5t-8 78.5q12 79 73 127.5t137 48.5q78 0 126 -48.5t37 -127.5q-6 -41 -30 -78.5t-58 -62.5q34 -28 51.5 -70t10.5 -93q-12 -84 -79.5 -137t-152.5 -53zM268 1190q44 0 79 30t40 72q7 44 -20.5 69.5
t-71.5 25.5q-42 0 -75.5 -25.5t-40.5 -69.5q-5 -42 21 -72t68 -30zM225 879q50 0 89.5 30t46.5 79t-23.5 84t-80.5 35q-49 0 -89 -35t-47 -84t24 -79t80 -30z" />
    <glyph glyph-name="uni2079" unicode="&#x2079;" horiz-adv-x="659" 
d="M149 818l147 204q-74 -16 -130.5 9t-87.5 76t-29.5 115.5t45.5 127.5q37 61 98 89.5t124 28.5q86 0 140 -49.5t62 -124t-44 -150.5q-2 -6 -4.5 -11t-5.5 -10l-221 -305h-94zM263 1096q48 0 88.5 26.5t64 69.5t20.5 92q-7 54 -46.5 78.5t-85.5 24.5q-73 0 -125 -52.5
t-46 -124.5q6 -55 45.5 -84.5t84.5 -29.5z" />
    <glyph glyph-name="uni2080" unicode="&#x2080;" horiz-adv-x="648" 
d="M123 -31q-69 0 -120.5 43.5t-74.5 119t-10 171.5q14 95 58.5 171.5t108 120.5t132.5 44q70 0 121 -44t74.5 -120.5t9.5 -171.5q-13 -96 -58 -171.5t-108 -119t-133 -43.5zM134 51q52 0 95.5 38t72.5 96t38 118q9 65 -4.5 123t-46.5 94.5t-83 36.5q-52 0 -95.5 -38
t-72.5 -96.5t-37 -119.5q-9 -64 4 -121.5t46 -94t83 -36.5z" />
    <glyph glyph-name="uni2081" unicode="&#x2081;" horiz-adv-x="408" 
d="M-15 0l77 549h-86l24 82h156l-89 -631h-82z" />
    <glyph glyph-name="uni2082" unicode="&#x2082;" horiz-adv-x="676" 
d="M-101 0l12 82q41 25 105 67.5t129.5 94t113 103.5t56.5 96q8 57 -26.5 91.5t-90.5 34.5t-101 -34.5t-53 -91.5h-82q12 90 84.5 149t163.5 59q90 0 145.5 -59t42.5 -149q-7 -44 -42.5 -94t-87.5 -99.5t-109 -92.5t-107 -75h294l-12 -82h-435z" />
    <glyph glyph-name="uni2083" unicode="&#x2083;" horiz-adv-x="545" 
d="M73 -31q-84 0 -135.5 53.5t-39.5 137.5h82q-7 -49 23 -79t81 -30q49 0 87 30t45 79q8 56 -28.5 89t-111.5 33l11 76q139 0 154 107q5 42 -22 67t-68 25q-42 0 -76 -25t-40 -67h-82q10 76 71.5 125t137.5 49q77 0 124.5 -49t36.5 -125q-6 -46 -32.5 -86t-56.5 -56
q39 -34 56 -69t9 -94q-12 -84 -78 -137.5t-148 -53.5z" />
    <glyph glyph-name="uni2084" unicode="&#x2084;" horiz-adv-x="676" 
d="M177 0l19 133h-278l14 100l309 398h107l-58 -415h76l-11 -83h-77l-19 -133h-82zM16 216h193l42 304z" />
    <glyph glyph-name="uni2085" unicode="&#x2085;" horiz-adv-x="674" 
d="M106 -31q-93 0 -149.5 59.5t-44.5 152.5h83q-8 -58 28 -94t94 -36t104.5 36t54.5 94q8 57 -27.5 97.5t-93.5 40.5l-186 -31l76 331h348l-12 -80h-272l-31 -144l89 6q94 0 149 -64.5t42 -155.5q-13 -93 -86.5 -152.5t-165.5 -59.5z" />
    <glyph glyph-name="uni2086" unicode="&#x2086;" horiz-adv-x="682" 
d="M128 -31q-102 0 -158.5 64.5t-43.5 157.5q4 30 17 59.5t41.5 73t80 114t132.5 182.5h96l-145 -204q76 16 134.5 -13.5t89 -86t20.5 -125.5q-9 -68 -49 -118t-97 -77t-118 -27zM139 51q63 0 112.5 39.5t58.5 102.5q9 68 -33 108t-97 40q-64 0 -114 -45.5t-58 -108.5
q-8 -61 31 -98.5t100 -37.5z" />
    <glyph glyph-name="uni2087" unicode="&#x2087;" horiz-adv-x="620" 
d="M-61 0l393 549h-332l12 82h428l-11 -82l-394 -549h-96z" />
    <glyph glyph-name="uni2088" unicode="&#x2088;" horiz-adv-x="598" 
d="M96 -31q-82 0 -134 53.5t-40 136.5q7 52 36 94.5t71 69.5q-27 25 -40.5 62t-7.5 79q11 79 72 128t138 49q78 0 126 -49t37 -128q-6 -42 -30 -79t-59 -62q34 -27 51.5 -69.5t10.5 -94.5q-11 -83 -78.5 -136.5t-152.5 -53.5zM151 361q44 0 79 31t41 72q6 44 -21 69t-71 25
q-42 0 -76 -25t-39 -69q-7 -41 19 -72t68 -31zM108 51q50 0 90 29.5t47 78.5q7 50 -24 84.5t-81 34.5q-49 0 -89 -34.5t-47 -84.5q-7 -49 24 -78.5t80 -29.5z" />
    <glyph glyph-name="uni2089" unicode="&#x2089;" horiz-adv-x="660" 
d="M34 0l147 204q-74 -16 -130.5 9.5t-87.5 76.5t-29.5 115.5t45.5 127.5q37 61 98 89.5t124 28.5q89 0 143.5 -52t60.5 -130t-51 -155l-226 -314h-94zM148 279q48 0 89 26.5t64.5 69t19.5 91.5q-7 54 -46.5 78.5t-85.5 24.5q-73 0 -125 -52t-46 -124q6 -55 45.5 -84.5
t84.5 -29.5z" />
    <glyph glyph-name="Euro" unicode="&#x20ac;" horiz-adv-x="1191" 
d="M912 -14q-141 -27 -265 2.5t-221 105t-157 187.5t-72 249h-239l10 75h226l27 189h-226l10 75h239q52 140 144.5 252t211 187.5t250.5 104.5t263 3l-12 -87q-119 25 -235 1t-219 -88.5t-184 -159.5t-129 -213h364l-11 -75h-378l-27 -189h379l-11 -75h-362
q19 -159 108 -274t226.5 -165.5t301.5 -17.5z" />
    <glyph glyph-name="trademark" unicode="&#x2122;" horiz-adv-x="2875" 
d="M1178 1400l-12 -86h-507l-185 -1314h-86l185 1314h-505l12 86h1098zM1081 0l467 1400h51l263 -1099l570 1099h51l75 -1400h-88l-63 1177l-546 -1054h-49l-251 1054l-393 -1177h-87z" />
    <glyph glyph-name="oneeighth" unicode="&#x215b;" horiz-adv-x="1902" 
d="M100 818l77 549h-86l24 82h156l-89 -631h-82zM211 0l1005 1400h89l-1005 -1400h-89zM1401 -31q-82 0 -134 53.5t-40 136.5q7 52 36 94.5t71 69.5q-27 25 -40.5 62t-7.5 79q11 79 72 128t138 49q78 0 126 -49t37 -128q-6 -42 -30 -79t-59 -62q34 -27 51.5 -69.5
t10.5 -94.5q-11 -83 -78.5 -136.5t-152.5 -53.5zM1456 361q44 0 79 31t41 72q6 44 -21 69t-71 25q-42 0 -76 -25t-39 -69q-7 -41 19 -72t68 -31zM1413 51q50 0 90 29.5t47 78.5q7 50 -24 84.5t-81 34.5q-49 0 -89 -34.5t-47 -84.5q-7 -49 24 -78.5t80 -29.5z" />
    <glyph glyph-name="threeeighths" unicode="&#x215c;" horiz-adv-x="2040" 
d="M189 798q-84 0 -135.5 53t-39.5 138h83q-7 -50 23 -80t81 -30q49 0 87 30t45 80q8 55 -28.5 88.5t-111.5 33.5l11 76q138 0 153 105q6 42 -21.5 67.5t-69.5 25.5t-75.5 -25.5t-39.5 -67.5h-83q11 77 72 125.5t138 48.5t124.5 -48.5t36.5 -125.5q-6 -45 -32 -85t-56 -56
q39 -33 56 -68.5t9 -93.5q-12 -85 -78.5 -138t-148.5 -53zM348 0l1005 1400h89l-1005 -1400h-89zM1538 -31q-82 0 -134 53.5t-40 136.5q7 52 36 94.5t71 69.5q-27 25 -40.5 62t-7.5 79q11 79 72 128t138 49q78 0 126 -49t37 -128q-6 -42 -30 -79t-59 -62q34 -27 51.5 -69.5
t10.5 -94.5q-11 -83 -78.5 -136.5t-152.5 -53.5zM1593 361q44 0 79 31t41 72q6 44 -21 69t-71 25q-42 0 -76 -25t-39 -69q-7 -41 19 -72t68 -31zM1550 51q50 0 90 29.5t47 78.5q7 50 -24 84.5t-81 34.5q-49 0 -89 -34.5t-47 -84.5q-7 -49 24 -78.5t80 -29.5z" />
    <glyph glyph-name="fiveeighths" unicode="&#x215d;" horiz-adv-x="2168" 
d="M222 798q-93 0 -149.5 59t-43.5 152h83q-9 -57 27.5 -93.5t94.5 -36.5t104 36.5t55 93.5q8 58 -28.5 98t-93.5 41q-51 0 -87 -7t-98 -25l76 333h347l-11 -80h-272l-32 -146q135 18 216.5 -38t64.5 -176q-13 -93 -87 -152t-166 -59zM477 0l1005 1400h89l-1005 -1400h-89z
M1666 -31q-82 0 -134 53.5t-40 136.5q7 52 36 94.5t71 69.5q-27 25 -40.5 62t-7.5 79q11 79 72 128t138 49q78 0 126 -49t37 -128q-6 -42 -30 -79t-59 -62q34 -27 51.5 -69.5t10.5 -94.5q-11 -83 -78.5 -136.5t-152.5 -53.5zM1721 361q44 0 79 31t41 72q6 44 -21 69t-71 25
q-42 0 -76 -25t-39 -69q-7 -41 19 -72t68 -31zM1678 51q50 0 90 29.5t47 78.5q7 50 -24 84.5t-81 34.5q-49 0 -89 -34.5t-47 -84.5q-7 -49 24 -78.5t80 -29.5z" />
    <glyph glyph-name="seveneighths" unicode="&#x215e;" horiz-adv-x="2114" 
d="M56 818l391 548h-332l12 83h428l-11 -82l-392 -549h-96zM423 0l1005 1400h89l-1005 -1400h-89zM1613 -31q-82 0 -134 53.5t-40 136.5q7 52 36 94.5t71 69.5q-27 25 -40.5 62t-7.5 79q11 79 72 128t138 49q78 0 126 -49t37 -128q-6 -42 -30 -79t-59 -62q34 -27 51.5 -69.5
t10.5 -94.5q-11 -83 -78.5 -136.5t-152.5 -53.5zM1668 361q44 0 79 31t41 72q6 44 -21 69t-71 25q-42 0 -76 -25t-39 -69q-7 -41 19 -72t68 -31zM1625 51q50 0 90 29.5t47 78.5q7 50 -24 84.5t-81 34.5q-49 0 -89 -34.5t-47 -84.5q-7 -49 24 -78.5t80 -29.5z" />
    <glyph glyph-name="arrowleft" unicode="&#x2190;" horiz-adv-x="1351" 
d="M397 275l-408 475l542 475l51 -60l-423 -372h1027l-13 -86h-1027l320 -372z" />
    <glyph glyph-name="arrowup" unicode="&#x2191;" horiz-adv-x="1112" 
d="M338 153l146 1030l-425 -374l-54 62l545 476l408 -476l-69 -62l-319 374l-146 -1030h-86z" />
    <glyph glyph-name="arrowright" unicode="&#x2192;" horiz-adv-x="1351" 
d="M636 275l-52 60l424 372h-1026l13 86h1025l-319 372l69 60l410 -475z" />
    <glyph glyph-name="arrowdown" unicode="&#x2193;" horiz-adv-x="1112" 
d="M380 155l-408 476l69 60l319 -372l145 1026h86l-145 -1026l426 372l52 -60z" />
    <glyph glyph-name="arrowboth" unicode="&#x2194;" horiz-adv-x="1602" 
d="M397 275l-408 475l542 475l51 -60l-423 -372h1112l-320 372l69 60l411 -475l-545 -475l-52 60l424 372h-1112l320 -372z" />
    <glyph glyph-name="arrowupdn" unicode="&#x2195;" horiz-adv-x="1112" 
d="M362 28l-408 477l70 62l319 -375l156 1116l-424 -374l-52 62l542 476l411 -476l-71 -62l-320 374l-156 -1116l424 375l54 -62z" />
    <glyph glyph-name="uni2196" unicode="&#x2196;" horiz-adv-x="1034" 
d="M740 314l-625 726l-74 -527h-86l95 673h673l-13 -86h-524l623 -726z" />
    <glyph glyph-name="uni2197" unicode="&#x2197;" horiz-adv-x="1032" 
d="M-13 314l-51 61l827 725h-527l13 86h673l-95 -673h-86l74 526z" />
    <glyph glyph-name="uni2198" unicode="&#x2198;" horiz-adv-x="1032" 
d="M126 314l13 86h526l-624 725l70 61l623 -725l74 526h86l-95 -673h-673z" />
    <glyph glyph-name="uni2199" unicode="&#x2199;" horiz-adv-x="1032" 
d="M-73 314l95 673h86l-74 -526l827 725l52 -61l-827 -725h527l-13 -86h-673z" />
    <glyph glyph-name="partialdiff" unicode="&#x2202;" horiz-adv-x="1164" 
d="M382 -26q-138 0 -242.5 67.5t-156.5 181.5t-33 253q15 104 67 195t131 160t175.5 108t199.5 39q121 0 214 -55.5t143 -148.5q-7 119 -44.5 231t-103.5 201t-160 141t-214 52l12 86q152 0 273 -75t201.5 -208t111.5 -307.5t5 -373.5q-23 -161 -103.5 -284.5t-203 -193
t-272.5 -69.5zM394 60q118 0 221 57.5t171 152.5t84 206q16 114 -26.5 208.5t-129.5 151t-203 56.5q-118 0 -220 -57t-170.5 -152t-84.5 -207q-16 -113 26.5 -207.5t129 -151.5t202.5 -57z" />
    <glyph glyph-name="emptyset" unicode="&#x2205;" 
d="M108 -45l-64 40l58 80q-84 72 -125.5 183t-22.5 242q15 110 67.5 205.5t131.5 168t175.5 113.5t199.5 41q122 0 217 -56l57 77l63 -40l-57 -80q83 -72 123.5 -183.5t22.5 -245.5q-15 -109 -67.5 -204t-131.5 -167.5t-175 -113.5t-200 -41q-61 0 -116 15.5t-102 42.5z
M155 150l538 750q-95 54 -202 44.5t-204 -69.5t-165 -157.5t-85 -219.5q-15 -107 18 -198t100 -150zM214 104q100 -56 207.5 -46t203.5 70t162.5 157.5t83.5 216.5q14 107 -18 199.5t-99 152.5z" />
    <glyph glyph-name="product" unicode="&#x220f;" horiz-adv-x="1280" 
d="M80 1400h1120l-12 -86h-217l-185 -1314h-86l185 1314h-514l-185 -1314h-86l185 1314h-217z" />
    <glyph glyph-name="summation" unicode="&#x2211;" horiz-adv-x="972" 
d="M-117 0l13 86l398 612l-227 612l12 86h832l-12 -86h-734l226 -612l-398 -612h734l-12 -86h-832z" />
    <glyph glyph-name="minus" unicode="&#x2212;" 
d="M-39 557l13 86h1000l-13 -86h-1000z" />
    <glyph glyph-name="radical" unicode="&#x221a;" horiz-adv-x="1255" 
d="M852 1400h323l-12 -86h-263l-665 -1314h-94l-158 708h92l131 -585z" />
    <glyph glyph-name="infinity" unicode="&#x221e;" horiz-adv-x="1446" 
d="M208 328q-123 15 -187.5 102t-48.5 200q11 79 56.5 145.5t114.5 108.5t150 48q82 0 135 -25t97.5 -77.5t99.5 -133.5q111 117 192 176.5t182 59.5q142 -9 209 -95t50 -207q-11 -79 -56.5 -144.5t-114 -107.5t-148.5 -50q-79 0 -131 22.5t-97 74.5t-104 139
q-81 -83 -140.5 -135.5t-118.5 -77t-140 -23.5zM945 411q86 9 152.5 71.5t78.5 147.5q12 88 -37 149t-150 70q-57 0 -101 -22.5t-94 -70.5t-126 -126q64 -93 103 -140t76 -63t98 -16zM223 411q67 0 113.5 21t97 69t129.5 129q-59 84 -95.5 132t-76.5 67.5t-106 19.5
q-88 -9 -153.5 -72t-77.5 -147q-12 -89 38 -149.5t131 -69.5z" />
    <glyph glyph-name="integral" unicode="&#x222b;" horiz-adv-x="776" 
d="M21 -26q-61 1 -97.5 49t-19.5 113l72 -6q-8 -29 6.5 -50.5t45.5 -26.5q28 -3 52 15.5t33 48.5l269 1179q17 62 69 97.5t109 32.5q62 -4 96.5 -51.5t20.5 -111.5l-69 7q5 33 -12 54.5t-46 22.5q-31 3 -55.5 -18.5t-30.5 -46.5l-268 -1176q-18 -66 -63.5 -98.5
t-111.5 -33.5z" />
    <glyph glyph-name="approxequal" unicode="&#x2248;" horiz-adv-x="1181" 
d="M688 743q-62 0 -130 36.5t-135.5 84.5t-129.5 84t-112 36q-51 1 -93.5 -27.5t-66.5 -74.5t-19 -98l-85 -12q-10 72 26.5 140.5t103 113t145.5 44.5q58 0 122.5 -37t129.5 -85t128 -84.5t120 -36.5q52 0 95.5 28t67.5 73t17 95l86 15q11 -77 -26 -144.5t-102.5 -109
t-141.5 -41.5zM688 195q-62 0 -130 36.5t-135.5 84.5t-129.5 84t-112 36q-51 1 -93.5 -27.5t-66.5 -74.5t-19 -98l-85 -12q-10 72 26.5 140.5t103 113t145.5 44.5q58 0 122.5 -37t129.5 -85t128 -84.5t120 -36.5q52 0 95.5 28t67.5 73t17 95l86 15q11 -77 -26 -144.5
t-102.5 -109t-141.5 -41.5z" />
    <glyph glyph-name="notequal" unicode="&#x2260;" 
d="M763 1182l-148 -344h386l-12 -86h-412l-130 -304h499l-12 -86h-525l-150 -344h-89l149 344h-385l12 86h410l132 304h-499l12 86h526l147 344h89z" />
    <glyph glyph-name="lessequal" unicode="&#x2264;" 
d="M932 346l-960 284l19 138l1040 286l-13 -91l-965 -263l892 -265zM-117 0l13 86h1000l-13 -86h-1000z" />
    <glyph glyph-name="greaterequal" unicode="&#x2265;" 
d="M-68 348l13 90l966 263l-893 262l13 91l960 -285l-19 -138zM-117 0l13 86h1000l-13 -86h-1000z" />
    <glyph glyph-name="lozenge" unicode="&#x25ca;" horiz-adv-x="751" 
d="M131 0l-169 702l364 698h99l168 -698l-367 -702h-95zM197 134l306 568l-146 568l-304 -568z" />
    <glyph glyph-name="uniFFFD" unicode="&#xfffd;" horiz-adv-x="1630" 
d="M616 -26q-54 0 -103.5 20t-85.5 62l-356 414q-36 42 -48.5 94t-5.5 106q8 54 36 106t74 92l472 414q48 42 103 62t109 20t102 -20t84 -62l356 -414q36 -42 49 -93t5 -105q-7 -54 -34.5 -106t-75.5 -94l-472 -414q-46 -40 -100.5 -61t-108.5 -21zM660 519h75l1 2
q3 28 22 53t46 39q52 26 87.5 74.5t44.5 107.5q11 84 -41 144t-136 60q-86 0 -154.5 -60t-80.5 -144h76q7 54 50.5 91.5t97.5 37.5t87 -37.5t25 -91.5q-5 -38 -27.5 -69.5t-54.5 -47.5q-48 -23 -79.5 -65.5t-38.5 -91.5v-2zM674 337q16 0 28.5 11t15.5 27q1 15 -8 26t-25 11
q-15 0 -28 -11t-15 -26q-3 -16 7 -27t25 -11z" />
    </font>
</defs>
</svg>
