<?xml version="1.0" standalone="no"?>
<!DOCTYPE svg PUBLIC "-//W3C//DTD SVG 20010904//EN"
 "http://www.w3.org/TR/2001/REC-SVG-20010904/DTD/svg10.dtd">
<svg version="1.0" xmlns="http://www.w3.org/2000/svg"
 width="262.000000pt" height="262.000000pt" viewBox="0 0 262.000000 262.000000"
 preserveAspectRatio="xMidYMid meet">
<metadata>
Created by potrace 1.11, written by Peter Selinger 2001-2013
</metadata>
<g transform="translate(0.000000,262.000000) scale(0.100000,-0.100000)"
fill="#000000" stroke="none">
<path d="M1189 2616 c-2 -2 -27 -6 -56 -10 -106 -12 -228 -48 -340 -97 -23
-11 -44 -19 -48 -19 -12 0 -162 -95 -219 -138 -269 -206 -455 -522 -504 -857
-14 -96 -7 -345 12 -435 105 -506 472 -894 966 -1020 106 -27 310 -50 310 -34
0 3 -22 30 -48 59 -145 159 -230 367 -236 581 -8 263 96 505 303 701 42 40 79
73 83 73 4 0 13 6 20 13 45 43 197 119 313 155 208 66 437 75 630 26 78 -20
194 -61 210 -74 20 -17 23 -2 10 55 -44 185 -145 399 -252 530 -192 234 -469
407 -743 464 -30 6 -66 14 -80 17 -27 6 -326 15 -331 10z m336 -431 c37 -8 92
-61 106 -103 49 -147 -96 -280 -233 -213 -141 69 -124 266 27 319 28 9 41 9
100 -3z"/>
</g>
</svg>
