<svg xmlns="http://www.w3.org/2000/svg" viewBox="0 0 24 24"><path class="prefix__business-climb-top" d="M4.25 23.5l8.5-13.5a1.259 1.259 0 012 0l8.5 13.5z" fill="none" stroke="currentColor" stroke-linecap="round" stroke-linejoin="round" stroke-width=".985"/><path class="prefix__business-climb-top" d="M4.25 23.5H.75l3.5-5.5a1.341 1.341 0 011-.5 1.341 1.341 0 011 .5l.65 1.3M8.705 16.424l2.343 1.982a1 1 0 001.353-.057l.642-.642a1 1 0 011.414 0l.642.642a1 1 0 001.353.057l2.3-1.943M13.75 9.5v-9M13.75.5h6.96a.5.5 0 01.39.812L20 2.688a.5.5 0 000 .624l1.1 1.376a.5.5 0 01-.39.812h-6.96" fill="none" stroke="currentColor" stroke-linecap="round" stroke-linejoin="round" stroke-width=".985"/></svg>
