<svg xmlns="http://www.w3.org/2000/svg" viewBox="0 0 24 24"><path class="prefix__memory" d="M8.5 21.5v-2.721C6.935 18.787 6.549 18.55 6 18c-.7-.7-.5-3.5-.5-3.5s-1 .021-1.5 0c-.176-.008-.315-.261-.415-.4a.921.921 0 01-.085-.5c-.09-1.257 1.68-3.414 1.68-4.041q0-.287.024-.561V9c.316-3.579 3.645-5.5 6.857-5.5a7.367 7.367 0 017.439 7.485c0 2.382-.652 4.617-3 6.01v4.5" fill="none" stroke="currentColor" stroke-linecap="round" stroke-linejoin="round"/><path class="prefix__memory" d="M17.086 11.111a1 1 0 01-1.3 1.006L8.541 9.829a1 1 0 01-.574-1.441A4.4 4.4 0 0113.5 6.5a4.88 4.88 0 013.586 4.611zM23.5 3.5v-2a1 1 0 00-1-1h-2M.5 3.5v-2a1 1 0 011-1h2M23.5 20.5v2a1 1 0 01-1 1h-2M.5 20.5v2a1 1 0 001 1h2" fill="none" stroke="currentColor" stroke-linecap="round" stroke-linejoin="round"/></svg>
