<svg xmlns="http://www.w3.org/2000/svg" viewBox="0 0 24 24"><defs><style>.rotate-back{fill:none;stroke:currentColor;stroke-linecap:round;stroke-linejoin:round;}</style></defs><title>rotate-back</title><path class="rotate-back" d="M3.434,10.537a8.78,8.78,0,0,1,.523-1.274"/><path class="rotate-back" d="M3.069,14.425A9.005,9.005,0,0,1,3,13.305q0-.437.041-.863"/><path class="rotate-back" d="M4.389,18.111A9,9,0,0,1,3.546,16.4"/><path class="rotate-back" d="M7.163,20.9a9.028,9.028,0,0,1-1.506-1.2"/><path class="rotate-back" d="M10.98,22.248a8.973,8.973,0,0,1-1.909-.431"/><path class="rotate-back" d="M10,4.25h2a9.029,9.029,0,0,1,.995,18"/><polyline class="rotate-back" points="13.5 1.75 10 4.25 13.5 6.75"/></svg>
